<svg width="155" height="56" viewBox="0 0 155 56" fill="none" xmlns="http://www.w3.org/2000/svg">
<mask id="mask0_3_893" style="mask-type:luminance" maskUnits="userSpaceOnUse" x="0" y="0" width="155" height="56">
<path d="M0 0H155V56H0V0Z" fill="white"/>
</mask>
<g mask="url(#mask0_3_893)">
<path d="M92.9225 21.2763H68.1225C67.9675 21.622 67.89 22.0152 67.89 22.4084C67.89 22.9514 67.9675 23.4432 68.2 23.9363H87.42C85.715 27.4338 79.9025 29.4023 74.4 28.3189C68.8975 27.2354 65.7975 23.5418 67.5025 20.0455C69.2075 16.5479 75.02 14.5794 80.5225 15.6629C83.9325 16.302 86.49 18.0258 87.4975 20.1928H92.7675C92.602 19.5658 92.3157 18.9539 91.915 18.3704L90.5975 18.7161C89.4691 16.9225 87.4246 15.4152 84.785 14.4309L85.56 13.5933C83.8087 12.9142 81.8587 12.4622 79.825 12.2639L79.67 13.1015C78.1748 12.9615 76.6514 12.9945 75.175 13.1989C73.7025 13.3961 72.23 13.6919 70.9125 14.185L70.215 13.3474C68.2775 13.9877 66.5725 14.9227 65.1775 16.0561L66.4175 16.6465C64.5575 18.1743 63.4725 20.0942 63.4725 22.0152H62V22.1138C62 23.3945 62.3875 24.7239 63.24 25.906L64.5575 25.5615C65.7233 27.3389 67.7239 28.8508 70.2925 29.8954L69.5175 30.5357C71.3 31.226 73.315 31.6679 75.33 31.8164L75.485 30.9789C76.9803 31.1188 78.5036 31.0858 79.98 30.8815C81.4525 30.6843 82.925 30.3884 84.2425 29.8954L84.8625 30.6343C86.7225 29.994 88.2725 29.1077 89.59 28.073L88.505 27.5324C90.365 26.0046 91.45 24.0848 91.45 22.1637H92.845V21.9166C93.0775 21.7194 93 21.5234 92.9225 21.2763Z" fill="#77A007"/>
<path d="M84.475 0.590435C84.3596 0.417186 84.1661 0.268954 83.9182 0.164031C83.6703 0.0591074 83.3789 0.00208471 83.08 0H72.075C71.7761 0.00208471 71.4848 0.0591074 71.2369 0.164031C70.989 0.268954 70.7954 0.417186 70.68 0.590435L46.5775 41.1259C46.4225 41.3231 46.5775 41.569 46.8875 41.6677C47.0425 41.7164 47.12 41.7163 47.275 41.7163H61.535C62.155 41.7163 62.775 41.5191 63.1625 41.2245C63.1625 41.2245 70.9125 35.4127 77.655 35.4127C84.3975 35.4127 92.1475 41.2245 92.1475 41.2245C92.6125 41.5191 93.155 41.6677 93.775 41.7163H107.725C107.808 41.727 107.893 41.7262 107.975 41.714C108.058 41.7018 108.134 41.6785 108.201 41.6457C108.267 41.6129 108.321 41.5714 108.36 41.5241C108.398 41.4768 108.419 41.4249 108.423 41.3718C108.423 41.2744 108.423 41.2245 108.345 41.1259L84.475 0.590435ZM78.12 31.8165C69.595 32.0137 62.5425 27.7784 62.2325 22.4097C61.9225 17.041 68.5875 12.5099 77.035 12.3626C85.4825 12.1654 92.6125 16.4007 92.845 21.7694V22.4097C92.69 27.5325 86.18 31.6692 78.12 31.8165Z" fill="#77A007"/>
<path d="M15.1125 53.1925H11.78L10.4625 51.0255H4.4175L3.255 53.1925H0L5.89 43.5873H9.145L15.1125 53.1925ZM9.5325 49.3504L7.44 45.8041L5.425 49.3504H9.5325ZM22.8625 53.1925V52.1577C22.475 52.5022 21.9325 52.8467 21.3125 53.044C20.6925 53.2412 19.995 53.3897 19.22 53.3398C18.5225 53.3398 17.825 53.2424 17.205 53.044C16.6393 52.8488 16.2005 52.5352 15.965 52.1577C15.655 51.6659 15.5 51.1229 15.5775 50.6311V46.2485H18.445V49.449C18.445 50.0407 18.445 50.6311 18.6 51.2215C18.6775 51.4187 18.91 51.616 19.22 51.7633C19.53 51.9118 19.9175 51.9605 20.305 51.9605C20.77 51.9605 21.235 51.8631 21.6225 51.7146C22.01 51.5673 22.2425 51.3201 22.3975 51.0742C22.63 50.4339 22.63 49.8434 22.63 49.2031V46.2972H25.575V53.1925H22.8625ZM32.55 46.1998V47.6765H30.535V50.4838C30.535 50.8283 30.535 51.1728 30.6125 51.4699C30.69 51.5673 30.7675 51.6647 30.845 51.7146C31 51.7633 31.155 51.8132 31.31 51.8132C31.6975 51.8132 32.085 51.7158 32.4725 51.6172L32.705 53.0452C32.0075 53.2412 31.2325 53.3398 30.4575 53.3398C29.9925 53.3398 29.5275 53.2911 29.0625 53.1937C28.675 53.0939 28.365 52.9466 28.1325 52.7494C27.8911 52.551 27.7555 52.3099 27.745 52.0603C27.6675 51.6172 27.59 51.1728 27.6675 50.7796V47.7252H26.35V46.2485H27.6675V44.8193L30.535 43.7358V46.1986L32.55 46.1998ZM36.3475 43.5885V47.1347C37.1225 46.4944 38.3625 46.1 39.68 46.1C40.3 46.1 40.92 46.1986 41.4625 46.3471C41.9275 46.4944 42.3925 46.6916 42.7025 46.9375C43.0125 47.1847 43.1675 47.4793 43.245 47.7751C43.3225 48.2182 43.4 48.7113 43.4 49.1544V53.2424H40.5325V49.5476C40.5325 49.1045 40.5325 48.6127 40.3775 48.1695C40.3 47.9723 40.0675 47.8238 39.7575 47.6765C39.4637 47.5449 39.1107 47.4758 38.75 47.4793C38.285 47.4793 37.82 47.528 37.4325 47.6765C37.045 47.8238 36.735 48.0709 36.58 48.3667C36.3475 48.8099 36.27 49.253 36.3475 49.6961V53.1438H33.48V43.5386H36.3475V43.5885ZM51.6925 50.9756L54.56 51.2714C54.25 51.9118 53.63 52.4036 52.7775 52.7981C51.8475 53.1925 50.84 53.3398 49.755 53.3398C47.8175 53.3398 46.4225 52.9466 45.4925 52.1589C44.7175 51.4687 44.33 50.6311 44.4075 49.7448C44.33 48.7587 44.795 47.7751 45.8025 47.0361C46.7325 46.3958 48.05 46.0501 49.3675 46.0501C50.84 46.0014 52.235 46.3958 53.2425 47.0848C54.1725 47.7751 54.6375 48.8087 54.56 50.2379H47.275C47.275 50.681 47.5075 51.1728 47.9725 51.5174C48.36 51.8132 48.98 51.9605 49.6 51.9605C49.9875 51.9605 50.4525 51.8631 50.7625 51.7146C50.9879 51.6364 51.1862 51.5308 51.3459 51.4039C51.5056 51.277 51.6234 51.1314 51.6925 50.9756ZM51.8475 49.1045C51.8475 48.6614 51.615 48.2182 51.2275 47.8737C50.84 47.6266 50.2975 47.4294 49.755 47.4294C49.135 47.4294 48.5925 47.5779 48.205 47.8725C47.74 48.2182 47.5075 48.6614 47.585 49.0546H51.8475V49.1045ZM65.9525 53.1925H63.085V49.6462C63.1625 49.1544 63.085 48.6614 62.93 48.2182C62.8866 48.1136 62.8091 48.0157 62.7023 47.9308C62.5956 47.846 62.462 47.7759 62.31 47.7252C62.0215 47.5871 61.6648 47.5173 61.3025 47.528C60.8375 47.528 60.3725 47.6266 59.985 47.7751C59.5975 47.9224 59.2875 48.1683 59.1325 48.4641C58.9775 49.0059 58.9 49.4989 58.9 50.0407V53.1937H55.955V46.2485H58.6675V47.2334C59.2486 46.7122 60.0945 46.3308 61.0663 46.1516C62.038 45.9724 63.0778 46.0061 64.015 46.2473C64.48 46.3471 64.945 46.5431 65.255 46.7902C65.565 47.0361 65.72 47.2821 65.7975 47.5779C65.9525 47.9723 65.9525 48.4154 65.9525 48.8087V53.1925ZM72.85 46.1998V47.6765H70.835V50.4838C70.835 50.8283 70.835 51.1728 70.9125 51.4699C70.9125 51.5673 71.0675 51.6647 71.145 51.7146C71.3 51.7633 71.455 51.8132 71.61 51.8132C71.9975 51.8132 72.385 51.7158 72.7725 51.6172L73.005 53.0452C72.3075 53.2412 71.5325 53.3398 70.68 53.3398C70.215 53.3398 69.75 53.2911 69.285 53.1937C68.8975 53.0939 68.5875 52.9466 68.355 52.7494C68.1136 52.551 67.978 52.3099 67.9675 52.0603C67.89 51.6172 67.89 51.1728 67.89 50.7796V47.7252H66.65V46.2485H67.9675V44.8193L70.835 43.7358V46.1986L72.85 46.1998ZM73.8575 45.2624V43.5398H76.725V45.2636L73.8575 45.2624ZM73.8575 53.1925V46.1998H76.725V53.1937L73.8575 53.1925ZM88.195 48.2669L85.3275 48.6127C85.2547 48.3053 85.0069 48.025 84.63 47.8238C84.2425 47.6278 83.7775 47.5292 83.3125 47.5292C82.6925 47.5292 81.995 47.6753 81.6075 48.021C81.1425 48.5141 80.91 49.0558 80.9875 49.5975C80.9875 50.4351 81.22 51.0255 81.685 51.3214C82.15 51.6659 82.77 51.8631 83.4675 51.8132C83.9325 51.8132 84.3975 51.7158 84.785 51.5186C85.1725 51.2227 85.4825 50.8782 85.56 50.4838L88.4275 50.7796C88.195 51.5186 87.6525 52.1577 86.7225 52.6507C85.715 53.0939 84.5525 53.3398 83.39 53.2911C81.9175 53.3398 80.5225 52.9953 79.5925 52.305C78.585 51.5673 78.12 50.6311 78.1975 49.6462C78.12 48.6614 78.585 47.7252 79.5925 46.9375C80.6 46.2972 81.995 45.9514 83.4675 46.0014C84.63 45.9527 85.715 46.1499 86.645 46.5431C87.3425 47.0361 87.9625 47.6266 88.195 48.2669Z" fill="white"/>
<path d="M96.4876 49.3994V48.2673H102.843V51.8135C101.913 52.3053 100.905 52.6511 99.82 52.9457C98.8125 53.1928 97.7275 53.3401 96.6425 53.3401C95.2475 53.3401 93.8526 53.1429 92.6126 52.7497C91.4501 52.3553 90.4426 51.7636 89.9001 50.9759C89.2824 50.1781 88.9642 49.3018 88.97 48.4146C88.97 47.5283 89.2801 46.5921 89.9001 45.8045C90.4426 45.0168 91.3726 44.4252 92.5351 43.982C93.7622 43.5959 95.1151 43.3938 96.4876 43.3916C97.4951 43.3916 98.5026 43.489 99.4326 43.7361C100.285 43.9333 100.983 44.2279 101.525 44.6711C102.068 45.1154 102.455 45.6572 102.688 46.2476L100.905 46.5434C100.733 46.1365 100.444 45.7528 100.053 45.4112C99.6651 45.1154 99.2 44.8683 98.58 44.721C97.9084 44.5682 97.2017 44.4852 96.4876 44.4751C95.7126 44.4751 94.86 44.5725 94.085 44.721C93.465 44.8683 92.9226 45.1154 92.4576 45.41C92.0701 45.7059 91.76 46.0017 91.5275 46.3462C91.14 46.9379 90.9075 47.6269 90.9075 48.2673C90.9075 49.0062 91.1401 49.7452 91.6051 50.4342C92.0701 50.9759 92.7676 51.4203 93.6201 51.7149C94.4726 52.0107 95.4801 52.158 96.4101 52.158C97.2626 52.158 98.1151 52.0606 98.9676 51.8622C99.6651 51.7149 100.285 51.469 100.828 51.1732V49.3994H96.4876ZM111.678 52.3053C111.058 52.6499 110.438 52.897 109.663 53.0942C109.043 53.2415 108.345 53.3401 107.648 53.3401C106.64 53.3888 105.633 53.1928 104.858 52.7984C104.539 52.6212 104.289 52.4002 104.127 52.1525C103.966 51.9049 103.898 51.6373 103.928 51.3704C103.928 51.0246 104.083 50.73 104.315 50.433C104.548 50.1384 104.858 49.9412 105.245 49.7439C105.633 49.5979 106.098 49.4493 106.563 49.3507C107.105 49.2521 107.648 49.2034 108.19 49.1535C109.319 49.0938 110.436 48.9616 111.523 48.7591V48.4645C111.6 48.07 111.368 47.7255 110.98 47.4297C110.36 47.1339 109.663 46.9866 108.888 47.0353C108.19 46.9866 107.57 47.0839 106.95 47.3311C106.485 47.577 106.098 47.9714 106.02 48.3659L104.238 48.2173C104.393 47.7742 104.625 47.381 105.09 47.0365C105.555 46.6907 106.098 46.4448 106.718 46.3462C107.493 46.1989 108.345 46.1003 109.198 46.1003C109.973 46.1003 110.748 46.149 111.523 46.2963C111.988 46.3949 112.453 46.5921 112.84 46.838C113.15 47.0852 113.305 47.3311 113.46 47.6269C113.538 47.9714 113.538 48.3659 113.538 48.7104V50.2857C113.538 50.9759 113.538 51.665 113.693 52.3553C113.77 52.6499 113.925 52.9457 114.158 53.1928H112.143C111.833 52.897 111.755 52.6012 111.678 52.3053ZM111.523 49.6953C110.515 49.8925 109.508 50.0897 108.5 50.1384C107.958 50.1871 107.415 50.237 106.873 50.3855C106.563 50.4829 106.33 50.5815 106.098 50.7787C105.94 50.9417 105.859 51.1297 105.865 51.3205C105.865 51.6163 106.098 51.9121 106.408 52.1093C106.873 52.3553 107.493 52.4539 108.035 52.4039C108.733 52.4039 109.353 52.3066 109.973 52.1093C110.515 51.9121 110.903 51.6163 111.213 51.2718C111.445 50.8773 111.523 50.4829 111.523 50.0897V49.6953ZM115.243 53.1928V46.1989H116.87V47.1838C117.18 46.8393 117.645 46.5434 118.265 46.3462C118.885 46.149 119.505 46.0504 120.203 46.0504C120.9 46.0504 121.598 46.149 122.218 46.3462C122.76 46.5434 123.148 46.8879 123.303 47.2325C123.656 46.8613 124.155 46.5533 124.752 46.3378C125.349 46.1224 126.024 46.0066 126.713 46.0017C127.643 45.953 128.573 46.149 129.193 46.5921C129.813 47.0852 130.123 47.7243 130.045 48.3659V53.1429H128.263V48.7603C128.263 48.4146 128.263 48.07 128.108 47.7255C127.953 47.5283 127.72 47.3311 127.41 47.2325C127.1 47.0852 126.713 47.0353 126.248 47.0353C125.55 47.0353 124.853 47.1838 124.31 47.5283C123.768 47.9714 123.458 48.5144 123.535 49.1048V53.1429H121.675V48.6118C121.753 48.2173 121.52 47.7742 121.21 47.4309C120.823 47.1339 120.28 46.9866 119.738 47.0353C119.195 47.0353 118.73 47.1339 118.265 47.2824C117.8 47.4796 117.49 47.7255 117.335 48.07C117.103 48.5631 117.025 49.0561 117.025 49.5479V53.1429L115.243 53.1928ZM131.75 44.9182V43.5876H133.61V44.9182H131.75ZM131.75 53.1916V46.1977H133.61V53.1916H131.75ZM135.393 53.1928V46.1989H137.02V47.2337C137.795 46.4935 139.113 46.0504 140.508 46.1003C141.128 46.1003 141.748 46.149 142.29 46.3462C142.755 46.4448 143.22 46.6907 143.53 46.9379C143.84 47.1838 143.995 47.4796 144.15 47.8241C144.228 48.2186 144.228 48.6118 144.228 48.9563V53.2415H142.368V49.005C142.368 48.6617 142.29 48.2672 142.135 47.9215C141.992 47.6747 141.718 47.4663 141.36 47.3311C140.973 47.1838 140.508 47.0852 140.043 47.1339C139.268 47.1339 138.57 47.2824 138.028 47.6269C137.408 47.9227 137.175 48.5631 137.175 49.4493V53.2415L135.393 53.1928ZM145.778 53.7346L147.56 53.8819C147.56 54.1777 147.793 54.4735 148.18 54.6707C148.723 54.9166 149.42 55.0153 150.04 55.0153C150.738 55.0639 151.435 54.9166 152.055 54.6695C152.52 54.4236 152.83 54.129 152.985 53.7346C153.14 53.2415 153.14 52.7485 153.14 52.2079C152.443 52.7984 151.28 53.1429 150.118 53.0942C148.723 53.1429 147.483 52.7497 146.63 52.0594C145.806 51.3436 145.371 50.48 145.39 49.5966C145.39 48.9563 145.545 48.3659 145.933 47.7742C146.243 47.2325 146.863 46.7893 147.56 46.4947C148.335 46.1989 149.188 46.0017 150.118 46.0516C151.358 46.0516 152.52 46.3961 153.295 47.0365V46.1989H155V52.2566C155.078 53.0443 154.923 53.8332 154.458 54.5721C154.07 55.0153 153.528 55.4085 152.83 55.6556C151.978 55.9502 151.048 56.0488 150.04 56.0488C148.955 56.0975 147.793 55.9015 146.863 55.5071C146.088 55.0153 145.623 54.3749 145.778 53.7346ZM147.25 49.5479C147.25 50.4841 147.56 51.1245 148.103 51.5676C148.645 51.9608 149.42 52.2079 150.273 52.2079C151.125 52.2079 151.9 52.0107 152.443 51.5676C153.063 51.1245 153.295 50.4841 153.295 49.5966C153.373 48.914 153.072 48.2354 152.443 47.6768C152.176 47.4781 151.844 47.318 151.469 47.2074C151.095 47.0969 150.686 47.0386 150.273 47.0365C149.42 47.0365 148.645 47.2824 148.18 47.6768C147.506 48.2046 147.174 48.8729 147.25 49.5479Z" fill="#77A007"/>
</g>
</svg>
