<svg fill="none" viewBox="0 0 150 56" id="providers--amatic" xmlns="http://www.w3.org/2000/svg"><path d="M30.75 26.575h-7.973l-1.196 3.61c-.399.76-.598 1.519-.598 1.899 0 .38.2.76.399.95.398.19.996.38 1.993.57v.57h-6.378v-.57c.797-.19 1.395-.38 1.594-.76.598-.57 1.196-1.52 1.794-3.23L27.361 11h.598l6.977 18.805c.398 1.519.996 2.469 1.395 3.039.598.38 1.196.57 1.993.76v.57h-7.973v-.57c.797-.19 1.396-.19 1.595-.57.398-.19.398-.57.398-.95s-.199-1.14-.598-2.28l-.996-3.229zm-.598-1.14l-3.389-9.117-3.388 9.118h6.777zm17.74-8.357l4.784 12.537 4.584-12.537h4.983v.57c-.598 0-.997.19-1.196.19-.398.19-.598.38-.797.76-.2.19-.2.57-.2.95v11.966c0 .38 0 .76.2.95.2.38.398.57.598.76.398.19.797.19 1.395.19v.76h-6.976v-.76c.598 0 .996 0 1.196-.19.2-.19.398-.57.598-.76.199-.38.199-.76.199-1.14V19.547l-5.182 14.626h-.598l-4.983-13.866h-.2v10.257c0 .76 0 1.14.2 1.52 0 .38.199.76.398.95.2.19.399.19.797.38h1.196v.76h-5.78v-.76c.598 0 .997 0 1.395-.19l.598-.57c.2-.38.2-.57.2-.95V19.927c0-.57 0-.95-.2-1.33-.2-.19-.398-.57-.598-.759-.398 0-.797-.19-1.395-.19v-.57h4.784zm19.733 17.095v-.76h.598c.2 0 .398-.19.598-.38.2-.19.398-.57.598-.95.2-.38.598-.949.797-1.709L75.2 16.508h.399l5.58 14.816c.2.57.4.95.599 1.14.2.38.399.57.598.76.2 0 .398.19.598.19h.598v.76h-6.18v-.76h.798l.399-.38s.199-.19.199-.38 0-.57-.2-.76c0-.19-.199-.57-.199-.76l-.996-2.28H72.01l-.797 2.28c0 .19-.2.38-.2.57v.57c0 .19 0 .38.2.57 0 .19.199.38.398.38 0 0 .2.19.399.19h.399v.76h-4.784zm4.784-6.458h4.584l-2.392-6.268-2.192 6.268zm26.908-10.637l.2 3.989h-.598c0-.57-.2-1.14-.2-1.52-.199-.38-.398-.57-.597-.95-.4-.19-.599-.19-.798-.38h-3.388v12.347c0 .38 0 .76.199 1.14 0 .38 0 .76.2.95.199.19.398.38.797.57.199.19.598.19 1.196.19v.76h-7.375v-.76c.598 0 .996 0 1.395-.19l.598-.57c.2-.19.2-.57.2-.95.198-.38.198-.76.198-1.14V18.218h-2.192c-.598 0-.997 0-1.395.19-.399 0-.598.19-.798.57-.199.19-.398.57-.398.95-.2.38-.2.76-.2 1.139h-.598l.2-3.989h13.354zm13.355 17.095h-7.175v-.76c.597 0 .996 0 1.195-.19.399 0 .598-.19.598-.57.2-.19.399-.38.399-.76V19.548c0-.38 0-.76-.199-.95-.2-.38-.399-.57-.598-.759-.399 0-.798-.19-1.395-.19v-.57h7.175v.57c-.598 0-.996.19-1.395.19-.199.19-.399.38-.598.76-.199.19-.199.57-.199.95v12.346c0 .38.199.57.199.76.199.38.399.57.797.57.2.19.598.19 1.196.19v.76zm20.929-11.586h-.598c0-.19-.199-.38-.199-.76 0-.19-.199-.38-.399-.76 0-.19-.199-.38-.398-.76 0-.19-.2-.38-.399-.76-.399-.19-.598-.57-.997-.76-.398-.19-.598-.57-.996-.57l-1.196-.569h-1.196c-.598 0-1.395.19-1.993.57-.598.38-1.196.76-1.595 1.52-.598.76-.997 1.519-1.196 2.469-.199.95-.399 2.09-.399 3.229 0 1.14.2 2.09.399 3.039 0 .76.399 1.52.598 2.09.399.57.598.949.997 1.329.398.38.797.76 1.196.95.398.19.797.38 1.196.38.398.19.797.19 1.195.19.598 0 1.196 0 1.794-.38.598-.19 1.396-.57 1.994-1.14.199-.19.398-.57.598-.76.199-.19.199-.38.398-.57.2-.38.399-.57.399-.76.199-.38.199-.57.399-.95l.598.38c-.2.19-.2.57-.399.76l-.598 1.14c-.199.38-.399.76-.797 1.14-.399.57-.798.76-1.196 1.14-.598.38-1.196.57-1.794.76-.598.38-1.196.38-1.993.38-1.196 0-1.994-.19-2.99-.57-.997-.57-1.794-1.14-2.592-1.9-.598-.76-1.195-1.71-1.793-2.66-.399-1.14-.598-2.279-.598-3.608 0-1.33.199-2.47.598-3.61.398-1.139.996-2.089 1.793-3.038.598-.76 1.595-1.33 2.392-1.9.997-.38 1.994-.76 3.19-.76.797 0 1.395.19 1.993.38l1.196.57c.199 0 .398.19.598.19a.63.63 0 00.398.19h.2l.199.19s0-.19.199-.19c0 0 .2 0 .2-.19.199 0 .199-.19.199-.38.199-.19.199-.38.199-.76h.598l.598 6.079zM16.199 39.302h.997v5.508h-.997v-5.508zm11.76 0h.598l1.396 3.799V39.3h.797v5.51h-.797l-1.396-3.42v.57c.2.19.2.38.2.57v2.28h-.798V39.3zm13.554 0h.798c.199 0 .398 0 .598.19h.398s.2 0 .399.19c0 0 .2.19.2.38.199 0 .199.19.398.38v3.228c-.2.38-.2.57-.399.57 0 .19-.199.38-.199.38-.2 0-.399.19-.399.19h-1.794v-5.508zm.997 4.938h.399c.199 0 .199-.19.398-.19V40.251c-.199 0-.199-.19-.398-.19h-.598v4.18h.199zm12.358-4.938h.797v4.558c0 .19.2.19.2.19 0 .19 0 .19.2.19h.398l.2-.19v-4.748h.996v3.989c0 .19-.2.38-.2.57 0 .19 0 .38-.199.57 0 0 0 .19-.2.19 0 .19-.199.19-.199.19-.199 0-.199.189-.398.189h-.598l-.2-.19c-.199 0-.199 0-.398-.19l-.2-.19c0-.19-.199-.38-.199-.57v-4.558zm13.155 4.558v-.38c0-.19.2-.19.2-.38h.598v.76l.2.19c0 .19 0 .19.198.19h.599c0-.19.199-.19.199-.38s0-.19-.2-.38v-.38c-.199 0-.199-.19-.199-.19l-.996-1.14c-.2-.189-.2-.379-.4-.569 0-.19-.198-.38-.198-.57 0-.19.199-.38.199-.57 0-.19.2-.19.2-.38.198-.19.198-.19.398-.19.2-.19.398-.19.598-.19.2 0 .398 0 .598.19.2 0 .398.19.398.19.2.19.2.19.2.38.2.19.2.38.2.38v.38c-.2.19-.2.19-.2.38h-.598v-.38c0-.19 0-.38-.2-.57 0-.19-.199-.19-.398-.19h-.399v.95c.2 0 .2.19.2.19l.996 1.14c.2.19.399.38.399.57.2.38.2.57.2.76 0 .19 0 .38-.2.57 0 .19 0 .19-.2.38-.199 0-.199.19-.398.19-.2.189-.399.189-.598.189-.2 0-.399 0-.598-.19-.2 0-.399-.19-.399-.19-.2-.19-.2-.19-.2-.38-.198-.19-.198-.38-.198-.38zm13.754-3.798h-.797v-.76h2.59v.76h-.796v4.748h-.997v-4.748zm12.159-.76h.996c.2 0 .2 0 .399.19h.399s.199 0 .398.19c0 0 .2 0 .2.19.199.19.199.19.199.38.2.19.2.38.2.76 0 .569 0 .759-.2 1.139l-.598.57.997 2.09h-.997l-.797-1.9h-.2v1.9h-.996V39.3zm.996 2.849h.399c.2 0 .2 0 .399-.19v-1.71c-.2-.19-.2-.19-.399-.19h-.399v2.09zm12.358-2.85h.798v5.51h-.798V39.3zm11.561 0h2.193v.76h-1.196v1.71h.996v.57h-.996v1.9h1.196v.57h-2.193V39.3zm12.358 4.56c0-.19 0-.38.2-.38v-.38h.598v.76l.199.19c0 .19 0 .19.199.19h.598c0-.19.2-.19.2-.38v-.38s-.2 0-.2-.19v-.19c-.199 0-.199-.19-.199-.19l-.997-1.14c-.199-.19-.199-.38-.398-.57v-1.14c0-.19.199-.19.199-.38.199-.19.399-.19.399-.19.199-.19.398-.19.598-.19.199 0 .598 0 .598.19.199 0 .398.19.398.19l.399.38v.76c0 .19-.199.19-.199.38h-.598v-.38c0-.19 0-.38-.2-.57 0-.19-.199-.19-.398-.19h-.399v.95c.199 0 .199.19.199.19l.997 1.14c.199.19.399.38.399.57.199.38.199.57.199.76v.57l-.399.38s-.199.19-.398.19c-.2.189-.399.189-.598.189-.2 0-.399 0-.598-.19-.2 0-.399-.19-.399-.19-.199-.19-.199-.19-.199-.38s-.2-.38-.2-.38z" fill="#637AB7"></path><path fill-rule="evenodd" clip-rule="evenodd" d="M16 36.263h118v.76H16v-.76z" fill="#637AB7"></path></svg>