<svg width="155" height="56" viewBox="0 0 155 56" fill="none" xmlns="http://www.w3.org/2000/svg">
<path d="M19.375 25.6529H8.90195L7.33093 31.5988C6.80682 32.8506 6.54542 34.1007 6.54542 34.7266C6.54542 35.3525 6.80813 35.9784 7.06953 36.2913C7.59233 36.6042 8.37784 36.9172 9.68745 37.2301V38.1689H1.30957V37.2301C2.35648 36.9172 3.14199 36.6042 3.40339 35.9784C4.1889 35.0395 4.9744 33.4748 5.75991 30.6584L14.9233 0H15.7088L24.8735 30.9729C25.3963 33.4748 26.1818 35.0395 26.7059 35.9784C27.4914 36.6042 28.2769 36.9172 29.3239 37.2301V38.1689H18.8508V37.2301C19.8978 36.9172 20.6846 36.9172 20.946 36.2913C21.4688 35.9784 21.4688 35.3525 21.4688 34.7266C21.4688 34.1007 21.2074 32.8489 20.6833 30.9713L19.375 25.6529ZM18.5894 23.7753L14.1378 8.75906L9.68745 23.7769H18.5894V23.7753ZM41.892 10.0108L48.1761 30.66L54.1974 10.0108H60.7429V10.9496C59.9574 10.9496 59.4333 11.2626 59.1719 11.2626C58.6491 11.5755 58.3864 11.8885 58.125 12.5144C57.8622 12.8273 57.8622 13.4532 57.8622 14.0791V33.7878C57.8622 34.4136 57.8622 35.0395 58.125 35.3525C58.3877 35.9784 58.6478 36.2913 58.9105 36.6042C59.4333 36.9172 59.9574 36.9172 60.7429 36.9172V38.1689H51.5795V36.9172C52.365 36.9172 52.8878 36.9172 53.1505 36.6042C53.4132 36.2913 53.6733 35.6654 53.936 35.3525C54.1974 34.7266 54.1974 34.1007 54.1974 33.4748V14.0774L47.3905 38.1673H46.605L40.0596 15.3292H39.7969V32.2231C39.7969 33.4748 39.7969 34.1007 40.0596 34.7266C40.0596 35.3525 40.321 35.9784 40.5824 36.2913C40.8451 36.6042 41.1065 36.6042 41.6293 36.9172H43.2003V38.1689H35.6079V36.9172C36.3934 36.9172 36.9175 36.9172 37.4403 36.6042L38.2258 35.6654C38.4886 35.0395 38.4886 34.7266 38.4886 34.1007V14.7033C38.4886 13.7645 38.4886 13.1386 38.2258 12.5127C37.9631 12.1998 37.703 11.5739 37.4403 11.2626C36.9175 11.2626 36.3934 10.9496 35.6079 10.9496V10.0108H41.892ZM67.8125 38.1673V36.9155H68.598C68.8607 36.9155 69.1208 36.6026 69.3835 36.2896C69.6462 35.9767 69.9063 35.3508 70.169 34.7249C70.4317 34.0991 70.9545 33.1619 71.2159 31.9101L77.7627 9.072H78.2868L85.6164 33.4748C85.8792 34.4136 86.1419 35.0395 86.4033 35.3525C86.666 35.9784 86.9274 36.2913 87.1888 36.6042C87.4515 36.6042 87.7116 36.9172 87.9743 36.9172H88.7598V38.1689H80.642V36.9172H81.6902L82.2143 36.2913C82.2143 36.2913 82.4757 35.9784 82.4757 35.6654C82.4757 35.3525 82.4757 34.7266 82.213 34.4136C82.213 34.1007 81.9516 33.4748 81.9516 33.1619L80.6433 29.4066H73.5724L72.5255 33.1619C72.5255 33.4748 72.2628 33.7878 72.2628 34.1007V35.0395C72.2628 35.3525 72.2628 35.6654 72.5255 35.9784C72.5255 36.2913 72.7869 36.6042 73.0483 36.6042C73.0483 36.6042 73.311 36.9172 73.5724 36.9172H74.0965V38.1689L67.8125 38.1673ZM74.0965 27.5306H80.1179L76.9758 17.2068L74.0965 27.5306ZM109.442 10.0108L109.704 16.5809H108.919C108.919 15.6421 108.656 14.7033 108.656 14.0774C108.395 13.4515 108.133 13.1386 107.872 12.5127C107.347 12.1998 107.085 12.1998 106.824 11.8868H102.374V32.2231C102.374 32.8489 102.374 33.4748 102.635 34.1007C102.635 34.7266 102.635 35.3525 102.898 35.6654C103.159 35.9784 103.42 36.2913 103.945 36.6042C104.206 36.9172 104.73 36.9172 105.516 36.9172V38.1689H95.8281V36.9172C96.6136 36.9172 97.1364 36.9172 97.6605 36.6042L98.446 35.6654C98.7087 35.3525 98.7087 34.7266 98.7087 34.1007C98.9688 33.4748 98.9688 32.8489 98.9688 32.2231V11.8885H96.0894C95.3039 11.8885 94.7798 11.8885 94.257 12.2014C93.7329 12.2014 93.4715 12.5144 93.2088 13.1402C92.9474 13.4532 92.686 14.0791 92.686 14.7049C92.4233 15.3308 92.4233 15.9567 92.4233 16.5809H91.6378L91.9005 10.0108H109.442ZM126.984 38.1673H117.56V36.9155C118.344 36.9155 118.868 36.9155 119.129 36.6026C119.653 36.6026 119.915 36.2896 119.915 35.6638C120.177 35.3508 120.439 35.0379 120.439 34.412V14.0791C120.439 13.4532 120.439 12.8273 120.177 12.5144C119.915 11.8885 119.653 11.5755 119.392 11.2642C118.868 11.2642 118.344 10.9513 117.56 10.9513V10.0125H126.984V10.9513C126.199 10.9513 125.676 11.2642 125.152 11.2642C124.891 11.5772 124.628 11.8901 124.366 12.516C124.105 12.8289 124.105 13.4548 124.105 14.0807V34.4153C124.105 35.0412 124.366 35.3541 124.366 35.6671C124.628 36.2929 124.891 36.6059 125.413 36.6059C125.676 36.9188 126.199 36.9188 126.984 36.9188V38.1706V38.1673ZM154.476 19.0845H153.69C153.69 18.7715 153.429 18.4586 153.429 17.8327C153.429 17.5198 153.168 17.2068 152.905 16.5809C152.905 16.268 152.643 15.9551 152.382 15.3292C152.382 15.0162 152.119 14.7033 151.858 14.0774C151.334 13.7645 151.072 13.1386 150.548 12.8256C150.025 12.5127 149.763 11.8868 149.24 11.8868L147.669 10.9496H146.098C145.312 10.9496 144.266 11.2626 143.48 11.8885C142.695 12.5144 141.909 13.1402 141.385 14.392C140.599 15.6438 140.075 16.8939 139.814 18.4586C139.553 20.0233 139.29 21.9009 139.29 23.7769C139.29 25.6546 139.553 27.2193 139.814 28.7824C139.814 30.0341 140.338 31.2859 140.599 32.2247C141.124 33.1635 141.385 33.7878 141.909 34.4136C142.432 35.0395 142.956 35.6654 143.48 35.9784C144.003 36.2913 144.527 36.6042 145.051 36.6042C145.574 36.9172 146.098 36.9172 146.621 36.9172C147.406 36.9172 148.192 36.9172 148.977 36.2913C149.763 35.9784 150.811 35.3525 151.597 34.4136C151.858 34.1007 152.119 33.4748 152.382 33.1619C152.643 32.8489 152.643 32.536 152.905 32.2231C153.168 31.5972 153.429 31.2842 153.429 30.9713C153.69 30.3454 153.69 30.0325 153.953 29.4066L154.739 30.0325C154.476 30.3454 154.476 30.9713 154.214 31.2842L153.429 33.1619C153.168 33.7878 152.905 34.4136 152.382 35.0395C151.858 35.9784 151.334 36.2913 150.811 36.9172C150.026 37.5431 149.24 37.856 148.454 38.1689C147.669 38.7948 146.883 38.7948 145.837 38.7948C144.266 38.7948 143.217 38.4819 141.909 37.856C140.599 36.9172 139.552 35.9784 138.504 34.7266C137.719 33.4748 136.935 31.9101 136.149 30.3454C135.625 28.4678 135.364 26.5918 135.364 24.4028C135.364 22.2122 135.625 20.3346 136.149 18.4569C136.672 16.5809 137.457 15.0162 138.504 13.4532C139.29 12.2014 140.599 11.2626 141.646 10.3238C142.956 9.69788 144.266 9.072 145.837 9.072C146.883 9.072 147.669 9.38494 148.454 9.69788L150.026 10.6367C150.287 10.6367 150.548 10.9496 150.811 10.9496C150.95 11.1295 151.135 11.2407 151.334 11.2626H151.597L151.858 11.5755C151.858 11.5755 151.858 11.2626 152.119 11.2626C152.119 11.2626 152.382 11.2626 152.382 10.9496C152.643 10.9496 152.643 10.6367 152.643 10.3238C152.905 10.0108 152.905 9.69788 152.905 9.072H153.69L154.476 19.0845ZM0.261353 46.6151H1.57097V55.6871H0.261353V46.6151ZM15.7088 46.6151H16.4943L18.328 52.8722V46.6118H19.375V55.6871H18.328L16.4943 50.0541V50.9929C16.757 51.3059 16.757 51.6188 16.757 51.9318V55.6871H15.7088V46.6118V46.6151ZM33.5128 46.6151H34.561C34.8224 46.6151 35.0838 46.6151 35.3465 46.928H35.8693C35.8693 46.928 36.132 46.928 36.3934 47.2409C36.3934 47.2409 36.6561 47.5539 36.6561 47.8668C36.9175 47.8668 36.9175 48.1798 37.1789 48.4927V53.8094C36.9162 54.4353 36.9162 54.7482 36.6548 54.7482C36.6548 55.0612 36.3934 55.3741 36.3934 55.3741C36.1307 55.3741 35.8693 55.6871 35.8693 55.6871H33.5128V46.6151ZM34.8224 54.7482H35.3465C35.6079 54.7482 35.6079 54.4353 35.8693 54.4353V48.1781C35.6079 48.1781 35.6079 47.8652 35.3465 47.8652H34.561V54.7499L34.8224 54.7482ZM51.0554 46.6151H52.1023V54.1224C52.1023 54.4353 52.365 54.4353 52.365 54.4353C52.365 54.7482 52.365 54.7482 52.6277 54.7482H53.1505L53.4132 54.4353V46.6151H54.7215V53.1852C54.7215 53.4981 54.4588 53.8111 54.4588 54.124C54.4588 54.4369 54.4588 54.7499 54.1974 55.0628C54.1974 55.0628 54.1974 55.3758 53.9347 55.3758C53.9347 55.6887 53.6733 55.6887 53.6733 55.6887C53.4119 55.6887 53.4119 56 53.1505 56H52.365L52.1023 55.6871C51.8409 55.6871 51.8409 55.6871 51.5795 55.3741L51.3168 55.0612C51.3168 54.7482 51.0554 54.4353 51.0554 54.1224V46.6151ZM68.3353 54.1224V53.4965C68.3353 53.1835 68.598 53.1835 68.598 52.8706H69.3835V54.1224L69.6462 54.4353C69.6462 54.7482 69.6462 54.7482 69.9063 54.7482H70.6931C70.6931 54.4353 70.9545 54.4353 70.9545 54.1224C70.9545 53.8094 70.9545 53.8094 70.6918 53.4965V52.8706C70.4304 52.8706 70.4304 52.5576 70.4304 52.5576L69.1221 50.68C68.8594 50.3687 68.8594 50.0558 68.5967 49.7428C68.5967 49.4299 68.3366 49.1169 68.3366 48.804C68.3366 48.4911 68.598 48.1781 68.598 47.8652C68.598 47.5522 68.8607 47.5522 68.8607 47.2393C69.1208 46.9264 69.1208 46.9264 69.3835 46.9264C69.6462 46.6134 69.9063 46.6134 70.169 46.6134C70.4317 46.6134 70.6918 46.6134 70.9545 46.9264C71.2172 46.9264 71.4773 47.2393 71.4773 47.2393C71.74 47.5522 71.74 47.5522 71.74 47.8652C72.0027 48.1781 72.0027 48.4911 72.0027 48.4911V49.1169C71.74 49.4299 71.74 49.4299 71.74 49.7428H70.9545V49.1169C70.9545 48.804 70.9545 48.4911 70.6918 48.1781C70.6918 47.8652 70.4304 47.8652 70.169 47.8652H69.6449V49.4299C69.9076 49.4299 69.9076 49.7428 69.9076 49.7428L71.2159 51.6205C71.4786 51.9334 71.74 52.2464 71.74 52.5593C72.0027 53.1852 72.0027 53.4981 72.0027 53.8111C72.0027 54.124 72.0027 54.4369 71.74 54.7499C71.74 55.0628 71.74 55.0628 71.4773 55.3758C71.2159 55.3758 71.2159 55.6887 70.9545 55.6887C70.6918 56 70.4304 56 70.169 56C69.9063 56 69.6449 56 69.3835 55.6871C69.1208 55.6871 68.8594 55.3741 68.8594 55.3741C68.5966 55.0612 68.5967 55.0612 68.5967 54.7482C68.3366 54.4353 68.3353 54.1224 68.3353 54.1224ZM86.4019 47.8668H85.355V46.6151H88.7572V47.8668H87.7116V55.6871H86.4019V47.8668ZM102.374 46.6151H103.682C103.945 46.6151 103.945 46.6151 104.206 46.928H104.73C104.73 46.928 104.991 46.928 105.253 47.2409C105.253 47.2409 105.516 47.2409 105.516 47.5539C105.777 47.8668 105.777 47.8668 105.777 48.1798C106.04 48.4927 106.04 48.8056 106.04 49.4315C106.04 50.3687 106.04 50.6816 105.777 51.3075L104.991 52.2464L106.301 55.6887H104.991L103.945 52.5593H103.682V55.6887H102.374V46.6118V46.6151ZM103.682 51.3075H104.206C104.469 51.3075 104.469 51.3075 104.73 50.9946V48.1781C104.467 47.8652 104.467 47.8652 104.206 47.8652H103.682V51.3075ZM119.915 46.6134H120.963V55.6887H119.915V46.6134ZM135.101 46.6134H137.981V47.8652H136.41V50.6816H137.719V51.6205H136.41V54.7499H137.981V55.6887H135.101V46.6134ZM151.334 54.124C151.334 53.8111 151.334 53.4981 151.597 53.4981V52.8722H152.382V54.124L152.643 54.4369C152.643 54.7499 152.643 54.7499 152.905 54.7499H153.69C153.69 54.4369 153.953 54.4369 153.953 54.124V53.4981C153.953 53.4981 153.69 53.4981 153.69 53.1852V52.8722C153.429 52.8722 153.429 52.5593 153.429 52.5593L152.119 50.6816C151.858 50.3687 151.858 50.0558 151.597 49.7428V47.8652C151.597 47.5522 151.858 47.5522 151.858 47.2393C152.119 46.9264 152.382 46.9264 152.382 46.9264C152.643 46.6134 152.905 46.6134 153.168 46.6134C153.429 46.6134 153.953 46.6134 153.953 46.9264C154.214 46.9264 154.476 47.2393 154.476 47.2393L155 47.8652V49.1169C155 49.4299 154.739 49.4299 154.739 49.7428H153.953V49.1169C153.953 48.804 153.953 48.4911 153.69 48.1781C153.69 47.8652 153.429 47.8652 153.168 47.8652H152.643V49.4299C152.905 49.4299 152.905 49.7428 152.905 49.7428L154.214 51.6205C154.476 51.9334 154.739 52.2464 154.739 52.5593C155 53.1852 155 53.4981 155 53.8111V54.7499L154.476 55.3758C154.476 55.3758 154.214 55.6887 153.953 55.6887C153.69 56 153.429 56 153.168 56C152.905 56 152.643 56 152.382 55.6871C152.119 55.6871 151.858 55.3741 151.858 55.3741C151.597 55.0612 151.597 55.0612 151.597 54.7482C151.597 54.4353 151.334 54.124 151.334 54.124Z" fill="#637AB7"/>
<path fill-rule="evenodd" clip-rule="evenodd" d="M0 41.6096H155V42.8614H0V41.6096Z" fill="#637AB7"/>
</svg>
