<svg width="155" height="56" viewBox="0 0 155 56" fill="none" xmlns="http://www.w3.org/2000/svg">
<path d="M110.459 44.4259V11.4605C110.459 10.957 110.606 10.6213 110.825 10.6213H113.688C113.761 10.6213 113.909 10.7892 113.982 10.957L120.879 29.9611V11.4605C120.879 10.957 121.025 10.6213 121.247 10.6213H124.548C124.768 10.6213 124.914 10.957 124.914 11.4605V44.4259C124.914 44.9295 124.768 45.2651 124.548 45.2651H121.686C121.576 45.2234 121.474 45.1064 121.393 44.9295L114.495 25.9253V44.4259C114.495 44.9295 114.348 45.2651 114.129 45.2651H110.9C110.606 45.2651 110.459 44.7616 110.459 44.4259ZM127.923 44.4259V11.4605C127.923 10.957 128.07 10.6213 128.289 10.6213H139.37C139.591 10.6213 139.738 10.957 139.738 11.4605V17.1824C139.738 17.6821 139.591 18.0216 139.37 18.0216H131.959V24.411H138.416C138.636 24.411 138.784 24.7466 138.784 25.2502V30.4647C138.784 30.972 138.636 31.3039 138.416 31.3039H131.959V38.2044H139.664C139.884 38.2044 140.03 38.5401 140.03 39.0436V44.7654C140.03 45.2651 139.884 45.6046 139.664 45.6046H128.289C128.07 45.2651 127.923 44.7654 127.923 44.4259ZM146.195 44.4259V18.0216H141.864C141.645 18.0216 141.498 17.6821 141.498 17.1824V11.4605C141.498 10.957 141.645 10.6213 141.864 10.6213H154.632C154.854 10.6213 155 10.957 155 11.4605V17.1824C155 17.6821 154.854 18.0216 154.632 18.0216H150.304V44.4259C150.304 44.9295 150.157 45.2651 149.937 45.2651H146.561C146.341 45.2651 146.195 44.7616 146.195 44.4259ZM18.4434 40.7258C20.0588 40.7258 21.6081 39.2549 22.7503 36.6367C23.8926 34.0184 24.5344 30.4673 24.5344 26.7645C24.5344 23.0618 23.8926 19.5107 22.7503 16.8924C21.6081 14.2742 20.0588 12.8033 18.4434 12.8033C16.8279 12.8033 15.2787 14.2742 14.1364 16.8924C12.9941 19.5107 12.3524 23.0618 12.3524 26.7645C12.3524 30.4673 12.9941 34.0184 14.1364 36.6367C15.2787 39.2549 16.8279 40.7258 18.4434 40.7258Z" fill="#A6CE39"/>
<path fill-rule="evenodd" clip-rule="evenodd" d="M28.2023 37.6969C28.0558 37.8647 27.8362 37.529 27.9826 37.1933C31.0647 28.9539 32.0932 19.1963 30.2576 11.9639C27.9826 3.04925 22.1129 1.1992 16.3897 5.91017C10.2987 10.9568 6.33625 21.5499 7.14339 32.3145C8.75768 54.1796 27.6897 52.3295 34.2933 51.1546C34.513 51.1546 34.513 51.826 34.3665 51.826C17.4166 60.7406 2.447 55.3583 0.245249 35.8468C-1.88161 17.0105 10.372 6.07801 15.8755 2.71357C23.4327 -1.82575 33.1184 -1.65791 35.1004 10.953C36.4218 19.0284 33.4862 29.4536 28.2023 37.6969Z" fill="#A6CE39"/>
<path d="M40.0182 44.09L46.4004 11.1246C46.4348 10.9705 46.4873 10.8415 46.552 10.7525C46.6167 10.6635 46.6911 10.6179 46.7666 10.6211H50.3629C50.5094 10.6211 50.6558 10.7889 50.7291 11.1246L57.1146 44.09C57.1878 44.5935 57.0397 45.2649 56.7468 45.2649H53.2986C53.2231 45.2681 53.1488 45.2225 53.084 45.1335C53.0193 45.0445 52.9668 44.9155 52.9325 44.7614L51.8308 38.5398H45.154L44.0523 44.7614C44.0179 44.9155 43.9654 45.0445 43.9007 45.1335C43.836 45.2225 43.7616 45.2681 43.6861 45.2649H40.3094C40.0898 45.2649 39.945 44.5935 40.0182 44.09ZM50.6558 31.6431L48.4557 19.1962L46.254 31.6431H50.6558ZM58.654 44.4257V11.4603C58.654 10.9568 58.8021 10.6211 59.0201 10.6211H61.8094C61.9575 10.6211 62.0307 10.7889 62.1039 10.9568L67.3861 31.1358L72.67 10.9568C72.7432 10.7889 72.8164 10.6211 72.9629 10.6211H75.7521C75.9718 10.6211 76.1182 10.9568 76.1182 11.4603V44.4257C76.1182 44.9292 75.9718 45.2649 75.7521 45.2649H72.7432C72.5235 45.2649 72.3771 44.9292 72.3771 44.4257V25.7573L68.3414 41.3969C68.2665 41.5648 68.1933 41.7326 68.0468 41.7326H66.6522C66.5057 41.7326 66.4325 41.5648 66.3593 41.3969L62.3236 26.2608V44.4257C62.3236 44.9292 62.1771 45.2649 61.9575 45.2649H58.9486C58.8021 45.2649 58.654 44.7614 58.654 44.4257ZM86.3914 45.9401C84.1896 45.9401 82.4306 44.5935 81.1824 41.7364C79.9343 38.8755 79.3468 35.0076 79.3468 29.7931V11.4603C79.3468 10.9568 79.4932 10.6211 79.7129 10.6211H83.0896C83.3093 10.6211 83.4557 10.9568 83.4557 11.4603V29.4574C83.4557 35.3432 84.411 38.2042 86.4646 38.2042C88.5199 38.2042 89.5467 35.1754 89.5467 29.4574V11.4603C89.5467 10.9568 89.6932 10.6211 89.9128 10.6211H93.2163C93.436 10.6211 93.5824 10.9568 93.5824 11.4603V29.7931C93.5824 34.8397 92.9217 38.8755 91.7485 41.7326C90.3539 44.4257 88.5931 45.9401 86.3914 45.9401ZM101.727 45.9401C100.515 45.9457 99.3077 45.6062 98.1324 44.9292C97.2608 44.4641 96.421 43.7287 95.6361 42.7435C95.4896 42.5756 95.4164 42.0721 95.4896 41.7364L96.5181 36.3541C96.5181 36.1863 96.5913 36.0146 96.7378 36.0146C96.8842 35.8468 96.9574 36.0146 97.0307 36.0146C97.6181 36.8538 98.2788 37.3611 99.0111 37.8647C99.8875 38.5277 100.804 38.8689 101.727 38.8755C103.489 38.8755 104.37 37.8647 104.37 35.6789C104.37 34.8397 104.222 33.8289 103.561 33.1575C103.048 32.654 102.315 32.1466 101.214 31.6431C100.236 31.2399 99.2779 30.6203 98.352 29.7931C97.6209 29.1428 96.9673 28.1049 96.4449 26.7643C95.9306 25.4216 95.6377 23.5715 95.6377 21.2141C95.6377 19.1962 95.8574 17.1783 96.37 15.6639C96.8859 13.9855 97.6181 12.639 98.5717 11.6281C99.6002 10.6211 100.773 10.1138 102.241 10.1138C103.268 10.1138 104.222 10.4494 105.177 10.953C105.984 11.4603 106.716 11.9638 107.377 12.8068C107.451 12.9054 107.506 13.0617 107.533 13.2468C107.561 13.4319 107.558 13.6333 107.525 13.8139L106.57 19.1962C106.57 19.3641 106.497 19.5319 106.35 19.7036H106.131C104.809 18.1892 103.563 17.514 102.241 17.514C101.359 17.514 100.7 17.8535 100.261 18.5249C99.8199 19.1962 99.6002 20.0392 99.6002 21.0463C99.6002 21.7215 99.7467 22.7285 100.407 23.3999C100.847 23.9072 101.655 24.4107 102.681 24.9142C103.659 25.3173 104.617 25.9369 105.543 26.7643C106.275 27.4395 106.938 28.4465 107.45 29.7931C107.965 31.1396 108.257 32.9897 108.257 35.3432C108.257 37.365 108.038 39.2112 107.525 40.8934C107.009 42.5756 106.277 43.9222 105.25 44.9292C104.1 45.6124 102.916 45.9522 101.727 45.9401Z" fill="#A6CE39"/>
</svg>
