<svg width="155" height="56" viewBox="0 0 155 56" fill="none" xmlns="http://www.w3.org/2000/svg">
<mask id="mask0_3_883" style="mask-type:luminance" maskUnits="userSpaceOnUse" x="0" y="0" width="155" height="56">
<path d="M0 0H155V56H0V0Z" fill="white"/>
</mask>
<g mask="url(#mask0_3_883)">
<path d="M8.7575 42.5178C8.6025 42.2063 8.37 41.7916 8.1375 41.5851C7.905 41.2736 7.595 41.1703 7.285 41.1703C6.96323 41.1867 6.65819 41.372 6.4325 41.6883C6.2 41.8966 5.9675 42.3113 5.8125 42.6211L0 55.4818H2.4025L4.2625 51.4358H10.3075L12.09 55.4818H14.4925L8.7575 42.5178ZM9.145 49.0523H5.425L7.285 44.9048L9.145 49.0523ZM26.195 43.0358C26.1188 42.8293 25.9625 42.7243 25.8075 42.5178C24.9563 41.5851 23.87 41.0653 22.785 41.1703H15.1125V55.5851H17.0513V51.5408H22.8638C23.9488 51.6441 25.0325 51.1243 25.885 50.1933C27.435 48.3243 27.5913 45.1096 26.195 43.0358ZM24.7225 48.3243C24.283 48.8077 23.7348 49.0646 23.1725 49.0506H17.0513V43.7621H23.1738C23.715 43.7621 24.335 43.9703 24.7238 44.4883C25.11 45.0063 25.3425 45.7326 25.3425 46.4588C25.3425 47.0801 25.11 47.8063 24.7225 48.3243ZM39.99 43.1391C38.9685 41.8738 37.6438 41.1727 36.27 41.1703H33.4025C32.0075 41.0653 30.69 41.7916 29.6825 43.1391C28.675 44.4866 28.1325 46.3556 28.21 48.2211C28.1325 50.1916 28.675 52.0588 29.6825 53.5113C30.6125 54.8588 32.0075 55.5851 33.4025 55.5851H36.27C37.665 55.6883 39.06 54.8588 39.99 53.5113C40.9975 52.0588 41.4625 50.1916 41.4625 48.2211C41.4553 46.3317 40.9292 44.5161 39.99 43.1391ZM39.6025 49.4653C39.6025 49.5703 39.525 49.7768 39.525 49.8801C39.525 49.9851 39.4475 50.1916 39.4475 50.2948C39.4475 50.3998 39.37 50.6063 39.2925 50.7096C39.2925 50.8146 39.215 50.9178 39.1375 51.1261C39.0341 51.3919 38.9036 51.6359 38.75 51.8506C38.13 52.6801 37.2 53.1981 36.3475 53.0948H33.48C32.55 53.0948 31.6975 52.6801 31.0775 51.8523C30.4575 50.9178 30.07 49.7768 30.1475 48.5326C30.1475 47.2883 30.4575 46.0441 31.0775 45.1113C31.6975 44.1768 32.6275 43.7638 33.48 43.7638H36.3475C37.2775 43.7638 38.13 44.1768 38.75 45.1113C39.37 46.0441 39.7575 47.2883 39.68 48.5326C39.68 48.7408 39.6025 49.1556 39.6025 49.4653ZM44.64 41.1703H42.78V55.5851H53.32V53.0948H44.64V41.1703ZM56.42 41.1703H54.56V55.5851H65.0225V53.0948H56.4213V41.1686L56.42 41.1703ZM77.19 43.1391C76.1825 41.7916 74.7888 41.1703 73.3925 41.1703H70.4488C69.7517 41.123 69.0549 41.2733 68.4017 41.612C67.7485 41.9506 67.1527 42.4704 66.6513 43.1391C65.6438 44.4866 65.1013 46.3556 65.1788 48.2211C65.1025 50.1916 65.6438 52.0588 66.6525 53.5113C67.6588 54.8588 69.0538 55.6883 70.4488 55.5851H73.3938C74.7888 55.6883 76.1838 54.8588 77.1925 53.5113C78.1988 52.0588 78.7425 50.1916 78.6638 48.2211C78.7413 46.3556 78.1988 44.4883 77.1913 43.1391H77.19ZM75.8725 51.7491C75.175 52.5768 74.3225 53.0966 73.3925 52.9916H70.4488C69.5188 52.9916 68.5888 52.5768 67.9688 51.7491C67.2713 50.9178 66.9613 49.6736 66.9613 48.4293C66.9613 47.1851 67.2713 45.9408 67.9688 45.0063L68.2013 44.6948L68.4338 44.3851C68.5113 44.2801 68.5888 44.2801 68.7438 44.1768C68.9457 44.0559 69.1527 43.9519 69.3638 43.8653C69.4413 43.8653 69.5188 43.7621 69.5963 43.7621H73.3938C74.3238 43.7621 75.2538 44.1768 75.8738 45.1096C75.9513 45.2146 76.0288 45.3178 76.0288 45.4211L76.1063 45.5261C76.1838 45.6293 76.1838 45.7326 76.2613 45.8358L76.3388 45.9408C76.4163 46.0441 76.4163 46.1473 76.4938 46.2506C76.5713 46.3556 76.5713 46.5621 76.6488 46.6653C76.6488 46.7703 76.7263 46.8736 76.7263 46.9768C76.7263 47.0818 76.7263 47.0818 76.8038 47.1851C76.8038 47.2883 76.8038 47.3916 76.8813 47.4948C76.9588 47.8063 76.9588 48.2211 76.9588 48.5326C76.8825 49.6736 76.5713 50.9178 75.8738 51.7473L75.8725 51.7491Z" fill="#3C5674"/>
<path d="M120.977 52.267L117.335 41.2735V41.067H114.467V55.585H116.405V44.5933L120.047 55.585H121.985L125.627 44.6965V55.585H127.565V41.067H124.697L120.977 52.267ZM107.88 42.621C107.729 42.212 107.484 41.8839 107.182 41.6883C106.95 41.3768 106.64 41.2735 106.33 41.2735C106.008 41.2899 105.703 41.4752 105.477 41.7915C105.245 41.9998 105.012 42.4145 104.857 42.726L99.045 55.6883H101.447L103.307 51.644H109.352L111.135 55.6883H113.537L107.88 42.621ZM104.47 49.0505L106.33 44.903L108.19 49.0505H104.47ZM129.657 46.9768V55.585H140.12V53.0948H131.517V49.4653H140.12V46.975H131.517V43.657H140.12V41.1685H129.657V46.975V46.9768ZM92.4575 47.185V49.362H96.4087V51.644C95.9115 52.3206 95.3166 52.8456 94.6626 53.1851C94.0086 53.5245 93.3101 53.6709 92.6125 53.6145C91.3725 53.6145 90.1325 53.0965 89.125 51.9555C88.7577 51.5881 88.4477 51.1232 88.213 50.588C87.9784 50.0529 87.824 49.4584 87.7588 48.8397C87.6937 48.2211 87.7192 47.5907 87.8338 46.9858C87.9484 46.3809 88.1499 45.8137 88.4262 45.3178C88.66 45.0063 88.815 44.6965 89.125 44.385C90.1325 43.3473 91.295 42.726 92.6125 42.726C93.3875 42.726 94.085 42.9325 94.7825 43.244C95.4025 43.6588 96.0225 44.1768 96.4875 44.903L96.5637 45.008L98.1137 43.762L97.96 43.5555C97.34 42.5178 96.4862 41.7915 95.5575 41.2735C94.5959 40.7396 93.5704 40.4583 92.5337 40.444C90.7944 40.3494 89.0887 41.1224 87.73 42.621C87.1084 43.2365 86.6017 44.0463 86.2514 44.9839C85.9011 45.9215 85.7173 46.9601 85.715 48.0145C85.715 50.0883 86.49 52.0588 87.73 53.4063C89.0889 54.9059 90.7951 55.6796 92.535 55.585C93.62 55.585 94.705 55.2735 95.7112 54.6505C95.9148 54.5771 96.1018 54.4345 96.255 54.2358V55.1703H98.1925V46.8735H92.4575V47.185ZM152.287 47.9113L149.807 47.4965C149.032 47.2883 148.18 47.185 147.405 47.0818C145.855 46.7703 145.002 46.044 145.002 45.2145C145.002 44.5915 145.39 44.0735 146.165 43.6588C147.708 43.0365 149.349 43.0365 150.892 43.6588C151.59 43.9703 151.977 44.385 152.055 45.0063H154.535C154.457 43.7638 153.76 42.726 152.52 41.8965C149.964 40.4448 147.094 40.4448 144.537 41.8965C143.22 42.726 142.522 43.8653 142.522 45.2145C142.522 47.08 143.452 48.326 145.312 48.9473H145.39L147.792 49.362L150.195 49.8818C151.745 50.1915 152.52 50.8145 152.52 51.7473C152.52 52.4735 152.055 52.9915 151.202 53.4063C150.35 53.7178 149.497 53.926 148.567 53.821C147.715 53.821 146.785 53.7178 145.932 53.4063C145.157 53.0965 144.692 52.5768 144.615 51.9538H142.135C142.212 53.303 142.91 54.3408 144.382 55.1703C145.7 55.8965 147.172 56.2063 148.567 56.2063C149.962 56.2063 151.435 55.8965 152.752 55.1703C154.225 54.3408 155 53.1998 155 51.7473C155 49.6735 154.07 48.5325 152.287 47.9113Z" fill="#838A95"/>
<path d="M83.7775 26.3408L92.6125 12.6523L82.3825 24.4736L72.1525 12.6523L80.9875 26.3408L72.1525 40.0293L82.3825 28.2063L92.6125 40.0293L83.7775 26.3408Z" fill="#F3A71E"/>
<path d="M83.7775 24.577L82.3825 0L81.065 24.577L62.6975 26.4443L81.065 28.2082L82.3825 52.7852L83.7775 28.2082L102.068 26.341L83.7775 24.577Z" fill="#FED304"/>
<path d="M82.3825 30.1784C83.9656 30.1784 85.25 28.4599 85.25 26.3407C85.25 24.2214 83.9668 22.5029 82.3825 22.5029C80.7982 22.5029 79.515 24.2214 79.515 26.3407C79.515 28.4582 80.7982 30.1784 82.3825 30.1784Z" fill="#FED304"/>
</g>
</svg>
