<svg width="130" height="73" viewBox="0 0 130 73" fill="none" xmlns="http://www.w3.org/2000/svg">
<mask id="mask0_6_2099" style="mask-type:luminance" maskUnits="userSpaceOnUse" x="0" y="0" width="130" height="73">
<path d="M0 0H130V73H0V0Z" fill="white"/>
</mask>
<g mask="url(#mask0_6_2099)">
<path d="M77.935 27.7353H57.135C57.005 28.186 56.94 28.6986 56.94 29.2112C56.94 29.919 57.005 30.5601 57.2 31.2028H73.32C71.89 35.7621 67.015 38.3282 62.4 36.9158C57.785 35.5034 55.185 30.6886 56.615 26.1309C58.045 21.5716 62.92 19.0055 67.535 20.4178C70.395 21.251 72.54 23.4981 73.385 26.3229H77.805C77.6662 25.5056 77.4261 24.7079 77.09 23.9472L75.985 24.3979C75.0386 22.0599 73.3238 20.095 71.11 18.8118L71.76 17.72C70.2911 16.8347 68.6557 16.2455 66.95 15.9871L66.82 17.0789C65.5659 16.8964 64.2882 16.9394 63.05 17.2058C61.815 17.4629 60.58 17.8486 59.475 18.4913L58.89 17.3995C57.265 18.2342 55.835 19.453 54.665 20.9304L55.705 21.7001C54.145 23.6917 53.235 26.1944 53.235 28.6986H52V28.8271C52 30.4966 52.325 32.2296 53.04 33.7705L54.145 33.3214C55.1228 35.6384 56.8007 37.6092 58.955 38.9709L58.305 39.8057C59.8 40.7055 61.49 41.2816 63.18 41.4752L63.31 40.3833C64.5641 40.5658 65.8418 40.5228 67.08 40.2564C68.315 39.9993 69.55 39.6137 70.655 38.9709L71.175 39.9342C72.735 39.0995 74.035 37.9442 75.14 36.5953L74.23 35.8907C75.79 33.899 76.7 31.3964 76.7 28.8922H77.87V28.57C78.065 28.313 78 28.0574 77.935 27.7353Z" fill="#77A007"/>
<path d="M70.8502 0.769674C70.7534 0.543832 70.591 0.3506 70.3831 0.213826C70.1752 0.0770507 69.9308 0.00271757 69.6802 0H60.4502C60.1995 0.00271757 59.9551 0.0770507 59.7472 0.213826C59.5393 0.3506 59.3769 0.543832 59.2802 0.769674L39.0652 53.6106C38.9352 53.8677 39.0652 54.1882 39.3252 54.3168C39.4552 54.3802 39.5202 54.3802 39.6502 54.3802H51.6102C52.1302 54.3802 52.6502 54.1231 52.9752 53.7391C52.9752 53.7391 59.4752 46.163 65.1302 46.163C70.7852 46.163 77.2852 53.7391 77.2852 53.7391C77.6752 54.1231 78.1302 54.3168 78.6502 54.3802H90.3502C90.4195 54.3941 90.4912 54.3931 90.5601 54.3772C90.629 54.3612 90.6936 54.3309 90.7493 54.2881C90.8049 54.2454 90.8504 54.1913 90.8825 54.1296C90.9146 54.068 90.9326 54.0003 90.9352 53.9311C90.9352 53.8042 90.9352 53.7391 90.8702 53.6106L70.8502 0.769674ZM65.5202 41.4751C58.3702 41.7322 52.4552 36.2112 52.1952 29.2127C51.9352 22.2142 57.5252 16.3076 64.6102 16.1155C71.6952 15.8585 77.6752 21.3795 77.8702 28.378V29.2127C77.7402 35.8906 72.2802 41.2831 65.5202 41.4751Z" fill="#77A007"/>
<path d="M12.675 69.3404H9.88L8.775 66.5156H3.705L2.73 69.3404H0L4.94 56.8193H7.67L12.675 69.3404ZM7.995 64.332L6.24 59.7092L4.55 64.332H7.995ZM19.175 69.3404V67.9915C18.85 68.4406 18.395 68.8897 17.875 69.1468C17.355 69.4039 16.77 69.5975 16.12 69.5324C15.535 69.5324 14.95 69.4055 14.43 69.1468C13.9556 68.8924 13.5875 68.4836 13.39 67.9915C13.13 67.3504 13 66.6426 13.065 66.0015V60.2884H15.47V64.4605C15.47 65.2318 15.47 66.0015 15.6 66.7711C15.665 67.0282 15.86 67.2853 16.12 67.4773C16.38 67.6709 16.705 67.7344 17.03 67.7344C17.42 67.7344 17.81 67.6075 18.135 67.4139C18.46 67.2218 18.655 66.8997 18.785 66.5791C18.98 65.7444 18.98 64.9747 18.98 64.14V60.3519H21.45V69.3404H19.175ZM27.3 60.2249V62.1499H25.61V65.8094C25.61 66.2586 25.61 66.7077 25.675 67.0949C25.74 67.2218 25.805 67.3488 25.87 67.4139C26 67.4773 26.13 67.5424 26.26 67.5424C26.585 67.5424 26.91 67.4154 27.235 67.2869L27.43 69.1484C26.845 69.4039 26.195 69.5324 25.545 69.5324C25.155 69.5324 24.765 69.469 24.375 69.342C24.05 69.2119 23.79 69.0199 23.595 68.7628C23.3925 68.5043 23.2788 68.1899 23.27 67.8646C23.205 67.2869 23.14 66.7077 23.205 66.1951V62.2134H22.1V60.2884H23.205V58.4253L25.61 57.0129V60.2234L27.3 60.2249ZM30.485 56.8209V61.4437C31.135 60.609 32.175 60.0948 33.28 60.0948C33.8 60.0948 34.32 60.2234 34.775 60.417C35.165 60.609 35.555 60.8661 35.815 61.1866C36.075 61.5088 36.205 61.8928 36.27 62.2785C36.335 62.8561 36.4 63.4988 36.4 64.0765V69.4055H33.995V64.5891C33.995 64.0114 33.995 63.3703 33.865 62.7926C33.8 62.5356 33.605 62.3419 33.345 62.1499C33.0986 61.9784 32.8025 61.8883 32.5 61.8928C32.11 61.8928 31.72 61.9563 31.395 62.1499C31.07 62.3419 30.81 62.6641 30.68 63.0497C30.485 63.6274 30.42 64.205 30.485 64.7827V69.2769H28.08V56.7559H30.485V56.8209ZM43.355 66.4506L45.76 66.8362C45.5 67.6709 44.98 68.3121 44.265 68.8262C43.485 69.3404 42.64 69.5324 41.73 69.5324C40.105 69.5324 38.935 69.0199 38.155 67.9931C37.505 67.0933 37.18 66.0015 37.245 64.8462C37.18 63.5607 37.57 62.2785 38.415 61.3152C39.195 60.4804 40.3 60.0298 41.405 60.0298C42.64 59.9663 43.81 60.4804 44.655 61.3787C45.435 62.2785 45.825 63.6258 45.76 65.4889H39.65C39.65 66.0665 39.845 66.7077 40.235 67.1568C40.56 67.5424 41.08 67.7344 41.6 67.7344C41.925 67.7344 42.315 67.6075 42.575 67.4139C42.764 67.312 42.9304 67.1743 43.0643 67.0089C43.1982 66.8435 43.297 66.6537 43.355 66.4506ZM43.485 64.0114C43.485 63.4338 43.29 62.8561 42.965 62.407C42.64 62.0849 42.185 61.8278 41.73 61.8278C41.21 61.8278 40.755 62.0214 40.43 62.4054C40.04 62.8561 39.845 63.4338 39.91 63.9464H43.485V64.0114ZM55.315 69.3404H52.91V64.7176C52.975 64.0765 52.91 63.4338 52.78 62.8561C52.7436 62.7197 52.6786 62.5921 52.5891 62.4815C52.4995 62.3708 52.3875 62.2796 52.26 62.2134C52.018 62.0335 51.7188 61.9424 51.415 61.9563C51.025 61.9563 50.635 62.0849 50.31 62.2785C49.985 62.4705 49.725 62.7911 49.595 63.1767C49.465 63.8829 49.4 64.5256 49.4 65.2318V69.342H46.93V60.2884H49.205V61.5723C49.6924 60.893 50.4019 60.3957 51.2169 60.1621C52.0319 59.9285 52.904 59.9725 53.69 60.2868C54.08 60.417 54.47 60.6725 54.73 60.9946C54.99 61.3152 55.12 61.6358 55.185 62.0214C55.315 62.5356 55.315 63.1132 55.315 63.6258V69.3404ZM61.1 60.2249V62.1499H59.41V65.8094C59.41 66.2586 59.41 66.7077 59.475 67.0949C59.475 67.2218 59.605 67.3488 59.67 67.4139C59.8 67.4773 59.93 67.5424 60.06 67.5424C60.385 67.5424 60.71 67.4154 61.035 67.2869L61.23 69.1484C60.645 69.4039 59.995 69.5324 59.28 69.5324C58.89 69.5324 58.5 69.469 58.11 69.342C57.785 69.2119 57.525 69.0199 57.33 68.7628C57.1275 68.5043 57.0138 68.1899 57.005 67.8646C56.94 67.2869 56.94 66.7077 56.94 66.1951V62.2134H55.9V60.2884H57.005V58.4253L59.41 57.0129V60.2234L61.1 60.2249ZM61.945 59.003V56.7574H64.35V59.0046L61.945 59.003ZM61.945 69.3404V60.2249H64.35V69.342L61.945 69.3404ZM73.97 62.9196L71.565 63.3703C71.5039 62.9696 71.2961 62.6042 70.98 62.3419C70.655 62.0864 70.265 61.9579 69.875 61.9579C69.355 61.9579 68.77 62.1483 68.445 62.599C68.055 63.2417 67.86 63.9479 67.925 64.6541C67.925 65.746 68.12 66.5156 68.51 66.9013C68.9 67.3504 69.42 67.6075 70.005 67.5424C70.395 67.5424 70.785 67.4154 71.11 67.1584C71.435 66.7727 71.695 66.3236 71.76 65.8094L74.165 66.1951C73.97 67.1584 73.515 67.9915 72.735 68.6342C71.89 69.2119 70.915 69.5324 69.94 69.469C68.705 69.5324 67.535 69.0833 66.755 68.1835C65.91 67.2218 65.52 66.0015 65.585 64.7176C65.52 63.4338 65.91 62.2134 66.755 61.1866C67.6 60.3519 68.77 59.9012 70.005 59.9663C70.98 59.9028 71.89 60.1599 72.67 60.6725C73.255 61.3152 73.775 62.0849 73.97 62.9196Z" fill="white"/>
<path d="M80.9249 64.3956V62.9197H86.2549V67.5425C85.4749 68.1837 84.6299 68.6344 83.7199 69.0184C82.8749 69.3406 81.9649 69.5326 81.0549 69.5326C79.8849 69.5326 78.7149 69.2755 77.6749 68.7629C76.6999 68.2487 75.8549 67.4775 75.3999 66.4507C74.8819 65.4106 74.615 64.2683 74.6199 63.1117C74.6199 61.9564 74.8799 60.7361 75.3999 59.7093C75.8549 58.6825 76.6349 57.9113 77.6099 57.3336C78.6392 56.8303 79.7739 56.5668 80.9249 56.564C81.7699 56.564 82.6149 56.6909 83.3949 57.0131C84.1099 57.2702 84.6949 57.6542 85.1499 58.2319C85.6049 58.8111 85.9299 59.5173 86.1249 60.287L84.6299 60.6726C84.4859 60.1421 84.2436 59.6419 83.9149 59.1967C83.5899 58.8111 83.1999 58.4889 82.6799 58.2969C82.1166 58.0978 81.5239 57.9895 80.9249 57.9764C80.2749 57.9764 79.5599 58.1033 78.9099 58.2969C78.3899 58.4889 77.9349 58.8111 77.5449 59.1951C77.2199 59.5808 76.9599 59.9664 76.7649 60.4155C76.4399 61.1868 76.2449 62.085 76.2449 62.9197C76.2449 63.883 76.4399 64.8463 76.8299 65.7445C77.2199 66.4507 77.8049 67.0299 78.5199 67.414C79.2349 67.7996 80.0799 67.9916 80.8599 67.9916C81.5749 67.9916 82.2899 67.8647 83.0049 67.606C83.5899 67.414 84.1099 67.0934 84.5649 66.7078V64.3956H80.9249ZM93.6649 68.1837C93.1449 68.6328 92.6249 68.9549 91.9749 69.212C91.4549 69.404 90.8699 69.5326 90.2849 69.5326C89.4399 69.596 88.5949 69.3405 87.9449 68.8264C87.6774 68.5954 87.4678 68.3073 87.3326 67.9845C87.1973 67.6617 87.14 67.3128 87.1649 66.9649C87.1649 66.5142 87.2949 66.1301 87.4899 65.7429C87.6849 65.3589 87.9449 65.1018 88.2699 64.8447C88.5949 64.6543 88.9849 64.4607 89.3749 64.3321C89.8299 64.2036 90.2849 64.1401 90.7399 64.075C91.6871 63.9971 92.6237 63.8248 93.5349 63.5609V63.1768C93.5999 62.6626 93.4049 62.2135 93.0799 61.8279C92.5599 61.4423 91.9749 61.2502 91.3249 61.3137C90.7399 61.2502 90.2199 61.3772 89.6999 61.6994C89.3099 62.0199 88.9849 62.5341 88.9199 63.0483L87.4249 62.8547C87.5549 62.277 87.7499 61.7644 88.1399 61.3153C88.5299 60.8646 88.9849 60.544 89.5049 60.4155C90.1549 60.2235 90.8699 60.0949 91.5849 60.0949C92.2349 60.0949 92.8849 60.1584 93.5349 60.3504C93.9249 60.479 94.3149 60.7361 94.6399 61.0566C94.8999 61.3788 95.0299 61.6994 95.1599 62.085C95.2249 62.5341 95.2249 63.0483 95.2249 63.4974V65.5509C95.2249 66.4507 95.2249 67.3489 95.3549 68.2487C95.4199 68.6328 95.5499 69.0184 95.7449 69.3405H94.0549C93.7949 68.9549 93.7299 68.5693 93.6649 68.1837ZM93.5349 64.7812C92.6899 65.0383 91.8449 65.2954 90.9999 65.3589C90.5449 65.4224 90.0899 65.4874 89.6349 65.681C89.3749 65.808 89.1799 65.9365 88.9849 66.1936C88.8524 66.4061 88.7847 66.6511 88.7899 66.8998C88.7899 67.2854 88.9849 67.6711 89.2449 67.9282C89.6349 68.2487 90.1549 68.3773 90.6099 68.3122C91.1949 68.3122 91.7149 68.1852 92.2349 67.9282C92.6899 67.6711 93.0149 67.2854 93.2749 66.8363C93.4699 66.3222 93.5349 65.808 93.5349 65.2954V64.7812ZM96.6549 69.3405V60.2235H98.0199V61.5073C98.2799 61.0582 98.6699 60.6726 99.1899 60.4155C99.7099 60.1584 100.23 60.0299 100.815 60.0299C101.4 60.0299 101.985 60.1584 102.505 60.4155C102.96 60.6726 103.285 61.1217 103.415 61.5708C103.712 61.087 104.13 60.6855 104.631 60.4046C105.132 60.1237 105.698 59.9728 106.275 59.9664C107.055 59.9029 107.835 60.1584 108.355 60.7361C108.875 61.3788 109.135 62.2119 109.07 63.0483V69.2755H107.575V63.5624C107.575 63.1117 107.575 62.6626 107.445 62.2135C107.315 61.9564 107.12 61.6994 106.86 61.5708C106.6 61.3788 106.275 61.3137 105.885 61.3137C105.3 61.3137 104.715 61.5073 104.26 61.9564C103.805 62.5341 103.545 63.2419 103.61 64.0115V69.2755H102.05V63.3688C102.115 62.8547 101.92 62.277 101.66 61.8295C101.335 61.4423 100.88 61.2502 100.425 61.3137C99.9699 61.3137 99.5799 61.4423 99.1899 61.6359C98.7999 61.893 98.5399 62.2135 98.4099 62.6626C98.2149 63.3054 98.1499 63.9481 98.1499 64.5892V69.2755L96.6549 69.3405ZM110.5 58.554V56.8195H112.06V58.554H110.5ZM110.5 69.339V60.2219H112.06V69.339H110.5ZM113.555 69.3405V60.2235H114.92V61.5724C115.57 60.6075 116.675 60.0299 117.845 60.0949C118.365 60.0949 118.885 60.1584 119.34 60.4155C119.73 60.544 120.12 60.8646 120.38 61.1868C120.64 61.5073 120.77 61.893 120.9 62.3421C120.965 62.8562 120.965 63.3688 120.965 63.8179V69.404H119.405V63.8814C119.405 63.4339 119.34 62.9197 119.21 62.469C119.09 62.1473 118.86 61.8757 118.56 61.6994C118.235 61.5073 117.845 61.3788 117.455 61.4423C116.805 61.4423 116.22 61.6359 115.765 62.085C115.245 62.4706 115.05 63.3054 115.05 64.4607V69.404L113.555 69.3405ZM122.265 70.0467L123.76 70.2388C123.76 70.6244 123.955 71.01 124.28 71.2671C124.735 71.5877 125.32 71.7162 125.84 71.7162C126.425 71.7797 127.01 71.5877 127.53 71.2655C127.92 70.945 128.18 70.5609 128.31 70.0467C128.44 69.404 128.44 68.7613 128.44 68.0567C127.855 68.8264 126.88 69.2755 125.905 69.212C124.735 69.2755 123.695 68.7629 122.98 67.8631C122.289 66.93 121.924 65.8042 121.94 64.6527C121.94 63.8179 122.07 63.0483 122.395 62.277C122.655 61.5708 123.175 60.9932 123.76 60.6091C124.41 60.2235 125.125 59.9664 125.905 60.0315C126.945 60.0315 127.92 60.4806 128.57 61.3153V60.2235H130V68.1202C130.065 69.1469 129.935 70.1753 129.545 71.1386C129.22 71.7162 128.765 72.2288 128.18 72.551C127.465 72.935 126.685 73.0636 125.84 73.0636C124.93 73.127 123.955 72.8715 123.175 72.3574C122.525 71.7162 122.135 70.8815 122.265 70.0467ZM123.5 64.5892C123.5 65.8096 123.76 66.6443 124.215 67.222C124.67 67.7346 125.32 68.0567 126.035 68.0567C126.75 68.0567 127.4 67.7996 127.855 67.222C128.375 66.6443 128.57 65.8096 128.57 64.6527C128.635 63.7628 128.383 62.8783 127.855 62.15C127.631 61.891 127.353 61.6822 127.038 61.5382C126.724 61.3941 126.382 61.3181 126.035 61.3153C125.32 61.3153 124.67 61.6359 124.28 62.15C123.714 62.838 123.436 63.7092 123.5 64.5892Z" fill="#77A007"/>
</g>
</svg>
