<svg width="36" height="36" viewBox="0 0 36 36" fill="none" xmlns="http://www.w3.org/2000/svg">
<mask id="mask0_6_1763" style="mask-type:luminance" maskUnits="userSpaceOnUse" x="0" y="0" width="36" height="36">
<path d="M0 0H36V36H0V0Z" fill="white"/>
</mask>
<g mask="url(#mask0_6_1763)">
<path d="M30.3529 34.297L29.9709 33.341C29.8534 33.0475 29.793 32.7342 29.7929 32.418V25.876C29.7929 22.391 28.5709 19.016 26.3399 16.339L20.5899 9.439C20.5207 9.35551 20.4829 9.25045 20.4829 9.142V6.937C20.4829 6.865 20.4999 6.794 20.5319 6.729L22.7689 2.255C22.8989 1.996 22.9659 1.711 22.9659 1.422C22.9659 0.636001 22.3289 6.21513e-07 21.5439 6.21513e-07H20.5609C20.1049 6.21513e-07 19.6599 0.135001 19.2809 0.387001C18.9017 0.639735 18.4562 0.774595 18.0004 0.774595C17.5447 0.774595 17.0992 0.639735 16.7199 0.387001C16.3405 0.134327 15.8948 -0.000333838 15.4389 6.21513e-07H14.4559C13.6709 6.21513e-07 13.0349 0.636001 13.0349 1.421C13.0349 1.711 13.1019 1.996 13.2309 2.255L15.4679 6.729C15.5009 6.793 15.5179 6.865 15.5179 6.937V9.141C15.5177 9.25004 15.4791 9.35552 15.4089 9.439L9.65894 16.339C7.42818 19.0164 6.20668 22.3911 6.20694 25.876V32.418C6.20694 32.734 6.14694 33.048 6.02894 33.34L5.64694 34.297C5.5714 34.4853 5.54319 34.6893 5.56479 34.8911C5.58639 35.0929 5.65713 35.2863 5.77083 35.4543C5.88453 35.6224 6.03771 35.76 6.21695 35.8552C6.39619 35.9503 6.59602 36 6.79894 36H29.2009C30.0789 36 30.6799 35.113 30.3529 34.297Z" fill="#B9E678"/>
<path d="M17.9999 9.174C17.8847 9.17406 17.7717 9.142 17.6736 9.08141C17.5756 9.02082 17.4964 8.93411 17.4449 8.83101L15.2719 4.487C15.2354 4.41412 15.2136 4.33476 15.2078 4.25345C15.2019 4.17215 15.2122 4.09049 15.2379 4.01314C15.2636 3.93579 15.3043 3.86426 15.3577 3.80264C15.411 3.74102 15.476 3.69051 15.5489 3.654C15.6218 3.6175 15.7012 3.5957 15.7825 3.58987C15.8638 3.58403 15.9454 3.59426 16.0228 3.61998C16.1001 3.64571 16.1717 3.68641 16.2333 3.73978C16.2949 3.79314 16.3454 3.85812 16.3819 3.931L17.9999 7.16601L19.6169 3.931C19.6534 3.85812 19.7039 3.79314 19.7655 3.73978C19.8272 3.68641 19.8987 3.64571 19.976 3.61999C20.0534 3.59426 20.1351 3.58403 20.2164 3.58987C20.2977 3.5957 20.377 3.6175 20.4499 3.654C20.5228 3.69051 20.5878 3.74102 20.6411 3.80264C20.6945 3.86426 20.7352 3.93579 20.7609 4.01314C20.7867 4.09049 20.7969 4.17215 20.791 4.25345C20.7852 4.33476 20.7634 4.41412 20.7269 4.487L18.5549 8.83101C18.5034 8.93411 18.4242 9.02082 18.3262 9.08141C18.2281 9.142 18.1152 9.17406 17.9999 9.174Z" fill="#9BDC6E"/>
<path d="M17.9999 29.79C18.8216 29.8004 19.6372 29.6476 20.3993 29.3404C21.1615 29.0331 21.855 28.5776 22.4398 28.0003C23.0245 27.4229 23.4888 26.7352 23.8057 25.977C24.1225 25.2188 24.2857 24.4052 24.2857 23.5835C24.2857 22.7618 24.1225 21.9482 23.8057 21.19C23.4888 20.4318 23.0245 19.7441 22.4398 19.1667C21.855 18.5894 21.1615 18.1338 20.3993 17.8266C19.6372 17.5194 18.8216 17.3666 17.9999 17.377C16.3675 17.3977 14.809 18.0607 13.6619 19.2224C12.5149 20.3841 11.8717 21.9509 11.8717 23.5835C11.8717 25.216 12.5149 26.7829 13.6619 27.9446C14.809 29.1063 16.3675 29.7693 17.9999 29.79Z" fill="white"/>
<path d="M12.404 34.297L12.615 33.34C12.68 33.047 12.713 32.734 12.713 32.418V25.876C12.713 22.391 13.386 19.016 14.616 16.339L17.844 9.30901V6.82801L16.584 2.25601C16.5108 1.98441 16.4741 1.70428 16.475 1.42301V1.42201C16.475 1.01401 16.571 0.649007 16.723 0.390007C16.722 0.390007 16.721 0.390007 16.72 0.388007C16.297 0.134533 15.8131 0.000766941 15.32 0.0010074H14.456C13.671 0.0010074 13.035 0.637007 13.035 1.42201V1.42301C13.035 1.71301 13.102 1.99701 13.231 2.25601L15.468 6.73001C15.501 6.79501 15.518 6.86601 15.518 6.93801V9.14201C15.5177 9.25105 15.4791 9.35653 15.409 9.44001L9.65895 16.34C7.42812 19.0173 6.2066 22.3921 6.20695 25.877V32.419C6.20695 32.735 6.14695 33.049 6.02895 33.341L5.64695 34.298C5.57167 34.4864 5.54365 34.6903 5.56536 34.8919C5.58707 35.0936 5.65784 35.2869 5.77149 35.4549C5.88514 35.6229 6.03821 35.7605 6.21731 35.8557C6.39642 35.9509 6.59612 36.0008 6.79895 36.001H13.039C12.555 36.001 12.224 35.113 12.404 34.297Z" fill="#9BDC6E"/>
<path d="M17.8429 6.85301L16.3829 3.93101C16.3092 3.78381 16.18 3.67193 16.0238 3.61999C15.8675 3.56804 15.6971 3.58028 15.5499 3.65401C15.4027 3.72774 15.2908 3.85692 15.2389 4.01314C15.1869 4.16935 15.1992 4.33981 15.2729 4.487L17.4449 8.83101C17.4846 8.91003 17.5407 8.97964 17.6095 9.03518C17.6784 9.09072 17.7583 9.13089 17.8439 9.153L17.8429 6.85301Z" fill="#82C85A"/>
<path d="M27.31 32.896H8.68997C8.52527 32.896 8.36732 32.9614 8.25086 33.0779C8.1344 33.1943 8.06897 33.3523 8.06897 33.517C8.06897 33.6817 8.1344 33.8396 8.25086 33.9561C8.36732 34.0726 8.52527 34.138 8.68997 34.138H27.31C27.4747 34.138 27.6326 34.0726 27.7491 33.9561C27.8655 33.8396 27.931 33.6817 27.931 33.517C27.931 33.3523 27.8655 33.1943 27.7491 33.0779C27.6326 32.9614 27.4747 32.896 27.31 32.896Z" fill="#9BDC6E"/>
<path d="M8.68997 32.896C8.52527 32.896 8.36732 32.9614 8.25086 33.0779C8.1344 33.1943 8.06897 33.3523 8.06897 33.517C8.06897 33.6817 8.1344 33.8396 8.25086 33.9561C8.36732 34.0726 8.52527 34.138 8.68997 34.138H12.44L12.615 33.341C12.647 33.197 12.67 33.048 12.687 32.896H8.68997Z" fill="#82C85A"/>
<path d="M20.578 25.076C20.578 24.066 19.982 23.448 18.791 23.187L18.371 23.105V21.369C18.5187 21.3954 18.6585 21.455 18.7797 21.5434C18.901 21.6317 19.0006 21.7465 19.071 21.879C19.123 21.9839 19.2033 22.0722 19.3027 22.134C19.4022 22.1959 19.5169 22.2287 19.634 22.229C20.121 22.229 20.437 21.692 20.177 21.279C19.839 20.741 19.204 20.38 18.372 20.288V19.988C18.372 19.8746 18.327 19.7659 18.2468 19.6857C18.1666 19.6055 18.0579 19.5605 17.9445 19.5605C17.8311 19.5605 17.7224 19.6055 17.6422 19.6857C17.562 19.7659 17.517 19.8746 17.517 19.988V20.288C16.195 20.432 15.422 21.155 15.422 22.261C15.422 23.229 16.022 23.876 17.144 24.136L17.517 24.224V26.048C17.139 25.978 16.852 25.784 16.71 25.512C16.6572 25.4081 16.5769 25.3206 16.4778 25.2593C16.3786 25.1979 16.2646 25.1649 16.148 25.164H16.085C15.597 25.164 15.285 25.7 15.541 26.114C15.89 26.679 16.578 27.035 17.517 27.114V27.316C17.517 27.4294 17.562 27.5381 17.6422 27.6183C17.7224 27.6985 17.8311 27.7435 17.9445 27.7435C18.0579 27.7435 18.1666 27.6985 18.2468 27.6183C18.327 27.5381 18.372 27.4294 18.372 27.316V27.11C19.782 26.964 20.578 26.236 20.578 25.076ZM16.767 22.145C16.767 21.739 17.074 21.432 17.517 21.363V22.925C17.027 22.792 16.767 22.525 16.767 22.145ZM18.372 26.065V24.386C18.978 24.522 19.261 24.792 19.261 25.225C19.261 25.696 18.934 26.005 18.372 26.065Z" fill="#9BDC6E"/>
<path d="M20.1719 9.31H15.8279C15.7464 9.31013 15.6657 9.29419 15.5903 9.26309C15.515 9.23199 15.4465 9.18634 15.3889 9.12876C15.3312 9.07117 15.2854 9.00278 15.2542 8.92749C15.223 8.8522 15.2069 8.7715 15.2069 8.69V7.447C15.2069 7.28256 15.2722 7.12486 15.3885 7.00859C15.5048 6.89232 15.6625 6.827 15.8269 6.827H20.1719C20.2534 6.82687 20.3341 6.84281 20.4095 6.8739C20.4848 6.905 20.5533 6.95065 20.611 7.00824C20.6686 7.06582 20.7144 7.13421 20.7456 7.2095C20.7768 7.28479 20.7929 7.36549 20.7929 7.447V8.688C20.793 8.7695 20.7771 8.85023 20.746 8.92557C20.7149 9.00091 20.6693 9.06937 20.6117 9.12705C20.5541 9.18473 20.4857 9.23049 20.4104 9.26171C20.3351 9.29293 20.2544 9.309 20.1729 9.309L20.1719 9.31Z" fill="#82C85A"/>
<path d="M11.793 23.583C11.793 24.773 12.133 25.879 12.713 26.823V25.876C12.713 23.549 13.019 21.277 13.584 19.224C12.4353 20.3842 11.7919 21.9514 11.794 23.584L11.793 23.583Z" fill="#EFF2FA"/>
<path d="M17.3799 8.689V7.448C17.3799 7.36658 17.3959 7.28596 17.4271 7.21074C17.4583 7.13552 17.5039 7.06717 17.5615 7.0096C17.6191 6.95203 17.6874 6.90636 17.7626 6.8752C17.8379 6.84404 17.9185 6.828 17.9999 6.828H15.8279C15.7464 6.82787 15.6657 6.84381 15.5903 6.87491C15.515 6.90601 15.4465 6.95166 15.3889 7.00924C15.3312 7.06683 15.2854 7.13522 15.2542 7.21051C15.223 7.2858 15.2069 7.3665 15.2069 7.448V8.689C15.2069 9.032 15.4849 9.31 15.8269 9.31H17.9999C17.9185 9.31 17.8379 9.29397 17.7626 9.26281C17.6874 9.23165 17.6191 9.18598 17.5615 9.12841C17.5039 9.07084 17.4583 9.00249 17.4271 8.92727C17.3959 8.85205 17.3799 8.77142 17.3799 8.69V8.689Z" fill="#73AF55"/>
</g>
</svg>
