<svg width="155" height="56" viewBox="0 0 155 56" fill="none" xmlns="http://www.w3.org/2000/svg">
<path d="M80.7349 1.21792C80.6838 0.517652 80.3056 0 79.8406 0H69.006C68.541 0 68.1629 0.543309 68.1102 1.21792L64.9451 54.4969C64.8924 55.2741 65.3062 55.9728 65.8409 55.9728H71.0242C71.4892 55.9728 71.8844 55.4295 71.9201 54.7051L72.2456 47.5033C72.2642 47.1667 72.4362 46.9071 72.6594 46.9071H76.1733C76.3965 46.9071 76.5701 47.1667 76.5871 47.5033L76.9126 54.7036C76.9483 55.4039 77.3451 55.9728 77.8101 55.9728H83.0103C83.5435 55.9728 83.9574 55.2997 83.9062 54.4969L80.7365 1.21641L80.7349 1.21792ZM73.2097 37.9712C72.9679 37.9712 72.7787 37.6603 72.7958 37.2981L74.0901 11.1378C74.1056 10.9311 74.2094 10.8013 74.3303 10.8013H74.5024C74.6419 10.8013 74.7442 10.9567 74.7442 11.1378L76.0353 37.2996C76.0524 37.6618 75.8648 37.9727 75.6215 37.9727H73.2112L73.2097 37.9712ZM151.827 1.21792C151.793 0.517652 151.396 0 150.931 0H140.098C139.633 0 139.255 0.543309 139.204 1.21792L136.051 54.4984C136 55.2756 136.414 55.9743 136.947 55.9743H142.13C142.595 55.9743 142.992 55.431 143.026 54.7066L143.353 47.5048C143.37 47.1682 143.544 46.9086 143.767 46.9086H147.281C147.504 46.9086 147.676 47.1682 147.693 47.5048L148.02 54.7051C148.056 55.4054 148.451 55.9743 148.916 55.9743H154.1C154.634 55.9743 155.048 55.3012 154.995 54.4984L151.827 1.21792ZM144.3 37.9727C144.06 37.9727 143.871 37.6618 143.888 37.2996L145.179 11.1378C145.196 10.9311 145.3 10.8013 145.421 10.8013H145.593C145.731 10.8013 145.833 10.9567 145.833 11.1378L147.126 37.2996C147.143 37.6618 146.953 37.9727 146.712 37.9727H144.3ZM31.2914 32.8702V44.4487C31.2914 44.7852 31.4821 45.0704 31.7053 45.0704H37.5953C38.0944 45.0704 38.4912 45.6651 38.4912 46.4166V54.601C38.4912 55.3526 38.0944 55.9487 37.5953 55.9487H25.1612C24.6621 55.9487 24.2653 55.3526 24.2653 54.601V1.3462C24.2653 0.59613 24.6621 0 25.1612 0H37.5953C38.0944 0 38.4912 0.59613 38.4912 1.34771V9.48073C38.4912 10.2308 38.0944 10.8269 37.5953 10.8269H31.7053C31.4821 10.8269 31.2914 11.1122 31.2914 11.4487V22.6122C31.2914 22.9487 31.4821 23.234 31.7053 23.234H36.4064C36.9055 23.234 37.3023 23.8301 37.3023 24.5817V30.9007C37.3023 31.6522 36.9055 32.2484 36.4064 32.2484H31.7053C31.4821 32.2484 31.2914 32.5336 31.2914 32.8702ZM104.45 0H89.0708C88.5717 0 88.1749 0.59613 88.1749 1.34771V9.48073C88.1749 10.2308 88.5717 10.8269 89.0708 10.8269H92.842C93.0667 10.8269 93.2558 11.1122 93.2558 11.4487V54.6266C93.2558 55.3782 93.6511 55.9743 94.1517 55.9743H99.369C99.8697 55.9743 100.265 55.3782 100.265 54.6281V11.4231C100.265 11.0865 100.454 10.8013 100.679 10.8013H104.45C104.949 10.8013 105.346 10.2051 105.346 9.45507V1.3462C105.346 0.59613 104.949 0 104.45 0ZM58.5544 45.0704H53.2317C53.0085 45.0704 52.8194 44.7837 52.8194 44.4487V1.3462C52.8194 0.59613 52.4226 0 51.9235 0H46.7046C46.2055 0 45.8103 0.59613 45.8103 1.34771V54.6281C45.8103 55.3782 46.2055 55.9743 46.7062 55.9743H58.5544C59.0535 55.9743 59.4503 55.3782 59.4503 54.6281V46.4423C59.4503 45.6907 59.0535 45.0704 58.5544 45.0704ZM125.84 29.5288V29.1923C125.84 29.0368 125.908 28.9055 125.995 28.8542C127.872 27.7676 129.197 25.0209 129.197 21.8365V10.1795C129.214 4.55926 126.184 0 122.447 0H112.975C112.476 0 112.079 0.59613 112.079 1.34771V54.6281C112.079 55.3782 112.476 55.9743 112.975 55.9743H118.192C118.693 55.9743 119.088 55.3782 119.088 54.6281V35.2275C119.088 34.8895 119.277 34.6057 119.502 34.6057H120.725C121.551 34.6057 122.222 35.6169 122.222 36.8589V54.6523C122.222 55.4054 122.619 56 123.118 56H128.337C128.836 56 129.231 55.4054 129.231 54.6538V36.9359C129.231 33.7244 127.906 31.0048 126.029 29.9182C125.97 29.871 125.922 29.8116 125.889 29.7442C125.857 29.6769 125.84 29.6033 125.84 29.5288ZM122.205 23.3109C122.205 24.5545 121.534 25.5657 120.708 25.5657H119.485C119.26 25.5657 119.071 25.2804 119.071 24.9439V11.4216C119.071 11.0865 119.26 10.8013 119.485 10.8013H120.708C121.534 10.8013 122.205 11.8124 122.205 13.0545V23.3125V23.3109ZM17.1523 10.1795C17.1523 4.55926 14.1221 0 10.368 0H0.895899C0.396799 0 0 0.59613 0 1.34771V54.6281C0 55.3782 0.396799 55.9743 0.895899 55.9743H12.4C15.018 55.9743 17.1353 52.79 17.1353 48.851V35.3045C17.1353 32.0929 15.81 29.3734 13.933 28.2852C13.8291 28.2339 13.778 28.1041 13.778 27.9487V27.6121C13.778 27.4567 13.8462 27.3254 13.933 27.2756C15.8085 26.1875 17.1353 23.4422 17.1353 20.2548L17.1523 10.1795ZM10.1432 42.8429C10.1432 44.0849 9.47206 45.0961 8.64591 45.0961H7.42141C7.19821 45.0961 7.0091 44.8094 7.0091 44.4743V32.8958C7.0091 32.5593 7.1982 32.274 7.42295 32.274H8.64591C9.47206 32.274 10.1432 33.2852 10.1432 34.5272V42.8429ZM10.1432 20.9808C10.1432 22.2243 9.47206 23.234 8.64591 23.234H7.42141C7.19821 23.234 7.0091 22.9487 7.0091 22.6122V11.4246C7.0091 11.088 7.1982 10.8028 7.42295 10.8028H8.64591C9.47206 10.8028 10.1432 11.8139 10.1432 13.056V20.9808Z" fill="#0041FF"/>
</svg>
