<svg fill="none" viewBox="0 0 150 63" id="providers--belatra" xmlns="http://www.w3.org/2000/svg"><path d="M77.087 12.807c-.033-.464-.277-.807-.577-.807H69.52c-.3 0-.544.36-.578.807L66.9 48.11c-.034.515.233.978.578.978h3.344c.3 0 .555-.36.578-.84l.21-4.772c.012-.223.123-.395.267-.395h2.267c.144 0 .256.172.267.395l.21 4.771c.023.464.279.841.579.841h3.355c.344 0 .611-.446.578-.978l-2.045-35.304zM72.232 37.16c-.156 0-.278-.206-.267-.446L72.8 19.38c.01-.137.077-.223.155-.223h.111c.09 0 .156.103.156.223l.833 17.335c.011.24-.11.446-.267.446h-1.555zM122.953 12.807c-.022-.464-.278-.807-.578-.807h-6.989c-.3 0-.544.36-.577.807l-2.034 35.304c-.033.515.234.978.578.978h3.344c.3 0 .556-.36.578-.84l.211-4.772c.011-.223.123-.395.267-.395h2.267c.144 0 .255.172.266.395l.211 4.771c.023.464.278.841.578.841h3.344c.345 0 .612-.446.578-.978l-2.044-35.304zm-4.856 24.354c-.155 0-.277-.206-.266-.446l.833-17.335c.011-.137.078-.223.156-.223h.111c.089 0 .155.103.155.223l.834 17.335c.011.24-.112.446-.267.446h-1.556zM45.188 33.78v7.672c0 .223.123.412.267.412h3.8c.322 0 .578.394.578.892v5.423c0 .498-.256.893-.578.893h-8.022c-.322 0-.578-.395-.578-.893V12.892c0-.497.256-.892.578-.892h8.022c.322 0 .578.395.578.893v5.389c0 .497-.256.892-.578.892h-3.8c-.144 0-.267.189-.267.412v7.397c0 .223.123.412.267.412h3.033c.322 0 .578.395.578.893v4.187c0 .498-.256.893-.578.893h-3.033c-.144 0-.267.189-.267.412zM92.387 12h-9.922c-.322 0-.578.395-.578.893v5.389c0 .497.256.892.578.892h2.433c.145 0 .267.189.267.412v28.61c0 .498.255.893.578.893h3.366c.323 0 .578-.395.578-.892V19.569c0-.223.122-.412.267-.412h2.433c.322 0 .578-.395.578-.892v-5.373c0-.497-.256-.892-.578-.892zM62.777 41.864h-3.434c-.144 0-.266-.19-.266-.412v-28.56c0-.497-.256-.892-.578-.892h-3.367c-.322 0-.577.395-.577.893v35.304c0 .497.255.892.578.892h7.644c.322 0 .578-.395.578-.892v-5.424c0-.498-.256-.91-.578-.91zM106.187 31.566v-.223c0-.103.044-.19.1-.224 1.211-.72 2.066-2.54 2.066-4.65v-7.724c.011-3.724-1.944-6.745-4.355-6.745h-6.111c-.322 0-.578.395-.578.893v35.304c0 .497.256.892.578.892h3.366c.323 0 .578-.395.578-.892V35.342c0-.224.122-.412.267-.412h.789c.533 0 .966.67.966 1.493v11.79c0 .499.256.893.578.893h3.367c.322 0 .577-.394.577-.892v-11.74c0-2.128-.855-3.93-2.066-4.65a.333.333 0 01-.122-.258zm-2.345-4.12c0 .824-.433 1.494-.966 1.494h-.789c-.145 0-.267-.189-.267-.412v-8.96c0-.222.122-.411.267-.411h.789c.533 0 .966.67.966 1.493v6.797zM36.066 18.745c0-3.724-1.955-6.745-4.377-6.745h-6.111c-.322 0-.578.395-.578.893v35.304c0 .497.256.892.578.892H33c1.689 0 3.055-2.11 3.055-4.72v-8.976c0-2.128-.855-3.93-2.066-4.651-.067-.034-.1-.12-.1-.223v-.223c0-.103.044-.19.1-.223 1.21-.721 2.066-2.54 2.066-4.652l.011-6.676zm-4.522 21.643c0 .823-.433 1.493-.966 1.493h-.79c-.144 0-.266-.19-.266-.412v-7.672c0-.223.122-.412.267-.412h.789c.533 0 .966.67.966 1.493v5.51zm0-14.486c0 .824-.433 1.493-.966 1.493h-.79c-.144 0-.266-.189-.266-.412V19.57c0-.223.122-.412.267-.412h.789c.533 0 .966.67.966 1.493v5.252z" fill="#0041FF"></path></svg>