<svg fill="none" viewBox="0 0 150 56" id="providers--betsoft" xmlns="http://www.w3.org/2000/svg"><g clip-path="url(#fsclip0_1482_21069)"><path d="M37.508 43V28.648h8.782c.41.556.682 1.25.682 1.945.046 2.731.137 5.463-.045 8.148-.182 2.269-1.73 3.565-3.822 4.213-1.82.046-3.731.046-5.597.046zm3.23-3.24h.956c1.684 0 2.184-.463 2.184-2.176 0-1.806-.045-3.612.046-5.417.136-2.546-1.138-2.685-3.14-2.408-.045 3.288-.045 6.62-.045 10z" fill="#fff"></path><path d="M86.603 43c-3.094-1.111-4.004-2.408-4.004-5.834v-8.564h3.14v7.87c0 .602-.046 1.204.045 1.806.137.972.728 1.527 1.684 1.435.955-.093 1.456-.695 1.456-1.667V29.25v-.648h3.23c-.09 3.518.228 7.037-.182 10.509-.182 1.805-1.456 3.01-3.14 3.704-.181.046-.318.138-.454.231C87.786 43 87.195 43 86.603 43zM75.41 43c-3.458-.926-4.732-3.102-4.14-7.176h3.139v2.315c.045.925.546 1.481 1.41 1.574.956.092 1.638-.417 1.73-1.39.136-1.851.181-3.75-.137-5.601-.228-1.158-.865-2.083-1.775-2.824-.5-.37-.955-.787-1.547-1.296H79.323a6.016 6.016 0 011.456 3.75c.045 2.083.045 4.166 0 6.25-.046 1.805-1.456 3.564-3.23 4.166a2.757 2.757 0 00-.547.232H75.41z" fill="#FDC633"></path><path d="M49.384 43V28.602h8.281v1.018h-5.05v10.093h5.05V43h-8.28z" fill="#fff"></path><path d="M94.293 43V28.602h8.371v.972h-5.141V43h-3.23zM107.033 43V28.602h3.23V43h-3.23z" fill="#FDC633"></path><path d="M62.988 43c0-3.704.046-7.408.046-11.111v-3.287h3.14V43h-3.186z" fill="#fff"></path><path d="M120 33.648c-1.774-1.945-3.594-3.889-5.232-5.648 1.592-1.713 3.412-3.704 5.232-5.648v11.296z" fill="#FDC633"></path><path d="M45.972 27.398h-8.418v-14.26c1.775 0 3.595-.138 5.324.047 2.23.232 3.822 2.361 3.822 4.63v6.944a4.393 4.393 0 01-.728 2.64zm-5.278-11.111v10.046c2.366.14 2.82-.231 2.82-2.592v-4.908c0-2.268-.5-2.731-2.82-2.546z" fill="#fff"></path><path d="M85.83 27.352h-3.095c-.045-.046-.09-.046-.09-.093 0-3.38-.092-6.805.136-10.185.136-2.5 2.593-4.26 5.096-4.028 2.366.186 4.277 2.315 4.277 4.723v9.537h-3.185v-2.084V18c0-1.065-.546-1.76-1.593-1.713-1.046 0-1.547.695-1.547 1.76v9.305zM80.87 20.176h-3.23c0-.787.045-1.574 0-2.315-.046-.833-.501-1.389-1.32-1.528-.773-.139-1.592.186-1.683.926-.273 2.824-.91 5.787 1.183 8.241.546.694 1.319 1.204 2.047 1.852H72.68c-1.001-1.296-1.41-2.824-1.41-4.445v-4.953C71.314 15.13 73.453 13 76.137 13s4.732 2.176 4.732 4.954v2.222z" fill="#FDC633"></path><path d="M49.384 13.046h8.235v3.241h-5.05V26.38h5.05v.926h-8.28c.045-4.723.045-9.491.045-14.26z" fill="#fff"></path><path d="M94.293 13h8.326v3.24h-5.096v10.093h5.141v.926h-8.371V13zM113.084 16.287h-2.866v11.019h-3.185V16.287h-3.185v-3.24h9.236v3.24z" fill="#FDC633"></path><path d="M66.264 27.306H63.08V16.287h-3.14v-3.24h9.146v3.194h-2.82v11.065z" fill="#fff"></path><path d="M34.233 28.093C32.64 29.806 30.866 31.704 29 33.74V22.398c1.82 1.991 3.594 3.89 5.233 5.695z" fill="#FDC633"></path></g></svg>