<svg width="155" height="56" viewBox="0 0 155 56" fill="none" xmlns="http://www.w3.org/2000/svg">
<mask id="mask0_3_764" style="mask-type:luminance" maskUnits="userSpaceOnUse" x="0" y="0" width="155" height="56">
<path d="M0 0H155V56H0V0Z" fill="white"/>
</mask>
<g mask="url(#mask0_3_764)">
<path d="M14.4917 55.9999V29.2095H29.4501C30.1484 30.2473 30.6117 31.5428 30.6117 32.8401C30.6901 37.938 30.845 43.0377 30.535 48.0497C30.225 52.2852 27.5883 54.7044 24.0251 55.914C20.9251 55.9999 17.6701 55.9999 14.4917 55.9999ZM19.9933 49.9519H21.6217C24.4901 49.9519 25.3417 49.0876 25.3417 45.89C25.3417 42.5188 25.2651 39.1476 25.4201 35.7783C25.6517 31.0257 23.4817 30.7663 20.0717 31.2833C19.9951 37.4209 19.995 43.6407 19.995 49.95L19.9933 49.9519Z" fill="white"/>
<path d="M98.115 56C92.845 53.9262 91.295 51.5051 91.295 45.1099V29.1238H96.6433V43.8144C96.6433 44.9382 96.565 46.0619 96.72 47.1856C96.9533 49 97.96 50.036 99.5883 49.8643C101.215 49.6907 102.068 48.567 102.068 46.7526V30.3334V29.1238H107.57C107.417 35.6907 107.958 42.2595 107.26 48.7406C106.95 52.1099 104.78 54.3592 101.912 55.6547C101.603 55.7406 101.37 55.9123 101.138 56.0859C100.13 56.0001 99.1233 56 98.115 56ZM79.05 56C73.16 54.2715 70.99 50.2096 71.9983 42.6048H77.345V46.9262C77.4216 48.6528 78.275 49.6907 79.7466 49.8643C81.375 50.036 82.5366 49.0859 82.6933 47.2697C82.925 43.8145 83.0016 40.2696 82.46 36.8144C82.0716 34.6528 80.9866 32.9262 79.4366 31.543C78.585 30.8523 77.81 30.0739 76.8016 29.1238H85.715C87.2501 31.0761 88.1257 33.5477 88.195 36.1238C88.2716 40.012 88.2716 43.9003 88.195 47.7904C88.1166 51.1598 85.715 54.4433 82.6933 55.567C82.3694 55.6741 82.057 55.8193 81.7616 56H79.05Z" fill="#FDC633"/>
<path d="M34.72 56V29.1238H48.825V31.024H40.2233V49.8643H48.825V56H34.72Z" fill="white"/>
<path d="M111.213 56V29.1238H125.472V30.9382H116.715V56H111.213ZM132.913 56V29.1238H138.415V56H132.913Z" fill="#FDC633"/>
<path d="M57.8916 56C57.8916 49.0859 57.97 42.1718 57.97 35.2595V29.1238H63.3183V56H57.8916Z" fill="white"/>
<path d="M155 38.5431C151.978 34.9125 148.878 31.2837 146.088 28.0002C148.8 24.8026 151.9 21.0861 155 17.4573V38.5431Z" fill="#FDC633"/>
<path d="M28.9084 26.8765H14.5701V0.25786C17.5934 0.25786 20.6934 0.000262031 23.6384 0.345595C27.4368 0.778662 30.1484 4.7528 30.1484 8.98826V21.9504C30.2248 23.6959 29.7903 25.4206 28.9084 26.8765ZM19.9184 6.136V24.8885C23.9484 25.1499 24.7217 24.4573 24.7217 20.0501V10.8885C24.7217 6.65493 23.8701 5.79066 19.9184 6.136Z" fill="white"/>
<path d="M96.7984 26.7904H91.5267C91.4501 26.7045 91.3734 26.7045 91.3734 26.6168C91.3734 20.3075 91.2167 13.9141 91.6051 7.6048C91.8367 2.93813 96.0217 -0.347201 100.285 0.0858658C104.315 0.433066 107.57 4.4072 107.57 8.90213V26.7045H102.145V22.8144V9.33333C102.145 7.34533 101.215 6.048 99.4317 6.13573C97.6501 6.13573 96.7967 7.43307 96.7967 9.42107L96.7984 26.7904ZM88.3501 13.3952H82.8484C82.8484 11.9261 82.9251 10.4571 82.8484 9.07387C82.7701 7.51893 81.9951 6.48107 80.6001 6.2216C79.2834 5.96213 77.8884 6.5688 77.7334 7.95013C77.2684 13.2216 76.1834 18.7525 79.7484 23.3333C80.6784 24.6288 81.9951 25.5808 83.2351 26.7904H74.4001C72.6951 24.3712 71.9984 21.5189 71.9984 18.4931V9.24747C72.0734 3.976 75.7167 0 80.2884 0C84.86 0 88.3484 4.06187 88.3484 9.24747L88.3501 13.3952Z" fill="#FDC633"/>
<path d="M34.72 0.0856934H48.7466V6.13556H40.145V24.9758H48.7466V26.7044H34.6433C34.72 17.8881 34.72 8.98783 34.72 0.0856934Z" fill="white"/>
<path d="M111.213 0H125.395V6.048H116.715V24.8883H125.472V26.6168H111.213V0ZM143.22 6.13573H138.338V26.7045H132.913V6.13573H127.488V0.0877332H143.22V6.13573Z" fill="#FDC633"/>
<path d="M63.4716 26.7047H58.0483V6.13589H52.7V0.0878906H68.2783V6.05002H63.475V26.7047H63.4716Z" fill="white"/>
<path d="M8.91335 28.1734C6.2 31.371 3.17835 34.9139 0 38.7145V17.5427C3.1 21.2593 6.12165 24.8041 8.91335 28.1734Z" fill="#FDC633"/>
</g>
</svg>
