<svg width="155" height="56" viewBox="0 0 155 56" fill="none" xmlns="http://www.w3.org/2000/svg">
<path d="M101.294 22.9765C103.43 21.6558 105.548 20.3282 107.649 18.9939H141.749L155 10.8446H119.35C127.024 5.03481 130.355 1.05089 128.185 0.174616C127.72 -0.0441191 126.869 -0.0441195 125.784 0.10126C123.146 0.466708 119.894 1.56305 117.645 2.36731C114.945 3.3495 112.309 4.37299 109.74 5.43627C103.309 8.10378 103.619 8.03042 109.354 5.7297C112.609 4.44929 115.165 3.57302 117.104 3.0982C117.566 2.98884 118.11 2.87813 118.654 2.80478C119.116 2.69541 119.736 2.73275 120.204 2.84212C121.754 3.46365 118.809 6.42325 112.685 10.8446C105.634 15.9236 94.24 22.9765 80.755 30.4668L79.7489 31.015C72.885 34.7915 65.8567 38.4953 58.6689 42.1238H101.37V30.6495H138.725L151.201 23.0498H101.294V22.9765ZM82.5389 52.0629V51.6975H84.32L82.5389 47.5682V46.984H83.08L86.18 53.9635H85.1739L84.3989 52.0269L82.5389 52.0629ZM97.805 53.9635L98.27 46.984H99.2762L102.376 53.306L105.555 46.984H106.561L107.029 53.9635H106.175L105.789 48.1164L102.765 53.9635H102.066L99.1212 48.1164L98.735 53.9635H97.805ZM119.274 53.9635V46.984H124.386V47.3495H120.204V50.1637H123.614V50.5278H120.204V53.5981H124.389V53.9635H119.274ZM139.269 54.0729C137.096 54.0729 135.935 53.4514 135.701 52.2817L136.555 52.1723C136.555 52.355 136.634 52.5017 136.786 52.6845C136.865 52.8312 136.941 52.9766 137.096 53.1233L137.564 53.4514L138.26 53.6714C138.57 53.7075 138.88 53.7435 139.19 53.7435C140.74 53.7435 141.591 53.378 141.591 52.6111C141.591 52.3177 141.439 52.0643 141.129 51.8069C140.678 51.522 140.186 51.2536 139.655 51.0039L136.941 49.7235C136.165 49.3877 135.692 48.9149 135.625 48.4085C135.549 48.007 135.856 47.6415 136.479 47.3495C137.099 47.0934 137.95 46.948 138.88 46.984H138.956C139.889 46.948 140.74 47.0934 141.36 47.3855C141.98 47.6789 142.29 48.079 142.29 48.7379L141.439 48.8473C141.435 48.4441 141.192 48.0503 140.74 47.7136C140.515 47.5927 140.239 47.4975 139.93 47.4346C139.622 47.3717 139.29 47.3426 138.956 47.3495H138.88C138.26 47.3495 137.64 47.4228 137.175 47.6055C136.946 47.6966 136.769 47.8149 136.661 47.9492C136.552 48.0835 136.516 48.2293 136.555 48.3724C136.555 48.5552 136.634 48.7379 136.786 48.9206C137.02 49.1394 137.251 49.3221 137.64 49.4314L140.354 50.6745C140.971 50.9679 141.515 51.2587 141.98 51.6241C142.366 51.9176 142.6 52.2457 142.6 52.5751C142.679 53.0126 142.29 53.4154 141.67 53.7075C140.971 53.9262 140.12 54.0729 139.269 54.0729ZM63.7812 54.0729C63.3189 54.0729 62.775 54.0369 62.31 53.9635C61.9239 53.8902 61.535 53.8168 61.3039 53.6701C61.0465 53.5432 60.8367 53.3952 60.6839 53.2326C60.5262 53.0499 60.3712 52.8672 60.3712 52.6485C60.295 52.4284 60.295 52.2083 60.295 51.9536V48.9566C60.295 48.7379 60.3712 48.4818 60.3712 48.2631C60.45 48.0804 60.5289 47.8603 60.76 47.6789C60.9029 47.5129 61.1139 47.363 61.38 47.2388C61.69 47.0934 62 47.02 62.3862 46.948C62.8622 46.8727 63.3598 46.8353 63.86 46.8373C64.8662 46.8013 65.875 46.984 66.495 47.3495C67.115 47.7883 67.3462 48.2991 67.27 48.8113V49.066H66.2639V48.7739C66.34 48.3724 66.1089 47.9336 65.72 47.5682C65.5015 47.423 65.2028 47.3114 64.8593 47.2467C64.5158 47.1819 64.1418 47.1667 63.7812 47.2027C63.395 47.2027 63.0089 47.2401 62.62 47.2761C62.3247 47.3123 62.0561 47.3886 61.845 47.4962C61.6213 47.5928 61.4597 47.7194 61.38 47.8603C61.231 47.9956 61.1516 48.1467 61.1489 48.3004C61.07 48.4818 61.07 48.6645 61.07 48.8846V51.9522C61.07 52.1723 61.07 52.4284 61.1489 52.6485C61.225 52.8312 61.3012 53.0126 61.535 53.1593C61.7662 53.306 62 53.4154 62.31 53.5247C63.1358 53.6716 64.0404 53.6716 64.8662 53.5247C65.1884 53.4574 65.4594 53.3421 65.6412 53.1953C65.7989 53.0486 65.9539 52.8672 66.03 52.6845C66.1089 52.4657 66.1089 52.2097 66.1089 51.9909V50.9666H63.705V50.6011H66.96V53.9262H66.34L66.185 53.1233C66.1089 53.7808 65.1762 54.0729 63.7812 54.0729ZM82.5389 47.02V47.6055L80.755 51.7348H82.5389V52.099H80.6L79.825 54.0369H78.8189L81.9189 47.0574L82.5389 47.02Z" fill="#FFC20E"/>
<path d="M80.91 23.8902C81.7561 23.3115 82.4589 22.6856 83.0039 22.0256C83.545 21.2227 83.855 20.3824 83.7761 19.5408C83.8497 18.2325 83.2363 16.9369 81.995 15.7783C80.7349 14.6719 78.9213 13.7411 76.725 13.0735C74.2118 12.2863 71.4284 11.7292 68.51 11.429C64.9675 11.0625 61.3565 10.8792 57.7361 10.8821H13.33L0 19.0287H58.6689C60.0639 19.0287 61.38 19.1754 62.62 19.4675C63.86 19.7596 64.4011 20.2704 64.4011 21.0386C64.4011 21.8429 63.7811 22.4257 62.6961 22.6832C61.4561 22.9753 60.0639 23.122 58.745 23.122H0V42.1226H46.5C45.3361 42.6708 44.02 43.3283 42.5489 44.0232C37.1239 46.58 29.8361 49.833 24.18 51.3669C23.6361 51.4776 23.1739 51.6229 22.7061 51.6963C21.6239 51.915 20.925 51.915 20.46 51.7323C18.0589 50.7453 28.055 44.6434 28.055 44.6434C20.77 48.4073 12.7889 54.5105 16.12 55.8256C16.74 56.0817 17.825 56.0443 19.375 55.7896C21.113 55.4323 22.7745 54.9913 24.335 54.4732C25.11 54.2184 25.885 53.9623 26.7389 53.6702C31 52.1711 36.425 50.0518 42.625 47.3843C46.5867 45.6757 50.4877 43.9336 54.3261 42.1586C62.6319 38.271 70.6211 34.2239 78.275 30.0268C79.4389 29.4066 80.5239 28.7851 81.6061 28.1275C81.2961 27.9808 80.9861 27.7981 80.6 27.6887C79.4224 27.1662 78.0891 26.7349 76.6461 26.4097C76.0261 26.263 75.33 26.1536 74.71 26.0442C75.8711 25.8255 77.035 25.5694 78.0411 25.2413C79.1056 24.8492 80.069 24.3964 80.91 23.8902ZM63.085 33.4999C62.155 33.8653 60.5289 34.0854 58.28 34.0854H20.615V29.7734H58.28C60.5261 29.7734 62.155 29.9561 63.085 30.3202C64.945 31.1258 65.1 32.4769 63.395 33.3545C63.3162 33.3905 63.24 33.4626 63.085 33.4999Z" fill="white"/>
</svg>
