<svg fill="none" viewBox="0 0 150 56" id="providers--bgaming" xmlns="http://www.w3.org/2000/svg"><path d="M47.238 17h-.93v21.806h.93V17zM65.384 17H64.36v21.806h1.024V17zM136.976 38.837H138V17h-1.024v21.837zM119.823 17h-1.024v21.806h1.024V17zM83.53 17h-.992v21.806h.992V17zM101.676 17h-1.023v21.806h1.023V17z" fill="#FFCC29"></path><path d="M54.868 20.66l-4.497 14.517h2.078l1.055-3.66h4.653l1.054 3.66h2.047L56.823 20.66h-1.955zm-.93 9.275l1.83-6.328h.062l1.8 6.328h-3.692zM38.025 29.346v-1.551h4.498v5.273a4.63 4.63 0 01-1.613 1.582c-.869.527-1.861.713-2.854.713-1.365 0-2.73-.434-3.691-1.395-.93-.9-1.396-2.265-1.396-3.971v-4.25c0-1.675.465-2.977 1.334-3.877.9-.962 2.171-1.427 3.505-1.427 1.272 0 2.481.28 3.412 1.148.869.806 1.272 1.954 1.303 3.133v.062h-1.954c.03-.745-.217-1.52-.714-2.079-.496-.527-1.24-.713-2.016-.713-.806 0-1.582.341-2.078.993-.528.651-.745 1.55-.745 2.791v4.343c0 1.24.28 2.171.838 2.823.558.651 1.365.992 2.233.992.558 0 1.148-.093 1.613-.372.372-.217.62-.558.807-.93v-3.288h-2.482zM77.047 20.66h2.668v14.517h-2.047v-5.583l.186-5.584h-.062l-3.164 11.167h-1.365L70.099 24.01h-.031l.155 5.584v5.583h-2.016V20.66h2.605l3.133 11.477 3.102-11.477zM113.03 20.66h2.016v14.517h-2.016l-5.491-10.794h-.093v10.794h-2.016V20.66h2.016l5.49 10.795.094-.031V20.66zM88.648 20.66h6.856v1.582h-2.42v11.322h2.42v1.613h-6.856v-1.644h2.42V22.211h-2.42v-1.55z" fill="#fff"></path><path d="M12.93 38.837h15.262c.527 0 .93-.403.93-.93V17.93a.914.914 0 00-.93-.931H12.931a.914.914 0 00-.931.93v19.946c0 .527.434.962.93.962z" fill="#FFCC29"></path><path d="M25.152 28.818c-.372-.62-.992-1.023-1.706-1.178.59-.249 1.086-.652 1.396-1.21.31-.558.465-1.21.465-1.83 0-1.179-.372-2.265-1.271-2.947-.9-.682-1.955-.993-3.196-.993H16.22v14.548h5.21c1.118 0 2.234-.372 3.072-1.116.806-.683 1.21-1.768 1.21-3.164 0-.838-.187-1.49-.559-2.11zm-6.235-5.893h1.427c.62 0 1.055.124 1.427.496.372.372.496.93.465 1.458 0 .496-.093 1.023-.465 1.396-.341.341-.744.527-1.303.527h-1.582v-3.877h.031zm3.288 9.523c-.34.372-.9.465-1.395.465h-1.862v-4.157h2.079c.527 0 1.023.155 1.302.559.31.465.373 1.023.373 1.582-.031.558-.124 1.147-.497 1.55z" fill="#000"></path><path d="M128.694 29.346v-1.551h4.498v5.273a4.632 4.632 0 01-1.613 1.582c-.869.527-1.861.713-2.854.713-1.365 0-2.729-.434-3.691-1.395-.931-.9-1.396-2.265-1.396-3.971v-4.28c0-1.676.465-2.978 1.334-3.878.899-.962 2.171-1.427 3.505-1.427 1.272 0 2.482.28 3.412 1.148.869.806 1.272 1.954 1.303 3.133v.062h-1.954c.031-.745-.217-1.52-.714-2.078-.496-.528-1.24-.714-2.016-.714-.806 0-1.582.341-2.078.993-.528.651-.745 1.55-.745 2.791v4.343c0 1.24.28 2.171.838 2.823.558.651 1.365.993 2.233.993.559 0 1.148-.094 1.613-.373.372-.217.621-.558.807-.93v-3.257h-2.482z" fill="#fff"></path></svg>