<svg width="155" height="56" viewBox="0 0 155 56" fill="none" xmlns="http://www.w3.org/2000/svg">
<path d="M43.3484 0.00317383H42.2043V55.9207H43.3484V0.00317383ZM65.6708 0.00317383H64.4111V55.9207H65.6708V0.00317383ZM153.74 56.0002H155V0.00317383H153.74V56.0002ZM132.639 0.00317383H131.38V55.9207H132.639V0.00317383ZM87.9933 0.00317383H86.7729V55.9207H87.9933V0.00317383ZM110.316 0.00317383H109.057V55.9207H110.316V0.00317383Z" fill="#FFCC29"/>
<path d="M52.7345 9.38824L47.2025 46.6144H49.7588L51.0566 37.229H56.7805L58.0771 46.6144H60.5952L55.1395 9.38824H52.7345ZM51.5905 33.1723L53.8416 16.9453H53.9179L56.1322 33.1723H51.5905ZM32.015 31.6619V27.6847H37.5482V41.2063C37.0576 42.8794 36.3759 44.2731 35.564 45.2631C34.495 46.6145 33.2746 47.0914 32.0531 47.0914C30.3739 47.0914 28.6948 45.9785 27.5126 43.5142C26.3685 41.2063 25.7953 37.706 25.7953 33.3313V22.4329C25.7953 18.1377 26.3673 14.799 27.4363 12.4911C28.5435 10.0242 30.107 8.83179 31.748 8.83179C33.3128 8.83179 34.8 9.54979 35.9453 11.7756C37.0143 13.8425 37.5101 16.7863 37.5482 19.8096V19.9686H35.1445C35.1814 18.0582 34.8775 16.0709 34.2661 14.6374C33.656 13.286 32.7408 12.809 31.7862 12.809C30.7946 12.809 29.84 13.6835 29.2299 15.3554C28.5804 17.0248 28.3134 19.3301 28.3134 22.5124V33.6493C28.3134 36.829 28.6579 39.2164 29.3443 40.8883C30.0307 42.5577 31.0235 43.4321 32.0912 43.4321C32.7777 43.4321 33.5035 43.1936 34.0755 42.4782C34.5331 41.9217 34.8382 41.0473 35.0682 40.0934V31.6619H32.015ZM80.0182 9.38824H83.3002V46.6144H80.7821V32.2979L81.0109 17.9787H80.9346L77.0424 46.6144H75.3632L71.471 17.9787H71.4329L71.6236 32.2979V46.6144H69.1436V9.38824H72.3481L76.2022 38.8189L80.0182 9.38824ZM124.283 9.38824H126.763V46.6144H124.283L117.528 18.9352H117.414V46.6144H114.934V9.38824H117.414L124.167 37.0701L124.283 36.9906V9.38824ZM94.2892 9.38824H102.723V13.445H99.7462V42.4782H102.723V46.6144H94.2892V42.3987H97.2662V13.3655H94.2892V9.38824Z" fill="white"/>
<path d="M1.14422 56H19.9189C20.5672 56 21.0629 54.9666 21.0629 53.6152V2.38779C21.0658 2.07287 21.0381 1.75999 20.9816 1.46783C20.9252 1.17568 20.841 0.910257 20.7342 0.687414C20.6274 0.464571 20.5002 0.288884 20.3601 0.170846C20.22 0.0528078 20.07 -0.00515693 19.9189 0.000412323H1.14545C0.994377 -0.00549538 0.84428 0.0521338 0.704129 0.169858C0.563978 0.287582 0.436648 0.462986 0.329746 0.68559C0.222844 0.908193 0.138562 1.17343 0.0819363 1.46545C0.025311 1.75748 -0.0024959 2.0703 0.000175786 2.38523V53.5331C0.000175786 54.8845 0.534064 56 1.14422 56Z" fill="#FFCC29"/>
<path d="M16.1792 30.3081C15.7216 28.7183 14.9589 27.6848 14.0805 27.2874C14.8063 26.6489 15.4165 25.6154 15.7978 24.1845C16.1792 22.7537 16.3698 21.0817 16.3698 19.4918C16.3698 16.4685 15.9122 13.6837 14.8063 11.9348C13.6992 10.1859 12.4014 9.38843 10.8747 9.38843H5.19141V46.6941H11.6005C12.9758 46.6941 14.3487 45.7402 15.3796 43.8324C16.3711 42.0809 16.8681 39.2986 16.8681 35.7188C16.8681 33.5699 16.6368 31.898 16.1792 30.3081ZM8.50914 15.1966H10.2646C11.0273 15.1966 11.5624 15.5146 12.02 16.4685C12.4776 17.4224 12.6302 18.8533 12.592 20.2073C12.592 21.4792 12.4776 22.8306 12.02 23.7871C11.6005 24.6615 11.1048 25.1385 10.4171 25.1385H8.47101V15.1966H8.50914ZM12.5539 39.6166C12.1356 40.5705 11.4468 40.809 10.8378 40.809H8.54728V30.1492H11.1048C11.7531 30.1492 12.3632 30.5466 12.7064 31.5826C13.0878 32.775 13.1653 34.2059 13.1653 35.6394C13.1272 37.0702 13.0127 38.5806 12.5539 39.614V39.6166Z" fill="black"/>
<path d="M143.552 31.6618V27.6846H149.085V41.2062C148.595 42.8791 147.913 44.2728 147.101 45.263C146.032 46.6144 144.812 47.0913 143.59 47.0913C141.911 47.0913 140.233 45.9784 139.05 43.5141C137.905 41.2062 137.333 37.7059 137.333 33.3312V22.3559C137.333 18.0581 137.905 14.7194 138.974 12.4115C140.079 9.94461 141.644 8.7522 143.285 8.7522C144.85 8.7522 146.339 9.4702 147.483 11.696C148.552 13.7629 149.047 16.7067 149.085 19.73V19.889H146.682C146.72 17.9786 146.415 15.9913 145.803 14.5604C145.193 13.2064 144.278 12.7295 143.323 12.7295C142.332 12.7295 141.377 13.6039 140.767 15.2758C140.118 16.9452 139.851 19.2505 139.851 22.4328V33.5697C139.851 36.7494 140.195 39.1368 140.882 40.8087C141.568 42.4781 142.561 43.3551 143.628 43.3551C144.316 43.3551 145.041 43.1141 145.613 42.3986C146.07 41.8422 146.377 40.9677 146.605 40.0138V31.6618H143.552Z" fill="white"/>
</svg>
