<svg width="155" height="56" viewBox="0 0 155 56" fill="none" xmlns="http://www.w3.org/2000/svg">
<mask id="mask0_3_922" style="mask-type:luminance" maskUnits="userSpaceOnUse" x="0" y="0" width="155" height="56">
<path d="M0 0H155V56H0V0Z" fill="white"/>
</mask>
<g mask="url(#mask0_3_922)">
<path d="M35.805 42.8627H43.865V53.3049C42.7454 54.208 41.4861 54.8923 40.145 55.3262C38.8283 55.7462 37.4333 55.9159 36.0383 55.9159C34.2963 55.9233 32.5662 55.6095 30.9233 54.9884C29.3733 54.3164 28.055 53.4729 26.97 52.3792C25.885 51.2837 25.0333 49.9362 24.4133 48.3367C23.7933 46.8212 23.4833 45.1359 23.4833 43.2844C23.4833 41.4312 23.7933 39.7477 24.335 38.2304C24.8783 36.7149 25.73 35.3674 26.7383 34.1879C27.745 33.0102 29.0633 32.1684 30.535 31.5787C32.1242 30.9575 33.8035 30.6434 35.495 30.6512C36.425 30.6512 37.355 30.7369 38.13 30.9049C38.9833 31.0729 39.7583 31.3249 40.455 31.5787C41.1533 31.9147 41.7733 32.2524 42.3933 32.5884C43.0133 33.0102 43.4783 33.4319 43.9433 33.9359L42.3933 36.4629C42.16 36.8829 41.85 37.1367 41.4633 37.2207C41.075 37.3047 40.6883 37.2207 40.2233 36.8847C39.835 36.6309 39.37 36.3772 39.06 36.2109L37.8983 35.7034C37.5048 35.5313 37.0832 35.4457 36.6583 35.4514C36.425 35.4514 35.96 35.3674 35.4183 35.3674C34.41 35.3674 33.5583 35.5372 32.7833 35.9572C32.0083 36.2949 31.31 36.8847 30.7683 37.5584C30.1775 38.2984 29.7294 39.1567 29.45 40.0837C29.1325 41.116 28.9754 42.1974 28.985 43.2844C28.985 44.6319 29.14 45.7257 29.5283 46.8194C29.8383 47.8309 30.3033 48.6744 30.9233 49.4304C31.5433 50.1059 32.24 50.6939 33.0933 51.0317C33.945 51.3677 34.875 51.6214 35.8833 51.6214C36.5033 51.6214 37.1233 51.5374 37.5883 51.4517C38.0533 51.3677 38.595 51.1157 39.06 50.8619V47.0749H36.8133C36.5033 47.0749 36.1933 46.9909 36.0383 46.8229C35.9425 46.7248 35.8657 46.6074 35.8125 46.4773C35.7593 46.3473 35.7307 46.2072 35.7283 46.0652L35.805 42.8627ZM67.5033 55.6622H63.395C62.93 55.6622 62.5433 55.5782 62.31 55.3262C62 55.0742 61.845 54.8204 61.69 54.3987L60.3733 50.1059H51.6933L50.375 54.4844C50.2983 54.8204 50.065 55.0742 49.755 55.3244C49.445 55.5782 49.0583 55.7479 48.67 55.7479H44.5633L53.3983 30.9889H58.8233L67.5033 55.6622ZM59.1333 46.2297L57.04 39.4939C56.885 39.0739 56.73 38.5682 56.4983 37.9784C56.3433 37.3887 56.11 36.8007 55.955 36.1269C55.8 36.8007 55.645 37.4744 55.4133 38.0624C55.2583 38.6522 55.1033 39.1579 54.87 39.5779L52.7783 46.3154L59.1333 46.2297ZM94.9383 30.9889V55.7479H90.2883V41.4329V40.3357C90.2883 39.9157 90.365 39.5779 90.365 39.1579L84.32 51.8734C84.165 52.2934 83.855 52.5472 83.545 52.8009C83.235 52.9689 82.8483 53.1369 82.46 53.1369H81.7633C81.375 53.1369 80.9883 53.0529 80.6783 52.7992C80.3683 52.6312 80.135 52.2952 79.9033 51.8734L73.8583 39.1579C73.8583 39.5779 73.935 39.9997 73.935 40.3374V55.6622H69.285V30.9889H73.935C73.935 30.9889 74.245 31.0729 74.4 31.0729C74.555 31.1569 74.6333 31.2409 74.7883 31.3267C74.865 31.4107 75.02 31.5787 75.0983 31.8307L80.9883 44.3782C81.22 44.7982 81.375 45.2199 81.6083 45.7257C81.84 46.1457 81.995 46.6532 82.15 47.1572C82.305 46.6514 82.5383 46.1474 82.6933 45.7257C82.925 45.2217 83.08 44.7982 83.3133 44.3782L89.125 31.9147C89.2033 31.6627 89.3583 31.4947 89.435 31.4107C89.5133 31.3267 89.6683 31.1569 89.8233 31.1569C89.9783 31.0729 90.1333 31.0729 90.2883 31.0729H90.9083L94.9383 30.9889ZM104.625 35.3674V41.1774H111.755V45.3897H104.625V51.2837H114.003V55.6622H99.355V30.9889H114.003V35.3674H104.625ZM129.813 35.9572C129.658 36.2109 129.503 36.4629 129.348 36.5469C129.193 36.7149 128.96 36.7149 128.65 36.7149C128.418 36.7149 128.185 36.6309 127.875 36.4629C127.565 36.2949 127.255 36.1269 126.945 35.8732C126.635 35.7052 126.17 35.4532 125.783 35.2834C125.284 35.1049 124.76 35.0197 124.233 35.0314C123.225 35.0314 122.528 35.2834 121.985 35.7052C121.443 36.1252 121.288 36.8007 121.288 37.5584C121.288 38.0624 121.443 38.4842 121.753 38.8202C122.063 39.1579 122.45 39.4099 122.915 39.6619C123.38 39.9157 123.923 40.0837 124.543 40.3374C125.163 40.5054 125.783 40.7574 126.403 41.0112C127.023 41.2632 127.643 41.5152 128.263 41.8512C128.883 42.1889 129.425 42.6107 129.89 43.1164C130.355 43.6204 130.743 44.2102 131.053 44.9679C131.363 45.7257 131.518 46.5674 131.518 47.5789C131.518 48.7567 131.363 49.7682 130.975 50.7779C130.598 51.7353 130.074 52.618 129.425 53.3889C128.805 54.1467 127.875 54.7364 126.868 55.1564C125.86 55.5782 124.698 55.8319 123.38 55.8319C122.683 55.8319 121.908 55.7462 121.21 55.5782C120.513 55.4102 119.738 55.1582 119.04 54.9044C118.343 54.6524 117.723 54.2307 117.103 53.8947C116.483 53.4747 115.94 53.0529 115.553 52.5472L117.103 49.8522L117.568 49.3464C117.8 49.2624 117.955 49.1784 118.265 49.1784C118.575 49.1784 118.885 49.2624 119.195 49.5161C119.505 49.7681 119.893 49.9362 120.28 50.1899C120.668 50.4419 121.133 50.6939 121.675 50.8637C122.218 51.1157 122.838 51.1997 123.535 51.1997C124.465 51.1997 125.24 50.9477 125.783 50.5259C126.325 50.1059 126.558 49.3464 126.558 48.3367C126.558 47.7469 126.403 47.3252 126.093 46.9052C125.755 46.5309 125.362 46.2177 124.93 45.9777C124.465 45.7257 123.923 45.5577 123.303 45.3897C122.683 45.2217 122.063 44.9697 121.443 44.7999C120.823 44.5462 120.203 44.2942 119.583 43.9582C118.98 43.6347 118.43 43.208 117.955 42.6947C117.49 42.1889 117.103 41.5152 116.793 40.7574C116.483 39.9997 116.328 38.9899 116.328 37.8104C116.328 36.8829 116.483 35.9572 116.87 35.1154C117.18 34.1879 117.723 33.4319 118.42 32.7582C119.118 32.0844 119.893 31.4947 120.9 31.0729C121.83 30.6529 122.993 30.4832 124.233 30.4832C124.93 30.4832 125.628 30.5689 126.248 30.6529C126.945 30.7369 127.565 30.9889 128.108 31.1569C128.728 31.4107 129.27 31.6644 129.735 32.0004C130.278 32.3364 130.743 32.6742 131.13 33.0942L129.813 35.9572Z" fill="white"/>
<path d="M8.37 0.251665C9.92 0.251665 11.315 0.421415 12.4 0.759165C13.485 1.09517 14.415 1.51517 15.1133 2.10492C15.81 2.69467 16.275 3.36842 16.585 4.21017C16.895 5.05192 17.05 5.97767 17.05 6.98917C17.05 7.57892 16.9733 8.08292 16.8167 8.58867C16.6632 9.10535 16.4275 9.58966 16.12 10.0202C15.7642 10.5018 15.3467 10.9272 14.88 11.2837C14.415 11.6214 13.795 11.9574 13.0983 12.2952C14.57 12.7152 15.7317 13.3049 16.43 14.2307C17.1283 15.1582 17.515 16.2519 17.515 17.6834C17.515 18.6949 17.36 19.7047 16.9733 20.6304C16.5934 21.5322 16.0382 22.3364 15.345 22.9894C14.725 23.5792 13.795 24.0832 12.71 24.4209C11.5287 24.8063 10.3014 25.0049 9.06668 25.0107H0V0.251665H8.37ZM5.27 4.54616V10.6939H8.06C8.68 10.6939 9.145 10.6099 9.61 10.5259C10.075 10.4419 10.4633 10.2739 10.7717 10.0202C11.0817 9.76816 11.315 9.51617 11.5483 9.09442C11.78 8.67442 11.78 8.16691 11.78 7.57891C11.78 6.98916 11.7033 6.48341 11.5483 6.14741C11.3917 5.72741 11.2383 5.47366 10.9283 5.21991C10.6133 4.95312 10.2387 4.77936 9.84169 4.71591C9.33087 4.6092 8.81207 4.55239 8.29169 4.54616H5.27ZM8.99 20.7162C9.68831 20.7162 10.23 20.6304 10.695 20.4624C11.16 20.2944 11.47 20.0424 11.7017 19.7047C11.935 19.3687 12.09 19.0309 12.245 18.6949C12.4 18.3572 12.4 17.9372 12.4 17.5154C12.4 17.0954 12.3233 16.6737 12.245 16.2519C12.1683 15.9159 11.935 15.5782 11.7017 15.3244C11.47 15.0724 11.0817 14.9044 10.6183 14.7364C10.1517 14.5684 9.61 14.5684 8.99 14.5684H5.27V20.7162H8.99ZM97.4167 0.251665V25.0107H92.7667V10.7779V9.68417C92.7667 9.26417 92.845 8.92642 92.845 8.50467L86.8 21.2202C86.645 21.6402 86.335 21.8939 86.025 22.1477C85.715 22.3157 85.3283 22.4837 84.94 22.4837H84.2417C83.855 22.4837 83.4667 22.3997 83.1567 22.1477C82.8467 21.9779 82.615 21.6402 82.3833 21.2202L76.3367 8.50467C76.3367 8.92467 76.415 9.34642 76.415 9.68417V25.0107H71.765V0.251665H76.415C76.415 0.251665 76.725 0.337415 76.88 0.337415C77.035 0.421415 77.1117 0.505415 77.2667 0.589415C77.345 0.673415 77.5 0.841416 77.5767 1.09517L83.4667 13.6427C83.7 14.0627 83.855 14.4827 84.0867 14.9902C84.32 15.4102 84.475 15.9159 84.63 16.4217C84.785 15.9142 85.0167 15.4102 85.1717 14.9884C85.405 14.4844 85.56 14.0627 85.7917 13.6409L91.605 1.17916C91.6696 0.986684 91.7759 0.813368 91.915 0.673416C91.9917 0.589416 92.1483 0.421416 92.3033 0.421416C92.4583 0.337416 92.6133 0.337415 92.7683 0.337415H93.3883L97.4167 0.251665ZM107.105 25.0107H101.758V0.251665H107.105V25.0107ZM131.44 0.251665V25.0107H128.65C128.263 25.0107 127.875 24.9267 127.643 24.7569C127.333 24.5889 127.1 24.3369 126.79 23.9992L116.095 9.26417C116.172 9.68417 116.172 10.1042 116.172 10.5259V24.9267H111.522V0.251665H114.855C115.01 0.251665 115.165 0.337415 115.242 0.337415C115.398 0.421415 115.475 0.505415 115.63 0.589415L116.017 1.00941L126.868 15.8319C126.79 15.3244 126.79 14.9044 126.79 14.4844V0.253416H131.44V0.251665ZM146.785 12.2094H154.845V22.6517C153.726 23.5551 152.466 24.2394 151.125 24.6729C149.808 25.0929 148.413 25.2627 147.018 25.2627C145.276 25.2699 143.546 24.9562 141.903 24.3352C140.353 23.6632 139.035 22.8214 137.95 21.7259C136.865 20.6322 136.013 19.2847 135.393 17.6834C134.773 16.1679 134.463 14.4844 134.463 12.6312C134.463 10.7779 134.773 9.09441 135.315 7.57891C135.858 6.06341 136.71 4.71592 137.718 3.53642C138.725 2.35692 140.043 1.51517 141.515 0.925416C143.104 0.30498 144.784 -0.00845004 146.475 -0.000334635C147.405 -0.000334635 148.335 0.0836655 149.11 0.251665C149.963 0.421415 150.738 0.673416 151.435 0.925416C152.133 1.26317 152.753 1.59917 153.373 1.93692C153.993 2.35692 154.458 2.77867 154.923 3.28442L153.373 5.80966C153.14 6.22966 152.83 6.48342 152.443 6.56742C152.055 6.65317 151.668 6.56742 151.203 6.23142C150.815 5.97767 150.35 5.72566 150.04 5.55766C149.73 5.38966 149.265 5.21992 148.878 5.05192C148.49 4.96792 148.103 4.79992 147.638 4.79992C147.25 4.71592 146.708 4.71591 146.165 4.71591C145.158 4.71591 144.305 4.88391 143.53 5.30566C142.755 5.64166 142.058 6.23142 141.515 6.90517C140.925 7.64598 140.477 8.50484 140.198 9.43216C139.881 10.464 139.724 11.5447 139.733 12.6312C139.733 13.9787 139.888 15.0724 140.275 16.1679C140.585 17.1794 141.05 18.0212 141.67 18.7789C142.29 19.4527 142.988 20.0424 143.84 20.3784C144.693 20.7162 145.623 20.9682 146.63 20.9682C147.25 20.9682 147.87 20.8842 148.335 20.8002C148.878 20.6322 149.343 20.4624 149.808 20.2104V16.4217H147.56C147.25 16.4217 146.94 16.3359 146.785 16.1679C146.689 16.0699 146.612 15.9525 146.559 15.8224C146.506 15.6923 146.477 15.5522 146.475 15.4102L146.785 12.2094ZM64.0917 13.8947C63.8001 15.7154 62.9159 17.3661 61.5964 18.5534C60.2768 19.7406 58.6073 20.3873 56.885 20.3784H56.73C56.1867 20.3784 55.645 20.3784 54.25 19.7047C52.855 19.0309 52.6217 18.6949 51.615 17.8514C51.0733 17.3474 50.22 16.4217 49.3683 15.6639C48.5917 16.5897 46.7317 18.7789 46.5783 18.9469C47.275 19.7887 48.98 21.3899 49.6783 21.9779L49.6 21.8939C51.15 23.2414 52.9333 24.2529 55.025 24.5889C55.645 24.6729 56.1867 24.7569 56.73 24.7569C57.2717 24.7569 57.7367 24.7569 58.28 24.6729C62.775 24.0832 66.5717 20.5464 67.8133 15.7479L64.0933 13.8929L64.0917 13.8947Z" fill="#EC1C24"/>
<path d="M51.3817 7.15744C52.0565 6.2941 52.8981 5.5984 53.8484 5.11855C54.7986 4.6387 55.8348 4.38616 56.8851 4.37844C58.5901 4.37844 60.2167 5.05219 61.5351 6.14594L59.7517 7.57919L67.8117 11.6217L66.9601 2.02119L64.8668 3.62069C62.7751 1.34569 59.9067 -0.00181129 56.8851 -0.00181129C53.3968 -0.00181129 50.2201 1.76744 48.1284 4.46244C48.0501 4.63044 41.7734 13.0514 39.1384 15.7464C38.9817 15.9144 38.8284 16.0002 38.6734 16.1664L38.5951 16.2522C38.4401 16.4202 38.2067 16.5882 38.0517 16.7579L37.9751 16.8419C37.8201 17.0099 37.6651 17.1779 37.4334 17.2619C37.3551 17.2619 37.3551 17.3477 37.2767 17.3477C37.2001 17.4317 37.0451 17.5157 36.9668 17.5997C36.8901 17.5997 36.8901 17.6837 36.8134 17.6837C36.7351 17.6837 36.7351 17.7677 36.6567 17.7677C36.5034 17.8517 36.3467 18.0197 36.1917 18.1054C36.1151 18.1054 36.1151 18.1894 36.0368 18.1894L35.6501 18.5254L35.5734 18.6094C35.4184 18.6934 35.3401 18.7774 35.1851 18.8632C35.1084 18.8632 35.1084 18.9472 35.0301 18.9472C34.945 19.0356 34.8369 19.0942 34.7201 19.1152C33.9451 19.5352 33.3251 19.8729 32.7817 20.0427C32.2401 20.2107 31.8517 20.2947 31.0001 20.2947C26.9701 20.0409 23.7151 16.2522 24.0251 11.7039C24.2567 7.83119 27.2017 4.63044 30.8451 4.37844C33.1701 4.21044 35.1851 5.30594 36.6584 6.90544C36.8901 7.15744 38.9818 9.60044 39.3701 10.1884C40.1451 9.26094 42.0051 6.90544 42.0817 6.81969C41.6951 6.31569 40.1451 4.54644 40.0667 4.37844C37.8967 1.68344 34.7201 -0.0840606 31.1551 -6.05857e-05C25.4201 0.167939 20.4601 5.30419 20.1501 11.7879C19.8401 18.6094 24.6451 24.3354 30.7684 24.8429C31.0001 24.8429 31.9301 24.9252 32.4734 24.8429C33.0151 24.7572 33.4801 24.6732 33.8684 24.5892C34.4884 24.4212 35.1851 24.0834 35.1851 24.0834C35.1851 24.0834 35.2617 24.0834 35.2617 23.9994C35.4184 23.9154 35.4951 23.9154 35.6501 23.8314C35.7267 23.8314 35.8051 23.7474 35.8051 23.7474L36.2701 23.4937C36.3484 23.4937 36.3484 23.4097 36.4251 23.4097C36.8118 23.1577 37.2767 22.9039 37.6651 22.6519C37.7417 22.6519 37.8201 22.5679 37.8201 22.5679C37.9751 22.4839 38.1301 22.3159 38.2851 22.2302C38.3617 22.1462 38.4401 22.1462 38.5167 22.0622C38.6734 21.9782 38.8267 21.8102 39.0601 21.6422C39.1367 21.5564 39.2151 21.5564 39.2934 21.4724C39.4484 21.3044 39.6034 21.2204 39.8351 21.0524C39.9118 21.0524 39.9117 20.9684 39.9901 20.9684L40.0667 20.8827C40.3001 20.6307 40.6101 20.4627 40.8418 20.2107C40.9201 20.1249 40.9984 20.1249 40.9984 20.0409C41.2301 19.8729 41.3851 19.7049 41.6184 19.4512L41.8501 19.1992L41.9267 19.1152C42.0817 18.9472 42.2367 18.7792 42.3917 18.6952C42.4701 18.6094 44.7951 16.1682 46.3451 14.1452C47.9734 11.7897 49.6001 9.34669 51.3817 7.15744Z" fill="#EC1C24"/>
</g>
</svg>
