<svg width="155" height="56" viewBox="0 0 155 56" fill="none" xmlns="http://www.w3.org/2000/svg">
<mask id="mask0_3_902" style="mask-type:luminance" maskUnits="userSpaceOnUse" x="0" y="0" width="155" height="56">
<path d="M0 0H155V56H0V0Z" fill="white"/>
</mask>
<g mask="url(#mask0_3_902)">
<path d="M26.7744 1.57227C12.7762 1.57227 1.47779 13.0744 1.55003 27.1716C1.55003 41.2704 12.85 52.6958 26.7744 52.6958C40.6973 52.6958 51.925 41.2689 51.925 27.0979C51.925 13.0744 40.6251 1.57227 26.7744 1.57227ZM70.9133 12.5055C72.85 11.1674 73.78 9.67458 73.005 7.54953C72.23 5.19163 70.2933 4.48279 68.2 4.247C65.7983 4.08932 63.4733 4.247 60.9918 4.247V23.2015C63.55 23.2015 66.185 23.3592 68.6665 23.2015C71.3783 23.0438 73.625 21.7868 74.3233 18.8763C75.02 15.9657 73.8568 13.6845 70.9133 12.5055ZM64.635 6.92027C66.2633 6.92027 68.045 6.44869 69.3633 7.943C69.905 8.57227 69.905 9.595 69.3633 10.3024C68.2 11.8763 66.4183 11.4828 64.635 11.4828V6.92027ZM70.4483 18.8763C69.0533 20.9203 66.8818 20.291 64.7133 20.3706V14.0779C66.65 14.1575 68.7433 13.5283 70.3715 15.2569C71.2233 16.2811 71.0698 17.8535 70.4483 18.8763Z" fill="#F23731"/>
<path d="M93.3101 21.0781C91.7601 20.135 89.9001 20.2131 88.1183 20.5284C87.3433 20.6065 86.5683 21.0781 85.7933 20.2131C86.1801 19.4261 86.8016 19.348 87.4201 19.348C93.0001 19.4261 95.0933 16.5952 93.3101 11.2472C93.7766 10.8537 94.1633 10.6179 94.7051 10.1463C93.9301 9.51706 93.2333 8.80822 92.3801 8.17896C91.8383 8.65053 91.3718 9.12211 90.9851 9.51706C87.1101 8.33664 83.7016 9.12359 82.3833 11.7968C81.0651 14.4716 81.8416 16.6747 84.1651 18.483C83.0816 19.2699 82.0733 19.9773 82.5383 21.5497C83.0033 22.9659 84.1651 23.1236 85.3283 23.1236C86.6451 23.1236 87.8866 22.9659 89.2033 22.9659C90.1333 22.9659 91.1401 22.9659 91.4501 24.1449C90.4418 26.1903 87.6533 26.2699 83.9333 24.3025C83.3133 25.0895 82.6151 25.7968 81.8416 26.7415C85.5601 28.8636 89.2033 29.3366 92.8451 27.2912C95.4033 25.9545 95.4801 22.4943 93.3116 21.0781H93.3101ZM85.3283 14.1562C85.4051 12.5057 86.4901 11.7187 88.0401 11.7983C89.5901 11.7983 90.4433 12.8196 90.4433 14.2358C90.3651 16.1221 89.5133 17.0667 87.9633 17.0667C86.2583 16.9091 85.3283 15.8863 85.3283 14.1562ZM80.3683 9.43895V23.1236H77.0336V12.1137C76.4136 12.0356 75.8718 12.0356 75.1736 11.9575V9.44043H80.3653L80.3683 9.43895Z" fill="white"/>
<path d="M75.2532 4.32544H80.3682V7.23597H75.2517V4.32544H75.2532Z" fill="#F23731"/>
<path d="M113.072 42.6293V50.3367H109.662V42.0782C109.662 40.27 109.197 39.0115 107.103 39.0115C105.167 39.0896 104.547 40.1123 104.625 42.0782C104.702 44.831 104.625 47.5058 104.625 50.3367H101.215V41.5285C101.215 39.7188 100.362 38.9333 98.735 39.0115C97.2617 39.0896 96.0217 39.6407 96.1767 41.6066C96.255 44.5171 96.1767 47.3481 96.1767 50.3367H92.845V36.4944H95.0917C95.2467 36.8083 95.5582 37.1237 95.8667 37.5171C98.6567 35.5512 101.292 35.8651 103.927 37.5171C106.175 36.0228 108.577 35.5512 110.98 36.8879C113.072 38.1464 113.072 40.3481 113.072 42.6293ZM149.108 50.5725C148.798 48.6862 147.558 47.8197 145.853 47.5839C144.768 47.4262 143.528 47.5839 142.367 47.662C141.592 47.662 140.817 48.1336 140.042 47.3481C140.507 46.7188 141.127 46.483 141.902 46.483C147.327 46.6407 149.573 43.5725 147.713 38.5399C148.178 38.1464 148.643 37.7529 149.187 37.4376C148.333 36.8083 147.637 36.1009 146.783 35.3936C146.397 35.9432 146.008 36.4148 145.777 36.8879C141.437 35.7856 138.182 36.4944 136.942 39.2458C135.778 41.7643 136.398 44.0441 138.802 45.7742C137.483 46.5611 136.553 47.3481 137.173 48.8424C137.638 50.179 138.802 50.4148 140.042 50.4148C141.358 50.4148 142.598 50.2586 143.917 50.2586C144.847 50.2586 145.853 50.2586 146.008 51.4376C144.923 53.4035 142.677 53.483 138.492 51.5952C137.872 52.3822 137.173 53.1677 136.553 53.9546C139.808 56.2359 144.148 56.4717 147.172 54.8197C148.643 53.7969 149.418 52.4618 149.108 50.5725ZM139.808 41.3708C139.808 39.7188 140.817 38.8538 142.367 38.8538C143.917 38.8538 144.847 39.7969 144.923 41.2912C144.847 42.9432 144.072 44.1237 142.367 44.0441C140.738 44.0441 139.808 43.1009 139.808 41.3708Z" fill="white"/>
<path d="M77.5 40.1917V48.6064C73.16 51.8323 66.34 51.3593 63.1618 47.5837C59.985 43.8096 60.295 37.2031 63.7818 33.7414C67.115 30.4389 73.3918 30.1235 76.6483 32.9544C76.1818 33.821 75.7168 34.5283 75.2518 35.3934C70.37 33.4275 67.58 33.8195 65.72 36.5723C63.9368 39.3252 64.2468 43.73 66.2618 45.8536C68.1218 47.8195 71.3783 48.213 73.78 46.6405V43.0226H71.2218V40.1917H77.5Z" fill="#F23731"/>
<path d="M90.4418 42.3935C90.1318 40.2684 90.1318 37.9091 87.73 36.8878C85.0168 35.7855 82.46 35.8651 79.7468 36.9659L80.5218 39.3253C84.785 38.3025 86.8 38.8537 86.8 41.1335C83.545 41.1335 80.1335 40.8196 78.5835 44.5952C77.81 46.4034 78.12 48.3707 79.9018 49.4716C82.3818 51.044 85.0183 50.8082 87.42 49C88.7368 50.6505 89.9783 50.8863 91.6818 49.5497C89.745 47.5057 90.6735 44.831 90.4418 42.3935ZM85.4818 47.7415C84.3983 48.2131 83.08 48.2912 82.0718 47.2699C81.4518 46.6392 81.4518 45.6179 82.0718 44.9091C83.39 43.3366 85.25 43.5724 87.0318 43.8082C87.0318 45.5383 87.11 47.1122 85.4818 47.7415ZM135.005 50.3366H131.672V42.9446C131.672 41.5284 131.75 39.956 130.2 39.3267C128.572 38.6975 127.022 39.1691 125.782 40.3495V50.2585H122.45V36.4943H124.775C124.93 36.8097 125.24 37.1236 125.55 37.5952C127.332 36.1804 129.347 35.9446 131.44 36.4162C133.532 36.9659 134.927 38.3025 135.005 40.5057C135.16 43.7301 135.005 47.0326 135.005 50.3366ZM119.66 36.652V50.4162H116.327V39.2472C115.707 39.1691 115.165 39.1691 114.467 39.091V36.6505L119.66 36.652Z" fill="white"/>
<path d="M114.467 31.4619H119.66V34.2929H114.468L114.467 31.4619Z" fill="#F23731"/>
<path d="M139.5 23.1235H136.168V14.9446C136.168 13.1349 135.78 11.7201 133.688 11.8764C131.673 11.8764 130.975 12.9772 131.13 14.9446C131.208 17.6974 131.13 20.2926 131.13 23.1235H127.72V14.9446C127.72 13.7656 127.798 12.5056 126.403 11.9559C124.93 11.4048 123.69 11.9559 122.683 13.1349V23.0454H119.35V9.35783H121.598C121.753 9.6732 122.063 9.90899 122.373 10.301C125.085 8.33656 127.72 8.65046 130.51 10.3806C132.138 9.27972 133.92 8.73004 135.935 9.20162C138.183 9.6732 139.423 11.0098 139.5 13.213C139.578 16.5155 139.5 19.821 139.5 23.1235ZM151.358 9.67467C147.87 8.18035 143.685 9.3593 141.825 12.5041C140.043 15.3366 140.663 19.7414 142.833 21.7869C145.313 24.0667 150.815 24.1448 153.295 21.9431C152.83 21.1576 152.443 20.4488 151.978 19.6633C148.258 21.7854 144.46 20.6065 144.383 17.2244H154.613C155.62 13.7641 154.303 11.0113 151.358 9.67467ZM144.615 14.7073C145.003 12.821 146.01 11.8764 147.87 11.7982C149.808 11.7187 151.28 12.2698 151.745 14.7073H144.615Z" fill="white"/>
<path d="M109.973 4.32544V7.23596H105.788V23.2019H102.3V7.31554H96.0248V4.32544H109.973Z" fill="#F23731"/>
<path d="M116.483 9.35938V23.1236H113.15V12.1122C112.53 12.0341 111.988 12.0341 111.29 11.9545V9.43748H116.483V9.35938Z" fill="white"/>
<path d="M111.368 4.32544H116.483V7.23597H111.367L111.368 4.32544Z" fill="#F23731"/>
<path d="M26.815 0C11.935 0 -0.0767222 12.1918 -0.00147948 27.1349C-0.00147948 42.0781 12.0118 54.1918 26.815 54.1918C41.6168 54.1918 53.5518 42.0781 53.5518 27.0568C53.5518 12.1918 41.5385 0 26.815 0ZM26.66 53.3253C12.4 53.3253 0.851772 41.4488 0.851772 27.0568C0.930025 12.5853 12.4768 0.865052 26.815 0.865052C41.075 0.943158 52.6985 12.6634 52.6985 27.1349C52.545 41.6065 40.92 53.3253 26.66 53.3253Z" fill="white"/>
<path d="M26.8151 0.86499C12.4768 0.86499 0.851807 12.5837 0.851807 27.0553C0.851807 41.4488 12.4001 53.3252 26.6601 53.3252C40.9201 53.3252 52.5436 41.6065 52.5436 27.1349C52.6218 12.6633 41.0751 0.86499 26.8151 0.86499ZM11.7018 46.9545C16.4301 47.034 20.0718 49.1576 23.9468 51.9886C19.2201 51.3593 15.3451 49.7854 11.7018 46.9545ZM32.4718 51.517C31.8518 51.6732 31.4636 51.3593 31.0001 51.0454C27.5118 48.9218 24.0251 46.7968 20.4601 44.8309C19.0651 44.0454 17.5918 43.4943 15.8868 42.7088C23.8701 43.8081 30.9218 47.9772 39.1368 48.6846C36.8118 50.1008 34.6418 50.9658 32.4718 51.517ZM37.2768 46.1675C31.8518 45.3025 26.8151 43.2585 21.6218 41.5284C29.8383 42.3934 37.9751 44.6732 46.3451 42.078C44.2533 46.0113 42.2368 46.9545 37.2768 46.1675ZM46.5001 40.9772C40.9968 42.9431 35.4168 42.3138 29.7601 41.6065C23.3268 40.7414 16.9718 39.2471 10.4618 40.7414C9.30006 41.0553 8.06006 41.4488 6.82006 41.8423C3.02181 36.5724 1.39506 30.5951 2.32506 24.0667C3.87506 11.6406 13.8718 2.43741 25.7301 2.04394C38.1301 1.65194 48.5136 10.0667 50.9951 22.4147C52.1568 28.5496 51.1501 34.3707 48.0501 39.8764C47.5836 40.5056 47.1201 40.7414 46.5001 40.9772Z" fill="#FEFEFE"/>
<path d="M19.375 26.5057C22.94 23.831 21.08 19.1123 17.7467 18.091C15.2667 17.3026 12.555 17.3822 10.1517 18.7188C9.14349 19.2699 7.98174 19.8977 7.90499 21.1577C7.74999 25.9546 7.82674 30.831 7.82674 35.5512C10.695 37.7529 13.8717 37.9091 17.05 37.4375C20.0717 36.9659 21.7767 35.3935 22.3967 32.7188C22.9385 30.1236 22.0867 28.2358 19.375 26.5057ZM14.57 21.4716C15.81 21.4716 17.05 22.0228 16.8167 23.5171C16.275 26.2699 14.0267 24.7756 12.4767 25.4034C12.3217 23.3594 12.1682 21.5512 14.57 21.4716ZM17.2035 33.1904C15.7317 34.3693 14.1035 33.8977 12.4 33.4262V28.5512C14.3367 28.787 16.5082 27.8438 17.67 29.9659C18.29 31.0668 18.2117 32.4049 17.2035 33.1904ZM45.3382 19.8992C44.7182 20.9205 44.2532 22.0213 43.71 23.044C39.7582 20.8424 37.2782 21.0001 35.495 23.3594C33.635 25.7969 33.7132 30.3594 35.65 32.5611C37.2 34.3708 39.9132 34.7643 42.005 33.4262V29.8878H39.525V26.3481H46.035V35.6293C42.935 38.7756 35.805 38.7756 32.6267 35.4716C28.9082 31.6179 28.985 24.1449 32.86 20.3708C36.1932 16.9887 42.47 16.7529 45.3382 19.8992Z" fill="#FEFEFE"/>
<path d="M30.6132 21.8649H28.4417V37.595H24.3335V21.8649H21.9317C21.2335 20.2144 20.3817 18.7982 18.5985 17.8535H34.9517C33.2467 18.8763 31.775 20.1348 30.6132 21.8649ZM33.0917 7.47144C31.62 8.57376 30.4582 9.43881 29.14 10.3039C29.6065 11.7982 29.9932 13.2129 30.535 14.943C29.14 13.9218 27.9015 13.0567 26.5832 12.1135C25.42 12.9771 24.1032 13.8422 22.63 14.8649C23.1717 13.1348 23.56 11.7186 24.025 10.3039C22.8632 9.43734 21.6232 8.49418 20.15 7.47144H24.8782C25.42 5.89902 25.8865 4.48281 26.4282 2.83081C26.97 4.48281 27.4365 5.89902 27.9782 7.39334C29.76 7.47144 31.2317 7.47144 33.0917 7.47144ZM14.4917 14.7868C14.57 14.0794 14.57 13.4487 14.6482 12.6632C14.1065 12.3479 13.5632 11.9559 12.71 11.5609C13.5632 11.4047 14.26 11.3251 14.9582 11.1674C15.1132 10.4601 15.2682 9.83081 15.4232 8.88765C15.81 9.6746 16.1982 10.2243 16.4315 10.9317C17.1282 10.8535 17.7482 10.7754 18.8332 10.6959C18.0582 11.3251 17.5932 11.639 17.05 12.1121C17.4382 12.9771 17.67 13.5268 17.98 14.4714C17.205 14.078 16.6632 13.7641 15.965 13.5283C15.655 13.9999 15.1117 14.3933 14.4917 14.7868ZM35.65 14.3933C35.4182 13.5283 36.1932 13.1348 36.2715 12.1121C35.8832 11.7982 35.34 11.3251 34.4882 10.6973C35.5732 10.7754 36.27 10.8535 36.9682 10.9331C37.3565 10.2258 37.665 9.6746 37.9765 8.88765C38.1315 9.75271 38.2865 10.382 38.4415 11.1674C39.1382 11.3251 39.7582 11.4032 40.6882 11.5609C39.8365 12.0325 39.3715 12.3479 38.7515 12.6632C38.8282 13.4487 38.8282 14.078 38.905 14.8649C38.3632 14.3933 37.8982 13.9999 37.355 13.5283C36.8132 13.8422 36.1932 14.1575 35.65 14.3933ZM43.9417 16.203C43.7754 15.8551 43.5946 15.5139 43.4 15.1803C43.8665 15.338 44.2532 15.4161 44.64 15.4942C44.8732 15.2584 45.0282 14.9445 45.415 14.6291C45.415 15.1803 45.4932 15.4942 45.4932 15.8877C45.8032 16.0453 46.19 16.2811 46.5015 16.5169C46.035 16.6746 45.725 16.7527 45.415 16.9104L45.1832 18.0893C44.8732 17.6973 44.7167 17.382 44.4082 17.0681L43.245 17.3039C43.4782 16.9104 43.71 16.5965 43.9417 16.203ZM8.13823 16.9104C7.67172 16.7527 7.36323 16.6746 6.97498 16.5169C7.36323 16.2811 7.67323 16.1234 7.98323 15.8877C7.98323 15.5738 8.05998 15.1803 8.05998 14.7087L8.91323 15.5723C9.22323 15.4942 9.60997 15.4161 9.99672 15.2584C9.84323 15.6519 9.68823 15.9658 9.53323 16.2811C9.76497 16.595 9.99823 16.9104 10.3082 17.3039C9.89352 17.2324 9.48012 17.1538 9.06823 17.0681C8.83497 17.382 8.60172 17.6973 8.29323 18.0893C8.21497 17.6973 8.21498 17.3039 8.13823 16.9104ZM38.905 14.8649C38.9847 14.8649 38.9847 14.8649 38.905 14.8649C38.9847 14.7868 38.9847 14.7868 38.905 14.8649Z" fill="#FEFEFE"/>
</g>
</svg>
