<svg viewBox="0 0 32 32" id="money-bag" xmlns="http://www.w3.org/2000/svg"><path fill-rule="evenodd" clip-rule="evenodd" d="M16.028 2c-3.428 0-6.551 1.16-8.4 2.109-.167.085-.322.17-.467.25-.287.16-.532.31-.726.441l2.103 3.172.99.404c3.867 2 9.054 2 12.923 0l1.123-.597L25.562 4.8c-.412-.275-.84-.524-1.282-.744C22.441 3.118 19.392 2 16.03 2h-.002zm-4.89 3.59a18.282 18.282 0 01-2.201-.566c1.731-.788 4.311-1.624 7.091-1.624 1.926 0 3.747.401 5.253.91-1.765.255-3.648.686-5.442 1.218-1.412.418-3.062.373-4.7.063zm12.115 3.94l-.187.096c-4.255 2.2-9.9 2.2-14.154 0l-.177-.092C2.343 16.722-2.538 30 16.028 30s13.567-13.526 7.225-20.47zM15.24 16a1.5 1.5 0 00-1.074.456 1.576 1.576 0 00-.444 1.1c0 .412.16.808.444 1.1a1.5 1.5 0 001.074.456V16zm1.518-1.556v-.777H15.24v.777a3 3 0 00-2.147.912 3.15 3.15 0 00-.89 2.2c0 .825.32 1.616.89 2.2a3 3 0 002.147.911v3.112c-.66 0-1.223-.432-1.433-1.037a.782.782 0 00-.385-.46.746.746 0 00-1.027.373.792.792 0 00-.018.605c.21.607.597 1.132 1.11 1.503a2.987 2.987 0 001.753.571v.778h1.518v-.778a3 3 0 002.146-.911 3.15 3.15 0 00.89-2.2 3.15 3.15 0 00-.89-2.2 3 3 0 00-2.146-.912v-3.11c.66 0 1.223.43 1.432 1.036a.784.784 0 00.386.459.743.743 0 00.848-.122.776.776 0 00.247-.55.794.794 0 00-.05-.305 3.106 3.106 0 00-1.11-1.503 2.987 2.987 0 00-1.753-.572zm0 6.223v3.112a1.5 1.5 0 001.073-.456c.285-.292.445-.688.445-1.1 0-.413-.16-.808-.445-1.1a1.5 1.5 0 00-1.073-.456z" fill='#6D6D6D'></path></svg>