<svg width="155" height="56" viewBox="0 0 155 56" fill="none" xmlns="http://www.w3.org/2000/svg">
<mask id="mask0_3_1039" style="mask-type:luminance" maskUnits="userSpaceOnUse" x="5" y="26" width="145" height="30">
<path d="M5.66858 26.7473H149.625V55.9999H5.66858V26.7473Z" fill="white"/>
</mask>
<g mask="url(#mask0_3_1039)">
<mask id="mask1_3_1039" style="mask-type:luminance" maskUnits="userSpaceOnUse" x="15" y="27" width="126" height="27">
<path d="M15.9502 27.9172H140.81V53.6596H15.9502V27.9172Z" fill="white"/>
</mask>
<g mask="url(#mask1_3_1039)">
<path d="M31.0553 33.3492C30.1862 32.6566 28.8798 32.3088 27.5752 32.3088C26.9418 32.3088 26.3151 32.4121 25.7335 32.6124C25.1519 32.8127 24.6277 33.1057 24.193 33.4736C23.7583 33.8415 23.4222 34.2764 23.2055 34.7517C22.9888 35.227 22.8959 35.7327 22.9326 36.2377C22.934 36.7435 23.0647 37.2439 23.3169 37.708C23.569 38.172 23.9372 38.5901 24.3989 38.9364C24.8606 39.2828 25.406 39.5502 26.0017 39.7222C26.5974 39.8942 27.2308 39.9671 27.8631 39.9366C29.0237 39.9366 30.1844 39.5903 31.0553 38.8962L34.827 41.901C33.8944 42.669 32.7781 43.2795 31.5445 43.6965C30.3108 44.1134 28.9849 44.3282 27.6453 44.3282C26.3058 44.3282 24.9799 44.1134 23.7462 43.6965C22.5126 43.2795 21.3963 42.669 20.4637 41.901C19.5002 41.1601 18.7337 40.2716 18.2102 39.2886C17.6867 38.3056 17.4169 37.2484 17.4169 36.1802C17.4169 35.112 17.6867 34.0548 18.2102 33.0718C18.7337 32.0888 19.5002 31.2003 20.4637 30.4594C22.3495 28.9562 24.9624 28.0337 27.7173 28.0337C30.4741 28.0337 32.9393 28.8412 34.827 30.3444L31.0553 33.3492ZM40.3424 44.2118L49.9192 28.0337H52.3844L61.9594 44.2103H56.5897L55.2852 42.1309H46.8709L45.7065 44.2103H40.3406L40.3424 44.2118ZM49.0464 38.4349H53.2536L51.2238 34.8509L49.0464 38.4349ZM74.1472 32.8865C74.1433 32.5497 73.9738 32.2275 73.6752 31.9896C73.3766 31.7517 72.9728 31.617 72.5511 31.6147C71.6801 31.6147 70.9549 32.1924 71.1007 32.8865C71.1007 33.5791 71.8259 34.0419 72.5511 34.0419C76.033 34.0419 78.9356 36.2377 78.9356 39.0111C78.9356 41.7846 76.1769 44.0954 72.695 44.0954C69.2149 44.0954 66.3123 41.8996 66.3123 39.1276H71.1007C71.1007 39.8202 71.6801 40.3979 72.5511 40.3979C73.422 40.3979 74.1472 39.9366 74.1472 39.2425V39.1276C74.1433 38.7907 73.9738 38.4686 73.6752 38.2306C73.3766 37.9927 72.9728 37.8581 72.5511 37.8558C71.7312 37.8614 70.9181 37.7369 70.1591 37.4893C69.4 37.2418 68.7102 36.8762 68.1296 36.4138C67.5491 35.9514 67.0895 35.4014 66.7775 34.7959C66.4655 34.1903 66.3074 33.5413 66.3123 32.8865C66.3074 32.2318 66.4655 31.5829 66.7773 30.9775C67.0892 30.372 67.5487 29.8221 68.129 29.3598C68.7093 28.8974 69.3989 28.5318 70.1578 28.2841C70.9166 28.0365 71.7295 27.9118 72.5492 27.9172C76.033 27.9172 78.7898 30.113 78.7898 32.8865H74.1472ZM85.3183 27.9172H90.6861V44.0968H85.3164V27.9158L85.3183 27.9172ZM112.593 44.2118L103.016 36.5855V44.2103H97.65V28.0337H99.8274L109.404 35.66V28.0337H114.77V44.2103L112.593 44.2118ZM130.003 27.9172C135.662 27.9172 140.159 31.4983 140.159 36.0078C140.159 40.5143 135.662 44.0968 130.003 44.0968C124.345 44.0968 119.848 40.5143 119.848 36.0063C119.848 31.6147 124.345 27.9172 130.003 27.9172ZM130.003 32.1924C127.248 32.1924 125.07 33.9269 125.07 36.0063C125.07 38.2021 127.248 39.9366 129.859 39.9366C132.615 39.9366 134.791 38.2021 134.791 36.1227C134.791 33.9269 132.615 32.1924 130.003 32.1924Z" fill="#A3A5A8"/>
<path d="M31.2269 56.8194C30.3449 56.1164 29.0237 55.7657 27.7025 55.7657C27.0609 55.7652 26.4259 55.8695 25.8367 56.0722C25.2474 56.2749 24.7163 56.5717 24.2759 56.9444C23.8355 57.317 23.4953 57.7577 23.276 58.2393C23.0567 58.7208 22.9631 59.2331 23.0008 59.7446C23.0008 61.8505 25.204 63.6057 27.9959 63.4878C29.1713 63.4878 30.3449 63.137 31.2269 62.4356L35.0465 65.4773C34.1022 66.2547 32.972 66.8728 31.723 67.2948C30.474 67.7169 29.1316 67.9344 27.7754 67.9344C26.4192 67.9344 25.0767 67.7169 23.8277 67.2948C22.5787 66.8728 21.4485 66.2547 20.5042 65.4773C19.5289 64.7271 18.7531 63.8276 18.2231 62.8325C17.6932 61.8373 17.42 60.7671 17.42 59.6857C17.42 58.6043 17.6932 57.534 18.2231 56.5389C18.7531 55.5437 19.5289 54.6442 20.5042 53.8941C22.414 52.3732 25.0583 51.436 27.8483 51.436C30.6401 51.436 33.1367 52.2554 35.0447 53.7762L31.2269 56.8194ZM40.6284 67.8189L50.3233 51.436H52.8217L62.5166 67.8189H57.0805L55.7593 65.713H47.238L46.0645 67.8204L40.6284 67.8189ZM49.4412 62.0848H53.7037L51.6463 58.4566L49.4412 62.0848ZM74.8539 56.4686C74.85 56.1277 74.6786 55.8017 74.3766 55.5608C74.0746 55.3198 73.6661 55.1833 73.2393 55.1806C72.3573 55.1806 71.6228 55.7657 71.7705 56.4671C71.7705 57.1701 72.5049 57.6373 73.2393 57.6373C76.7637 57.6373 79.7013 59.8625 79.7013 62.6699C79.7013 65.4773 76.9113 67.8175 73.385 67.8175C69.8606 67.8175 66.923 65.5951 66.923 62.7863H71.7705C71.7705 63.4893 72.3573 64.0728 73.2393 64.0728C74.1195 64.0728 74.8539 63.6057 74.8539 62.9027V62.7863C74.8495 62.4457 74.6779 62.12 74.3759 61.8794C74.074 61.6388 73.6658 61.5025 73.2393 61.4998C72.4092 61.5056 71.5859 61.3796 70.8173 61.129C70.0488 60.8784 69.3503 60.5083 68.7625 60.0401C68.1747 59.5719 67.7094 59.015 67.3936 58.4019C67.0778 57.7888 66.9178 57.1316 66.923 56.4686C66.9176 55.8055 67.0774 55.1482 67.3931 54.5349C67.7088 53.9216 68.1741 53.3645 68.7619 52.8962C69.3496 52.4278 70.0482 52.0576 70.8169 51.8069C71.5856 51.5562 72.409 51.4301 73.2393 51.436C74.0695 51.4301 74.893 51.5562 75.6617 51.8069C76.4303 52.0576 77.1289 52.4278 77.7167 52.8962C78.3045 53.3645 78.7698 53.9216 79.0855 54.5349C79.4012 55.1482 79.5609 55.8055 79.5555 56.4686H74.8539ZM86.1652 51.436H91.6012V67.8189H86.1652V51.436ZM113.781 67.8189L104.086 60.0954V67.8175H98.6519V51.436H100.855L110.55 59.1581V51.436H115.984V67.8189H113.781ZM131.409 51.436C137.138 51.436 141.692 55.0642 141.692 59.6267C141.692 64.1907 137.138 67.8175 131.409 67.8175C125.679 67.8175 121.127 64.1907 121.127 59.6267C121.127 55.0642 125.679 51.436 131.409 51.436ZM131.409 55.6493C128.619 55.6493 126.414 57.4029 126.414 59.5103C126.414 61.7341 128.619 63.4893 131.261 63.4893C134.053 63.4893 136.256 61.7341 136.256 59.6282C136.256 57.4029 134.053 55.6493 131.409 55.6493Z" fill="#515152"/>
</g>
<path fill-rule="evenodd" clip-rule="evenodd" d="M6.90308 26.7959H148.83V55.6005H6.90308V26.7959ZM9.42736 28.806V53.5904H146.305V28.806H9.42736Z" fill="#515152"/>
<path fill-rule="evenodd" clip-rule="evenodd" d="M146.981 46.238H9.3407V45.6338H146.981V46.238Z" fill="#515152"/>
</g>
<path d="M76.4704 23.0043L86.1671 6.50489H88.6637L98.3586 23.0043H92.9225L91.6013 20.8969H83.0819L81.9064 23.0043H76.4704ZM85.2851 17.2702H89.5439L87.4883 13.6419L85.2851 17.2702ZM118.483 23.0043L115.398 18.6746H112.021V23.0043H106.585V6.62279H115.252C116.255 6.61614 117.251 6.76882 118.18 7.07196C119.109 7.3751 119.953 7.82267 120.664 8.38865C121.375 8.95464 121.938 9.62777 122.32 10.3689C122.702 11.1101 122.896 11.9046 122.891 12.7062C122.885 13.5455 122.659 14.3745 122.229 15.1403C121.799 15.9061 121.173 16.5918 120.393 17.1537L124.799 23.1222L118.483 23.0043ZM112.019 14.9299H115.398C117.014 14.9299 118.335 13.9942 118.483 12.7062C118.493 12.0905 118.211 11.4945 117.693 11.0385C117.175 10.5826 116.459 10.3006 115.691 10.2495H112.167V14.9299H112.019ZM132.879 6.62279H145.659V10.2495H138.314V12.824H144.925V16.4508H138.314V19.4939H145.659V23.0043H132.879V6.62279ZM23.1485 17.1537L19.7699 23.0043H15.8026L6.25537 6.61984H12.1306L18.0077 16.6836L21.975 9.77942H24.3239L28.2912 16.5657L34.1664 6.50342H40.0417L30.4926 23.0043H26.5253L23.1485 17.1537ZM47.8267 6.62279H60.6069V10.2495H53.2628V12.824H59.8725V16.4508H53.261V19.4939H60.605V23.0043H47.8286L47.8267 6.62279Z" fill="#515152"/>
<path fill-rule="evenodd" clip-rule="evenodd" d="M0 0H155V28.8061H0V0ZM2.52429 2.01011V26.796H152.476V2.01011H2.52429Z" fill="#515152"/>
</svg>
