<svg width="155" height="56" viewBox="0 0 155 56" fill="none" xmlns="http://www.w3.org/2000/svg">
<mask id="mask0_3_1173" style="mask-type:luminance" maskUnits="userSpaceOnUse" x="0" y="0" width="155" height="56">
<path d="M0 0H155V56H0V0Z" fill="white"/>
</mask>
<g mask="url(#mask0_3_1173)">
<path d="M127.814 0C115.01 0 104.633 7.028 104.633 15.7006C104.633 24.3718 115.01 31.3954 127.814 31.3954C136.096 31.3954 143.359 28.4524 147.46 24.0269C146.342 27.2881 143.806 30.1752 140.253 32.2295C136.688 34.2916 132.314 35.4079 127.814 35.4038C116.156 35.3861 108.639 32.3739 101.017 29.0537L99.5689 28.4229C101.397 25.3169 102.149 21.9142 101.757 18.5311C101.365 15.148 99.841 11.8942 97.3263 9.072C94.8055 6.23988 91.3793 3.92787 87.3612 2.34758C83.3336 0.762528 78.8434 -0.0430458 74.2969 0.00378619C69.7504 0.0506182 65.2913 0.948376 61.3231 2.61579C57.3655 4.2781 54.0262 6.65955 51.6111 9.54211C49.2028 12.4158 47.8002 15.7 47.5337 19.0897C47.2672 22.4794 48.1453 25.8647 50.0866 28.9314L49.6922 29.1274C42.8389 32.4844 36.7095 35.4185 27.2074 35.4053C23.6738 35.4126 20.201 34.7288 17.1305 33.4261C14.0638 32.1256 11.5026 30.246 9.70028 27.9735C7.90526 25.7078 6.93401 23.1278 6.88374 20.4916C6.83347 17.8554 7.70594 15.2555 9.41382 12.9522C11.1285 10.6427 13.6168 8.70975 16.6321 7.34484C19.6557 5.97528 23.1007 5.21862 26.6303 5.14887C30.1599 5.07913 33.6531 5.69869 36.7684 6.94695C39.8762 8.19136 42.4975 10.0236 44.3732 12.2625C45.2409 10.4392 46.4026 8.70261 47.8322 7.09137C44.8595 4.50496 41.0703 2.52021 36.8115 1.31895C32.5464 0.115598 27.9487 -0.268817 23.4357 0.200584C18.9226 0.669984 14.637 1.97834 10.9677 4.00695C7.31216 6.03092 4.39442 8.71407 2.48394 11.8086C0.579108 14.8964 -0.253629 18.2962 0.0633787 21.6911C0.380387 25.0859 1.83681 28.3651 4.29685 31.2229C6.76341 34.0907 10.1504 36.4467 14.1462 38.0741C18.1519 39.7057 22.637 40.5592 27.1937 40.5573C38.7579 40.5573 46.7041 36.7699 53.4809 33.4349L53.7889 33.2773C56.3847 35.5953 59.6354 37.4499 63.3048 38.7063C66.9819 39.9664 70.9853 40.5984 75.0267 40.5566C79.0681 40.5148 83.0469 39.8003 86.6764 38.4646C90.2973 37.1328 93.4776 35.2117 95.9862 32.8411L97.5048 33.5072C105.206 36.8789 114.484 40.5646 127.802 40.5646C135.013 40.5646 141.929 38.4278 147.026 34.6257C149.548 32.7485 151.55 30.5151 152.916 28.0541C154.283 25.5931 154.988 22.9533 154.99 20.2867C154.99 14.9078 152.126 9.74989 147.026 5.94632C141.913 2.13869 135.003 0.00388528 127.802 0.00736859L127.814 0ZM127.814 26.2463C118.826 26.2463 111.535 21.5232 111.535 15.7006C111.535 9.87663 118.826 5.14168 127.814 5.14168C136.802 5.14168 144.089 9.87368 144.089 15.708C144.089 21.5438 136.802 26.2478 127.814 26.2478V26.2463ZM74.659 35.4067C70.3127 35.4121 66.0774 34.376 62.569 32.4491C59.0727 30.5301 56.4905 27.8177 55.2036 24.7122C53.9212 21.6115 54.0073 18.2826 55.4488 15.2217C56.8955 12.155 59.6158 9.51873 63.2086 7.70147C66.8129 5.87678 71.0979 4.96283 75.441 5.09243C79.7841 5.22202 83.959 6.38841 87.3592 8.42211C90.7465 10.4479 93.1762 13.2385 94.2891 16.3815C95.3976 19.5204 95.1269 22.8392 93.516 25.8543C88.1264 23.7248 82.203 22.0036 74.8199 21.9992C69.8324 22.0006 64.9077 22.8274 60.401 24.4189C61.2664 26.07 62.6321 27.5468 64.3898 28.7324C67.6894 27.6835 71.2369 27.1452 74.8199 27.1497C80.5 27.1497 85.1539 28.4171 89.8941 30.2592C87.9882 31.8776 85.6452 33.1727 83.0212 34.0583C80.392 34.9467 77.542 35.4063 74.659 35.4067Z" fill="#F5A600"/>
<path d="M83.7255 55.9997H85.817V46.6286H83.7314L83.7255 55.9997ZM54.2873 47.8355C53.5972 47.3952 52.8149 47.0437 51.9721 46.7951C51.1048 46.553 50.1858 46.4321 49.2605 46.4385C48.0764 46.4333 46.9087 46.6468 45.8604 47.0604C45.3663 47.26 44.9087 47.5067 44.4987 47.7943C44.0926 48.0757 43.7414 48.3985 43.453 48.7522C43.1609 49.1114 42.9327 49.4979 42.7741 49.9016C42.6132 50.3216 42.5328 50.7564 42.5347 51.194C42.5269 51.6907 42.6132 52.1858 42.7918 52.6648C42.9526 53.0922 43.1999 53.4989 43.5255 53.8703C43.8355 54.2239 44.2181 54.5393 44.6596 54.8046C45.1088 55.0737 45.6036 55.2967 46.1311 55.4677C46.6864 55.6475 47.2691 55.7801 47.8636 55.8612C48.4914 55.9496 49.1291 55.9938 49.7687 55.9938H54.2814V50.8168H52.2056V55.198H50.528C49.7059 55.2078 48.8877 55.1116 48.1088 54.9136C47.4365 54.7443 46.8193 54.47 46.2979 54.109C45.8021 53.7561 45.4139 53.3267 45.1599 52.8505C44.8854 52.325 44.7501 51.7643 44.7616 51.1999C44.754 50.6657 44.8682 50.1344 45.0991 49.629C45.311 49.1721 45.6406 48.7492 46.0723 48.3882C46.5 48.0345 47.0258 47.7545 47.6124 47.5658C48.2599 47.361 48.9545 47.2578 49.6549 47.2652C50.0199 47.2652 50.3848 47.2932 50.7419 47.3477C51.1009 47.4023 51.4521 47.4789 51.7935 47.5776C52.4823 47.7813 53.118 48.0747 53.6712 48.4442L54.2873 47.8355ZM112.465 47.8355C111.773 47.3956 110.99 47.0441 110.146 46.7951C109.279 46.5532 108.361 46.4323 107.437 46.4385C106.252 46.4333 105.085 46.6468 104.036 47.0604C103.542 47.26 103.085 47.5067 102.675 47.7943C102.052 48.2278 101.556 48.754 101.218 49.3392C100.88 49.9245 100.708 50.5562 100.713 51.194C100.705 51.6907 100.791 52.1858 100.968 52.6648C101.129 53.0922 101.376 53.4989 101.702 53.8703C102.012 54.2239 102.394 54.5393 102.834 54.8046C103.285 55.0728 103.779 55.2953 104.305 55.4677C104.862 55.6475 105.443 55.7801 106.038 55.8612C106.665 55.9496 107.305 55.9938 107.945 55.9938H112.457V50.8168H110.382V55.198H108.702C107.882 55.2077 107.066 55.1115 106.289 54.9136C105.615 54.7444 104.997 54.4702 104.474 54.109C103.977 53.7569 103.588 53.3273 103.336 52.8505C103.061 52.3251 102.925 51.7644 102.936 51.1999C102.929 50.6656 103.044 50.1343 103.275 49.629C103.485 49.1721 103.817 48.7492 104.248 48.3882C104.676 48.0345 105.202 47.7545 105.788 47.5658C106.434 47.361 107.129 47.2578 107.829 47.2652C108.196 47.2652 108.561 47.2932 108.918 47.3477C109.627 47.4534 110.306 47.6519 110.923 47.9343C111.247 48.0875 111.557 48.2585 111.845 48.4442L112.465 47.8355ZM61.1759 46.6271L60.4539 47.9048L55.8902 55.9997H57.1714L58.07 54.3919H64.1484L65.0706 55.9997H67.27L61.9607 46.6286L61.1759 46.6271ZM58.5272 53.5947L61.0916 49.0189L63.6971 53.5873L58.5272 53.5947ZM97.3694 53.8246L90.4886 46.6197H89.174V55.9924H90.2826V49.0808L96.9044 55.9997H98.4936V46.6286H97.3792L97.3694 53.826V53.8246ZM74.6845 50.2583L70.5446 46.6212H68.8945V55.9909H70.0031V48.3071L74.1861 51.9412L78.3966 48.3159V55.9997H80.4764V46.6286H78.9166L74.6845 50.2583Z" fill="white"/>
</g>
</svg>
