<svg viewBox="0 0 26.686 26.697" id="cp" xmlns="http://www.w3.org/2000/svg"><circle fill="#115417" fill-rule="evenodd" cx="13.364" cy="13.333" r="12.956"></circle><g fill="#d3b775"><path d="M12.42 16.161c-.021-.063-.047-.104-.078-.125a.218.218 0 00-.125-.031c-.067 0-.162.041-.285.125a5.397 5.397 0 01-.469.281 3.93 3.93 0 01-.685.285 3.073 3.073 0 01-.944.129c-.4 0-.761-.069-1.082-.207a2.127 2.127 0 01-.82-.629c-.226-.281-.401-.64-.522-1.074-.123-.436-.185-.949-.185-1.543 0-.542.058-1.027.172-1.461.115-.433.283-.801.504-1.104a2.3 2.3 0 01.806-.703 2.273 2.273 0 011.073-.247c.365 0 .68.046.941.137.264.091.49.192.68.305.19.112.347.215.466.306s.219.137.297.137a.187.187 0 00.125-.047.37.37 0 00.094-.148.985.985 0 00.055-.266c.012-.109.017-.242.017-.398 0-.146-.004-.269-.013-.366a2.176 2.176 0 00-.035-.259.591.591 0 00-.063-.18.92.92 0 00-.147-.178 1.729 1.729 0 00-.37-.254 3.484 3.484 0 00-.599-.263 5.15 5.15 0 00-.723-.184 4.564 4.564 0 00-.813-.07 5.008 5.008 0 00-1.902.353 4.017 4.017 0 00-1.479 1.031c-.411.453-.732 1.013-.961 1.68-.229.667-.344 1.43-.344 2.289 0 .844.104 1.583.313 2.219.208.635.509 1.165.898 1.59.391.424.865.743 1.422.957.557.213 1.182.32 1.875.32a5.377 5.377 0 001.801-.301c.237-.086.438-.177.603-.271s.274-.171.332-.229c.058-.062.1-.113.125-.16s.047-.104.063-.168c.017-.065.027-.145.035-.234a3.9 3.9 0 00.012-.332c0-.188-.005-.338-.016-.449a1.305 1.305 0 00-.049-.263zM21.508 10.251a2.52 2.52 0 00-.5-.867 2.73 2.73 0 00-.793-.612 3.41 3.41 0 00-.918-.332 6.658 6.658 0 00-1.461-.144h-2.383a.705.705 0 00-.504.185c-.128.122-.191.306-.191.551v9.094c0 .053.016.1.047.142a.348.348 0 00.164.102c.078.025.184.047.316.063s.299.022.495.022c.203 0 .371-.008.5-.022.132-.017.234-.037.313-.063a.358.358 0 00.168-.102.214.214 0 00.051-.142v-3.227h.845c.668 0 1.245-.078 1.737-.234s.908-.385 1.246-.684c.34-.3.598-.668.773-1.105.178-.438.266-.939.266-1.508a3.36 3.36 0 00-.171-1.117zm-2.086 1.985c-.072.222-.18.411-.32.57a1.41 1.41 0 01-.543.371c-.221.089-.496.133-.824.133h-.922V9.88h.875c.215 0 .422.016.621.043.201.028.394.099.574.207.184.109.336.278.461.509.125.229.188.521.188.875-.001.26-.036.5-.11.722z"></path><path d="M13.367.027C6.011.027.048 5.99.048 13.346c0 7.355 5.963 13.319 13.319 13.319s13.319-5.964 13.319-13.319C26.686 5.99 20.723.027 13.367.027zm0 24.638c-6.241 0-11.319-5.078-11.319-11.319S7.126 2.027 13.367 2.027c6.242 0 11.319 5.078 11.319 11.319s-5.077 11.319-11.319 11.319z"></path></g></svg>