<svg width="155" height="56" viewBox="0 0 155 56" fill="none" xmlns="http://www.w3.org/2000/svg">
<mask id="mask0_3_1180" style="mask-type:luminance" maskUnits="userSpaceOnUse" x="0" y="0" width="155" height="56">
<path d="M0 0H155V56H0V0Z" fill="white"/>
</mask>
<g mask="url(#mask0_3_1180)">
<path d="M101.137 37.4582H90.675L92.3025 32.9782H96.41L93.62 25.3862H93.2325L89.0475 37.4582H85.87L92.1475 19.7862H94.7825L101.137 37.4582ZM121.442 19.7862H124.542V37.4582H121.442V19.7862ZM54.1725 24.1422H59.055V37.4582H62.155V24.1402H66.96V19.7842H54.1725V24.1422ZM44.0975 19.7862C43.4 19.7862 42.7025 19.9122 42.005 20.2862C40.92 20.7822 40.145 22.2762 39.835 23.8942C39.6817 24.8278 39.6036 25.7889 39.6025 26.7542V30.3642C39.6025 31.3602 39.68 32.3562 39.835 33.3522C40.145 35.0922 40.92 36.4622 42.005 36.9602C42.6808 37.3076 43.3877 37.4759 44.0975 37.4582H52.7V32.7282H44.4075C44.1849 32.7893 43.9564 32.765 43.7408 32.6572C43.5252 32.5494 43.3287 32.3612 43.1675 32.1082C42.8575 31.4842 42.78 30.6142 42.78 29.8682V27.0042C42.7025 26.2582 42.8575 25.3862 43.1675 24.7642C43.555 24.2662 43.9425 24.1442 44.4075 24.1442H52.7V19.5382H44.0975V19.7862ZM145.39 24.8882C145.777 24.3922 146.242 24.2682 146.707 24.2682H155V19.7882H146.397C145.7 19.7882 145.002 19.9122 144.305 20.2842C143.22 20.7842 142.445 22.2762 142.135 23.8942C141.982 24.8278 141.904 25.7889 141.902 26.7542V30.3642C141.902 31.3602 141.98 32.3562 142.135 33.3522C142.445 35.0922 143.22 36.4622 144.305 36.9602C144.981 37.3076 145.688 37.4759 146.397 37.4582H155V28.2482H152.21V32.6042H146.785C146.32 32.7282 145.855 32.4802 145.467 31.9842C145.157 31.3602 145.08 30.4882 145.08 29.7442V26.8802C145.002 26.3822 145.157 25.5122 145.39 24.8882ZM75.2525 24.8882C75.64 24.3922 76.105 24.2682 76.57 24.2682H84.8625V19.7882H76.26C75.5625 19.7882 74.865 19.9122 74.1675 20.2842C73.0825 20.7842 72.3075 22.2762 71.9975 23.8942C71.8442 24.8278 71.7661 25.7889 71.765 26.7542V30.3642C71.765 31.3602 71.8425 32.3562 71.9975 33.3522C72.3075 35.0922 73.0825 36.4622 74.1675 36.9602C74.8433 37.3076 75.5502 37.4759 76.26 37.4582H84.8625V28.2482H82.0725V32.6042H76.6475C76.1825 32.7282 75.7175 32.4802 75.33 31.9842C75.02 31.3602 74.9425 30.4882 75.02 29.7442V26.8802C74.9425 26.3822 75.02 25.5122 75.2525 24.8882ZM110.747 31.8582H110.515L107.105 19.7862H102.145V37.5822H105.245V24.7642H105.555L109.275 37.4582H112.142L115.862 24.7642H116.172V37.4582H119.272V19.7862H114.312L110.747 31.8582ZM137.407 32.9782H137.02L131.13 19.7862H126.557V37.5822H129.657V24.2662H130.2L135.935 37.4582H140.507V19.7862H137.407V32.9782ZM26.2725 43.1822L18.91 55.0042C18.4988 55.6617 17.9413 56.0311 17.36 56.0311C16.7786 56.0311 16.2211 55.6617 15.81 55.0042L0.619966 30.6142C-0.232534 29.2442 -0.232534 27.0042 0.619966 25.5122L4.80497 18.7922H8.52496C12.71 18.7922 14.6475 17.1722 15.2675 12.9422H8.36996L15.7325 0.996178C16.1436 0.338625 16.7011 -0.0307617 17.2825 -0.0307617C17.8638 -0.0307617 18.4213 0.338625 18.8325 0.996178L26.195 12.9422H22.32C16.8175 12.9422 15.19 15.6802 15.19 23.2722V32.7282C15.19 40.3202 16.8175 43.0582 22.32 43.0582H26.2725V43.1822Z" fill="#00558D"/>
<path d="M33.945 30.614L29.76 37.334H22.5525C19.995 37.334 19.375 36.214 19.375 32.48V23.644C19.375 19.912 19.995 18.792 22.5525 18.792H29.76L33.8675 25.512C34.0839 25.8368 34.2578 26.2272 34.379 26.6605C34.5002 27.0939 34.5664 27.5614 34.5736 28.036C34.5808 28.5106 34.5289 28.9828 34.421 29.425C34.3131 29.8673 34.1513 30.2728 33.945 30.614Z" fill="#00558D"/>
</g>
</svg>
