<svg width="36" height="36" viewBox="0 0 36 36" fill="none" xmlns="http://www.w3.org/2000/svg">
<mask id="mask0_6_1780" style="mask-type:luminance" maskUnits="userSpaceOnUse" x="0" y="0" width="36" height="36">
<path d="M0 0H36V36H0V0Z" fill="white"/>
</mask>
<g mask="url(#mask0_6_1780)">
<path d="M20.482 35.997C29.052 35.997 36 29.051 36 20.481C36 11.911 29.052 4.96201 20.482 4.96201C11.912 4.96201 4.96399 11.91 4.96399 20.48C4.96399 29.05 11.912 35.997 20.482 35.997Z" fill="#FF6464"/>
<path d="M20.482 32.894C27.338 32.894 32.896 27.336 32.896 20.48C32.896 13.624 27.338 8.06601 20.482 8.06601C13.626 8.06601 8.06799 13.624 8.06799 20.48C8.06799 27.336 13.626 32.894 20.482 32.894Z" fill="white"/>
<path d="M20.482 29.791C22.9515 29.791 25.3197 28.81 27.0659 27.0639C28.812 25.3177 29.793 22.9494 29.793 20.48C29.793 18.0106 28.812 15.6423 27.0659 13.8961C25.3197 12.15 22.9515 11.169 20.482 11.169C18.0126 11.169 15.6443 12.15 13.8981 13.8961C12.152 15.6423 11.171 18.0106 11.171 20.48C11.171 22.9494 12.152 25.3177 13.8981 27.0639C15.6443 28.81 18.0126 29.791 20.482 29.791Z" fill="#FF6464"/>
<path d="M20.482 26.687C22.1282 26.687 23.707 26.0331 24.871 24.869C26.0351 23.705 26.689 22.1262 26.689 20.48C26.689 18.8338 26.0351 17.255 24.871 16.091C23.707 14.927 22.1282 14.273 20.482 14.273C18.8358 14.273 17.2571 14.927 16.093 16.091C14.929 17.255 14.275 18.8338 14.275 20.48C14.275 22.1262 14.929 23.705 16.093 24.869C17.2571 26.0331 18.8358 26.687 20.482 26.687Z" fill="white"/>
<path d="M20.4819 23.584C20.8896 23.584 21.2932 23.5037 21.6698 23.3477C22.0464 23.1917 22.3886 22.9631 22.6768 22.6749C22.965 22.3866 23.1937 22.0445 23.3497 21.6679C23.5056 21.2913 23.5859 20.8876 23.5859 20.48C23.5859 20.0724 23.5056 19.6688 23.3497 19.2922C23.1937 18.9156 22.965 18.5734 22.6768 18.2851C22.3886 17.9969 22.0464 17.7683 21.6698 17.6123C21.2932 17.4563 20.8896 17.376 20.4819 17.376C19.6587 17.376 18.8692 17.703 18.2871 18.2851C17.705 18.8673 17.3779 19.6568 17.3779 20.48C17.3779 21.3032 17.705 22.0928 18.2871 22.6749C18.8692 23.257 19.6587 23.584 20.4819 23.584Z" fill="#FF6464"/>
<path d="M20.92 20.041L17.378 16.498L16.501 17.376L20.043 20.919C20.1005 20.9769 20.1689 21.0228 20.2442 21.0542C20.3196 21.0855 20.4004 21.1016 20.482 21.1016C20.5636 21.1016 20.6444 21.0855 20.7197 21.0542C20.795 21.0228 20.8634 20.9769 20.921 20.919C20.9787 20.8614 21.0245 20.793 21.0558 20.7177C21.0871 20.6423 21.1032 20.5616 21.1032 20.48C21.1032 20.3985 21.0871 20.3177 21.0558 20.2424C21.0245 20.167 20.9777 20.0986 20.92 20.041Z" fill="#AFB9D2"/>
<path d="M16.811 18.564L15.88 17.634L17.635 15.878L18.567 16.808C18.6248 16.8657 18.6706 16.9342 18.7019 17.0096C18.7332 17.085 18.7493 17.1659 18.7493 17.2475C18.7493 17.3292 18.7332 17.41 18.7019 17.4854C18.6706 17.5608 18.6248 17.6293 18.567 17.687L17.689 18.564C17.6314 18.6218 17.563 18.6676 17.4877 18.6989C17.4123 18.7301 17.3316 18.7462 17.25 18.7462C17.1684 18.7462 17.0877 18.7301 17.0124 18.6989C16.937 18.6676 16.8686 18.6218 16.811 18.564Z" fill="#C7CFE2"/>
<path d="M6.20597 6.20301H3.60897C3.27897 6.20301 2.96397 6.07301 2.73097 5.84001L0.130972 3.24001C0.0685151 3.17797 0.0259112 3.09876 0.00857367 3.01245C-0.00876384 2.92614 -5.22695e-05 2.83662 0.0336015 2.75528C0.0672552 2.67393 0.124332 2.60442 0.197579 2.55559C0.270827 2.50675 0.356938 2.48079 0.444972 2.48101L2.48097 2.47901V0.44701C2.48097 0.0510096 2.95997 -0.14699 3.23997 0.13301L5.83597 2.72901C6.06797 2.96101 6.19897 3.27501 6.19897 3.60401L6.20597 6.20301Z" fill="#FF6464"/>
<path d="M1.67899 0.799021C1.62141 0.741371 1.55303 0.695627 1.47777 0.664402C1.40251 0.633177 1.32183 0.617081 1.24035 0.617035C1.15886 0.616989 1.07817 0.632992 1.00287 0.664131C0.927571 0.695271 0.859143 0.740937 0.801493 0.798521C0.743843 0.856106 0.698099 0.924482 0.666874 0.999745C0.635649 1.07501 0.619553 1.15568 0.619507 1.23717C0.619461 1.31865 0.635464 1.39935 0.666603 1.47464C0.697743 1.54994 0.743408 1.61837 0.800993 1.67602L6.07699 6.95202L6.95499 6.07502L1.67899 0.799021Z" fill="#D2555A"/>
<path d="M6.95503 6.07501L6.07703 6.95201L15.88 17.633L17.635 15.878L6.95503 6.07501Z" fill="#FFD782"/>
</g>
</svg>
