<svg width="155" height="56" viewBox="0 0 155 56" fill="none" xmlns="http://www.w3.org/2000/svg">
<mask id="mask0_3_939" style="mask-type:luminance" maskUnits="userSpaceOnUse" x="0" y="0" width="155" height="56">
<path d="M0 0H155V56H0V0Z" fill="white"/>
</mask>
<g mask="url(#mask0_3_939)">
<path d="M69.5949 42.0222V37.5142H60.0624V44.1862C63.0849 45.4502 66.1074 46.5322 69.2849 47.2522C69.5949 45.6302 69.6724 43.8262 69.5949 42.0222Z" fill="#659838"/>
<path d="M64.6351 12.7161C62.7751 11.4521 60.4501 10.8221 57.6601 10.8221C55.5514 10.7443 53.4565 11.2685 51.5376 12.3541C49.8326 13.2561 48.5151 14.8801 47.6626 16.8641C46.8876 18.8481 46.5001 22.0041 46.5001 25.4301V36.2501C49.6776 38.6861 53.0876 40.7601 56.5751 42.5641V34.9881H69.5951V29.8481C69.5951 26.1521 69.2076 19.6581 68.5101 17.6741C67.7351 15.6001 66.4176 13.8901 64.6351 12.7161ZM59.5201 27.9561H56.5751V22.3641C56.4976 21.0121 56.5751 19.6581 56.8076 18.3961C56.9626 17.9461 57.4276 17.6761 58.1251 17.6761C58.5901 17.6761 59.0551 18.0361 59.2101 18.5761C59.4426 19.8381 59.5201 21.1021 59.5201 22.4541V27.9541V27.9561ZM84.7076 13.9781C83.0801 11.9041 80.8326 10.8221 78.4301 10.8221C76.9576 10.8221 75.4851 11.2721 74.2451 12.2641C73.2376 12.9841 72.3851 14.1581 71.9976 15.5101C71.6127 17.5784 71.4563 19.7017 71.5326 21.8221V45.0881C71.5326 46.0801 71.5326 47.0721 71.6101 47.8841C75.0976 48.6041 78.5851 48.8761 82.0726 48.6961C81.9951 48.6061 81.9951 48.5161 81.9176 48.4241C81.6851 47.4341 81.5301 46.3501 81.6076 45.3581V21.2821C81.5301 20.2901 81.6076 19.2981 81.9176 18.3961C82.1501 17.9461 82.6151 17.6761 83.1576 17.7641C83.6226 17.6741 84.0876 17.9441 84.3976 18.4861C84.6301 19.3881 84.7851 20.3801 84.7076 21.2821V44.1861C84.7076 46.2601 84.6301 47.7041 84.3976 48.2461C84.3976 48.3341 84.3201 48.4261 84.3201 48.4261C86.9015 48.1657 89.4652 47.6832 91.9926 46.9821C93.0001 46.7121 93.9301 46.4421 94.8601 46.0821V1.62012H84.7851C84.7076 1.62012 84.7076 13.9781 84.7076 13.9781ZM96.9526 1.62412H107.338V9.28811H96.9526V1.62412ZM96.9526 45.5401C100.534 44.261 104.01 42.5704 107.338 40.4901V11.5441H96.9526V45.5401ZM131.208 17.6741C130.476 15.531 129.159 13.7751 127.488 12.7141C123.303 10.1001 118.265 10.1001 114.003 12.7141C112.143 14.0681 110.98 15.5101 110.36 17.1341C109.74 18.7581 109.508 21.2821 109.508 24.5281V38.9561C113.073 36.5221 116.173 33.9961 119.583 31.6521V21.6421C119.494 20.5451 119.599 19.4372 119.893 18.3961C120.125 17.9461 120.59 17.6761 121.055 17.6761C121.304 17.6355 121.557 17.6916 121.779 17.8366C122.001 17.9817 122.182 18.2087 122.295 18.4861C122.528 19.4781 122.683 20.5601 122.605 21.6421V29.8481C125.609 27.957 128.748 26.417 131.983 25.2481C131.828 22.0941 131.595 18.8481 131.208 17.6741Z" fill="#659838"/>
<path d="M46.4999 41.3001C46.4224 43.4661 46.6549 45.7201 47.0424 47.8841C47.8174 51.2201 49.9099 53.8361 52.6999 54.9181C54.5284 55.6433 56.4375 56.0084 58.3574 56.0001C60.2062 56.0977 62.0518 55.7296 63.7824 54.9181C65.2549 54.1981 66.4949 53.1141 67.4249 51.6721C68.2664 50.5093 68.8768 49.119 69.2074 47.6121V47.4321C66.1074 46.7121 63.0074 45.6301 59.9849 44.2761V44.3681C60.052 45.6787 59.9206 46.9933 59.5974 48.2441C59.4507 48.5845 59.2239 48.8617 58.9471 49.0389C58.6702 49.216 58.3565 49.2848 58.0474 49.2361C57.5824 49.3261 57.0399 49.0561 56.8074 48.5161C56.5139 47.4433 56.4082 46.3054 56.4974 45.1781V42.7441C53.0099 40.9401 49.5999 38.8661 46.4224 36.4321V41.3021L46.4999 41.3001ZM84.2424 48.5161C83.9324 48.9661 83.4674 49.1481 83.0024 49.1481C82.6149 49.1481 82.2274 48.9681 81.9949 48.6961C78.4953 48.7852 74.9957 48.5136 71.5324 47.8841C71.5324 49.0561 71.6874 50.1381 71.9199 51.2221C72.3074 52.5741 73.0824 53.7461 74.1674 54.5581C75.3299 55.5501 76.8024 56.0001 78.1974 56.0001C79.3599 56.0001 80.5224 55.7301 81.5299 55.1001C82.6643 54.478 83.6907 53.5896 84.5524 52.4841V55.2801H94.6274V46.3521C93.6974 46.6221 92.7674 46.9821 91.7599 47.2521C89.2833 47.9069 86.7704 48.3295 84.2424 48.5161ZM96.9524 55.2801H107.337V40.4901C104.005 42.5641 100.517 44.1861 96.9524 45.5401V55.2801ZM132.137 31.1121C132.137 29.6681 132.06 27.5041 131.982 25.3401C128.748 26.509 125.609 28.049 122.605 29.9401V31.2001H132.137V31.1121ZM109.507 39.1381C109.507 42.9241 109.817 47.4341 110.515 49.5081C111.237 51.5512 112.493 53.2346 114.08 54.2881C115.785 55.4601 118.032 56.0001 120.822 56.0001C122.76 56.0901 124.697 55.6401 126.402 54.7381C127.875 53.9261 129.192 52.6641 130.045 51.0401C130.897 49.5981 131.517 47.9741 131.75 46.3521C131.905 44.8181 132.06 39.4981 132.06 36.5221H123.07V44.0961C123.147 45.4501 122.992 46.8021 122.682 48.1561C122.564 48.4826 122.366 48.7543 122.115 48.9322C121.864 49.1101 121.575 49.185 121.287 49.1461C121.016 49.1463 120.749 49.0541 120.517 48.8795C120.284 48.7049 120.095 48.4547 119.97 48.1561C119.666 47.1767 119.509 46.1372 119.505 45.0881V31.8341C116.25 34.1761 113.15 36.7001 109.507 39.1381ZM136.555 23.8961V43.3761C136.477 45.8101 136.555 48.2441 136.865 50.6801C137.097 51.7601 137.562 52.7541 138.26 53.4741C138.972 54.2866 139.861 54.8203 140.817 55.0081C142.445 55.2781 144.072 55.3681 145.7 55.3681H149.73V49.1481C148.102 49.1481 147.172 48.9681 146.94 48.6961C146.707 48.4261 146.63 46.9821 146.63 44.4561V21.9141C143.297 22.2741 139.887 22.9961 136.555 23.8961Z" fill="#1CABBB"/>
<path d="M146.707 19.2079H151.59V12.5339H146.707V4.95989H136.632V12.5339H133.532V19.2079H136.632V23.8979C139.965 22.9959 143.375 22.3639 146.707 21.9139V19.2079ZM149.885 6.3119V1.44189H151.667C151.977 1.44189 152.287 1.44189 152.597 1.53189C152.83 1.62189 152.985 1.80389 153.062 1.98389C153.217 2.16389 153.217 2.4339 153.217 2.7039C153.224 2.87352 153.2 3.04287 153.146 3.19914C153.093 3.35541 153.011 3.4945 152.907 3.6059C152.679 3.88305 152.375 4.04427 152.055 4.05789C152.21 4.14789 152.365 4.32789 152.52 4.50789L152.985 5.31989L153.45 6.2199H152.442L151.822 5.13989C151.667 4.86989 151.512 4.68789 151.357 4.41989C151.28 4.32789 151.202 4.23789 151.125 4.23789C150.97 4.23789 150.815 4.14789 150.737 4.14789H150.582V6.3119H149.885ZM150.737 3.5159H151.357C151.59 3.5159 151.9 3.5159 152.132 3.4259C152.21 3.4259 152.287 3.3359 152.365 3.2459C152.442 3.1559 152.442 2.97589 152.442 2.88589C152.442 2.70589 152.442 2.61389 152.365 2.52589C152.278 2.4301 152.17 2.36759 152.055 2.3459H150.815L150.737 3.5159Z" fill="#659838"/>
<path d="M151.59 7.936C149.73 7.936 148.18 6.132 148.18 3.968C148.18 1.804 149.73 0 151.59 0C153.45 0 155 1.804 155 3.968C155 6.132 153.45 7.936 151.59 7.936ZM151.59 0.450001C149.885 0.450001 148.567 1.984 148.567 3.968C148.567 5.952 149.885 7.484 151.59 7.484C153.295 7.484 154.612 5.952 154.612 3.968C154.612 1.984 153.295 0.450001 151.59 0.450001Z" fill="#659838"/>
<path d="M15.4224 34.9881C12.9936 36.7987 10.196 37.7067 7.36245 37.6041C6.12245 37.6041 4.80495 37.4241 3.56495 37.2441C2.40245 36.9721 1.23995 36.7041 0.0774536 36.2521C0.929954 48.1541 9.91995 56.9021 20.0725 55.9101C29.6825 54.9181 37.045 45.6301 37.045 34.4481V34.2681C31.3875 31.7421 21.9324 29.7581 15.4224 34.9881Z" fill="#1CABBB"/>
<path d="M14.8025 33.9079C21.4675 28.5879 31.0775 30.3899 36.9675 32.8259C36.1925 20.9219 27.28 12.0859 17.05 12.9859C7.44 13.8879 0 23.1759 0 34.4479V34.8079C3.41 36.0719 9.9975 37.7839 14.8025 33.9079Z" fill="#659838"/>
<path d="M1.24006 33.1861C1.47256 30.1201 3.02256 21.1021 11.6251 20.5601C12.2451 20.5601 12.7101 21.0121 12.7876 21.7321V21.8241C12.6326 25.7901 11.6251 36.8841 2.01506 34.5381C1.47256 34.3581 1.16256 33.8181 1.24006 33.1861Z" fill="#B9CA8E"/>
<path d="M1.78253 33.7262C1.86003 32.0122 2.48003 27.0522 7.13003 26.5122C7.44003 26.5122 7.75003 26.7822 7.75003 27.1442C7.82753 29.2182 7.51753 35.3482 2.24753 34.3582C2.01503 34.3582 1.78253 34.0862 1.78253 33.7262Z" fill="#E0E7C6"/>
<path d="M2.01498 40.1301C2.71248 42.6541 5.50249 50.0501 13.175 49.9581C13.64 49.9581 13.95 49.5981 14.0275 49.0581V48.7861C13.33 45.5401 10.6175 36.3421 2.55748 39.0461C2.09248 39.1381 1.85998 39.5881 2.01498 40.1301Z" fill="#BEE2F7"/>
<path d="M2.40242 39.5879C2.71242 40.8499 3.87492 44.6379 7.74992 44.7279C7.98242 44.7279 8.13742 44.548 8.21492 44.278V44.098C7.90492 42.474 6.81992 37.874 2.71242 38.958C2.47992 39.138 2.32492 39.3179 2.40242 39.5879Z" fill="#DFF0FA"/>
</g>
</svg>
