<svg fill="none" viewBox="0 0 150 56" id="providers--edict" xmlns="http://www.w3.org/2000/svg"><g clip-path="url(#gaclip0_1482_21155)"><path d="M70.104 35.011v-2.254H64.2v3.336c1.872.632 3.744 1.173 5.712 1.533.192-.811.24-1.713.192-2.615z" fill="#659838"></path><path d="M67.032 20.358c-1.152-.632-2.592-.947-4.32-.947a8.517 8.517 0 00-3.792.766c-1.056.451-1.872 1.263-2.4 2.255-.48.992-.72 2.57-.72 4.283v5.41c1.968 1.218 4.08 2.255 6.24 3.157v-3.788h8.064v-2.57c0-1.848-.24-5.095-.672-6.087-.48-1.037-1.296-1.893-2.4-2.48zm-3.168 7.62H62.04v-2.796c-.048-.676 0-1.353.144-1.984.096-.225.384-.36.816-.36.288 0 .576.18.672.45.144.631.192 1.263.192 1.939v2.75zM79.464 20.989c-1.008-1.037-2.4-1.578-3.888-1.578-.912 0-1.824.225-2.592.721-.624.36-1.152.947-1.392 1.623a11.727 11.727 0 00-.288 3.156v11.633c0 .496 0 .992.048 1.398 2.16.36 4.32.496 6.48.406-.048-.045-.048-.09-.096-.136-.144-.495-.24-1.037-.192-1.533V24.641c-.048-.496 0-.992.192-1.443.144-.225.432-.36.768-.316.288-.045.576.09.768.361.144.451.24.947.192 1.398v11.452c0 1.037-.048 1.759-.192 2.03 0 .044-.048.09-.048.09a34.597 34.597 0 004.752-.722c.624-.135 1.2-.27 1.776-.45V14.81h-6.24c-.048 0-.048 6.178-.048 6.178zM87.048 14.812h6.432v3.832h-6.432v-3.832zM87.048 36.77a37.063 37.063 0 006.432-2.525V19.772h-6.432V36.77zM108.264 22.837a4.954 4.954 0 00-2.304-2.48c-2.592-1.307-5.712-1.307-8.352 0-1.152.677-1.872 1.398-2.256 2.21-.384.812-.528 2.074-.528 3.697v7.214c2.208-1.217 4.128-2.48 6.24-3.652v-5.005a3.78 3.78 0 01.192-1.623c.144-.225.432-.36.72-.36a.751.751 0 01.768.405c.144.496.24 1.037.192 1.578v4.103a33.563 33.563 0 015.808-2.3c-.096-1.577-.24-3.2-.48-3.787z" fill="#659838"></path><path d="M55.8 34.65c-.048 1.083.096 2.21.336 3.292.48 1.668 1.776 2.976 3.504 3.517a11.36 11.36 0 003.504.541 8.471 8.471 0 003.36-.541c.912-.36 1.68-.902 2.256-1.623a5.01 5.01 0 001.104-2.03v-.09c-1.92-.36-3.84-.901-5.712-1.578v.046a5.265 5.265 0 01-.24 1.938.952.952 0 01-.96.496c-.288.045-.624-.09-.768-.36a3.987 3.987 0 01-.192-1.669v-1.217c-2.16-.902-4.272-1.939-6.24-3.156v2.435h.048zM79.176 38.258c-.192.225-.48.316-.768.316-.24 0-.48-.09-.624-.226a39.1 39.1 0 01-6.48-.406c0 .586.096 1.127.24 1.669.24.676.72 1.262 1.392 1.668.72.496 1.632.721 2.496.721.72 0 1.44-.135 2.064-.45a5.95 5.95 0 001.872-1.308v1.398h6.24v-4.464c-.576.135-1.152.315-1.776.45a31.19 31.19 0 01-4.656.632zM87.048 41.64h6.432v-7.395c-2.064 1.037-4.224 1.848-6.432 2.525v4.87zM108.84 29.556c0-.722-.048-1.804-.096-2.886a33.57 33.57 0 00-5.808 2.3v.63h5.904v-.044zM94.824 33.569c0 1.893.192 4.148.624 5.185a4.976 4.976 0 002.208 2.39c1.056.586 2.448.856 4.176.856 1.2.045 2.4-.18 3.456-.631.912-.406 1.728-1.037 2.256-1.849.528-.721.912-1.533 1.056-2.344.096-.767.192-3.427.192-4.915h-5.568v3.787c.048.677-.048 1.353-.24 2.03a.846.846 0 01-.864.495.919.919 0 01-.816-.495 4.332 4.332 0 01-.288-1.534v-6.627C99 31.088 97.08 32.35 94.824 33.569zM111.576 25.948v9.74c-.048 1.217 0 2.434.192 3.652.144.54.432 1.037.864 1.397a3.04 3.04 0 001.584.767c1.008.135 2.016.18 3.024.18h2.496v-3.11c-1.008 0-1.584-.09-1.728-.226-.144-.135-.192-.857-.192-2.12V24.957c-2.064.18-4.176.542-6.24.992z" fill="#1CABBB"></path><path d="M117.864 23.604h3.024v-3.337h-3.024V16.48h-6.24v3.787h-1.92v3.337h1.92v2.345c2.064-.451 4.176-.767 6.24-.992v-1.353zM119.832 17.156v-2.435h1.104c.192 0 .384 0 .576.045.144.045.24.136.288.226.096.09.096.225.096.36a.56.56 0 01-.192.451.794.794 0 01-.528.226c.096.045.192.135.288.225l.288.406.288.45h-.624l-.384-.54c-.096-.135-.192-.226-.288-.36-.048-.046-.096-.091-.144-.091-.096 0-.192-.045-.24-.045h-.096v1.082h-.432zm.528-1.398h.384c.144 0 .336 0 .48-.045.048 0 .096-.045.144-.09.048-.045.048-.135.048-.18 0-.09 0-.136-.048-.18a.374.374 0 00-.192-.09h-.768l-.048.585z" fill="#659838"></path><path d="M120.888 17.968c-1.152 0-2.112-.902-2.112-1.984 0-1.082.96-1.984 2.112-1.984 1.152 0 2.112.902 2.112 1.984 0 1.082-.96 1.984-2.112 1.984zm0-3.743c-1.056 0-1.872.767-1.872 1.759 0 .992.816 1.758 1.872 1.758s1.872-.766 1.872-1.758-.816-1.759-1.872-1.759z" fill="#659838"></path><path d="M36.552 31.494a9.162 9.162 0 01-4.992 1.308c-.768 0-1.584-.09-2.352-.18-.72-.136-1.44-.27-2.16-.496.528 5.951 6.096 10.325 12.384 9.829 5.952-.496 10.512-5.14 10.512-10.731v-.09c-3.504-1.263-9.36-2.255-13.392.36z" fill="#1CABBB"></path><path d="M36.168 30.954c4.128-2.66 10.08-1.759 13.728-.541-.48-5.952-6-10.37-12.336-9.92C31.608 20.944 27 25.588 27 31.224v.18c2.112.632 6.192 1.488 9.168-.45z" fill="#659838"></path><path d="M27.768 30.593c.144-1.533 1.104-6.042 6.432-6.313.384 0 .672.226.72.586v.046c-.096 1.983-.72 7.53-6.672 6.357-.336-.09-.528-.36-.48-.676z" fill="#B9CA8E"></path><path d="M28.104 30.863c.048-.857.432-3.337 3.312-3.607.192 0 .384.135.384.316.048 1.037-.144 4.102-3.408 3.607-.144 0-.288-.136-.288-.316z" fill="#E0E7C6"></path><path d="M28.248 34.065c.432 1.262 2.16 4.96 6.912 4.914.288 0 .48-.18.528-.45v-.136c-.432-1.623-2.112-6.222-7.104-4.87-.288.046-.432.271-.336.542-.048 0 0 0 0 0z" fill="#BEE2F7"></path><path d="M28.488 33.794c.192.631.912 2.525 3.312 2.57.144 0 .24-.09.288-.225v-.09c-.192-.812-.864-3.112-3.408-2.57-.144.09-.24.18-.192.315z" fill="#DFF0FA"></path></g></svg>