<svg width="155" height="56" viewBox="0 0 155 56" fill="none" xmlns="http://www.w3.org/2000/svg">
<mask id="mask0_3_955" style="mask-type:luminance" maskUnits="userSpaceOnUse" x="0" y="0" width="155" height="56">
<path d="M0 0H155V56H0V0Z" fill="white"/>
</mask>
<g mask="url(#mask0_3_955)">
<path fill-rule="evenodd" clip-rule="evenodd" d="M8.1376 56C11.0808 56 12.1658 54.502 12.1658 53.004C12.1658 49.224 5.65584 50.5073 5.65584 48.2238C5.65584 47.2967 6.58584 46.5842 7.90334 46.5842C9.14334 46.5842 10.2283 46.9404 11.0808 47.7976L11.9333 46.8689C11.0033 45.9418 9.68584 45.4424 8.05834 45.4424C5.88834 45.4424 4.26084 46.5827 4.26084 48.2953C4.26084 51.9338 10.7708 50.4358 10.7708 53.0756C10.7708 53.8596 10.1508 54.8582 8.21334 54.8582C7.56016 54.8618 6.91445 54.7354 6.32413 54.4885C5.73381 54.2415 5.21403 53.8804 4.80334 53.4318L3.95084 54.4304C4.88084 55.3576 6.2776 56 8.1376 56ZM31.3876 55.7853V46.7973H34.8751V45.6556H26.5791V46.7973H30.0666V55.7853H31.3841H31.3876ZM54.4016 56C57.3466 56 58.8966 54.3589 58.8966 51.8622V45.7271H57.5016V51.8622C57.5016 53.7164 56.4166 54.8582 54.4016 54.8582C52.3866 54.8582 51.3016 53.718 51.3016 51.8622V45.7271H49.9066V51.9338C49.9066 54.3604 51.3791 56 54.4016 56ZM78.3491 54.7167H75.9501V46.8689H78.3526C81.0651 46.8689 82.5376 48.6516 82.5376 50.792C82.6151 52.9324 81.0651 54.7167 78.3526 54.7167H78.3491ZM78.3491 55.7853C81.7591 55.7853 84.0066 53.6464 84.0066 50.7204C84.0066 47.8676 81.8366 45.6556 78.3491 45.6556H74.6291V55.7853H78.3491ZM99.2741 55.7853H100.669V45.7271H99.2741V55.7853ZM121.439 54.8582C118.959 54.8582 117.409 53.0756 117.409 50.7204C117.409 48.3669 118.959 46.5827 121.439 46.5827C123.919 46.5827 125.469 48.2953 125.469 50.7204C125.469 53.0756 123.842 54.8582 121.439 54.8582ZM121.439 56C124.694 56 126.942 53.788 126.942 50.792C126.942 47.796 124.694 45.584 121.439 45.584C118.184 45.584 116.014 47.796 116.014 50.792C115.938 53.7164 118.186 56 121.439 56ZM145.774 56C148.719 56 149.804 54.502 149.804 53.004C149.804 49.224 143.294 50.5073 143.294 48.2238C143.294 47.2967 144.224 46.5842 145.542 46.5842C146.782 46.5842 147.867 46.9404 148.719 47.7976L149.572 46.8689C148.642 45.9418 147.324 45.4424 145.697 45.4424C143.527 45.4424 141.899 46.5827 141.899 48.2953C141.899 51.9338 148.409 50.4358 148.409 53.0756C148.409 53.8596 147.789 54.8582 145.852 54.8582C145.198 54.8618 144.553 54.7354 143.962 54.4885C143.372 54.2415 142.852 53.8804 142.442 53.4318L141.589 54.4304C142.442 55.3576 143.837 56 145.774 56ZM112.373 24.5404V35.7404H99.5083L51.9233 35.8836H13.0183C11.6233 35.8836 7.98084 35.5973 5.42334 33.1007C2.55584 30.3178 2.47835 26.894 2.47835 26.3962V12.1271C2.47835 11.4147 2.40084 7.84778 5.34584 4.92178C7.74834 2.49667 11.5458 2.282 12.6308 2.282L65.4858 2.212V23.3987H96.5633V2.42511H112.375L112.298 12.3418L127.333 2.42511H148.103L126.48 18.9047L148.335 35.812H126.868L112.373 24.5404ZM130.276 18.9047L154.843 0.214666H126.556L114.776 7.98933L114.853 0.214666H94.3158V21.2582H67.9658V0L12.6308 0.0715548C11.3133 0.0715548 6.58584 0.284667 3.56334 3.42378C0.0758406 6.84756 -0.0791565 10.9153 -0.00165646 12.1987V26.3947C-0.00165646 27.2502 0.153341 31.2464 3.56334 34.6702C6.81834 37.8093 11.2358 38.1656 12.9408 38.1656H54.3258L101.833 38.0224H114.698V29.3907L125.936 38.024H154.998L130.276 18.9047Z" fill="#259BFF"/>
<path fill-rule="evenodd" clip-rule="evenodd" d="M49.4452 4.56545V12.4132H17.9803C17.9803 12.4132 17.0502 12.3417 16.4302 12.911C15.8877 13.4819 15.9652 14.1959 15.9652 14.1959V15.2661H49.3678V22.9708H15.9652V24.041C15.9652 24.041 15.9653 24.825 16.5078 25.2543C17.2053 25.8237 17.8252 25.7521 17.8252 25.7521H49.4452V33.5999H13.3303C13.3303 33.5999 9.53275 33.8846 7.13025 31.531C4.80525 29.2475 4.88275 26.3946 4.88275 26.3946V12.0555C4.88275 12.0555 4.65025 8.91634 7.13025 6.41967C9.14525 4.42234 12.7877 4.56545 12.7877 4.56545H49.4452ZM52.0803 4.4939H63.0853V25.6806H97.0303V33.5999H52.0803V4.49545V4.4939ZM128.108 4.63701H141.283L122.605 18.833L141.593 33.5283H127.72L109.895 19.7617V33.5283H99.1228V4.63701H109.895L109.818 16.6926L128.108 4.63701Z" fill="#259BFF"/>
</g>
</svg>
