<svg width="155" height="56" viewBox="0 0 155 56" fill="none" xmlns="http://www.w3.org/2000/svg">
<mask id="mask0_3_817" style="mask-type:luminance" maskUnits="userSpaceOnUse" x="0" y="0" width="155" height="56">
<path d="M0 0H155V56H0V0Z" fill="white"/>
</mask>
<g mask="url(#mask0_3_817)">
<path d="M10.3064 17.5665L27.2713 23.8035C26.8739 23.5935 18.8052 19.306 16.3187 15.911C13.7622 12.439 13.95 9.86646 16.1069 7.37971C18.266 4.89296 23.6124 3.32496 31.7444 3.73971C39.8743 4.15271 48.8163 6.09521 55.5271 10.8587C55.5271 10.8587 49.803 2.83146 35.2374 0.586213C20.6739 -1.66079 9.46154 2.87521 2.99739 7.52146C1.28366 8.75521 0.399497 9.92771 0.111328 11.0512C0.244497 14.469 10.3064 17.5665 10.3064 17.5665Z" fill="#2F98D5"/>
<path d="M16.1048 48.6202C13.9392 46.1352 13.7602 43.5627 16.3166 40.0872C18.873 36.6135 27.2845 32.1895 27.2845 32.1895L10.3043 38.4335C10.3043 38.4335 0.235873 41.531 0.109253 44.9487C0.399605 46.0722 1.28377 47.2447 2.99531 48.4785C9.45947 53.1247 20.6631 57.6537 35.2288 55.4085C49.8009 53.1685 55.5228 45.1412 55.5228 45.1412C48.8164 49.9047 39.8722 51.8542 31.7424 52.2602C23.6103 52.675 18.2639 51.114 16.1048 48.6202Z" fill="#F9AE00"/>
<path d="M10.3043 38.4332L27.2866 32.1891C27.2866 32.1891 32.1091 30.1539 32.1091 28.1361C32.1091 28.0924 32.1091 28.0434 32.1003 27.9997C32.1003 27.9577 32.1091 27.9069 32.1091 27.8649C32.1091 25.8472 27.2844 23.8102 27.2844 23.8102C27.2844 23.8102 27.2779 23.8049 27.2691 23.8049L10.3065 17.5662C10.3065 17.5662 0.242382 14.4757 0.111396 11.0562C-0.69635 14.1607 3.04112 16.8434 6.12147 19.1464C10.241 22.2124 12.0704 25.2609 12.0398 28.0014C12.0704 30.7402 10.241 33.7869 6.12365 36.8599C3.04112 39.1559 -0.694166 41.8387 0.109214 44.9484C0.235834 41.5307 10.3043 38.4332 10.3043 38.4332Z" fill="#E40E20"/>
<path d="M41.6383 29.3512C41.6383 29.6714 41.8414 29.9112 42.2496 30.0687C42.6557 30.2262 43.1643 30.3084 43.7887 30.3137C44.4065 30.3207 45.0178 30.2962 45.6116 30.2524C46.2054 30.2034 46.7686 30.1527 47.2926 30.0914C47.8231 30.0302 48.1221 29.9987 48.1985 29.9987C48.2531 30.8947 48.0261 31.5299 47.5262 31.8992C47.024 32.2702 46.0176 32.4557 44.5004 32.4557C42.4133 32.4557 40.8808 32.1232 39.894 31.4494C38.9182 30.7774 38.427 29.6224 38.427 27.9687C38.427 27.1427 38.558 26.4462 38.8243 25.8774C39.0907 25.3034 39.4814 24.8712 39.9966 24.5702C40.514 24.2727 41.0838 24.0574 41.7169 23.9349C42.35 23.8107 43.0923 23.7494 43.9371 23.7494C45.557 23.7494 46.7533 24.0207 47.5109 24.5632C48.275 25.1057 48.6592 25.9702 48.6592 27.1532C48.6592 27.6117 48.55 27.9687 48.323 28.2469C48.1227 28.5054 47.8162 28.6997 47.4563 28.7964C47.0358 28.8986 46.6035 28.9666 46.1661 28.9994C45.664 29.0432 45.164 29.0554 44.6816 29.0362C44.1882 29.0187 43.6643 29.0362 43.0945 29.0922C42.5973 29.1286 42.108 29.2156 41.6383 29.3512ZM41.5379 27.7289C41.7562 27.6064 42.123 27.5259 42.6251 27.4822C43.125 27.4384 43.5944 27.4209 44.031 27.4139C44.4676 27.4087 44.8606 27.3334 45.1968 27.1987C45.3515 27.1421 45.4812 27.0492 45.5689 26.9324C45.6565 26.8156 45.6981 26.6803 45.688 26.5442C45.688 26.2782 45.4238 26.0559 44.8846 25.8792C44.197 25.6343 43.4181 25.6118 42.7102 25.8162C41.7322 26.0944 41.3414 26.7297 41.5379 27.7289ZM61.2775 26.6929V32.3192C60.8256 32.3367 60.4261 32.3367 60.1052 32.3139C59.7777 32.2877 59.4721 32.2264 59.1752 32.1337C58.8966 32.0511 58.6657 31.8891 58.5268 31.6787C58.38 31.43 58.3153 31.1552 58.339 30.8807V26.7419C58.1426 25.9894 57.2519 25.6919 55.6735 25.8459C54.8526 25.9264 54.3745 25.9894 54.2414 26.0314C54.2807 26.2047 54.3047 26.4147 54.3047 26.6492V30.8807C54.3294 31.1554 54.2615 31.4304 54.1082 31.6769C53.9676 31.8867 53.7374 32.0489 53.4598 32.1337C53.1652 32.229 52.8549 32.2898 52.5386 32.3139C52.1479 32.3409 51.7551 32.3427 51.364 32.3192V24.7907C51.364 24.1187 52.7328 23.7617 55.4617 23.7109C59.3323 23.6322 61.2688 24.6244 61.2775 26.6929ZM71.5271 20.4052C71.7236 20.5154 71.9638 20.5889 72.2628 20.6204C72.5597 20.6519 72.8261 20.6694 73.0684 20.6694C73.3086 20.6694 73.5443 20.7009 73.7626 20.7569C73.9809 20.8112 74.1556 20.9477 74.28 21.1629C74.4045 21.3799 74.4678 21.6949 74.4678 22.1079V31.2254C74.4018 31.2832 74.3392 31.3434 74.28 31.4057C74.1709 31.5177 74.0683 31.6034 73.9744 31.6717C73.8166 31.7735 73.6462 31.8621 73.4657 31.9359C73.2067 32.0481 72.9308 32.1333 72.6449 32.1897C72.2453 32.2652 71.8408 32.3231 71.4333 32.3629C70.8624 32.4173 70.2879 32.4442 69.713 32.4434C67.7045 32.4434 66.2571 32.0969 65.3817 31.4109C64.5085 30.7284 64.0697 29.5857 64.0697 27.9879C64.0697 27.3702 64.1701 26.8154 64.3819 26.3289C64.5936 25.8389 64.8665 25.4399 65.2114 25.1302C65.5542 24.8222 65.9602 24.5632 66.4383 24.3602C66.9077 24.1554 67.3836 24.0084 67.8683 23.9279C68.3529 23.8474 68.8528 23.8054 69.3768 23.8054C70.3854 23.8054 71.0971 23.9279 71.5359 24.1747V20.4052H71.5271ZM71.5271 28.1297V25.9334C71.3449 25.8882 71.1598 25.8508 70.9726 25.8214C70.7244 25.7858 70.4735 25.7636 70.2216 25.7549C69.9381 25.738 69.6534 25.7398 69.3702 25.7602C69.0824 25.7829 68.8016 25.8457 68.5407 25.9457C68.2648 26.0448 68.0133 26.1829 67.7984 26.3534C67.5664 26.5571 67.3927 26.799 67.2897 27.0622C67.1588 27.3649 67.0933 27.7219 67.0933 28.1367C67.0933 28.5252 67.1719 28.8717 67.329 29.1534C67.4862 29.4439 67.6805 29.6662 67.9076 29.8202C68.154 29.984 68.4425 30.1023 68.7524 30.1667C69.0886 30.2402 69.3855 30.2892 69.6519 30.3067C69.916 30.3259 70.2064 30.3207 70.5186 30.2892C70.7386 30.2733 70.9578 30.2505 71.1757 30.2209C71.3001 30.2034 71.4114 30.1789 71.5206 30.1597H71.5424C71.5359 30.1719 71.5359 29.4947 71.5271 28.1297ZM77.2425 28.0369C77.2257 27.9559 77.2155 27.874 77.2119 27.7919C77.2032 27.6869 77.2272 27.4874 77.2731 27.1864C77.3211 26.8889 77.3909 26.6002 77.5001 26.3289C77.6325 26.0086 77.8159 25.7033 78.0459 25.4207C78.3057 25.0934 78.6353 24.8099 79.0174 24.5702C79.3994 24.3357 79.9233 24.1327 80.5739 23.9769C81.3001 23.8086 82.0535 23.7278 82.8094 23.7372C83.3945 23.7372 83.9359 23.7722 84.4358 23.8474C84.927 23.9209 85.3571 24.0207 85.7173 24.1449C86.0775 24.2674 86.3984 24.4214 86.6778 24.6069C86.9617 24.7907 87.1952 24.9762 87.3764 25.1564C87.5555 25.3349 87.7105 25.5502 87.8349 25.7969C87.9615 26.0437 88.0532 26.2607 88.1187 26.4392C88.1798 26.6177 88.2278 26.8277 88.2584 27.0744C88.2802 27.3159 88.2977 27.4997 88.3042 27.6239C88.313 27.7464 88.313 27.9074 88.3042 28.0929C88.2977 28.2854 88.2977 28.3904 88.2977 28.4079C88.2977 28.5742 88.289 28.7229 88.2737 28.8577C88.2437 29.0705 88.2043 29.2823 88.1558 29.4929C88.1015 29.757 88.0099 30.0154 87.8829 30.2629C87.765 30.4922 87.5773 30.7389 87.3284 31.0049C87.0775 31.2676 86.7735 31.4948 86.429 31.6769C86.0089 31.8827 85.5526 32.0367 85.0755 32.1337C84.4658 32.2626 83.8372 32.325 83.2067 32.3192C82.4885 32.3192 81.8466 32.2824 81.2856 32.2072C80.798 32.1496 80.3184 32.0547 79.8535 31.9237C79.4749 31.8137 79.1249 31.6488 78.8209 31.4372C78.5484 31.2526 78.309 31.0388 78.1092 30.8019C77.9085 30.5541 77.7561 30.2833 77.6573 29.9987C77.5461 29.6969 77.4571 29.3901 77.3909 29.0799C77.322 28.7342 77.2725 28.3862 77.2425 28.0369ZM80.1591 28.1787C80.1984 28.5374 80.253 28.8262 80.3228 29.0362C80.3927 29.2462 80.5259 29.4562 80.7136 29.6592C80.9295 29.8791 81.2281 30.0374 81.565 30.1107C81.9405 30.2034 82.4252 30.2507 83.0124 30.2507C83.4665 30.2507 83.8638 30.1982 84.1847 30.0792C84.4613 29.9966 84.7102 29.8636 84.9117 29.6907C85.0761 29.5357 85.2034 29.3577 85.2872 29.1657C85.3811 28.9627 85.4291 28.8087 85.4444 28.7037C85.4597 28.5987 85.4662 28.4884 85.4662 28.3642V27.9582C85.4597 27.7405 85.4283 27.5238 85.3724 27.3107C85.3344 27.193 85.2878 27.0773 85.2326 26.9642C85.1234 26.7125 84.9319 26.4888 84.6781 26.3167C84.5405 26.214 84.3845 26.1285 84.2153 26.0629C84.02 25.9873 83.813 25.9332 83.5997 25.9019C83.3398 25.8586 83.0748 25.8381 82.8094 25.8407C82.2854 25.8407 81.8401 25.8967 81.4799 26.0139C81.1776 26.0946 80.9022 26.2292 80.6743 26.4077C80.491 26.5772 80.3575 26.7775 80.2836 26.9939C80.2064 27.1758 80.1566 27.3644 80.1351 27.5557C80.1264 27.6922 80.1351 27.8584 80.1438 28.0684C80.1547 28.1045 80.1598 28.1416 80.1591 28.1787ZM98.257 23.7424C98.2438 23.8514 98.2467 23.9612 98.2657 24.0697C98.3104 24.4551 98.2539 24.8438 98.0998 25.2107C98.022 25.4164 97.8526 25.592 97.6239 25.7042C97.3422 25.8356 97.0196 25.9 96.6939 25.8897C96.1481 25.8897 95.7246 25.9072 95.419 25.9387C95.1318 25.9669 94.8563 26.0471 94.6134 26.1732C94.3798 26.2943 94.2121 26.4819 94.144 26.6982C94.056 27.0015 94.0171 27.3126 94.0283 27.6239V32.5729C93.7464 32.4211 93.4306 32.3142 93.0983 32.2579C92.7745 32.191 92.4484 32.1315 92.1203 32.0794C91.8359 32.0301 91.5832 31.9003 91.4086 31.7137C91.1969 31.5107 91.0964 31.2202 91.0964 30.8387V26.6982C91.0964 26.6369 91.0964 26.5494 91.103 26.4444C91.1117 26.3342 91.1357 26.1854 91.175 25.9947C91.2552 25.5716 91.4652 25.1711 91.7863 24.8292C91.9631 24.6244 92.1902 24.4407 92.4478 24.2867C92.7076 24.1309 93.0438 24.0014 93.4564 23.8964C93.8711 23.7914 94.3252 23.7424 94.8405 23.7424H98.257ZM103.59 35.7369C103.313 35.5902 102.99 35.5073 102.658 35.4972C102.334 35.4748 102.008 35.4625 101.682 35.4604C101.416 35.4604 101.174 35.3484 100.971 35.1279C100.759 34.9039 100.658 34.5399 100.658 34.0342V24.9167C100.674 24.9027 100.735 24.8467 100.844 24.7364C100.934 24.6432 101.037 24.5581 101.15 24.4827C101.243 24.4214 101.407 24.3357 101.658 24.2184C101.917 24.1024 102.193 24.013 102.479 23.9524C102.776 23.8912 103.182 23.8352 103.691 23.7792C104.262 23.7248 104.836 23.6979 105.411 23.6987C107.419 23.6987 108.867 24.0452 109.742 24.7312C110.618 25.4137 111.057 26.5564 111.057 28.1542C111.057 28.9242 110.899 29.5979 110.587 30.1667C110.319 30.6858 109.882 31.1374 109.321 31.4739C108.81 31.7685 108.242 31.9932 107.64 32.1389C107.044 32.2824 106.411 32.3489 105.747 32.3489C104.848 32.3489 104.13 32.2754 103.59 32.1337V35.7369ZM103.59 28.0054V30.2034C103.8 30.2524 104.027 30.2944 104.263 30.3259C104.503 30.3574 104.808 30.3819 105.169 30.4064C105.535 30.4239 105.872 30.3942 106.184 30.3137C106.498 30.2332 106.795 30.1107 107.083 29.9567C107.374 29.8027 107.601 29.5542 107.771 29.2164C107.946 28.8769 108.031 28.4692 108.031 27.9932C108.031 27.6047 107.952 27.2582 107.788 26.9764C107.658 26.7244 107.464 26.4971 107.216 26.3097C106.97 26.1422 106.679 26.0235 106.365 25.9632C106.076 25.8958 105.78 25.8489 105.481 25.8232C105.187 25.8077 104.891 25.8153 104.599 25.8459C104.245 25.8774 104.027 25.8967 103.948 25.9089C103.87 25.9212 103.752 25.9387 103.599 25.9702H103.573C103.573 25.9702 103.573 26.6492 103.59 28.0054ZM116.748 24.0382C117.387 23.8352 118.459 23.7302 119.959 23.7302C120.695 23.7302 121.321 23.8282 121.837 24.0277C122.361 24.2237 122.736 24.4477 122.972 24.6997C123.205 24.9517 123.384 25.2422 123.509 25.5624C123.636 25.8897 123.705 26.1312 123.712 26.2904C123.729 26.4514 123.729 26.5879 123.712 26.6982V32.3244C121.749 32.5292 120.773 32.0532 120.773 30.8877V29.1849C120.789 27.6484 120.695 26.7174 120.498 26.3779C120.304 26.0454 119.686 25.8652 118.662 25.8459C118.021 25.8459 117.381 25.9387 116.739 26.1259V30.8877C116.761 31.5054 116.521 31.9114 116.003 32.1039C115.488 32.2947 114.752 32.3682 113.798 32.3262V20.2634C114.034 20.3982 114.346 20.4787 114.731 20.5032C115.113 20.5277 115.44 20.5399 115.707 20.5399C115.973 20.5399 116.215 20.6519 116.418 20.8724C116.63 21.0964 116.73 21.4604 116.73 21.9662V24.0382H116.748ZM126.987 22.8604C126.842 22.745 126.727 22.6077 126.649 22.4565C126.571 22.3053 126.531 22.1432 126.532 21.9796C126.533 21.816 126.574 21.6541 126.654 21.5034C126.733 21.3527 126.849 21.2161 126.995 21.1017C127.14 20.9838 127.313 20.8907 127.504 20.8281C127.695 20.7656 127.9 20.7348 128.107 20.7377C128.312 20.7363 128.516 20.7678 128.707 20.8303C128.897 20.8928 129.07 20.985 129.216 21.1017C129.521 21.3432 129.678 21.6319 129.678 21.9767C129.678 22.3179 129.521 22.6067 129.216 22.8534C129.071 22.971 128.898 23.0639 128.708 23.1265C128.517 23.1891 128.312 23.22 128.107 23.2174C127.9 23.2203 127.695 23.1902 127.503 23.1289C127.311 23.0676 127.134 22.9763 126.987 22.8604ZM129.552 25.2859C129.552 24.7784 129.451 24.4144 129.24 24.1922C129.03 23.9717 128.794 23.8597 128.528 23.8597C128.264 23.8597 127.934 23.8474 127.552 23.8229C127.221 23.8126 126.899 23.7297 126.622 23.5832V32.3139C127.574 32.3559 128.31 32.2824 128.827 32.0899C129.342 31.8992 129.584 31.4984 129.56 30.8754V25.2859H129.552ZM142.366 26.6912V32.3192C141.912 32.3367 141.515 32.3367 141.194 32.3139C140.875 32.2892 140.562 32.2285 140.264 32.1337C139.985 32.051 139.754 31.8891 139.614 31.6787C139.468 31.4298 139.404 31.155 139.428 30.8807V26.7419C139.232 25.9894 138.341 25.6919 136.76 25.8459C135.939 25.9264 135.464 25.9894 135.33 26.0314C135.37 26.2047 135.394 26.4147 135.394 26.6492V30.8807C135.419 31.1554 135.351 31.4305 135.197 31.6769C135.057 31.8868 134.827 32.049 134.549 32.1337C134.253 32.2291 133.942 32.2898 133.625 32.3139C133.298 32.3384 132.905 32.3437 132.453 32.3192V24.7907C132.453 24.1187 133.822 23.7617 136.551 23.7109C140.413 23.6322 142.351 24.6227 142.366 26.6912ZM145.932 25.9089C145.894 25.7693 145.883 25.6258 145.901 25.4837C145.907 25.3349 145.923 25.1932 145.962 25.0567C145.995 24.9219 146.065 24.7732 146.159 24.6017C146.25 24.4369 146.383 24.2891 146.549 24.1677C146.746 24.036 146.971 23.934 147.213 23.8667C147.495 23.7862 147.824 23.7442 148.206 23.7442H148.754C149.103 23.7318 149.453 23.7318 149.802 23.7442L150.881 23.7792C151.577 23.8133 152.26 23.9473 152.898 24.1747C153.203 24.2797 153.483 24.4284 153.743 24.6122C154 24.8047 154.219 25.0199 154.406 25.2667C154.594 25.5134 154.742 25.8162 154.845 26.1802C154.946 26.5372 155 26.9449 155 27.4017V29.1114C155 29.5367 154.939 29.9182 154.821 30.2647C154.726 30.5619 154.579 30.8466 154.382 31.1099C154.202 31.3275 153.98 31.5212 153.725 31.6839C153.502 31.8306 153.255 31.9529 152.992 32.0479C152.738 32.1342 152.473 32.1964 152.201 32.2334C151.971 32.2723 151.739 32.3009 151.505 32.3192C151.341 32.3314 151.147 32.3367 150.926 32.3367H148.222C148.182 32.3367 148.121 32.3367 148.043 32.3314C147.895 32.3202 147.749 32.3039 147.604 32.2824C147.151 32.234 146.717 32.1074 146.331 31.9114C146.098 31.7987 145.89 31.6569 145.713 31.4914C145.525 31.3056 145.38 31.0947 145.283 30.8684C145.16 30.5915 145.099 30.2995 145.102 30.0057C145.102 29.4369 145.196 28.9627 145.377 28.5742C145.556 28.1857 145.838 27.8882 146.204 27.6799C146.58 27.4699 146.995 27.3212 147.449 27.2424C147.901 27.1602 148.457 27.1182 149.114 27.1182C150.247 27.1182 151.02 27.0569 151.435 26.9397C151.85 26.8224 152.053 26.6369 152.053 26.3902C152.053 26.0384 151.623 25.8039 150.771 25.6797C149.873 25.5558 148.958 25.5287 148.051 25.5992C147.097 25.6552 146.386 25.7602 145.932 25.9089ZM152.138 28.2399C152.067 28.305 151.992 28.3669 151.913 28.4254C151.711 28.5431 151.49 28.6385 151.256 28.7089C150.923 28.8265 150.563 28.8878 150.199 28.8892C149.56 28.8892 149.042 28.9504 148.645 29.0729C148.246 29.1954 148.051 29.3704 148.051 29.5979C148.051 29.8639 148.191 30.0669 148.479 30.2034C148.77 30.3382 149.339 30.4064 150.199 30.4064C150.551 30.4064 150.826 30.4064 151.014 30.4012C151.345 30.3845 151.657 30.2704 151.889 30.0809C151.98 29.9599 152.036 29.8242 152.053 29.6837C152.101 29.4807 152.123 29.2899 152.131 29.1062C152.131 28.9189 152.138 28.6302 152.138 28.2399Z" fill="white"/>
</g>
</svg>
