<svg width="155" height="56" viewBox="0 0 155 56" fill="none" xmlns="http://www.w3.org/2000/svg">
<mask id="mask0_3_1264" style="mask-type:luminance" maskUnits="userSpaceOnUse" x="0" y="0" width="155" height="56">
<path d="M0 0H155V56H0V0Z" fill="white"/>
</mask>
<g mask="url(#mask0_3_1264)">
<path d="M58.1551 12.4458C58.1551 12.9858 58.0799 13.5698 57.9339 14.1998C57.7879 14.8198 57.5486 15.3998 57.2161 15.9398C56.8631 16.5002 56.4252 16.9554 55.9309 17.2758C55.4042 17.6358 54.7632 17.8158 54.0062 17.8158H48.5737V14.1098H54.0062C54.417 14.1098 54.7331 13.9498 54.9573 13.6298C55.1822 13.2965 55.3023 12.8613 55.2929 12.4138C55.2929 11.9038 55.1649 11.5038 54.9106 11.2138C54.6614 10.9234 54.339 10.7684 54.0077 10.7798H48.5737C48.1629 10.7798 47.8468 10.9438 47.6226 11.2738C47.3968 11.5999 47.2763 12.0308 47.287 12.4738V17.9218C47.287 18.4418 47.4104 18.8458 47.6572 19.1358C47.9131 19.4258 48.2261 19.5718 48.5963 19.5718H54.0062V23.2918H48.5737C48.1553 23.2918 47.7039 23.1978 47.2178 23.0058C46.7321 22.8113 46.2768 22.5016 45.874 22.0918C45.4481 21.6356 45.0968 21.0687 44.8416 20.4258C44.5648 19.7358 44.4248 18.9018 44.4248 17.9198V12.4438C44.4248 11.9038 44.5 11.3238 44.6445 10.7038C44.792 10.0738 45.0283 9.49377 45.3518 8.96377C45.6844 8.42377 46.1133 7.97377 46.6384 7.61377C47.1712 7.25377 47.8167 7.07377 48.5737 7.07377H54.0062C54.4246 7.07377 54.8715 7.16777 55.3516 7.35977C55.8376 7.54977 56.2846 7.85977 56.6954 8.28977C57.1122 8.70977 57.4599 9.26377 57.7383 9.95377C58.0151 10.6338 58.1551 11.4658 58.1551 12.4458ZM73.8763 21.3258C73.8778 21.5882 73.8396 21.8484 73.7642 22.0909C73.6887 22.3334 73.5774 22.5534 73.4369 22.7378C73.2997 22.9124 73.1382 23.0496 72.9614 23.1418C72.7778 23.2433 72.5808 23.2943 72.382 23.2918H65.5695C65.1993 23.2918 64.802 23.2378 64.3762 23.1278C63.95 23.0135 63.5347 22.8371 63.1377 22.6018C62.7176 22.344 62.3175 22.0326 61.9428 21.6718C61.5606 21.2862 61.2247 20.8256 60.9466 20.3058C60.6607 19.7658 60.4289 19.1458 60.2514 18.4458C60.0742 17.6782 59.9884 16.8786 59.997 16.0758V7.07377H63.0098V16.0738C63.0098 16.5858 63.0745 17.0458 63.2054 17.4558C63.4756 18.2415 63.9667 18.8554 64.5733 19.1658C64.8893 19.3158 65.2294 19.3918 65.5936 19.3918H70.8651V7.07377H73.8778L73.8763 21.3258ZM87.6653 10.9738H80.8859C80.4751 10.9738 80.1666 11.1098 79.9589 11.3798C79.7498 11.6398 79.6459 12.0238 79.6459 12.5338V23.2918H76.6332V12.5338C76.6332 11.8658 76.6994 11.2638 76.8288 10.7338C76.9613 10.2038 77.1358 9.73977 77.351 9.33977C77.5752 8.92977 77.8311 8.58377 78.1155 8.30377C78.6569 7.75198 79.2884 7.37721 79.9589 7.20977C80.2825 7.11777 80.5834 7.07377 80.8618 7.07377H87.6638L87.6653 10.9738ZM101.615 17.9218C101.615 18.4618 101.54 19.0458 101.394 19.6758C101.248 20.2958 101.007 20.8758 100.676 21.4158C100.323 21.9764 99.8844 22.4317 99.3896 22.7518C98.8644 23.1118 98.2233 23.2918 97.4664 23.2918H92.0339C91.6155 23.2918 91.1641 23.1978 90.6765 23.0058C90.1907 22.8114 89.7354 22.5017 89.3327 22.0918C88.9071 21.6357 88.5563 21.0688 88.3018 20.4258C88.0234 19.7358 87.885 18.9018 87.885 17.9198C87.885 17.3798 87.9587 16.7958 88.1047 16.1658C88.2522 15.5358 88.4869 14.9558 88.812 14.4258C89.1431 13.8858 89.5719 13.4358 90.0971 13.0758C90.6314 12.7158 91.2754 12.5358 92.0324 12.5358H97.4664V16.2558H92.0339C91.6231 16.2558 91.307 16.4198 91.0828 16.7498C90.8566 17.0757 90.7356 17.5066 90.7457 17.9498C90.7457 18.4618 90.8736 18.8618 91.128 19.1498C91.3913 19.4298 91.6998 19.5698 92.0564 19.5698H97.4664C97.8757 19.5698 98.1933 19.4098 98.416 19.0898C98.6417 18.7698 98.7531 18.3698 98.7531 17.8898V12.4438C98.7531 11.9338 98.6282 11.5298 98.3814 11.2298C98.1331 10.925 97.8041 10.7632 97.4664 10.7798H90.8511V7.07377H97.4664C97.8832 7.07377 98.3317 7.16777 98.8102 7.35977C99.2963 7.54977 99.7448 7.85977 100.154 8.28977C100.571 8.70977 100.919 9.26377 101.197 9.95377C101.475 10.6338 101.614 11.4638 101.614 12.4438V17.9198L101.615 17.9218ZM116.294 17.8158C116.294 18.4858 116.229 19.0918 116.097 19.6318C115.966 20.1618 115.791 20.6318 115.576 21.0418C115.359 21.4418 115.109 21.7858 114.823 22.0758C114.271 22.6122 113.639 22.9859 112.969 23.1718C112.652 23.2518 112.351 23.2918 112.065 23.2918H103.909V19.3918H112.042C112.452 19.3918 112.76 19.2558 112.969 18.9858C113.177 18.7158 113.281 18.3258 113.281 17.8158C113.243 16.7758 112.837 16.2558 112.065 16.2558H107.395C106.732 16.2558 106.167 16.1058 105.704 15.8058C105.272 15.5369 104.886 15.1538 104.569 14.6798C104.293 14.2524 104.08 13.7589 103.943 13.2258C103.826 12.7559 103.764 12.2648 103.758 11.7698C103.758 10.8998 103.879 10.1698 104.116 9.57977C104.357 8.97977 104.658 8.49377 105.019 8.12377C105.383 7.75377 105.778 7.48977 106.202 7.32977C106.628 7.15977 107.025 7.07377 107.395 7.07377H114.799V10.9738H107.42C107.293 10.9678 107.167 10.9935 107.048 11.0498C106.964 11.0898 106.897 11.1498 106.852 11.2298C106.813 11.3 106.788 11.3828 106.781 11.4698C106.774 11.5494 106.77 11.6295 106.769 11.7098C106.772 11.8405 106.796 11.969 106.84 12.0858C106.872 12.1661 106.92 12.2332 106.979 12.2798C107.04 12.3198 107.107 12.3438 107.176 12.3538H112.065C112.837 12.3538 113.495 12.5338 114.035 12.8938C114.577 13.2538 115.013 13.7098 115.344 14.2598C115.675 14.7998 115.916 15.3898 116.062 16.0298C116.217 16.6698 116.294 17.2658 116.294 17.8158ZM121.473 3.74377H118.461V0.217773H121.473V3.74377ZM121.473 23.2918H118.461V7.07377H121.473V23.2918ZM137.3 17.9198C137.3 18.4598 137.226 19.0458 137.08 19.6758C136.92 20.3422 136.659 20.9584 136.314 21.4871C135.97 22.0158 135.548 22.446 135.074 22.7518C134.551 23.1118 133.909 23.2918 133.151 23.2918H127.718C127.3 23.2918 126.849 23.1978 126.363 23.0058C125.877 22.8113 125.422 22.5017 125.019 22.0918C124.593 21.636 124.242 21.069 123.988 20.4258C123.71 19.7358 123.57 18.9018 123.57 17.9198C123.57 17.3798 123.643 16.7958 123.791 16.1658C123.937 15.5358 124.173 14.9558 124.497 14.4258C124.829 13.8858 125.258 13.4358 125.783 13.0758C126.316 12.7158 126.962 12.5358 127.718 12.5358H133.151V16.2558H127.718C127.309 16.2558 126.992 16.4198 126.767 16.7498C126.542 17.0759 126.421 17.5068 126.432 17.9498C126.432 18.4618 126.56 18.8618 126.814 19.1498C127.077 19.4298 127.386 19.5698 127.741 19.5698H133.151C133.562 19.5698 133.878 19.4098 134.102 19.0898C134.328 18.7636 134.448 18.3327 134.438 17.8898V12.4438C134.438 11.9338 134.314 11.5298 134.067 11.2298C133.819 10.9249 133.489 10.7631 133.151 10.7798H126.536V7.07377H133.151C133.569 7.07377 134.018 7.16777 134.496 7.35977C134.982 7.54977 135.431 7.85977 135.84 8.28977C136.257 8.70977 136.605 9.26377 136.883 9.95377C137.161 10.6338 137.3 11.4638 137.3 12.4438V17.9198ZM153.752 23.2918H150.74V14.2918C150.746 13.8215 150.675 13.3551 150.531 12.9258C150.406 12.5282 150.221 12.1698 149.986 11.8738C149.75 11.5801 149.47 11.3552 149.164 11.2138C148.842 11.0507 148.5 10.9693 148.156 10.9738H142.884V23.2918H139.872V9.00977C139.872 8.73977 139.911 8.48977 139.988 8.25977C140.061 8.02551 140.172 7.81532 140.313 7.64377C140.603 7.27635 140.989 7.07215 141.39 7.07377H148.178C148.558 7.07377 148.955 7.12777 149.372 7.23777C149.798 7.34777 150.215 7.52977 150.624 7.77777C151.041 8.01777 151.435 8.32977 151.805 8.70977C152.184 9.07977 152.515 9.53377 152.801 10.0738C153.095 10.6038 153.327 11.2198 153.497 11.9198C153.667 12.6198 153.752 13.4098 153.752 14.2898V23.2918ZM68.4197 49.1358C68.4197 49.8058 68.355 50.4058 68.2241 50.9358C68.1063 51.439 67.9301 51.9148 67.7019 52.3458C67.4852 52.7558 67.2354 53.1018 66.9495 53.3818C66.6635 53.6718 66.3626 53.9058 66.045 54.0858C65.7408 54.2637 65.4222 54.3946 65.0955 54.4758C64.778 54.5658 64.477 54.6118 64.1926 54.6118H58.757V50.7118H64.1911C64.6004 50.7118 64.9059 50.5758 65.106 50.3058C65.3077 50.0358 65.407 49.6458 65.407 49.1358V36.8178C65.407 36.3078 65.3077 35.9238 65.106 35.6618C64.9059 35.3938 64.6004 35.2578 64.1911 35.2578H58.757C58.3868 35.2578 58.0934 35.4078 57.8767 35.7078C57.7687 35.8538 57.6842 36.0276 57.6283 36.2184C57.5725 36.4092 57.5464 36.6131 57.5516 36.8178V42.0978C57.5516 42.6098 57.657 42.9978 57.8647 43.2698C58.0738 43.5398 58.3793 43.6738 58.7811 43.6738H64.1911V47.5738H58.757C58.4711 47.5738 58.1701 47.5338 57.8541 47.4538C57.187 47.2727 56.5581 46.8985 56.0122 46.3578C55.7236 46.0648 55.4695 45.7163 55.2583 45.3238C55.0332 44.8903 54.8573 44.4152 54.7361 43.9138C54.6001 43.3264 54.5341 42.7143 54.5404 42.0998V36.8198C54.5404 36.4478 54.5705 36.0578 54.6322 35.6478C54.78 34.7801 55.0686 33.9657 55.478 33.2618C55.7037 32.8918 55.9685 32.5678 56.2785 32.2878C56.5946 32.0078 56.9572 31.7818 57.3665 31.6118C57.7759 31.4418 58.2394 31.3578 58.757 31.3578H64.1911C64.477 31.3578 64.778 31.4018 65.094 31.4918C65.419 31.5718 65.7366 31.7018 66.045 31.8818C66.3611 32.0618 66.662 32.2978 66.948 32.5878C67.2339 32.8678 67.4852 33.2118 67.7004 33.6218C67.9186 34.0218 68.0916 34.4878 68.2226 35.0178C68.355 35.5478 68.4197 36.1478 68.4197 36.8178V49.1358ZM84.1078 42.2038C84.1078 42.7438 84.0341 43.3298 83.8866 43.9598C83.7406 44.5798 83.5014 45.1598 83.1688 45.6998C82.8452 46.2298 82.4164 46.6738 81.8836 47.0358C81.3569 47.3958 80.7174 47.5758 79.9604 47.5758H74.5264C74.1096 47.5758 73.6566 47.4798 73.1705 47.2898C72.6846 47.0948 72.2294 46.7844 71.8267 46.3738C71.4009 45.9184 71.0496 45.3521 70.7944 44.7098C70.5175 44.0198 70.379 43.1838 70.379 42.2038C70.379 41.6638 70.4513 41.0778 70.5987 40.4478C70.7447 39.8178 70.981 39.2378 71.306 38.7078C71.6371 38.1678 72.066 37.7178 72.5912 37.3578C73.1239 36.9978 73.7695 36.8178 74.5264 36.8178H79.9589V40.5378H74.5264C74.1171 40.5378 73.7996 40.7038 73.5753 41.0338C73.3497 41.36 73.2292 41.7908 73.2398 42.2338C73.2398 42.7438 73.3677 43.1438 73.622 43.4338C73.8853 43.7138 74.1938 43.8538 74.549 43.8538H79.9604C80.3698 43.8538 80.6858 43.6938 80.9085 43.3738C81.1347 43.0478 81.2557 42.617 81.2456 42.1738V36.7278C81.2456 36.2178 81.1222 35.8138 80.8754 35.5138C80.6273 35.2085 80.2984 35.046 79.9604 35.0618H73.3436V31.3598H79.9604C80.3773 31.3598 80.8257 31.4538 81.3043 31.6438C81.7903 31.8338 82.2373 32.1438 82.6481 32.5738C83.0649 32.9938 83.4126 33.5498 83.691 34.2398C83.9679 34.9198 84.1078 35.7498 84.1078 36.7298V42.2038ZM97.8607 47.5758H94.848V36.8178C94.848 36.3078 94.7426 35.9238 94.5349 35.6618C94.3273 35.3938 94.0173 35.2578 93.608 35.2578H89.6923V47.5758H86.6796V33.2918C86.6796 33.0218 86.7187 32.7718 86.7955 32.5418C86.8695 32.3085 86.9804 32.0992 87.1205 31.9278C87.4111 31.5605 87.797 31.3564 88.198 31.3578H93.6305C94.6061 31.375 95.5537 31.7943 96.3423 32.5578V31.3578H100.42C100.706 31.3578 101.007 31.4018 101.323 31.4918C101.641 31.5718 101.955 31.7018 102.262 31.8818C102.58 32.0618 102.881 32.2978 103.165 32.5878C103.451 32.8678 103.704 33.2118 103.919 33.6218C104.136 34.0218 104.31 34.4878 104.441 35.0178C104.572 35.5478 104.637 36.1478 104.637 36.8178V47.5758H101.627V36.8178C101.627 36.3078 101.525 35.9238 101.325 35.6618C101.132 35.3938 100.83 35.2578 100.422 35.2578H97.7102C97.8095 35.7378 97.8607 36.2578 97.8607 36.8178V47.5758ZM110.477 28.0258H107.465V24.4998H110.477V28.0258ZM110.477 47.5758H107.465V31.3558H110.477V47.5758ZM127.255 47.5758H124.242V38.5738C124.249 38.1035 124.178 37.6371 124.033 37.2078C123.909 36.8107 123.723 36.453 123.488 36.1582C123.252 35.8635 122.972 35.6384 122.667 35.4978C122.345 35.3349 122.003 35.2535 121.658 35.2578H116.387V47.5758H113.374V33.2918C113.374 33.0218 113.413 32.7718 113.49 32.5418C113.564 32.3085 113.675 32.0992 113.815 31.9278C114.106 31.5605 114.492 31.3564 114.893 31.3578H121.681C122.06 31.3578 122.458 31.4118 122.874 31.5218C123.3 31.6318 123.717 31.8118 124.126 32.0618C124.543 32.3018 124.938 32.6118 125.308 32.9918C125.687 33.3618 126.018 33.8178 126.304 34.3578C126.597 34.8878 126.829 35.5038 126.999 36.2038C127.169 36.9038 127.255 37.6938 127.255 38.5738V47.5758ZM143.521 49.1358C143.521 49.8058 143.456 50.4058 143.324 50.9358C143.207 51.439 143.031 51.9148 142.803 52.3458C142.596 52.7432 142.341 53.0932 142.049 53.3818C141.763 53.6718 141.462 53.9058 141.146 54.0858C140.838 54.2658 140.52 54.3958 140.197 54.4758C139.9 54.5629 139.597 54.6085 139.292 54.6118H133.858V50.7118H139.292C139.702 50.7118 140.007 50.5758 140.207 50.3058C140.409 50.0358 140.51 49.6458 140.51 49.1358V36.8178C140.51 36.3078 140.409 35.9238 140.207 35.6618C140.007 35.3938 139.702 35.2578 139.292 35.2578H133.858C133.488 35.2578 133.195 35.4078 132.978 35.7078C132.87 35.8538 132.785 36.0276 132.73 36.2184C132.674 36.4092 132.648 36.6131 132.653 36.8178V42.0978C132.653 42.6098 132.758 42.9978 132.966 43.2698C133.175 43.5398 133.481 43.6738 133.881 43.6738H139.292V47.5738H133.858C133.572 47.5738 133.271 47.5338 132.955 47.4538C132.288 47.2713 131.659 46.8973 131.112 46.3578C130.824 46.0645 130.57 45.716 130.36 45.3238C130.134 44.8906 129.959 44.4154 129.839 43.9138C129.702 43.3266 129.635 42.7145 129.642 42.0998V36.8198C129.642 36.4478 129.672 36.0578 129.733 35.6478C129.881 34.7801 130.17 33.9658 130.579 33.2618C130.803 32.8918 131.07 32.5678 131.378 32.2878C131.696 32.0078 132.058 31.7818 132.468 31.6118C132.877 31.4418 133.341 31.3578 133.858 31.3578H139.292C139.578 31.3578 139.879 31.4018 140.197 31.4918C140.52 31.5718 140.838 31.7018 141.146 31.8818C141.462 32.0618 141.763 32.2978 142.049 32.5878C142.335 32.8678 142.586 33.2118 142.803 33.6218C143.02 34.0218 143.193 34.4878 143.324 35.0178C143.456 35.5478 143.521 36.1478 143.521 36.8178V49.1358Z" fill="white"/>
<path fill-rule="evenodd" clip-rule="evenodd" d="M4.39422 6.33573C0.620049 8.90973 0.0105822 11.0177 4.82097e-05 21.5197C-0.00898092 30.3457 0.180632 31.5237 2.04665 34.1797C3.77573 36.6437 5.25651 37.1737 10.5581 37.2297C13.2729 37.2577 15.7935 37.2697 16.1622 37.2537C16.7416 37.2337 16.8318 36.6997 16.8318 33.2637V29.2997H11.8839C7.89602 29.2997 6.81854 29.1477 6.33398 28.5197C5.84942 27.8937 5.73204 26.5057 5.73204 21.4117C5.73204 13.0077 5.31971 13.4417 13.321 13.4417C19.0515 13.4417 19.5692 13.5157 20.296 14.4577C20.8378 15.1577 21.0033 15.8117 20.8302 16.5637C20.3487 18.6697 19.667 18.8917 13.6972 18.8917H8.02844V26.8217L14.248 26.8097C21.372 26.7977 22.7218 26.3197 24.788 23.0757C26.7714 19.9557 27.2259 14.5597 25.8083 10.9637C25.1763 9.36373 23.4743 7.32373 21.9213 6.31173C20.1455 5.15173 6.10073 5.17173 4.39422 6.33573Z" fill="#D3B05D"/>
<path d="M18.8408 30.0819C22.0838 28.8779 23.3072 27.9659 25.2515 25.3019L27.3568 22.4179L32.3318 22.4019C38.0232 22.3819 40.2128 22.8919 41.9915 24.6479C44.479 27.1059 44.9365 29.0839 45.084 38.0139C45.245 47.7299 44.935 49.5859 42.6822 52.3899C40.452 55.1699 38.9261 55.5639 30.4402 55.5639H23.3373V47.6939L30.7818 47.5419C36.2399 47.4299 38.3603 47.2159 38.7245 46.7459C39.0706 46.2979 39.2587 44.0299 39.3445 39.2959C39.5055 30.3499 39.6891 30.5999 32.8074 30.3739C30.061 30.2839 27.2424 30.3479 26.5442 30.5179C24.1876 31.0899 23.3915 33.3339 24.8678 35.2459C25.566 36.1499 26.1439 36.2379 31.3913 36.2379H37.1474L37.036 40.0779L36.9247 43.9179L31.2634 44.0579C27.9076 44.1379 24.9475 43.9659 23.998 43.6339C21.9258 42.9119 19.36 39.6319 18.7912 36.9799C18.2103 34.2679 18.2389 30.3059 18.8408 30.0819Z" fill="white"/>
</g>
</svg>
