<svg fill="none" viewBox="0 0 150 56" id="providers--eurasiangaming" xmlns="http://www.w3.org/2000/svg"><g clip-path="url(#gfclip0_11726_3096)"><path d="M61.645 20.223c0 .27-.05.562-.147.877-.097.31-.256.6-.477.87a2.6 2.6 0 01-.854.668c-.35.18-.776.27-1.279.27h-3.61v-1.853h3.61c.273 0 .483-.08.632-.24a.874.874 0 00.223-.608c0-.255-.085-.455-.254-.6a.876.876 0 00-.6-.217h-3.611c-.273 0-.483.082-.632.247a.846.846 0 00-.223.6v2.724c0 .26.082.462.246.607.17.145.378.218.624.218h3.595v1.86h-3.61c-.278 0-.578-.047-.901-.143a2.796 2.796 0 01-.893-.457 2.669 2.669 0 01-.686-.833c-.184-.345-.277-.762-.277-1.253v-2.738c0-.27.05-.56.146-.87.098-.315.255-.605.47-.87.221-.27.506-.495.855-.675.354-.18.783-.27 1.286-.27h3.61c.278 0 .575.047.894.143.323.095.62.25.893.465.277.21.508.487.693.832.184.34.277.755.277 1.245zm10.447 4.44a.982.982 0 01-.292.706.968.968 0 01-.316.202.978.978 0 01-.385.075h-4.527c-.246 0-.51-.027-.793-.082a3.927 3.927 0 01-.823-.263 4.737 4.737 0 01-.794-.465 3.147 3.147 0 01-.662-.683c-.19-.27-.344-.58-.462-.93a3.854 3.854 0 01-.169-1.185v-4.501h2.002v4.5c0 .256.043.486.13.691a1.652 1.652 0 00.909.855c.21.075.436.113.678.113h3.503v-6.159h2.002v7.126zm9.163-5.176H76.75c-.273 0-.478.068-.616.203-.139.13-.208.322-.208.577v5.379h-2.002v-5.379c0-.334.044-.635.13-.9.088-.265.204-.497.347-.697.149-.205.319-.378.508-.518a2.89 2.89 0 011.225-.547c.215-.046.415-.068.6-.068h4.52v1.95zm9.27 3.474c0 .27-.05.562-.147.877-.097.31-.257.6-.477.87a2.6 2.6 0 01-.855.668c-.349.18-.775.27-1.278.27h-3.61c-.278 0-.578-.047-.902-.143a2.793 2.793 0 01-.893-.457 2.662 2.662 0 01-.685-.833c-.185-.345-.277-.762-.277-1.253 0-.27.049-.562.146-.877.098-.315.254-.605.47-.87.22-.27.505-.495.854-.675.355-.18.783-.27 1.286-.27h3.611v1.86h-3.61c-.273 0-.483.082-.632.247a.847.847 0 00-.224.6c0 .256.085.456.254.6.175.14.38.21.617.21h3.595c.272 0 .483-.08.631-.24.15-.16.224-.36.224-.6v-2.723c0-.255-.083-.457-.247-.607a.85.85 0 00-.608-.225h-4.396v-1.853h4.396c.277 0 .575.047.893.143.323.095.621.25.893.465.277.21.508.487.693.832.185.34.277.755.277 1.245v2.738zm9.754-.053c0 .335-.043.638-.131.908-.087.265-.203.5-.346.705-.144.2-.31.372-.5.517a3.195 3.195 0 01-1.232.548c-.211.04-.411.06-.601.06h-5.42v-1.95h5.405c.272 0 .477-.068.616-.203.138-.135.207-.33.207-.585-.025-.52-.295-.78-.808-.78h-3.103c-.441 0-.816-.075-1.124-.225a2.33 2.33 0 01-.754-.563 2.215 2.215 0 01-.416-.727 2.423 2.423 0 01-.123-.728c0-.435.08-.8.238-1.095.16-.3.36-.543.6-.728.242-.185.504-.317.786-.397.283-.085.547-.128.793-.128h4.92v1.95h-4.904a.667.667 0 00-.247.038c-.056.02-.1.05-.13.09a.245.245 0 00-.047.12.948.948 0 00-.008.12.44.44 0 00.047.188.247.247 0 00.092.097c.041.02.085.032.131.037h3.249c.513 0 .95.09 1.309.27.36.18.65.408.87.683.22.27.38.565.477.885.103.32.154.618.154.893zm3.442-7.036h-2.002v-1.763h2.002v1.763zm0 9.774h-2.002v-8.109h2.002v8.109zm10.517-2.686c0 .27-.049.563-.146.878a2.586 2.586 0 01-1.333 1.538c-.348.18-.774.27-1.278.27h-3.61c-.278 0-.578-.047-.901-.143a2.795 2.795 0 01-.893-.457 2.655 2.655 0 01-.685-.833c-.185-.345-.278-.762-.278-1.253 0-.27.049-.562.147-.877.097-.315.254-.605.469-.87.221-.27.506-.495.855-.675.354-.18.783-.27 1.286-.27h3.61v1.86h-3.61c-.272 0-.483.082-.632.247a.846.846 0 00-.223.6c0 .256.085.456.254.6.175.14.38.21.616.21h3.595c.273 0 .483-.08.632-.24a.846.846 0 00.223-.6v-2.723c0-.255-.082-.457-.246-.607a.852.852 0 00-.609-.225h-4.396v-1.853h4.396c.278 0 .576.047.894.143.323.095.621.25.893.465.277.21.508.487.693.832.185.34.277.755.277 1.245v2.738zm10.933 2.686h-2.002v-4.5a1.6 1.6 0 00-.139-.683 1.535 1.535 0 00-.362-.526 1.542 1.542 0 00-.546-.33 1.83 1.83 0 00-.67-.12h-3.503v6.159h-2.002v-7.141c0-.135.026-.26.077-.375a.874.874 0 01.216-.308 1.034 1.034 0 01.716-.285h4.511c.252 0 .516.027.793.082.283.055.56.146.832.27.277.12.539.276.785.466.252.185.472.412.662.682.195.265.349.573.462.923.113.35.17.745.17 1.185v4.501zM68.466 38.568c0 .335-.043.635-.13.9a2.53 2.53 0 01-.347.705c-.144.205-.31.378-.5.518-.19.145-.39.262-.601.352a2.88 2.88 0 01-.631.195c-.211.045-.411.068-.6.068h-3.612v-1.95h3.611c.272 0 .475-.068.608-.203.134-.135.2-.33.2-.585v-6.159c0-.255-.066-.447-.2-.578-.133-.134-.336-.202-.608-.202h-3.611c-.246 0-.441.075-.585.225a.755.755 0 00-.216.555v2.64c0 .256.07.45.208.586.139.135.342.202.609.202h3.595v1.95h-3.611c-.19 0-.39-.02-.6-.06a3.08 3.08 0 01-1.224-.548 2.43 2.43 0 01-.501-.517 2.691 2.691 0 01-.347-.705 2.946 2.946 0 01-.13-.907v-2.64c0-.186.02-.381.061-.586a3.053 3.053 0 01.562-1.193c.15-.185.326-.347.532-.487.21-.14.451-.253.723-.338.272-.085.58-.127.924-.127h3.611c.19 0 .39.022.6.067.216.04.427.105.632.195.21.09.41.208.6.353.19.14.357.312.5.517.145.2.26.433.347.698.088.265.131.565.131.9v6.159zm10.425-3.466c0 .27-.049.563-.147.878-.097.31-.256.6-.477.87-.215.265-.5.487-.854.668-.35.18-.775.27-1.278.27h-3.611c-.277 0-.578-.048-.901-.143a2.793 2.793 0 01-.893-.458 2.665 2.665 0 01-.686-.832c-.184-.345-.276-.763-.276-1.253 0-.27.048-.563.146-.878.097-.315.254-.605.47-.87.22-.27.505-.495.854-.675.354-.18.783-.27 1.286-.27h3.61v1.86h-3.61c-.272 0-.483.083-.632.248a.847.847 0 00-.223.6c0 .255.085.455.254.6.175.14.38.21.616.21h3.596c.272 0 .482-.08.63-.24a.847.847 0 00.224-.6v-2.723c0-.255-.082-.457-.246-.607a.851.851 0 00-.608-.226h-4.397V29.68h4.397c.277 0 .575.047.893.142.323.095.62.25.893.465.277.21.508.488.693.833.184.34.277.755.277 1.245v2.738zm9.139 2.686h-2.002v-5.379c0-.255-.07-.447-.208-.578-.138-.134-.344-.202-.616-.202h-2.602v6.159H80.6v-7.142c0-.135.026-.26.077-.375a.884.884 0 01.216-.307 1.035 1.035 0 01.716-.285h3.61a3.131 3.131 0 011.802.6v-.6h2.71c.19 0 .39.022.6.067.211.04.42.105.624.195.211.09.411.208.6.353.19.14.358.312.501.517.144.2.26.433.347.698.087.265.13.565.13.9v5.379h-2v-5.379c0-.255-.068-.447-.201-.578-.128-.134-.329-.202-.6-.202H87.93c.066.24.1.5.1.78v5.379zm8.384-9.775h-2.002V26.25h2.002v1.763zm0 9.775h-2.002v-8.11h2.002v8.11zm11.149 0h-2.002v-4.501a1.6 1.6 0 00-.139-.683 1.522 1.522 0 00-.908-.855 1.834 1.834 0 00-.67-.12h-3.503v6.159h-2.002v-7.142c0-.135.026-.26.077-.375a.884.884 0 01.216-.307 1.035 1.035 0 01.716-.285h4.511c.252 0 .516.027.793.082.283.055.56.145.832.27.277.12.539.275.785.465.252.185.472.413.662.683.195.265.349.573.462.923.113.35.17.745.17 1.185v4.5zm10.809.78c0 .335-.043.635-.131.9a2.52 2.52 0 01-.346.705 2.226 2.226 0 01-.501.518c-.19.145-.39.262-.6.352-.205.09-.416.155-.631.195a2.895 2.895 0 01-.601.068h-3.611v-1.95h3.611c.272 0 .475-.068.608-.203.134-.135.201-.33.201-.585v-6.159c0-.255-.067-.447-.201-.578-.133-.134-.336-.202-.608-.202h-3.611c-.246 0-.441.075-.585.225a.755.755 0 00-.216.555v2.64c0 .256.07.45.208.586.139.135.342.202.608.202h3.596v1.95h-3.611c-.19 0-.39-.02-.6-.06a3.106 3.106 0 01-1.225-.548 2.435 2.435 0 01-.5-.517 2.662 2.662 0 01-.346-.705 2.922 2.922 0 01-.131-.907v-2.64c0-.186.02-.381.061-.586a3.054 3.054 0 01.562-1.193c.149-.185.326-.347.531-.487.211-.14.452-.253.724-.338.272-.085.58-.127.924-.127h3.611c.19 0 .39.022.601.067.215.04.426.105.631.195.21.09.41.208.6.353.19.14.357.312.501.517.144.2.259.433.346.698.088.265.131.565.131.9v6.159z" fill="#fff"></path><path fill-rule="evenodd" clip-rule="evenodd" d="M25.92 17.168c-2.508 1.287-2.913 2.341-2.92 7.592-.006 4.413.12 5.002 1.36 6.33 1.149 1.232 2.133 1.497 5.656 1.525 1.804.014 3.479.02 3.724.012.385-.01.445-.277.445-1.995V28.65h-3.288c-2.65 0-3.366-.076-3.688-.39-.322-.313-.4-1.007-.4-3.554 0-4.202-.274-3.985 5.043-3.985 3.808 0 4.152.037 4.635.508.36.35.47.677.355 1.053-.32 1.053-.773 1.164-4.74 1.164h-3.767v3.965l4.133-.006c4.734-.006 5.631-.245 7.004-1.867 1.318-1.56 1.62-4.258.678-6.056-.42-.8-1.551-1.82-2.583-2.326-1.18-.58-10.514-.57-11.648.012z" fill="#D3B05D"></path><path d="M35.52 29.041c2.155-.602 2.968-1.058 4.26-2.39l1.399-1.442 3.306-.008c3.782-.01 5.237.245 6.419 1.123 1.653 1.229 1.957 2.218 2.055 6.683.107 4.858-.099 5.786-1.596 7.188-1.482 1.39-2.496 1.587-8.135 1.587h-4.72v-3.935l4.947-.076c3.627-.056 5.036-.163 5.278-.398.23-.224.355-1.358.412-3.725.107-4.473.229-4.348-4.344-4.461-1.825-.045-3.698-.013-4.162.072-1.566.286-2.095 1.408-1.114 2.364.464.452.848.496 4.335.496h3.825l-.074 1.92-.074 1.92-3.762.07c-2.23.04-4.197-.046-4.828-.212-1.377-.361-3.082-2.001-3.46-3.327-.386-1.356-.367-3.337.033-3.449z" fill="#fff"></path></g></svg>