<svg width="176" height="35" viewBox="0 0 176 35" fill="none" xmlns="http://www.w3.org/2000/svg">
<path fill-rule="evenodd" clip-rule="evenodd" d="M4.7152 0.345007C3.16 0.705006 2.4176 0.963337 0.8992 1.67333L0 2.09333L0.670401 3.76999C2.4128 8.13331 3.6176 10.27 5.4256 12.195C7.3712 14.27 9.872 15.6116 13.2656 16.405C14.6048 16.7166 15.8848 16.8383 18.7376 16.9183C23.0512 17.04 23.376 16.9933 23.3728 16.2533C23.368 15.26 22.7104 12.285 22.144 10.695C19.4656 3.17833 11.8928 -1.31832 4.7152 0.345007ZM87.8048 17.8333V32.6482H92.9104V3.02H87.8048V17.8333ZM28.656 18.025V32.6482H48.7232V27.8699H33.7632V20.0333H43.4448V15.2533H33.7632V8.18331H48.3744V3.4H28.656V18.0233V18.025ZM128.998 6.07832V8.75498H134.278V3.4H128.998V6.07832ZM120.328 6.39665L117.907 7.85998V11.8133H115.091V16.21H117.907L117.912 22.3733C117.914 25.8766 117.994 28.9099 118.096 29.3982C118.363 30.6682 118.992 31.5799 119.965 32.0982C120.726 32.5066 121.093 32.5582 123.584 32.6166L126.357 32.6816V28.0599H124.888C122.704 28.0599 122.837 28.4666 122.837 21.7849V16.21H126.72L126.67 14.06L126.619 11.91L124.731 11.8533L122.843 11.8L122.795 8.36665L122.747 4.93332L120.328 6.39665ZM73.4576 11.625C70.5328 12.2583 68.0272 14.2916 66.8096 17.0166C65.9824 18.8666 65.7216 20.1433 65.7216 22.3266C65.7216 25.6783 66.5408 27.9516 68.512 30.0716C70.4544 32.1599 72.5056 33.0299 75.4816 33.0299C79.4976 33.0299 82.7584 30.9849 84.352 27.4666C87.3376 20.8799 84.2144 13.1433 77.992 11.7116C76.7168 11.4166 74.6016 11.3783 73.4576 11.625ZM144.226 11.625C140.306 12.4733 137.395 15.655 136.653 19.9049C135.949 23.9416 136.859 27.4699 139.28 30.0716C141.222 32.1599 143.274 33.0299 146.25 33.0299C149.171 33.0299 151.57 32.0299 153.402 30.0466C157.171 25.9666 157.202 18.5549 153.467 14.4916C152.294 13.215 150.376 12.0833 148.76 11.7116C147.483 11.4166 145.37 11.3783 144.226 11.625ZM167.022 11.7366C165.922 12.1666 164.728 13.1616 164.205 14.0833C163.963 14.5116 163.726 14.8633 163.677 14.8666C163.629 14.87 163.589 14.205 163.589 13.39V11.9083L161.08 11.855L158.573 11.8016V32.6499H163.661L163.712 26.1033C163.763 19.7366 163.776 19.5299 164.17 18.6033C164.926 16.82 165.814 16.1533 167.462 16.1316C168.923 16.1116 169.782 16.62 170.365 17.8483L170.806 18.7816L170.861 25.7149L170.915 32.6482H176L175.994 25.9116C175.987 18.7499 175.854 17.1083 175.136 15.345C174.531 13.8616 173.654 12.8583 172.357 12.1633C171.322 11.61 170.994 11.5316 169.501 11.4833C168.283 11.445 167.594 11.515 167.022 11.7366ZM47.5776 12.53C47.72 12.9233 49.3776 17.59 51.2608 22.8999L54.6864 32.5532H59.496L62.9744 22.2299L66.4512 11.9083L63.9888 11.855C62.6352 11.8266 61.4864 11.845 61.4384 11.8983C61.3904 11.95 60.4512 15.0716 59.3504 18.8316C58.2512 22.5933 57.3024 25.7999 57.2464 25.9583C57.1888 26.1149 56.5568 24.3999 55.8384 22.1349C55.0748 19.7291 54.3106 17.3236 53.5456 14.9183L52.5568 11.8133H47.3184L47.5776 12.53ZM95.9024 19.0366C95.9024 24.8299 95.9552 26.4766 96.1664 27.3566C97.0032 30.8449 99.1968 32.8182 102.434 32.9932C104.722 33.1166 105.707 32.7432 107.11 31.2166L108.226 30.0066V32.6482H113.331V11.8133H108.254L108.182 18.1683C108.106 25.1116 108.008 25.8733 107.04 27.1233C106.077 28.3649 104.259 28.7832 102.856 28.0832C102.018 27.6666 101.656 27.2533 101.235 26.2366C100.957 25.5649 100.915 24.7099 100.864 18.6466L100.808 11.8133H95.9024V19.0366ZM128.998 22.2299V32.6466H134.102V11.8133H128.998V22.2299ZM77.7696 16.4716C79.3984 17.3533 80.2976 19.4299 80.3008 22.3266C80.3056 25.1483 79.4112 27.1383 77.7088 28.1049C76.6576 28.6999 74.4576 28.7049 73.432 28.1133C71.6784 27.0999 70.904 25.3233 70.904 22.3099C70.904 20.2433 71.1744 19.0599 71.912 17.8816C73.0832 16.0116 75.7376 15.3733 77.7696 16.4716ZM148.49 16.4316C149.869 17.1366 150.694 18.6283 150.998 20.9599C151.424 24.2099 150.437 26.9799 148.45 28.1149C147.427 28.6999 145.214 28.6982 144.2 28.1133C142.44 27.0966 141.619 25.2133 141.638 22.2399C141.658 19.4133 142.392 17.6199 143.931 16.64C144.611 16.2046 145.387 15.957 146.184 15.9206C146.982 15.8841 147.775 16.06 148.49 16.4316ZM15.6288 18.3233C10.7968 18.9483 7.5712 20.5233 4.9536 23.5366C3.4144 25.3066 2.5392 26.8566 1.0288 30.4816L0.00799866 32.9349L1.1728 33.5516C3.2288 34.6432 4.8176 34.9949 7.7072 34.9999C9.792 35.0032 10.5184 34.9282 11.6688 34.5882C16.9488 33.0249 20.888 28.8966 22.5488 23.1799C23.0544 21.4349 23.5024 18.5766 23.3024 18.3599C23.1104 18.1516 17.1824 18.1216 15.6288 18.3233Z" fill="white"/>
</svg>
