<svg fill="none" viewBox="0 0 150 56" id="providers--evoplay" xmlns="http://www.w3.org/2000/svg"><path d="M16 33.983V38h11.465l1.735-4.017H16zm0-4.858v4.08l14.408-1.989 1.877-4.348L16 29.125zm0-5.012v4.208l17.596-4.463L35.69 19 16 24.113z" fill="#0099FA"></path><path d="M26.604 31.446a.528.528 0 00.436-.424.519.519 0 00-.184-.495.537.537 0 00-.252-.114.528.528 0 00-.435.424.519.519 0 00.184.494c.072.06.159.099.251.115z" fill="#0099FA"></path><path d="M44.25 30.732h3.857l1.26-2.984H44.25v-2.066h6.002l1.363-3.188.013-.025H40.484v13.644h11.157V32.9h-7.39v-2.168zm43.868-8.263h-5.9v13.644h3.856V32.21h1.902a6.683 6.683 0 004.28-1.275 4.327 4.327 0 001.632-3.621 4.352 4.352 0 00-.354-1.958 4.39 4.39 0 00-1.188-1.6 6.334 6.334 0 00-4.228-1.288zm1.285 6.299a2.418 2.418 0 01-1.556.434h-1.812v-3.558h1.787a2.585 2.585 0 011.62.459 1.622 1.622 0 01.578 1.275 1.644 1.644 0 01-.579 1.39h-.038zm9.575-6.3H95.16v13.645h8.431l1.414-3.316h-6.028V22.47zm12.518-.101l-4.922 11.552-.926 2.194h4.01l.978-2.435h5.308l1.002 2.435h4.087l-5.861-13.746h-3.676zm.257 8.365l1.556-3.825 1.529 3.825h-3.085zm16.98-8.263l-2.853 4.973-2.828-4.973h-4.344l5.231 8.53v5.114h3.83v-5.165l5.231-8.48h-4.267zm-65.833 0L59.777 31.1l-3.123-8.632h-4.267l5.578 13.746h3.534l5.591-13.746H62.9zm10.63-.243a7.186 7.186 0 00-3.971 1.195 7.102 7.102 0 00-2.633 3.182 7.037 7.037 0 00-.406 4.096 7.073 7.073 0 001.956 3.63 7.164 7.164 0 003.659 1.94 7.198 7.198 0 004.128-.403 7.134 7.134 0 003.208-2.61 7.05 7.05 0 00-.889-8.953 7.126 7.126 0 00-2.316-1.536 7.214 7.214 0 00-2.737-.541zm0 10.814c-.744 0-1.47-.219-2.086-.628a3.73 3.73 0 01-1.382-1.671 3.696 3.696 0 01.813-4.058 3.781 3.781 0 014.09-.807c.687.283 1.273.76 1.685 1.371.412.613.632 1.333.632 2.069a3.709 3.709 0 01-1.104 2.625c-.347.344-.76.617-1.215.803a3.788 3.788 0 01-1.434.282v.013z" fill="#fff"></path></svg>