<svg width="155" height="56" viewBox="0 0 155 56" fill="none" xmlns="http://www.w3.org/2000/svg">
<path d="M0 44.1604V56H15.1887L17.4872 44.1604H0ZM0 29.8421V41.8674L19.0875 36.0051L21.5741 23.1899L0 29.8421ZM0 15.0699V27.4724L23.3109 14.3183L26.085 0L0 15.0699Z" fill="#0099FA"/>
<path d="M14.0481 36.6833C14.1905 36.6329 14.3225 36.4858 14.4259 36.2621C14.5293 36.0383 14.5991 35.749 14.6257 35.4336C14.6475 35.1642 14.6363 34.8866 14.5935 34.63C14.5506 34.3734 14.4775 34.1471 14.3819 33.9747C14.2858 33.7997 14.1707 33.6839 14.0481 33.6387C13.9059 33.6896 13.7742 33.837 13.6711 34.0607C13.568 34.2843 13.4984 34.5734 13.4718 34.8884C13.4503 35.1574 13.4616 35.4343 13.5044 35.6903C13.5473 35.9464 13.6202 36.1722 13.7156 36.3444C13.811 36.5212 13.9262 36.6361 14.0481 36.6833Z" fill="#0099FA"/>
<path d="M37.4252 34.5789H42.5349L44.2042 25.7839H37.4252V19.6946H45.3766L47.1823 10.2984L47.1995 10.2248H32.4361V50.4386H47.2167V40.9688H37.4266L37.4252 34.5789ZM95.541 10.2248H87.7247V50.4386H92.8331V38.9351H95.3528C97.3806 39.166 99.3825 37.8393 101.023 35.1772C101.74 33.9116 102.311 32.2822 102.687 30.4255C103.063 28.5687 103.234 26.5385 103.185 24.5048C103.231 22.5263 103.071 20.5511 102.716 18.7338C102.361 16.9143 101.822 15.3008 101.142 14.018C99.5405 11.2974 97.5523 9.95284 95.541 10.2248ZM97.2433 28.7902C96.6424 29.7297 95.9147 30.1813 95.1819 30.0694H92.7814V19.5826H95.1488C95.912 19.4881 96.6675 19.9643 97.295 20.9355C97.5407 21.3949 97.7369 21.9709 97.8695 22.6212C98.002 23.2715 98.0673 23.9795 98.0607 24.6934C98.0888 25.4628 98.0338 26.2361 97.9004 26.9487C97.767 27.6613 97.559 28.2927 97.2937 28.7902H97.2433ZM109.928 10.2218H104.87V50.4386H116.039L117.913 40.6652H109.927V10.2277L109.928 10.2218ZM126.512 9.92413L119.991 43.9721L118.764 50.4386H124.077L125.373 43.2618H132.404L133.732 50.4386H139.146L131.382 9.92413H126.512ZM126.852 34.5789L128.914 23.3052L130.939 34.5789H126.852ZM149.347 10.2248L145.568 24.882L141.821 10.2248H136.066L142.996 35.3658V50.4386H148.07V35.2155L155 10.2218L149.347 10.2248ZM62.1325 10.2248L57.9952 35.6635L53.8579 10.2218H48.205L55.5947 50.7363H60.2765L67.6834 10.2218L62.1325 10.2248ZM76.215 9.50855C74.3439 9.50692 72.5142 10.732 70.9543 13.0307C69.3996 15.319 68.1855 18.5833 67.4661 22.4092C66.75 26.2241 66.5627 30.4281 66.9282 34.4816C67.2952 38.5413 68.1973 42.266 69.5195 45.1805C70.847 48.1067 72.5333 50.0958 74.3669 50.8984C76.2027 51.7049 78.1046 51.2918 79.8356 49.7107C81.5626 48.1363 83.0414 45.4596 84.0855 42.018C85.3018 38.0032 85.8497 33.1696 85.6346 28.3518C85.4196 23.534 84.4551 19.0345 82.9078 15.6302C82.0285 13.6878 80.986 12.1495 79.8396 11.1031C78.6891 10.0517 77.4588 9.51007 76.215 9.50855ZM76.215 41.3814C75.2293 41.3814 74.2675 40.7359 73.4515 39.5304C72.6354 38.3284 71.9982 36.6142 71.6206 34.6054C71.2433 32.6002 71.1442 30.3898 71.3361 28.2583C71.5281 26.1269 72.0022 24.1719 72.6977 22.645C73.3966 21.1106 74.2829 20.0671 75.2462 19.6442C76.2096 19.2213 77.2075 19.4377 78.116 20.2664C79.0262 21.1005 79.8025 22.5064 80.3483 24.3073C80.8941 26.114 81.1856 28.2361 81.1856 30.4054C81.1829 31.8458 81.0523 33.2708 80.8013 34.5985C80.5504 35.9263 80.1839 37.1306 79.723 38.1422C79.2633 39.1561 78.7162 39.9608 78.1134 40.509C77.5104 41.0577 76.8652 41.3401 76.2137 41.3401V41.3784L76.215 41.3814Z" fill="white"/>
</svg>
