<svg width="110" height="61" viewBox="0 0 110 61" fill="none" xmlns="http://www.w3.org/2000/svg">
<mask id="mask0_6_2085" style="mask-type:luminance" maskUnits="userSpaceOnUse" x="0" y="0" width="110" height="61">
<path d="M0 0H110V61H0V0Z" fill="white"/>
</mask>
<g mask="url(#mask0_6_2085)">
<path d="M79.09 45.4661C79.09 45.7693 78.9258 45.9959 78.7042 45.9959C77.66 45.9959 76.7242 46.2225 75.5683 46.2991C74.58 46.2991 73.59 46.4508 72.6 46.6791C72.49 46.6791 72.3242 46.6791 72.27 46.5275C72.1985 46.4153 72.1602 46.283 72.16 46.1475V43.1916C72.16 42.8901 71.9958 42.6618 71.7742 42.6618C71.72 42.6618 71.61 42.6618 71.5542 42.7385C70.6742 43.6465 69.74 44.4814 68.8042 45.2378C67.4842 46.2242 66.55 46.754 65.2842 46.754C62.26 46.754 59.62 44.3297 59.62 37.8881V26.1413C59.62 22.9606 59.2342 22.2791 58.1342 21.9758L57.1442 21.6726C56.98 21.5959 56.87 21.446 56.8158 21.2177L56.76 20.5345C56.76 20.233 56.87 20.0047 57.0884 19.9297C58.3542 19.853 61.5442 19.7032 62.81 19.6265C63.03 19.6265 63.1942 19.7781 63.25 20.0796V36.2202C63.25 41.5255 65.23 42.9651 67.2642 42.9651C69.0242 42.8901 70.7284 41.9804 72.05 40.2375C72.16 40.1608 72.16 40.0109 72.16 39.8575V26.143C72.16 22.9623 71.72 22.2808 70.2342 21.9776L68.9142 21.6743C68.8199 21.6246 68.7398 21.5492 68.6821 21.4558C68.6244 21.3624 68.5912 21.2543 68.5858 21.1428V20.4613C68.5858 20.158 68.75 19.9315 68.97 19.9315C70.4542 19.8548 73.9742 19.7049 75.2942 19.6282C75.5142 19.6282 75.68 19.8548 75.7342 20.158V39.4811C75.7342 42.437 76.12 44.1798 77.88 44.3315L78.76 44.4064C78.98 44.4064 79.1442 44.633 79.1442 44.9362L79.09 45.4661ZM55.88 39.2528C55.33 41.2989 54.67 43.4966 54.12 45.5428C54.1023 45.6688 54.0425 45.784 53.9514 45.8672C53.8604 45.9504 53.7443 45.996 53.6242 45.9959H39.38C39.16 45.9959 38.9942 45.846 38.8842 45.5428V45.4661C38.7758 45.2395 38.83 44.9362 38.94 44.7079C42.5685 37.5703 46.089 30.3714 49.5 23.1139C49.6642 22.734 49.61 22.2774 49.3358 22.0508C49.2258 21.9758 49.1142 21.8992 49.06 21.8992H46.0342C42.7342 21.8992 42.1858 22.8089 40.8658 26.143L40.4242 27.2794C40.3797 27.419 40.2871 27.5358 40.1651 27.6062C40.043 27.6766 39.9005 27.6956 39.7658 27.6593L39.6 27.5077C39.4544 27.4199 39.3419 27.2813 39.2817 27.1154C39.2216 26.9495 39.2174 26.7667 39.27 26.5979C39.71 24.7034 40.15 22.659 40.48 20.5362C40.5342 20.1563 40.7542 19.9297 41.03 19.9297H54.23C54.45 19.9297 54.67 20.0814 54.7242 20.3829C54.7892 20.6352 54.77 20.9037 54.67 21.1428C51.15 28.2658 47.74 35.4638 44.2742 42.8901C44.11 43.2683 44.1642 43.7232 44.44 43.9515C44.55 44.0265 44.6042 44.1032 44.7158 44.1032H48.18C51.6442 44.1032 52.5258 42.8901 54.2842 39.3277V39.2528L54.6158 38.4946C54.78 38.1164 55.0542 38.0415 55.33 38.1914L55.6058 38.343C55.88 38.4197 55.99 38.8746 55.88 39.2528ZM98.8358 45.2378C98.8358 44.7846 99.0558 44.4814 99.3858 44.4047C101.916 44.0265 103.18 43.4949 103.18 39.7059V27.4327C103.18 23.947 103.07 22.8107 100.816 22.2791C100.54 22.2042 100.32 21.9009 100.32 21.446V20.7646C100.32 20.3097 100.596 19.9315 100.87 19.9315C101.86 19.9315 103.95 19.7798 105.82 19.6282C106.15 19.6282 106.426 19.9315 106.426 20.3846V39.7077C106.426 43.4966 106.976 44.1032 109.396 44.4064C109.67 44.4831 109.946 44.7864 109.946 45.2395C109.946 45.6944 109.67 46.0743 109.34 46.0743H99.3858C99.11 45.9976 98.8358 45.6926 98.8358 45.2378Z" fill="white"/>
<path d="M4.56418 11.4419L35.4775 0L34.3216 61L0 51.9825L4.56418 11.4419Z" fill="#3B8BC8"/>
<path d="M35.4742 0L37.1242 1.66791L36.0242 58.2724L34.32 61L35.4742 0Z" fill="#2676AE"/>
<path opacity="0.2" d="M4.56421 11.4421L4.12585 14.3213V14.7013C4.12585 32.3564 14.3542 46.6792 27.83 46.6792C30.14 46.6792 32.45 46.2243 34.65 45.3895L35.53 -0.076416L4.56585 11.4439L4.56421 11.4421Z" fill="white"/>
<path d="M31.68 42.1321C31.13 44.4814 29.4258 51.1496 28.71 53.2707L3.1358 48.1205L3.24581 46.7559C7.97416 47.209 8.4158 46.8326 8.7458 42.4371L10.34 20.9145C10.7258 16.0642 10.2858 15.9892 5.9958 16.9757L6.10581 15.5343L31.46 7.19824C31.2958 8.9411 31.1858 13.7165 31.02 17.2772L29.3158 17.9586C29.04 15.1561 28.6 13.7915 27.94 12.5784C27.3358 11.2905 25.74 11.3672 21.56 12.5784L17.2158 13.8682C15.4558 14.398 15.3442 14.6246 15.2358 16.2907L14.19 29.4772L19.3616 28.9474C24.4758 28.4158 24.8058 27.8842 25.85 23.3388L27.5 23.0356L26.4 36.1454H24.75C24.4216 31.4466 24.0358 31.0684 19.1958 31.3699L13.97 31.7499L13.2 42.587C12.98 45.3145 13.2 46.6025 14.1358 47.4356C15.0716 48.3454 16.94 48.6486 19.6358 49.1784C23.76 49.8616 25.3558 49.6333 26.73 48.0421C28.1543 46.1373 29.3036 44.018 30.14 41.7539L31.68 42.1321ZM98.34 21.0662C98.34 21.6727 98.01 22.1276 97.57 22.2025C96.7442 22.2792 95.92 22.5807 95.59 23.4155C95.5359 23.5333 95.5077 23.6627 95.5077 23.7937C95.5077 23.9248 95.5359 24.0541 95.59 24.1719C96.1942 25.5366 96.5258 27.0529 96.5258 28.6441C96.5258 35.084 92.4542 38.1915 88.55 38.1915C87.9442 38.1915 87.34 38.1165 86.7342 37.9649C86.4058 37.8882 86.0742 38.0398 85.7983 38.3431C85.3058 38.9496 84.8642 39.7078 84.8642 40.3892C84.8642 41.5256 85.69 42.207 87.7242 42.207C89.43 42.207 91.0242 41.9804 92.4542 42.207C95.26 42.587 98.45 45.6178 98.45 50.3915C98.45 55.3935 94.05 59.1058 88 59.1058C82.8842 59.1058 79.8042 55.62 79.8042 52.286C79.8042 48.1188 83.1042 46.7541 84.15 45.6178C84.3142 45.4662 84.3142 45.1629 84.2042 44.9363C84.15 44.8596 84.0942 44.7847 84.04 44.7847C82.72 44.0266 81.6758 43.7982 81.29 42.8902C79.86 39.5561 83.71 38.7213 84.48 37.6616C84.59 37.51 84.59 37.2068 84.48 36.9784C84.4242 36.9035 84.4242 36.9035 84.37 36.9035C82.2242 35.5388 80.7942 32.508 80.7942 29.1739C80.7942 22.4291 85.4142 19.2484 88.9342 19.2484H88.99C89.9258 19.2484 90.86 19.4749 91.7942 19.8531C91.9042 19.9298 92.0142 19.9298 92.18 19.9298H97.5142C98.01 20.0048 98.34 20.5363 98.34 21.0662ZM83.4342 50.2416C83.4342 53.499 85.7983 56.3764 89.1542 56.3764C93.3342 56.3764 95.0942 54.0288 95.4258 51.7561C95.81 49.1035 94.7642 47.5872 93.4442 46.4509C92.4 45.5411 91.6842 45.1629 89.65 45.0113C85.47 44.7847 83.4342 48.5754 83.4342 50.2416ZM84.7542 28.1892C84.7542 32.8113 86.5142 36.1454 89.0442 36.1454C91.0242 36.0704 92.84 33.796 92.84 29.0223C92.84 24.2486 91.1342 21.0662 88.4942 21.0662C86.6242 21.0662 84.81 23.5672 84.7542 28.1892Z" fill="white"/>
<path d="M101.2 12.3517C101.53 14.1713 102.96 15.2309 104.446 14.7011C105.93 14.1713 106.92 12.2001 106.59 10.3056C106.26 8.4878 104.83 7.4264 103.346 8.03292C101.86 8.63943 100.926 10.4572 101.2 12.3517Z" fill="#3D91CF"/>
</g>
</svg>
