<svg width="155" height="56" viewBox="0 0 155 56" fill="none" xmlns="http://www.w3.org/2000/svg">
<mask id="mask0_3_1086" style="mask-type:luminance" maskUnits="userSpaceOnUse" x="0" y="0" width="155" height="56">
<path d="M0 0H155V56H0V0Z" fill="white"/>
</mask>
<g mask="url(#mask0_3_1086)">
<path d="M3.33251 0.486858H21.39C21.3125 2.66655 21.4675 5.81978 20.925 7.51701C20.3825 9.20993 19.53 8.9687 18.8325 8.9687C14.57 8.48624 10.3075 8.9687 6.04501 8.72747C5.81251 14.0604 5.42502 18.9109 5.27002 23.9982H19.065L18.6 32.7256H7.28501C6.58751 32.7256 5.81251 32.4844 5.19251 32.9712C4.57251 33.9404 4.57251 35.8789 4.49501 37.5761C4.26251 43.3915 3.79752 49.2112 3.48752 55.0309C2.32502 55.2721 1.24001 55.0309 0.0775146 55.0309C0.0775146 54.0616 0.155014 53.0924 0.155014 51.8776C1.00751 35.8789 2.01502 19.1521 2.94502 2.42531C3.02252 1.69301 2.94501 0.486858 3.33251 0.486858ZM45.725 0.241314C46.5 0.241314 47.275 0.241319 48.1275 0.486858C47.2763 14.7884 46.5013 29.0899 45.6475 43.3915C45.477 46.6847 45.0179 49.7275 44.33 52.1232C43.4 54.7896 42.16 55.7589 40.92 55.7589C36.425 56.0001 31.8525 56.0001 27.3575 55.7589C25.9625 55.7589 24.335 54.5441 23.715 50.1804C23.095 45.5755 23.56 39.7558 23.7925 35.1509C24.4125 23.757 25.11 12.6044 25.6525 1.21055C26.815 0.728085 27.9775 0.969316 29.14 1.21055C28.4425 14.3059 27.745 27.3927 26.97 40.4838C26.8938 42.181 26.815 43.8782 26.97 45.5755C27.3575 47.5139 28.365 47.2727 28.985 47.5139H39.835C40.5338 47.5139 41.23 47.2727 41.695 45.5755C42.16 44.1195 42.2375 42.181 42.3938 40.2425C43.0125 28.8487 43.7875 17.4549 44.33 5.81978C44.4075 4.36378 44.485 2.90777 44.7175 1.69731C44.95 0.241312 45.3375 0.241314 45.725 0.241314ZM59.675 0.241314H73.7025C73.6263 2.66655 73.6263 5.33301 73.3925 7.51701C73.3163 8.48624 73.0825 8.72747 72.7725 8.72747C71.6875 8.72747 70.6025 8.48623 69.5175 8.72747C65.9525 9.21423 62.3875 8.2407 58.8225 8.72747C58.2025 8.72747 57.2725 8.72747 56.73 9.93793C56.265 11.1527 56.1875 12.6087 56.11 14.3016C55.645 23.2745 55.18 32.2432 54.6375 40.9662C54.5613 42.4222 54.405 44.1195 54.7925 45.3342C55.1025 46.7859 55.8775 46.5447 56.42 46.5447C59.9075 46.3035 63.395 46.7859 66.8825 46.3035C67.5813 46.3035 68.1225 44.6062 68.2775 42.4266C68.51 37.5761 68.8975 32.7256 69.0525 27.8795C69.13 26.1822 69.3625 24.7262 69.9825 24.7262C70.9125 24.7262 71.8425 24.9718 72.695 24.7262C72.385 30.5416 72.075 36.6069 71.6875 42.4266C71.5325 44.6062 71.3775 46.5447 70.99 48.4832C70.37 51.6364 69.13 53.5749 68.045 54.0616C66.65 55.5133 65.1 55.7589 63.6275 55.7589C61.7675 56.0001 59.83 55.7589 57.97 55.7589C56.265 55.5133 54.6375 56.0001 53.01 54.0616C52.235 53.0924 51.5375 51.6364 51.2275 49.2112C50.84 46.0622 51.1513 42.6635 51.305 39.5189C51.8475 30.5459 52.3125 21.5773 52.7788 12.8499C53.01 8.48624 53.785 4.84624 55.1038 3.15332C56.4975 0.969317 58.125 0.241314 59.675 0.241314ZM91.5262 1.45608C92.1475 2.90777 92.4575 5.57424 92.7675 7.75824C94.86 21.0906 96.9525 34.4229 98.9675 47.7595C99.355 50.4259 99.8187 52.8469 100.13 55.7589C99.1225 56.0001 98.0375 56.2413 97.1062 55.7589C96.1775 55.0266 95.8675 52.3644 95.4025 50.1804C93.9252 40.6998 92.4785 31.1649 91.0625 21.5773C90.5975 18.6653 90.21 15.5164 89.6675 12.8499L83.39 36.1201C81.995 40.9706 80.6775 45.8167 79.4375 51.1539C78.9725 53.0924 78.43 54.7896 77.655 55.7589C76.6475 57.2106 75.2525 56.0001 74.09 56.2413C78.585 39.5145 83.08 22.7878 87.575 6.30224C87.9625 4.84624 88.4262 2.90778 88.97 1.69301C89.745 -0.486686 90.8287 -0.486687 91.5262 1.45608ZM111.91 0.241314C116.793 8.36377e-05 121.598 0.241314 126.403 0.241314C126.325 2.91208 126.248 5.57424 126.015 8.2407L125.86 8.72747C122.063 8.9687 118.265 8.72747 114.545 8.72747C113.073 8.72747 111.523 8.48624 109.973 9.21424C108.5 10.1835 107.88 15.7576 108.5 19.8801C108.888 21.8185 109.585 21.5773 110.128 21.5773H118.42C119.893 21.5773 121.365 21.5773 122.838 22.5465C123.923 23.2745 124.93 25.213 125.318 28.6075C125.783 32.7256 125.395 37.5761 125.163 41.6986C124.853 46.3035 124.233 50.6672 122.915 53.0924C121.52 55.7589 119.583 55.0309 118.033 55.2721C113.15 55.7589 108.19 55.0309 103.308 55.2721C103.385 52.6056 103.54 49.9392 103.695 47.0315C104.548 46.7902 105.4 46.7902 106.253 46.7902H119.118C119.738 46.7902 120.435 46.7902 120.978 45.3342C121.365 44.365 121.598 42.909 121.675 41.4573C121.83 38.7866 122.063 36.1201 121.985 33.2124C121.985 31.5152 121.52 30.3047 121.055 30.0592C119.583 29.3312 118.033 29.5767 116.483 29.8179C114.545 29.8179 112.53 29.8179 110.593 29.5767C109.043 29.5767 107.57 29.5767 106.098 27.3927C105.168 25.6955 104.78 22.7878 104.703 19.6389C104.703 13.5736 105.168 7.51701 106.718 3.63578C108.345 0.482546 110.05 0.241314 111.91 0.241314ZM154.845 7.03024C154.613 4.36378 153.915 2.42101 153.14 1.45608C151.9 8.19046e-05 150.66 0.482545 149.343 0.241314C145.313 8.36377e-05 141.36 0.241314 137.33 0.241314C136.013 0.241314 134.618 1.45609 133.61 4.36378C132.603 7.27147 132.138 11.1527 131.905 15.2709C131.44 23.5158 130.975 32.0019 130.51 40.2425C130.355 43.8782 130.278 47.5139 130.82 50.6672C131.208 52.8469 131.983 54.3029 132.758 54.7896C133.688 55.5133 134.773 55.5133 135.78 55.5133H146.475C148.103 55.2721 149.498 55.5133 150.97 53.0924C152.443 50.6672 153.063 45.8167 153.45 40.9705C153.915 32.4844 154.38 23.757 154.923 15.2709C155 12.8499 155.078 9.6967 154.845 7.03024ZM151.435 14.5472C150.97 23.0333 150.505 31.5152 150.04 40.2425C149.885 42.181 149.808 44.1195 149.343 45.5755C148.878 47.0315 148.258 47.2727 147.56 47.2727H135.935C135.393 47.2727 134.773 47.2727 134.308 46.5447C133.688 45.3342 133.765 43.3958 133.843 41.453C134.385 32.4844 134.85 23.2745 135.393 14.3016C135.548 11.6352 136.09 9.45547 137.02 9.21424C140.895 8.72747 144.77 8.9687 148.645 9.21424C149.42 9.45547 150.273 8.9687 150.97 9.6967C151.59 10.4247 151.513 12.6044 151.435 14.5472Z" fill="white"/>
</g>
</svg>
