<svg fill="none" viewBox="0 0 150 56" id="providers--fugaso" xmlns="http://www.w3.org/2000/svg"><g clip-path="url(#glclip0_2492_24217)" fill="#fff"><path d="M16.623 21.113h14.213c-.061.506.061 1.238-.366 1.632-.427.393-1.098.337-1.647.337-3.355-.112-6.71 0-10.065-.056-.183 1.238-.488 2.364-.61 3.545h10.858l-.366 2.026h-8.906c-.549 0-1.159-.056-1.647.057-.488.225-.488.675-.549 1.069-.183 1.35-.549 2.701-.793 4.052-.915.056-1.769 0-2.684 0 0-.225.061-.45.061-.732.671-3.714 1.464-7.597 2.196-11.48.061-.17 0-.45.305-.45zM49.99 21.056c.61 0 1.22 0 1.891.057-.67 3.32-1.28 6.64-1.952 9.96a3.863 3.863 0 01-1.037 2.027c-.732.619-1.708.844-2.684.844-3.538.056-7.137.056-10.675 0-1.098 0-2.379-.282-2.867-1.295-.488-1.069-.122-2.42.061-3.489.488-2.645 1.037-5.234 1.464-7.879.915-.112 1.83-.056 2.745 0-.549 3.04-1.098 6.078-1.708 9.117-.06.394-.122.788 0 1.182.305.45 1.098.394 1.586.45h8.54c.55 0 1.098-.056 1.464-.45.366-.338.427-.788.55-1.238.487-2.645 1.097-5.29 1.524-7.991.061-.338.122-.676.305-.957.183-.338.488-.338.793-.338zM60.97 21.056h11.041c-.06.563-.06 1.182-.244 1.689-.06.225-.244.281-.488.281-.854 0-1.708-.056-2.562 0-2.806.113-5.612-.113-8.418 0-.488 0-1.22 0-1.647.281-.366.282-.427.62-.488 1.013-.366 2.083-.732 4.165-1.159 6.19-.06.338-.183.732.122 1.014.244.337.854.281 1.281.281 2.745-.056 5.49.056 8.235-.056.55 0 .976-.394 1.098-.9.183-1.126.488-2.252.61-3.377.061-.394.244-.732.732-.732.732 0 1.464.057 2.135 0-.244 1.35-.488 2.758-.793 4.109-.122.506-.244.956-.549 1.406-.488.732-1.464 1.182-2.318 1.295-1.098.337-2.318.394-3.477.394-1.464.056-2.989 0-4.453 0-1.342-.057-2.623.056-3.904-.394-.61-.225-1.159-.563-1.403-1.126-.305-.731-.06-1.52.061-2.25.427-2.083.793-4.165 1.16-6.191.182-1.013.792-1.858 1.83-2.251 1.097-.507 2.378-.676 3.598-.676zM86.04 21.338c.489.337.733.956.977 1.463 1.647 3.095 3.294 6.19 4.88 9.286.305.619.67 1.181.915 1.857-.793.056-1.647.112-2.38 0-.731-.17-.975-.788-1.341-1.295a342.417 342.417 0 01-3.416-6.64c-.366-.676-.671-1.407-1.098-2.026l-4.941 5.402c-1.098 1.126-2.135 2.251-3.111 3.49-.366.45-.793.844-1.403 1.069-.793.337-1.891.056-2.806.112 3.538-3.883 7.076-7.766 10.614-11.593.305-.338.67-.788 1.098-1.07.61-.506 1.464-.506 2.013-.055zM102.084 21.056c3.843-.056 7.625 0 11.407 0-.061.62-.122 1.238-.305 1.857l-.122.113c-2.989.056-5.978 0-8.906 0-1.159 0-2.379-.056-3.599.113-1.159.225-1.647 1.519-1.159 2.476.305.45.854.394 1.281.394h6.527c1.159 0 2.318 0 3.477.225.854.169 1.647.619 1.952 1.407.366.956.061 2.082-.122 3.039-.244 1.069-.732 2.082-1.769 2.645-1.098.619-2.623.45-3.843.506-3.843.113-7.747-.056-11.59 0 .061-.619.183-1.238.305-1.913.671-.056 1.342-.056 2.013-.056h10.126c.488 0 1.037 0 1.464-.338.305-.225.488-.563.549-.9.122-.62.305-1.239.244-1.914 0-.394-.366-.675-.732-.732-1.159-.169-2.379-.112-3.599-.056-1.525 0-3.111 0-4.636-.056-1.22 0-2.379 0-3.538-.507-.732-.394-1.037-1.069-1.098-1.8 0-1.408.366-2.814 1.586-3.715 1.281-.732 2.623-.788 4.087-.788zM135.878 22.632c-.183-.619-.732-1.07-1.342-1.294-.976-.338-1.952-.226-2.989-.282-3.172-.056-6.283 0-9.455 0-1.037 0-2.135.282-2.928.957-.793.675-1.159 1.576-1.342 2.532-.366 1.914-.732 3.884-1.098 5.797-.122.844-.183 1.688.244 2.42.305.506.915.844 1.525.957.732.168 1.586.168 2.379.168h8.418c1.281-.056 2.379 0 3.538-.562 1.159-.563 1.647-1.689 1.952-2.814.366-1.97.732-3.996 1.159-5.966.061-.562.122-1.294-.061-1.913zm-2.684 1.745c-.366 1.97-.732 3.939-1.098 5.965-.122.45-.183.9-.549 1.238-.366.338-.854.394-1.403.394h-9.15c-.427 0-.915 0-1.281-.169-.488-.281-.427-.731-.366-1.182.427-2.082.793-4.22 1.22-6.303.122-.619.549-1.125 1.281-1.181 3.05-.113 6.1-.057 9.15 0 .61.056 1.281-.057 1.83.112.488.169.427.675.366 1.126z"></path></g></svg>