<svg fill="none" viewBox="0 0 150 56" id="providers--gameart" xmlns="http://www.w3.org/2000/svg"><g clip-path="url(#gmclip0_11121_5487)" fill="#fff"><path d="M34.63 29.493h5.544l-2.8-3.942-2.745 3.942z"></path><path d="M85.895 20.222L85.74 20H10v16h68.02l1.877-2.712h10.736l1.787 2.52.138.194h4.532l-.495-.7-10.7-15.08zm-58.25 7.188v4.536l-.123.103c-1.502 1.244-3.723 1.875-6.598 1.875-5.015-.005-8.01-2.208-8.01-5.898 0-1.88.815-3.432 2.354-4.477 1.407-.964 3.363-1.468 5.656-1.468 2.773 0 4.748.534 6.216 1.68l.274.214-.22.267-.98 1.189-.23.275-.28-.227c-.968-.79-2.159-1.315-4.815-1.315-3.54 0-5.335 1.288-5.335 3.828 0 2.587 1.746 3.845 5.335 3.845 1.892 0 3.32-.309 4.354-.944v-1.68h-5.53v-2.148h7.933v.345zm17.698 6.307h-2.166l-.106-.148-1.375-1.943h-8.542l-1.34 1.935-.105.152h-2.747l.372-.534 7.706-11.083.106-.152h.519l.105.148 7.866 11.083.383.538-.676.004zm18.712-11.272v11.271h-2.548v-6.8l-4.93 4.564-.102.095h-.424l-.1-.09-5.204-4.594v6.822H48.2V22.098h.654l.102.09 7.318 6.471 7.022-6.467.102-.094h.658l-.001.346zm17.507.36l-1.038 1.534-.106.156h-9.78v2.275h8.238l-.36.53-.99 1.465-.106.155h-6.782v2.572h5.041l-.36.531-1.038 1.538-.105.155h-6.085V22.271h13.83l-.36.534zm.717 7.04l2.92-4.195 2.98 4.195h-5.9zM139.525 20h-19.209v3.636h7.781V36h4.121V23.636H140V20h-.475zm-25.669 9.887c3.719-.934 4.301-3.366 4.301-4.793 0-1.72-.7-3.022-2.081-3.874-1.331-.821-3.265-1.22-5.911-1.22H98.926v16h4.122v-5.72h5.981l5.23 5.569.141.148h5.182l-.719-.767-5.007-5.343zm-3.954-3.06h-6.854v-3.26h6.854c4.064 0 4.064.86 4.064 1.62-.002.691-.002 1.64-4.064 1.64z"></path></g></svg>