<svg width="155" height="56" viewBox="0 0 155 56" fill="none" xmlns="http://www.w3.org/2000/svg">
<mask id="mask0_3_799" style="mask-type:luminance" maskUnits="userSpaceOnUse" x="0" y="0" width="155" height="56">
<path d="M0 0H155V56H0V0Z" fill="white"/>
</mask>
<g mask="url(#mask0_3_799)">
<path d="M29.3665 33.2257H35.9767L32.6382 19.4287L29.3665 33.2257Z" fill="white"/>
<path d="M90.4902 0.777L90.3054 0H0V56H81.1008L83.3387 46.508H96.1394L98.27 55.328L98.4345 56.007H103.838L103.248 53.557L90.4902 0.777ZM21.0383 25.935V41.811L20.8916 42.1715C19.1008 46.5255 16.4527 48.734 13.0248 48.734C7.04535 48.7165 3.47438 41.006 3.47438 28.091C3.47438 21.511 4.44611 16.079 6.28108 12.4215C7.95865 9.0475 10.2908 7.2835 13.0248 7.2835C16.331 7.2835 18.6858 9.1525 20.4362 13.1635L20.7628 13.9125L20.5005 14.847L19.3321 19.0085L19.0578 19.971L18.724 19.1765C17.5698 16.4115 16.1498 14.574 12.983 14.574C8.76227 14.574 6.62208 19.082 6.62208 27.972C6.62208 37.0265 8.70385 41.4295 12.983 41.4295C15.2389 41.4295 16.9415 40.348 18.1743 38.1255V32.2455H11.5809V24.7275H21.0395L21.0383 25.935ZM42.1397 48.0095H39.5572L39.4308 47.4915L37.7914 40.691H27.6067L26.009 47.4635L25.8838 47.9955H22.6085L23.0521 46.1265L32.24 7.336L32.3664 6.804H32.9852L33.1104 7.322L42.4891 46.1125L42.9457 47.9955L42.1397 48.0095ZM64.4502 8.5575V48.006H61.4122V24.206L55.5341 40.18L55.4125 40.5125H54.907L54.7877 40.1975L48.583 24.1185V47.9955H45.5462V7.343H46.3259L46.4475 7.658L55.1728 30.3065L63.5452 7.672L63.6668 7.343H64.4514L64.4502 8.5575ZM85.3239 9.8175L84.0863 15.1865L83.9599 15.7325H72.2992V23.695H82.1214L81.6922 25.55L80.5118 30.6775L80.3854 31.22H72.2992V40.222H78.3096L77.8803 42.0805L76.6427 47.4635L76.5175 48.006H69.2624V7.9485H85.752L85.3239 9.8175ZM86.1788 34.4575L89.6603 19.775L93.2134 34.4575H86.1788ZM154.434 0H131.531V12.726H140.808V56H145.721V12.726H155V0H154.434ZM123.828 34.6045C128.263 31.3355 128.956 22.8235 128.956 17.829C128.956 11.809 128.122 7.252 126.475 4.27C124.888 1.3965 122.582 0 119.428 0H106.027V56H110.942V35.98H118.073L124.309 55.4715L124.477 55.9895H130.655L129.798 53.305L123.828 34.6045ZM119.114 23.8945H110.942V12.4845H119.114C123.959 12.4845 123.959 15.4945 123.959 18.1545C123.957 20.573 123.957 23.8945 119.114 23.8945Z" fill="white"/>
</g>
</svg>
