<svg width="155" height="56" viewBox="0 0 155 56" fill="none" xmlns="http://www.w3.org/2000/svg">
<mask id="mask0_3_1187" style="mask-type:luminance" maskUnits="userSpaceOnUse" x="0" y="0" width="155" height="56">
<path d="M0 0H155V56H0V0Z" fill="white"/>
</mask>
<g mask="url(#mask0_3_1187)">
<path d="M33.8461 27.5517H17.503V37.0605H26.9125C26.0133 40.201 24.8294 42.5037 23.3636 43.9664C21.8991 45.4314 20.0952 46.1661 17.9519 46.1728C14.6648 46.1728 11.9016 44.3875 9.66075 40.8215C7.41993 37.2554 6.30019 32.9053 6.30019 27.7735C6.30019 22.8051 7.37985 18.5895 9.53916 15.1175C11.6971 11.6499 14.3762 9.91395 17.5751 9.91395C21.2457 9.91395 24.4592 12.2995 27.2145 17.073L31.5705 10.0215C29.5823 6.50243 27.5499 4.01827 25.4734 2.57123C22.9579 0.841054 20.262 -0.0323452 17.543 0.00194866C12.8904 0.00194866 8.99131 2.29795 5.84588 6.88995C5.86272 7.04701 5.84567 7.209 5.79778 7.34691C5.78873 7.51699 5.74201 7.67522 5.66683 7.79043C5.62505 7.85422 5.57614 7.9035 5.52293 7.93541C5.46972 7.96732 5.41327 7.98124 5.35683 7.97635C4.90519 8.61923 4.50166 9.34947 4.15959 10.1514C4.07942 11.3834 3.33916 12.2682 2.86213 13.1978C2.77127 13.489 2.67907 13.7802 2.58153 14.0579C2.33705 14.8209 2.14519 15.628 2.00963 16.4637C1.86666 17.232 1.68093 17.9645 1.50856 18.7194C1.15446 20.2784 1.01282 21.9136 0.71084 23.4973C0.549159 24.3418 0.342049 25.1818 0.308643 26.0688C0.273902 26.9536 0.292606 27.8071 0.201744 28.6784C0.195209 28.7307 0.18442 28.7812 0.169678 28.8285C0.682781 34.4733 1.79985 40.0195 3.87498 44.6653C5.72696 48.816 8.49157 51.6631 11.3644 53.5805C14.3535 55.5808 17.7836 55.9079 20.953 55.0589C24.0263 54.2391 26.9927 52.1514 29.0785 48.2672C31.1991 44.3136 32.6195 39.5895 33.4051 34.5114C33.4187 34.3986 33.4517 34.295 33.5 34.2135C33.5487 34.1311 33.6103 34.0736 33.6777 34.0477C33.822 32.641 33.8955 31.2186 33.8969 29.7917L33.8488 27.5517H33.8461Z" fill="white"/>
<path d="M33.7526 33.2374C33.4629 36.701 32.7584 40.0307 31.6815 43.0262C30.2116 47.1993 28.3035 50.3801 25.9612 52.5731C23.6188 54.7638 20.8715 55.8614 17.7221 55.8614C14.3495 55.8614 11.3417 54.663 8.6987 52.2662C7.20441 50.9194 5.84911 49.1783 4.68473 47.1097C4.44422 46.6729 6.92956 48.0729 10.8072 48.5792C13.9032 48.9824 18.0054 48.7337 21.4047 47.1702C24.8601 45.5888 28.0991 42.334 30.2905 39.263C32.6061 36.0038 33.7753 32.9574 33.7526 33.2374Z" fill="#DEA329"/>
<path d="M12.9747 54.9541C11.2684 54.4015 9.63136 53.362 8.13491 51.8808C6.15332 49.9029 4.94939 47.6517 4.13297 46.0994C2.141 42.4748 0.80776 37.9722 0.29004 33.1208C-0.268495 28.2264 -0.0172858 23.1752 1.01427 18.4892C1.70324 15.2314 2.76284 12.2288 4.13431 9.64788C4.6875 8.6242 5.28478 7.66772 5.92215 6.78516C5.92215 6.78516 5.26073 11.6124 4.74629 17.7186C4.02073 26.374 5.26207 34.1826 5.26207 34.1826C5.864 38.1655 6.8232 41.9721 8.10685 45.4722C9.42499 49.0379 11.0682 52.237 12.9747 54.9541Z" fill="#352B19"/>
<path d="M43.396 7.71704H48.9666L60.0652 54.9542H54.3569L52.0987 45.2258H40.3227L37.975 54.9542H32.2654L43.396 7.71704ZM46.2154 20.2431L42.3444 36.454H50.065L46.2154 20.2431ZM67.1123 7.71704H72.4638L79.1542 40.6674L85.9061 7.71704H91.2536L96.1013 54.9542H90.7872L87.6886 25.1218L81.5581 54.9542H76.717L70.6412 25.1218L67.4744 54.9542H62.1162L67.1123 7.71704ZM98.9394 7.71704H116.401L106.126 46.319H115.736V54.9564H98.1003L108.325 16.6121H98.9394V7.71704ZM120.168 7.71704H125.622V54.9542H120.168V7.71704ZM129.927 7.71704H136.107L142.174 22.8818L148.252 7.71704H154.424L145.268 30.621L155 54.9542H148.82L142.178 38.3468L135.534 54.9542H129.318L139.079 30.6009L129.927 7.71704Z" fill="white"/>
<path d="M127.677 6.8544C127.624 5.82624 126.861 0 122.819 0C118.945 0 118.095 6.8544 118.095 6.8544C118.471 6.11072 120.204 4.25152 122.886 4.25152C125.569 4.25152 127.302 6.11296 127.677 6.8544Z" fill="#DEA329"/>
</g>
</svg>
