<svg fill="none" viewBox="0 0 150 56" id="providers--gamzix" xmlns="http://www.w3.org/2000/svg"><g clip-path="url(#gnclip0_7304_44207)"><path d="M42.33 27.3H30.099v4.245h7.042c-.673 1.402-1.559 2.43-2.656 3.083-1.096.654-2.446.982-4.05.985-2.46 0-4.528-.797-6.205-2.389-1.677-1.592-2.515-3.534-2.515-5.825 0-2.218.808-4.1 2.424-5.65 1.615-1.548 3.62-2.323 6.014-2.323 2.747 0 5.152 1.065 7.214 3.196l3.26-3.148c-1.488-1.571-3.009-2.68-4.563-3.326a15.332 15.332 0 00-5.935-1.147c-3.482 0-6.4 1.025-8.754 3.075a.3.3 0 01-.036.204.305.305 0 01-.098.198.32.32 0 01-.232.083c-.338.287-.64.613-.896.971-.06.55-.614.945-.971 1.36-.068.13-.137.26-.21.384a5.094 5.094 0 00-.428 1.074c-.107.343-.246.67-.375 1.007-.265.696-.371 1.426-.597 2.133-.121.377-.276.752-.301 1.148-.026.395-.012.776-.08 1.165a.26.26 0 01-.024.067c.384 2.52 1.22 4.996 2.773 7.07 1.386 1.853 3.455 3.124 5.605 3.98 2.237.893 4.804 1.039 7.176.66 2.3-.366 4.52-1.298 6.081-3.032 1.587-1.765 2.65-3.874 3.238-6.141a.262.262 0 01.071-.133.273.273 0 01.133-.074c.108-.628.163-1.263.164-1.9l-.036-1z" fill="#fff"></path><path d="M42.26 29.838a11.581 11.581 0 01-1.55 4.37c-1.1 1.863-2.528 3.283-4.281 4.262-1.753.978-3.809 1.468-6.166 1.468-2.524 0-4.775-.535-6.753-1.605a11.838 11.838 0 01-3.004-2.302c-.18-.195 1.68.43 4.582.656 2.317.18 5.387.069 7.931-.629 2.586-.706 5.01-2.159 6.65-3.53 1.733-1.455 2.608-2.815 2.591-2.69z" fill="#DEA329"></path><path d="M26.71 39.533a11.363 11.363 0 01-3.622-1.372c-1.483-.883-2.384-1.888-2.995-2.581a11.554 11.554 0 01-2.876-5.794c-.418-2.185-.23-4.44.542-6.532a11.924 11.924 0 012.335-3.947c.414-.457.861-.884 1.338-1.278 0 0-.495 2.155-.88 4.881-.543 3.864.386 7.35.386 7.35a18.12 18.12 0 002.129 5.04 18.005 18.005 0 003.642 4.233z" fill="#352B19"></path><path d="M49.477 18.445h4.169l8.306 21.088H57.68l-1.69-4.343h-8.813l-1.757 4.343h-4.273l8.33-21.088zm2.11 5.592l-2.897 7.237h5.778l-2.88-7.237zM67.226 18.445h4.005l5.007 14.71 5.053-14.71h4.002l3.628 21.088h-3.977l-2.319-13.318-4.588 13.318h-3.623l-4.547-13.318-2.37 13.318h-4.01l3.739-21.088zM91.045 18.445h13.068l-7.69 17.233h7.192v3.856H90.417l7.652-17.118h-7.024v-3.971zM106.932 18.445h4.082v21.088h-4.082V18.445zM114.236 18.445h4.625l4.54 6.77 4.549-6.77h4.619l-6.852 10.225L133 39.533h-4.625l-4.971-7.414-4.972 7.414h-4.652l7.305-10.872-6.849-10.216z" fill="#fff"></path><path d="M112.552 18.06c-.04-.459-.611-3.06-3.636-3.06-2.899 0-3.535 3.06-3.535 3.06.281-.332 1.578-1.162 3.585-1.162 2.008 0 3.305.83 3.586 1.161z" fill="#DEA329"></path></g></svg>