<svg width="155" height="56" viewBox="0 0 155 56" fill="none" xmlns="http://www.w3.org/2000/svg">
<mask id="mask0_3_1076" style="mask-type:luminance" maskUnits="userSpaceOnUse" x="0" y="0" width="155" height="56">
<path d="M0 0H155V56H0V0Z" fill="white"/>
</mask>
<g mask="url(#mask0_3_1076)">
<path d="M96.7975 25.5065C98.0375 25.2218 99.4325 25.2934 100.673 25.5065C101.835 25.7196 103.075 26.2189 103.54 27.2876C103.773 28.2847 103.618 29.2818 103.618 30.2805C102.068 30.422 100.595 30.352 99.1225 29.9942C98.1925 29.7096 97.2625 29.2118 96.875 28.3562C96.72 27.4307 96.7975 26.432 96.7975 25.5065ZM109.585 25.5065C110.825 25.2218 112.142 25.2934 113.382 25.5065C114.545 25.6496 115.785 26.2905 116.327 27.2876C116.56 28.2847 116.405 29.3534 116.405 30.2805C114.545 30.422 112.142 30.422 110.592 29.4249C109.197 28.4994 109.585 26.9314 109.585 25.5065ZM20.3825 32.5594C19.53 32.5594 18.6775 32.2747 17.825 32.2031C14.4303 31.7638 10.9818 31.7879 7.595 32.2747C5.5025 32.6325 3.41 33.3434 1.7825 34.5551C0.775 35.3391 1.28316e-07 36.3362 0.0775001 37.6196C0.155 39.6838 2.56631e-07 41.7511 0.155 43.8169C0.5425 45.3849 1.9375 46.8098 3.4875 47.5222C6.355 48.9471 9.9975 49.2318 13.2525 49.2318C15.345 49.2318 17.36 48.9471 19.375 48.5909C19.375 49.4465 19.53 50.442 18.9875 51.1545C18.445 52.1531 17.205 52.4378 16.12 52.5794C12.1675 53.0071 7.9825 52.7225 3.9525 52.8656C2.7125 52.9371 1.3175 53.2934 0.465001 54.1474C7.69893e-07 54.5751 0.0775 55.2876 0 55.8585C3.565 56.0716 7.2075 55.9285 10.7725 56C13.64 55.9285 16.6625 56.2131 19.375 55.5022C20.615 55.1445 21.855 54.7882 23.0175 54.2889C24.7225 53.4349 26.1175 52.08 26.04 50.2289V31.8469C24.1025 31.8469 22.785 31.99 20.3825 32.5594ZM19.375 39.97C19.375 41.1102 19.4525 42.2489 19.2975 43.3176C19.1425 44.2447 18.445 44.9571 17.515 45.3849C16.12 46.0258 14.1825 45.8827 12.555 45.8827C10.9275 45.8111 8.835 45.8827 7.5175 44.814C6.355 43.8169 6.82 41.8927 6.7425 40.5394C6.82 39.2576 6.355 37.4049 7.3625 36.4078C8.4475 35.4807 10.075 35.1945 11.3925 35.1945C12.865 35.1945 14.415 35.1245 15.8875 35.3391C17.1275 35.4807 18.6 35.9085 19.2975 36.9771C19.53 37.9027 19.375 38.9714 19.375 39.97ZM54.25 46.3105C50.6075 46.3105 47.0425 46.382 43.4 46.3105C41.695 46.3105 39.99 45.8827 38.905 44.5994C38.5175 43.96 38.6725 43.0329 38.75 42.3205H53.5525C55.1025 42.3205 57.195 42.0358 58.28 40.8956C58.8225 40.04 58.59 38.8298 58.59 37.9027C58.5125 36.1216 57.2725 34.8382 55.7225 33.9142C53.32 32.3462 50.53 31.99 47.6625 31.8469C44.02 31.7754 40.455 31.7054 36.8125 32.774C34.875 33.4865 33.015 34.4836 32.1625 36.4078C31.3875 38.3305 31.8525 40.6825 31.6975 42.6767C31.62 44.4578 32.3175 46.2389 33.945 47.3076C36.6575 49.0187 40.0675 49.5165 43.3225 49.6596C48.4375 49.7296 53.475 49.6596 58.59 49.7296C58.59 49.0171 58.8225 48.3763 58.28 47.8069C57.2725 46.7383 55.8 46.3105 54.25 46.3105ZM39.68 36.3362C41.23 35.2676 43.6325 35.2676 45.57 35.2676C47.43 35.2676 49.6775 35.4091 51.15 36.5494C51.925 37.1902 51.77 38.1174 51.8475 38.9714C49.5225 39.0429 47.1975 38.9714 44.95 39.0429C42.8575 39.0429 40.8425 39.1145 38.75 38.9714C38.905 38.0458 38.6725 36.834 39.68 36.3362ZM64.7125 31.92C66.4175 31.7754 68.045 31.8469 69.6725 32.3462C70.525 32.6309 71.2225 32.3462 72.075 32.2031C74.6325 31.7054 77.035 31.8469 79.67 31.8469C82.925 31.9185 86.335 32.4178 88.97 34.2705C90.21 35.0529 91.0625 36.2647 91.0625 37.6896V49.8011C89.125 49.8011 86.645 49.9443 85.095 48.6609C84.2425 48.02 84.32 47.166 84.2425 46.2389V38.5467C84.32 37.1934 83.545 36.1231 82.15 35.6969C80.29 35.1976 78.1975 35.1976 76.26 35.2691C74.865 35.3407 73.16 35.5538 72.075 36.4094C71.3 37.0502 71.2225 37.9043 71.2225 38.8314V49.8027C69.285 49.8027 67.3475 49.8743 65.565 49.0187C64.8675 48.6625 64.325 48.1631 64.325 47.3807V32.8471C64.325 32.4194 64.17 32.0631 64.7125 31.92ZM96.875 31.92C98.6575 31.8469 100.827 31.8469 102.455 32.6309C103.385 33.0587 103.695 33.9142 103.695 34.8398V49.7296C101.835 49.8727 99.4325 49.8727 97.8825 48.804C97.03 48.2347 96.7975 47.4507 96.7975 46.5236C96.875 41.6796 96.7975 36.764 96.875 31.9185V31.92ZM109.663 31.92C111.523 31.8469 113.77 31.7754 115.397 32.774C116.25 33.2718 116.56 33.9842 116.56 34.8398C116.637 36.834 116.56 38.8298 116.56 40.824C116.482 43.8169 116.715 46.8098 116.483 49.8011C114.545 49.8011 112.452 49.9442 110.825 48.9456C109.895 48.3762 109.585 47.5223 109.663 46.5236C109.663 41.6796 109.585 36.764 109.663 31.9185V31.92Z" fill="#11499E"/>
<path d="M114.933 3.70557L107.26 9.61823C109.043 10.3307 110.825 11.0431 112.53 11.8987C113.925 12.5396 115.165 13.252 116.405 14.036L127.953 7.90712C124.078 6.34068 119.738 4.91579 114.933 3.70557ZM130.045 8.90579L118.11 15.1747C120.745 17.0989 122.915 19.1662 124.62 21.4451L141.438 15.8887C138.183 13.252 134.385 10.9731 130.045 8.90579ZM151.59 28.428C149.575 24.368 146.708 20.5911 142.91 17.1705L125.628 22.87C127.798 25.9345 129.193 29.0689 130.123 31.9187L151.59 28.428Z" fill="#F03E56"/>
<path d="M112.762 3.206C103.54 1.14022 92.69 0 80.135 0C33.5575 0 16.6625 13.3233 16.6625 13.3233C16.6625 13.3233 64.945 -5.628 105.322 8.90556L112.762 3.206Z" fill="#11499E"/>
<path d="M130.665 33.6279C132.215 39.1859 132.138 43.319 132.138 43.319H155C155 38.6866 154.148 34.1988 152.365 30.0657L130.665 33.6279Z" fill="#F03E56"/>
<path d="M13.4076 20.7325C16.3612 20.7325 18.7551 18.5314 18.7551 15.8169C18.7551 13.1025 16.3612 10.9014 13.4076 10.9014C10.4539 10.9014 8.06006 13.1025 8.06006 15.8169C8.06006 18.5314 10.4539 20.7325 13.4076 20.7325Z" fill="#11499E"/>
</g>
</svg>
