<svg viewBox="0 0 31 31" id="player-lvl-gold" xmlns="http://www.w3.org/2000/svg"><path d="M6.458 26.944h18.084v4.05H6.458zm23.25-14.85c-.941 0-1.672 1.066-1.074 2.053-1.588 1.99-4.354 4.011-5.625 3.291-1.552-.877-.358-4.457.582-6.725 1.237.202 2.242-.798 2.242-1.994 0-1.12-.868-2.025-1.937-2.025-1.07 0-1.938.906-1.938 2.025 0 .61.264 1.151.672 1.521-.833 2.218-3.003 5.14-4.405 4.848-1.74-.362-2.183-4.655-2.176-7.137.8-.247 1.389-1.014 1.389-1.932 0-1.12-.868-2.025-1.938-2.025-1.07 0-1.938.906-1.938 2.025 0 .918.588 1.685 1.389 1.933.008 2.483-.436 6.776-2.176 7.137-1.4.292-3.572-2.63-4.405-4.849.408-.37.672-.91.672-1.521 0-1.12-.868-2.025-1.938-2.025-1.07 0-1.937.906-1.937 2.025 0 1.196 1.005 2.196 2.242 1.992.942 2.27 2.134 5.85.583 6.726-1.271.72-4.04-1.301-5.626-3.291.598-.986-.133-2.052-1.074-2.052-.715 0-1.292.605-1.292 1.35 0 .95.938 1.648 1.825 1.222 1.465 1.706 4.308 5.726 4.633 9.578h18.084c.325-3.852 3.168-7.872 4.633-9.578.887.426 1.825-.272 1.825-1.222 0-.745-.577-1.35-1.292-1.35z"  fill='#F98703'></path></svg>