<svg fill="none" viewBox="0 0 150 56" id="providers--habanero" xmlns="http://www.w3.org/2000/svg"><g clip-path="url(#gpclip0_1482_21270)"><path d="M133.504 27.486h-.727v-2.069h-.688v-.62h2.135v.621h-.728v2.068h.008zm4.48 0h-.712l.058-2.06h-.025l-.67 2.06h-.624l-.687-2.06h-.023l.063 2.06h-.711v-2.688h1.14l.517 1.69h.033l.485-1.69H138v2.688h-.016zM49.076 36.037h-3.082V31.54H42v4.489h-3.081V24.606h3.08v4.32h3.995v-4.321h3.082v11.432zm4.908-1.972l-.55 1.972h-3.202l3.445-11.432h4.665l3.494 11.432h-3.138l-.606-1.971-4.108-.001zm2.062-7.182l-1.415 4.97h2.862l-1.447-4.97zm6.946-2.278h6.25c1.043.008 1.877.21 2.5.587.623.386.93 1.166.93 2.342 0 .66-.09 1.239-.267 1.722-.178.482-.687.796-1.528.933v.088c.784.08 1.31.33 1.576.74s.405.998.405 1.746c0 1.279-.259 2.148-.769 2.597-.509.452-1.447.677-2.798.677h-6.307V24.605h.008zm5.045 4.57c.049.008.09.016.139.016h.12c.318 0 .635-.05.938-.144.259-.089.388-.363.388-.83 0-.41-.073-.69-.218-.844-.146-.153-.42-.233-.832-.233h-2.5v2.043h1.964l.001-.008zm.09 4.336c.485.008.88-.032 1.196-.129.315-.096.477-.426.477-.99 0-.54-.121-.852-.372-.948-.25-.097-.614-.145-1.091-.145H66.08v2.212h2.045zm8.837.554l-.549 1.972h-3.202l3.445-11.432h4.666l3.493 11.432h-3.138l-.606-1.971-4.109-.001zm2.063-7.182l-1.416 4.97h2.862l-1.446-4.97zM97.1 36.037h-5.216l-3.243-8.792h-.137l.138 8.79h-3.017V24.607h5.183l3.244 8.688h.121l-.121-8.688H97.1v11.43zm4.601-6.862h4.892V31.3h-4.892v2.212h5.337v2.517h-8.426V24.605h8.321v2.519h-5.24v2.051h.008zm6.784-4.57h5.79c1.471.008 2.523.257 3.153.748.632.483.947 1.497.947 3.026 0 .86-.097 1.551-.283 2.083-.186.531-.816.908-1.885 1.143v.103c.712.05 1.239.259 1.578.644.34.387.508.926.508 1.617v2.076h-3.137v-1.529c0-.46-.089-.82-.266-1.085-.179-.266-.518-.403-1.028-.403h-2.287v3.017h-3.082v-11.44h-.008zm5.531 5.792c.566.009.906-.112 1.028-.377.12-.266.177-.644.177-1.134 0-.563-.065-.974-.185-1.231-.131-.266-.519-.394-1.174-.394l-2.287-.016v3.153l2.441-.001zm5.564-.676c0-.232.008-.465.016-.69.009-.226.033-.46.049-.692a8.59 8.59 0 01.089-.692c.218-1.28.8-2.109 1.755-2.487a8.818 8.818 0 013.08-.603h.34c1.989 0 3.38.338 4.172 1.005.793.668 1.19 2.037 1.19 4.103 0 2.117-.236 3.717-.697 4.82-.469 1.093-1.989 1.648-4.576 1.648-.186 0-.372 0-.566-.008l-.582-.024a7.01 7.01 0 01-2.467-.53c-.768-.322-1.293-.958-1.568-1.923a5.29 5.29 0 01-.21-1.184 19.927 19.927 0 01-.033-1.197v-.853c.008-.233.008-.46.008-.692v-.001zm3.154.62v.684c0 .813.089 1.432.258 1.85.17.426.736.636 1.69.636 1.06 0 1.722-.169 2.006-.507.283-.338.42-.99.42-1.963v-.41c0-.138.008-.281.016-.426v-.82c0-.765-.113-1.328-.323-1.682-.22-.354-.744-.53-1.569-.53-1.196 0-1.9.16-2.126.482-.227.322-.348 1.198-.372 2.638v.065-.016z" fill="#fff"></path><path fill-rule="evenodd" clip-rule="evenodd" d="M21.767 18.433a.575.575 0 00.574-.572v-1.649a.575.575 0 00-1.148 0v1.65c0 .313.259.57.574.57zM19.47 19.945a.575.575 0 00.575-.572v-1.649a.575.575 0 00-1.149 0v1.65c0 .313.26.57.575.57zM19.47 16.124a.575.575 0 00.575-.571v.016a.575.575 0 00-1.149 0v-.016c0 .313.26.57.575.57zM24.063 20.387a.575.575 0 00.575-.57v.015a.575.575 0 00-1.149 0v-.016c0 .314.259.571.574.571z" fill="#F3663A"></path><path fill-rule="evenodd" clip-rule="evenodd" d="M28.656 24.618a.575.575 0 00-.574.572v.29a.568.568 0 01-.574.53.575.575 0 01-.574-.571v-1.424a.575.575 0 00-1.149 0v.032a.575.575 0 01-1.148 0v-2.389a.575.575 0 00-1.148 0v.91a.597.597 0 01-.574.57.575.575 0 01-.574-.57v-2.575a.575.575 0 00-1.148 0v2.236a.575.575 0 01-1.149 0v-.796a.575.575 0 00-1.148 0v1.721a.575.575 0 01-1.148 0v-2.389a.575.575 0 00-1.148 0v3.66a.575.575 0 01-1.148 0v-.965a.575.575 0 00-1.149 0v2.687a.575.575 0 01-1.148 0v-.885a.575.575 0 00-1.148 0l-.008.885v9.902l8.62 4.947 8.611-4.955V25.198c0-.322-.25-.58-.574-.58zm-3.986 9.71h-2.71v-2.052h-2.708v2.052h-2.709v-6.42h2.71v2.156h2.708V27.91h2.709v6.419z" fill="#F3663A"></path></g></svg>