<svg width="155" height="56" viewBox="0 0 155 56" fill="none" xmlns="http://www.w3.org/2000/svg">
<mask id="mask0_3_783" style="mask-type:luminance" maskUnits="userSpaceOnUse" x="0" y="0" width="155" height="56">
<path d="M0 0H155V56H0V0Z" fill="white"/>
</mask>
<g mask="url(#mask0_3_783)">
<path d="M149.469 26.8931H148.575V22.4368H147.729V21.1014H150.355V22.4389H149.459V26.8931H149.469ZM154.98 26.8931H154.104L154.176 22.4562H154.145L153.321 26.8931H152.553L151.708 22.4562H151.68L151.757 26.8931H150.883V21.1036H152.285L152.921 24.7436H152.962L153.558 21.1036H155V26.8931H154.98ZM45.6093 45.3106H41.818V35.6248H36.9047V45.2934H33.1146V20.69H36.9035V29.9946H41.818V20.6879H45.6093V45.3106ZM51.647 41.0632L50.9704 45.3106H47.0314L51.2693 20.6879H57.008L61.3062 45.3106H57.4459L56.7005 41.0654L51.647 41.0632ZM54.1836 25.5943L52.4429 36.2989H55.9636L54.1836 25.5943ZM62.7282 20.6879H70.4167C71.6998 20.7051 72.7257 21.1402 73.4921 21.9522C74.2585 22.7836 74.6362 24.4636 74.6362 26.9965C74.6362 28.418 74.5255 29.6651 74.3077 30.7054C74.0888 31.7436 73.4626 32.4199 72.428 32.7149V32.9045C73.3925 33.0768 74.0396 33.6152 74.3668 34.4983C74.694 35.3814 74.865 36.6479 74.865 38.2589C74.865 41.0137 74.5464 42.8854 73.919 43.8525C73.2928 44.826 72.139 45.3106 70.477 45.3106H62.7184V20.6879H62.7282ZM68.9344 30.5309C68.9947 30.5482 69.0451 30.5654 69.1054 30.5654H69.253C69.6442 30.5654 70.0342 30.4577 70.4069 30.2552C70.7255 30.0636 70.8842 29.4734 70.8842 28.4675C70.8842 27.5845 70.7944 26.9814 70.616 26.6497C70.4364 26.3202 70.0993 26.1479 69.5925 26.1479H66.5171V30.5482H68.9332L68.9344 30.5309ZM69.0451 39.87C69.6417 39.8872 70.1276 39.8011 70.5164 39.5922C70.9039 39.3854 71.1032 38.6746 71.1032 37.4599C71.1032 36.2968 70.9543 35.6248 70.6455 35.418C70.338 35.2091 69.8902 35.1057 69.3034 35.1057H66.527V39.87H69.0426H69.0451ZM79.916 41.0632L79.2407 45.3106H75.3017L79.5396 20.6879H85.2795L89.5765 45.3106H85.7162L84.9707 41.0654L79.916 41.0632ZM82.4538 25.5943L80.7119 36.2989H84.2326L82.4538 25.5943ZM104.686 45.3106H98.27L94.2806 26.374H94.112L94.2818 45.3063H90.5704V20.6922H96.9463L100.937 39.4048H101.086L100.937 20.6922H104.686V45.3106ZM110.346 30.5309H116.364V35.1079H110.346V39.8722H116.912V45.2934H106.546V20.6879H116.783V26.1134H110.337V30.5309H110.346ZM118.692 20.6879H125.814C127.624 20.7051 128.918 21.2414 129.693 22.2989C130.471 23.3392 130.858 25.5232 130.858 28.8165C130.858 30.6688 130.739 32.1571 130.51 33.3029C130.281 34.4466 129.506 35.2586 128.191 35.7648V35.9866C129.067 36.0943 129.715 36.5445 130.132 37.3737C130.551 38.2072 130.757 39.3682 130.757 40.8565V45.3279H126.898V42.0346C126.898 41.0439 126.789 40.2685 126.571 39.6977C126.351 39.1248 125.934 38.8297 125.306 38.8297H122.493V45.3279H118.702V20.6879H118.692ZM125.496 33.1629C126.192 33.1823 126.61 32.9217 126.76 32.3509C126.908 31.778 126.978 30.9639 126.978 29.9085C126.978 28.6959 126.898 27.8106 126.751 27.2571C126.589 26.6842 126.112 26.4085 125.306 26.4085L122.493 26.374V33.1651L125.496 33.1629ZM132.34 31.7069C132.34 31.2072 132.35 30.7054 132.36 30.2208C132.371 29.734 132.401 29.23 132.42 28.7303C132.445 28.2311 132.482 27.7339 132.53 27.2399C132.798 24.4829 133.514 22.6974 134.689 21.8832C135.897 21.0571 137.181 20.6172 138.478 20.5845H138.896C141.343 20.5845 143.054 21.3125 144.028 22.7491C145.004 24.1879 145.492 27.1365 145.492 31.5863C145.492 36.146 145.202 39.5922 144.635 41.9679C144.058 44.322 142.188 45.5174 139.005 45.5174C138.777 45.5174 138.548 45.5174 138.309 45.5002L137.593 45.4485C136.551 45.3925 135.522 45.0057 134.558 44.3069C133.614 43.6134 132.968 42.2435 132.63 40.1651C132.488 39.335 132.402 38.4794 132.371 37.6149C132.343 36.7565 132.329 35.8967 132.331 35.0368V33.1996C132.34 32.6977 132.34 32.2066 132.34 31.7069ZM136.22 33.0423V34.5156C136.22 36.2666 136.33 37.5999 136.538 38.5002C136.747 39.4177 137.443 39.87 138.617 39.87C139.921 39.87 140.735 39.506 141.084 38.778C141.433 38.05 141.601 36.6457 141.601 34.55V33.6669C141.601 33.3697 141.611 33.0617 141.621 32.7494V30.9832C141.621 29.3356 141.482 28.1229 141.223 27.3605C140.953 26.598 140.308 26.2189 139.293 26.2189C137.822 26.2189 136.956 26.5636 136.678 27.2571C136.399 27.9506 136.25 29.8374 136.22 32.9389V33.0789V33.0423Z" fill="white"/>
<path fill-rule="evenodd" clip-rule="evenodd" d="M12.0149 7.39426C12.2017 7.3937 12.3807 7.26385 12.513 7.03305C12.6453 6.80225 12.7201 6.48923 12.7211 6.16226V2.61057C12.7104 2.29529 12.6314 1.99905 12.5001 1.78241C12.3689 1.56577 12.1953 1.44511 12.0149 1.44511C11.8346 1.44511 11.661 1.56577 11.5297 1.78241C11.3985 1.99905 11.3195 2.29529 11.3088 2.61057V6.16441C11.3088 6.83857 11.6274 7.3921 12.0149 7.3921V7.39426ZM9.18926 10.6509C9.37623 10.6509 9.55559 10.5213 9.68813 10.2904C9.82068 10.0596 9.89563 9.74621 9.89661 9.41887V5.86718C9.889 5.54794 9.81121 5.2462 9.67951 5.02502C9.5478 4.80385 9.37237 4.68036 9.18988 4.68036C9.00739 4.68036 8.83196 4.80385 8.70025 5.02502C8.56855 5.2462 8.49076 5.54794 8.48315 5.86718V9.42103C8.48315 10.0952 8.803 10.6487 9.1905 10.6487L9.18926 10.6509ZM9.18926 2.42103C9.37601 2.42104 9.55519 2.29174 9.6877 2.06134C9.82021 1.83095 9.89531 1.51815 9.89661 1.19118V1.22564C9.889 0.906402 9.81121 0.60466 9.67951 0.383485C9.5478 0.16231 9.37237 0.0388184 9.18988 0.0388184C9.00739 0.0388184 8.83196 0.16231 8.70025 0.383485C8.56855 0.60466 8.49076 0.906402 8.48315 1.22564V1.19118C8.48315 1.86534 8.803 2.41887 9.1905 2.41887L9.18926 2.42103ZM14.8394 11.6029C15.0259 11.6029 15.2049 11.4739 15.3374 11.244C15.4699 11.014 15.5451 10.7018 15.5467 10.3752V10.4075C15.5391 10.0882 15.4613 9.78651 15.3296 9.56533C15.1979 9.34416 15.0225 9.22066 14.84 9.22066C14.6575 9.22066 14.4821 9.34416 14.3504 9.56533C14.2187 9.78651 14.1409 10.0882 14.1333 10.4075V10.373C14.1333 11.0493 14.4519 11.6029 14.8394 11.6029Z" fill="#F3663A"/>
<path fill-rule="evenodd" clip-rule="evenodd" d="M20.4895 20.7156C20.3028 20.7162 20.1237 20.846 19.9915 21.0768C19.8592 21.3076 19.7844 21.6206 19.7834 21.9476V22.5722C19.7715 22.8845 19.6916 23.177 19.5603 23.3893C19.4289 23.6017 19.2561 23.7178 19.0773 23.7138C18.8908 23.7132 18.7119 23.5837 18.5797 23.3533C18.4474 23.123 18.3725 22.8105 18.3712 22.4839V19.4168C18.3636 19.0976 18.2858 18.7959 18.1541 18.5747C18.0224 18.3535 17.847 18.23 17.6645 18.23C17.482 18.23 17.3065 18.3535 17.1748 18.5747C17.0431 18.7959 16.9654 19.0976 16.9577 19.4168V19.4858C16.9471 19.801 16.8681 20.0973 16.7368 20.3139C16.6056 20.5306 16.432 20.6512 16.2516 20.6512C16.0713 20.6512 15.8977 20.5306 15.7664 20.3139C15.6352 20.0973 15.5562 19.801 15.5455 19.4858V14.3402C15.5349 14.025 15.4559 13.7287 15.3246 13.5121C15.1934 13.2954 15.0198 13.1748 14.8394 13.1748C14.659 13.1748 14.4855 13.2954 14.3542 13.5121C14.223 13.7287 14.1439 14.025 14.1333 14.3402V16.3002C14.1251 16.6227 14.0479 16.9279 13.9171 17.1554C13.7863 17.3828 13.6114 17.5158 13.4272 17.5279C13.2409 17.5274 13.0622 17.3981 12.93 17.1682C12.7978 16.9384 12.7227 16.6264 12.7211 16.3002V10.7541C12.7104 10.4388 12.6314 10.1426 12.5002 9.92592C12.3689 9.70928 12.1954 9.58862 12.015 9.58862C11.8346 9.58862 11.661 9.70928 11.5298 9.92592C11.3985 10.1426 11.3195 10.4388 11.3089 10.7541V15.5701C11.3013 15.8893 11.2235 16.1911 11.0918 16.4122C10.9601 16.6334 10.7846 16.7569 10.6021 16.7569C10.4196 16.7569 10.2442 16.6334 10.1125 16.4122C9.9808 16.1911 9.90302 15.8893 9.89541 15.5701V13.8556C9.88477 13.5403 9.80575 13.2441 9.67449 13.0275C9.54324 12.8108 9.36967 12.6902 9.18929 12.6902C9.00891 12.6902 8.83535 12.8108 8.7041 13.0275C8.57284 13.2441 8.49382 13.5403 8.48318 13.8556V17.5624C8.47255 17.8777 8.39353 18.1739 8.26227 18.3905C8.13102 18.6072 7.95745 18.7278 7.77707 18.7278C7.59669 18.7278 7.42313 18.6072 7.29187 18.3905C7.16062 18.1739 7.08159 17.8777 7.07096 17.5624V12.4168C7.06033 12.1016 6.9813 11.8053 6.85005 11.5887C6.7188 11.372 6.54523 11.2514 6.36485 11.2514C6.18447 11.2514 6.0109 11.372 5.87965 11.5887C5.7484 11.8053 5.66937 12.1016 5.65874 12.4168V20.2999C5.64811 20.6152 5.56908 20.9114 5.43783 21.1281C5.30657 21.3447 5.13301 21.4654 4.95263 21.4654C4.77225 21.4654 4.59868 21.3447 4.46743 21.1281C4.33618 20.9114 4.25715 20.6152 4.24652 20.2999V18.2215C4.23891 17.9022 4.16112 17.6005 4.02942 17.3793C3.89772 17.1581 3.72228 17.0346 3.53979 17.0346C3.3573 17.0346 3.18187 17.1581 3.05016 17.3793C2.91846 17.6005 2.84067 17.9022 2.83307 18.2215V24.0088C2.82243 24.3241 2.74341 24.6204 2.61215 24.837C2.4809 25.0536 2.30733 25.1743 2.12695 25.1743C1.94657 25.1743 1.77301 25.0536 1.64176 24.837C1.5105 24.6204 1.43148 24.3241 1.42084 24.0088V22.1027C1.41021 21.7874 1.33119 21.4912 1.19993 21.2745C1.06868 21.0579 0.895113 20.9372 0.714733 20.9372C0.534352 20.9372 0.360786 21.0579 0.229533 21.2745C0.0982789 21.4912 0.0192546 21.7874 0.00862103 22.1027L-0.0012207 24.0088V45.3362L10.6027 55.9913L21.1956 45.319V21.9648C21.1956 21.2713 20.8881 20.7156 20.4895 20.7156ZM15.5861 41.6295H12.2524V37.2098H8.92112V41.6295H5.58862V27.8018H8.92235V32.4455H12.2536V27.8061H15.5861V41.6295Z" fill="#F3663A"/>
</g>
</svg>
