<svg fill="none" viewBox="0 0 150 56" id="providers--hacksaw" xmlns="http://www.w3.org/2000/svg"><path d="M63.67 28.928l-8.697-.323a7.038 7.038 0 001.225 1.85c1.26 1.353 2.812 2.03 4.655 2.03.784 0 1.67-.199 2.659-.598l.159-2.959zm-22.375-.83l-.985 4.098h4.602l.363-2.094h3l.331 2.094h4.602l-.78-3.684-11.133-.415zM45.858 15.3L42.88 27.699l11.134.414-2.712-12.812h-5.445zm1.601 10.867l.448-2.586.31-1.998a7.85 7.85 0 00.044-.31c.02-.17.057-.477.106-.919.028-.221.055-.424.08-.608.024-.185.044-.353.058-.503l.14 1.56c.035.321.064.587.085.797.021.21.039.375.053.497.134 1.083.21 1.703.225 1.859.02.186.035.282.043.29l.288 1.922h-1.88zm17.798 2.363l.097-1.808c-.776.713-1.548 1.069-2.316 1.069a2.43 2.43 0 01-1.197-.29 2.492 2.492 0 01-.881-.833c-.239-.363-.421-.809-.55-1.335a7.657 7.657 0 01-.192-1.796c0-1.383.256-2.465.769-3.248.513-.776 1.224-1.165 2.135-1.165.698 0 1.378.331 2.039.994v-4.713a6.443 6.443 0 00-2.2-.406c-2.213 0-3.982.783-5.305 2.35-1.324 1.575-1.987 3.662-1.987 6.262 0 1.796.3 3.325.889 4.594l8.699.325zm16.037-5.649c.214.382.492.752.833 1.111.342.36.755.721 1.238 1.085l.726.567c.527.42.79.85.79 1.293a.96.96 0 01-.363.765c-.242.203-.555.304-.94.304-1.018 0-1.964-.598-2.84-1.796v2.896l7.916.294c.456-.84.69-1.81.69-2.912 0-.954-.206-1.788-.619-2.5-.406-.713-1.078-1.407-2.018-2.084l-.704-.523c-.606-.434-.908-.873-.908-1.315 0-.27.114-.502.342-.694.22-.199.502-.298.844-.298.448 0 .904.161 1.366.485.462.325.876.768 1.238 1.331v-5.043c-1.074-.562-2.142-.845-3.202-.845-1.19 0-2.203.356-3.044 1.07-.305.248-.577.535-.81.86a6.176 6.176 0 00-.62 1.073c-.356.84-.534 1.646-.534 2.415 0 .448.05.875.15 1.282.1.405.257.798.47 1.18zm-48.841 4.886L28 27.603v4.593h4.453v-4.428zm1.585-2.604h2.124v2.287l4.453.165V15.301h-4.453v5.834h-2.124V15.3h-4.453v11.904l4.453.165v-2.206zm.54 7.031h4.452v-4.182l-4.453-.165v4.347zm39.851-16.894l-2.626 7.073.117-7.073h-4.453v13.312l4.406.164-.07-4.586 1.808 4.65 4.652.174-2.691-5.753 3.556-7.961h-4.699zm19.464 0l-3.401 14.168 11.939.444L99.338 15.3h-5.445zm1.603 10.867l.448-2.586.31-1.998c.007-.035.021-.139.042-.31.021-.17.057-.477.107-.919.028-.221.055-.424.08-.608.024-.185.044-.353.058-.503l.14 1.56c.034.321.064.587.085.797.02.21.038.375.053.497.135 1.083.21 1.703.224 1.859.021.186.035.282.042.29l.288 1.922h-1.877zm9.56 6.027h4.335l.22-1.56-4.943-.184.388 1.744zM65.882 29.01v3.185h4.453l-.047-3.021-4.406-.164zm51.373-13.71l-.812 5.12a46.948 46.948 0 00-.309 2.383 85.392 85.392 0 00-.256 3.013c-.263-2.522-.573-4.705-.929-6.55l-.747-3.964h-3.834l-.833 4.711a60.41 60.41 0 00-.577 4.307l-.138 1.293-.15-1.506c-.107-1.033-.3-2.454-.577-4.263l-.726-4.54h-4.399l3.285 14.754 4.943.184.624-4.424a50.69 50.69 0 00.309-2.703c.071-.798.124-1.342.16-1.635.014.143.039.349.075.62.035.27.079.608.128 1.014.099.82.249 1.788.448 2.907l.766 4.314 4.813.18 3.081-15.21h-4.345V15.3zm-.321 15.608l-4.813-.18.26 1.467h4.292l.261-1.287zm-20.616-.766l.325 2.054h4.601l-.399-1.885-4.527-.169zM79.155 31.79c1.196.462 2.316.694 3.363.694 1.516 0 2.768-.526 3.758-1.581.318-.338.577-.708.794-1.105l-7.915-.294v2.286zm-7.13-2.552l1.15 2.957h4.805l-1.302-2.783-4.653-.174zm16.322 2.957h4.601l.363-2.094-4.406-.235-.558 2.33zM32.39 38.808h1.2a1.13 1.13 0 01-.142.417.904.904 0 01-.265.28 1.092 1.092 0 01-.362.157 1.741 1.741 0 01-.416.048c-.244 0-.458-.04-.642-.123a1.264 1.264 0 01-.462-.346 1.496 1.496 0 01-.28-.53 2.266 2.266 0 01-.094-.663c0-.264.037-.502.108-.717.072-.213.171-.396.299-.547.126-.151.28-.268.459-.35.179-.082.377-.123.595-.123.264 0 .498.066.705.201.206.134.373.355.503.664l1.386-.574c-.258-.532-.608-.924-1.05-1.178-.443-.255-.957-.38-1.544-.38-.451 0-.861.072-1.229.216a2.736 2.736 0 00-.942.604c-.261.258-.462.57-.604.936a3.305 3.305 0 00-.212 1.205c0 .442.072.846.217 1.211.144.365.345.679.604.94.257.261.567.464.927.608.36.143.758.216 1.196.216.318 0 .62-.04.91-.12.287-.079.552-.194.793-.346.241-.15.45-.34.63-.566.179-.226.32-.486.425-.78.075-.208.124-.435.148-.679.025-.243.038-.515.038-.813H32.39v1.132h-.002zm15.946-3.61l-2.139 5.623h1.557l.336-.977h2.087l.336.977h1.558l-2.139-5.623h-1.596zm.141 3.535l.656-1.872.655 1.872h-1.31zm19.353-3.535l-1.118 2.997-1.125-2.997h-1.446l-.954 5.623h1.453l.485-3.237 1.26 3.237h.581l1.326-3.237.485 3.237h1.453l-.955-5.623H67.83zm14.053 5.623h1.461v-5.623h-1.46v5.623zm17.526-2.185l-2.697-3.438H95.25v5.623h1.46v-3.438l2.698 3.438h1.453v-5.623h-1.453v3.438zm16.2.172h1.2a1.137 1.137 0 01-.142.417.897.897 0 01-.265.28 1.099 1.099 0 01-.361.157 1.753 1.753 0 01-.417.048 1.56 1.56 0 01-.641-.123 1.264 1.264 0 01-.463-.346 1.515 1.515 0 01-.28-.53 2.27 2.27 0 01-.093-.663c0-.264.036-.502.109-.717.071-.213.171-.396.298-.547.127-.151.28-.268.458-.35.179-.082.377-.123.596-.123.263 0 .497.066.703.201.206.134.375.355.503.664l1.386-.574c-.258-.532-.608-.924-1.051-1.178-.442-.255-.956-.38-1.542-.38a3.35 3.35 0 00-1.23.216 2.74 2.74 0 00-.942.604c-.261.258-.462.57-.604.936a3.318 3.318 0 00-.213 1.205c0 .442.072.846.217 1.211.144.365.345.679.603.94.258.261.567.464.928.608.36.143.758.216 1.196.216.317 0 .62-.04.908-.12.288-.079.553-.194.794-.346.241-.15.451-.34.63-.566a2.818 2.818 0 00.573-1.459c.025-.243.038-.515.038-.813h-2.898v1.132h.002z" fill="#fff"></path></svg>