<svg width="155" height="56" viewBox="0 0 155 56" fill="none" xmlns="http://www.w3.org/2000/svg">
<path d="M59.0689 30.0229L44.6668 29.3267C45.1768 30.7871 45.8615 32.133 46.6954 33.3142C48.7819 36.2305 51.352 37.6897 54.404 37.6897C55.7023 37.6897 57.1695 37.2608 58.8073 36.4008L59.0706 30.0229H59.0689ZM22.0163 28.2339L20.3852 37.0668H28.006L28.6071 32.5533H33.5751L34.1232 37.0668H41.744L40.4524 29.1262L22.0163 28.2339ZM29.5725 0.648783L24.641 27.3738L43.0787 28.2662L38.5877 0.650937H29.5709L29.5725 0.648783ZM32.2238 24.0717L32.9657 18.4978L33.479 14.1913C33.5067 13.9692 33.531 13.7465 33.5519 13.5231C33.585 13.1567 33.6463 12.495 33.7274 11.5423C33.7738 11.0659 33.8185 10.6284 33.8599 10.2318C33.8996 9.83303 33.9327 9.47092 33.9559 9.14761L34.1878 12.5101C34.2457 13.202 34.2938 13.7753 34.3285 14.2279C34.3633 14.6806 34.3931 15.0362 34.4163 15.2992C34.6382 17.6335 34.764 18.9699 34.7889 19.3061C34.822 19.707 34.8468 19.9139 34.8601 19.9312L35.337 24.0739L32.2238 24.0717ZM61.697 29.165L61.8576 25.268C60.5725 26.8048 59.2941 27.5722 58.0223 27.5722C57.3313 27.5888 56.6487 27.3735 56.0401 26.9471C55.4477 26.514 54.9465 25.8973 54.5812 25.1516C54.1854 24.3692 53.884 23.4079 53.6704 22.2741C53.4475 21.0046 53.3407 19.7052 53.3525 18.403C53.3525 15.422 53.7764 13.0899 54.6259 11.4022C55.4754 9.72957 56.6528 8.89111 58.1614 8.89111C59.3173 8.89111 60.4434 9.60456 61.538 11.0336V0.875101C60.3721 0.309117 59.1391 0.0129524 57.8948 0C54.2301 0 51.3007 1.6877 49.1098 5.06524C46.9173 8.46003 45.8194 12.9584 45.8194 18.5625C45.8194 22.4336 46.3162 25.7293 47.2916 28.4645L61.697 29.165ZM88.254 16.989C88.6083 17.8124 89.0687 18.6099 89.6334 19.3837C90.1997 20.1597 90.8837 20.9378 91.6835 21.7223L92.8857 22.9445C93.7584 23.8497 94.194 24.7766 94.194 25.7314C94.1973 26.0478 94.1448 26.3609 94.0406 26.6468C93.9364 26.9326 93.7832 27.1836 93.5928 27.3803C93.1921 27.8179 92.6738 28.0356 92.0362 28.0356C90.3504 28.0356 88.7839 26.7466 87.3332 24.1644V30.4065L100.442 31.0402C101.197 29.2297 101.585 27.1389 101.585 24.7636C101.585 22.7074 101.243 20.9097 100.56 19.3751C99.8872 17.8383 98.7744 16.3424 97.2178 14.8832L96.052 13.7559C95.0485 12.8204 94.5483 11.8742 94.5483 10.9215C94.5483 10.3396 94.7371 9.8395 95.1147 9.42566C95.479 8.99673 95.946 8.78334 96.5123 8.78334C97.2542 8.78334 98.0094 9.13037 98.7744 9.82872C99.5395 10.5292 100.225 11.4841 100.825 12.6976V1.8278C99.046 0.616452 97.2774 0.00646682 95.5221 0.00646682C93.5514 0.00646682 91.8739 0.773798 90.4813 2.31277C89.9762 2.84731 89.5258 3.46592 89.1399 4.16643C88.739 4.8906 88.395 5.66542 88.1132 6.4792C87.5237 8.28975 87.2289 10.027 87.2289 11.6845C87.2289 12.6502 87.3117 13.5705 87.4773 14.4478C87.6429 15.3207 87.9029 16.1678 88.2556 16.9912L88.254 16.989ZM7.37409 27.5204L0 27.1669V37.0668H7.37409V27.5204ZM9.99882 21.9077H13.5161V26.8372L20.8902 27.1928V0.650937H13.5161V13.2257H9.99882V0.648783H2.62473V26.3069L9.99882 26.6626V21.9077ZM10.8931 37.0625H18.2655V28.0485L10.8914 27.6929L10.8931 37.0625ZM76.8856 0.648783L72.537 15.8941L72.7308 0.648783H65.3567V29.3417L72.6529 29.6952L72.537 19.8105L75.531 29.8332L83.2347 30.2082L78.7784 17.8081L84.6671 0.648783H76.8856ZM109.118 0.648783L103.486 31.1868L123.256 32.1438L118.135 0.648783H109.118ZM111.772 24.0717L112.514 18.4978L113.027 14.1913C113.039 14.1159 113.062 13.8917 113.097 13.5231C113.132 13.1567 113.191 12.495 113.274 11.5423C113.321 11.0659 113.365 10.6284 113.407 10.2318C113.446 9.83303 113.48 9.47092 113.503 9.14761L113.735 12.5101C113.791 13.202 113.841 13.7753 113.875 14.2279C113.908 14.6806 113.938 15.0362 113.963 15.2992C114.187 17.6335 114.311 18.9699 114.334 19.3061C114.369 19.707 114.392 19.9139 114.404 19.9312L114.881 24.0739L111.772 24.0717ZM127.603 37.0625H134.782L135.146 33.7L126.961 33.3034L127.603 37.0625ZM62.732 30.1996V37.0646H70.106L70.0282 30.5531L62.732 30.1996ZM147.805 0.648783L146.46 11.6845C146.256 13.3907 146.085 15.1034 145.948 16.8209C145.778 18.9822 145.636 21.1473 145.524 23.3152C145.089 17.8792 144.576 13.1739 143.986 9.19718L142.749 0.653094H136.4L135.021 10.8073C134.617 13.8858 134.298 16.9823 134.065 20.0907L133.837 22.8776L133.588 19.6316C133.411 17.405 133.091 14.3422 132.633 10.443L131.43 0.657404H124.146L129.586 32.4585L137.771 32.8551L138.804 23.3195C139.015 21.3838 139.186 19.441 139.316 17.4934C139.434 15.7734 139.522 14.6008 139.581 13.9693C139.604 14.2775 139.646 14.7215 139.705 15.3056C139.763 15.8876 139.836 16.6161 139.917 17.4912C140.081 19.2587 140.33 21.3451 140.659 23.7571L141.928 33.0555L149.898 33.4435L155 0.65956H147.805V0.648783ZM147.273 34.2906L139.303 33.9026L139.733 37.0646H146.841L147.273 34.2906ZM113.133 32.6395L113.672 37.0668H121.291L120.63 33.0038L113.133 32.6395ZM84.7118 36.1917C86.6924 37.1875 88.5471 37.6875 90.2809 37.6875C92.7913 37.6875 94.8646 36.5538 96.5041 34.2798C97.0307 33.5513 97.4596 32.7538 97.8189 31.8981L84.7118 31.2644V36.1917ZM72.9047 30.691L74.809 37.0646H82.766L80.6099 31.0661L72.9047 30.691ZM99.9336 37.0646H107.553L108.154 32.5512L100.858 32.0446L99.9336 37.0646ZM7.26976 51.3184H9.25695C9.22462 51.6352 9.14472 51.9406 9.0218 52.2172C8.91056 52.4571 8.76087 52.663 8.58296 52.8208C8.40058 52.98 8.19744 53.0947 7.98349 53.1592C7.7579 53.2296 7.52659 53.2643 7.2946 53.2626C6.89054 53.2626 6.53617 53.1764 6.23146 52.9975C5.93567 52.829 5.67382 52.5738 5.4664 52.2517C5.25421 51.9155 5.09649 51.527 5.00272 51.1093C4.89675 50.6457 4.84429 50.1641 4.84706 49.6803C4.84706 49.1113 4.90833 48.5983 5.02591 48.1349C5.14514 47.6758 5.30908 47.2813 5.52105 46.9559C5.7297 46.6304 5.98472 46.3782 6.28114 46.2014C6.57756 46.0247 6.90545 45.9363 7.26645 45.9363C7.70363 45.9363 8.09113 46.0786 8.43392 46.3696C8.77505 46.6584 9.0516 47.1347 9.26688 47.8008L11.5621 46.5636C11.1348 45.4169 10.5552 44.572 9.82329 44.0245C9.08969 43.4748 8.23852 43.2054 7.26645 43.2054C6.51961 43.2054 5.84065 43.3606 5.23125 43.671C4.64792 43.9604 4.11683 44.4037 3.67131 44.9729C3.2391 45.529 2.90625 46.2015 2.6711 46.9903C2.43091 47.8201 2.31184 48.701 2.32003 49.5876C2.32003 50.5403 2.43926 51.4111 2.67938 52.1978C2.91784 52.9846 3.25069 53.6614 3.67959 54.2239C4.10518 54.7865 4.61854 55.224 5.21469 55.5344C5.81084 55.8427 6.46993 56 7.19525 56C7.72185 56 8.22196 55.9138 8.70219 55.7413C9.17746 55.5711 9.61629 55.3232 10.0154 54.9956C10.4145 54.6723 10.7606 54.2627 11.0587 53.7756C11.3551 53.2885 11.5886 52.7281 11.7624 52.0944C11.8866 51.646 11.9678 51.1568 12.0075 50.6308C12.0489 50.1071 12.0705 49.5208 12.0705 48.8785H7.26976V51.3184ZM33.6761 43.5374L30.1339 55.6573H32.7123L33.2687 53.5514H36.7247L37.2811 55.6573H39.8612L36.319 43.5374H33.6761ZM33.9096 51.1568L34.9959 47.1218L36.0806 51.1568H33.9096ZM65.9578 43.5374L64.1064 49.9971L62.2434 43.5374H59.8489L58.2691 55.6573H60.6752L61.4784 48.6802L63.5649 55.6573H64.527L66.7229 48.6802L67.526 55.6573H69.9322L68.3507 43.5374H65.9578ZM89.2293 55.6573H91.6487V43.5374H89.231L89.2293 55.6573ZM118.252 50.9477L113.786 43.5374H111.365V55.6573H113.783V48.2469L118.25 55.6573H120.657V43.5374H118.25L118.252 50.9477ZM145.079 51.3184H147.066C147.034 51.6351 146.954 51.9404 146.831 52.2172C146.72 52.4574 146.57 52.6634 146.392 52.8208C146.21 52.9795 146.008 53.0941 145.794 53.1592C145.568 53.2295 145.336 53.2642 145.104 53.2626C144.74 53.2726 144.378 53.1823 144.042 52.9975C143.746 52.8293 143.484 52.5741 143.276 52.2517C143.064 51.9149 142.907 51.5265 142.812 51.1093C142.707 50.6455 142.655 50.1639 142.658 49.6803C142.658 49.1113 142.718 48.5983 142.838 48.1349C142.956 47.6758 143.122 47.2813 143.332 46.9559C143.542 46.6304 143.796 46.3782 144.09 46.2014C144.387 46.0247 144.715 45.9363 145.077 45.9363C145.513 45.9363 145.9 46.0786 146.242 46.3696C146.583 46.6584 146.863 47.1347 147.074 47.8008L149.37 46.5636C148.942 45.4169 148.363 44.572 147.629 44.0245C146.897 43.4748 146.046 43.2054 145.076 43.2054C144.38 43.1931 143.689 43.351 143.039 43.671C142.456 43.9606 141.925 44.4038 141.479 44.9729C141.047 45.529 140.714 46.2015 140.479 46.9903C140.238 47.8201 140.119 48.7009 140.126 49.5876C140.126 50.5403 140.245 51.4111 140.485 52.1978C140.724 52.9846 141.057 53.6614 141.484 54.2239C141.911 54.7865 142.423 55.224 143.021 55.5344C143.617 55.8427 144.276 56 145.001 56C145.526 56 146.028 55.9138 146.505 55.7413C146.982 55.5711 147.421 55.3232 147.82 54.9956C148.219 54.6723 148.567 54.2627 148.863 53.7756C149.401 52.8653 149.73 51.7748 149.812 50.6308C149.853 50.1071 149.875 49.5208 149.875 48.8785H145.076V51.3184H145.079Z" fill="white"/>
</svg>
