<svg width="155" height="56" viewBox="0 0 155 56" fill="none" xmlns="http://www.w3.org/2000/svg">
<path d="M53.0354 20.7419C52.9578 20.7889 52.8815 20.8759 52.8293 20.9206L58.1255 0.0446895L35.7014 0V12.8581H38.1039V22.2659H46.8612V12.8581H49.7027V35.7944H46.8612V27.1486H38.1039V27.2827H38.0784V35.7967H35.7282V35.8391L35.7014 48.6525H45.053C45.2337 49.0547 45.4412 49.5039 45.6473 49.9508C46.7498 52.4158 48.2414 54.2548 49.9356 55.238C50.7882 55.7319 51.693 56 52.5964 56H53.0876C59.4425 56 63.5756 48.295 63.5756 38.3039C63.5488 24.9095 56.937 20.6972 53.0354 20.7419ZM59.2364 6.31735L57.6343 13.1709L57.4536 13.9777L57.4268 14.0247C59.6486 14.3375 67.2964 17.2939 67.6833 32.7933C67.8385 38.7955 66.9859 44.8 65.0479 48.6078H85.5607V35.705L76.8542 35.6603C75.9666 35.6141 75.0875 35.3424 74.2443 34.8536C73.4696 34.2566 72.7613 33.4228 72.1523 32.3911C71.5664 31.3225 71.0941 30.0783 70.7576 28.7173C70.4736 27.2434 70.3167 25.7031 70.2919 24.1475C70.3167 22.6211 70.4738 21.1103 70.7576 19.667C71.1089 18.3891 71.5901 17.2349 72.1777 16.2614C72.7988 15.3206 73.4706 14.5609 74.2188 13.933C75.0413 13.4126 75.9034 13.1114 76.7766 13.0392H85.534V0.0893745H70.9129L69.0257 6.31735H59.2364ZM73.2123 24.3709C73.2123 29.0302 75.9508 30.8223 77.6292 30.8223H83.6481V27.238H76.7257V22.4447H85.5861V17.9195L77.577 17.9666C75.5372 17.9666 73.2123 19.2202 73.2123 24.3709ZM152.262 14.6056H152.727V16.8894H152.908V14.6056H153.372V14.3375H152.262V14.6056ZM154.897 14.2905H154.664L154.406 15.5464C154.338 15.8207 154.286 16.1058 154.25 16.3978C154.219 16.1038 154.167 15.8179 154.095 15.5464L153.837 14.2905H153.605L153.502 16.8447H153.683L153.734 15.7252C153.761 15.323 153.761 14.9184 153.761 14.6056C153.811 14.9184 153.864 15.2313 153.941 15.5911L154.173 16.8H154.328L154.586 15.5464C154.664 15.1866 154.716 14.8738 154.767 14.5586C154.767 14.8738 154.767 15.323 154.794 15.6805L154.819 16.8H155L154.897 14.2905ZM18.0581 13.9777H15.8618V35.6156H18.0568L18.0581 13.9777ZM34.5905 35.6627V23.6959H26.4274V27.1462H32.3955V31.8501H26.5826C26.0394 31.8916 25.4969 31.7427 24.9868 31.412C24.4766 31.0812 24.0091 30.5754 23.6113 29.9239C23.3837 29.5236 23.1764 29.0892 22.9916 28.6256C22.6085 27.5055 22.4201 26.213 22.4496 24.9072C22.3974 22.9786 22.8377 21.1441 23.6113 19.7564C24.0063 19.092 24.4722 18.5716 24.9821 18.2253C25.4921 17.8789 26.0361 17.7135 26.5826 17.7384H33.687V13.9753H26.6081C22.5258 13.9753 21.158 18.4111 20.7698 19.9775C20.6898 20.2991 20.6209 20.629 20.5637 20.9653C20.1237 23.5667 20.1782 26.3493 20.719 28.8914C21.0294 30.2246 21.4888 31.435 22.0699 32.451C22.6511 33.4669 23.3422 34.2679 24.1025 34.8066C24.9028 35.3413 25.7519 35.6147 26.6081 35.6133H34.3576L34.5905 35.6627ZM0 14.0247V35.6627H2.19637V26.6547H11.2121V35.6627H13.4071V14.0247H11.2121V22.8916H2.19637V14.0247H0ZM119.893 13.8436H119.815C119.221 13.8883 118.73 15.457 118.627 15.8592C118.627 15.9063 118.601 15.9063 118.601 15.9486L117.826 18.5922L114.416 30.0156L110.928 18.2794L110.256 15.9933C110.256 15.9486 110.231 15.9486 110.231 15.9039C110.057 15.2827 109.811 14.7329 109.508 14.2905L109.456 14.2011C109.429 14.2011 109.429 14.1564 109.405 14.1564H109.378C109.327 14.1117 109.25 14.0223 109.197 13.9777C109.171 13.9777 109.147 13.933 109.147 13.933H108.784C108.511 13.9657 108.253 14.1732 108.061 14.5163C108.061 14.5163 108.034 14.5163 108.034 14.5609C107.994 14.6261 107.959 14.7014 107.931 14.7844C107.651 15.477 107.466 16.2738 107.389 17.1128C107.362 17.3833 104.754 35.7497 104.754 35.7497H107.209L108.991 20.7442L113.175 34.5408C113.383 35.3475 113.822 35.8838 114.338 35.9755H114.391C114.958 35.8838 115.449 35.3028 115.655 34.4067L119.79 20.7419L121.598 35.7497H124.051L121.262 16.0403C121.22 15.448 121.059 14.9015 120.808 14.499C120.557 14.0964 120.232 13.8641 119.893 13.8436ZM128.831 26.6547H135.961V22.8916H128.831V26.6547ZM125.731 35.705H136.503V31.9419H127.901V17.9642H136.503V14.2481H125.731V35.705ZM96.8236 16.2638C96.746 15.9956 96.643 15.7722 96.5386 15.5488C96.3822 15.1551 96.1785 14.8267 95.9419 14.5869C95.7053 14.3471 95.4415 14.2017 95.1693 14.1611C94.2405 14.1611 93.6462 15.6828 93.4909 16.1744C93.4642 16.2214 93.4642 16.2638 93.4387 16.3108L91.7858 21.1041L86.7225 35.618H89.4355L95.0663 19.7141L97.2372 25.8974H93.9045L92.9489 28.6303L92.6129 29.6158H98.5542L100.646 35.618L103.437 35.665L96.8236 16.2638ZM152.081 28.8984V28.675V28.541C152.071 27.11 151.776 25.7303 151.247 24.6416C150.719 23.5529 149.99 22.8239 149.187 22.5811C148.741 22.3643 148.28 22.2589 147.818 22.2683H141.929C141.541 22.2683 141.179 22.0895 140.869 21.685C140.725 21.5018 140.609 21.2582 140.533 20.9764C140.456 20.6946 140.421 20.3835 140.43 20.0716C140.43 19.4459 140.585 18.8627 140.869 18.4605C141.171 18.0488 141.547 17.8418 141.929 17.8772H151.358V14.1141H141.877C140.916 14.0605 139.974 14.5997 139.216 15.6381C138.519 16.6236 138.08 18.0559 138.053 19.6247V19.9822C138.027 21.685 138.466 23.2984 139.216 24.3733C139.992 25.4526 140.966 25.9948 141.954 25.8974H147.973C148.051 25.8974 148.128 25.8974 148.206 25.942C148.723 26.0314 150.17 26.523 150.17 28.9878C150.131 29.5399 150.003 30.061 149.802 30.4898C149.6 30.9186 149.333 31.2372 149.032 31.408C148.284 31.9019 147.173 31.7655 145.415 31.7655H138.338V35.5286H148.284C148.959 35.4807 149.62 35.1749 150.22 34.6325C150.903 33.9833 151.447 32.9613 151.77 31.7208V31.6738L151.848 31.408C151.848 31.3609 151.875 31.3186 151.875 31.2716C151.875 31.2269 151.9 31.1822 151.9 31.1375C151.9 31.0928 151.926 31.0481 151.926 30.9588C151.926 30.9141 151.951 30.8694 151.951 30.8247C151.951 30.7777 151.978 30.7353 151.978 30.6906C151.978 30.6436 152.003 30.5566 152.003 30.4672V30.3778C152.003 30.2861 152.029 30.152 152.029 30.0627C152.055 29.7052 152.081 29.3453 152.081 28.9878V28.9408V28.8937V28.8984Z" fill="#EFB433"/>
</svg>
