<svg fill="none" viewBox="0 0 150 56" id="providers--high5games" xmlns="http://www.w3.org/2000/svg"><path d="M56.644 24.914c-.058.02-.115.057-.154.076l3.957-8.876-16.754-.019v5.467h1.795v4h6.543v-4h2.123v9.752h-2.123v-3.676h-6.543v.057h-.019v3.62h-1.756v.018l-.02 5.448h6.987c.135.171.29.362.444.552a6.779 6.779 0 003.204 2.248c.637.21 1.313.324 1.988.324h.367c4.748 0 7.836-3.276 7.836-7.524-.02-5.695-4.96-7.486-7.875-7.467zm4.633-6.133l-1.197 2.914-.135.343-.02.02c1.66.133 7.374 1.39 7.663 7.98.116 2.552-.521 5.105-1.969 6.724h15.326v-5.486l-6.505-.019a6.874 6.874 0 01-1.95-.343 5.345 5.345 0 01-1.563-1.047 5.288 5.288 0 01-1.042-1.562 6.638 6.638 0 01-.348-1.943 6.39 6.39 0 01.348-1.905 4.947 4.947 0 011.061-1.448c.464-.4.966-.723 1.525-.99a6.55 6.55 0 011.911-.38h6.543l-.058-.077.058.076v-5.505H70.001l-1.41 2.648h-7.314zm10.442 7.676c0 1.981 2.046 2.743 3.3 2.743h4.497l-.02-.02.02.02v-1.524h-5.172v-2.038h6.62v-1.924l-5.984.02c-1.524 0-3.261.533-3.261 2.723zm59.061-4.152h.348v.971h.135v-.971h.347v-.114h-.83v.114zm1.969-.134h-.174l-.193.534a1.95 1.95 0 00-.116.362 1.54 1.54 0 00-.116-.362l-.193-.534h-.173l-.077 1.086h.135l.038-.476c.02-.171.02-.343.02-.476.038.133.077.266.135.419l.173.514h.116l.193-.533c.058-.153.097-.286.135-.42 0 .134 0 .325.02.477l.019.476h.135l-.077-1.067zm-102.238-.133H28.87v9.2h1.64v-9.2zm12.352 9.22V26.17h-6.099v1.467h4.459v2H36.88a3.061 3.061 0 01-2.22-.819 4.147 4.147 0 01-.463-.552 2.85 2.85 0 01-.405-1.581c-.039-.82.29-1.6.868-2.19a3.094 3.094 0 012.22-.858H42.188v-1.6H36.899c-3.05 0-4.072 1.886-4.362 2.552a3.673 3.673 0 00-.154.42 5.307 5.307 0 00.116 3.37 4.583 4.583 0 002.528 2.515 5.253 5.253 0 001.872.343h5.79l.174.02zm-25.844-9.2v9.2h1.641v-3.83h6.736v3.83h1.64v-9.2h-1.64v3.77H18.66v-3.77h-1.641zm89.577-.077h-.058c-.444.019-.811.686-.888.857 0 .02-.019.02-.019.038L105.052 24l-2.548 4.857-2.606-4.99-.502-.972c0-.019-.019-.019-.019-.038a2.09 2.09 0 00-.54-.686l-.039-.038c-.02 0-.02-.019-.038-.019h-.02c-.038-.019-.096-.057-.135-.076-.02 0-.038-.019-.038-.019h-.271a.838.838 0 00-.54.248s-.02 0-.02.019a.415.415 0 00-.077.095 2.351 2.351 0 00-.405.99c-.02.115-1.969 7.924-1.969 7.924h1.834l1.332-6.38 3.126 5.866c.155.343.483.571.869.61h.039c.424-.039.791-.286.945-.667l3.089-5.81 1.351 6.381h1.833l-2.084-8.38a1.068 1.068 0 00-1.023-.934zm6.678 5.447h5.327v-1.6h-5.327v1.6zm-2.316 3.848h8.048v-1.6h-6.427v-5.943h6.427v-1.58h-8.048v9.123zM89.36 23.01c-.058-.114-.135-.209-.213-.304a1.391 1.391 0 00-1.023-.59c-.694 0-1.138.647-1.254.856-.02.02-.02.038-.039.058l-1.235 2.038-3.783 6.171h2.027l4.207-6.762 1.622 2.629h-2.49l-.714 1.162-.251.419h4.439l1.563 2.552 2.085.02-4.941-8.248zm41.285 5.372v-.095-.057a2.604 2.604 0 00-2.162-2.534 3.676 3.676 0 00-1.023-.133h-4.4c-.29 0-.56-.076-.792-.248a.796.796 0 01-.328-.686c0-.266.116-.514.328-.685a1.19 1.19 0 01.792-.248h7.045v-1.6h-7.084a3.076 3.076 0 00-1.988.648c-.521.419-.849 1.028-.869 1.695v.152c-.019.724.309 1.41.869 1.867a3.024 3.024 0 002.046.648h4.497c.058 0 .116 0 .174.019.386.038 1.467.247 1.467 1.295a1.24 1.24 0 01-.85 1.029c-.559.21-1.389.152-2.702.152h-5.288v1.6h7.431a3.474 3.474 0 001.447-.381 2.672 2.672 0 001.158-1.238v-.02l.058-.113c0-.02.02-.038.02-.058 0-.019.019-.038.019-.057 0-.019.019-.038.019-.076 0-.019.019-.038.019-.057 0-.02.02-.038.02-.057 0-.02.019-.057.019-.095v-.038c0-.039.019-.096.019-.134.02-.152.039-.305.039-.457V28.4v-.02z" fill="#EFB433"></path></svg>