<svg width="96" height="97" viewBox="0 0 96 97" fill="none" xmlns="http://www.w3.org/2000/svg">
<path d="M80.5407 89.5157C80.5407 89.5157 81.3391 93.5434 50.4844 95.7401C20.9612 97.9369 2.4043 88.9666 2.4043 88.9666C2.4043 88.9666 19.8973 89.8815 39.5801 89.8815C59.7939 90.2483 80.5407 89.5157 80.5407 89.5157Z" fill="#A31D02"/>
<path d="M85.3151 87.431C85.4854 88.5403 83.4498 89.4652 80.2261 89.8342C79.2093 90.0198 77.8519 90.0198 76.4955 90.2044C67.3362 90.759 53.2583 90.2044 44.7773 90.2044C38.1626 90.2044 27.8173 90.5745 18.657 90.39C11.7037 90.39 5.42761 89.8342 2.2049 88.9105C0.848503 88.3558 0 87.8012 0 87.0609C0.170302 84.103 1.1871 82.6235 1.8653 81.6998C2.20591 81.3296 2.3742 80.9595 2.54451 80.5904C2.71381 80.2203 2.88311 79.8501 2.88311 79.2955C2.88311 78.7408 2.54451 77.0768 2.0356 74.6736C0.848503 68.3866 -1.0178 57.1086 1.696 47.309C3.05341 42.317 5.08801 38.989 6.95431 36.4001C7.63252 35.4753 8.31072 34.5505 8.98992 33.8113C9.49782 33.2566 10.0067 32.702 10.3463 32.1473C12.0423 30.2987 12.8908 29.1894 11.5334 27.7099C11.3631 27.5254 11.1948 27.5254 11.1948 27.5254C9.83742 25.8614 6.95431 23.2725 5.08801 20.4992C3.22271 17.5402 2.5435 14.3978 5.76721 11.9935C18.9966 1.82487 64.2828 6.44676 78.0222 18.6495C79.7182 20.129 80.2261 21.793 80.0568 23.4571C79.8875 24.5664 79.5479 25.4912 79.039 26.6006C77.5133 29.3739 74.9688 32.1473 73.2728 33.6268C72.2549 34.5505 72.4242 35.2908 73.2728 36.2145L74.6292 37.694C76.4955 39.7282 79.5479 43.0562 81.7538 49.1576C82.0924 49.8968 82.2617 50.6371 82.432 51.5608C85.6547 62.6542 83.1102 75.2282 82.6013 79.2955C82.6013 79.8501 82.431 80.2203 82.431 80.4048C82.2617 82.0688 84.9755 82.8091 85.3151 87.431Z" fill="#B93203"/>
<path opacity="0.7" d="M74.4599 37.694C72.0857 35.4753 70.8976 37.5095 68.5234 40.4674C63.7749 46.5688 52.2405 55.0745 38.5022 53.595C26.2906 52.3011 19.8452 37.3239 8.98993 33.9958C11.5344 31.038 13.2294 29.7441 11.7027 27.8945C13.7383 29.9286 26.9688 42.5015 43.9298 46.1997C61.2304 49.8968 78.3608 27.1542 78.8697 26.6006C77.343 29.3739 74.7995 32.1473 73.1025 33.6268C71.9154 34.7361 72.7639 35.6599 74.4599 37.694Z" fill="#E37478"/>
<path d="M82.9409 73.9346L82.432 79.2957L82.2617 80.405C82.2617 80.405 70.05 84.2877 66.9966 87.2467C63.7739 90.3902 80.2271 89.6499 80.2271 89.6499C71.746 90.7592 54.4454 90.02 44.7773 90.02C33.0746 90.02 9.66811 91.1294 2.2049 88.7262C3.0534 88.9107 13.2294 90.3902 18.657 88.1704C23.4064 86.3219 8.98991 83.5485 2.7138 80.405C2.8841 80.036 3.0534 79.6658 3.0534 79.1111C3.0534 78.5565 2.7138 76.8925 2.2049 74.4881C2.2049 74.4881 13.0601 88.1704 46.1347 86.8776C76.6648 85.9517 82.9409 73.9346 82.9409 73.9346Z" fill="#911303"/>
<path opacity="0.7" d="M52.9187 47.3092C50.5445 46.7545 61.7393 42.5016 66.1491 39.3581C71.2381 35.4754 72.5945 34.5506 72.0856 35.4754C71.5767 36.4002 63.6046 50.0825 52.9187 47.3092ZM12.7205 28.6337C12.3819 28.4492 14.7561 34.1805 15.7739 36.2146C16.7917 38.2488 25.2717 48.4174 31.2082 50.8228C36.9755 53.226 36.9755 48.4174 34.9399 44.7203C32.7359 41.0221 27.138 41.2067 12.7205 28.6337Z" fill="#911203"/>
<path d="M82.432 79.2956C82.432 79.8502 82.2617 80.2204 82.2617 80.4049C82.2617 80.4049 69.5412 83.7329 67.8452 86.5063C66.6581 88.5405 72.7639 89.6498 76.4955 90.2045C67.3363 90.7591 51.957 93.3601 43.477 93.3601C36.8623 93.3601 29.9531 93.36 18.6571 90.3901C18.9967 89.8343 19.166 89.0951 19.3363 88.3559C19.8452 84.6577 7.12466 82.2545 2.03564 81.5142C2.37424 81.1452 2.54455 80.775 2.71385 80.4049C2.88415 80.0348 3.05345 79.6657 3.05345 79.111C3.05345 78.5564 2.71385 76.8923 2.20494 74.488C1.01784 68.2021 -0.848463 56.9231 1.86534 47.1235C3.22275 42.1315 5.25835 38.8034 7.12466 36.2146C-0.508862 46.3843 11.8731 83.5484 46.1337 85.9516C77.5133 88.5404 82.2617 60.2511 81.5835 49.1577C81.9231 49.8969 82.0924 50.6372 82.2617 51.5609C85.4844 62.6543 82.9409 75.2283 82.432 79.2956Z" fill="#B93203"/>
<path d="M17.9789 39.358C8.98994 31.9627 10.0077 64.3193 21.7105 76.7066C33.0746 88.7249 62.2483 89.4652 71.2382 77.816C80.0568 66.1679 79.8875 51.5608 76.1569 43.6108C72.255 35.4753 62.078 53.0403 45.1169 53.0403C27.4777 53.0403 20.3531 41.3922 17.9789 39.358Z" fill="#C54B09"/>
<path opacity="0.5" d="M80.0568 23.4572C79.8875 24.5665 79.5479 25.4913 79.039 26.6007C77.5133 29.374 74.9688 32.1474 73.2728 33.6269C72.2549 34.5506 72.4242 35.2909 73.2728 36.2146C72.2549 35.6599 59.3641 56.5529 41.5546 53.0415C24.5946 49.7123 14.2472 38.6189 10.6859 32.5164C12.3819 30.6679 13.2304 29.5585 11.873 28.079C11.7027 27.8945 11.5334 27.8945 11.5334 27.8945C9.83742 25.8604 6.95432 23.2726 5.08801 20.4993C5.59691 21.2385 24.4243 42.1315 46.4743 42.1315C67.5055 42.3171 79.5479 24.0118 80.0568 23.4572Z" fill="#9F1905"/>
<path opacity="0.3" d="M66.9966 86.3219C62.7561 84.8425 74.4598 76.3379 79.0399 63.0257C83.618 49.7136 83.618 68.9415 83.618 68.9415C83.618 68.9415 82.2616 78.7411 81.4141 79.8504C80.5656 81.1454 66.9966 86.3219 66.9966 86.3219Z" fill="#BE2F55"/>
<path d="M20.1837 87.0621C15.265 86.5063 3.39201 79.2967 2.3742 75.4129C1.5267 71.5302 0.6782 54.7044 2.7138 53.226C4.74941 51.7466 15.4343 77.8172 34.2617 85.028C52.0712 92.0542 20.1837 87.0621 20.1837 87.0621Z" fill="#A31D02"/>
<path d="M44.7773 68.7568C43.2516 66.9083 44.608 65.6133 45.9654 65.0587C47.3218 64.6885 52.0712 69.6817 52.9187 69.6817C52.9187 69.6817 54.4454 65.799 54.2761 64.504C54.1058 63.5792 51.9019 60.0666 49.0178 58.2181C49.0178 55.8138 48.8475 54.1497 48.8475 53.9652C48.3396 53.4106 44.0991 53.5951 43.0813 53.7796C42.912 53.7796 42.912 55.4447 42.912 57.8479C39.8586 60.0666 37.9933 66.168 39.52 70.0507C41.3853 75.0427 48.5089 73.0097 49.5277 74.3036C50.5445 75.5974 47.8307 78.9254 46.1347 78.7409H45.7951C44.2694 78.1863 43.5912 74.6737 42.5724 74.3036C41.5546 73.9334 39.1804 75.0427 38.6715 76.7068C38.3319 78.1862 42.0635 80.9596 44.9476 82.4391C45.1169 84.1031 45.4565 85.0279 45.4565 85.2125C45.4565 85.2125 47.8307 85.7671 48.1703 85.2125C48.1703 85.0279 48.3396 84.1031 48.3396 82.4391C50.8841 80.7751 53.4286 76.5222 54.1068 74.4881C55.2939 70.791 46.304 70.6054 44.7773 68.7568Z" fill="#FFC700"/>
<path d="M41.7239 70.79C41.3853 72.085 49.5277 73.1943 50.2049 73.9335C50.8841 74.4882 48.8485 77.8162 49.1871 78.5565C49.5277 79.2957 53.5979 75.413 53.9365 73.3788C54.2761 71.3447 47.3218 70.6055 45.4565 69.4962C43.4209 68.3868 41.7239 70.79 41.7239 70.79Z" fill="#F98A00"/>
<path opacity="0.5" d="M66.658 71.1602C65.9788 74.1191 61.569 86.5064 62.9264 88.7251C64.2828 90.9438 75.647 90.5748 79.3786 89.8345C83.1102 89.2798 84.2973 76.1522 84.2973 76.1522L66.658 71.1602Z" fill="#8A1002"/>
<path d="M77.1737 89.2799C75.3084 88.5407 73.4421 87.6159 71.9154 86.5066C71.4065 86.1375 70.8976 85.7674 70.559 85.3972C69.7105 84.658 68.863 83.7332 68.1848 82.6239C67.8442 82.2537 67.6759 81.7001 67.3363 81.33C66.9867 80.7534 66.7019 80.1328 66.4878 79.4815C65.8096 77.6318 65.6403 75.5977 66.1492 73.7491V73.5646C66.1492 73.379 66.1492 73.379 66.3195 73.1944V72.6398V72.4553C66.4878 71.9006 66.8274 71.3459 67.3363 70.7912C67.5066 70.4211 67.8452 70.2366 68.1848 69.8664C71.4065 66.5384 77.343 65.2434 83.2795 67.2776C84.2973 67.6477 85.3151 68.0179 86.1636 68.5715C90.7427 70.9758 93.7961 75.043 94.305 79.1113C94.4746 80.0264 94.4746 80.9696 94.305 81.8847V82.0692C94.305 82.4393 94.1347 82.8095 94.1347 83.1785V83.3642C93.2872 86.322 90.912 88.5407 87.8596 89.4655H87.6893C84.6369 90.5749 80.9053 90.5749 77.1737 89.2799Z" fill="#FF3F00"/>
<path d="M78.1915 85.7672C76.1559 85.028 74.4598 84.1032 72.9331 82.9939C72.9331 82.9939 72.7628 82.8093 72.4242 82.6237C72.2549 82.6237 72.2549 82.4392 72.0856 82.2547C70.8975 81.3298 70.05 80.2205 69.2015 79.1112C69.0322 78.9266 69.0322 78.741 68.8629 78.5565C68.0144 77.2626 67.3362 75.7831 66.9966 74.3036C66.8273 73.5644 66.8273 72.8241 66.8273 72.2695V71.7148V71.1601C66.8273 70.6055 66.9976 70.0508 67.1669 69.4961V69.3116C67.5055 68.2023 68.0144 67.2774 68.6926 66.5382L69.0332 66.1681C69.8807 65.2444 70.8975 64.5041 72.0856 63.9494C72.9331 63.3947 73.9509 63.2102 74.9687 62.8401C77.8519 62.1009 81.2439 62.2854 84.6359 63.3947C87.1804 64.3196 89.3863 65.6134 91.0823 67.0929L91.2516 67.2774C94.1347 69.8663 95.8307 73.0098 96 76.3378V78.1863C96 78.741 95.8307 79.2957 95.6614 79.6658C95.4911 80.2205 95.3218 80.5906 95.1525 81.1453C94.9822 81.5144 94.8139 81.8845 94.4743 82.2547L94.1347 82.6237C93.9644 82.8093 93.7961 83.1784 93.6258 83.364C90.4031 86.692 84.2973 87.8014 78.1915 85.7672Z" fill="#FFA900"/>
<path opacity="0.5" d="M78.8697 62.4701C77.8519 62.6557 79.3786 71.5305 79.5479 75.4132C79.7182 79.2959 76.8341 84.2879 77.1737 85.0282C77.5133 85.5829 84.128 87.2469 87.6893 86.3221C91.2516 85.3972 88.0289 84.2879 87.1804 81.7002C86.3329 79.1113 85.9933 69.8664 86.6725 68.2013C87.3507 66.5384 88.3685 66.1694 88.5378 65.6136C88.7081 65.0589 83.9567 61.5464 78.8697 62.4701Z" fill="white"/>
<path d="M79.3786 81.6998C74.4599 80.0358 71.2372 75.5984 71.9154 71.7157C71.9154 71.5301 71.9154 71.3456 72.0857 71.16C73.2728 67.0927 78.3608 65.2442 83.6191 67.0927C88.8774 68.9413 92.0991 73.5643 90.912 77.6315C90.912 77.8171 90.7427 78.0016 90.7427 78.1862C89.216 81.8843 84.2973 83.3638 79.3786 81.6998Z" fill="#FF7C04"/>
<path d="M79.3786 81.7001C74.4599 80.036 71.2372 75.5987 71.9154 71.716C73.4421 68.0178 78.3608 66.5383 83.2795 68.2023C88.1982 69.8663 91.4209 74.3037 90.7427 78.1864C89.216 81.8846 84.2973 83.3641 79.3786 81.7001Z" fill="#FF9304"/>
<path opacity="0.5" d="M72.7639 82.9938C72.7639 82.9938 72.5936 82.8092 72.255 82.6236C71.5768 82.069 70.2194 80.9596 69.0323 79.2956C68.0144 78.0017 67.1669 76.3377 66.8273 74.4881C66.657 73.9334 66.657 73.1942 66.657 72.4539V72.0849V71.3457V71.16V70.9755C66.657 70.6054 66.8273 70.2352 66.8273 70.0507C66.8273 69.8662 66.9976 69.496 66.9976 69.3115C67.5055 68.0165 68.0144 66.9072 68.6926 66.168C70.05 64.6885 71.4075 63.9493 71.7461 63.9493C72.0857 63.7648 70.3886 64.8741 68.8629 66.9072C68.2768 67.7456 67.8184 68.6826 67.5055 69.6817C67.3352 70.0507 67.3352 70.4209 67.3352 70.791V71.16C67.1669 72.4539 67.3352 73.7489 67.6758 74.8582C69.0322 79.2956 72.4243 82.6236 72.7639 82.9938Z" fill="white"/>
<path d="M75.9866 67.093C75.9866 67.093 69.7105 70.9757 72.9332 76.7081C72.9332 76.7081 68.6927 70.052 75.9866 67.093Z" fill="#FFE016"/>
<path opacity="0.5" d="M86.5032 68.3867C84.8062 68.0165 89.5556 71.16 89.7249 76.1521C89.8952 81.1441 82.0924 82.2535 82.0924 82.2535C82.0924 82.2535 89.0467 83.733 90.912 77.447C92.4387 72.6395 86.5032 68.3867 86.5032 68.3867Z" fill="#D42F55"/>
<path d="M55.4632 37.6953C53.4276 38.2489 51.5623 38.4334 49.696 38.2489C49.1871 38.2489 48.5089 38.2489 48 38.0644C46.8129 37.8788 45.7961 37.5097 44.608 37.1396C44.0991 36.955 43.7595 36.7694 43.2516 36.5849C42.7427 36.2147 42.0635 35.8457 41.7249 35.4756C40.1982 34.1817 39.1804 32.7022 38.6715 30.8537V30.668V29.7443V29.5587V27.7102C38.6715 27.34 38.8418 26.7853 38.8418 26.4163C40.0289 21.6088 44.4387 17.3548 50.5445 15.6919C51.5285 15.3282 52.5596 15.1409 53.5979 15.1372C58.6859 14.5826 63.0958 16.2466 65.6393 19.3901C66.1492 20.1293 66.6581 20.8685 66.9967 21.6088C67.167 21.9778 67.167 22.348 67.3363 22.7181V22.9026C68.0145 25.8605 66.9967 29.1896 64.9621 31.7774L64.7918 31.963C62.5879 34.5507 59.3642 36.586 55.4632 37.6953Z" fill="#FF5C00"/>
<path d="M54.6157 34.1805C52.5801 34.7363 50.5445 34.9208 48.6792 34.7363H47.6614C46.304 34.5507 44.9466 34.1816 43.7595 33.8115C43.5902 33.8115 43.4209 33.6269 43.2516 33.6269C41.8942 32.8866 40.5368 32.1474 39.52 31.0381C39.0111 30.4834 38.6715 29.9288 38.3319 29.3741C38.1626 29.1896 38.1626 29.0039 37.9933 28.8194C37.9933 28.6349 37.823 28.4493 37.823 28.4493C37.6537 27.8946 37.4844 27.3399 37.3151 26.9709V26.7853C37.1455 25.6837 37.1455 24.5588 37.3151 23.4572V23.0871C37.6537 21.7932 37.9933 20.6839 38.8408 19.39C39.3497 18.4652 40.0289 17.5404 40.8764 16.8012C43.0813 14.5825 45.9654 12.7328 49.5267 11.8091C52.0712 11.0688 54.6157 11.0688 56.8196 11.2545H56.9899C60.5512 11.8091 63.6046 13.6577 65.4699 16.2465C65.6402 16.431 65.6402 16.6166 65.8105 16.8012L65.9788 16.9857C65.9788 17.1713 66.1491 17.3558 66.1491 17.5404C66.1491 17.5404 66.1491 17.726 66.3194 17.726C66.4877 18.2807 66.658 18.6497 66.8273 19.2044C66.9976 19.759 66.9976 20.1292 66.9976 20.6839V22.5324C66.9976 22.9026 66.8273 23.0871 66.8273 23.4572C65.6402 27.8946 60.8908 32.5165 54.6157 34.1805Z" fill="#FFA900"/>
<path d="M24.9331 28.0803C22.8975 27.5245 21.2015 26.7853 19.5055 25.8616L17.9788 24.7522C16.961 24.0119 16.1135 23.0871 15.4343 22.3479C15.265 21.7932 14.9254 21.4231 14.7561 21.054C14.4175 20.4994 14.0779 19.9447 13.7383 19.2044C12.8908 17.3559 12.7205 15.5073 13.0601 13.6577V13.4732C13.0601 13.2875 13.0601 13.2875 13.2304 13.103V12.5484V12.3638C13.569 11.439 13.9086 10.8843 14.2472 10.3297C14.4175 9.95952 14.7561 9.59047 14.9264 9.40485C17.9788 5.70777 23.746 4.04375 29.8518 5.70777C30.8696 5.89229 31.8874 6.26244 32.9052 6.81711C37.6536 8.85017 40.8764 12.5484 41.7249 16.6156C41.8952 17.5404 42.0635 18.4652 41.8952 19.39V19.5746C41.8952 19.9447 41.8952 20.3138 41.7249 20.6839V20.8684C41.0457 23.8274 38.8407 26.2306 35.7883 27.5245H35.618C32.5656 28.6338 28.834 29.004 24.9331 28.0803Z" fill="#FF3F00"/>
<path d="M25.7807 24.5666C23.7461 24.0119 21.8798 23.2727 20.1838 22.1634C20.1838 22.1634 20.0135 21.9778 19.6749 21.7932C19.5046 21.7932 19.5046 21.6087 19.3363 21.6087C18.1482 20.6839 17.1314 19.7591 16.2828 18.8353C16.1125 18.6497 16.1125 18.4652 15.9432 18.4652C14.9264 17.1713 14.2472 15.6918 13.7393 14.3969C13.569 13.6577 13.3987 13.103 13.3987 12.3638V11.8091V11.2545C13.3987 10.6998 13.3987 10.1451 13.569 9.59045V9.40483C13.9086 8.29549 14.2472 7.37177 14.9254 6.44695C14.9254 6.26242 15.0957 6.26242 15.0957 6.0768C15.7739 5.15308 16.7918 4.22826 17.9789 3.48907C18.8274 2.93439 19.8452 2.56425 20.862 2.1941C23.7461 0.715709 27.1381 0.715708 30.6994 1.4549C33.2439 2.00958 35.4488 3.30344 37.4844 4.59841L37.6547 4.78293C40.7071 7.00162 42.5734 10.1451 43.0813 13.2886V15.1372C43.0813 15.6918 43.0813 16.2465 42.912 16.6167C42.7417 17.1713 42.7417 17.5404 42.4031 18.0951L41.8942 19.2044C41.8942 19.39 41.7239 19.39 41.7239 19.5745C41.5546 19.7591 41.3853 20.1292 41.216 20.3137C38.1626 24.3832 32.0568 26.0461 25.7807 24.5666Z" fill="#FFA900"/>
<path opacity="0.5" d="M24.9332 1.08474C23.9154 1.26926 26.1203 10.1451 26.4599 13.8422C26.7985 17.726 24.4243 22.9026 24.7639 23.6417C25.1025 24.1964 31.7172 25.3058 35.2795 24.0119C38.8418 22.718 35.6191 21.9777 34.431 19.5745C33.2439 17.1713 32.3964 7.92642 33.0746 6.07678C33.7528 4.22825 34.6013 4.04372 34.7706 3.30343C34.6003 2.74875 29.8519 -0.0246035 24.9332 1.08474Z" fill="white"/>
<path d="M26.6292 20.3137C21.5402 19.0199 17.9789 14.9515 18.4878 10.8843C18.4878 10.6998 18.4878 10.5142 18.6581 10.3296C19.5056 6.26241 24.5936 4.04372 29.8519 5.33759C35.1102 6.63146 38.8418 11.0688 37.824 15.3217C37.824 15.5073 37.6537 15.6918 37.6537 15.8763C36.4666 19.7591 31.7172 21.6087 26.6292 20.3137Z" fill="#FF6D04"/>
<path d="M26.6292 20.3137C21.5402 19.0198 17.9789 14.9515 18.4878 10.8842C19.6749 7.18607 24.4243 5.15301 29.5123 6.44688C34.6013 7.74074 38.1626 11.8091 37.6537 15.8763C36.4666 19.759 31.7172 21.6086 26.6292 20.3137Z" fill="#FF9304"/>
<path opacity="0.5" d="M20.1837 22.1633C20.1837 22.1633 20.0134 21.9776 19.6748 21.7931C18.9966 21.2384 17.4709 20.1291 16.2828 18.6496C15.265 17.5403 14.2472 15.8762 13.7383 14.0277C13.569 13.473 13.3997 12.7338 13.3997 12.1781V11.809V11.0687V10.8842V10.6997C13.3997 10.3295 13.3997 9.95939 13.569 9.77486C13.569 9.59034 13.7393 9.22019 13.7393 9.03567C14.0779 7.55618 14.5868 6.44683 15.265 5.70764C16.4521 4.04362 17.8095 3.30333 18.1481 3.1188C18.4877 2.93428 16.7917 4.04362 15.4343 6.26231C14.9254 7.0015 14.4175 8.11085 14.2472 9.22019C14.2472 9.59034 14.0769 9.95939 14.0769 10.3295V10.6997C14.0769 11.9935 14.2472 13.2885 14.5868 14.3968C16.2828 18.8341 19.8441 21.7931 20.1837 22.1622V22.1633Z" fill="white"/>
<path d="M22.2193 6.0769C22.2193 6.0769 16.1135 10.3298 19.8451 16.061C19.8451 15.8765 15.265 9.59056 22.2193 6.0769Z" fill="#FFE016"/>
<path d="M30.6994 38.2488C28.6648 37.6941 26.9688 36.9549 25.2718 36.0301L23.7461 34.9208C22.7283 34.1816 21.8798 33.2567 21.2016 32.5175C20.862 32.1474 20.5234 31.7772 20.3531 31.2226C20.0145 30.6679 19.6749 30.1132 19.3363 29.374C18.4878 27.5255 18.3185 25.6759 18.6571 23.8273V23.6417C18.6571 23.4572 18.6571 23.4572 18.8274 23.2726V22.718V22.5324C18.9967 21.9777 19.3363 21.423 19.6749 20.8683C19.8452 20.4993 20.1838 20.1291 20.3531 19.9446C23.4065 16.2464 29.1737 14.5824 35.2795 16.2464C36.2973 16.431 37.3151 16.8011 38.3319 17.3558C43.0813 19.3899 46.304 23.087 47.1525 27.1554C47.3229 28.0791 47.4911 29.0039 47.3228 29.9287V30.1132C47.3228 30.4834 47.3229 30.8535 47.1525 31.2226V31.4082C46.4733 34.3661 44.2684 36.7693 41.216 38.0643H41.0457C38.3319 38.9891 34.6013 39.1736 30.6994 38.2488Z" fill="#FF4D00"/>
<path d="M31.3786 34.7363C29.343 34.1816 27.4777 33.4413 25.7807 32.332C25.7807 32.332 25.6114 32.1474 25.2718 31.9629C25.1025 31.9629 25.1025 31.7773 24.9332 31.7773C23.7461 30.8536 22.7283 29.9287 21.8797 29.0039C21.7094 28.8194 21.7094 28.6349 21.5411 28.6349C20.5233 27.3399 19.8441 25.8604 19.3362 24.5666C19.1659 23.8274 18.9966 23.2727 18.9966 22.5324V21.9777V21.423C18.9966 20.8684 18.9966 20.3137 19.1669 19.759V19.5745C19.5055 18.4652 19.8451 17.5403 20.5233 16.6166C20.5233 16.431 20.6936 16.431 20.6936 16.2465C21.3708 15.3217 22.3887 14.3979 23.5758 13.6576C24.4243 13.103 25.4421 12.7339 26.4599 12.3638C29.343 11.439 32.735 11.2544 36.127 12.1793C38.6715 12.7339 40.8764 14.0278 42.912 15.3217L43.0823 15.5073C46.1347 17.726 48.001 20.8684 48.5089 24.0119V25.8615C48.5089 26.4162 48.5089 26.9709 48.3396 27.3399C48.1693 27.8946 48.1693 28.2647 47.8307 28.8194L47.3218 29.9287C47.3218 30.1133 47.1515 30.1133 47.1515 30.2989C46.9832 30.4834 46.8129 30.8536 46.6436 31.0381C43.7595 34.5506 37.6537 36.4003 31.3786 34.7363Z" fill="#FFA900"/>
<path opacity="0.5" d="M30.5301 11.4391C29.5123 11.6247 31.7172 20.4995 32.0568 24.1966C32.3964 28.0793 30.0212 33.2569 30.3608 33.9961C30.6994 34.5508 37.3151 35.6601 40.8764 34.3663C44.4387 33.0724 41.216 32.3321 40.0289 29.9289C38.8418 27.5257 37.9933 18.2808 38.6715 16.4311C39.3497 14.5826 40.1982 14.397 40.3675 13.6578C40.3675 12.9186 35.4488 10.1452 30.5301 11.4391Z" fill="white"/>
<path d="M32.3963 30.668C27.3073 29.3741 23.746 25.3069 24.2549 21.2386C24.2549 21.054 24.2549 20.8684 24.4242 20.6839C25.2717 16.6167 30.3607 14.398 35.619 15.6918C40.8763 16.9857 44.6079 21.4231 43.5901 25.6759C43.5901 25.8615 43.4198 26.0461 43.4198 26.2306C42.2337 29.9288 37.315 31.9629 32.3963 30.668Z" fill="#FF7C04"/>
<path d="M32.3963 30.6678C27.3073 29.3739 23.746 25.3056 24.2549 21.2384C25.442 17.5402 30.1914 15.5071 35.2794 16.801C40.3684 18.0949 43.9297 22.1632 43.4208 26.2304C42.2337 29.9286 37.315 31.9628 32.3963 30.6678Z" fill="#FF9304"/>
<path opacity="0.5" d="M25.951 32.332C25.951 32.332 25.7807 32.1474 25.4421 31.9629C24.7639 31.4082 23.2372 30.2989 22.0501 28.8194C21.0323 27.5244 20.0145 26.0461 19.5056 24.1964C19.3353 23.6417 19.166 22.9025 19.166 22.3479V21.9777V21.2385V21.054V20.8684C19.166 20.4993 19.166 20.1292 19.3363 19.9447C19.3363 19.759 19.5056 19.39 19.5056 19.2044C19.8442 17.9105 20.3531 16.8012 21.0323 15.8763C22.2194 14.2123 23.5768 13.4731 23.9154 13.2875C24.255 13.103 22.558 14.2123 21.3709 16.431C20.862 17.1713 20.3531 18.2795 20.1838 19.39C20.1838 19.759 20.0135 20.1292 20.0135 20.4993V20.8684C20.0135 22.1633 20.1838 23.4572 20.5234 24.5666C21.8798 29.0039 25.6124 32.1474 25.951 32.332Z" fill="white"/>
<path d="M27.9856 16.2463C27.9856 16.2463 21.8797 20.4992 25.6114 26.2304C25.6114 26.2304 20.8629 19.7589 27.9856 16.2463Z" fill="#FFE016"/>
<path d="M55.4632 31.4084C53.4276 31.963 51.5623 32.1476 49.696 31.963C49.1871 31.963 48.5089 31.963 48 31.7774C46.8129 31.5929 45.7961 31.2227 44.608 30.8537C44.0991 30.6681 43.7595 30.4835 43.2516 30.299C42.7427 29.9289 42.0635 29.5587 41.7249 29.1897C40.1982 27.8947 39.1804 26.4163 38.6715 24.5667V24.3832V23.4573V23.2728V21.4232C38.6715 21.0541 38.8418 20.4994 38.8418 20.1293C40.0289 15.3218 44.4387 11.0689 50.5445 9.40491C51.5285 9.04118 52.5596 8.85389 53.5979 8.85024C58.6859 8.29557 63.0958 9.95959 65.6393 13.1031C66.1492 13.8434 66.6581 14.5826 66.9967 15.3218C67.167 15.6919 67.167 16.0621 67.3363 16.4311V16.6167C68.0145 19.5746 66.9967 22.9027 64.9621 25.4915L64.7918 25.676C62.5879 28.2648 59.3642 30.299 55.4632 31.4084Z" fill="#FF3F00"/>
<path d="M54.6157 27.8945C52.5801 28.4492 50.5445 28.6348 48.6792 28.4492H47.6614C46.304 28.2646 44.9466 27.8945 43.7595 27.5255C43.5902 27.5255 43.4209 27.3398 43.2516 27.3398C41.8942 26.6006 40.5368 25.8614 39.52 24.751C39.0111 24.1963 38.6715 23.6417 38.3319 23.087C38.1626 22.9025 38.1626 22.7179 37.9933 22.5323C37.9933 22.3478 37.823 22.1633 37.823 22.1633C37.6537 21.6086 37.4844 21.0539 37.3151 20.6838V20.4992C37.1455 19.3977 37.1455 18.2728 37.3151 17.1712V16.8011C37.6537 15.5072 37.9933 14.3979 38.8408 13.1029C39.3497 12.1792 40.0289 11.2544 40.8764 10.5141C43.0813 8.29537 45.9654 6.44683 49.5267 5.52201C52.0712 4.78282 54.6157 4.78282 56.8196 4.96734H56.9899C60.5512 5.52201 63.6046 7.37165 65.4699 9.96048C65.6402 10.145 65.6402 10.3295 65.8105 10.5141L65.9788 10.6997C65.9788 10.8842 66.1491 11.0687 66.1491 11.2544C66.1491 11.2544 66.1491 11.4389 66.3194 11.4389C66.4877 11.9935 66.658 12.3637 66.8273 12.9184C66.9976 13.473 66.9976 13.8432 66.9976 14.3979V16.2464C66.9976 16.6165 66.8273 16.8011 66.8273 17.1712C65.6402 21.6086 60.8908 26.2305 54.6157 27.8945Z" fill="#FFA900"/>
<path d="M52.2405 26.9699C50.3752 26.2307 48.5089 25.307 46.9832 24.1976C46.4743 23.8275 45.9654 23.4573 45.6258 23.0883C44.7773 22.348 43.9298 21.4232 43.2516 20.3138C42.912 19.9448 42.7427 19.3901 42.4031 19.02C42.0535 18.4434 41.7686 17.8227 41.5546 17.1714C40.8764 15.3218 40.7071 13.2887 41.216 11.4391V11.2546C41.216 11.07 41.216 11.07 41.3863 10.8844V10.3297V10.1452C41.5546 9.59054 41.8942 9.03587 42.4031 8.4812C42.5734 8.11105 42.912 7.92653 43.2516 7.55638C46.6436 4.04383 52.5801 2.93448 58.5166 4.96755C59.5344 5.33769 60.5512 5.70784 61.3997 6.26251C65.9788 8.66572 69.0332 12.734 69.5411 16.8013C69.7107 17.7164 69.7107 18.6595 69.5411 19.5746V19.7592C69.5411 20.1293 69.3708 20.4995 69.3708 20.8685V21.0541C68.5233 24.012 66.1491 26.2307 63.0957 27.1555H62.9254C59.7037 28.2649 55.9721 28.2649 52.2405 26.9699Z" fill="#FF3F00"/>
<path d="M53.2583 23.4573C51.2227 22.7181 49.5267 21.7933 48 20.6839C48 20.6839 47.8307 20.4994 47.4911 20.3138C47.3218 20.3138 47.3218 20.1293 47.1525 19.9447C45.9654 19.0199 45.1169 17.9106 44.2684 16.8012C44.0991 16.6167 44.0991 16.4311 43.9298 16.2466C43.0813 14.9527 42.4031 13.4732 42.0635 11.9937C41.8942 11.2545 41.8942 10.5142 41.8942 9.96064V9.40487V8.8502C41.8942 8.29553 42.0645 7.74086 42.2338 7.18619V7.00166C42.5724 5.89232 43.0813 4.9675 43.7595 4.2283L44.1001 3.85816C44.9476 2.93444 45.9654 2.19414 47.1525 1.63947C48 1.0848 49.0178 0.900274 50.0356 0.530127C52.9187 -0.209069 56.3117 -0.0245446 59.7027 1.0848C62.2472 1.82509 64.4531 3.11896 66.1491 4.78297L66.3194 4.9675C69.2015 7.55633 70.8975 10.6998 71.0678 14.0279V15.8764C71.0678 16.4311 70.8975 16.9858 70.7282 17.3559C70.5579 17.9106 70.3896 18.2807 70.2193 18.8354C70.049 19.2044 69.8807 19.5746 69.5411 19.9447L69.2015 20.3138C69.0322 20.4994 68.8629 20.8685 68.6926 21.0541C65.4709 24.3821 59.3641 25.676 53.2583 23.4573Z" fill="#FFA900"/>
<path opacity="0.5" d="M53.9366 0.161036C52.9187 0.34556 54.4455 9.22031 54.6158 13.103C54.7851 16.9857 51.9009 21.9778 52.2415 22.718C52.5801 23.2727 59.1939 24.9367 62.7562 24.0119C66.3185 23.0871 63.0968 21.9778 62.2483 19.39C61.3998 16.8012 61.0602 7.55629 61.7394 5.89228C62.4176 4.22826 63.4354 3.85811 63.6047 3.30344C63.6047 2.56425 59.0246 -0.763783 53.9366 0.161036Z" fill="white"/>
<path d="M54.4464 19.39C49.5277 17.726 46.304 13.2886 46.9832 9.40592C46.9832 9.2203 46.9832 9.03578 47.1525 8.85015C48.1703 4.78293 53.4276 2.93439 58.6859 4.78293C63.9443 6.63147 67.167 11.2545 65.9789 15.3217C65.9789 15.5073 65.8096 15.6918 65.8096 15.8764C64.2829 19.5745 59.3651 21.054 54.4464 19.39Z" fill="#FF7C04"/>
<path d="M54.4464 19.3901C49.5277 17.7261 46.304 13.2887 46.9832 9.40602C48.5089 5.70785 53.4276 4.22836 58.3463 5.89237C63.2651 7.55639 66.4878 11.9938 65.8096 15.8765C64.2829 19.5746 59.3651 21.0541 54.4464 19.3901Z" fill="#FF9304"/>
<path opacity="0.5" d="M47.8307 20.684C47.8307 20.684 47.6604 20.4994 47.3218 20.3138C46.6436 19.7591 45.2862 18.6498 44.0991 16.9858C43.0813 15.6919 42.2338 14.0279 41.8952 12.1783C41.7249 11.6247 41.7249 10.8844 41.7249 10.1452V9.77505V9.03585V8.85023V8.66571C41.7249 8.29556 41.8952 7.92651 41.8952 7.74089C41.8952 7.55636 42.0635 7.18622 42.0635 7.00169C42.5724 5.70783 43.0813 4.59848 43.7605 3.85819C45.1169 2.3798 46.4743 1.6395 46.8129 1.6395C47.1525 1.45498 45.4565 2.56432 43.9298 4.59848C43.3438 5.43657 42.8854 6.37314 42.5724 7.37184C42.4031 7.74089 42.4031 8.11104 42.4031 8.48118V8.85023C42.2328 10.1452 42.4031 11.4391 42.7427 12.5484C44.0991 16.9858 47.4911 20.3138 47.8307 20.684Z" fill="white"/>
<path d="M51.0534 4.78284C51.0534 4.78284 44.7773 8.66554 48 14.3979C48 14.3979 43.7595 7.74182 51.0534 4.78284Z" fill="#FFE016"/>
<path opacity="0.5" d="M61.569 6.0767C59.873 5.70765 64.6224 8.85006 64.7917 13.8421C64.962 18.8352 57.1592 19.9446 57.1592 19.9446C57.1592 19.9446 64.1135 21.423 65.9788 15.1371C67.5055 10.3295 61.569 6.0767 61.569 6.0767Z" fill="#D42F55"/>
<path opacity="0.5" d="M41.0467 15.1373C41.0467 15.1373 45.4565 20.1293 52.4108 23.4574C59.5334 26.7854 63.4353 26.9699 63.4353 26.9699C63.4353 26.9699 60.0433 33.8116 53.4276 34.5508C46.8129 35.2911 46.6436 31.7774 46.6436 31.7774C46.6436 31.7774 34.432 34.3663 29.0034 26.2307C23.5758 18.0952 41.5556 9.59058 41.5556 9.59058C41.5556 9.59058 40.5378 13.1031 41.0467 15.1373Z" fill="#D40C55"/>
<path d="M25.6114 57.4778C22.8975 55.4437 20.6926 62.2853 23.4074 64.3195C26.1203 66.3537 28.3262 59.6965 25.6114 57.4778Z" fill="#D66C17"/>
<path opacity="0.5" d="M46.4743 42.3172C43.2516 36.5849 55.1236 38.0644 63.6046 33.996C72.0856 29.9288 63.6046 42.3172 46.4743 42.3172ZM73.2727 16.6167C72.0856 16.8012 73.1025 21.2386 71.9153 25.3069C70.7282 29.3741 78.1915 26.4163 78.1915 22.5325C78.0212 18.6498 73.2727 16.6167 73.2727 16.6167Z" fill="#D26200"/>
</svg>
