<svg width="24" height="24" viewBox="0 0 24 24" fill="none" xmlns="http://www.w3.org/2000/svg">
<path d="M9.19772 11.4394C8.40839 10.6753 7.91667 10.1703 6.09216 10.3775C5.87218 10.4034 5.18637 10.0667 5.05697 9.75585C5.03109 10.6106 6.11804 13.0581 9.19772 11.4394ZM8.62837 16.3992C9.19772 16.3086 9.84471 15.8812 10.22 16.0884L10.4529 16.2179L10.6858 16.0884C11.0481 15.8812 11.7081 16.3086 12.2645 16.3992C10.9705 17.4093 9.92235 17.4093 8.62837 16.3992ZM11.8633 11.4394C12.6656 10.6753 13.1444 10.1703 14.9689 10.3775C15.1889 10.4034 15.8747 10.0667 16.0041 9.75585C16.0429 10.6106 14.943 13.0581 11.8633 11.4394ZM18.7603 12.5919L23.7033 15.933C24.0138 16.1402 24.0915 16.5676 23.8844 16.8784L19.2649 23.7031C19.0579 24.0139 18.6438 24.0916 18.3333 23.8844L13.3902 20.5432C13.0797 20.336 13.002 19.9087 13.2091 19.5979L17.8286 12.7732C18.0356 12.4624 18.4627 12.3847 18.7603 12.5919ZM15.15 12.5531L16.8322 13.2135L12.4068 19.7533C12.1868 20.0641 12.2774 20.4914 12.588 20.6986L16.6381 23.4441L11.6434 21.4886C11.294 21.3461 11.1258 20.9576 11.2681 20.608L14.2701 12.9286C14.4125 12.5919 14.8007 12.4106 15.15 12.5531ZM17.4275 17.1633L20.0154 16.2956L20.1837 19.054L17.5698 19.9475L17.4275 17.1633ZM0.605659 23.2239C0.113945 18.4583 -2.6293 -0.332233 9.59885 0.00446814C14.5807 0.146919 17.738 4.07078 16.6123 9.80766C12.9244 8.82345 12.7303 5.10679 12.7174 5.46939C12.6138 9.5875 4.95345 9.41915 4.22882 9.84651C4.16412 9.88536 3.77592 16.4899 9.78001 18.9763C8.99068 18.9892 8.09783 18.9504 7.61906 18.8468C7.68376 20.6986 7.32144 22.1879 7.02382 23.0685C5.00521 23.2628 3.07717 23.1074 0.605659 23.2239Z" fill='#EDC97F'/>
</svg>
