<svg width="84" height="97" viewBox="0 0 84 97" fill="none" xmlns="http://www.w3.org/2000/svg">
<mask id="mask0_3_721" style="mask-type:luminance" maskUnits="userSpaceOnUse" x="0" y="0" width="84" height="97">
<path d="M0 0H84V97H0V0Z" fill="white"/>
</mask>
<g mask="url(#mask0_3_721)">
<path d="M7.21521 18.349C7.67458 17.6417 12.8747 16.7586 12.8747 16.7586L20.0637 38.1289H16.3922L7.21521 18.349ZM14.5573 10.2243L18.3811 9.51697L24.9576 31.5946L22.5102 38.3068L12.8747 13.403C12.8747 13.403 13.0278 10.4001 14.5573 10.2243Z" fill="#404C29"/>
<path d="M47.4417 96.4141C47.4417 96.4141 40.8644 96.5919 33.8285 96.5919C26.4872 96.5919 18.6866 96.2383 17.7687 94.8257C16.5455 93.4121 19.6045 75.0438 18.3812 52.6135C17.1571 30.1823 8.28637 17.9956 9.66274 15.1695C10.1221 14.1096 12.1101 12.1665 14.5575 10.2245C13.3334 11.2834 14.5575 12.5202 16.6986 16.2294C18.9929 20.1145 22.0519 30.5359 22.0519 30.5359C21.134 19.2314 17.3102 8.81196 18.6866 7.22156C21.2871 5.45535 23.7345 4.04279 24.9577 3.86597L45.9122 12.1665L47.4417 95.7078V96.4141Z" fill="#427038"/>
<path d="M74.0548 81.5792L73.5954 84.7579V84.9347C72.6784 89.7039 71.6074 93.0585 70.231 94.4731C68.0899 96.5919 41.7821 97.474 33.9815 96.7687C32.9114 96.7687 32.2998 96.5919 31.9935 96.4151C31.8404 96.2383 31.5341 96.0614 31.5341 95.532C30.0046 90.4092 32.6051 64.2697 29.8524 39.7196C26.6403 13.0497 24.0398 8.10469 24.1929 4.57227C24.1929 4.39545 24.4991 4.04281 24.9576 3.86498C30.7703 0.687218 66.8658 -2.13791 71.4552 2.27761C72.9838 3.69018 74.3601 12.3444 74.9726 23.6479V23.8247C75.1249 26.1214 75.2789 28.4171 75.4312 30.8896V31.0664C76.1959 48.0212 75.8897 68.5084 74.0548 81.5792Z" fill="#84A61D"/>
<path d="M32.7583 24.8836C30.6171 27.1792 33.2168 77.5162 33.6761 79.9897C33.9824 82.4621 39.0294 82.9916 45.3005 92.1753C48.9711 97.4749 61.3594 95.0014 63.042 88.4671C64.7246 81.9317 70.8426 78.0466 72.5253 73.2775C74.2079 68.5083 72.0659 23.8236 70.5364 21.3511C69.0069 18.8787 62.8889 14.1095 61.8188 4.92581C61.2063 -0.373827 38.4169 2.45231 37.6513 3.68805C37.0396 5.27743 42.0875 14.4621 32.7574 24.8825L32.7583 24.8836Z" fill="#D8EC38"/>
<path d="M49.889 19.7618C34.4409 21.528 34.594 73.9838 53.1003 77.3404C71.6074 80.695 74.5133 16.7588 49.889 19.7618Z" fill="#84A61D"/>
<path d="M51.4186 45.9011C49.5828 43.4286 51.2654 41.6624 52.9472 41.1319C54.7829 40.6024 60.4424 47.1378 61.3594 47.1378C61.3594 47.1378 63.1952 42.015 63.042 40.4256C62.8889 39.1899 60.2893 34.7744 56.6187 32.125C56.6187 28.9453 56.4656 26.8264 56.3124 26.6496C55.5477 25.7665 50.3476 26.1201 49.2774 26.296C49.1243 26.296 48.9712 28.4158 49.1243 31.5946C45.4528 34.4207 43.1586 42.3687 44.8412 47.4905C47.1354 54.0258 56.0062 51.1997 57.2303 52.9669C58.4535 54.7321 55.0892 58.794 53.1003 58.794C52.9472 58.794 52.794 58.794 52.6418 58.6182C50.806 57.9109 49.8891 53.3196 48.8181 52.7891C47.5948 52.2596 44.5349 53.6722 44.0764 55.792C43.6179 57.5582 48.3595 61.4433 51.877 63.2105C52.1833 65.3294 52.3355 66.7429 52.6418 66.7429C52.6418 66.7429 55.5477 67.4492 56.0062 66.7429C56.0062 66.5661 56.1593 65.1525 56.3124 63.0337C59.3714 60.9138 62.5836 55.4384 63.3474 52.6133C64.2662 48.5514 53.2543 48.3736 51.4186 45.9011Z" fill="#D8EC38"/>
<path opacity="0.3" d="M28.476 96.5917C25.8755 95.7086 29.0876 77.1634 29.393 70.9817C29.393 70.9817 28.0166 81.5789 25.8755 87.2302C23.7344 92.8825 23.1227 96.4149 25.1107 96.4149C27.2519 96.4149 28.476 96.5917 28.476 96.5917Z" fill="#912774"/>
<path opacity="0.3" d="M26.0287 4.74894C24.0398 5.45523 30.311 30.7116 33.5231 40.4268C36.7343 50.3167 70.8427 42.3688 73.2901 38.3069C75.7375 34.245 72.9838 8.81082 70.3842 3.86584C67.9368 -1.08116 34.7463 1.92281 26.0287 4.74894Z" fill="white"/>
<path d="M7.21531 18.3491C6.75681 19.5849 5.99206 20.468 6.14518 21.3511C6.29831 22.2342 12.5686 27.7096 16.3923 44.136C20.2161 60.5613 15.7807 92.8825 15.7807 93.9424C15.6276 95.0013 17.7696 94.8255 17.7696 94.8255C17.7696 94.8255 19.7576 65.8589 18.6857 48.9041C17.6156 31.9483 7.21443 18.3491 7.21443 18.3491H7.21531Z" fill="#437035"/>
<path d="M15.6275 40.9562C15.6275 40.9562 14.098 41.8394 13.9458 42.3688C13.7926 42.7225 15.3221 48.3737 15.9338 56.8521C16.3923 64.9759 15.3213 69.5682 15.3213 70.9818C15.3213 72.3944 28.3229 73.1006 30.7694 73.2775C33.2168 73.4543 74.8195 72.9238 74.8195 72.9238C74.8195 72.9238 76.349 72.5712 76.6544 71.5113C77.1138 70.4513 77.8785 40.6026 77.7254 39.19C77.7254 37.7765 75.4311 37.4238 75.4311 37.4238V39.7195C75.4311 39.7195 33.523 43.4287 29.6993 43.4287C25.7224 43.4287 15.7806 42.3688 15.7806 42.3688L15.6275 40.9562Z" fill="#F8D5E0"/>
<path d="M15.4753 54.5555C15.4753 54.5555 26.9466 55.7922 29.8516 55.9691C32.7583 56.3227 77.5723 52.083 77.5723 52.083L77.4192 57.7353C77.4192 57.7353 33.2168 59.8541 29.8524 60.0309C26.6403 60.2078 16.3923 60.914 16.3923 60.914L15.4744 54.5555H15.4753Z" fill="#DE0086"/>
<path opacity="0.5" d="M30.0047 43.4278C29.0877 44.4887 29.8524 46.7844 30.0047 58.0889C30.1578 69.2156 29.393 71.8649 30.0047 72.5712C30.6172 73.4543 71.9137 73.1007 76.9607 71.5113C76.9607 71.5113 76.6544 72.9239 75.1249 72.9239L74.9727 74.5143C74.9727 74.5143 36.1227 76.8099 30.9225 76.2805C25.7224 75.75 17.7687 73.2775 17.7687 73.2775V71.8649C17.7687 71.8649 15.4753 71.5113 15.4753 70.804C15.4753 70.0987 16.6985 64.6233 16.0869 58.0879C15.4744 51.5535 13.7927 42.8993 13.7927 42.5457C13.7927 42.192 15.6275 40.9563 15.6275 40.9563L15.9338 42.0162C15.9338 42.0162 24.4992 43.7814 30.0047 43.4278Z" fill="#A42E89"/>
<path opacity="0.3" d="M13.9457 43.4277C14.7096 42.8993 27.405 43.6056 28.4751 45.3718C29.5461 47.138 29.8524 69.9219 29.3939 71.5113C28.9345 73.1006 16.5454 72.0407 15.9337 71.5113C15.3212 70.9818 17.0039 66.5663 16.24 57.7352C15.4752 49.08 13.9457 43.4277 13.9457 43.4277Z" fill="#A42E89"/>
<path d="M26.1817 43.6055C25.4161 43.6055 41.4767 45.9012 53.7118 44.4886C65.9478 42.8983 77.8785 39.8963 77.8785 39.8963L75.5842 39.7195C75.7373 39.7195 43.7701 43.7814 26.1817 43.6055Z" fill="white"/>
<path opacity="0.2" d="M32.1466 44.6656C30.1577 45.9014 35.0516 58.088 38.7231 60.2079C42.3937 62.5035 59.0651 64.8002 66.2541 61.7972C73.4431 58.7963 76.8075 42.5458 76.9606 41.1342C77.1137 39.7206 62.5835 43.7835 53.2533 44.1362C43.771 44.6666 33.3698 43.9583 32.1466 44.6656Z" fill="#F0AE89"/>
<path d="M30.1578 45.3717C31.2288 44.3107 34.9003 55.2616 35.6642 60.9139C36.2767 66.743 31.6873 71.5111 30.4641 71.5111C29.24 71.5111 30.1578 45.3717 30.1578 45.3717Z" fill="white"/>
<path opacity="0.3" d="M71.4543 2.27641C72.9838 3.68898 74.3601 12.3432 74.9718 23.6467C74.2079 16.0524 72.219 4.7489 66.2541 1.92277C57.0771 -2.66958 24.9576 3.8658 24.9576 3.8658C30.7703 0.686017 66.8649 -2.13911 71.4543 2.27641Z" fill="#911D3D"/>
<path opacity="0.5" d="M56.1593 0.333516C44.688 1.74608 54.0182 13.4033 62.1251 18.3492C70.2319 23.2942 72.3731 10.5771 69.9257 5.10268C67.4774 -0.373776 56.1593 0.333516 56.1593 0.333516Z" fill="white"/>
<path opacity="0.3" d="M15.9338 42.0162C15.9338 42.0162 14.2512 33.1851 15.3213 27.5328C16.3923 22.0574 21.5924 30.1822 23.4282 33.0083C25.1108 35.8344 19.7575 13.0495 21.4402 9.51712C23.1219 5.9847 30.464 39.7195 30.0047 42.192C29.5462 44.8413 15.9338 42.0162 15.9338 42.0162Z" fill="#BE81A9"/>
<path d="M30.0046 43.4276C30.0046 43.4276 30.6171 37.4237 29.0876 27.5328C27.5581 17.6418 24.6513 8.45813 24.6513 8.45813C24.6513 8.45813 28.6282 24.354 30.0054 43.4287L30.0046 43.4276Z" fill="#BEEF31"/>
<path d="M30.7703 76.2803C30.7703 76.2803 30.9226 95.3549 32.7583 96.4148C32.7583 96.4148 31.5342 96.5917 31.0757 95.3549C30.4632 94.1182 30.4641 80.519 30.7703 76.2803Z" fill="#BEE009"/>
<path opacity="0.3" d="M73.4431 84.9346C72.5244 89.7038 71.4542 93.0584 70.0779 94.4719C67.9367 96.5918 41.629 97.4749 33.8284 96.7676C26.4871 96.7676 18.6865 96.414 17.7686 95.0014C17.7686 95.0014 24.9576 96.5918 31.3819 95.5319C34.4409 95.0014 40.8642 95.355 47.5947 95.7087C54.4766 96.0623 61.8187 96.0623 65.7947 94.4719C70.6895 92.5289 72.6784 87.9366 73.4422 84.9336L73.4431 84.9346Z" fill="#911D3D"/>
</g>
</svg>
