<svg width="86" height="96" viewBox="0 0 86 96" fill="none" xmlns="http://www.w3.org/2000/svg">
<mask id="mask0_3_626" style="mask-type:luminance" maskUnits="userSpaceOnUse" x="0" y="0" width="86" height="96">
<path d="M0 0H86V96H0V0Z" fill="white"/>
</mask>
<g mask="url(#mask0_3_626)">
<path d="M77.4572 66.2701C75.7686 75.6981 74.079 83.7551 73.004 84.7841C70.5468 87.3551 44.5936 95.9271 40.754 95.9271C36.9145 95.9271 14.0322 88.2121 11.2677 84.7841C10.9613 84.4411 10.1927 81.1841 9.42495 76.5551C6.50722 61.1271 1.89995 29.5841 4.35722 27.8691C7.58222 25.6411 35.0718 18.6121 44.2863 18.6121C53.3468 18.4411 80.0686 29.4121 81.604 32.1551C82.3718 33.6981 80.0677 51.6991 77.4572 66.2701Z" fill="#517EFF"/>
<path opacity="0.5" d="M4.35725 27.8699C0.057248 30.4399 32.4613 42.2699 39.0645 42.2699C45.6677 42.2699 80.5291 32.8399 81.45 31.9839C82.3718 31.1269 53.0395 18.4409 43.5177 18.4409C34.15 18.6119 5.73952 27.0119 4.35725 27.8689V27.8699Z" fill="white"/>
<path d="M40.7542 95.9269C36.9146 95.4119 37.9896 46.3839 39.0646 44.3269C40.1396 42.2689 78.5324 33.5269 80.0687 33.8689C81.6042 34.2119 74.3864 82.2119 73.0042 84.7839C71.6219 87.3549 42.5969 96.0979 40.7542 95.9269Z" fill="#516BDE"/>
<path opacity="0.74" d="M77.4573 66.27C75.7687 75.698 74.0791 83.755 73.0041 84.784C70.5469 87.355 44.5937 95.927 40.7541 95.927C36.9146 95.927 14.0323 88.212 11.2678 84.784C10.9614 84.441 10.1928 81.184 9.42505 76.555C9.73232 77.069 10.9614 83.584 14.6469 85.641C16.1823 86.498 34.15 93.698 40.2928 93.698C46.4364 93.527 68.8573 88.898 72.0823 83.241C75.3073 77.755 77.4573 66.613 77.4573 66.27Z" fill="#3B2497"/>
<path opacity="0.8" d="M40.7541 95.9271C39.3718 92.6691 52.4241 68.4981 55.6491 66.2691C58.8741 64.0411 65.6314 61.4691 67.7814 63.0121C69.9314 64.5551 73.0032 84.7841 73.0032 84.7841C73.0032 84.7841 69.9323 65.0691 68.3968 62.8401L81.6041 32.4971C81.6041 32.4971 68.8573 60.4411 68.3968 61.4691C67.9363 62.4991 62.2541 62.1551 54.575 65.4121L39.8323 43.8121C39.8323 43.8121 39.525 43.6411 39.3718 44.1551C39.2177 44.6691 52.5791 62.1551 52.7323 66.0981C52.7323 70.0411 40.4468 90.4411 39.9863 92.3271C39.0645 94.2121 40.7541 95.9271 40.7541 95.9271Z" fill="#473CAE"/>
<path d="M54.4218 67.4699C53.9614 69.3549 66.7073 64.0399 67.9364 63.0119C69.0114 61.9839 58.7218 62.4989 54.4218 67.4699Z" fill="#6D8EFF"/>
<path opacity="0.5" d="M43.5176 91.9839C43.5176 91.9839 52.1176 70.3839 55.804 68.4979C59.6435 66.6119 67.1676 64.2119 68.5499 64.8979C69.9322 65.5839 72.8499 83.0699 72.3894 84.6119C71.929 86.1549 53.1935 93.5269 47.5113 94.3839C41.829 95.0699 43.5176 91.9839 43.5176 91.9839Z" fill="#4453CB"/>
<path d="M16.4896 35.584C16.4896 35.584 34.4574 43.641 37.6824 43.984C40.9074 44.327 76.6896 34.555 78.8396 33.355C80.9896 32.327 81.2969 32.155 81.2969 32.155C81.2969 32.155 45.9751 41.755 39.5251 41.069C28.4678 40.041 16.4896 35.584 16.4896 35.584Z" fill="#92BDFF"/>
<path d="M34.4573 42.6121C36.9145 43.1271 37.9895 79.1271 38.1427 80.3271C38.45 81.5271 37.2218 50.4981 39.2177 44.3271L34.4573 42.6121Z" fill="#92BDFF"/>
<path d="M35.0717 43.1269C31.2322 40.5549 47.204 40.8979 47.6645 41.4119C48.1249 41.9269 37.8363 45.8699 35.0717 43.1269Z" fill="#D6E6FF"/>
<path d="M4.81779 33.87C5.27914 30.44 28.9291 42.44 32.9219 51.184C36.9146 59.755 37.3751 87.698 36.7614 90.784C35.9928 94.041 15.2614 87.869 12.1896 81.355C9.11868 74.841 3.89687 40.385 4.81779 33.87Z" fill="#5C86F3"/>
<path d="M30.3114 93.1841C30.3114 93.1841 28.4687 94.0411 27.2396 93.8701C26.0114 93.6981 19.8678 92.4981 19.2542 91.6401C18.6396 90.9551 9.42508 36.4401 10.8074 33.0121C12.1896 29.5841 37.6824 25.4691 39.2187 25.9841C40.7542 26.4981 43.5187 28.2121 43.5187 28.2121C43.5187 28.2121 24.9364 34.7271 22.9396 36.7841C20.9428 38.8411 27.5469 91.6411 27.7001 92.1551C27.7001 92.6691 30.3114 93.1841 30.3114 93.1841Z" fill="#A90029"/>
<path d="M50.7365 93.526C50.7365 93.526 53.6542 94.212 54.4219 94.384C55.1897 94.555 63.6365 91.641 64.7115 90.784C65.7865 89.926 70.0865 39.012 69.7792 35.926C69.4719 32.841 44.2865 26.155 43.3647 26.155C42.4438 26.155 39.8324 26.669 38.6042 27.869C37.3751 28.898 55.6501 36.441 56.8792 39.184C58.1074 42.098 55.0365 92.155 54.5751 92.498C53.9615 92.669 50.7365 93.526 50.7365 93.526Z" fill="#A90029"/>
<path d="M39.9864 29.24C37.2218 28.384 20.175 23.07 20.175 23.07L15.1073 24.27C15.1073 24.27 15.875 21.698 16.4896 21.527C17.1041 21.184 29.3896 18.098 31.6937 18.612C33.9959 19.127 45.6687 28.041 45.6687 28.041L39.9864 29.24Z" fill="#E82E86"/>
<path d="M57.3396 93.5259C57.3396 93.5259 58.5678 41.5839 59.9501 40.0409C61.4864 38.3259 67.6291 37.9839 68.5501 38.1549C69.4719 38.3259 65.0187 89.4119 64.4041 90.2689C63.7896 91.2979 57.3396 93.5259 57.3396 93.5259Z" fill="#C10038"/>
<path d="M30.3114 93.1841C30.3114 93.1841 27.3928 93.8701 26.6251 93.6981C25.8573 93.5271 19.8678 39.6981 20.3291 36.7841C20.7896 33.8701 40.6001 29.4121 40.6001 29.4121C40.6001 29.4121 55.3437 36.2701 56.7251 37.4691C58.1073 38.6691 57.1864 45.0121 57.1864 45.0121C57.1864 45.0121 56.5719 39.8701 55.4969 38.6691C54.4219 37.4691 45.8219 32.4991 41.6751 32.6691C39.0646 32.8411 36.7614 37.4691 33.0751 39.0121C30.7719 39.8701 25.0896 36.9551 24.3219 38.4981C22.0178 42.2701 28.0073 92.1551 28.4687 92.4981C29.0823 93.0121 30.3114 93.1841 30.3114 93.1841Z" fill="#6E41AD"/>
<path d="M11.4218 32.4981C10.8073 34.0411 17.8718 35.5841 19.4073 35.4121C20.9427 35.2411 37.8364 29.9271 38.2968 29.0691C38.7573 28.3841 31.3864 27.1841 29.0823 27.1841C27.0864 27.3551 13.5718 30.9551 11.4218 32.4981Z" fill="white"/>
<path opacity="0.74" d="M43.6719 31.1269C43.6719 31.1269 57.6469 32.6689 66.4001 31.2969C75.1541 29.9269 70.3928 25.9839 70.3928 25.9839L41.2146 29.9259L43.6719 31.1259V31.1269Z" fill="#714BB3"/>
<path opacity="0.5" d="M10.8072 33.012C10.0394 33.184 15.8749 35.584 17.4113 35.926C18.9467 36.269 19.0999 36.784 20.1749 36.098C21.2499 35.412 11.5749 33.012 10.8072 33.012ZM59.1822 38.67C56.4185 38.155 66.0935 36.27 67.7822 36.098C69.779 35.926 65.6322 39.87 59.1822 38.67Z" fill="white"/>
<path d="M11.4219 36.0981C11.5751 34.2121 19.1001 37.9841 19.7146 39.0121C20.3291 40.0411 22.9396 72.7841 22.6323 74.6691C22.3251 76.3841 16.1823 75.8691 16.0291 74.6691C15.8751 73.4691 11.2678 37.8121 11.4219 36.0981Z" fill="#BF0059"/>
<path opacity="0.74" d="M50.7365 93.526C50.7365 93.526 52.8864 92.156 53.3469 91.126C53.8074 90.269 57.0324 45.012 57.0324 45.012C57.0324 45.012 55.3428 90.098 54.7292 92.155C53.9614 94.384 50.7365 93.526 50.7365 93.526Z" fill="#3D31A2"/>
<path d="M45.0541 30.2399C44.9 30.2399 44.7468 30.2399 44.5937 30.4119C44.4396 30.4119 44.2864 30.5839 44.1323 30.5839C40.9073 31.9549 30.1573 38.1269 28.3146 38.6409C27.8541 38.8119 26.9323 38.6409 25.55 38.2979C20.6364 37.0979 11.2678 33.4979 10.5 32.6409C9.7323 31.2689 2.36138 10.0119 11.4218 7.6119C17.1041 6.0689 24.9364 13.6119 30.925 19.4409C34.6114 23.0409 37.5291 25.7839 39.0646 25.6119C39.0646 25.6119 41.3687 27.3269 43.0573 28.5269C43.3646 28.6979 43.6718 28.8689 43.825 29.2119C44.1323 29.5549 44.4396 29.7269 44.7468 29.8979C44.9 30.0689 45.0541 30.0679 45.0541 30.2399Z" fill="#A90029"/>
<path opacity="0.5" d="M28.1613 36.0981C24.9363 37.4691 22.9395 19.1271 23.5541 16.2121C24.1686 13.2981 34.6113 28.2121 41.0613 28.3841C47.5113 28.5551 28.9291 35.9271 28.1613 36.0981Z" fill="#912790"/>
<path opacity="0.74" d="M45.0541 28.3842L44.7468 28.8982V29.0702L44.5927 29.4122L44.1323 29.5842C40.9073 30.9552 30.1573 37.1272 28.3145 37.6412C27.8541 37.8122 26.9323 37.6412 25.55 37.2982C23.2468 32.1552 18.025 9.87023 25.2427 14.8412C26.9323 16.0412 28.9291 17.4122 31.0791 18.6122C34.7645 22.2122 37.6823 24.9552 39.2186 24.7842C39.2186 24.7842 41.5209 26.4982 43.2113 27.6982C42.1363 26.4982 41.675 25.2982 41.5218 24.9552C42.9041 25.9842 44.1323 26.8412 44.5927 27.5272C44.9 27.8692 45.0541 28.0412 45.0541 28.3842Z" fill="#7A0040"/>
<path d="M69.0114 27.012C67.1678 29.241 47.3573 30.269 44.9 29.412C44.7468 29.412 44.5928 29.241 44.4396 29.241C44.2864 29.241 44.2864 29.069 44.1323 29.069C43.825 28.898 43.6718 28.727 43.3646 28.555L42.75 27.869C41.9823 26.841 41.5218 25.641 41.3687 25.298C43.0573 25.298 50.1209 3.52699 52.425 1.29799C54.575 -0.931007 69.625 -0.245007 75.6146 3.01199C76.2291 3.35499 76.8428 3.69799 77.15 4.04099C81.1437 8.32699 71.0073 24.784 69.0114 27.012Z" fill="#A90029"/>
<path opacity="0.5" d="M44.9 28.0401C44.9 28.0401 51.9646 25.9841 57.8 22.5551C66.5541 17.5841 70.8541 7.29809 74.3864 6.95509C78.225 6.44109 72.3896 24.0981 65.4791 26.4981C59.1823 28.7271 44.9 28.0401 44.9 28.0401Z" fill="#912790"/>
<path opacity="0.74" d="M69.0113 27.012C67.1677 29.241 47.3572 30.27 44.9 29.412C44.7468 29.412 44.5927 29.241 44.4395 29.241C44.4395 29.241 44.2863 29.241 43.9791 29.412L43.6718 29.927V29.584L43.5177 28.555V28.384C43.6718 28.212 43.825 27.869 44.1322 27.698C46.4363 25.984 55.3427 23.927 61.025 17.755C68.3968 9.86996 70.8541 3.86996 75.7695 3.01196C76.3831 3.35496 76.9968 3.69796 77.3049 4.04096C81.1436 8.32696 71.0072 24.784 69.0113 27.012Z" fill="#7B003F"/>
<path d="M38.1427 24.44C38.1427 24.44 43.5177 22.898 46.7427 24.44C49.9677 25.984 49.2 28.727 48.8927 29.927C48.5863 31.127 42.1363 30.441 42.1363 30.441C42.1363 30.441 42.4436 29.069 41.9822 27.184C41.6562 26.5 38.1445 24.44 38.1445 24.44H38.1427Z" fill="#A90086"/>
<path opacity="0.3" d="M39.0646 24.0979C39.0646 24.0979 42.5968 25.9839 43.0573 26.4979C43.5178 27.0119 47.9718 25.8119 48.125 25.6409C48.2791 25.4689 45.8218 23.7549 43.5187 23.7549C41.2146 23.7549 39.0646 24.0979 39.0646 24.0979Z" fill="white"/>
<path opacity="0.74" d="M43.3647 24.0979C43.3647 24.0979 47.0501 15.5269 49.9687 9.01194C53.1937 1.98394 64.7115 5.06894 64.5574 10.7259C64.4042 16.0409 50.5824 24.2689 48.4324 24.6119C46.4365 24.7839 43.3647 24.0979 43.3647 24.0979ZM22.6324 35.7549C25.0897 35.7549 19.4074 15.3549 14.6469 11.9269C9.88648 8.49794 8.19693 11.5839 7.58239 13.8119C6.96785 16.2119 10.3469 30.4409 11.4219 31.8119C12.6501 33.1839 22.6324 35.7549 22.6324 35.7549Z" fill="#CA2790"/>
<path opacity="0.74" d="M45.6677 24.44C45.6677 24.44 49.2 23.584 51.0427 21.012C52.8863 18.441 51.9645 10.041 50.5822 10.384C49.2 10.727 43.5177 23.927 43.5177 23.927L45.6677 24.44Z" fill="#900030"/>
<path opacity="0.3" d="M8.34996 8.84003C7.73631 10.212 16.4895 10.384 18.4863 13.47C20.4822 16.555 21.7113 13.812 23.4 13.47C25.0895 13.126 17.4113 7.47003 13.2645 7.29803C9.11769 7.29803 8.34996 8.84003 8.34996 8.84003ZM51.0427 4.21203C50.275 5.41203 58.2613 2.84103 62.1 5.06903C66.0927 7.29803 69.779 5.41203 71.3145 3.69803C72.85 1.81203 54.4218 -1.95897 51.0427 4.21203Z" fill="white"/>
<path opacity="0.74" d="M64.404 17.4119C60.8717 21.5259 66.554 25.9839 67.4749 25.6409C68.5499 25.2979 75.9217 15.3549 75.154 9.86889C74.2322 4.04089 71.0072 9.86889 64.404 17.4119ZM24.3217 26.6699C24.629 28.2119 38.2967 28.5549 39.2186 28.3839C40.1395 28.2119 33.229 24.7839 29.2363 20.3269C25.2427 15.8689 23.8613 15.5269 23.554 16.2119C23.2467 16.8979 24.0145 25.4709 24.3217 26.6699Z" fill="#780021"/>
<path d="M5.43232 51.1839C5.43232 51.1839 3.58959 35.7549 4.81778 31.9839C6.04686 28.2119 7.12186 26.6689 7.12186 26.6689C7.12186 26.6689 4.81778 27.0119 4.05005 27.8689C3.28232 28.7269 3.28232 33.8689 5.43232 51.1839Z" fill="#92BDFF"/>
<path d="M4.05005 28.555C4.05005 29.755 5.12505 30.098 5.43232 29.755C5.5864 29.584 6.50732 27.355 6.50732 27.355C6.50732 27.355 4.05005 27.355 4.05005 28.555Z" fill="#D6E6FF"/>
</g>
</svg>
