<svg width="91" height="93" viewBox="0 0 91 93" fill="none" xmlns="http://www.w3.org/2000/svg">
<path d="M90.6105 51.7961C87.8868 75.4095 70.5709 92.4841 51.6984 92.4841C50.7248 92.4841 49.7524 92.4841 48.7799 92.3023C47.8064 92.3023 46.6392 92.1205 45.6668 91.9388C29.518 88.8506 15.8983 73.0485 14.147 51.7961C12.2021 28.1838 25.4324 6.02354 45.4721 1.11865C48.0011 0.574382 50.5312 0.210815 53.255 0.210815C76.0183 0.210815 92.1671 22.7346 90.8052 48.3454C90.8052 49.6168 90.6105 50.7054 90.6105 51.7961Z" fill="#846B7A"/>
<path d="M76.7972 51.7961C75.046 73.0474 61.6209 88.8506 45.4721 91.9398C43.5261 92.3023 41.3865 92.4841 39.2458 92.4841C26.5996 92.4841 14.7323 84.8557 7.53244 73.0485C7.33772 72.8667 7.33772 72.6849 7.143 72.5031L6.75473 71.7771C3.44686 65.9643 1.11141 59.2438 0.333701 51.7961C-2.58474 24.9138 13.9523 0.210815 37.6892 0.210815C40.413 0.210815 42.9431 0.574382 45.4721 1.11973C65.5118 6.02354 78.7421 28.1838 76.7972 51.7961Z" fill="#B2939E"/>
<path d="M60.4537 51.796C59.8696 66.6903 49.9471 78.1329 37.8839 78.8601H36.718C24.0718 78.8601 12.981 67.2357 11.6192 51.796C10.0626 35.085 20.5692 20.3735 35.1614 20.3735H36.718C50.5324 21.2803 61.0367 35.6303 60.4537 51.796Z" fill="#A690A5"/>
<path d="M60.4537 51.796C59.8695 66.6903 49.9471 78.1329 37.8839 78.8601C25.8219 78.134 15.51 66.6903 14.147 51.796C12.7863 35.6303 22.7087 21.2803 36.522 20.3735C50.5312 21.2803 61.0378 35.6303 60.4537 51.796Z" fill="#795E70"/>
<path opacity="0.5" d="M13.3693 37.4474C13.3693 37.4474 14.9258 39.6266 15.8983 38.537C16.8719 37.4463 20.9574 25.4584 34.9655 24.0052C48.9747 22.552 58.5077 38.537 58.5077 38.537C58.5077 38.537 51.1142 19.6456 34.7708 20.3728C18.622 21.0988 13.3693 37.4474 13.3693 37.4474Z" fill="#7E527C"/>
<path d="M3.25217 31.9981C3.05745 38.3551 10.2562 37.0837 11.2298 36.7202C12.2022 36.3577 17.4549 24.7322 28.7404 19.8284C40.2194 14.7428 50.726 24.0051 54.4222 28.5464C58.1195 33.0878 68.4314 25.2776 69.2091 21.4623C69.988 17.6481 51.5038 -3.05893 29.9064 2.39023C8.89549 7.83939 3.25333 31.9981 3.25333 31.9981H3.25217Z" fill="white"/>
<path d="M25.043 88.1235C18.622 80.3133 33.4089 82.8561 42.7484 79.0419C52.4761 75.0459 56.367 68.8707 58.8972 66.8722C61.4262 64.6929 69.0143 71.7771 68.2366 74.6834C67.4578 77.5887 52.2814 99.5661 25.043 88.1235Z" fill="#927191"/>
<path opacity="0.5" d="M66.0959 12.1987C64.7341 12.1987 67.4578 14.0154 71.1551 20.0099C74.6565 25.8216 76.7973 32.7239 78.1591 34.1771C79.521 35.6303 88.8605 33.6329 88.8605 33.6329C88.8605 33.6329 87.1092 18.375 76.6026 11.1091C74.4618 9.65589 66.0959 12.1987 66.0959 12.1987ZM59.0919 87.0338C57.1459 88.8505 65.7065 88.487 66.6801 88.1245C67.6525 87.7609 79.1316 81.9482 82.4394 74.6823C85.942 67.2357 76.7973 66.8721 75.2407 66.8721C73.4894 66.8721 70.7657 74.138 65.1224 80.495C59.4814 86.6713 59.0919 87.0338 59.0919 87.0338Z" fill="#6E5066"/>
<path d="M77.1856 35.4496C75.629 35.4496 77.575 45.6208 77.7698 53.431C77.9645 61.0594 89.4435 58.3348 89.6382 57.4269C89.8329 56.518 90.6118 47.074 90.4159 42.5326C90.0277 37.9913 91.3895 34.5407 87.4975 34.3589C83.6066 34.5407 77.1856 35.4485 77.1856 35.4485V35.4496Z" fill="white"/>
<path d="M21.3469 72.685C19.5956 67.5994 22.1246 73.4111 30.1011 76.8628C37.884 80.3145 47.8064 76.8628 51.8931 72.1397C51.8931 72.1397 46.6393 78.4977 37.301 78.8613C27.1826 79.4056 21.3469 72.685 21.3469 72.685Z" fill="#EBF0FF"/>
<path d="M14.7311 81.9483C6.17048 73.0485 16.6771 71.4135 18.6219 71.7771C20.5691 72.3225 25.2377 78.3159 35.1613 79.2237C45.0826 80.1326 38.8574 91.3945 34.9654 91.757C31.464 92.1206 20.3732 87.9428 14.7311 81.9483ZM53.2549 2.39009C48.001 2.39009 60.8431 8.3846 65.5117 10.5638C69.9867 12.7442 75.2406 8.92995 75.2406 8.92995C75.2406 8.92995 69.209 0.93691 53.2538 2.39009H53.2549ZM11.4232 50.5247C11.0349 47.6184 12.7851 41.9874 13.3704 41.2614C13.9534 40.5342 15.7035 54.8843 15.1205 57.4271C14.5364 60.1516 11.6179 52.1597 11.4232 50.5247Z" fill="white"/>
<path d="M65.3182 14.0145C65.3182 14.0145 81.2723 32.7241 74.6565 62.5138C74.6565 62.5138 85.5514 33.4491 65.3182 14.0145Z" fill="#EED6DD"/>
<path opacity="0.8" d="M35.1603 92.3024C35.1603 92.3024 40.9972 93.392 46.834 92.8478C52.8656 92.3024 62.5934 83.0391 62.5934 83.0391C62.5934 83.0391 53.0603 93.9385 35.1603 92.3024Z" fill="#7E527C"/>
<path opacity="0.8" d="M39.4417 92.4841C26.7944 92.4841 14.9259 84.8547 7.72719 73.0474C10.4509 77.4081 19.2062 89.0324 39.4406 92.4831L39.4417 92.4841ZM90.6106 51.7961C87.8869 75.4095 70.571 92.4841 51.6985 92.4841C50.7249 92.4841 49.7525 92.4842 48.78 92.3024C64.9288 90.6685 75.046 82.1312 80.6881 76.3185C87.3039 69.4161 90.8065 49.618 91 48.1637C90.8053 49.618 90.6106 50.7054 90.6106 51.7961ZM1.88916 31.998C1.88916 31.998 5.00347 19.6465 14.9259 11.1092C25.2378 2.3901 44.1103 0.210868 44.1103 0.210868L52.6709 0.0290853C52.6709 0.0290853 39.4406 -0.152698 35.7444 0.392651C32.0471 0.756217 9.67205 2.57188 1.88916 31.998Z" fill="#7E527C"/>
<path d="M26.4049 66.1462C26.2102 64.3284 26.2102 62.6945 26.5996 61.4231C27.7668 60.8777 28.7403 60.5142 29.1286 60.5142C29.9075 60.5142 31.0746 60.696 32.6312 61.2413C32.8259 61.7867 33.0195 62.5127 33.2142 63.4205C34.3243 64.2915 35.6717 64.8575 37.1062 65.0555C36.3274 60.696 35.9391 57.4271 35.5497 55.0661C33.9931 54.8843 32.6312 54.5207 31.6588 54.1572C30.4905 53.7947 29.5181 53.2493 28.3509 52.5233C27.1826 51.7962 26.2102 50.8883 25.6272 49.4351C24.8483 48.1637 24.4589 46.5288 24.2653 44.712C23.6812 40.716 24.2653 36.9019 26.2102 33.6319C28.1562 30.1802 30.6852 28.001 33.9931 27.4567L33.2142 21.644C33.4089 21.2804 36.3274 21.4622 36.3274 21.4622L37.4945 27.6385C38.8575 27.8203 40.6077 28.1828 42.359 29.0917C42.5537 27.6385 42.7484 26.5489 43.3325 25.8217C44.1243 25.2449 45.0627 24.8695 46.0563 24.7321C47.8064 24.3686 48.5853 25.0957 49.363 26.0035C49.7524 26.9124 50.5313 28.5463 50.7248 31.998C50.9196 34.3591 50.7248 35.994 50.5313 36.9019C50.3366 37.8108 49.7524 38.5357 48.78 38.8993C48.1973 39.2446 47.524 39.4333 46.834 39.4446C45.4721 39.6264 44.305 39.2629 43.3314 38.7186C43.1378 37.9915 42.9431 37.2654 42.9431 36.3565C41.6441 35.871 40.2568 35.6244 38.8575 35.6305C39.4405 39.6264 40.0247 43.4406 40.4129 47.2548C44.4997 47.4366 47.6128 48.3455 49.5577 49.7976C51.5037 51.2508 52.6708 53.6129 52.8656 57.0635C53.0603 61.0595 52.0867 64.6919 49.9471 67.5983C47.8076 70.5047 45.0827 71.9589 41.5812 72.1396V77.5888C41.1918 77.7706 38.8575 78.3159 37.6892 78.3159L38.2734 72.1396C36.5232 71.7761 34.9655 71.2307 33.6036 70.1422C33.7984 71.05 33.6036 71.7761 33.4089 72.1396C32.8259 72.5032 32.0471 72.685 30.8799 72.5032C29.5181 72.5032 28.5456 72.1396 28.1562 71.5943C27.1826 70.3229 26.5996 68.5072 26.4061 66.1462H26.4049ZM30.6852 43.2588C31.0746 45.8016 32.2418 47.2548 34.7708 47.6195C34.5772 45.2574 34.3825 41.625 33.9931 36.7201C31.2694 37.629 30.2958 39.8082 30.6852 43.2588ZM41.5801 64.8737C42.7031 64.3353 43.6455 63.5184 44.3038 62.5127C45.0827 61.4231 45.2774 60.3335 45.2774 59.2439C45.0827 57.2453 43.7208 55.9739 41.1918 55.7921C41.1918 58.6985 41.3854 61.7867 41.5801 64.8737Z" fill="#63495F"/>
<path d="M50.3366 57.2454C50.1419 53.7937 48.9747 51.4327 47.0287 49.9795C46.6393 49.7988 46.251 49.4352 45.6669 49.2534C43.7208 48.3445 40.9971 47.8002 37.6893 47.4367V47.256C37.6893 46.8924 37.4945 46.3471 37.4945 45.9835C37.1063 42.5318 36.5221 39.264 35.9391 35.8123C37.4945 35.8123 38.8576 35.9941 40.0247 36.5383C40.0247 37.4473 40.2194 38.1733 40.6077 38.7187C41.5813 39.2629 42.7484 39.6276 44.1103 39.4447C44.6944 39.4447 45.2774 39.2629 46.0563 38.9004C47.0287 38.5369 47.6129 37.9915 47.8064 36.9019C48.0011 35.993 48.1959 34.3591 48.0011 31.9981C47.8076 28.5464 47.4181 26.3672 47.2234 25.4582C46.4446 24.7322 45.0827 24.3686 43.3326 24.7322C42.1643 24.914 41.1918 25.2765 40.6088 26.0036C40.0247 26.7296 39.83 27.6375 39.6353 29.2735C37.8851 28.3646 36.1327 28.0021 34.7708 27.8203L33.6037 21.644C32.0471 22.1894 31.0747 22.7337 31.0747 23.0972V28.0021C27.7668 28.7282 25.2378 30.7267 23.2918 34.1773C21.4587 37.6023 20.7807 41.4655 21.3469 45.2574V45.4392C21.5091 47.04 22.0401 48.5892 22.9035 49.9806C23.6812 51.252 24.6536 52.3416 25.6272 53.0676C26.6671 53.716 27.7751 54.2638 28.9339 54.7026C30.1022 55.0662 31.2694 55.2479 32.826 55.6115C33.0207 56.7011 33.2142 57.9725 33.409 59.4257C33.6037 61.2414 33.9931 63.2399 34.3825 65.4202C32.948 65.2218 31.6006 64.6554 30.4905 63.7842C30.2958 62.8763 30.1022 62.1503 29.9075 61.6049C28.3509 61.0596 27.1838 60.8778 26.4049 60.8778C26.0155 60.8778 25.2378 61.2414 23.8759 61.7867C23.4096 63.3238 23.3428 64.9427 23.6812 66.5087C24.0706 68.8708 24.6548 70.6865 25.4313 72.1397C26.0155 72.685 26.9891 73.0486 28.1551 73.0486C29.3234 73.0486 30.2958 72.8668 30.6852 72.685C30.8799 72.3215 31.0747 71.5954 30.8799 70.6865C32.2418 71.7772 33.7984 72.5033 35.5497 72.685L36.7168 78.4978C37.884 78.4978 38.6628 78.316 38.8576 78.1342V72.685C42.359 72.3215 45.0827 70.8683 47.2234 68.1437C49.7524 64.8749 50.726 61.2414 50.3366 57.2454ZM30.8799 47.4367C29.1298 46.8924 28.1562 45.621 27.9615 43.4407C27.5721 40.1718 28.5457 37.8097 31.2694 36.9019C31.4641 41.625 31.8524 45.0757 32.0471 47.4367V47.8002C31.6588 47.6185 31.2694 47.4367 30.8799 47.4367ZM41.7748 62.5128C40.9983 63.6035 40.2194 64.3295 39.0511 64.8749C39.0511 62.5128 38.8576 60.3335 38.6628 57.9714C38.6628 57.2465 38.6628 56.3376 38.4681 55.6104C39.6353 55.7922 40.4141 55.974 41.1918 56.5193C42.1654 57.0636 42.5537 57.9725 42.7484 59.0621C42.7484 60.3335 42.359 61.4221 41.7748 62.5128Z" fill="#DECDD1"/>
<path d="M47.8076 36.9018C47.6129 37.8107 47.0287 38.5357 46.0563 38.8993C45.4736 39.2445 44.8003 39.4332 44.1103 39.4446C42.7484 39.6264 41.5813 39.4446 40.6077 38.7186L40.0247 36.5382C38.7257 36.0527 37.3383 35.8062 35.9391 35.8122C36.5221 39.2639 37.1062 42.7145 37.4945 45.9834C35.5497 46.5287 33.6036 46.8923 31.8524 47.2548C31.6588 44.8938 31.4641 41.4431 31.0746 36.72C28.3509 37.8096 27.3773 39.99 27.7668 43.2588C27.9615 45.4391 28.9339 46.7105 30.6852 47.2548C26.9879 47.6184 23.6812 47.0741 21.3457 45.2573V45.0756C20.7628 41.0796 21.3457 37.2654 23.2929 33.9954C25.2378 30.5437 27.7668 28.3645 31.0746 27.8202V22.9153C31.2694 22.5518 32.0482 22.0064 33.6037 21.4622L34.7708 27.6385C36.1327 27.8202 37.8839 28.1827 39.6352 29.0916C39.83 27.6385 40.0247 26.5488 40.6088 25.8217C41.3854 25.2764 42.1642 24.9128 43.3326 24.5503C45.0827 24.1867 46.4445 24.5503 47.2234 25.2764C47.6128 26.1853 47.8076 28.3645 48.0011 31.8162C48.1958 34.359 48.0011 35.9929 47.8076 36.9018Z" fill="white"/>
<path opacity="0.2" d="M44.1102 53.613C43.3313 54.7026 42.3601 55.6104 41.1918 56.5194C40.6076 55.974 39.6352 55.7922 38.468 55.6104C38.468 56.3376 38.468 57.2454 38.6628 57.9725C37.1062 58.6986 35.3549 59.0622 33.6036 59.2439C33.4089 57.7908 33.2142 56.3376 33.0194 55.4287C31.464 55.248 30.1022 54.8844 29.1286 54.5208C27.9614 54.1573 26.989 53.6119 25.8207 52.8869C24.6536 52.1598 23.6811 51.252 23.097 49.7988C22.3193 48.5274 21.9298 47.0742 21.5404 45.2575V45.0757C21.5404 45.0757 21.9298 47.0731 31.0746 47.2549H38.0786V47.4367C41.3865 47.6185 44.1102 48.1638 46.0562 49.2534C46.2498 50.1624 45.6679 51.6145 44.1102 53.613Z" fill="#7F6593"/>
<path d="M30.6852 63.6023C30.4905 63.058 34.5772 65.2372 34.5772 65.2372C34.5772 65.2372 31.0746 65.2362 30.6852 63.6023ZM75.6301 31.0891C74.4618 26.3671 74.6565 35.2668 75.6301 40.1717C76.7972 44.8938 77.3802 43.6235 77.3802 43.6235C77.3802 43.6235 77.5749 34.359 75.6301 31.0891Z" fill="white"/>
<path opacity="0.5" d="M48.0012 92.8465C41.9708 92.8465 53.4487 90.123 55.9788 88.6698C58.5078 87.2167 65.1236 89.0323 65.1236 89.0323C65.1236 89.0323 59.2867 93.393 48.0012 92.8465Z" fill="white"/>
<path d="M74.6565 62.5128C71.7381 62.1503 68.6249 71.4137 70.1826 73.4111C71.7381 75.4097 75.6301 69.7787 76.4078 68.1437C77.3814 66.1463 74.6565 62.5128 74.6565 62.5128ZM62.5933 83.038C60.4537 82.6756 65.5117 79.0421 66.4853 78.8614C67.4589 78.6796 67.0683 80.677 66.2906 82.1302C65.5129 83.5834 63.3722 83.2188 62.5933 83.038Z" fill="#63495F"/>
<path d="M62.5933 81.5857C62.0103 82.6754 63.1775 83.2196 64.9288 82.8571C65.5118 82.6754 66.0646 82.5293 66.0646 82.5293C66.0646 82.5293 64.3446 83.765 62.5933 83.9468C61.0368 84.1285 61.4262 82.6754 62.5933 81.5857ZM70.1815 70.497C70.1815 70.497 70.3762 71.2241 72.1275 71.5877C74.6565 72.1319 76.6014 69.2256 76.6014 69.2256C76.6014 69.2256 74.2682 74.3112 71.5434 75.4019C68.6249 76.4915 69.5985 71.9502 70.1815 70.497Z" fill="#A89AA6"/>
</svg>
