<svg width="24" height="24" viewBox="0 0 24 24" fill="none" xmlns="http://www.w3.org/2000/svg">
<path d="M23.5936 4.43711C23.4667 4.29528 23.3142 4.1832 23.1457 4.10784C22.9772 4.03247 22.7962 3.99542 22.6139 3.99898H18.4606V2.5005C18.4606 1.81347 18.2347 1.22416 17.7828 0.734606C17.5718 0.497845 17.3182 0.310515 17.0376 0.184206C16.7571 0.0578964 16.4556 -0.00470474 16.1519 0.000275442H7.84536C7.21122 0.000275442 6.66821 0.244024 6.21634 0.734606C5.9977 0.962978 5.82465 1.23753 5.7079 1.54128C5.59115 1.84503 5.53318 2.1715 5.53758 2.5005V4.00001H1.38432C0.999848 4.00001 0.673283 4.14605 0.403678 4.43814C0.273024 4.57578 0.169811 4.74098 0.100417 4.92353C0.0310222 5.10609 -0.00307974 5.30213 0.000218305 5.49953V7.49991C0.000218305 8.23938 0.200524 8.98399 0.599237 9.73478C0.995101 10.4845 1.53526 11.1613 2.21402 11.766C2.89183 12.3697 3.72059 12.8778 4.70883 13.2882C5.69422 13.6995 6.73087 13.932 7.81689 13.9834C8.21367 14.5386 8.67362 15.0372 9.1858 15.4675C9.55129 15.8223 9.8038 16.1998 9.94335 16.6009C10.081 17.003 10.1532 17.4689 10.1532 17.9986C10.1532 18.5611 10.006 19.0353 9.71172 19.4209C9.41648 19.8066 8.95037 20 8.30673 20C7.58525 20 6.94446 20.2365 6.38152 20.7107C5.81858 21.1837 5.53758 21.7803 5.53758 22.4992V23.4988C5.53559 23.5653 5.54622 23.6315 5.56881 23.6933C5.5914 23.7551 5.62547 23.8112 5.66891 23.8582C5.71234 23.9051 5.76422 23.9419 5.82131 23.9663C5.87841 23.9906 5.93952 24.002 6.00084 23.9997H17.9992C18.0606 24.0019 18.1217 23.9906 18.1788 23.9664C18.2359 23.9422 18.2879 23.9055 18.3315 23.8588C18.3746 23.8116 18.4084 23.7553 18.4308 23.6934C18.4532 23.6315 18.4636 23.5653 18.4616 23.4988V22.4992C18.4616 21.7803 18.1796 21.1837 17.6167 20.7107C17.0692 20.2423 16.39 19.9914 15.6924 20C15.0478 20 14.5798 19.8066 14.2865 19.4209C13.9903 19.0353 13.8469 18.5611 13.8469 17.9986C13.8469 17.4679 13.9162 17.002 14.0558 16.6009C14.1934 16.1998 14.4479 15.8223 14.8133 15.4675C15.3263 15.0378 15.7866 14.5391 16.1832 13.9834C17.247 13.937 18.2966 13.7022 19.2903 13.2882C20.2767 12.8778 21.1073 12.3687 21.7861 11.766C22.4329 11.1999 22.98 10.5118 23.4009 9.73478C23.7967 8.98502 23.9999 8.23938 23.9999 7.49991V5.49953C24.0024 5.30182 23.9676 5.10563 23.8978 4.92296C23.8279 4.74029 23.7244 4.57497 23.5936 4.43711ZM3.20891 10.031C2.30041 9.15472 1.84664 8.31137 1.84664 7.49991V6.00039H5.53758C5.53758 8.17664 5.89357 10.1091 6.60556 11.7969C5.24899 11.4945 4.1174 10.9062 3.20891 10.031ZM22.1516 7.49991C22.1516 8.31137 21.6968 9.15472 20.7874 10.031C19.8789 10.9062 18.7473 11.4945 17.3926 11.7969C18.1037 10.1091 18.4597 8.17664 18.4597 6.00039H22.1516V7.49991Z" fill='#EDC97F'/>
</svg>
