<svg width="93" height="96" viewBox="0 0 93 96" fill="none" xmlns="http://www.w3.org/2000/svg">
<mask id="mask0_3_568" style="mask-type:luminance" maskUnits="userSpaceOnUse" x="0" y="0" width="93" height="96">
<path d="M0 0H93V96H0V0Z" fill="white"/>
</mask>
<g mask="url(#mask0_3_568)">
<path d="M19.7858 84.0459C19.7858 84.0459 21.1556 90.3309 21.917 91.9019C22.6775 93.3159 36.2235 96.1439 45.8132 96.1439C55.4028 96.1439 70.1675 92.8439 70.928 92.2159C71.6885 91.5879 73.2114 83.7319 73.2114 83.7319L19.7858 84.0459Z" fill="#A71100"/>
<path d="M20.0899 82.9462C23.1338 77.6042 68.0363 76.8182 72.9062 82.9462C77.625 88.7602 15.067 91.5882 20.0899 82.9462Z" fill="#FF7A00"/>
<path opacity="0.3" d="M32.2663 93.73C32.2663 93.73 49.3143 94.201 58.5988 91.373C68.0364 88.545 70.4708 85.246 71.8416 83.989C73.2105 82.575 58.4467 77.704 58.4467 77.704L53.4238 76.761C53.4238 76.761 68.6448 82.103 66.5135 85.717C61.6426 93.573 27.2433 92.945 27.2433 92.945L32.2663 93.73Z" fill="#B10053"/>
<path d="M40.6381 94.7301C40.6381 94.7301 50.0747 94.8871 56.7726 93.4731C63.6217 92.0591 68.6446 87.9731 68.6446 87.9731C68.6446 87.9731 59.9685 94.5731 40.6381 94.7301Z" fill="#FF6500"/>
<path opacity="0.3" d="M38.811 88.7601C36.6798 88.9171 36.8329 90.8021 31.8099 92.5301C26.7869 94.1021 40.3339 93.7871 50.2268 92.2161C60.2727 90.6451 63.1654 88.7601 63.6217 87.8161C64.078 86.8741 52.5101 88.4461 47.6393 88.4461C42.9214 88.4461 38.811 88.7601 38.811 88.7601ZM53.1195 95.2011C51.7497 94.7311 66.3623 90.3311 69.253 87.8171C72.2978 85.3031 71.3843 90.1741 69.7103 91.5871C68.1884 93.0021 53.1195 95.2011 53.1195 95.2011Z" fill="#D42F55"/>
<path opacity="0.5" d="M37.5933 88.4451C35.7672 88.4451 36.5277 87.3451 37.8985 86.4031C39.2683 85.4601 61.0342 85.6171 65.1436 85.7741C68.9488 85.7741 55.5549 88.7601 37.5933 88.4451ZM21.3077 82.7901C19.9378 82.7901 20.6983 85.6171 23.4389 86.4031C26.1785 87.3451 31.962 87.9741 33.0276 87.5031C34.0932 87.0311 28.7651 82.9471 21.3077 82.7901Z" fill="white"/>
<path d="M66.5143 42.566C70.1665 38.638 75.3416 21.356 75.3416 21.356L45.661 25.126L15.9795 21.198C15.9795 21.198 21.1555 38.481 24.9598 42.409C28.613 46.18 35.6151 49.009 38.2026 54.35C40.6381 59.535 32.2661 62.52 29.6786 68.334C28.766 70.219 28.3088 72.419 28.0046 74.619C27.3952 79.175 27.7004 83.417 27.7004 83.417C27.7004 83.417 32.7234 85.617 45.9652 85.617C58.4466 85.617 64.23 83.417 64.23 83.417C64.23 83.417 64.3821 79.961 64.0779 75.876C63.7737 73.204 63.3175 70.376 62.2518 68.176C59.5122 62.363 51.1403 59.378 53.5757 54.193C55.8591 49.008 62.8602 46.337 66.5134 42.566H66.5143ZM54.9446 64.877C59.2071 70.062 59.6624 79.489 58.5977 81.532C57.5321 83.574 46.4205 83.574 46.4205 83.574C46.4205 83.574 35.309 83.574 34.2433 81.532C33.1787 79.489 33.635 70.062 37.8975 64.877C42.3111 59.535 43.6809 56.864 42.9204 52.307C42.0069 47.594 37.2881 46.809 32.4172 43.667C27.3952 40.367 22.9806 26.226 24.5026 23.555L46.4205 25.755L68.3395 23.555C69.8604 26.225 65.4468 40.367 60.4248 43.666C55.5539 46.809 50.8342 47.594 49.9216 52.308C49.1611 56.864 50.5309 59.534 54.9446 64.877Z" fill="#E8E5ED"/>
<path d="M9.73975 8.15697C9.73975 8.15697 11.7179 17.427 12.9366 19.627C14.1534 21.827 32.5712 25.755 45.661 25.755C58.7507 25.755 78.9947 21.041 80.0603 19.941C81.126 18.998 83.4093 7.37097 83.4093 7.37097L9.73975 8.15697Z" fill="#A71100"/>
<path d="M10.044 6.42898C14.3065 -1.58402 76.4073 -2.68402 82.9521 6.42898C89.3459 15.07 3.49914 19.313 10.044 6.42898Z" fill="#FF7A00"/>
<path opacity="0.5" d="M66.8186 33.2962C65.2957 37.6962 62.8603 41.9382 60.2727 43.6662C55.707 46.6512 51.4445 47.4372 50.0747 51.2082C49.9226 51.5222 49.9226 51.8362 49.7705 52.3082C49.01 57.0212 50.3798 59.5352 54.7935 64.8782C59.056 70.0622 59.5113 79.4892 58.4457 81.5322C57.381 83.5752 46.2694 83.5752 46.2694 83.5752C46.2694 83.5752 35.1579 83.5752 34.0923 81.5322C33.0276 79.4892 33.4839 70.0622 37.7464 64.8772C41.7037 60.0072 43.2256 57.4932 42.9214 53.5652C42.9214 53.0932 42.7693 52.6222 42.7693 52.1512C41.8558 47.4372 37.137 46.6512 32.2662 43.5092C31.0484 42.7232 29.9838 41.4662 29.0693 39.8952C25.8734 34.5532 23.4379 25.4402 24.6557 23.3982L46.5746 25.5982L68.4926 23.3982C69.1009 24.8122 68.4926 28.8972 66.8186 33.2962Z" fill="#BAA9D6"/>
<path d="M66.8186 33.1402C65.2958 37.5382 62.8603 41.9382 60.2728 43.5092C55.7071 46.4942 51.4446 47.2792 50.0748 51.0512C48.5538 53.4082 47.183 65.0342 46.4226 64.7212C45.509 64.5632 44.7476 57.1782 43.2257 53.4082C43.2257 52.9362 43.0736 52.4652 43.0736 51.9932C42.1601 47.2802 37.4413 46.4942 32.5714 43.3522C31.3537 42.5662 30.288 41.3092 29.3745 39.7382L66.8177 33.1392L66.8186 33.1402Z" fill="#FFA900"/>
<path d="M28.614 38.6381C28.4609 33.4531 65.753 32.1971 66.6665 32.9821C67.5791 33.7681 61.0342 41.7811 45.0518 42.5661C28.9182 43.3521 28.613 38.6381 28.613 38.6381H28.614Z" fill="#FFC700"/>
<path d="M58.5987 81.532C57.6852 84.36 37.4412 84.517 34.2443 81.532C33.9411 81.218 32.8755 78.704 33.9411 76.976C36.9849 72.576 45.2048 66.763 46.2694 66.763C47.6393 66.606 56.1633 72.576 58.5987 77.133C59.3602 78.233 58.7508 80.903 58.5987 81.532Z" fill="#FF9600"/>
<path opacity="0.3" d="M26.939 44.4522C28.6139 45.7092 37.8984 47.2802 41.0943 49.7942C44.1391 52.3082 43.5298 57.6502 41.2464 59.6922C38.9641 61.7352 39.7255 58.9072 38.811 54.8222C37.8984 50.5792 26.939 44.4522 26.939 44.4522ZM66.5143 42.5662C64.8384 44.1382 54.1851 45.0802 51.4445 49.7942C48.7048 54.3502 50.8361 57.6502 52.0538 58.4362C53.4236 59.2212 51.9017 54.6652 55.4028 51.0512C58.9029 47.4372 63.6217 45.5512 66.5143 42.5662Z" fill="#912790"/>
<path d="M63.6217 43.1949C61.9477 42.5659 65.7529 38.0099 66.5134 35.3389C67.4269 32.6679 67.8832 35.4959 67.2748 39.2669C66.6655 43.0369 63.9259 43.3519 63.6217 43.1949ZM21.916 30.3109C21.0025 31.8819 24.0473 40.3669 26.6338 42.0949C29.0703 43.8229 28.614 40.3669 28.1567 39.1099C27.5483 37.8529 23.1338 28.2689 21.916 30.3109ZM33.789 65.1919C33.1797 67.2339 36.5287 64.2489 38.0506 61.7349C39.5725 59.2209 34.7016 62.3629 33.7881 65.1919H33.789ZM56.9238 64.5629C56.3154 64.7199 57.381 69.1199 59.6643 69.4329C61.9477 69.9049 59.8164 64.2489 56.9247 64.5629H56.9238Z" fill="white"/>
<path opacity="0.5" d="M30.7443 40.9952C30.7443 40.9952 38.5069 48.3802 44.4424 49.0082C50.3799 49.6372 58.7508 44.9232 60.8821 42.7232C63.0133 40.5232 65.1446 36.5962 65.1446 36.5962C65.1446 36.5962 59.5123 41.3092 49.01 42.7232C38.5069 43.8232 30.7443 40.9952 30.7443 40.9952ZM58.5987 81.5322C57.6852 84.3602 37.4412 84.5172 34.2444 81.5322C33.9411 81.2182 32.8755 78.7042 33.9411 76.9762C33.9411 77.2902 33.636 81.5322 42.7694 82.1602C52.2059 82.7892 55.707 77.9182 58.2945 77.1332H58.7508C59.3602 78.2332 58.7508 80.9022 58.5987 81.5322Z" fill="#E09590"/>
<path opacity="0.5" d="M46.4224 66.6062C44.8996 66.2922 46.1173 74.4622 47.6392 76.9762C49.1621 79.3322 55.7069 77.2902 56.4674 76.0332C57.3809 74.9332 49.4672 67.2342 46.4224 66.6062Z" fill="white"/>
<path opacity="0.3" d="M16.893 2.81518C16.893 2.81518 56.4684 -0.326816 68.3404 4.07218C80.0603 8.47218 48.5527 12.5572 31.0484 11.9282C13.545 11.4572 9.73975 8.15818 9.73975 8.15818C9.73975 8.15818 31.5056 11.9282 49.7704 9.72818C68.3404 7.52818 14.0013 3.75818 14.0013 3.75818L16.893 2.81518Z" fill="#B10053"/>
<path d="M57.9894 24.026C57.9894 24.026 64.8384 22.456 70.1666 19.784C75.4947 16.956 80.0604 10.828 80.0604 10.828C80.0604 10.828 76.5584 16.642 57.9894 24.026Z" fill="#FF6500"/>
<path opacity="0.3" d="M26.3306 15.2271C20.8504 15.6991 20.3941 18.9981 21.1556 21.1981C21.916 23.3981 34.3974 24.3401 44.4434 23.0841C54.4893 21.8261 70.3187 17.2701 71.9936 14.5991C73.6676 11.7711 57.8373 13.9711 48.5528 14.5991C39.2683 15.2271 26.3306 15.2271 26.3306 15.2271Z" fill="#D42F55"/>
<path opacity="0.5" d="M27.8516 13.656C26.0265 12.714 48.2486 13.028 56.0112 11.3C63.9259 9.41404 73.9718 7.52904 75.4937 8.47104C77.0166 9.41404 77.0166 9.88604 76.5594 10.671C76.1031 11.3 45.9653 16.641 27.8516 13.656Z" fill="white"/>
<path d="M70.3187 86.403C70.1666 85.617 70.928 83.731 71.0801 83.889C71.2322 84.046 72.602 84.203 72.1457 84.989C71.9937 85.617 70.3187 86.403 70.3187 86.403Z" fill="#FFA457"/>
<path opacity="0.3" d="M27.8516 28.4262C25.1129 29.8402 30.4401 42.2522 38.0506 45.3952C45.509 48.5372 42.6173 35.8102 39.8767 31.8822C36.985 27.9542 27.8516 28.4262 27.8516 28.4262Z" fill="#866999"/>
<path d="M60.8821 27.0121C57.229 28.2681 53.7279 35.8101 54.7935 37.8521C55.8592 39.8951 65.753 35.3391 66.8186 29.9971C67.8843 24.6551 63.0134 26.2261 60.8821 27.0121Z" fill="white"/>
<path opacity="0.5" d="M16.4367 22.7702C16.2846 22.4552 37.4412 29.8402 48.0955 29.3682C58.5987 28.7402 75.0364 22.7692 75.0364 22.7692L75.4937 21.3552C75.4937 21.3552 56.0111 25.1262 44.1391 25.5972C32.2661 26.0692 15.9795 21.3552 15.9795 21.3552L16.4367 22.7692V22.7702ZM64.0779 83.5752C64.0779 83.5752 58.2945 85.7752 45.8131 85.7752C32.5703 85.7752 27.5483 83.5752 27.5483 83.5752C27.5483 83.5752 27.2431 79.3322 27.8525 74.7752C27.8525 74.7752 28.0046 81.8462 29.8307 83.5752C31.5056 85.3032 52.2059 85.3032 58.2945 84.3602C64.5352 83.4172 63.9258 76.0332 63.9258 76.0332C64.23 80.1182 64.0779 83.5752 64.0779 83.5752Z" fill="#9A376D"/>
<path d="M49.9226 64.2491C47.0309 64.7201 48.4007 70.2191 51.1403 71.4761C53.8799 72.8901 53.5757 66.7631 53.1195 65.8201C52.6622 64.8771 50.9882 64.0921 49.9226 64.2491Z" fill="white"/>
</g>
</svg>
