<svg viewBox="0 0 17679 22831" shape-rendering="geometricPrecision" text-rendering="geometricPrecision" image-rendering="optimizeQuality" fill-rule="evenodd" clip-rule="evenodd" id="menu_bonuses" xmlns="http://www.w3.org/2000/svg"><path d="M38 5190h17603v17603H38V5190zm4884 10610h2406v94c0 339 90 574 270 707 180 135 497 202 954 202h628c382 0 648-52 800-155 152-100 229-283 229-542v-407c0-221-60-382-182-476-120-97-394-172-821-221l-2035-221c-757-84-1312-319-1661-712-350-392-523-973-523-1743v-579c0-435 68-823 208-1166 137-341 338-622 602-838 225-189 500-324 821-401 311-75 772-113 1379-116v-893h1631v893c903 9 1596 197 2078 566 495 377 742 922 742 1636v641h-2406v-101c0-281-66-476-197-585-133-109-371-163-714-163h-579c-399 0-671 47-821 142-148 94-223 257-223 486v390c0 343 337 554 1012 629l1852 208c802 92 1398 323 1793 698 394 376 591 903 591 1581v898c0 774-240 1393-722 1859-483 465-1130 699-1943 699h-463v840H7997v-841c-1065-5-1843-194-2331-565-495-378-744-978-744-1799v-645zM9528 4127l5915-1887L11791 53zM8150 4127L2235 2240 5887 53z" fill='#EDC97F'></path></svg>