<svg width="24" height="24" viewBox="0 0 24 24" fill="none" xmlns="http://www.w3.org/2000/svg">
<path d="M0.963899 19.3051H19.4404V24H0.963899V19.3051ZM10.2022 2.3583H17.5993C16.278 0.751863 12.4224 -0.0739834 10.2022 0.00520736C7.97112 -0.0739834 4.11552 0.751863 2.79422 2.3583H10.2022ZM0 3.51223H20.4043V18.1059H0V3.51223ZM3.07581 5.75219H5.51263C6.15162 5.75219 6.67148 6.29521 6.67148 6.96268V13.4111C6.67148 14.0785 6.15162 14.6329 5.51263 14.6329H3.07581C2.43682 14.6329 1.91697 14.0785 1.91697 13.4111V6.96268C1.91697 6.29521 2.43682 5.75219 3.07581 5.75219ZM11.3718 5.75219H8.93502C8.29603 5.75219 7.76534 6.29521 7.76534 6.96268V13.4111C7.76534 14.0785 8.29603 14.6329 8.93502 14.6329H11.3718C12.0108 14.6329 12.5307 14.0785 12.5307 13.4111V6.96268C12.5307 6.29521 12.0108 5.75219 11.3718 5.75219ZM14.7942 5.75219H17.231C17.87 5.75219 18.3899 6.29521 18.3899 6.96268V13.4111C18.3899 14.0785 17.87 14.6329 17.231 14.6329H14.7942C14.1552 14.6329 13.6245 14.0785 13.6245 13.4111V6.96268C13.6245 6.29521 14.1552 5.75219 14.7942 5.75219ZM3.36823 12.1666C3.41155 11.5897 3.53069 11.0693 3.73646 10.5941C3.94224 10.1077 4.23466 9.64385 4.62455 9.19133H2.78339V8.20711H5.80505V9.0782C5.44765 9.45153 5.17689 9.90405 4.98195 10.4131C4.79783 10.9109 4.6787 11.4992 4.65704 12.1666H3.36823ZM9.22744 12.1666C9.27076 11.5897 9.38989 11.0693 9.59567 10.5941C9.80144 10.1077 10.0939 9.64385 10.4838 9.19133H8.63177V8.20711H11.6643V9.0782C11.3069 9.45153 11.0253 9.90405 10.8412 10.4131C10.6462 10.9109 10.5379 11.4992 10.5054 12.1666H9.22744ZM15.0866 12.1666C15.13 11.5897 15.2491 11.0693 15.4549 10.5941C15.6498 10.1077 15.9531 9.64385 16.343 9.19133H14.491V8.20711H17.5235V9.0782C17.1661 9.45153 16.8845 9.90405 16.7004 10.4131C16.5054 10.9109 16.3971 11.4992 16.3646 12.1666H15.0866Z" fill="#fff"/>
<path d="M20.1011 10.662H20.8917V12.4382H22.6245V9.36103C22.2671 9.19133 22.0289 8.80669 22.0289 8.36549C22.0289 7.7659 22.4729 7.27944 23.0144 7.27944C23.5559 7.27944 24 7.7659 24 8.36549C24 8.80669 23.7509 9.19133 23.4043 9.36103V13.2753L20.8917 13.2527V14.7573H20.1011V10.662Z" fill="#fff"/>
</svg>
