<svg width="24" height="24" viewBox="0 0 24 24" fill="none" xmlns="http://www.w3.org/2000/svg">
<path fill-rule="evenodd" clip-rule="evenodd" d="M0 1.2C0 0.88174 0.126428 0.576515 0.351472 0.351472C0.576515 0.126428 0.88174 0 1.2 0H9.6C9.91826 0 10.2235 0.126428 10.4485 0.351472C10.6736 0.576515 10.8 0.88174 10.8 1.2V9.6C10.8 9.91826 10.6736 10.2235 10.4485 10.4485C10.2235 10.6736 9.91826 10.8 9.6 10.8H1.2C0.88174 10.8 0.576515 10.6736 0.351472 10.4485C0.126428 10.2235 0 9.91826 0 9.6V1.2ZM2.4 2.4V8.4H8.4V2.4H2.4ZM13.2 1.2C13.2 0.88174 13.3264 0.576515 13.5515 0.351472C13.7765 0.126428 14.0817 0 14.4 0H22.8C23.1183 0 23.4235 0.126428 23.6485 0.351472C23.8736 0.576515 24 0.88174 24 1.2V9.6C24 9.91826 23.8736 10.2235 23.6485 10.4485C23.4235 10.6736 23.1183 10.8 22.8 10.8H14.4C14.0817 10.8 13.7765 10.6736 13.5515 10.4485C13.3264 10.2235 13.2 9.91826 13.2 9.6V1.2ZM15.6 2.4V8.4H21.6V2.4H15.6ZM13.2 14.4C13.2 14.0817 13.3264 13.7765 13.5515 13.5515C13.7765 13.3264 14.0817 13.2 14.4 13.2H22.8C23.1183 13.2 23.4235 13.3264 23.6485 13.5515C23.8736 13.7765 24 14.0817 24 14.4V22.8C24 23.1183 23.8736 23.4235 23.6485 23.6485C23.4235 23.8736 23.1183 24 22.8 24H14.4C14.0817 24 13.7765 23.8736 13.5515 23.6485C13.3264 23.4235 13.2 23.1183 13.2 22.8V14.4ZM15.6 15.6V21.6H21.6V15.6H15.6ZM0 14.4C0 14.0817 0.126428 13.7765 0.351472 13.5515C0.576515 13.3264 0.88174 13.2 1.2 13.2H9.6C9.91826 13.2 10.2235 13.3264 10.4485 13.5515C10.6736 13.7765 10.8 14.0817 10.8 14.4V22.8C10.8 23.1183 10.6736 23.4235 10.4485 23.6485C10.2235 23.8736 9.91826 24 9.6 24H1.2C0.88174 24 0.576515 23.8736 0.351472 23.6485C0.126428 23.4235 0 23.1183 0 22.8V14.4ZM2.4 15.6V21.6H8.4V15.6H2.4Z" fill="#888"/>
</svg>
