<svg viewBox="0 0 27 27" id="tour-cup-hall" xmlns="http://www.w3.org/2000/svg">
<path fill-rule="evenodd" clip-rule="evenodd" d="M13.5 0C20.954 0 27 6.046 27 13.5S20.954 27 13.5 27C6.045 27 0 20.954 0 13.5S6.045 0 13.5 0zm3.95 21.58h-7.9v-1.33h1.484v-8.12H9.549V11.07h3.694c.932 0 1.85-.112 2.757-.34v9.52h1.45v1.33zM14.033 4.631c.611 0 1.093.177 1.443.527.347.35.523.828.523 1.446 0 .626-.299 1.182-.9 1.67a3.254 3.254 0 01-2.104.733c-.6 0-1.078-.168-1.443-.504-.366-.341-.55-.782-.55-1.33 0-.69.3-1.286.893-1.79.593-.5 1.305-.752 2.137-.752z" fill='#EDC97F'></path>

</svg>