<svg fill="none" viewBox="0 0 150 56" id="providers--isoftbet" xmlns="http://www.w3.org/2000/svg"><g clip-path="url(#gtclip0_1482_21284)"><path d="M27.574 19.661c.473-.006.932.155 1.285.45.187.16.333.357.427.577.094.22.134.456.117.692.018.236-.022.472-.117.692-.094.22-.24.416-.427.576-.351.298-.81.46-1.285.457a1.957 1.957 0 01-1.286-.457 1.57 1.57 0 01-.428-.576 1.471 1.471 0 01-.116-.692 1.471 1.471 0 01.116-.692c.094-.22.24-.417.428-.576a1.958 1.958 0 011.286-.45zm0-1.661a3.772 3.772 0 00-2.435.9 3.189 3.189 0 00-.858 1.108c-.196.422-.29.88-.278 1.34-.015.461.079.92.274 1.343.195.424.487.803.855 1.111.671.56 1.541.867 2.442.862a3.78 3.78 0 002.441-.862c.368-.307.659-.685.854-1.108.195-.422.289-.88.275-1.34a2.985 2.985 0 00-.272-1.338 3.185 3.185 0 00-.85-1.11A3.779 3.779 0 0027.574 18M28.6 26.244v11.54h-2.169V26.168a3.967 3.967 0 002.156-.006l.014.082z" fill="#FCAF1C"></path><path d="M42.176 23.295c-.17-1.991-1.04-3.5-3.21-3.5a2.798 2.798 0 00-1.94.607 2.436 2.436 0 00-.91 1.707v.222c0 4.388 8.372 4.439 8.372 10.69 0 3.095-1.904 4.953-5.346 4.953-3.264 0-5.23-2.238-5.284-5.491h2.081c.054 2.29 1.21 3.716 3.435 3.716 1.877 0 3.087-1.129 3.087-3.202 0-4.44-8.372-4.927-8.372-10.476 0-2.745 2.04-4.521 5.026-4.521 2.986 0 4.965 1.902 5.142 5.276l-2.081.019zM53.58 38c-3.522 0-5.89-2.746-5.89-9.988C47.69 20.771 50.059 18 53.58 18c3.524 0 5.89 2.746 5.89 9.994 0 7.247-2.366 9.987-5.89 9.987V38zm0-18.224c-2.04 0-3.638 1.616-3.638 8.243 0 6.626 1.619 8.243 3.639 8.243 2.02 0 3.638-1.617 3.638-8.243 0-6.627-1.618-8.243-3.638-8.243zM65.252 26.688h5.026v1.781h-5.026v9.265H63V18.286h8.95v1.781h-6.7v6.62zM78.97 37.734V20.067h-4.278v-1.781h10.8v1.781h-4.271v17.667H78.97z" fill="#fff"></path><path d="M87.934 18.286h5.543c3.122 0 4.91 1.94 4.91 4.793 0 1.94-.924 3.691-3.176 4.306v.057c2.517.634 3.639 2.48 3.639 4.902 0 3.608-2.136 5.383-6.7 5.383h-4.216V18.286zm2.251 8.345h1.272c3.238 0 4.68-.914 4.68-3.552 0-2.206-1.041-3.018-3.694-3.018h-2.271l.013 6.57zm0 9.314h2.251c2.721 0 4.156-1.103 4.156-3.608 0-2.504-1.217-3.931-4.156-3.931h-2.264l.013 7.54zM109.984 26.688v1.781h-5.373v7.483h7.624v1.782h-9.876V18.286h9.529v1.781h-7.277v6.62h5.373zM118.471 37.734V20.067H114.2v-1.781h10.801v1.781h-4.272v17.667h-2.258z" fill="#FCAF1C"></path></g></svg>