<svg width="155" height="56" viewBox="0 0 155 56" fill="none" xmlns="http://www.w3.org/2000/svg">
<mask id="mask0_3_791" style="mask-type:luminance" maskUnits="userSpaceOnUse" x="0" y="0" width="155" height="56">
<path d="M0 0H155V56H0V0Z" fill="white"/>
</mask>
<g mask="url(#mask0_3_791)">
<path d="M5.48488 4.6508C6.21078 4.634 6.91518 5.0848 7.45691 5.9108C7.74389 6.3588 7.96795 6.9104 8.11221 7.5264C8.25647 8.1424 8.31786 8.8032 8.29177 9.464C8.31939 10.1248 8.258 10.7856 8.11221 11.4016C7.96795 12.0176 7.74389 12.5664 7.45691 13.0144C6.91825 13.8488 6.21384 14.3024 5.48488 14.294C4.76418 14.3134 4.0637 13.8592 3.51132 13.0144C3.22707 12.5765 3.00226 12.0245 2.85449 11.4016C2.71036 10.7914 2.64928 10.1266 2.67647 9.464C2.64928 8.80139 2.71036 8.13661 2.85449 7.5264C2.99875 6.9104 3.22281 6.3588 3.51132 5.9136C4.06529 5.07608 4.76557 4.629 5.48488 4.6536V4.6508ZM5.48488 0C4.11507 0.00685022 2.79098 0.899766 1.748 2.52C1.18845 3.36321 0.738677 4.42293 0.431272 5.6224C0.13048 6.804 -0.0137776 8.0864 0.00463821 9.3744C-0.0183816 10.6652 0.125876 11.9504 0.425133 13.1348C0.724391 14.322 1.17251 15.3832 1.73726 16.2456C2.76701 17.8136 4.10216 18.6732 5.48488 18.6592C6.85036 18.6842 8.1769 17.8295 9.23097 16.2456C9.79573 15.386 10.2423 14.3276 10.5416 13.1432C10.8408 11.9616 10.9851 10.6792 10.9636 9.3912C10.985 8.10033 10.8421 6.81799 10.5462 5.6448C10.2429 4.44532 9.79733 3.38375 9.24172 2.5368C8.19433 0.903902 6.86256 0.00461859 5.48488 0ZM7.05944 23.0832V55.3952H3.73078V22.8704C4.81338 23.4222 5.95858 23.4164 7.03949 22.8536L7.05944 23.0832Z" fill="#FCAF1C"/>
<path d="M27.8939 14.826C27.633 9.2512 26.2979 5.026 22.9677 5.026C21.8936 4.89152 20.831 5.49812 19.9904 6.7256C19.5911 7.30606 19.2612 8.02961 19.021 8.85164C18.7808 9.67367 18.6355 10.5767 18.5939 11.5052V12.1268C18.5939 24.4132 31.442 24.556 31.442 42.0588C31.442 50.7248 28.52 55.9272 23.2378 55.9272C18.2287 55.9272 15.2115 49.6608 15.1287 40.5524H18.3223C18.4051 46.9644 20.1792 50.9572 23.5938 50.9572C26.4744 50.9572 28.3313 47.796 28.3313 41.9916C28.3313 29.5596 15.4832 28.196 15.4832 12.6588C15.4832 4.9728 18.6139 0 23.1963 0C27.7788 0 30.8159 5.3256 31.0875 14.7728L27.8939 14.826ZM45.3951 56C39.99 56 36.356 48.3112 36.356 28.0336C36.356 7.7588 39.9916 0 45.3951 0C50.8032 0 54.4342 7.6888 54.4342 27.9832C54.4342 48.2748 50.8032 55.9468 45.3951 55.9468V56ZM45.3951 4.9728C42.2644 4.9728 39.812 9.4976 39.812 28.0532C39.812 46.606 42.2966 51.1336 45.3966 51.1336C48.4966 51.1336 50.9797 46.606 50.9797 28.0532C50.9797 9.4976 48.4951 4.9728 45.3951 4.9728ZM63.3076 24.3264H71.0207V29.3132H63.3076V55.2552H59.8515V0.800798H73.5867V5.7876H63.3045V24.3236L63.3076 24.3264ZM84.3599 55.2552V5.7876H77.7947V0.800798H94.3689V5.7876H87.8145V55.2552H84.3599Z" fill="white"/>
<path d="M98.1166 0.800537H106.623C111.414 0.800537 114.158 6.23254 114.158 14.2209C114.158 19.6529 112.74 24.5557 109.284 26.2777V26.4373C113.147 28.2125 114.869 33.3813 114.869 40.1629C114.869 50.2653 111.591 55.2353 104.587 55.2353H98.1166V0.800537ZM101.571 24.1665H103.523C108.492 24.1665 110.705 21.6073 110.705 14.2209C110.705 8.04414 109.108 5.77054 105.036 5.77054H101.551L101.571 24.1665ZM101.571 50.2457H105.026C109.201 50.2457 111.404 47.1573 111.404 40.1433C111.404 33.1321 109.536 29.1365 105.026 29.1365H101.551L101.571 50.2457ZM131.956 24.3261V29.3129H123.71V50.2653H135.41V55.2549H120.254V0.800537H134.878V5.78734H123.71V24.3233L131.956 24.3261ZM144.98 55.2549V5.78734H138.426V0.800537H155.002V5.78734H148.446V55.2549H144.98Z" fill="#FCAF1C"/>
</g>
</svg>
