<svg width="155" height="56" viewBox="0 0 155 56" fill="none" xmlns="http://www.w3.org/2000/svg">
<mask id="mask0_3_1197" style="mask-type:luminance" maskUnits="userSpaceOnUse" x="0" y="0" width="155" height="56">
<path d="M0 0H155V56H0V0Z" fill="white"/>
</mask>
<g mask="url(#mask0_3_1197)">
<path d="M128.96 20.9368H131.595V23.5747H128.96V20.9368ZM60.45 21.4467H63.085V28.51C64.7132 26.1286 66.2619 23.8296 67.89 21.4467H70.99C69.3632 24.0846 67.5019 26.4675 65.7969 28.9359C67.5032 31.6593 69.285 34.2117 70.99 37.0206C69.905 37.0206 68.665 37.3625 67.58 36.9366C66.03 34.6376 64.635 32.0852 63.085 29.7022V37.106H60.45C60.3719 31.9142 60.45 26.6385 60.45 21.4467ZM102.3 25.4462C104.238 25.1073 106.33 24.6799 108.268 25.5317C109.43 26.0431 110.128 27.3193 110.128 28.681C110.205 31.4898 110.128 34.2972 110.128 37.106C109.275 37.0206 108.113 37.5334 107.57 36.5961C105.943 37.4465 103.773 37.7869 102.455 36.2557C101.293 34.5536 101.448 31.4898 103.385 30.5526C104.78 29.8717 106.253 30.0427 107.725 29.9572C107.57 29.1909 107.88 27.8292 106.95 27.4902C105.478 27.1483 103.928 27.4902 102.378 27.4902C102.3 26.8934 102.3 26.2126 102.3 25.4462ZM104.393 32.9355C104.252 33.3435 104.225 33.7882 104.315 34.2132C104.393 34.6376 104.703 34.9795 105.168 35.0635C106.02 35.0635 106.795 34.9795 107.57 34.6391V31.9142C106.718 32.0852 105.71 31.8302 104.935 32.2561C104.807 32.323 104.693 32.4178 104.6 32.5346C104.507 32.6515 104.436 32.7879 104.393 32.9355ZM147.483 25.6172C149.885 24.8509 152.52 25.2768 155 25.2768C155 26.1286 155.155 27.1483 154.225 27.4902C154.69 29.1069 154.69 31.2334 153.295 32.2547C151.59 33.4469 149.343 33.1065 147.405 32.8515L147.793 33.7873C149.653 34.5536 151.745 34.6391 153.528 35.6589C154.923 36.3397 155.078 38.5532 154.38 39.8294C153.528 41.1911 151.9 41.362 150.505 41.4475C148.878 41.4475 146.863 41.362 145.778 39.8294C145.003 38.4677 145.08 36.6816 146.088 35.4894C145.235 34.3841 145.235 32.8515 146.01 31.6593C144.848 29.7022 145.235 26.4675 147.483 25.6172ZM148.645 27.6597C147.87 28.2551 147.638 29.3618 148.103 30.2976C148.18 30.3831 148.18 30.4686 148.258 30.554C149.265 31.1494 150.428 31.2349 151.435 30.7235C152.133 30.2136 152.055 29.1069 151.823 28.3406C151.125 27.1483 149.653 27.2353 148.645 27.6597ZM148.025 36.2557C147.715 37.277 147.328 38.8936 148.723 39.1486C149.963 39.3195 152.21 39.7454 152.21 37.7869C151.125 36.6816 149.498 36.6831 148.025 36.2557Z" fill="white"/>
<path d="M74.9431 23.4038C75.3299 20.5964 79.6699 20.5109 80.2131 23.2343C81.3749 27.8307 82.4599 32.5111 83.5449 37.1916H80.8318C80.5218 35.7444 80.1349 34.2987 79.8249 32.8516H75.4081L74.4781 37.1916H71.6881C72.6815 32.5703 73.7667 27.9733 74.9431 23.4038ZM75.9499 30.3831H79.2831C78.8181 28.2551 78.4299 26.1286 77.8099 24.0846C77.8099 24.0006 77.6549 23.9151 77.5781 23.9151C77.4999 23.9151 77.4218 24.0006 77.4218 24.0846C76.7249 26.1286 76.4149 28.2551 75.9499 30.3831Z" fill="#B62025"/>
<path d="M99.4318 28.9359C98.58 28.9359 97.65 28.8504 96.7968 28.8504C96.72 30.8089 96.72 32.766 96.72 34.723C95.17 34.894 93.155 34.894 92.69 32.8514C92.225 30.383 92.225 27.9146 92.7682 25.5317C93.3882 23.915 94.705 23.6601 96.1782 23.7455L96.875 23.8295L98.9668 24.0005H99.4318V21.7015L96.875 21.3626L96.3318 21.2771C95.8682 21.1917 95.325 21.1917 94.86 21.1917C94.0082 21.1917 93.2332 21.4466 92.4582 21.787C90.52 22.8083 89.6682 25.1912 89.745 27.4047C89.745 30.2121 89.3582 33.7018 91.45 35.8298C93.5432 37.9578 96.875 37.2769 99.51 36.851C99.4318 34.2986 99.4318 31.6578 99.4318 28.9359ZM126.325 27.7451C126.325 27.5742 126.247 27.3192 126.17 27.0643V26.9788C126.15 26.851 126.096 26.7325 126.015 26.6384C125.932 26.3833 125.8 26.151 125.627 25.9575C124.387 24.4249 121.752 24.9363 120.202 25.7866C118.73 24.6813 116.792 24.9363 115.242 25.8721L115.165 25.7866C115.008 25.5704 114.807 25.3967 114.578 25.2786C114.35 25.1606 114.1 25.1015 113.847 25.1058H112.685V37.022H115.165V35.2344V28.0855C116.017 27.7451 117.567 26.8093 118.11 28.171C118.187 28.6809 118.187 29.1908 118.187 29.7022V37.106H120.745V28.0001C121.442 27.8291 122.372 27.3192 123.07 27.5742C123.457 27.7451 123.767 28.0855 123.767 28.5954C123.767 29.0213 123.845 29.4472 123.845 29.7877V37.1914H126.402V28.8504C126.48 28.5114 126.402 28.1695 126.325 27.7451ZM129.038 25.1912H131.518V37.106H129.038V25.1912ZM141.825 25.7011C140.352 24.6813 138.26 25.1058 136.71 25.9575C136.632 25.7866 136.477 25.6171 136.322 25.4462C136.095 25.2734 135.823 25.1841 135.547 25.1912H134.152V37.106H136.71V28.1695C137.562 27.8306 138.802 27.2338 139.655 27.5742L139.81 27.6597C139.965 27.8306 140.12 28.0001 140.197 28.171C140.352 28.51 140.43 28.7664 140.43 29.1068V37.106H142.987V29.7022C142.987 28.255 142.91 26.6369 141.825 25.7011Z" fill="white"/>
<path d="M5.03812 10.8935L25.0331 17.6165C27.5249 18.4615 30.2193 18.2174 32.5499 16.9356L46.3449 9.27688C46.8881 8.93646 47.2749 8.34109 47.2749 7.66025C46.8248 7.32067 46.328 7.06196 45.8031 6.89394L22.7849 0.254989C21.0025 -0.258945 19.1119 -0.0781352 17.4381 0.766357L4.95995 7.06341C4.26312 7.40383 3.56495 7.9152 2.94495 8.42509C3.17812 9.6173 4.02995 10.5531 5.03812 10.8935Z" fill="#C43129"/>
<path d="M29.6818 51.6603V25.7883C29.6818 22.9794 28.055 20.511 25.6518 19.6592C19.065 17.3618 6.50999 12.9363 3.87499 12.0845C2.82488 11.659 1.6701 11.659 0.619989 12.0845C0.154989 13.3622 -0.0781841 14.6384 -1.021e-05 16.0001L1.08499 41.5316C1.16182 43.9146 2.55682 45.9571 4.57182 46.8074L26.1168 55.5759C26.505 55.7453 26.8918 55.8293 27.3568 55.9148C28.83 55.0645 29.76 53.4464 29.6818 51.6603Z" fill="#EA4530"/>
<path d="M30.845 51.1486V26.0429C30.8441 24.2972 31.276 22.5839 32.0948 21.0853C32.9136 19.5867 34.0887 18.3588 35.495 17.5324L47.275 10.6385C47.533 10.4786 47.8219 10.3876 48.1181 10.3727C48.4144 10.3579 48.7097 10.4196 48.98 10.553C48.825 9.36226 48.205 8.341 47.3518 7.66016C47.3518 8.341 46.965 8.93637 46.4218 9.27679L32.6282 16.9355C30.2971 18.2177 27.6022 18.4618 25.11 17.6164L5.03682 10.8934C4.51423 10.7322 4.04244 10.4164 3.67338 9.9809C3.30432 9.54539 3.05228 9.00701 2.945 8.425C1.93817 9.36226 1.085 10.6385 0.619995 12.0002C1.705 11.6597 2.86817 11.6597 3.875 12.0856C6.51 12.9359 19.065 17.3614 25.6518 19.6604C28.055 20.5107 29.6818 22.9791 29.6818 25.7865V51.6599C29.6818 53.4461 28.83 55.0642 27.3582 55.8305C29.295 56.2549 31.3882 55.8305 33.0932 54.7237C31.775 54.2124 30.845 52.7667 30.845 51.1486Z" fill="#D61E25"/>
<path d="M49.0568 10.5533C48.515 10.2983 47.8168 10.2983 47.3518 10.6387L35.5718 17.5326C34.1655 18.3591 32.9904 19.587 32.1716 21.0856C31.3528 22.5842 30.9209 24.2975 30.9218 26.0432V51.1488C30.9181 51.9359 31.1405 52.7044 31.5577 53.3459C31.9748 53.9873 32.5656 54.4694 33.2468 54.724C33.5568 54.5531 33.79 54.2981 34.1 54.1286L46.7318 43.1497C47.408 42.5756 47.955 41.8399 48.3311 40.999C48.7073 40.1582 48.9025 39.2344 48.9018 38.2983L49.2118 11.66C49.135 11.2341 49.0568 10.8937 49.0568 10.5547V10.5533Z" fill="#841618"/>
<path d="M12.245 10.4675C14.5983 10.4675 16.5068 9.629 16.5068 8.59594C16.5068 7.56142 14.5983 6.72437 12.245 6.72437C9.89037 6.72437 7.98185 7.56142 7.98185 8.59594C7.98185 9.629 9.89037 10.4675 12.245 10.4675ZM24.5668 10.4675C26.9215 10.4675 28.83 9.629 28.83 8.59594C28.83 7.56142 26.9215 6.72437 24.5668 6.72437C22.2135 6.72437 20.305 7.56142 20.305 8.59594C20.305 9.629 22.2135 10.4675 24.5668 10.4675ZM36.89 10.4675C39.2447 10.4675 41.1532 9.629 41.1532 8.59594C41.1532 7.56142 39.2447 6.72437 36.89 6.72437C34.5354 6.72437 32.6282 7.56142 32.6282 8.59594C32.6282 9.629 34.5354 10.4675 36.89 10.4675ZM5.19185 18.0423L10.54 20.5107C10.6112 20.5509 10.6707 20.6121 10.7116 20.6874C10.7526 20.7627 10.7735 20.849 10.7718 20.9366L11.5468 43.9143C11.5468 44.1707 11.3932 44.3416 11.16 44.3416H11.005L5.42502 42.1282C5.27002 42.0427 5.1932 41.8717 5.11502 41.7008L4.65002 18.4682C4.65002 18.2132 4.80502 18.0423 5.0382 17.9568C5.11502 17.9568 5.11502 18.0423 5.19185 18.0423ZM19.53 22.7242L23.405 24.6812C23.87 24.9362 24.1032 25.5315 23.87 26.0429C23.87 26.1284 23.7932 26.2124 23.715 26.2978L18.445 33.8726L25.265 49.1915C25.3432 49.277 25.265 49.4465 25.1882 49.5319H25.0332L20.77 48.4267C19.7632 48.1703 18.8332 47.4039 18.3682 46.4667L11.78 33.1917C11.625 32.7658 11.625 32.3399 11.8582 31.9995L18.2132 23.0646C18.6 22.6372 19.1432 22.5547 19.53 22.7242ZM45.9568 38.6385L42.935 21.1061C42.7018 19.9153 41.6168 19.0635 40.5318 19.3185C40.1239 19.3933 39.7476 19.6059 39.4558 19.9265C39.164 20.2471 38.9714 20.6596 38.905 21.1061L34.0218 48.5962C34.0218 48.7656 34.1 48.9351 34.255 48.9351C34.3318 48.9351 34.41 48.9351 34.4869 48.8511L37.2 46.6376C37.2768 46.5536 37.2768 46.5536 37.2768 46.4682L38.44 38.4675L42.0818 35.4037L42.8568 41.1069C42.8568 41.2764 43.0118 41.3618 43.1668 41.3618C43.245 41.3618 43.245 41.3618 43.3218 41.2764L45.725 39.2338C45.88 39.1484 45.9568 38.8949 45.9568 38.6385ZM39.215 33.0208L40.3 25.7025C40.3 25.617 40.455 25.5315 40.5318 25.5315C40.61 25.5315 40.6868 25.617 40.6868 25.7025L41.4618 31.5751L39.215 33.0208Z" fill="white"/>
</g>
</svg>
