<svg fill="none" viewBox="0 0 150 56" id="providers--kalamba" xmlns="http://www.w3.org/2000/svg"><g clip-path="url(#gvclip0_7301_43121)"><path d="M21.704 31.628c1.168-.02 2.338-.01 3.506-.006.23.002.474-.023.685.09.343.163.591.566.505.96-.43 2.025-.87 4.047-1.306 6.07-.148.689-.818 1.177-1.486 1.165-1.235-.003-2.47.002-3.706-.002-.449 0-.934-.355-.902-.859v-.11c.021-.343.11-.675.18-1.01.367-1.68.73-3.36 1.093-5.04.104-.703.75-1.254 1.43-1.258zm98.708-16.484c.487-.085.982-.054 1.473-.058 2.505 0 5.009.002 7.514-.002a.625.625 0 01.574.387c.037.15.017.306-.005.457-1.071 4.96-2.166 9.915-3.253 14.87-.101.422-.49.78-.922.754-.484 0-.969.004-1.454-.002-.321 0-.57-.357-.511-.674.347-1.572.674-3.148 1.037-4.716.053-.259.095-.564-.067-.79-.124-.186-.353-.248-.559-.245-1.052-.006-2.105.014-3.157-.007-.409-.006-.652-.518-.497-.885.381-.943 1.087-1.747 1.97-2.21.826-.445 1.775-.508 2.688-.517.365.009.705-.282.781-.649.205-.983.457-1.958.619-2.952.078-.363-.264-.697-.603-.683-1.352-.007-2.704 0-4.056-.003a.977.977 0 00-.873.507c-.088.15-.112.328-.148.497-.887 4.117-1.806 8.228-2.702 12.344-.042.33-.192.655-.471.838-.192.144-.435.16-.663.148-.818-.003-1.636 0-2.453-.002-.299.018-.561-.274-.556-.576.008-.12.04-.236.066-.353.747-3.468 1.525-6.928 2.279-10.395.233-.978.349-2.014.856-2.895a4.19 4.19 0 013.093-2.188zm-13.628 2.12a.997.997 0 00-.72.703c-.681 3.188-1.387 6.37-2.082 9.556-.108.47-.249.94-.248 1.428.022.292.306.494.573.504 1.301.007 2.601-.002 3.902.005.166-.002.338.017.499-.04a.962.962 0 00.639-.723c.194-.934.415-1.862.598-2.799.058-.319-.135-.729-.48-.74-1.12-.028-2.241-.001-3.36-.01-.331.01-.663-.297-.622-.653.08-.551.406-1.019.745-1.435.771-.968 1.989-1.468 3.182-1.505.424-.01.878.046 1.267-.166a.72.72 0 00.362-.499c.195-.854.386-1.71.571-2.567.045-.262.143-.567-.021-.805-.167-.26-.499-.298-.775-.289-1.343.03-2.689-.04-4.03.035zm-1.33-2.082c.665-.097 1.339-.063 2.008-.088 2.336-.002 4.671.003 7.007-.002.291.01.567.275.565.583-.011.14-.056.275-.085.412-.277 1.19-.513 2.388-.778 3.58-.139.611-.308 1.221-.578 1.785-.365.823-1.09 1.422-1.878 1.779.634.464.996 1.25 1.057 2.04.053.508-.056 1.012-.146 1.508-.189.98-.439 1.962-.918 2.836-.661 1.2-1.979 1.929-3.296 1.97h-8.666a.601.601 0 01-.568-.508c-.018-.196.056-.383.094-.571.754-3.51 1.546-7.01 2.3-10.52.157-.635.24-1.29.454-1.908.291-.793.776-1.518 1.428-2.037a4.106 4.106 0 012-.859zm-14.953-.04c.49-.078.987-.056 1.481-.061 2.487-.005 4.973-.001 7.46 0 .248-.003.51.137.615.38.06.133.033.284.015.424-1.036 4.81-2.093 9.617-3.146 14.423-.074.389-.14.842-.489 1.076-.236.207-.563.177-.851.175-.416-.017-.834.026-1.249-.02-.276-.064-.445-.391-.394-.67.885-4.131 1.82-8.252 2.705-12.385.054-.257.127-.518.107-.784-.014-.147-.075-.303-.204-.377-.416-.255-1.047-.009-1.155.49-.492 2.188-.953 4.383-1.442 6.57-.116.48-.618.758-1.07.739-.436-.029-.872.013-1.306-.03-.317-.032-.564-.39-.476-.712.455-2.147.918-4.292 1.4-6.432.056-.226-.008-.503-.208-.63-.375-.204-.908-.074-1.12.316-.13.229-.175.493-.23.748-.89 4.136-1.81 8.266-2.706 12.4-.087.434-.486.784-.916.779-.886-.011-1.772 0-2.658-.005-.315-.013-.58-.362-.5-.682.88-4.111 1.809-8.212 2.692-12.323.249-1.033.831-1.992 1.67-2.618.577-.439 1.27-.69 1.975-.792zm-14.99-.027c.613-.055 1.231-.015 1.846-.027h6.956a.62.62 0 01.545.392c.058.294-.04.588-.101.873-1.026 4.766-2.083 9.525-3.123 14.288-.05.436-.381.855-.816.9-.52.027-1.04.006-1.56.01-.353.026-.63-.38-.537-.721.302-1.37.594-2.74.896-4.11.083-.354.203-.711.171-1.081a.588.588 0 00-.574-.513c-1.088-.012-2.175.016-3.263-.01-.377-.02-.626-.48-.492-.834.45-1.2 1.452-2.166 2.646-2.53.664-.22 1.367-.227 2.058-.246.35-.008.671-.291.745-.645.207-.987.458-1.965.622-2.962.07-.347-.243-.672-.568-.677-1.369-.01-2.737-.003-4.106-.004a.975.975 0 00-.953.738c-.923 4.274-1.872 8.54-2.802 12.813-.09.426-.473.794-.906.783-.87-.001-1.738.002-2.606 0-.362.04-.677-.368-.567-.724.831-3.843 1.693-7.68 2.528-11.52.113-.556.237-1.114.478-1.627.321-.706.803-1.344 1.425-1.79.604-.444 1.326-.689 2.058-.776zm-12.368.005c.16-.037.326-.026.488-.035.784-.007 1.568.004 2.351-.003.342-.015.675.346.576.704-.78 3.682-1.607 7.355-2.401 11.034-.066.254-.123.53-.023.783.062.195.243.346.446.336 1.085.013 2.171-.005 3.256.009.386-.01.74.412.613.806a4.375 4.375 0 01-1.49 1.984c-.73.542-1.635.791-2.526.817-1.552.013-3.105.014-4.658.01-.347.022-.664-.347-.582-.701 1.092-5.01 2.216-10.013 3.288-15.028.084-.335.35-.604.661-.716zm-12.76.022c.405-.072.817-.052 1.227-.054 2.588.002 5.176 0 7.764 0 .258.007.532.203.562.482.026.219-.037.434-.084.644-1.018 4.713-2.057 9.42-3.088 14.129-.066.314-.11.661-.333.904a.935.935 0 01-.716.31c-.484-.007-.969.01-1.452-.008-.337-.026-.564-.405-.476-.735.358-1.603.692-3.212 1.06-4.813.097-.359-.101-.846-.5-.866-1.113-.033-2.227.013-3.34-.02-.371-.026-.613-.48-.485-.829a4.277 4.277 0 011.437-1.915 4.148 4.148 0 011.912-.78c.446-.065.897-.07 1.346-.084.357-.004.685-.292.758-.651.195-.894.397-1.787.58-2.684.035-.212.087-.451-.025-.648-.133-.236-.414-.322-.663-.308-1.352.006-2.704-.007-4.056.008a.978.978 0 00-.854.784c-.917 4.253-1.864 8.5-2.789 12.752-.087.434-.478.807-.917.792-.886-.002-1.773.003-2.66-.002-.318 0-.583-.351-.514-.67.832-3.878 1.711-7.744 2.545-11.62.115-.536.242-1.076.467-1.576.265-.57.62-1.105 1.09-1.517a4.18 4.18 0 012.203-1.025zm-10.629-.013c.126-.033.255-.045.384-.043 1.268.01 2.537-.007 3.805.008.472-.005.892.454.86.942-.015.15-.056.297-.086.446-.362 1.7-.735 3.397-1.102 5.096a4.838 4.838 0 01-1.511 2.563c-1.085.939-2.384 1.577-3.73 2.004-1.088.35-2.207.587-3.325.816-.106.026-.22.057-.297.144-.05.101.03.22.132.236.309.083.63.097.943.148.999.165 1.983.475 2.87.986.497.292.98.629 1.356 1.08.713.836 1.108 1.988.951 3.103-.304 2.04-.829 4.034-1.233 6.053-.1.5-.473.92-.93 1.102-.287.125-.603.09-.906.093-1.152-.001-2.305.004-3.457-.003-.51.017-.964-.524-.85-1.046.27-1.318.573-2.63.847-3.947.145-.732.264-1.483.19-2.232-.115-.664-.303-1.372-.804-1.84-.607-.527-1.307-.957-2.077-1.169-.708-.211-1.46-.268-2.135-.588-.281-.14-.565-.306-.753-.572-.406-.568-.432-1.391-.084-1.997.177-.32.488-.527.802-.681.582-.278 1.226-.355 1.852-.464 1.233-.198 2.503-.367 3.633-.953.759-.369 1.501-.861 1.968-1.601.155-.25.275-.526.343-.815.428-1.917.83-3.84 1.254-5.758.12-.546.572-.977 1.09-1.11zm-14.673.004c.223-.058.455-.044.683-.046 1.183.009 2.367-.009 3.551.008.5-.002.924.537.816 1.044-.433 2.026-.877 4.05-1.31 6.075-.157.669-.805 1.146-1.46 1.148-1.217.003-2.434-.002-3.651.002-.337.002-.7-.14-.88-.45-.141-.225-.136-.51-.082-.764.41-1.89.818-3.78 1.226-5.67.039-.18.069-.365.149-.532.187-.398.55-.694.957-.815z" fill="#661054"></path><path d="M103.5 34.134c1.281-.012 2.562-.001 3.843-.006-.052.31-.121.619-.178.929-.935-.006-1.871 0-2.806-.004l-.284 1.464h2.674c-.063.317-.122.636-.18.954-.896-.002-1.793-.005-2.69.003-.095.51-.197 1.02-.293 1.53l2.872.001c-.062.309-.12.618-.178.927-1.297.01-2.594.005-3.891.003.366-1.934.753-3.864 1.111-5.8zm-21.778 5.802c.371-1.937.746-3.873 1.12-5.81.36.007.719 0 1.079.003.35 1.47.703 2.94 1.049 4.41.898-1.472 1.81-2.935 2.706-4.409.35 0 .7-.002 1.05 0-.382 1.934-.75 3.871-1.124 5.807h-.962c.26-1.349.523-2.697.78-4.047-.77 1.35-1.529 2.705-2.306 4.05-.294-.003-.587-.003-.88-.004-.257-1.347-.517-2.694-.772-4.042-.262 1.346-.52 2.694-.78 4.041-.32.004-.64 0-.96 0zm-20.283.004c1.161-1.939 2.332-3.873 3.495-5.81.374 0 .749 0 1.123-.003.436 1.937.873 3.873 1.308 5.81h-1.078c-.11-.527-.223-1.054-.33-1.58-.621-.007-1.243 0-1.863-.004.173-.31.356-.613.522-.926.38-.014.762 0 1.143-.01-.156-.714-.293-1.434-.465-2.145-.287.426-.53.885-.796 1.325-.65 1.112-1.302 2.223-1.949 3.337-.37.01-.74-.001-1.11.006zm60.988-5.5c1.099-.51 2.37-.433 3.503-.085-.057.328-.121.654-.183.98-.837-.307-1.767-.435-2.634-.192-.358.123-.677.453-.679.862-.036.206.081.446.293.48.596.088 1.208-.037 1.799.103.29.067.59.2.753.473.169.252.189.573.152.868-.049.498-.239.994-.589 1.346-.386.395-.921.59-1.45.659-.842.129-1.704.013-2.518-.228.055-.327.114-.653.182-.978a4.986 4.986 0 001.929.306c.3-.016.619-.027.885-.194.302-.17.514-.508.513-.868-.006-.19-.13-.386-.318-.423-.618-.142-1.26.04-1.876-.121-.35-.076-.684-.327-.778-.698-.194-.879.223-1.888 1.016-2.29zm-76.554-.284c.828-.145 1.696-.094 2.488.206-.068.322-.13.646-.19.971-.711-.3-1.512-.418-2.266-.23-.403.102-.803.288-1.08.619-.462.541-.628 1.29-.62 1.997.009.417.173.869.54 1.082.508.306 1.127.259 1.684.162.114-.572.222-1.145.334-1.716H47.8c-.159.813-.306 1.627-.476 2.437-.976.339-2.06.433-3.047.089-.75-.233-1.22-1.058-1.173-1.848-.004-.946.239-1.922.812-2.673.478-.62 1.214-.972 1.957-1.096zm-21.733-9c.718-.135 1.477.138 1.999.657.422.407.664.99.701 1.583.038.73-.27 1.465-.795 1.951a2.3 2.3 0 01-1.228.578c-.892.122-1.834-.353-2.283-1.163-.308-.51-.368-1.143-.273-1.726.176-.948.964-1.72 1.88-1.88z" fill="#FE7A1C"></path></g></svg>