<svg width="155" height="56" viewBox="0 0 155 56" fill="none" xmlns="http://www.w3.org/2000/svg">
<mask id="mask0_3_1210" style="mask-type:luminance" maskUnits="userSpaceOnUse" x="0" y="0" width="155" height="56">
<path d="M0 0H155V56H0V0Z" fill="white"/>
</mask>
<g mask="url(#mask0_3_1210)">
<path d="M3.77588 37.2468C5.40687 37.202 7.04065 37.2244 8.67164 37.2334C8.99281 37.2379 9.33354 37.1819 9.62818 37.435C10.1071 37.8001 10.4534 38.7028 10.3334 39.5854C9.73291 44.1214 9.11849 48.6507 8.50966 53.1822C8.303 54.7255 7.36741 55.8187 6.43462 55.7918C4.71007 55.7851 2.98552 55.7963 1.25957 55.7873C0.632591 55.7873 -0.0446621 54.9921 2.26171e-05 53.8631V53.6167C0.0293469 52.8484 0.153627 52.1047 0.251374 51.3543C0.763852 47.5911 1.27074 43.8279 1.77764 40.0647C1.92286 38.49 2.82493 37.2558 3.77448 37.2468H3.77588ZM141.611 0.322659C142.291 0.132259 142.983 0.2017 143.668 0.19274C147.166 0.19274 150.663 0.197218 154.161 0.188258C154.333 0.189986 154.501 0.273191 154.643 0.427422C154.786 0.581652 154.897 0.800031 154.962 1.05514C155.014 1.39114 154.986 1.74058 154.955 2.07882C153.46 13.1892 151.931 24.2884 150.413 35.3876C150.272 36.3329 149.729 37.1348 149.125 37.0766C148.45 37.0766 147.772 37.0855 147.095 37.0721C146.647 37.0721 146.299 36.2724 146.381 35.5623C146.866 32.0411 147.323 28.5108 147.83 24.9985C147.904 24.4183 147.962 23.7351 147.736 23.2289C147.563 22.8123 147.243 22.6734 146.955 22.6801C145.486 22.6667 144.016 22.7115 142.547 22.6644C141.976 22.651 141.637 21.5041 141.853 20.682C142.385 18.5697 143.371 16.7687 144.604 15.7316C145.757 14.7348 147.082 14.5937 148.357 14.5735C148.867 14.5937 149.342 13.9419 149.448 13.1198C149.734 10.9179 150.086 8.73386 150.312 6.5073C150.421 5.69418 149.944 4.94602 149.47 4.97738C147.582 4.9617 145.694 4.97738 143.807 4.97066C143.558 4.96397 143.313 5.06621 143.098 5.26635C142.884 5.46649 142.707 5.75693 142.587 6.10634C142.465 6.44234 142.431 6.84106 142.381 7.21962C141.142 16.4417 139.859 25.6503 138.608 34.8702C138.549 35.6094 138.34 36.3374 137.95 36.7473C137.682 37.0699 137.343 37.1057 137.024 37.0788C135.882 37.0721 134.74 37.0788 133.599 37.0743C133.181 37.1147 132.815 36.4606 132.822 35.7841C132.834 35.5153 132.878 35.2555 132.915 34.9934C133.958 27.2251 135.044 19.4747 136.097 11.7086C136.422 9.51786 136.584 7.19722 137.292 5.22378C137.722 3.92006 138.336 2.79693 139.087 1.94541C139.837 1.0939 140.702 0.537967 141.611 0.322659ZM122.581 5.07146C122.342 5.16733 122.122 5.36369 121.946 5.64041C121.769 5.91713 121.641 6.26425 121.576 6.64618C120.625 13.7873 119.639 20.915 118.669 28.0516C118.518 29.1044 118.321 30.1572 118.322 31.2503C118.353 31.9044 118.75 32.3569 119.122 32.3793C120.939 32.395 122.754 32.3748 124.571 32.3905C124.803 32.386 125.043 32.4286 125.268 32.3009C125.492 32.1809 125.693 31.968 125.85 31.6836C126.007 31.3992 126.114 31.0535 126.16 30.6814C126.431 28.5892 126.74 26.5105 126.995 24.4116C127.076 23.6971 126.807 22.7787 126.325 22.754C124.761 22.6913 123.196 22.7518 121.633 22.7316C121.171 22.754 120.707 22.0663 120.765 21.2689C120.876 20.0347 121.332 18.9863 121.805 18.0545C122.882 15.8862 124.582 14.7662 126.248 14.6833C126.84 14.6609 127.474 14.7863 128.017 14.3115C128.148 14.1968 128.261 14.0371 128.349 13.8438C128.436 13.6505 128.496 13.4284 128.523 13.1937C128.795 11.2807 129.062 9.3633 129.32 7.44362C129.383 6.85674 129.52 6.17354 129.291 5.64042C129.058 5.05802 128.594 4.9729 128.209 4.99306C126.333 5.06026 124.454 4.90346 122.581 5.07146ZM120.724 0.407779C121.653 0.190499 122.594 0.266658 123.528 0.210658C126.79 0.206178 130.051 0.217379 133.313 0.206179C133.719 0.228579 134.104 0.822179 134.102 1.5121C134.086 1.8257 134.023 2.1281 133.983 2.43498C133.596 5.10058 133.267 7.7841 132.896 10.4542C132.702 11.8228 132.466 13.1892 132.089 14.4526C131.58 16.2961 130.567 17.6379 129.467 18.4375C130.352 19.4769 130.858 21.2375 130.943 23.0071C131.017 24.1451 130.865 25.274 130.739 26.3851C130.475 28.5803 130.126 30.7799 129.457 32.7377C128.534 35.4257 126.694 37.0587 124.855 37.1505H112.753C112.56 37.1371 112.375 37.0164 112.23 36.809C112.085 36.6015 111.99 36.3201 111.96 36.0126C111.935 35.5735 112.038 35.1547 112.092 34.7335C113.144 26.8711 114.25 19.0311 115.303 11.1687C115.522 9.74634 115.638 8.27914 115.937 6.89482C116.344 5.1185 117.021 3.4945 117.931 2.33194C118.737 1.2992 119.702 0.634456 120.724 0.407779ZM99.8438 0.318179C100.528 0.143459 101.222 0.192739 101.912 0.181539C105.385 0.170339 108.856 0.179299 112.329 0.181539C112.675 0.174819 113.041 0.48842 113.188 1.03274C113.272 1.33066 113.234 1.6689 113.209 1.9825C111.762 12.7569 110.286 23.5246 108.816 34.29C108.712 35.1614 108.62 36.1761 108.133 36.7003C107.803 37.1639 107.347 37.0967 106.944 37.0923C106.364 37.0542 105.78 37.1505 105.2 37.0475C104.815 36.9041 104.579 36.1716 104.65 35.5467C105.886 26.2932 107.192 17.0622 108.427 7.80426C108.503 7.22858 108.605 6.64394 108.577 6.0481C108.557 5.71882 108.472 5.36938 108.292 5.20362C107.711 4.63242 106.83 5.18346 106.679 6.30122C105.992 11.2023 105.348 16.1191 104.666 21.018C104.504 22.0932 103.803 22.7159 103.171 22.6734C102.563 22.6084 101.954 22.7025 101.348 22.6062C100.905 22.5345 100.56 21.7326 100.683 21.0113C101.318 16.202 101.965 11.3972 102.638 6.60362C102.716 6.09738 102.627 5.4769 102.347 5.19242C101.824 4.73546 101.08 5.02666 100.784 5.90026C100.602 6.41322 100.539 7.00458 100.462 7.57578C99.2196 16.8404 97.9349 26.0916 96.6837 35.3518C96.5622 36.3239 96.0051 37.1079 95.4046 37.0967C94.1674 37.0721 92.9302 37.0967 91.693 37.0855C91.2531 37.0564 90.8831 36.2747 90.9948 35.5579C92.2236 26.3492 93.5209 17.163 94.7539 7.95434C95.1016 5.64042 95.9143 3.49226 97.0859 2.09002C97.8916 1.10666 98.8593 0.544418 99.8438 0.315938V0.318179ZM78.9118 0.257698C79.7678 0.134498 80.6307 0.224099 81.4895 0.197219H91.2029C91.3689 0.210931 91.5289 0.301022 91.6639 0.456731C91.7988 0.612439 91.903 0.82718 91.9639 1.0753C92.0449 1.73386 91.908 2.39242 91.8229 3.03082C90.3902 13.7067 88.9142 24.3668 87.4619 35.0359C87.3921 36.0126 86.9299 36.9511 86.3225 37.0519C85.5963 37.1124 84.8702 37.0654 84.1441 37.0743C83.6512 37.1326 83.2643 36.2231 83.3942 35.4593C83.8159 32.3905 84.2237 29.3217 84.6454 26.2529C84.7613 25.4599 84.9289 24.6603 84.8842 23.8315C84.859 23.5173 84.7641 23.2283 84.6169 23.0172C84.4697 22.8062 84.28 22.6873 84.0826 22.6823C82.5634 22.6555 81.0455 22.7182 79.5262 22.6599C78.9997 22.6151 78.6521 21.5847 78.8392 20.7918C79.4675 18.1038 80.8667 15.9399 82.534 15.1246C83.4612 14.6318 84.4429 14.6161 85.4078 14.5735C85.8966 14.5556 86.3448 13.9217 86.4481 13.1287C86.7372 10.9179 87.0877 8.72714 87.3167 6.49386C87.4144 5.71658 86.9774 4.98858 86.5235 4.97738C84.6119 4.95498 82.7016 4.97066 80.7899 4.96842C80.4847 4.96479 80.1876 5.12579 79.9462 5.42559C79.7049 5.72538 79.5334 6.14658 79.4592 6.62154C78.1703 16.1953 76.8451 25.7511 75.5465 35.3227C75.4208 36.2769 74.886 37.1012 74.2813 37.0766C73.0665 37.0743 71.8544 37.0811 70.6423 37.0766C70.1368 37.1662 69.697 36.2523 69.8506 35.4548C71.011 26.8465 72.2147 18.2516 73.3807 9.65002C73.5385 8.40458 73.7116 7.15466 74.0481 6.00554C74.4964 4.4241 75.1694 2.99498 76.038 1.99594C76.8814 1.00138 77.8896 0.452578 78.9118 0.257698ZM61.6412 0.268898C61.8646 0.186018 62.0964 0.210659 62.3226 0.190499C63.4174 0.174819 64.5121 0.199458 65.6055 0.183778C66.0831 0.150178 66.5481 0.958819 66.4098 1.76074C65.3207 10.0084 64.1658 18.2359 63.0571 26.4769C62.9649 27.0459 62.8853 27.6641 63.025 28.2308C63.1116 28.6676 63.3643 29.0059 63.6478 28.9835C65.1629 29.0126 66.6793 28.9723 68.1944 29.0036C68.7334 28.9812 69.2278 29.9265 69.0504 30.8091C68.6388 32.5815 67.9162 34.125 66.9698 35.2532C65.9504 36.4673 64.6867 37.0251 63.4425 37.0833C61.2753 37.1124 59.1067 37.1147 56.9381 37.1057C56.4535 37.155 56.0109 36.3284 56.1254 35.5355C57.6503 24.3131 59.2198 13.1063 60.7167 1.87274C60.834 1.12234 61.2055 0.519778 61.6398 0.268898H61.6412ZM43.8231 0.318179C44.3887 0.156899 44.964 0.201699 45.5365 0.197219C49.1504 0.201699 52.7643 0.197219 56.3781 0.197219C56.7384 0.212899 57.121 0.651938 57.1629 1.2769C57.1992 1.76746 57.1112 2.24906 57.0456 2.71946C55.6241 13.2766 54.1732 23.8203 52.7335 34.3684C52.6414 35.0718 52.5799 35.8491 52.2685 36.3934C52.1429 36.6178 51.9885 36.796 51.8159 36.9159C51.6434 37.0357 51.4567 37.0944 51.2687 37.0878C50.5929 37.0721 49.9156 37.1102 49.2412 37.0699C48.7706 37.0116 48.4536 36.1627 48.5765 35.4235C49.0764 31.8327 49.5428 28.2286 50.0566 24.6423C50.1921 23.8382 49.9156 22.7473 49.3584 22.7025C47.8043 22.6286 46.2487 22.7316 44.6945 22.6577C44.1764 22.5995 43.8385 21.5825 44.0172 20.8007C44.4179 19.0936 45.114 17.6054 46.0239 16.5111C46.8078 15.577 47.7262 14.976 48.6938 14.7639C49.3166 14.6183 49.9463 14.6071 50.5733 14.5758C51.0718 14.5668 51.5298 13.9217 51.6318 13.1175C51.9041 11.115 52.1862 9.11466 52.4417 7.10538C52.4906 6.6305 52.5632 6.09514 52.4068 5.65386C52.2211 5.12522 51.8287 4.93258 51.481 4.96394C49.593 4.97738 47.7051 4.94826 45.8172 4.98186C45.5277 5.03236 45.2558 5.23 45.0412 5.54595C44.8267 5.86189 44.6807 6.27957 44.6247 6.73802C43.3442 16.2647 42.0218 25.778 40.7301 35.3025C40.6086 36.2747 40.0626 37.1102 39.4496 37.0766C38.2124 37.0721 36.9738 37.0833 35.7352 37.0721C35.2911 37.0721 34.9211 36.2859 35.0175 35.5713C36.1793 26.8846 37.4067 18.2247 38.5713 9.5425C38.7319 8.34186 38.9092 7.13226 39.2234 6.01226C39.5934 4.73546 40.0892 3.53706 40.7455 2.61418C41.6065 1.3771 42.6786 0.578 43.8231 0.318179ZM28.9808 0.289058C29.1568 0.215138 29.3369 0.18826 29.5171 0.19274C31.2877 0.21514 33.0597 0.177058 34.8303 0.210658C35.4894 0.199458 36.0759 1.22762 36.0312 2.32074C36.0103 2.65674 35.953 2.98602 35.9111 3.31978C35.4057 7.12778 34.8848 10.9291 34.3723 14.7348C34.0624 16.9565 33.3242 18.9653 32.2624 20.4759C30.7473 22.5793 28.9334 24.0084 27.0538 24.9649C25.5345 25.7489 23.972 26.2798 22.4108 26.7927C22.2628 26.851 22.1036 26.9204 21.9961 27.1153C21.9262 27.3415 22.0379 27.6081 22.1804 27.6439C22.6119 27.8299 23.0601 27.8612 23.4972 27.9755C24.8922 28.3451 26.2662 29.0395 27.5048 30.1841C28.1989 30.8382 28.8733 31.5931 29.3984 32.6033C30.394 34.4759 30.9456 37.0564 30.7263 39.554C30.3018 44.1236 29.5687 48.5902 29.0046 53.1127C28.8649 54.2327 28.3441 55.1735 27.7059 55.5812C27.3052 55.8612 26.8639 55.7828 26.4408 55.7895C24.8321 55.7873 23.2221 55.7985 21.6134 55.7828C20.9013 55.8209 20.2673 54.6091 20.4265 53.4398C20.8035 50.4875 21.2266 47.5486 21.6093 44.5985C21.8117 42.9588 21.9779 41.2766 21.8746 39.5988C21.714 38.1115 21.4515 36.5255 20.7519 35.4772C19.9043 34.2967 18.9268 33.3335 17.8516 32.8587C16.8629 32.386 15.8128 32.2583 14.8702 31.5415C14.4779 31.2279 14.0813 30.8561 13.8188 30.2603C13.2518 28.9879 13.2155 27.1444 13.7015 25.787C13.9486 25.0702 14.3829 24.6065 14.8214 24.2615C15.6341 23.6388 16.5334 23.4663 17.4075 23.2222C19.1293 22.7787 20.9027 22.4001 22.4806 21.0875C23.5405 20.2609 24.5766 19.1588 25.2287 17.5012C25.4452 16.9412 25.6127 16.323 25.7077 15.6756C26.3053 11.3815 26.8667 7.07402 27.4588 2.7777C27.6263 1.55466 28.2575 0.589219 28.9808 0.291299V0.289058ZM8.49151 0.298019C8.8029 0.168099 9.12687 0.199458 9.44525 0.194978C11.0972 0.215138 12.7505 0.174819 14.4039 0.212899C15.1021 0.208419 15.6941 1.41578 15.5433 2.55146C14.9387 7.0897 14.3187 11.6235 13.714 16.1595C13.4948 17.658 12.5899 18.7265 11.6753 18.731C9.97588 18.7377 8.27646 18.7265 6.57705 18.7355C6.10646 18.7399 5.59957 18.4219 5.34822 17.7275C5.15133 17.2235 5.15831 16.5851 5.23372 16.0161C5.80624 11.7825 6.37597 7.5489 6.9457 3.3153C7.00016 2.9121 7.04205 2.4977 7.15376 2.12362C7.41489 1.2321 7.92318 0.569059 8.49151 0.298019Z" fill="#661054"/>
<path d="M117.995 42.8603C119.784 42.8335 121.573 42.8581 123.362 42.8469C123.289 43.5413 123.193 44.2335 123.113 44.9279C121.808 44.9144 120.501 44.9279 119.195 44.9189L118.798 48.1983H122.532C122.444 48.9083 122.362 49.6229 122.281 50.3352C121.03 50.3307 119.777 50.324 118.525 50.3419C118.392 51.4843 118.25 52.6267 118.116 53.7691L122.126 53.7714C122.039 54.4635 121.958 55.1557 121.877 55.8479C120.066 55.8703 118.255 55.8591 116.444 55.8546C116.955 51.5224 117.496 47.197 117.995 42.8603ZM87.5848 55.8568C88.1028 51.5179 88.6265 47.1813 89.1487 42.8424C89.6515 42.8581 90.1527 42.8424 90.6555 42.8491C91.1442 46.1419 91.6371 49.4347 92.1203 52.7275C93.3742 49.4303 94.6478 46.1531 95.8989 42.8514C96.3877 42.8514 96.8764 42.8469 97.3651 42.8514C96.8317 47.1835 96.3178 51.5224 95.7956 55.8591H94.4523C94.8153 52.8373 95.1826 49.8178 95.5414 46.7938C94.4662 49.8178 93.4064 52.853 92.3214 55.8658C91.9108 55.8591 91.5017 55.8591 91.0925 55.8568C90.7337 52.8395 90.3706 49.8223 90.0145 46.8027C89.6487 49.8178 89.2884 52.8373 88.9253 55.8546C88.4785 55.8635 88.0316 55.8568 87.5848 55.8568ZM59.2617 55.8658C60.8829 51.5224 62.5181 47.1903 64.1421 42.8514C64.6643 42.8514 65.188 42.8514 65.7102 42.8447C66.3191 47.1835 66.9293 51.5202 67.5367 55.8591H66.0314C65.8778 54.6786 65.72 53.4981 65.5706 52.3199C64.7034 52.3042 63.8349 52.3199 62.9691 52.3109C63.2107 51.6165 63.4662 50.9378 63.698 50.2367C64.2287 50.2053 64.7621 50.2367 65.2941 50.2143C65.0763 48.6149 64.885 47.0021 64.6448 45.4095C64.244 46.3637 63.9047 47.3919 63.5332 48.3775C62.6256 50.8683 61.7151 53.357 60.8117 55.8523C60.295 55.8747 59.7783 55.8501 59.2617 55.8658ZM144.425 43.5458C145.96 42.4034 147.735 42.5759 149.317 43.3554C149.237 44.0901 149.148 44.8203 149.061 45.5506C147.892 44.8629 146.594 44.5762 145.383 45.1205C144.883 45.396 144.438 46.1352 144.435 47.0514C144.385 47.5128 144.548 48.0504 144.844 48.1266C145.676 48.3237 146.531 48.0437 147.356 48.3573C147.761 48.5074 148.18 48.8053 148.408 49.4168C148.644 49.9813 148.672 50.7003 148.62 51.3611C148.551 52.4767 148.286 53.5877 147.797 54.3762C147.258 55.261 146.511 55.6978 145.773 55.8523C144.597 56.1413 143.393 55.8815 142.256 55.3416C142.333 54.6091 142.416 53.8789 142.511 53.1509C143.372 53.662 144.287 53.895 145.204 53.8363C145.623 53.8005 146.069 53.7759 146.44 53.4018C146.862 53.021 147.158 52.2639 147.156 51.4575C147.148 51.0319 146.975 50.5928 146.712 50.5099C145.849 50.1919 144.953 50.5995 144.093 50.2389C143.604 50.0687 143.138 49.5064 143.006 48.6754C142.735 46.7064 143.318 44.4463 144.425 43.5458ZM37.5254 42.9096C38.6816 42.5848 39.8937 42.6991 40.9996 43.3711C40.9046 44.0923 40.8181 44.8181 40.7343 45.5461C39.7414 44.8741 38.6229 44.6098 37.57 45.0309C37.0073 45.2594 36.4487 45.676 36.0619 46.4175C35.4168 47.6293 35.185 49.3071 35.1962 50.8907C35.2087 51.8248 35.4377 52.8373 35.9502 53.3144C36.6596 53.9999 37.524 53.8946 38.3018 53.6773C38.4609 52.396 38.6118 51.1125 38.7682 49.8335H40.2162C39.9942 51.6546 39.7889 53.4779 39.5515 55.2923C38.1887 56.0517 36.675 56.2623 35.2967 55.4917C34.2494 54.9698 33.5931 53.1218 33.6587 51.3522C33.6532 49.2331 33.9925 47.0469 34.7926 45.3647C35.4601 43.9759 36.4878 43.1874 37.5254 42.9096ZM7.17748 22.7496C8.18009 22.4472 9.23996 23.0587 9.96888 24.2213C10.5582 25.133 10.8961 26.4389 10.9478 27.7672C11.0008 29.4024 10.5707 31.0488 9.83762 32.1375C9.36022 32.8359 8.76261 33.2871 8.12284 33.4322C6.87725 33.7055 5.56185 32.6415 4.93487 30.8271C4.50478 29.6847 4.42099 28.2667 4.55365 26.9608C4.79942 24.8373 5.89978 23.108 7.17888 22.7496H7.17748Z" fill="#FE7A1C"/>
</g>
</svg>
