<svg width="155" height="56" viewBox="0 0 155 56" fill="none" xmlns="http://www.w3.org/2000/svg">
<mask id="mask0_3_1092" style="mask-type:luminance" maskUnits="userSpaceOnUse" x="0" y="0" width="155" height="56">
<path d="M0 0H155V56H0V0Z" fill="white"/>
</mask>
<g mask="url(#mask0_3_1092)">
<path d="M124.752 15.3178V7.57666H128.58V29.5451H124.752V27.4731C124.132 28.2769 123.419 29.0082 122.48 29.3574C120.993 29.9832 119.272 29.812 117.939 28.9011C113.638 26.1077 113.095 18.5477 116.847 14.8517C119.04 12.6035 122.395 12.6941 124.581 15.0312C124.588 15.1383 124.666 15.2305 124.752 15.3178ZM124.752 21.6261C124.74 20.5298 124.44 19.4633 123.891 18.5658C122.954 17.0308 121.155 16.5844 119.822 17.6649C119.59 17.8428 119.427 18.0305 119.202 18.2891C117.869 20.0021 117.791 22.6094 118.885 24.5018C119.822 26.1258 121.775 26.4832 123.109 25.4028C123.341 25.2249 123.581 24.9482 123.729 24.6896C124.433 23.787 124.83 22.7065 124.752 21.6261ZM81.9878 23.1447H71.9817C72.1367 24.3141 72.8428 25.304 73.78 25.6712C75.5783 26.5722 77.2215 26.0369 78.7787 24.5018L80.887 27.2063C79.7934 28.5536 78.3137 29.3656 76.7393 29.6341C74.6325 30.0887 72.362 29.5435 70.6412 28.0084C68.6104 26.1258 67.9833 23.6898 68.1383 20.8058C68.1693 19.3363 68.58 17.9104 69.3182 16.709C70.0564 15.5077 71.0888 14.5849 72.2845 14.0578C73.4968 13.4032 74.8461 13.1573 76.1755 13.3486C77.5048 13.5398 78.7595 14.1605 79.7934 15.1383C81.1281 16.3077 81.9878 18.103 81.9878 20.0927C82.0653 21.0825 81.9878 22.0642 81.9878 23.1447ZM78.0812 19.9131C78.0424 19.1342 77.7455 18.4017 77.2513 17.8658C76.7572 17.3299 76.1031 17.0312 75.4233 17.0308C73.7025 16.9418 72.2917 18.2002 72.0592 19.9131H78.0812ZM144.599 23.1447H134.517C134.672 24.3141 135.377 25.304 136.314 25.6712C138.112 26.5722 139.755 26.0369 141.313 24.5018L143.421 27.2063C142.723 28.0084 141.864 28.7414 140.918 29.0889C139.042 29.8927 137.011 29.9898 135.137 29.1778C132.168 27.9195 130.448 24.6814 130.681 20.7169C130.913 17.4771 132.238 15.1383 134.827 13.88C136.039 13.2252 137.389 12.9791 138.718 13.1704C140.047 13.3617 141.302 13.9824 142.336 14.9604C143.669 16.1298 144.529 17.9235 144.529 19.9131C144.599 21.0825 144.599 22.0642 144.599 23.1447ZM140.693 20.0021C140.615 18.2891 139.361 17.039 137.957 17.039H137.802C136.167 17.039 134.834 18.388 134.757 19.9214H140.693V20.0037V20.0021ZM96.5262 29.5451H92.9296V27.8305L92.7746 27.7416C92.7746 27.8305 92.7746 27.9195 92.6971 28.0084C90.9778 30.3472 88.3198 30.1694 86.5215 29.1778C84.7233 28.188 83.7086 26.027 84.0171 23.7788C84.2511 21.7068 85.4279 20.4484 87.5362 19.9049C88.7979 19.6334 90.0842 19.5432 91.3653 19.6364H92.6197C92.6777 19.3702 92.6892 19.0935 92.6536 18.8222C92.6179 18.5508 92.5358 18.2903 92.412 18.0556C92.2882 17.8208 92.1251 17.6166 91.9322 17.4545C91.7392 17.2925 91.5202 17.1759 91.2878 17.1115H91.1328C89.5742 16.7442 88.1634 17.3783 86.8315 18.1903C86.6765 18.2809 86.5129 18.4588 86.289 18.5576L84.5668 15.6752C85.979 14.5058 87.6137 13.6922 89.3345 13.5143C90.7453 13.2458 92.1475 13.4254 93.5583 13.9689C95.3565 14.7727 96.4487 16.3077 96.5262 18.467C96.6037 22.0642 96.5262 25.7602 96.5262 29.5451ZM92.6971 22.7065H90.1253C89.6517 22.7065 89.2642 22.7971 88.7906 22.975C88.3184 23.1529 87.9309 23.6009 87.9309 24.2334C87.8534 24.8592 88.0859 25.4917 88.6284 25.7684C89.567 26.3943 90.7381 26.312 91.6753 25.5905C92.6196 24.9564 92.7746 23.9665 92.6971 22.7082V22.7065ZM99.1842 13.6115H103.013V15.3244C103.246 15.1465 103.408 14.9604 103.554 14.7809C104.276 14.0397 105.169 13.5523 106.125 13.3768C107.082 13.2013 108.062 13.3451 108.949 13.791C110.747 14.5931 111.995 16.6734 111.995 18.9232C112.15 22.4315 111.995 26.0369 112.072 29.5435H108.243C108.167 29.2767 108.088 29.0889 108.167 28.8303V20.8157V19.5557C108.012 18.1112 107.47 17.2169 106.531 16.9418C105.439 16.6734 104.26 17.1197 103.64 18.2002C103.246 18.8261 103.02 19.6463 103.02 20.4484V29.6242H99.1914L99.1842 13.6115ZM55.0164 8.83666H59.0004V25.4028H66.6571V29.5451H55.0178V8.83501L55.0164 8.83666ZM150.854 13.6115V15.5929C152.11 14.3345 153.357 13.3447 155 13.2541V17.3964H154.063C152.807 17.3964 151.713 18.2974 151.326 19.6463C151.009 20.5635 150.849 21.542 150.854 22.5287V29.3656H147.025V13.6115H150.854Z" fill="white"/>
<path d="M86.1254 39.8096V34.8552H88.5509V48.9046H86.1254L86.0479 47.9131C85.8154 47.8242 85.7307 48.0926 85.6532 48.1816C85.1347 48.6994 84.4933 49.0278 83.8111 49.1247C83.1289 49.2215 82.437 49.0824 81.8242 48.7251C79.0112 47.1011 78.4615 42.1566 80.8095 39.7289C82.3825 38.1049 84.7304 38.1839 86.1254 39.8096ZM81.9878 43.942C81.9103 45.2893 82.77 46.5576 83.9396 46.7355C85.1954 46.8244 86.0494 45.8345 86.2115 44.2089C86.3737 42.5849 85.3504 40.9691 84.0171 41.058C82.8546 41.0679 81.9878 42.3279 81.9878 43.942ZM62.0545 37.1051L60.7212 39.2644C59.9401 38.5394 58.987 38.1009 57.9857 38.006H57.3657C56.8232 38.095 56.3496 38.3717 56.2721 39.0865C56.1946 39.7997 56.5907 40.1653 57.1332 40.4338C57.6757 40.7023 58.2254 40.7995 58.7694 40.9773C59.164 41.1569 59.629 41.2458 60.0237 41.4336C61.6598 42.2373 62.4492 43.5039 62.2942 45.3964C62.2226 46.2675 61.8992 47.0861 61.3754 47.7218C60.8516 48.3576 60.1575 48.7739 59.4037 48.9046C58.2869 49.1719 57.1295 49.1142 56.037 48.7367C54.9446 48.3593 53.9518 47.6741 53.1492 46.7437L54.7078 44.5844C55.1025 44.95 55.4053 45.2103 55.7225 45.4853C56.5005 46.117 57.4274 46.4628 58.3804 46.4769C58.6613 46.4674 58.9327 46.3585 59.1576 46.1651C59.3824 45.9717 59.5496 45.7032 59.6362 45.3964C59.7137 44.6832 59.4812 44.3159 58.7751 43.9503C58.189 43.6957 57.5887 43.4866 56.9782 43.3244C56.6596 43.2371 56.2807 43.0576 55.9621 42.9604C54.1653 42.1566 53.5367 41.0762 53.6142 38.9959C53.6917 37.283 54.6303 36.0329 56.3496 35.5783C58.3804 35.0347 60.4973 35.5783 62.0545 37.1051ZM98.7981 49.1715C96.2937 49.0825 94.2557 46.6465 94.3404 43.7724C94.4179 40.8983 96.5334 38.5413 99.0292 38.6402C100.229 38.6831 101.366 39.2625 102.199 40.2546C103.031 41.2467 103.493 42.5729 103.485 43.9503C103.485 46.8326 101.534 49.1813 99.0292 49.2604C98.9517 49.1715 98.8756 49.1715 98.7981 49.1715ZM100.991 43.8613C101.067 42.603 100.371 41.5225 99.355 41.1569C98.9682 41.0243 98.5564 41.021 98.1681 41.1473C97.7797 41.2736 97.4307 41.5243 97.162 41.87C96.8186 42.3194 96.598 42.8747 96.5276 43.4669C96.4572 44.059 96.54 44.6619 96.7659 45.2004C97.0845 46.1013 97.782 46.6465 98.6417 46.6465C100.123 46.7354 100.991 45.566 100.991 43.8613ZM69.9509 38.6402H72.4553V44.6733C72.5313 45.8427 72.9963 46.4686 73.8646 46.4686C74.7257 46.4686 75.5007 45.8427 75.6629 44.843C75.7404 44.2995 75.8179 43.7625 75.7404 43.219V38.5331H78.1659V48.707H75.7404L75.6629 47.5376C75.1893 48.1634 74.6482 48.5291 73.9421 48.7976C72.2228 49.3411 70.4245 48.0827 69.9595 46.0931C69.882 45.8246 69.882 45.5496 69.882 45.2893C69.8662 43.2272 69.9509 40.979 69.9509 38.6402ZM103.882 47.5475L104.896 45.8345C105.213 45.8345 105.291 46.0124 105.516 46.2002C106.298 46.7437 107.152 47.0039 108.019 47.0039C108.415 47.0039 108.803 46.9133 108.958 46.378C109.113 45.8345 108.725 45.5743 108.415 45.3882C107.96 45.1371 107.488 44.9278 107.004 44.7623C106.531 44.5926 106.066 44.3077 105.671 44.0491C104.579 43.3343 104.183 41.7103 104.81 40.3531C104.967 40.0863 105.044 39.8985 105.284 39.7272C106.376 38.5578 107.709 38.3816 109.113 38.6484C109.895 38.8263 110.67 39.1919 111.306 39.7289C110.987 40.3547 110.686 40.9872 110.367 41.6115C109.614 41.0083 108.714 40.693 107.795 40.7105C107.399 40.7105 107.012 40.7105 106.934 41.3364C106.857 41.8799 107.253 42.0496 107.554 42.2373C108.174 42.5042 108.725 42.6919 109.275 42.9505C110.911 43.6653 111.545 44.4856 111.383 46.0124C111.306 47.6364 110.212 48.8947 108.81 49.0743C106.927 49.351 105.206 48.8058 103.882 47.5475ZM63.8513 40.7995L62.8367 40.7105V38.7291C63.1553 38.5512 63.4567 38.7291 63.7753 38.5512V35.5865H66.3471V38.65H68.4569V40.7006H66.3471V45.566C66.3471 46.3698 67.0446 46.7355 67.6818 46.3698C67.9129 46.1903 68.154 46.0042 68.3779 45.7439C68.6965 46.3698 68.9204 46.9133 69.1615 47.4569C69.3165 47.7253 69.239 47.9131 69.0065 48.002C68.5514 48.4844 67.986 48.8078 67.3764 48.9344C66.7669 49.061 66.1385 48.9855 65.565 48.7169C64.4728 48.2623 63.7667 47.0039 63.7667 45.655C63.8528 44.2187 63.8513 42.514 63.8513 40.7995ZM90.4353 38.7291H92.8607V48.9046H90.4353V38.7291ZM93.0861 36.2915C93.0878 36.5049 93.0525 36.7167 92.9823 36.9144C92.9121 37.112 92.8083 37.2917 92.677 37.443C92.5458 37.5943 92.3896 37.7141 92.2176 37.7955C92.0456 37.8769 91.8613 37.9182 91.6753 37.9171C91.291 37.8635 90.9365 37.6523 90.6772 37.3224C90.418 36.9924 90.2714 36.566 90.2645 36.1218C90.342 35.3197 90.8845 34.5867 91.6753 34.4978C92.4575 34.4978 93.0846 35.2126 93.1621 36.1218C93.0846 36.2042 93.0861 36.2042 93.0861 36.2915Z" fill="#01B0C9"/>
<path d="M21.6226 48.1897C21.6082 48.1732 21.5838 48.1551 21.568 48.137C21.5485 48.1269 21.5276 48.1207 21.5063 48.1189V48.1996C18.9187 48.8238 16.3296 49.458 13.742 50.0822L13.5238 50.1365C16.1818 52.0817 18.834 54.045 21.4833 55.9918H21.5982C21.5982 53.3944 21.591 50.8053 21.591 48.2078C21.6027 48.2062 21.6138 48.1988 21.6226 48.1897Z" fill="#00E6FE"/>
<path d="M29.6667 49.957C27.0087 49.3673 24.3666 48.7875 21.7158 48.1995H21.7086C21.7375 48.1891 21.762 48.1668 21.7775 48.137H21.7703C21.7158 48.137 21.6699 48.1534 21.6225 48.1897C21.6153 48.1995 21.5909 48.2078 21.5837 48.2259C21.5837 50.8233 21.5909 53.4108 21.5909 56.0083H21.7086C24.4053 54.0268 27.102 52.0372 29.7987 50.064C29.7916 50.0475 29.7844 50.0196 29.76 50.0014C29.737 49.9668 29.6983 49.957 29.6667 49.957Z" fill="#007994"/>
<path d="M30.2795 35.8284C30.6441 37.6303 31 39.4157 31.3645 41.2192C31.3717 41.2357 31.3789 41.2637 31.3961 41.2818C31.9386 43.3521 32.4955 45.4324 33.038 47.4945C33.0538 47.5554 33.0767 47.618 33.0853 47.6724C36.4336 45.2627 39.7876 42.8432 43.1374 40.4335C43.0656 40.3973 42.9824 40.3792 42.8963 40.3528C38.6955 38.854 34.4947 37.3371 30.2795 35.8284Z" fill="#00737F"/>
<path d="M42.9666 12.5852C42.958 12.6017 42.958 12.6017 42.9666 12.5852C42.958 12.6017 42.958 12.6214 42.958 12.6297C42.9227 12.7206 42.8758 12.805 42.8188 12.88C41.4553 15.4231 40.0919 17.976 38.7113 20.529C37.2115 23.279 35.7026 26.0224 34.1847 28.7593C37.1613 28.5271 40.1292 28.2866 43.1058 28.0544H43.1991C43.1589 22.8233 43.1359 17.6022 43.0986 12.3711C43.0516 12.4403 43.0085 12.5118 42.9666 12.5852Z" fill="#005865"/>
<path d="M9.06032 28.705C9.0675 28.705 9.0675 28.705 9.07468 28.7149H9.12204C9.12921 28.7231 9.13639 28.7495 9.15218 28.7593C9.18375 28.7593 9.19954 28.7495 9.2225 28.7231C9.33123 28.6183 9.41846 28.4873 9.47796 28.3393C10.54 25.8753 11.625 23.4212 12.6784 20.9572C12.7717 20.753 12.8722 20.5471 12.7947 20.2984C12.7947 20.2984 12.7947 20.2885 12.7875 20.2885C12.7444 20.2814 12.7053 20.2554 12.6784 20.216C12.6712 20.1996 12.6483 20.1633 12.6397 20.1452C8.51525 17.6111 4.39244 15.0735 0.271249 12.5325C0.200925 12.4864 0.123426 12.4502 0.0545372 12.3975L0 12.5951L0.162177 12.8883C3.13158 18.1638 6.09093 23.4393 9.06032 28.705Z" fill="#00E6FE"/>
<path d="M12.6482 20.1552L12.555 19.9674C12.09 18.9413 11.8417 17.8164 11.5087 16.7441C10.6246 13.9161 9.77214 11.0684 8.87371 8.24694C8.812 8.05094 8.7345 7.84506 8.71153 7.63094C8.70292 7.57 8.69575 7.50741 8.70292 7.44482C5.81964 9.09518 2.94496 10.7472 0.0631104 12.3975C0.131999 12.442 0.209499 12.4964 0.278388 12.5326C4.3945 15.0674 8.51635 17.6022 12.6482 20.1552Z" fill="#007994"/>
<path d="M33.7354 10.2018C32.7825 13.2374 31.8597 16.2976 30.9081 19.3331C30.8221 19.6256 30.7101 19.9071 30.5737 20.1731C34.6583 17.6729 38.75 15.1661 42.8417 12.6658C42.8804 12.6477 42.912 12.6214 42.9508 12.6032C42.9579 12.5934 42.9651 12.5934 42.9809 12.5934C43.0287 12.5211 43.0704 12.4439 43.1058 12.3628C40.2541 10.7289 37.4009 9.08512 34.5492 7.45288C34.5437 7.51719 34.5307 7.58035 34.5104 7.64065C34.3167 8.51359 34.0081 9.35359 33.7354 10.2018Z" fill="#003C4A"/>
<path d="M28.4124 15.6635C29.0396 17.1293 29.5821 18.6364 30.1633 20.127V20.3856C30.1547 20.3856 30.1547 20.3955 30.149 20.3955L30.1777 20.43C30.2206 20.439 30.2647 20.438 30.3073 20.4273C30.3499 20.4165 30.3902 20.3962 30.426 20.3675C30.4188 20.3329 30.3958 20.3147 30.3872 20.2966H30.3958L30.5666 20.1896C30.713 19.931 30.8135 19.646 30.8996 19.3496C31.8611 16.3157 32.7754 13.2555 33.7269 10.2199C33.991 9.37169 34.3096 8.53334 34.4804 7.65875C34.4875 7.59616 34.5105 7.53357 34.5191 7.47099C30.2566 5.00699 25.9783 2.55287 21.7158 0.0888672C21.7546 0.169573 21.7847 0.258515 21.8235 0.339221C24.025 5.43522 26.2338 10.551 28.411 15.6651L28.4124 15.6635ZM38.1386 33.7482C36.8125 32.1242 35.495 30.4985 34.1632 28.8926H34.0541C32.8055 31.1771 31.5741 33.4715 30.3255 35.7559C30.3111 35.7658 30.2867 35.774 30.2638 35.8004C30.2566 35.8103 30.2566 35.8185 30.2494 35.8366C30.2566 35.8449 30.2638 35.8449 30.2796 35.8531C34.4875 37.3635 38.6883 38.8722 42.9049 40.3891C42.9896 40.4253 43.0599 40.4418 43.1446 40.4698C43.1589 40.4155 43.1833 40.3627 43.1991 40.3002C43.1374 40.2277 43.0829 40.1387 43.0211 40.0679C41.385 37.9432 39.7661 35.8366 38.1386 33.7482Z" fill="#005865"/>
<path d="M21.5062 48.1997V48.1173C21.4603 48.1091 21.413 48.1008 21.3828 48.1008C19.9634 46.9759 18.5541 45.8608 17.1347 44.7277C16.7242 44.4674 16.3137 44.2006 15.9105 43.942C14.5542 43.0394 13.2137 42.1385 11.8575 41.2375C11.8503 41.254 11.8503 41.282 11.8431 41.3084L13.353 49.8154C13.3616 49.8863 13.3845 49.9752 13.4003 50.046C13.4462 50.0823 13.4922 50.1086 13.5395 50.1448L13.7562 50.0921C16.3209 49.458 18.9172 48.8256 21.5062 48.1997Z" fill="#00AFC9"/>
<path d="M43.0986 28.0447C41.4418 29.936 39.7909 31.8339 38.1458 33.7386C39.7733 35.8468 41.3921 37.9435 43.0196 40.0402C43.0814 40.1127 43.1359 40.2016 43.1976 40.2724V28.0447H43.0986Z" fill="#00737F"/>
<path d="M11.8345 41.3083L11.6867 41.9342C11.2992 43.5747 10.1453 47.6281 10.0822 47.6627C11.1829 48.4582 12.2837 49.2439 13.3759 50.0378C13.3687 49.9669 13.3458 49.8763 13.33 49.8072C12.842 46.9759 12.3297 44.138 11.8345 41.3083Z" fill="#007994"/>
<path d="M31.3875 41.2817C31.3803 41.3344 31.3731 41.397 31.3573 41.4514C30.845 44.2349 30.3412 47.03 29.8303 49.8234C29.8234 49.8775 29.8129 49.9309 29.7987 49.9832L29.8073 50.0457L33.0767 47.6904C33.0623 47.6279 33.0379 47.5653 33.0307 47.5109C32.4882 45.4323 31.9457 43.3603 31.3875 41.2817Z" fill="#003C4A"/>
<path d="M31.2942 41.2718C29.9609 42.1562 28.6133 43.0308 27.2714 43.9136L26.2337 44.8426C26.2022 44.859 26.1864 44.887 26.1634 44.9052L21.832 48.084C21.8234 48.0922 21.8004 48.1005 21.7933 48.1169L21.7775 48.1367C21.7617 48.1532 21.7301 48.1894 21.7072 48.1993C24.3508 48.7873 27.0087 49.3687 29.6581 49.9567C29.6983 49.9666 29.7442 49.9748 29.7758 49.9929C29.7829 49.9929 29.7901 49.9929 29.8059 50.0012C29.8145 49.9485 29.8217 49.8941 29.8375 49.8414C30.3484 47.0562 30.8522 44.2628 31.3645 41.4677C31.3717 41.415 31.3789 41.3525 31.3947 41.2998C31.3875 41.2816 31.3645 41.2536 31.3645 41.2372C31.332 41.2305 31.3006 41.2183 31.2712 41.2009C31.2784 41.2174 31.2784 41.2454 31.2942 41.2718Z" fill="#005865"/>
<path d="M0.0861655 28.053C3.06992 28.2852 6.05367 28.5174 9.03742 28.7414L9.07617 28.697C6.09959 23.4297 3.1388 18.1459 0.170841 12.8803L0.00866699 12.5854V28.0546H0.0861655V28.053Z" fill="#00AFC9"/>
<path d="M0.216672 40.2098L0.341536 40.0945C1.86714 38.0242 3.40279 35.9604 4.937 33.8818C3.35542 31.9712 1.77385 30.0804 0.193711 28.1879L0.0846364 28.0627H0.0157471C0.045886 32.187 0.0616735 36.3277 0.0846364 40.4519C0.0932476 40.4157 0.100424 40.3794 0.123387 40.3449C0.140111 40.2889 0.173034 40.2413 0.216672 40.2098Z" fill="#00E6FE"/>
<path d="M11.6867 41.9341L11.8346 41.3082C11.8417 41.2917 11.8417 41.2637 11.8489 41.2374C11.8489 41.2275 11.8575 41.2011 11.8575 41.1929L11.8259 41.2275L11.8188 41.2192C11.8116 41.1567 11.78 41.1204 11.7183 41.1204C12.1288 39.3087 12.5392 37.5051 12.9425 35.6934C8.72594 37.2465 4.5108 38.7898 0.27844 40.3446C0.225338 40.3611 0.1708 40.3891 0.116263 40.4072C0.155013 40.3529 0.202375 40.3002 0.232514 40.2458C0.264088 40.1931 0.318625 40.1388 0.348763 40.0861C0.30287 40.1173 0.261273 40.1561 0.225337 40.2014C0.186587 40.2458 0.139225 40.3002 0.116263 40.3446C0.110078 40.3831 0.0968734 40.4196 0.0775146 40.4517C3.41719 42.8515 6.75112 45.2611 10.0908 47.6543C10.1367 47.6378 11.2921 43.5762 11.6867 41.9341Z" fill="#00E6FE"/>
<path d="M9.145 28.7575C9.13783 28.7493 9.13065 28.723 9.11486 28.7131H9.0675C9.06033 28.7131 9.06033 28.7131 9.05315 28.7048L9.01297 28.7493C8.97422 28.8037 8.94408 28.8481 8.89815 28.8926C7.57204 30.543 6.25454 32.2131 4.92269 33.8634C3.40139 35.9437 1.86861 38.0058 0.332965 40.0761C0.294215 40.1305 0.246854 40.1832 0.21815 40.2375C0.177965 40.2902 0.132038 40.3446 0.100464 40.3973C0.155001 40.3808 0.209538 40.3528 0.264075 40.3347C4.47921 38.7815 8.70297 37.2382 12.9353 35.6851C12.9195 35.6488 12.8966 35.6225 12.8808 35.5862C11.6408 33.3298 10.3922 31.0437 9.145 28.7592V28.7575Z" fill="#00AFC9"/>
<path d="M8.91251 28.8929C8.95126 28.8385 8.98284 28.794 9.02876 28.7496C6.04501 28.519 3.06126 28.2851 0.0775146 28.0627L0.186586 28.1879C1.76673 30.0804 3.3483 31.9811 4.94423 33.8736C6.26173 32.2133 7.58784 30.563 8.91251 28.8929Z" fill="#007994"/>
<path d="M34.1861 28.7496C35.6973 26.0106 37.2143 23.2699 38.7041 20.5209C40.0818 17.9762 41.4395 15.4315 42.8116 12.8703L42.9508 12.6216C42.9508 12.6118 42.9579 12.6035 42.9579 12.6035C42.9508 12.6035 42.9436 12.6117 42.9278 12.6117C42.8891 12.6299 42.8575 12.6562 42.8187 12.6743C38.727 15.1746 34.6425 17.6814 30.5508 20.1816C30.4962 20.2162 30.4345 20.2525 30.38 20.2887C30.3254 20.3233 30.38 20.2887 30.3728 20.2887C30.38 20.3233 30.3872 20.3414 30.4116 20.3595C31.6128 23.1809 32.8141 25.9826 34.0139 28.804C34.0225 28.8205 34.0297 28.8567 34.0454 28.8748H34.1545C34.1617 28.8303 34.1789 28.7941 34.1861 28.7496Z" fill="#00737F"/>
<path d="M34.1861 28.7493C34.1775 28.7938 34.1703 28.83 34.1703 28.8745C35.495 30.4985 36.8125 32.1241 38.1458 33.73C39.802 31.8387 41.4525 29.9408 43.0971 28.0361C40.122 28.2848 37.1469 28.5171 34.1861 28.7493Z" fill="#003C4A"/>
<path d="M21.6139 15.1199C24.4269 16.7621 27.2326 18.4042 30.0384 20.0562C30.0858 20.0727 30.1245 20.1089 30.1633 20.127C29.582 18.6364 29.0238 17.1294 28.4124 15.6635C26.2266 10.5494 24.025 5.43524 21.832 0.321125C21.7933 0.240419 21.7617 0.151479 21.723 0.0707732C21.6684 0.0543026 21.6139 0.0263017 21.5608 0.0180664V0.258537C21.5751 5.20301 21.5995 10.1656 21.6139 15.1199Z" fill="#00737F"/>
<path d="M21.6067 25.3662V25.6429C24.4512 23.8938 27.3116 22.1446 30.1547 20.3954C30.1633 20.3954 30.1633 20.3855 30.1705 20.3855V20.1269C30.1245 20.1105 30.0843 20.0742 30.047 20.0561C27.2365 18.4161 24.4283 16.7707 21.6225 15.1199C21.6153 15.138 21.6153 15.1643 21.6081 15.1923V15.2088C21.5995 18.6018 21.5981 21.9832 21.6067 25.3662Z" fill="#003C4A"/>
<path d="M8.87376 8.23844C9.77219 11.0681 10.6175 13.906 11.5088 16.7356C11.8417 17.8161 12.0972 18.9311 12.555 19.9573L12.6483 20.145C12.6555 20.1631 12.6627 20.1994 12.6871 20.2158C12.7172 20.2497 12.7542 20.2746 12.7947 20.2883C12.8105 20.2966 12.8334 20.2966 12.8578 20.2966C12.865 20.2966 12.888 20.2883 12.8966 20.2883H12.9038C15.6392 13.8434 18.3905 7.42479 21.1346 1.00785C21.235 0.777259 21.3125 0.526906 21.3972 0.284788C21.4288 0.213964 21.4517 0.125023 21.4833 0.0541992C17.228 2.51655 12.9655 4.96243 8.6958 7.42643C8.6958 7.48902 8.6958 7.55161 8.70298 7.6142C8.72594 7.83655 8.81205 8.03255 8.87376 8.23844Z" fill="#00AFC9"/>
<path d="M21.1345 1.01788C18.3904 7.43482 15.632 13.8616 12.8879 20.2786C12.9195 20.2621 12.9425 20.244 12.9741 20.2259C15.8258 18.5294 18.6861 16.8329 21.545 15.1381C21.5593 15.1299 21.5837 15.1216 21.5909 15.1019V15.1842C21.5995 15.1645 21.5995 15.1381 21.6067 15.1118C21.5923 10.1574 21.5679 5.19482 21.5608 0.24047V0H21.5062L21.4747 0.0543529C21.4445 0.125176 21.4216 0.214118 21.39 0.284942C21.319 0.535457 21.2337 0.780306 21.1345 1.01788ZM12.9425 20.3148C12.9281 20.3066 12.9037 20.2984 12.8966 20.2786V20.2885C12.9037 20.2967 12.9195 20.3049 12.9425 20.3148Z" fill="#00E6FE"/>
<path d="M12.8879 20.2883C12.9037 20.2966 12.9267 20.3048 12.9353 20.3229C15.8258 22.0919 18.7091 23.8756 21.5995 25.6528V25.3761C21.5995 21.993 21.5909 18.61 21.5909 15.2187V15.1199C21.5765 15.1298 21.5522 15.138 21.545 15.1561C18.6933 16.8526 15.8329 18.549 12.9741 20.2439C12.9418 20.247 12.9114 20.2627 12.8879 20.2883C12.8879 20.2785 12.8879 20.2785 12.8879 20.2883Z" fill="#00AFC9"/>
<path d="M17.1591 44.6913L17.1979 44.6468C17.2122 44.6287 17.228 44.6023 17.2438 44.5842L17.383 44.235C17.8408 43.0755 18.3058 41.916 18.755 40.7465C18.7694 40.6922 18.801 40.6313 18.8167 40.5769C17.871 41.664 16.918 42.7543 15.9722 43.843L15.9033 43.9237L17.1275 44.7094H17.1347C17.1433 44.7176 17.1505 44.7094 17.1591 44.6913Z" fill="#00737F"/>
<path d="M16.6625 37.7653C18.1895 38.9512 19.7151 40.1305 21.235 41.3163C21.3283 41.3789 21.4058 41.4514 21.4991 41.514H21.7C21.7 41.4695 21.7072 41.4316 21.7316 41.3888V41.3163C21.723 40.0679 21.7 38.8276 21.6914 37.5775V37.3535C19.9017 37.3535 18.112 37.3634 16.3209 37.3634L16.585 37.6483C16.5906 37.6725 16.6004 37.6951 16.6137 37.7149C16.627 37.7347 16.6436 37.7529 16.6625 37.7653Z" fill="#00E6FE"/>
<path d="M23.4897 41.4515C23.4595 41.4861 23.4366 41.5042 23.4036 41.5306C23.4366 41.5487 23.4595 41.585 23.4897 41.613C23.5055 41.6212 23.5213 41.6459 23.537 41.6558C24.3809 42.6835 25.2262 43.6998 26.0859 44.7275C26.1247 44.7802 26.1792 44.8264 26.1792 44.8955C26.2108 44.8791 26.2251 44.8511 26.2495 44.8346L27.2872 43.9057L27.2326 43.8431L24.3809 40.5588C24.3666 40.5753 24.3422 40.5951 24.335 40.6115C24.0408 40.8981 23.7609 41.1748 23.4897 41.4515Z" fill="#003C4A"/>
<path d="M21.8392 41.3001C21.8321 41.3084 21.8091 41.3166 21.7933 41.3347C21.7617 41.3528 21.7388 41.3792 21.7 41.4072C21.693 41.4494 21.6825 41.4908 21.6685 41.5307C22.2425 41.5406 22.808 41.5406 23.3821 41.5488C23.4122 41.5142 23.4366 41.4961 23.4682 41.4698C23.7466 41.1832 24.025 40.9065 24.3035 40.6215C24.3192 40.6034 24.3422 40.5853 24.3508 40.5672C25.2808 39.7914 26.2022 39.014 27.171 38.2201C27.0791 37.9352 26.9772 37.6585 26.8925 37.3801C26.7921 37.4526 26.6916 37.5415 26.5911 37.614C25.0167 38.8361 23.4352 40.0582 21.8392 41.3001Z" fill="#005865"/>
<path d="M19.7238 41.4598C19.754 41.496 19.7697 41.5224 19.7927 41.5586C20.3596 41.5487 20.9322 41.5405 21.4905 41.5224C21.3972 41.4598 21.3197 41.389 21.2279 41.3247C19.7009 40.1389 18.1738 38.9612 16.6554 37.7737C16.7401 37.889 16.8247 37.9977 16.9109 38.113C17.2897 38.6038 17.6772 39.0946 18.0576 39.5855C18.181 39.7551 18.3216 39.9247 18.4451 40.0862C18.5599 40.1652 18.6847 40.2558 18.8096 40.3349C18.8397 40.3793 18.8713 40.4073 18.9015 40.4502C19.1813 40.7812 19.4526 41.1205 19.7238 41.4598Z" fill="#00AFC9"/>
<path d="M17.3758 44.253L17.2366 44.6022L17.2437 44.5923C18.0876 43.5761 18.933 42.5763 19.7783 41.5584C19.7467 41.5222 19.7309 41.4958 19.708 41.4596C19.4369 41.1226 19.1681 40.7833 18.9014 40.4417C18.8712 40.3972 18.8397 40.3709 18.8095 40.3264V40.585C18.7937 40.6394 18.7622 40.7003 18.7464 40.7546C18.2972 41.9158 17.8322 43.0836 17.3758 44.253Z" fill="#00E6FE"/>
<path d="M21.7144 41.3246V41.3971C21.7459 41.3806 21.7689 41.3526 21.8091 41.3262C21.8163 41.3163 21.8392 41.3081 21.855 41.29C23.4366 40.058 25.0325 38.8276 26.6141 37.6039C26.7146 37.5331 26.815 37.4425 26.9155 37.3733H21.6857V37.5956C21.6857 38.8359 21.7 40.0761 21.7172 41.3262L21.7144 41.3246Z" fill="#00737F"/>
<path d="M24.4986 30.9895H27.6603C27.5197 30.553 27.3877 30.1066 27.1939 29.4906C28.8228 29.0706 30.3413 28.6869 31.8597 28.2949L32.3247 28.0363C27.7364 27.5982 25.9324 28.2949 24.4986 30.9895Z" fill="#005764"/>
<path d="M18.4679 30.7937C17.6154 30.3918 16.7472 30.008 15.8645 29.5979V29.5814C15.6937 30.1332 15.5545 30.5614 15.4297 30.9897L18.6158 30.937C18.5454 30.9271 18.4995 30.8744 18.4679 30.7937ZM16.0496 28.0266H10.7495C10.9648 28.1518 11.0825 28.2243 11.1915 28.2852C12.71 28.669 14.2198 29.0626 15.8803 29.4826C15.942 28.9374 15.9951 28.4911 16.0496 28.0266Z" fill="#01ADC7"/>
<path d="M15.8875 29.4826C14.3234 29.0895 12.7605 28.6903 11.1987 28.2852L15.4383 30.9995C15.5775 30.5713 15.7009 30.143 15.8717 29.5896C15.8803 29.5452 15.8803 29.5172 15.8875 29.4826Z" fill="#00737F"/>
<path d="M27.6603 30.9909L31.851 28.2947C30.334 28.6784 28.8141 29.0704 27.1866 29.4904C27.3876 30.0966 27.5282 30.5544 27.6603 30.9909Z" fill="#003C4A"/>
<path d="M15.8804 29.5893V29.6058C16.763 30.0175 17.6169 30.4013 18.4838 30.8032C19.3521 31.2034 18.4924 30.8032 18.4924 30.8114C17.6858 29.8924 16.8707 28.9552 16.0669 28.0361C16.0124 28.5006 15.9665 28.9453 15.9033 29.4905C15.8804 29.5168 15.8804 29.5432 15.8804 29.5893Z" fill="#02C6DF"/>
<path d="M16.9108 38.1045C16.8247 37.9876 16.7386 37.8805 16.6539 37.7652L16.562 37.6565L16.298 37.3716C16.2047 37.6746 16.12 37.9794 16.0195 38.3005C16.8634 38.9165 17.6614 39.4963 18.4522 40.0678C18.3287 39.8982 18.1895 39.7285 18.0647 39.5671C17.6772 39.0862 17.2983 38.597 16.9108 38.1045Z" fill="#047A95"/>
</g>
</svg>
