<svg width="176" height="48" viewBox="0 0 176 48" fill="none" xmlns="http://www.w3.org/2000/svg">
<path d="M23.7699 4.289C24.0787 4.28873 24.3748 4.16716 24.593 3.95103C24.8112 3.73489 24.9336 3.4419 24.9333 3.1365C24.9331 2.8311 24.8101 2.53832 24.5916 2.32256C24.373 2.1068 24.0767 1.98573 23.7679 1.986C23.6149 1.98613 23.4635 2.01605 23.3223 2.07404C23.1811 2.13203 23.0528 2.21695 22.9447 2.32397C22.8367 2.43099 22.751 2.55801 22.6926 2.69776C22.6342 2.83752 22.6043 2.98728 22.6044 3.1385C22.6045 3.28972 22.6348 3.43943 22.6934 3.57908C22.7521 3.71874 22.8379 3.84561 22.9462 3.95244C23.0544 4.05927 23.1828 4.14398 23.3242 4.20173C23.4655 4.25948 23.617 4.28913 23.7699 4.289ZM37.2916 6.095C34.2484 3.90307 30.6909 2.51342 26.9544 2.057L26.744 4.495C30.0418 4.916 33.0786 6.155 35.6695 7.976L37.2916 6.095ZM9.05792 10.541C9.70109 10.541 10.2209 10.027 10.2209 9.391C10.2209 8.755 9.70109 8.241 9.05792 8.241C8.75656 8.241 8.48453 8.358 8.27924 8.544C8.23171 8.592 8.18924 8.644 8.14272 8.692C7.98554 8.89232 7.89984 9.13846 7.89901 9.392C7.89901 10.026 8.41779 10.54 9.05792 10.54V10.541ZM20.8544 4.611L20.5308 2.191C16.9442 2.78921 13.5615 4.25083 10.681 6.447L12.1898 8.347C14.7292 6.42563 17.7027 5.14417 20.8544 4.611ZM43.8325 20.948L46.2777 20.734C45.716 16.9852 44.1859 13.4431 41.8352 10.45L39.9927 12.097C41.9948 14.6866 43.3143 17.7278 43.8325 20.947V20.948ZM8.06586 12.531L6.12119 11.081C4.03428 13.9381 2.67134 17.2489 2.1469 20.735L4.55069 21.005C5.03114 17.946 6.23557 15.0425 8.06586 12.531ZM38.855 10.171C39.4961 10.171 40.0149 9.656 40.0149 9.021C40.0145 8.79399 39.9461 8.57219 39.8182 8.38365C39.6904 8.1951 39.5088 8.04827 39.2966 7.96172C39.0844 7.87516 38.851 7.85277 38.6259 7.89738C38.4008 7.94198 38.1941 8.05157 38.032 8.2123C37.8699 8.37303 37.7596 8.57768 37.7151 8.80038C37.6706 9.02309 37.6938 9.25384 37.7819 9.46347C37.87 9.67311 38.0189 9.85222 38.2099 9.97815C38.4009 10.1041 38.6254 10.1712 38.855 10.171ZM45.32 22.766C44.6799 22.766 44.1611 23.279 44.1611 23.916C44.1611 24.2203 44.2834 24.5122 44.501 24.7274C44.7186 24.9426 45.0138 25.0635 45.3216 25.0635C45.6293 25.0635 45.9245 24.9426 46.1421 24.7274C46.3597 24.5122 46.482 24.2203 46.482 23.916C46.482 23.28 45.9642 22.766 45.32 22.766ZM38.9642 37.868C38.3241 37.868 37.8043 38.382 37.8043 39.018C37.8043 39.654 38.3241 40.168 38.9642 40.168C39.2676 40.168 39.5406 40.051 39.7459 39.864L39.8218 39.789C39.9728 39.6246 40.0724 39.4203 40.1084 39.2011C40.1445 38.9818 40.1154 38.7569 40.0247 38.5536C39.934 38.3504 39.7857 38.1775 39.5976 38.056C39.4096 37.9345 39.1899 37.8695 38.9652 37.869L38.9642 37.868ZM3.143 25.075C3.77606 25.075 4.28574 24.577 4.30192 23.955L4.30394 23.915C4.30247 23.6107 4.17879 23.3194 3.96012 23.1052C3.74146 22.891 3.44571 22.7715 3.13795 22.773C2.83018 22.7745 2.53561 22.8968 2.31903 23.113C2.10245 23.3292 1.9816 23.6217 1.98308 23.926C1.98308 24.561 2.50287 25.076 3.143 25.076V25.075ZM26.8512 43.566L26.9574 45.934C30.7204 45.4784 34.3023 44.0757 37.3603 41.86L35.7251 40.084C33.0994 41.9445 30.0525 43.1401 26.8512 43.566ZM40.0533 35.894L41.911 37.451C44.2814 34.4016 45.8039 30.7922 46.3273 26.981L43.8759 26.881C43.3912 30.1561 42.0761 33.2567 40.0533 35.894ZM23.7699 43.789C23.1287 43.789 22.611 44.302 22.611 44.939C22.611 45.2433 22.7332 45.5352 22.9508 45.7504C23.1685 45.9656 23.4636 46.0865 23.7714 46.0865C24.0792 46.0865 24.3743 45.9656 24.5919 45.7504C24.8096 45.5352 24.9318 45.2433 24.9318 44.939C24.9318 44.303 24.413 43.789 23.7699 43.789ZM10.5313 41.45C13.4703 43.7256 16.9422 45.2314 20.6258 45.828L20.8291 43.468C17.6021 42.921 14.6482 41.588 12.1473 39.695L10.5313 41.45ZM4.52035 26.955L2.12668 27.053C2.62452 30.6325 4.00537 34.0359 6.14749 36.963L7.97081 35.436C6.16202 32.9169 4.98015 30.0111 4.52136 26.955H4.52035ZM9.04477 37.371C8.40363 37.371 7.88485 37.885 7.88485 38.521C7.88485 38.8255 8.00716 39.1175 8.22488 39.3328C8.4426 39.5481 8.73789 39.669 9.04579 39.669C9.35369 39.669 9.64897 39.5481 9.86669 39.3328C10.0844 39.1175 10.2067 38.8255 10.2067 38.521C10.2067 37.885 9.68794 37.371 9.04376 37.371H9.04477Z" fill="#3D2600"/>
<path d="M42.261 24.041C42.261 14.167 34.1556 6.134 24.1916 6.134C14.2276 6.134 6.12122 14.168 6.12122 24.042C6.12122 33.915 14.2286 41.948 24.1916 41.948C34.1556 41.948 42.262 33.915 42.262 24.042L42.261 24.041Z" fill="#115417"/>
<path d="M24.2169 0.001C10.8631 0.001 0 10.767 0 24C0 37.234 10.8631 48 24.2169 48C37.5717 48 48.4368 37.234 48.4368 24C48.4368 10.767 37.5717 0 24.2169 0V0.001ZM41.8342 10.449C44.1856 13.4417 45.7158 16.984 46.2767 20.733L43.8315 20.947C43.3136 17.7276 41.9937 14.6862 39.9907 12.097L41.8342 10.449ZM46.482 23.916C46.4866 24.0695 46.46 24.2224 46.4037 24.3656C46.3475 24.5088 46.2627 24.6394 46.1545 24.7496C46.0463 24.8598 45.9168 24.9474 45.7738 25.0072C45.6307 25.0671 45.4769 25.0979 45.3216 25.0979C45.1662 25.0979 45.0125 25.0671 44.8694 25.0072C44.7263 24.9474 44.5969 24.8598 44.4886 24.7496C44.3804 24.6394 44.2957 24.5088 44.2394 24.3656C44.1832 24.2224 44.1566 24.0695 44.1611 23.916C44.1611 23.6115 44.2835 23.3195 44.5012 23.1042C44.7189 22.8889 45.0142 22.768 45.3221 22.768C45.63 22.768 45.9253 22.8889 46.143 23.1042C46.3607 23.3195 46.482 23.6115 46.482 23.916ZM8.14376 8.691C8.19028 8.643 8.23275 8.591 8.28028 8.543C8.48557 8.356 8.75861 8.24 9.05896 8.24C9.70212 8.24 10.2219 8.754 10.2219 9.39C10.2225 9.57285 10.1789 9.7532 10.0948 9.91604C10.0107 10.0789 9.88843 10.2195 9.73824 10.3261C9.58805 10.4328 9.41427 10.5025 9.23135 10.5293C9.04844 10.5561 8.86169 10.5394 8.68665 10.4804C8.51161 10.4215 8.35335 10.322 8.22503 10.1903C8.09672 10.0587 8.00207 9.8986 7.94896 9.72345C7.89585 9.5483 7.88582 9.36314 7.9197 9.18338C7.95359 9.00362 8.0304 8.83547 8.14376 8.691ZM24.1926 6.133C34.1567 6.133 42.263 14.166 42.263 24.04C42.263 33.913 34.1567 41.947 24.1916 41.947C14.2286 41.947 6.12223 33.913 6.12223 24.04C6.12223 14.166 14.2286 6.133 24.1926 6.133ZM38.856 7.87C39.4992 7.87 40.019 8.384 40.019 9.02C40.019 9.3246 39.8966 9.61673 39.6788 9.83211C39.461 10.0475 39.1656 10.1685 38.8575 10.1685C38.5495 10.1685 38.2541 10.0475 38.0363 9.83211C37.8185 9.61673 37.6961 9.3246 37.6961 9.02C37.6961 8.384 38.2159 7.87 38.856 7.87ZM26.9544 2.056C30.691 2.51272 34.2485 3.90272 37.2916 6.095L35.6695 7.976C33.0776 6.154 30.0418 4.916 26.744 4.495L26.9544 2.056ZM23.7689 1.989C24.0773 1.989 24.3731 2.11016 24.5912 2.32583C24.8093 2.54149 24.9318 2.834 24.9318 3.139C24.9318 3.444 24.8093 3.73651 24.5912 3.95217C24.3731 4.16784 24.0773 4.289 23.7689 4.289C23.6164 4.28887 23.4654 4.25901 23.3246 4.20112C23.1838 4.14323 23.0559 4.05845 22.9483 3.95164C22.8406 3.84482 22.7553 3.71807 22.6973 3.57863C22.6392 3.43919 22.6096 3.28979 22.61 3.139C22.61 2.503 23.1288 1.989 23.7689 1.989ZM20.8544 4.61C17.6365 5.15 14.6857 6.466 12.1909 8.347L10.681 6.446C13.5616 4.25019 16.9443 2.78891 20.5308 2.191L20.8544 4.61ZM6.12122 11.081L8.06589 12.531C6.2358 15.0426 5.03139 17.9461 4.55071 21.005L2.14693 20.735C2.67144 17.2489 4.03437 13.9382 6.12122 11.081ZM3.14303 22.775C3.78215 22.775 4.2979 23.283 4.30396 23.915C4.30396 23.928 4.30093 23.941 4.30093 23.955C4.29691 24.2591 4.1709 24.5491 3.95062 24.7613C3.73034 24.9735 3.43384 25.0905 3.12634 25.0865C2.81884 25.0825 2.52554 24.9579 2.31095 24.7401C2.09636 24.5223 1.97807 24.2291 1.98209 23.925C1.98209 23.289 2.50289 22.775 3.14303 22.775ZM6.14852 36.962C4.00634 34.0348 2.62516 30.6315 2.1267 27.052L4.52139 26.954C4.97972 30.0103 6.16124 32.9165 7.96982 35.436L6.14852 36.962ZM9.0448 39.67C8.89222 39.67 8.74114 39.6402 8.60021 39.5824C8.45928 39.5246 8.33128 39.4398 8.22353 39.333C8.11578 39.2262 8.03041 39.0994 7.97229 38.9599C7.91418 38.8204 7.88447 38.6709 7.88487 38.52C7.88487 38.3692 7.9149 38.22 7.97324 38.0807C8.03159 37.9414 8.1171 37.8148 8.2249 37.7082C8.33271 37.6016 8.46069 37.5171 8.60154 37.4594C8.74239 37.4017 8.89335 37.372 9.04581 37.372C9.19827 37.372 9.34923 37.4017 9.49008 37.4594C9.63093 37.5171 9.75891 37.6016 9.86672 37.7082C9.97452 37.8148 10.06 37.9414 10.1184 38.0807C10.1767 38.22 10.2067 38.3692 10.2067 38.52C10.2067 39.156 9.68797 39.67 9.0448 39.67ZM20.6259 45.827C16.9423 45.2309 13.4703 43.7255 10.5314 41.45L12.1474 39.694C14.6482 41.587 17.6022 42.92 20.8291 43.468L20.6269 45.828L20.6259 45.827ZM23.7699 46.087C23.6175 46.087 23.4666 46.0573 23.3258 45.9996C23.185 45.9419 23.0571 45.8573 22.9493 45.7507C22.8416 45.6441 22.7562 45.5175 22.698 45.3782C22.6397 45.239 22.6098 45.0897 22.61 44.939C22.61 44.6345 22.7323 44.3425 22.95 44.1272C23.1677 43.9119 23.463 43.791 23.7709 43.791C24.0788 43.791 24.3741 43.9119 24.5918 44.1272C24.8095 44.3425 24.9318 44.6345 24.9318 44.939C24.9318 45.573 24.4131 46.088 23.7689 46.088L23.7699 46.087ZM26.9574 45.934L26.8512 43.566C30.0525 43.1404 33.0994 41.9452 35.7251 40.085L37.3604 41.861C34.3021 44.0762 30.7203 45.4785 26.9574 45.934ZM39.8208 39.789L39.7459 39.864C39.5332 40.0586 39.2541 40.1668 38.9642 40.167C38.8117 40.1669 38.6607 40.137 38.5198 40.0791C38.3789 40.0213 38.251 39.9365 38.1433 39.8297C38.0355 39.7229 37.9502 39.5962 37.892 39.4567C37.8338 39.3173 37.804 39.1678 37.8043 39.017C37.8038 38.8302 37.8494 38.6462 37.9372 38.4808C38.0249 38.3154 38.1521 38.1737 38.3078 38.0679C38.4634 37.9622 38.6428 37.8956 38.8304 37.8739C39.018 37.8522 39.2081 37.8761 39.3842 37.9435C39.5603 38.0108 39.7172 38.1197 39.8411 38.2606C39.9651 38.4015 40.0524 38.5702 40.0955 38.752C40.1386 38.9339 40.1362 39.1233 40.0885 39.304C40.0408 39.4847 39.9483 39.6512 39.8208 39.789ZM41.9111 37.45L40.0524 35.893C42.0755 33.2557 43.3912 30.1552 43.877 26.88L46.3283 26.981C45.8043 30.7922 44.2815 34.4006 41.9111 37.45Z" fill="#D3B775"/>
<path d="M23.8124 34.408L8.7485 23.935L23.8124 13.462L38.8742 23.935L23.8124 34.407V34.408Z" fill="#3D2600"/>
<path d="M23.8124 34.408L8.7485 23.935L23.8124 13.462L38.8742 23.935L23.8124 34.407V34.408ZM11.6964 23.935L23.8124 32.358L35.9284 23.935L23.8134 15.511L11.6964 23.935Z" fill="#D3B775"/>
<path d="M23.8589 26.943C23.0293 26.943 22.2338 26.6171 21.6472 26.0371C21.0606 25.457 20.731 24.6703 20.731 23.85C20.731 23.0297 21.0606 22.243 21.6472 21.6629C22.2338 21.0829 23.0293 20.757 23.8589 20.757C24.6885 20.757 25.484 21.0829 26.0706 21.6629C26.6572 22.243 26.9868 23.0297 26.9868 23.85C26.9868 24.6703 26.6572 25.457 26.0706 26.0371C25.484 26.6171 24.6885 26.943 23.8589 26.943ZM23.8589 22.434C23.4791 22.434 23.1149 22.5832 22.8464 22.8487C22.5778 23.1143 22.4269 23.4745 22.4269 23.85C22.4269 24.2255 22.5778 24.5857 22.8464 24.8513C23.1149 25.1168 23.4791 25.266 23.8589 25.266C24.2294 25.2522 24.58 25.097 24.8372 24.833C25.0944 24.5689 25.238 24.2166 25.238 23.85C25.238 23.4834 25.0944 23.1311 24.8372 22.867C24.58 22.603 24.2294 22.4478 23.8589 22.434Z" fill="#D3B775"/>
<path d="M35.7636 27.641C35.4922 27.3009 35.1679 27.0056 34.8029 26.766L33.197 27.883C33.5095 27.943 34.0262 28.179 34.4307 28.686C34.9192 29.3 35.0335 30.183 34.7099 30.832C34.0394 32.17 32.6378 32.479 31.8581 32.272C31.3251 32.132 30.0863 31.59 30.0863 29.592C30.0863 27.586 29.5645 26.446 28.3833 25.902C31.1714 24.387 33.0989 21.543 33.0989 18.362C33.0989 13.049 28.2853 9.762 23.8276 9.762C20.6795 9.762 17.4637 11.554 15.793 14.182C14.5522 14.091 13.1597 14.496 12.2576 15.754C11.5285 16.768 11.2797 17.972 11.5568 19.144C11.7399 19.921 12.1434 20.624 12.7077 21.184L14.1335 20.192C13.6731 19.8297 13.3481 19.3257 13.2103 18.76C13.095 18.269 13.0747 17.519 13.6421 16.73C14.5542 15.458 16.2309 15.83 16.7841 16.204C17.2139 16.494 17.8621 16.934 17.8621 18.391C17.8621 19.464 17.8297 22.676 17.8014 25.499C17.7792 27.719 17.76 29.699 17.76 30.216C17.76 31.046 17.0318 31.88 15.9892 32.242C15.1944 32.518 13.7584 32.119 13.2264 30.835C12.7532 29.696 13.1112 28.612 14.2195 27.74L12.7926 26.749C11.4021 28.057 10.9561 29.792 11.6549 31.476C12.3446 33.139 14.0112 34.004 15.4795 34.004C15.8448 34.0067 16.208 33.9482 16.5535 33.831C18.2909 33.226 19.4599 31.773 19.4599 30.216C19.4599 29.719 19.4781 27.861 19.4993 25.745C21.0112 26.625 22.4523 27.061 23.8731 27.061C24.7944 27.061 25.6873 26.924 26.5347 26.674C27.815 26.939 28.3864 27.846 28.3864 29.594C28.3864 32.181 29.9539 33.514 31.4202 33.901C31.7104 33.977 32.0229 34.017 32.3455 34.017C33.1583 34.0098 33.9529 33.7779 34.6394 33.3476C35.326 32.9173 35.8772 32.3058 36.2308 31.582C36.8477 30.35 36.6596 28.768 35.7636 27.642V27.641ZM23.8741 25.375C22.517 25.375 21.088 24.839 19.5196 23.753C19.5418 21.459 19.562 19.245 19.562 18.391C19.562 16.046 18.2889 15.183 17.7347 14.808C17.6631 14.7598 17.5892 14.7151 17.5132 14.674C18.9391 12.764 21.4481 11.447 23.8286 11.447C27.4692 11.447 31.399 14.091 31.399 18.363C31.399 22.163 27.9536 25.375 23.8741 25.375Z" fill="#D3B775"/>
<path d="M16.422 27.219L17.1198 27.704V29.77L16.1894 29.114L16.422 27.219ZM16.6627 20.488C16.9226 20.316 17.1582 20.169 17.1582 20.169V18.071L16.5383 18.525L16.6627 20.489V20.488ZM27.3579 31.932C27.5905 31.774 27.8736 31.568 27.8736 31.568C27.8736 31.568 27.7503 31.093 27.7017 30.547C27.6603 30.087 27.6886 29.647 27.6886 29.647C27.6886 29.647 27.2102 30 27.0151 30.133C26.8189 30.267 27.3589 31.933 27.3589 31.933L27.3579 31.932ZM29.7354 19.625C29.9326 19.759 30.4595 20.123 30.4595 20.123C30.4595 20.123 30.5818 19.661 30.6314 19.139C30.6799 18.616 30.6556 18.216 30.6556 18.216L29.8952 17.693L29.7354 19.625Z" fill="#D3B775"/>
<path d="M60.7581 33.028V13.418C60.7581 13.211 60.7955 13.014 60.8724 12.83C60.9453 12.6512 61.0535 12.4886 61.1907 12.3516C61.3279 12.2146 61.4912 12.106 61.6713 12.032C61.8502 11.957 62.0505 11.919 62.2699 11.919H67.7733C68.7329 11.919 69.638 12.103 70.4895 12.47C72.1687 13.1859 73.5041 14.5143 74.2181 16.179C74.5898 17.0279 74.7792 17.9439 74.7743 18.869C74.7743 19.492 74.6954 20.097 74.5376 20.685C74.222 21.8746 73.581 22.9551 72.685 23.808C72.2239 24.254 71.6889 24.648 71.0811 24.987L75.6288 32.206C75.7624 32.4144 75.8438 32.6514 75.8661 32.8971C75.8884 33.1429 75.8511 33.3904 75.7572 33.619C75.6823 33.7967 75.5726 33.9581 75.4345 34.0939C75.2964 34.2296 75.1325 34.337 74.9523 34.41C74.7647 34.4865 74.5636 34.5253 74.3607 34.524C73.8277 34.524 73.3959 34.278 73.0622 33.789L68.0301 25.809H63.7808V33.028C63.7808 33.443 63.6331 33.797 63.3378 34.088C63.1993 34.2293 63.033 34.341 62.8492 34.4163C62.6654 34.4916 62.4679 34.529 62.2689 34.526C61.8502 34.526 61.4943 34.38 61.199 34.088C61.0559 33.9506 60.9429 33.7856 60.8669 33.6033C60.7909 33.421 60.7545 33.2252 60.7581 33.028ZM63.7808 14.915V22.813H67.7733C68.2979 22.8159 68.8177 22.7142 69.3016 22.5138C69.7855 22.3135 70.2236 22.0187 70.5896 21.647C70.9456 21.285 71.2298 20.866 71.4371 20.39C71.6464 19.914 71.7506 19.408 71.7506 18.87C71.7506 18.325 71.6464 17.811 71.4371 17.33C71.0303 16.3834 70.2689 15.6291 69.3124 15.225C68.8261 15.0179 68.3017 14.9124 67.7722 14.915H63.7808ZM84.8223 33.029C84.8223 33.443 84.6746 33.796 84.3793 34.089C84.0861 34.381 83.7291 34.526 83.3104 34.526C82.8917 34.526 82.5358 34.381 82.2405 34.088C82.0977 33.9504 81.9848 33.7854 81.9088 33.6031C81.8328 33.4209 81.7953 33.2251 81.7986 33.028V13.418C81.7986 13.003 81.9452 12.65 82.2405 12.358C82.3792 12.2167 82.5457 12.105 82.7297 12.0296C82.9137 11.9543 83.1113 11.917 83.3104 11.92C83.7291 11.92 84.085 12.066 84.3793 12.358C84.6726 12.649 84.8223 13.003 84.8223 13.418V33.029ZM113.435 23.223C113.435 26.341 112.317 29.007 110.085 31.219C107.86 33.424 105.175 34.527 102.029 34.527C98.8739 34.527 96.1839 33.424 93.9591 31.219C91.7343 29.016 90.6219 26.351 90.6219 23.223C90.6219 20.106 91.7343 17.444 93.9591 15.241C96.192 13.027 98.883 11.921 102.029 11.921C105.166 11.921 107.851 13.027 110.085 15.241C111.206 16.352 112.044 17.567 112.601 18.886C113.157 20.204 113.435 21.649 113.435 23.223ZM102.029 14.915C100.85 14.915 99.7739 15.118 98.799 15.522C97.8252 15.927 96.9241 16.539 96.0979 17.359C95.2707 18.178 94.6548 19.069 94.2503 20.029C93.8458 20.99 93.6436 22.054 93.6436 23.222C93.6436 25.521 94.4617 27.48 96.0969 29.1C97.7311 30.72 99.7081 31.53 102.028 31.53C104.347 31.53 106.324 30.72 107.959 29.1C109.594 27.48 110.411 25.52 110.411 23.222C110.411 20.934 109.594 18.979 107.959 17.359C106.315 15.729 104.338 14.915 102.029 14.915ZM124.468 11.919C125.277 11.919 126.039 12.072 126.757 12.379C128.176 12.9774 129.306 14.0969 129.908 15.502C130.217 16.212 130.372 16.969 130.372 17.769C130.372 19.202 129.925 20.449 129.03 21.513C129.61 21.853 130.119 22.243 130.557 22.686C130.993 23.129 131.363 23.612 131.662 24.134C131.962 24.657 132.188 25.208 132.339 25.788C132.491 26.366 132.567 26.963 132.567 27.574C132.567 28.526 132.382 29.424 132.012 30.266C131.655 31.09 131.144 31.8403 130.506 32.478C129.868 33.1126 129.114 33.6207 128.283 33.975C127.426 34.3431 126.501 34.5304 125.566 34.525H120.063C119.855 34.525 119.658 34.485 119.478 34.405C119.301 34.3278 119.139 34.2202 119 34.087C118.861 33.9521 118.75 33.7914 118.674 33.614C118.593 33.43 118.552 33.234 118.552 33.028V13.417C118.552 13.21 118.593 13.015 118.674 12.83C118.753 12.647 118.863 12.49 119 12.357C119.138 12.225 119.297 12.118 119.478 12.039C119.658 11.959 119.855 11.919 120.063 11.919H124.468ZM121.574 14.915V20.638H124.468C124.868 20.638 125.242 20.561 125.589 20.411C125.935 20.26 126.239 20.052 126.501 19.789C126.763 19.5255 126.973 19.2163 127.121 18.877C127.273 18.533 127.349 18.164 127.349 17.768C127.349 17.382 127.273 17.018 127.121 16.673C126.82 15.9863 126.267 15.4381 125.573 15.139C125.225 14.9888 124.848 14.9122 124.468 14.914L121.574 14.915ZM121.574 23.633V31.531H125.566C126.09 31.5322 126.609 31.4302 127.092 31.231C127.576 31.0319 128.015 30.7395 128.383 30.371C128.739 30.014 129.023 29.595 129.231 29.115C129.439 28.634 129.545 28.12 129.545 27.574C129.547 27.0498 129.44 26.5308 129.231 26.049C128.824 25.1026 128.063 24.3483 127.106 23.944C126.62 23.7366 126.095 23.6307 125.565 23.633H121.574ZM152.169 31.531C152.586 31.531 152.943 31.677 153.238 31.969C153.533 32.26 153.681 32.614 153.681 33.029C153.681 33.444 153.533 33.796 153.238 34.089C153.099 34.2302 152.933 34.3418 152.749 34.4169C152.565 34.4921 152.368 34.5292 152.169 34.526H138.981C138.781 34.5301 138.583 34.494 138.398 34.4199C138.212 34.3458 138.044 34.2353 137.904 34.095C137.767 33.9598 137.658 33.799 137.583 33.622C137.504 33.4341 137.465 33.2324 137.468 33.029V13.418C137.466 13.0192 137.622 12.6357 137.904 12.35C138.045 12.2104 138.213 12.1003 138.398 12.0262C138.583 11.9522 138.781 11.9157 138.981 11.919H152.169C152.586 11.919 152.943 12.065 153.238 12.357C153.533 12.65 153.681 13.002 153.681 13.417C153.681 13.832 153.533 14.185 153.238 14.477C153.099 14.6184 152.933 14.7302 152.749 14.8055C152.565 14.8808 152.368 14.9181 152.169 14.915H140.492V21.725H148.875C149.293 21.725 149.65 21.871 149.944 22.165C150.238 22.455 150.387 22.809 150.387 23.224C150.387 23.638 150.238 23.991 149.944 24.284C149.651 24.576 149.293 24.722 148.875 24.722H140.492V31.532L152.169 31.531ZM174.45 14.915H168.818V33.028C168.818 33.443 168.671 33.797 168.376 34.088C168.238 34.2293 168.071 34.3411 167.887 34.4164C167.703 34.4918 167.506 34.5291 167.306 34.526C166.888 34.526 166.532 34.38 166.238 34.088C166.094 33.9506 165.981 33.7857 165.905 33.6034C165.829 33.421 165.791 33.2252 165.795 33.028V14.915H160.163C159.745 14.915 159.388 14.768 159.093 14.476C158.951 14.3382 158.838 14.1732 158.762 13.9909C158.687 13.8086 158.65 13.613 158.653 13.416C158.653 13.002 158.8 12.649 159.093 12.356C159.232 12.2149 159.398 12.1034 159.582 12.0283C159.766 11.9531 159.964 11.9159 160.163 11.919H174.449C174.868 11.919 175.224 12.064 175.519 12.356C175.814 12.649 175.961 13.002 175.961 13.416C175.961 13.831 175.814 14.184 175.519 14.476C175.381 14.6177 175.215 14.7298 175.031 14.8053C174.847 14.8808 174.649 14.9181 174.45 14.915Z" fill="#D2B77F"/>
</svg>
