<svg width="107" height="61" viewBox="0 0 107 61" fill="none" xmlns="http://www.w3.org/2000/svg">
<mask id="mask0_6_2111" style="mask-type:luminance" maskUnits="userSpaceOnUse" x="0" y="0" width="107" height="61">
<path d="M0 0H107V61H0V0Z" fill="white"/>
</mask>
<g mask="url(#mask0_6_2111)">
<path d="M56.6565 47.3719V42.4664C58.101 42.5207 59.492 42.4664 60.9365 42.4664V38.4845C59.492 38.4845 58.101 38.432 56.6565 38.4845V34.2891H61.418C61.4715 32.925 61.4715 31.6169 61.418 30.3088C58.4401 30.2542 55.4614 30.2542 52.4835 30.3088V51.6774C55.4795 51.6774 58.422 51.7334 61.418 51.6774V47.4278C59.813 47.3736 58.208 47.3176 56.6565 47.3719ZM85.4395 40.4484C85.2255 39.5215 85.814 38.7031 86.135 37.8321C87.2585 35.2701 88.4355 32.7624 89.452 30.2004C87.954 30.2004 86.456 30.1461 85.0115 30.2004C83.7275 33.2537 82.3365 36.2495 81.0525 39.2487C80.999 36.197 81.0525 33.1995 80.999 30.1461H76.8795C76.826 37.2323 76.8795 44.3727 76.8795 51.4606H81.0525C81.106 48.1344 80.999 44.8099 81.213 41.4837C81.427 42.2462 81.6945 43.0104 82.0155 43.7203C83.0855 46.2806 84.102 48.8426 85.065 51.4606C86.563 51.5148 88.061 51.5148 89.559 51.4606C88.4355 47.8073 86.777 44.21 85.4395 40.4484ZM26.215 42.5207C25.5195 41.4294 24.5565 40.6127 23.7005 39.6859C22.7375 38.6506 21.4 37.7237 21.1325 36.3054C21.079 36.0343 21.079 35.7598 21.186 35.5429C21.4 34.8889 21.721 34.2891 22.4165 34.0705C23.647 33.635 24.8775 34.5059 26.0545 34.8889V31.2357C26.0545 31.2357 25.7335 30.7443 24.182 30.3088L24.075 30.1461L23.968 30.0919H23.9145C22.042 29.6547 20.009 29.9818 18.618 31.4C16.7455 33.1978 16.4245 36.2512 17.2805 38.6506C18.19 41.1024 20.544 42.4664 22.149 44.4286C23.0585 45.5181 22.47 47.4278 21.079 47.6447L20.865 47.6989C19.5275 47.97 18.297 47.1533 17.1735 46.4992V50.9149C19.046 52.0604 21.293 52.1146 23.326 51.5148C26.6965 50.2067 27.82 45.6266 26.215 42.5207ZM30.602 51.6232V34.2348H27.3385V30.2004H38.0385V34.1789H34.882L34.8285 51.569L30.602 51.6232ZM47.5615 41.8666C48.578 41.4837 49.434 40.8296 49.969 39.9027C50.8785 38.3218 50.8785 36.4139 50.6645 34.6703C50.5548 33.7897 50.2069 32.9571 49.6593 32.2645C49.1116 31.5718 48.3856 31.0463 47.5615 30.746C44.94 29.8733 42.158 30.3088 39.483 30.2546C39.483 37.3407 39.4295 44.4828 39.483 51.6232V51.6774H43.6025V51.6232H43.763V43.1188C44.0305 43.8813 44.2445 44.6455 44.512 45.4097C45.3145 47.3719 46.1705 49.6627 46.973 51.6791H51.467C50.29 48.4614 48.685 45.0827 47.5615 41.8666ZM45.796 38.9759C45.2075 39.4673 44.4585 39.4131 43.763 39.5215V33.5808C44.7795 33.5808 46.0635 33.7434 46.4915 34.8347C46.973 36.197 46.973 37.9948 45.796 38.9759ZM71.369 30.1987H66.9285C65.2624 37.3342 63.6218 44.4757 62.0065 51.6232H66.2865C66.447 50.8607 66.554 50.0982 66.7145 49.3882L66.982 47.9175H71.155L71.797 51.6232H76.0235C74.5231 44.471 72.9715 37.3281 71.369 30.1987ZM67.731 44.2642C67.945 43.1747 68.052 42.0835 68.2125 40.994L69.122 36.1428C69.2825 37.3967 69.55 38.759 69.764 40.0129L70.513 44.2659L67.731 44.2642Z" fill="white"/>
<path d="M22.3631 9.81248H16.7991V26.8755H26.2151V22.187H22.3096V9.81248H22.3631ZM19.3671 25.5674C19.254 25.5686 19.1417 25.5467 19.037 25.5032C18.9323 25.4597 18.8373 25.3954 18.7575 25.3141C18.6777 25.2327 18.6148 25.136 18.5725 25.0297C18.5302 24.9233 18.5093 24.8095 18.5111 24.6948C18.5111 24.2034 18.8856 23.8221 19.3671 23.8221C19.8486 23.8221 20.2231 24.2034 20.2231 24.6948C20.2231 25.1862 19.8486 25.5674 19.3671 25.5674ZM19.3671 23.0054C19.254 23.0066 19.1417 22.9847 19.037 22.9412C18.9323 22.8977 18.8373 22.8334 18.7575 22.7521C18.6777 22.6707 18.6148 22.574 18.5725 22.4677C18.5302 22.3613 18.5093 22.2475 18.5111 22.1328C18.5111 21.6414 18.8856 21.2601 19.3671 21.2601C19.8486 21.2601 20.2231 21.6414 20.2231 22.1328C20.1994 22.355 20.1017 22.5623 19.9461 22.7206C19.7904 22.879 19.5862 22.9805 19.3671 23.0054ZM19.3671 20.4417C19.2541 20.4429 19.142 20.4211 19.0374 20.3777C18.9328 20.3343 18.8379 20.2701 18.7581 20.189C18.6784 20.1078 18.6154 20.0113 18.573 19.9052C18.5306 19.799 18.5095 19.6853 18.5111 19.5708C18.5111 19.0794 18.8856 18.6981 19.3671 18.6981C19.8486 18.6981 20.2231 19.0794 20.2231 19.5708C20.1994 19.793 20.1017 20.0003 19.9461 20.1586C19.7904 20.317 19.5862 20.4168 19.3671 20.4417ZM19.3671 17.8797C19.2541 17.8809 19.142 17.8591 19.0374 17.8157C18.9328 17.7723 18.8379 17.7081 18.7581 17.627C18.6784 17.5458 18.6154 17.4493 18.573 17.3432C18.5306 17.237 18.5095 17.1233 18.5111 17.0088C18.5111 16.5174 18.8856 16.1361 19.3671 16.1361C19.8486 16.1361 20.2231 16.5174 20.2231 17.0088C20.1994 17.231 20.1017 17.4383 19.9461 17.5966C19.7904 17.755 19.5862 17.8548 19.3671 17.8797ZM19.3671 15.3177C19.2541 15.3189 19.142 15.2971 19.0374 15.2537C18.9328 15.2103 18.8379 15.1461 18.7581 15.065C18.6784 14.9838 18.6154 14.8873 18.573 14.7812C18.5306 14.675 18.5095 14.5613 18.5111 14.4468C18.5111 13.9554 18.8856 13.5741 19.3671 13.5741C19.8486 13.5741 20.2231 13.9554 20.2231 14.4468C20.2072 14.6668 20.1105 14.8728 19.952 15.024C19.7935 15.1752 19.5848 15.2607 19.3671 15.2635V15.3177ZM19.3671 12.7557C19.2541 12.7569 19.142 12.7351 19.0374 12.6917C18.9328 12.6483 18.8379 12.5841 18.7581 12.503C18.6784 12.4218 18.6154 12.3253 18.573 12.2192C18.5306 12.113 18.5095 11.9993 18.5111 11.8848C18.5111 11.3934 18.8856 11.0121 19.3671 11.0121C19.8486 11.0121 20.2231 11.3934 20.2231 11.8848C20.1956 12.0953 20.0937 12.2886 19.9363 12.4288C19.7789 12.5691 19.5767 12.6467 19.3671 12.6473V12.7557ZM24.3961 23.8221C24.8776 23.8221 25.2521 24.2034 25.2521 24.6948C25.2521 25.1862 24.8776 25.5674 24.3961 25.5674C24.283 25.5686 24.1707 25.5467 24.066 25.5032C23.9613 25.4597 23.8663 25.3954 23.7865 25.3141C23.7067 25.2327 23.6438 25.136 23.6015 25.0297C23.5592 24.9233 23.5383 24.8095 23.5401 24.6948C23.5936 24.2034 23.9681 23.8221 24.3961 23.8221ZM22.7376 24.6406C22.7376 25.1319 22.3631 25.5115 21.8816 25.5115C21.7686 25.5126 21.6565 25.4909 21.5519 25.4475C21.4473 25.4041 21.3524 25.3399 21.2726 25.2587C21.1929 25.1776 21.1299 25.0811 21.0875 24.9749C21.0451 24.8688 21.024 24.7551 21.0256 24.6406C21.0256 24.1492 21.4001 23.7679 21.8816 23.7679C22.3631 23.8221 22.7376 24.2034 22.7376 24.6406ZM36.8081 19.625C36.8081 21.3144 35.8451 22.4039 34.6146 22.4039C33.3841 22.4039 32.2606 21.3144 32.2606 19.625V9.81078H27.2316V19.6216C27.2316 24.1475 30.1741 27.0907 34.5611 27.0907C38.9481 27.0907 41.8371 24.2017 41.8371 19.6233V9.81078H36.8081V19.6216V19.625ZM29.7461 10.9579C30.2276 10.9579 30.6021 11.3392 30.6021 11.8289C30.6021 12.3203 30.2276 12.7015 29.7461 12.7015C29.633 12.7027 29.5207 12.6808 29.416 12.6373C29.3113 12.5938 29.2163 12.5295 29.1365 12.4482C29.0567 12.3668 28.9938 12.2701 28.9515 12.1638C28.9092 12.0574 28.8883 11.9435 28.8901 11.8289C28.8901 11.3375 29.2646 10.9579 29.7461 10.9579ZM29.7461 13.5199C30.2276 13.5199 30.6021 13.9012 30.6021 14.3909C30.6021 14.8823 30.2276 15.2635 29.7461 15.2635C29.633 15.2647 29.5207 15.2428 29.416 15.1993C29.3113 15.1558 29.2163 15.0915 29.1365 15.0102C29.0567 14.9288 28.9938 14.8321 28.9515 14.7258C28.9092 14.6194 28.8883 14.5055 28.8901 14.3909C28.8901 13.8995 29.2646 13.5199 29.7461 13.5199ZM29.7461 16.0819C30.2276 16.0819 30.6021 16.4632 30.6021 16.9546C30.6021 17.4443 30.2276 17.8255 29.7461 17.8255C29.6331 17.8266 29.521 17.8049 29.4164 17.7615C29.3118 17.7181 29.2169 17.6539 29.1371 17.5727C29.0574 17.4916 28.9944 17.3951 28.952 17.2889C28.9096 17.1828 28.8885 17.0691 28.8901 16.9546C28.8901 16.4632 29.2646 16.0819 29.7461 16.0819ZM28.8901 19.5166C28.8901 19.0252 29.2646 18.6439 29.7461 18.6439C30.2276 18.6439 30.6021 19.0252 30.6021 19.5166C30.6021 20.008 30.2276 20.3875 29.7461 20.3875C29.6331 20.3886 29.521 20.3669 29.4164 20.3235C29.3118 20.2801 29.2169 20.2159 29.1371 20.1347C29.0574 20.0536 28.9944 19.9571 28.952 19.8509C28.9096 19.7448 28.8885 19.6311 28.8901 19.5166ZM30.4951 22.7868C30.382 22.788 30.2697 22.7662 30.165 22.7226C30.0603 22.6791 29.9653 22.6148 29.8855 22.5335C29.8057 22.4522 29.7428 22.3555 29.7005 22.2491C29.6582 22.1427 29.6373 22.0289 29.6391 21.9142C29.6391 21.4228 30.0136 21.0416 30.4951 21.0416C30.9766 21.0416 31.3511 21.4245 31.3511 21.9142C31.2976 22.4056 30.9766 22.7868 30.4951 22.7868C30.4951 22.8411 30.4951 22.8411 30.4951 22.7868ZM32.0466 24.9134C31.9335 24.9145 31.8212 24.8927 31.7165 24.8492C31.6118 24.8057 31.5168 24.7413 31.437 24.66C31.3572 24.5787 31.2943 24.482 31.252 24.3756C31.2097 24.2693 31.1888 24.1554 31.1906 24.0407C31.1906 23.5493 31.5651 23.1681 32.0466 23.1681C32.5281 23.1681 32.9026 23.5493 32.9026 24.0407C32.9227 24.2639 32.8555 24.4862 32.7154 24.6596C32.5752 24.833 32.3735 24.9436 32.1536 24.9676H32.0466V24.9134ZM34.5076 25.5115C34.3946 25.5126 34.2825 25.4909 34.1779 25.4475C34.0733 25.4041 33.9784 25.3399 33.8986 25.2587C33.8189 25.1776 33.7559 25.0811 33.7135 24.9749C33.6711 24.8688 33.65 24.7551 33.6516 24.6406C33.6516 24.1492 34.0261 23.7679 34.5076 23.7679C34.9891 23.7679 35.3636 24.1492 35.3636 24.6406C35.3636 25.1319 35.0426 25.5115 34.5076 25.5115C34.5611 25.5674 34.5611 25.5115 34.5076 25.5115ZM39.2691 10.9562C39.7506 10.9562 40.1251 11.3392 40.1251 11.8289C40.1251 12.3203 39.7506 12.7015 39.2691 12.7015C39.156 12.7027 39.0437 12.6808 38.939 12.6373C38.8343 12.5938 38.7393 12.5295 38.6595 12.4482C38.5797 12.3668 38.5168 12.2701 38.4745 12.1638C38.4322 12.0574 38.4113 11.9435 38.4131 11.8289C38.4131 11.3375 38.7876 10.9562 39.2691 10.9562ZM39.2691 13.5199C39.7506 13.5199 40.1251 13.9012 40.1251 14.3909C40.1251 14.8823 39.7506 15.2635 39.2691 15.2635C39.156 15.2647 39.0437 15.2428 38.939 15.1993C38.8343 15.1558 38.7393 15.0915 38.6595 15.0102C38.5797 14.9288 38.5168 14.8321 38.4745 14.7258C38.4322 14.6194 38.4113 14.5055 38.4131 14.3909C38.4131 13.8995 38.7876 13.5199 39.2691 13.5199ZM39.2691 16.0819C39.7506 16.0819 40.1251 16.4632 40.1251 16.9546C40.1251 17.4443 39.7506 17.8255 39.2691 17.8255C39.1561 17.8266 39.044 17.8049 38.9394 17.7615C38.8348 17.7181 38.7399 17.6539 38.6601 17.5727C38.5804 17.4916 38.5174 17.3951 38.475 17.2889C38.4326 17.1828 38.4115 17.0691 38.4131 16.9546C38.4131 16.4632 38.7876 16.0819 39.2691 16.0819ZM39.2691 18.6439C39.7506 18.6439 40.1251 19.0252 40.1251 19.5166C40.1251 20.008 39.7506 20.3875 39.2691 20.3875C39.1561 20.3886 39.044 20.3669 38.9394 20.3235C38.8348 20.2801 38.7399 20.2159 38.6601 20.1347C38.5804 20.0536 38.5174 19.9571 38.475 19.8509C38.4326 19.7448 38.4115 19.6311 38.4131 19.5166C38.4131 19.0252 38.7876 18.6439 39.2691 18.6439ZM38.6806 21.0416C39.1621 21.0416 39.5366 21.4245 39.5366 21.9142C39.5366 22.4056 39.1621 22.7868 38.6806 22.7868C38.5675 22.788 38.4552 22.7662 38.3505 22.7226C38.2458 22.6791 38.1508 22.6148 38.071 22.5335C37.9912 22.4522 37.9283 22.3555 37.886 22.2491C37.8437 22.1427 37.8228 22.0289 37.8246 21.9142C37.8246 21.4228 38.1991 21.0975 38.6806 21.0416ZM37.9851 24.0407C37.9851 24.5321 37.6106 24.9134 37.1291 24.9134C37.016 24.9145 36.9037 24.8927 36.799 24.8492C36.6943 24.8057 36.5993 24.7413 36.5195 24.66C36.4397 24.5787 36.3768 24.482 36.3345 24.3756C36.2922 24.2693 36.2713 24.1554 36.2731 24.0407C36.2731 23.5493 36.6476 23.1681 37.1291 23.1681C37.6106 23.2223 37.9851 23.6036 37.9851 24.0407ZM52.6441 14.0638C53.9281 14.0638 55.4261 14.9907 56.4426 16.409L59.6526 12.4287C58.7514 11.4363 57.6608 10.6396 56.447 10.0868C55.2331 9.53402 53.9212 9.23663 52.5906 9.21265C47.3476 9.21265 43.4956 12.9743 43.4956 18.2068C43.4956 23.4951 47.2406 27.311 52.3766 27.311C54.9446 27.311 57.8336 25.9487 59.6526 23.7679L56.4426 20.1706C55.3191 21.4245 53.8211 22.187 52.6441 22.187C50.6646 22.187 49.1666 20.496 49.1666 18.0983C49.1666 15.699 50.6646 14.0655 52.6441 14.0655V14.0638ZM56.9776 12.6473C57.4591 12.6473 57.8336 13.0285 57.8336 13.5199C57.8336 14.0113 57.4591 14.3909 56.9776 14.3909C56.8646 14.392 56.7525 14.3702 56.6479 14.3268C56.5433 14.2834 56.4484 14.2193 56.3686 14.1381C56.2889 14.057 56.2259 13.9605 56.1835 13.8543C56.1411 13.7481 56.12 13.6345 56.1216 13.5199C56.1751 13.0285 56.5496 12.6473 56.9776 12.6473C57.0311 12.6473 57.0311 12.6473 56.9776 12.6473ZM54.9446 11.1206C55.4261 11.1206 55.8006 11.5018 55.8006 11.9932C55.8006 12.4846 55.4261 12.8659 54.9446 12.8659C54.8315 12.867 54.7192 12.8452 54.6145 12.8017C54.5098 12.7582 54.4148 12.6938 54.335 12.6125C54.2552 12.5312 54.1923 12.4345 54.15 12.3281C54.1077 12.2218 54.0868 12.1079 54.0886 11.9932C54.0886 11.5018 54.4631 11.1206 54.9446 11.1206ZM52.4301 10.6851C52.9116 10.6851 53.2861 11.0664 53.2861 11.5561C53.2861 12.0475 52.9116 12.4287 52.4301 12.4287C52.317 12.4298 52.2047 12.408 52.1 12.3645C51.9953 12.321 51.9003 12.2567 51.8205 12.1753C51.7407 12.094 51.6778 11.9973 51.6355 11.891C51.5932 11.7846 51.5723 11.6707 51.5741 11.5561C51.5741 11.0647 51.9486 10.6851 52.4301 10.6851ZM46.7056 14.828C47.1871 14.828 47.5616 15.2093 47.5616 15.699C47.5616 16.1904 47.1871 16.5716 46.7056 16.5716C46.5924 16.5728 46.4802 16.5509 46.3755 16.5074C46.2708 16.4639 46.1758 16.3996 46.096 16.3183C46.0162 16.2369 45.9533 16.1402 45.911 16.0339C45.8687 15.9275 45.8478 15.8136 45.8496 15.699C45.8496 15.2076 46.2241 14.828 46.7056 14.828ZM45.3681 18.0983C45.3681 17.6069 45.7426 17.2257 46.2241 17.2257C46.7056 17.2257 47.0801 17.6069 47.0801 18.0983C47.0801 18.5897 46.7056 18.9709 46.2241 18.9709C46.111 18.9721 45.9987 18.9503 45.894 18.9068C45.7893 18.8632 45.6943 18.7989 45.6145 18.7176C45.5347 18.6363 45.4718 18.5396 45.4295 18.4332C45.3872 18.3269 45.3663 18.213 45.3681 18.0983ZM45.7426 20.6061C45.7426 20.1147 46.1171 19.7335 46.5986 19.7335C47.0801 19.7335 47.4546 20.1147 47.4546 20.6061C47.4546 21.0975 47.0801 21.4787 46.5986 21.4787C46.1706 21.4787 45.7961 21.0958 45.7426 20.6061ZM47.8826 23.4409C47.7695 23.442 47.6572 23.4202 47.5525 23.3767C47.4478 23.3332 47.3528 23.2689 47.273 23.1875C47.1932 23.1062 47.1303 23.0095 47.088 22.9032C47.0457 22.7968 47.0248 22.6829 47.0266 22.5683C47.0266 22.0769 47.4011 21.6956 47.8826 21.6956C48.3641 21.6956 48.7386 22.0786 48.7386 22.5683C48.7386 23.0596 48.3641 23.4409 47.8826 23.4409ZM47.9896 14.6095C47.8765 14.6106 47.7642 14.5888 47.6595 14.5453C47.5548 14.5017 47.4598 14.4374 47.38 14.3561C47.3002 14.2748 47.2373 14.1781 47.195 14.0717C47.1527 13.9654 47.1318 13.8515 47.1336 13.7368C47.1336 13.2454 47.5081 12.8659 47.9896 12.8659C48.4711 12.8659 48.8456 13.2471 48.8456 13.7368C48.7921 14.2282 48.4176 14.6095 47.9896 14.6095ZM56.9241 21.9684C57.4056 21.9684 57.7801 22.3497 57.7801 22.8411C57.7801 23.3324 57.4056 23.7137 56.9241 23.7137C56.8109 23.7148 56.6987 23.693 56.594 23.6495C56.4893 23.606 56.3943 23.5417 56.3145 23.4603C56.2347 23.379 56.1718 23.2823 56.1295 23.176C56.0872 23.0696 56.0663 22.9557 56.0681 22.8411C56.1216 22.3497 56.4961 21.9684 56.9241 21.9684ZM54.9446 23.3867C55.4261 23.3867 55.8006 23.7679 55.8006 24.2576C55.8006 24.749 55.4261 25.1303 54.9446 25.1303C54.8315 25.1314 54.7192 25.1096 54.6145 25.0661C54.5098 25.0226 54.4148 24.9582 54.335 24.8769C54.2552 24.7956 54.1923 24.6989 54.15 24.5925C54.1077 24.4862 54.0868 24.3723 54.0886 24.2576C54.0886 23.7662 54.4631 23.3867 54.9446 23.3867ZM52.4301 23.7679C52.9116 23.7679 53.2861 24.1492 53.2861 24.6406C53.2861 25.1319 52.9116 25.5115 52.4301 25.5115C52.3171 25.5126 52.205 25.4909 52.1004 25.4475C51.9958 25.4041 51.9009 25.3399 51.8211 25.2587C51.7414 25.1776 51.6784 25.0811 51.636 24.9749C51.5936 24.8688 51.5725 24.7551 51.5741 24.6406C51.6276 24.1492 52.0021 23.7679 52.4301 23.7679ZM49.8621 23.2765C50.3436 23.2765 50.7181 23.6595 50.7181 24.1492C50.7181 24.6406 50.3436 25.0218 49.8621 25.0218C49.7489 25.023 49.6367 25.0011 49.532 24.9576C49.4273 24.9141 49.3323 24.8498 49.2525 24.7685C49.1727 24.6871 49.1098 24.5904 49.0675 24.4841C49.0252 24.3777 49.0043 24.2638 49.0061 24.1492C49.0061 23.6578 49.3806 23.2765 49.8621 23.2765ZM49.1131 12.2118C49.1131 11.7204 49.4876 11.3392 49.9691 11.3392C50.4506 11.3392 50.8251 11.7204 50.8251 12.2101C50.8251 12.7015 50.4506 13.0828 49.9691 13.0828C49.856 13.0839 49.7437 13.0621 49.639 13.0186C49.5343 12.9751 49.4393 12.9107 49.3595 12.8294C49.2797 12.7481 49.2168 12.6514 49.1745 12.545C49.1322 12.4387 49.1113 12.3248 49.1131 12.2101V12.2118ZM85.8676 9.81248L83.5136 14.1198L81.2131 9.81248H75.4886L81.2666 19.5708V26.9298H86.2956V19.4606L91.6991 9.81248H85.8676ZM78.4846 11.7204C78.4846 11.229 78.8591 10.8478 79.3406 10.8478C79.8221 10.8478 80.1966 11.2307 80.1966 11.7204C80.1966 12.2118 79.8221 12.5931 79.3406 12.5931C79.2275 12.5942 79.1152 12.5724 79.0105 12.5289C78.9058 12.4854 78.8108 12.421 78.731 12.3397C78.6512 12.2584 78.5883 12.1617 78.546 12.0553C78.5037 11.949 78.4828 11.8351 78.4846 11.7204ZM79.8756 14.2282C79.8756 13.7368 80.2501 13.3556 80.7316 13.3556C81.2131 13.3556 81.5876 13.7368 81.5876 14.2282C81.5876 14.7196 81.2131 15.1008 80.7316 15.1008C80.2501 15.0466 79.8756 14.6637 79.8756 14.2282ZM82.0691 17.5527C81.9561 17.5538 81.844 17.5321 81.7394 17.4887C81.6348 17.4453 81.5399 17.3811 81.4601 17.2999C81.3804 17.2188 81.3174 17.1223 81.275 17.0161C81.2326 16.91 81.2115 16.7963 81.2131 16.6818C81.2131 16.1904 81.5876 15.8091 82.0691 15.8091C82.5506 15.8091 82.9251 16.1904 82.9251 16.6818C82.9251 17.1731 82.4971 17.5527 82.0691 17.5527ZM83.5671 25.6216C83.454 25.6228 83.3417 25.601 83.237 25.5574C83.1323 25.5139 83.0373 25.4496 82.9575 25.3683C82.8777 25.287 82.8148 25.1903 82.7725 25.0839C82.7302 24.9775 82.7093 24.8637 82.7111 24.749C82.7111 24.2576 83.0856 23.8764 83.5671 23.8764C84.0486 23.8764 84.4231 24.2593 84.4231 24.749C84.4231 25.2404 84.0486 25.6216 83.5671 25.6216ZM83.5671 22.7868C83.454 22.788 83.3417 22.7662 83.237 22.7226C83.1323 22.6791 83.0373 22.6148 82.9575 22.5335C82.8777 22.4522 82.8148 22.3555 82.7725 22.2491C82.7302 22.1427 82.7093 22.0289 82.7111 21.9142C82.7111 21.4228 83.0856 21.0416 83.5671 21.0416C84.0486 21.0416 84.4231 21.4245 84.4231 21.9142C84.4231 22.4056 84.0486 22.7868 83.5671 22.7868ZM83.5671 20.008C83.4538 20.0091 83.3414 19.9872 83.2366 19.9436C83.1318 19.9 83.0367 19.8355 82.9569 19.754C82.8771 19.6725 82.8142 19.5756 82.772 19.469C82.7298 19.3625 82.7091 19.2484 82.7111 19.1336C82.7111 18.6422 83.0856 18.2627 83.5671 18.2627C84.0486 18.2627 84.4231 18.6439 84.4231 19.1336C84.4231 19.625 84.0486 20.0063 83.5671 20.0063V20.008ZM85.0116 17.5527C84.8986 17.5538 84.7865 17.5321 84.6819 17.4887C84.5773 17.4453 84.4824 17.3811 84.4026 17.2999C84.3229 17.2188 84.2599 17.1223 84.2175 17.0161C84.1751 16.91 84.154 16.7963 84.1556 16.6818C84.1556 16.1904 84.5301 15.8091 85.0116 15.8091C85.4931 15.8091 85.8676 16.1904 85.8676 16.6818C85.8676 17.1731 85.4931 17.5527 85.0116 17.5527ZM86.3491 15.1008C86.236 15.102 86.1237 15.0802 86.019 15.0366C85.9143 14.9931 85.8193 14.9288 85.7395 14.8475C85.6597 14.7662 85.5968 14.6695 85.5545 14.5631C85.5122 14.4567 85.4913 14.3429 85.4931 14.2282C85.4931 13.7368 85.8676 13.3556 86.3491 13.3556C86.8306 13.3556 87.2051 13.7368 87.2051 14.2282C87.2051 14.7196 86.8306 15.1008 86.3491 15.1008ZM87.6866 12.6473C87.5735 12.6484 87.4612 12.6266 87.3565 12.5831C87.2518 12.5396 87.1568 12.4753 87.077 12.3939C86.9972 12.3126 86.9343 12.2159 86.892 12.1095C86.8497 12.0032 86.8288 11.8893 86.8306 11.7746C86.8306 11.2833 87.2051 10.902 87.6866 10.902C88.1681 10.902 88.5426 11.285 88.5426 11.7746C88.4891 12.266 88.1146 12.6473 87.6866 12.6473ZM69.2826 9.81078L67.3566 13.3556V9.81248H61.7926V26.8755H67.3566V22.8411L67.4636 22.7326L69.1756 26.8196H74.8466L70.2456 17.7171L74.8466 9.70234H69.2826V9.81248V9.81078ZM67.5171 15.5905C67.7846 15.2093 68.2661 15.0449 68.6941 15.3194C69.0686 15.5905 69.2291 16.0819 68.9616 16.5174C68.7476 16.8986 68.2126 17.063 67.8381 16.7885C67.735 16.7357 67.6441 16.6615 67.5711 16.5708C67.4981 16.4801 67.4448 16.3749 67.4145 16.2619C67.3843 16.149 67.3778 16.0308 67.3954 15.9152C67.4131 15.7995 67.4546 15.6889 67.5171 15.5905C67.5171 15.6448 67.5171 15.6448 67.5171 15.5905ZM64.3071 25.5115C64.1941 25.5126 64.082 25.4909 63.9774 25.4475C63.8728 25.4041 63.7779 25.3399 63.6981 25.2587C63.6184 25.1776 63.5554 25.0811 63.513 24.9749C63.4706 24.8688 63.4495 24.7551 63.4511 24.6406C63.4511 24.1492 63.8256 23.7679 64.3071 23.7679C64.7886 23.7679 65.1631 24.1492 65.1631 24.6406C65.1096 25.1319 64.7886 25.5115 64.3071 25.5115C64.3071 25.5657 64.3071 25.5657 64.3071 25.5115ZM64.3071 22.9495C64.1939 22.9507 64.0817 22.9288 63.977 22.8853C63.8723 22.8418 63.7773 22.7775 63.6975 22.6962C63.6177 22.6148 63.5548 22.5181 63.5125 22.4118C63.4702 22.3054 63.4493 22.1915 63.4511 22.0769C63.4511 21.5872 63.8256 21.2059 64.3071 21.2059C64.7886 21.2059 65.1631 21.5872 65.1631 22.0769C65.1096 22.5683 64.7351 22.9495 64.3071 22.9495ZM64.3071 20.4417C64.1941 20.4429 64.082 20.4211 63.9774 20.3777C63.8728 20.3343 63.7779 20.2701 63.6981 20.189C63.6184 20.1078 63.5554 20.0113 63.513 19.9052C63.4706 19.799 63.4495 19.6853 63.4511 19.5708C63.4511 19.0794 63.8256 18.6981 64.3071 18.6981C64.7886 18.6981 65.1631 19.0794 65.1631 19.5708C65.1305 19.7894 65.0298 19.9917 64.8759 20.1484C64.7219 20.305 64.5227 20.4078 64.3071 20.4417ZM64.3071 17.8797C64.1941 17.8809 64.082 17.8591 63.9774 17.8157C63.8728 17.7723 63.7779 17.7081 63.6981 17.627C63.6184 17.5458 63.5554 17.4493 63.513 17.3432C63.4706 17.237 63.4495 17.1233 63.4511 17.0088C63.4511 16.5174 63.8256 16.1361 64.3071 16.1361C64.7886 16.1361 65.1631 16.5174 65.1631 17.0088C65.1305 17.2274 65.0298 17.4297 64.8759 17.5864C64.7219 17.743 64.5227 17.8458 64.3071 17.8797ZM64.3071 15.3177C64.1941 15.3189 64.082 15.2971 63.9774 15.2537C63.8728 15.2103 63.7779 15.1461 63.6981 15.065C63.6184 14.9838 63.5554 14.8873 63.513 14.7812C63.4706 14.675 63.4495 14.5613 63.4511 14.4468C63.4511 13.9554 63.8256 13.5741 64.3071 13.5741C64.7886 13.5741 65.1631 13.9554 65.1631 14.4468C65.1394 14.669 65.0417 14.8763 64.8861 15.0346C64.7304 15.193 64.5262 15.2928 64.3071 15.3177ZM64.3071 12.7557C64.1939 12.7569 64.0817 12.735 63.977 12.6915C63.8723 12.648 63.7773 12.5837 63.6975 12.5024C63.6177 12.421 63.5548 12.3243 63.5125 12.218C63.4702 12.1116 63.4493 11.9978 63.4511 11.8831C63.4511 11.3917 63.8256 11.0121 64.3071 11.0121C64.7886 11.0121 65.1631 11.3934 65.1631 11.8831C65.1096 12.3203 64.7886 12.7015 64.3071 12.7015V12.7557ZM67.4636 19.0794C67.0356 19.298 66.5541 19.1878 66.3401 18.7524C66.1261 18.3169 66.2331 17.8255 66.6611 17.6069C67.0356 17.39 67.5706 17.4985 67.7846 17.8797C67.9986 18.2627 67.8916 18.7524 67.4636 19.0252V19.0794ZM67.6776 20.9873C67.4636 20.6061 67.5706 20.0605 67.9986 19.8436C68.3731 19.6233 68.9081 19.7334 69.1221 20.1706C69.3361 20.5519 69.2291 21.0958 68.8546 21.3144C68.4266 21.533 67.8916 21.3686 67.6776 20.9873ZM71.6901 24.4779C71.9041 24.8574 71.7971 25.4031 71.3691 25.6216C70.9946 25.8385 70.4596 25.7301 70.2456 25.2946C70.0316 24.9117 70.1386 24.3678 70.5131 24.1492C70.6983 24.0217 70.9256 23.9732 71.1458 24.0141C71.366 24.055 71.5615 24.182 71.6901 24.3678V24.4779ZM70.4061 22.2955C70.6201 22.6767 70.5131 23.2223 70.0851 23.4409C69.7106 23.6578 69.1756 23.5493 68.9616 23.1139C68.7476 22.7326 68.8546 22.187 69.2291 21.9684C69.4143 21.841 69.6416 21.7924 69.8618 21.8333C70.082 21.8742 70.2775 22.0013 70.4061 22.187V22.2955ZM70.2991 14.3366C70.0851 14.7738 69.5501 14.8823 69.1221 14.6637C68.6941 14.4468 68.5871 13.9012 68.8011 13.464C69.0151 13.0285 69.5501 12.9201 69.9781 13.137C70.4061 13.4098 70.5131 13.9554 70.2991 14.3366ZM70.4061 12.4287C69.9781 12.2101 69.8711 11.6662 70.0851 11.229C70.2991 10.7936 70.8341 10.6851 71.2621 10.902C71.6901 11.1206 71.7971 11.6645 71.5831 12.1017C71.3156 12.5388 70.7806 12.7015 70.4061 12.4287ZM100.366 56.9113C100.259 58.0567 99.2961 58.9836 98.1726 58.9836H8.4531C7.89761 58.9801 7.36371 58.7651 6.95737 58.3812C6.55104 57.9973 6.30197 57.4726 6.2596 56.9113L4.2266 32.1622C4.1731 31.6183 3.7451 31.1811 3.2101 31.1811C2.6751 31.1811 2.1936 31.6725 2.1936 32.2181V32.3266L4.2266 57.0756C4.3336 58.2753 4.9221 59.3648 5.8316 60.129C6.59693 60.7303 7.53823 61.0559 8.50661 61.0542H98.1191C99.0286 61.0542 99.9381 60.7831 100.634 60.2374C101.136 59.8835 101.555 59.4214 101.86 58.8841C102.165 58.3468 102.349 57.7477 102.399 57.1298L104.593 32.3808C104.646 31.8352 104.218 31.2913 103.683 31.237H103.576C103.322 31.2314 103.076 31.3239 102.887 31.4957C102.698 31.6676 102.581 31.9059 102.56 32.1622L100.366 56.9113Z" fill="#936A29"/>
<path d="M2.033 5.50711C2.00116 5.07308 2.0558 4.63698 2.19367 4.22479C2.33153 3.81259 2.5498 3.43272 2.8355 3.10778C3.424 2.3995 4.3335 2.01825 5.243 2.01825H101.811C102.72 2.01825 103.576 2.3995 104.218 3.10778C104.806 3.76183 105.074 4.63278 104.967 5.50542L102.987 27.8026C102.934 28.3465 103.362 28.8921 103.897 28.9464H104.004C104.539 28.9464 104.967 28.5651 105.021 28.0195L107 5.724C107.267 2.83497 105.181 0.272972 102.346 0.0543892H5.136C2.3005 0.000166929 0 2.34358 0 5.236V5.67147L1.819 28.0212C1.84022 28.2778 1.95718 28.5165 2.14606 28.6887C2.33493 28.861 2.5815 28.9537 2.8355 28.9481C3.3705 28.9481 3.852 28.4567 3.852 27.9128V27.8043L2.033 5.50711Z" fill="#936A29"/>
</g>
</svg>
