<svg width="36" height="36" viewBox="0 0 36 36" fill="none" xmlns="http://www.w3.org/2000/svg">
<mask id="mask0_6_1741" style="mask-type:luminance" maskUnits="userSpaceOnUse" x="0" y="0" width="36" height="36">
<path d="M0 0H36V36H0V0Z" fill="white"/>
</mask>
<g mask="url(#mask0_6_1741)">
<path d="M23.5861 24.465V21.104H12.4141V24.465C12.4141 25.041 12.0181 25.541 11.4571 25.674L3.77706 27.481C3.23232 27.609 2.74678 27.9173 2.39919 28.3558C2.0516 28.7943 1.86232 29.3374 1.86206 29.897V34.759C1.86206 35.444 2.41806 36 3.10306 36H32.8971C33.5821 36 34.1371 35.444 34.1371 34.759V29.897C34.1369 29.3377 33.9479 28.7948 33.6007 28.3563C33.2535 27.9178 32.7684 27.6094 32.2241 27.481L24.5441 25.673C24.2716 25.6092 24.0286 25.4551 23.8547 25.2358C23.6808 25.0165 23.5861 24.7449 23.5861 24.465Z" fill="#E6AF78"/>
<path d="M32.2241 27.48L24.5441 25.674C24.4308 25.6462 24.322 25.6024 24.2211 25.544L18.0001 29.172L12.0221 25.368C11.864 25.518 11.6691 25.6235 11.4571 25.674L3.77706 27.481C3.23232 27.609 2.74678 27.9173 2.39919 28.3558C2.0516 28.7943 1.86232 29.3374 1.86206 29.897V34.759C1.86206 35.444 2.41806 36 3.10306 36H32.8971C33.5821 36 34.1371 35.444 34.1371 34.759V29.897C34.1369 29.3377 33.9479 28.7948 33.6007 28.3563C33.2535 27.9178 32.7684 27.6094 32.2241 27.481V27.48Z" fill="#D7DEED"/>
<path d="M19.241 31.035H16.76V36H19.242V31.035H19.241Z" fill="#C3CCE0"/>
<path d="M7.44812 26.617V36H13.0341L11.1721 25.74L7.44812 26.617ZM28.5521 26.617V36H22.9651L24.8271 25.74L28.5521 26.617Z" fill="#5B5D6E"/>
<path d="M12.4141 24.465C12.4141 24.882 12.2041 25.257 11.8781 25.483C19.2411 29.173 23.5861 21.878 23.5861 21.878V21.104H12.4141V24.465Z" fill="#D29B6E"/>
<path d="M9.93103 6.828L10.471 18.727C10.4961 19.2761 10.6425 19.8128 10.8996 20.2987C11.1567 20.7845 11.5182 21.2074 11.958 21.537L14.524 23.462C15.1688 23.9456 15.953 24.2071 16.759 24.207H19.241C20.047 24.207 20.831 23.945 21.476 23.462L24.042 21.537C24.4817 21.2073 24.843 20.7843 25.0999 20.2985C25.3568 19.8127 25.503 19.276 25.528 18.727L26.068 6.827H9.93203L9.93103 6.828Z" fill="#F0C087"/>
<path d="M9.93103 6.828L10.471 18.727C10.4961 19.2761 10.6425 19.8128 10.8996 20.2987C11.1567 20.7845 11.5182 21.2074 11.958 21.537L14.524 23.462C15.1688 23.9457 15.953 24.2071 16.759 24.207H18C16.138 23.587 14.897 18.621 14.897 18.621V11.846C14.897 11.38 15.252 10.996 15.717 10.951C19.194 10.614 23.122 9.741 26.069 7.681V6.828H9.93103Z" fill="#E6AF78"/>
<path d="M8.69006 6.207V6.827L9.31006 13.655H10.5521L11.7931 9.931C11.7931 9.931 19.8631 9.931 24.2071 7.448L25.4481 13.655H26.6901L27.3101 6.828V6.207C27.3101 4.56097 26.6562 2.98235 25.4924 1.81834C24.3286 0.654332 22.7501 0.000265189 21.1041 0L14.8971 0C13.2509 0 11.6721 0.65395 10.5081 1.81799C9.34401 2.98203 8.69006 4.5608 8.69006 6.207Z" fill="#5A4146"/>
<path d="M27.2711 14.63L26.5711 17.435C26.5293 17.6045 26.4294 17.7541 26.2888 17.8575C26.1482 17.961 25.9757 18.0119 25.8015 18.0013C25.6272 17.9907 25.4621 17.9193 25.3351 17.7996C25.208 17.6799 25.127 17.5193 25.1061 17.346L24.7471 14.479C24.7245 14.2982 24.7407 14.1146 24.7945 13.9405C24.8483 13.7664 24.9386 13.6057 25.0593 13.4691C25.1799 13.3325 25.3283 13.2232 25.4945 13.1484C25.6606 13.0735 25.8408 13.0349 26.0231 13.035H26.0251C26.8611 13.035 27.4751 13.819 27.2711 14.63Z" fill="#F0C087"/>
<path d="M8.72904 14.63L9.42904 17.435C9.47078 17.6045 9.57066 17.7541 9.71129 17.8575C9.85191 17.961 10.0244 18.0119 10.1986 18.0013C10.3729 17.9907 10.538 17.9193 10.665 17.7996C10.7921 17.6799 10.8731 17.5193 10.894 17.346L11.253 14.479C11.2756 14.2982 11.2594 14.1148 11.2057 13.9407C11.1519 13.7667 11.0617 13.606 10.9412 13.4695C10.8206 13.3329 10.6724 13.2236 10.5063 13.1487C10.3403 13.0738 10.1602 13.035 9.97804 13.035H9.97504C9.13904 13.035 8.52604 13.819 8.72904 14.63Z" fill="#E6AF78"/>
<path d="M6.41906 31.972L2.39706 28.359C2.05063 28.7968 1.86212 29.3387 1.86206 29.897V34.759C1.86206 35.444 2.41806 36 3.10306 36H7.44806V34.28C7.44806 33.4 7.07506 32.56 6.41906 31.972ZM29.5811 31.972L33.6031 28.359C33.9401 28.785 34.1381 29.323 34.1381 29.897V34.759C34.1381 35.444 33.5821 36 32.8971 36H28.5521V34.28C28.5521 33.4 28.9261 32.56 29.5821 31.972H29.5811Z" fill="#C3CCE0"/>
<path d="M12.327 24.066L18 29.173C18 29.173 16.411 29.975 14.45 31.591C14.3561 31.6693 14.2454 31.7249 14.1266 31.7535C14.0077 31.7821 13.8838 31.783 13.7646 31.756C13.6454 31.729 13.5339 31.6749 13.439 31.5979C13.344 31.5209 13.2681 31.4231 13.217 31.312L10.552 25.448L11.395 24.183C11.4443 24.1087 11.5091 24.046 11.5849 23.999C11.6607 23.9521 11.7457 23.922 11.8342 23.9109C11.9227 23.8998 12.0125 23.9079 12.0975 23.9347C12.1826 23.9614 12.2608 24.0062 12.327 24.066ZM23.673 24.066L18 29.173C18 29.173 19.589 29.975 21.55 31.591C21.6439 31.6693 21.7546 31.7249 21.8734 31.7535C21.9923 31.7821 22.1162 31.783 22.2354 31.756C22.3546 31.729 22.4661 31.6749 22.561 31.5979C22.656 31.5209 22.732 31.4231 22.783 31.312L25.448 25.448L24.605 24.183C24.5557 24.1087 24.4909 24.046 24.4151 23.999C24.3393 23.9521 24.2543 23.922 24.1658 23.9109C24.0774 23.8998 23.9875 23.9079 23.9025 23.9347C23.8174 23.9614 23.7392 24.0062 23.673 24.066Z" fill="#E4EAF6"/>
<path d="M22.1271 28.245L18.0001 29.794L13.8731 28.247C13.7792 28.2116 13.6782 28.1994 13.5787 28.2116C13.4791 28.2238 13.384 28.26 13.3015 28.317C13.219 28.3741 13.1516 28.4503 13.105 28.5391C13.0584 28.6279 13.0341 28.7267 13.0341 28.827V32.002C13.0339 32.1024 13.0581 32.2013 13.1046 32.2903C13.1511 32.3792 13.2186 32.4555 13.3011 32.5127C13.3836 32.5698 13.4788 32.6061 13.5784 32.6183C13.678 32.6306 13.7791 32.6185 13.8731 32.583L18.0001 31.035L22.1271 32.582C22.2209 32.6173 22.3219 32.6292 22.4214 32.6169C22.5209 32.6045 22.6159 32.5682 22.6983 32.5111C22.7807 32.454 22.848 32.3777 22.8945 32.2889C22.9409 32.2 22.9652 32.1013 22.9651 32.001V28.827C22.9653 28.7267 22.9412 28.6278 22.8948 28.5388C22.8484 28.4498 22.7811 28.3734 22.6987 28.3162C22.6163 28.2589 22.5212 28.2226 22.4217 28.2102C22.3221 28.1978 22.221 28.2097 22.1271 28.245Z" fill="#5B5D6E"/>
<path d="M20.4831 29.793H15.5171C15.3524 29.793 15.1945 29.8584 15.078 29.9749C14.9615 30.0913 14.8961 30.2493 14.8961 30.414C14.8961 30.5787 14.9615 30.7367 15.078 30.8531C15.1945 30.9696 15.3524 31.035 15.5171 31.035H20.4831C20.6478 31.035 20.8058 30.9696 20.9222 30.8531C21.0387 30.7367 21.1041 30.5787 21.1041 30.414C21.1041 30.2493 21.0387 30.0913 20.9222 29.9749C20.8058 29.8584 20.6478 29.793 20.4831 29.793Z" fill="#515262"/>
<path d="M18.62 29.172H17.38C17.2984 29.1719 17.2176 29.1878 17.1422 29.219C17.0668 29.2502 16.9983 29.2959 16.9406 29.3536C16.8829 29.4113 16.8372 29.4798 16.806 29.5552C16.7749 29.6306 16.7589 29.7114 16.759 29.793V31.035C16.759 31.377 17.037 31.655 17.379 31.655H18.621C18.7855 31.655 18.9432 31.5897 19.0594 31.4734C19.1757 31.3571 19.241 31.1994 19.241 31.035V29.793C19.241 29.6286 19.1757 29.4709 19.0594 29.3546C18.9432 29.2383 18.7855 29.173 18.621 29.173L18.62 29.172Z" fill="#65687A"/>
<path d="M18 34.759C18.0816 34.759 18.1623 34.7429 18.2377 34.7117C18.313 34.6805 18.3815 34.6348 18.4391 34.5771C18.4968 34.5194 18.5425 34.451 18.5738 34.3756C18.605 34.3003 18.621 34.2196 18.621 34.138C18.621 34.0564 18.605 33.9757 18.5738 33.9004C18.5425 33.825 18.4968 33.7566 18.4391 33.6989C18.3815 33.6412 18.313 33.5955 18.2377 33.5643C18.1623 33.5331 18.0816 33.517 18 33.517C17.8353 33.517 17.6774 33.5824 17.5609 33.6989C17.4445 33.8153 17.379 33.9733 17.379 34.138C17.379 34.3027 17.4445 34.4607 17.5609 34.5771C17.6774 34.6936 17.8353 34.759 18 34.759Z" fill="#959CB3"/>
</g>
</svg>
