<svg width="155" height="56" viewBox="0 0 155 56" fill="none" xmlns="http://www.w3.org/2000/svg">
<path d="M30.6354 21.6441C30.6395 22.9825 30.8597 24.3135 31.2921 25.5903C32.2744 24.0829 33.5408 22.7469 35.0325 21.6441C35.0346 19.7849 35.6444 17.9705 36.7865 16.4436C37.9173 14.9234 39.5304 13.7572 41.408 13.1023C41.767 13.8004 42.387 14.3567 43.1498 14.6665C43.9125 14.9745 44.7712 15.0193 45.5645 14.7879C46.1478 14.6217 46.672 14.3137 47.084 13.8975C47.4959 13.4793 47.7815 12.9679 47.9099 12.4135C48.7727 12.1521 49.4926 11.5847 49.9087 10.8343C50.3268 10.082 50.4083 9.20839 50.1371 8.40012C49.8703 7.59661 49.2688 6.92141 48.4627 6.52039C48.0665 6.3243 47.6316 6.20235 47.1834 6.16165C46.7352 6.12095 46.2827 6.16231 45.8521 6.28332C45.416 5.89248 44.8695 5.62077 44.2739 5.49875C43.6783 5.37673 43.0573 5.40926 42.4808 5.59266C41.6854 5.82599 41.0042 6.31692 40.5657 6.97959C40.1277 7.64336 39.9614 8.42794 40.0966 9.19345C37.3185 10.1094 34.9216 11.7955 33.2398 14.0169C31.5425 16.2568 30.6324 18.9183 30.6354 21.6441Z" fill="white"/>
<path d="M54.5709 4.06H4.39921V21.644C2.90666 22.7466 1.63956 24.0826 0.656724 25.5901C0.228579 24.3111 0.00732174 22.9817 0 21.644V0H58.9314V21.6832C58.9314 24.0912 58.2216 26.4563 56.8796 28.5152C55.548 30.5678 53.6263 32.2466 51.324 33.3685C49.0349 34.4822 46.4518 34.9895 43.865 34.8335C41.2782 34.6776 38.7902 33.8645 36.6804 32.4856C36.8436 31.052 37.4269 29.6856 38.3691 28.5413C39.7812 29.6803 41.5241 30.4195 43.3863 30.6693C45.2452 30.9172 47.1428 30.6629 48.846 29.9376C50.5596 29.2058 52.0067 28.0381 53.0148 26.5739C54.031 25.0984 54.5704 23.39 54.5709 21.6459V4.06Z" fill="white"/>
<path d="M30.6354 33.2136C30.6354 30.8056 31.3451 28.4405 32.6851 26.3816C34.0173 24.3287 35.9397 22.6499 38.2427 21.5283C40.5314 20.4148 43.114 19.9073 45.7004 20.063C48.2868 20.2186 50.7746 21.0311 52.8843 22.4093C52.725 23.8407 52.1418 25.2051 51.1976 26.3555C50.1186 25.4837 48.8418 24.8417 47.4592 24.4757C46.0802 24.1102 44.6293 24.0317 43.2128 24.2458C41.7963 24.46 40.45 24.9614 39.2727 25.7133C38.0898 26.4637 37.0965 27.4493 36.3664 28.5973C35.6351 29.7502 35.1841 31.0338 35.044 32.3607C34.9039 33.6876 35.0781 35.0265 35.5547 36.2861C36.0294 37.5411 36.797 38.6864 37.8042 39.6424C38.8097 40.5944 40.0273 41.3299 41.3693 41.7947C41.7282 41.0965 42.3482 40.5403 43.111 40.2323C43.8725 39.9227 44.7314 39.8789 45.5258 40.1091C46.1091 40.2752 46.6332 40.5832 47.0452 40.9995C47.4572 41.4176 47.7427 41.9291 47.8692 42.4835C48.7421 42.7373 49.4722 43.3048 49.8964 44.0589C50.3206 44.8131 50.4063 45.6941 50.133 46.5061C49.8632 47.3147 49.2546 47.9926 48.4402 48.3915C47.6326 48.7891 46.6863 48.8675 45.8134 48.6136C45.3772 49.005 44.8303 49.277 44.2343 49.3991C43.6382 49.5211 43.0168 49.4883 42.44 49.3043C41.64 49.069 40.9604 48.5762 40.527 47.9173C40.0891 47.2535 39.9229 46.469 40.0579 45.7035C37.2935 44.7609 34.9135 43.0617 33.2419 40.8371C31.5544 38.5942 30.6472 35.9368 30.6395 33.2136H30.6354ZM28.3328 33.2155C28.3287 31.8776 28.1074 30.5477 27.6761 29.2693C26.693 30.7767 25.4259 32.1127 23.9336 33.2155C23.9336 35.0747 23.3217 36.8891 22.1817 38.416C21.0508 39.9362 19.4378 41.1024 17.5602 41.7573C17.2035 41.062 16.5852 40.5074 15.8184 40.1949C15.0564 39.8848 14.1966 39.8409 13.4016 40.0717C12.817 40.2384 12.2922 40.5459 11.8822 40.9621C11.4692 41.3823 11.1849 41.8949 11.0582 42.448C10.4026 42.6423 9.82438 43.0097 9.39619 43.5039C8.968 43.9981 8.70896 44.5971 8.65161 45.2256C8.57133 46.071 8.85368 46.9119 9.43886 47.5701C9.72758 47.8912 10.0826 48.157 10.4837 48.3524C10.8847 48.5478 11.3239 48.6689 11.7761 48.7088C12.2269 48.748 12.6817 48.7032 13.114 48.5781C13.5498 48.9694 14.0964 49.2413 14.6921 49.3634C15.2878 49.4854 15.9089 49.4527 16.4853 49.2688C17.2828 49.0336 17.964 48.5408 18.4025 47.88C18.8389 47.2192 19.0062 46.4315 18.8716 45.6643C21.6458 44.7436 24.039 43.0568 25.7202 40.8371C27.4171 38.598 28.3278 35.9386 28.3307 33.2136L28.3328 33.2155ZM28.3328 21.644C28.3359 18.9181 27.4278 16.2566 25.7304 14.0168C24.0486 11.7954 21.6517 10.1093 18.8736 9.19335C19.0197 8.4255 18.8574 7.63521 18.4167 6.96828C18.1502 6.56836 17.7903 6.22739 17.3628 5.96986C16.9353 5.71233 16.4508 5.54462 15.944 5.47877C15.4373 5.41293 14.9209 5.45057 14.432 5.58901C13.9431 5.72745 13.4937 5.96325 13.1161 6.27948C12.6854 6.15875 12.2327 6.1177 11.7845 6.15872C11.3363 6.19975 10.9016 6.32202 10.5055 6.51841C9.70011 6.91981 9.09943 7.59496 8.83313 8.39815C8.56187 9.20641 8.64345 10.08 9.06155 10.8323C9.47761 11.5827 10.1955 12.1501 11.0603 12.4115C11.2173 13.0648 11.5905 13.6584 12.1249 14.1064C12.6592 14.5544 13.3302 14.8363 14.0461 14.9128C14.7599 14.9875 15.4839 14.8549 16.1141 14.5301C16.7423 14.2053 17.2481 13.7051 17.5581 13.1003C18.9001 13.5669 20.1156 14.3024 21.1191 15.2544C22.1225 16.2064 22.8914 17.3507 23.3666 18.6088C23.8427 19.8679 24.0166 21.2062 23.8765 22.5324C23.7365 23.8586 23.2857 25.1415 22.5549 26.2939C21.828 27.438 20.836 28.4224 19.6486 29.1779C18.472 29.9299 17.1266 30.4314 15.7108 30.6459C14.295 30.8604 12.8447 30.7823 11.4661 30.4173C10.0844 30.0516 8.80842 29.4103 7.72976 28.5395C6.75252 29.672 6.1654 31.045 6.04309 32.4837C8.15818 33.864 10.6518 34.6772 13.2439 34.8322C15.836 34.9872 18.424 34.4777 20.7173 33.3611C23.0251 32.2354 24.9511 30.5514 26.2851 28.4928C27.63 26.4199 28.3382 24.053 28.3348 21.6421L28.3328 21.644Z" fill="white"/>
<path d="M0.0386963 33.2136C0.0386963 30.8056 0.748445 28.4405 2.0884 26.3816C3.42063 24.3287 5.34302 22.6499 7.64603 21.5283C9.93486 20.4148 12.5176 19.9076 15.104 20.0635C17.6905 20.2195 20.1782 21.0325 22.2876 22.4112C22.1279 23.8419 21.5448 25.2057 20.6009 26.3555C19.1888 25.2149 17.4451 24.4743 15.5817 24.2237C13.7226 23.9763 11.825 24.2312 10.122 24.9573C8.40842 25.6891 6.96121 26.8568 5.95324 28.3211C4.93587 29.7968 4.39565 31.506 4.39507 33.2509V50.8349H54.5688V33.2509C56.0609 32.1487 57.328 30.8133 58.3113 29.3067C58.7396 30.5835 58.9599 31.9125 58.968 33.2509V56H0.0386963V33.2136ZM75.8429 10.2947L80.0177 20.2739H80.0585L84.1722 10.2947H87.207V23.2829H85.2572V12.4227H85.2164L80.5888 23.2829H79.3488L74.7395 12.4227H74.6987V23.2829H72.8101V10.2947H75.8429ZM92.5708 20.0909L91.1718 23.2829H89.0017L95.0488 10.2947H96.8232L102.809 23.2829H100.602L99.185 20.0909H92.5668H92.5708ZM95.8789 12.404L93.2581 18.4949H98.4793L95.8789 12.404ZM112.913 11.4501L111.534 12.6971C111.232 12.3206 110.832 12.0186 110.372 11.8179C109.89 11.5959 109.357 11.4826 108.818 11.4875C108.108 11.4875 107.478 11.6704 106.925 12.0363C106.374 12.3909 106.099 12.9117 106.099 13.5968C106.099 13.9384 106.164 14.2315 106.295 14.4779C106.454 14.7366 106.685 14.9518 106.966 15.1013C107.28 15.2712 107.563 15.4056 107.812 15.5045C108.061 15.5904 108.442 15.7117 108.954 15.8723C109.466 16.0179 109.854 16.1411 110.117 16.2381C110.392 16.324 110.747 16.4771 111.179 16.6973C111.614 16.9176 111.942 17.1491 112.164 17.3936C112.401 17.6269 112.605 17.9387 112.776 18.3307C112.96 18.7227 113.052 19.1669 113.052 19.6691C113.052 20.9403 112.578 21.9203 111.632 22.6035C110.7 23.2755 109.564 23.6115 108.226 23.6115C107.321 23.6115 106.452 23.4547 105.626 23.1355C104.843 22.8273 104.158 22.3416 103.637 21.7243L105.153 20.5296C105.481 20.9832 105.921 21.3509 106.472 21.6309C107.037 21.9128 107.635 22.0528 108.267 22.0528C109.001 22.0528 109.65 21.8643 110.215 21.4853C110.78 21.0933 111.061 20.5427 111.061 19.8333C111.066 19.5482 110.999 19.2658 110.865 19.0083C110.755 18.7931 110.609 18.5952 110.431 18.4221C110.205 18.2353 109.946 18.0861 109.664 17.9816C109.382 17.8514 109.093 17.7349 108.797 17.6325C108.453 17.5187 108.104 17.4148 107.753 17.3208C107.299 17.1862 106.852 17.033 106.413 16.8616C106.018 16.6796 105.643 16.4646 105.291 16.2195C104.909 15.937 104.611 15.5711 104.424 15.1555C104.218 14.6832 104.118 14.178 104.129 13.6696C104.129 12.8501 104.373 12.1539 104.859 11.5789C105.344 10.9909 105.934 10.5765 106.631 10.332C107.362 10.0835 108.136 9.95892 108.915 9.96428C109.715 9.96428 110.472 10.0987 111.179 10.3675C111.901 10.6363 112.48 10.9984 112.913 11.4501ZM126.212 20.2739L127.769 21.2632C126.535 22.8312 124.762 23.6133 122.452 23.6133C120.31 23.6133 118.552 22.9712 117.173 21.6869C115.795 20.4027 115.105 18.7637 115.105 16.7701C115.105 14.7653 115.809 13.1301 117.212 11.872C118.619 10.6008 120.39 9.96428 122.531 9.96428C123.528 9.96428 124.487 10.1416 125.407 10.4963C126.325 10.8509 127.034 11.3456 127.534 11.9821L125.996 13.0835C125.624 12.6067 125.122 12.2271 124.54 11.9821C123.915 11.7019 123.227 11.5575 122.531 11.5603C120.955 11.5603 119.676 12.0624 118.691 13.0648C117.718 14.0672 117.232 15.3029 117.232 16.7701C117.232 18.2635 117.712 19.5104 118.67 20.5128C119.629 21.5021 120.895 21.9987 122.472 21.9987C124.114 21.9987 125.36 21.4237 126.212 20.2739ZM143.589 16.7701C143.589 18.7637 142.887 20.4027 141.482 21.6869C140.091 22.9712 138.325 23.6133 136.186 23.6133C134.058 23.6133 132.298 22.9712 130.907 21.6869C129.514 20.4027 128.819 18.7637 128.819 16.7701C128.819 14.7653 129.508 13.1301 130.887 11.872C132.278 10.6008 134.044 9.96428 136.186 9.96428C138.325 9.96428 140.091 10.5989 141.482 11.872C142.887 13.132 143.589 14.7653 143.589 16.7701ZM141.482 16.7701C141.482 15.3029 140.997 14.0672 140.026 13.0648C139.053 12.0624 137.774 11.5603 136.186 11.5603C134.621 11.5603 133.355 12.0624 132.384 13.0648C131.411 14.0672 130.926 15.3029 130.926 16.7701C130.926 18.2504 131.411 19.4917 132.384 20.4941C133.355 21.4835 134.621 21.98 136.186 21.98C137.774 21.98 139.053 21.4853 140.026 20.4941C140.997 19.4917 141.482 18.2504 141.482 16.7701ZM150.529 11.8907V23.2829H148.58V11.8907H144.109V10.2947H155V11.8907H150.529ZM84.6861 34.0741L83.3258 35.3957C82.408 34.4531 81.1476 33.9827 79.5445 33.9827C77.9558 33.9827 76.6689 34.4848 75.6858 35.4872C74.713 36.4896 74.2276 37.7253 74.2276 39.1925C74.2276 40.6859 74.713 41.9272 75.6858 42.9165C76.6689 43.9059 77.9762 44.4024 79.6037 44.4024C80.9171 44.4024 82.0001 44.1896 82.8547 43.7603V40.1464H79.7607V38.6064H84.784V44.8971C83.2748 45.6568 81.5269 46.0357 79.5445 46.0357C77.3664 46.0357 75.5798 45.4011 74.1888 44.128C72.7958 42.8437 72.1004 41.1973 72.1004 39.1925C72.1004 37.1877 72.802 35.5525 74.2072 34.2944C75.6144 33.0232 77.3847 32.3867 79.5262 32.3867C81.7187 32.3867 83.438 32.9485 84.6861 34.0741ZM90.1071 42.5133L88.7101 45.7053H86.5421L92.5892 32.7171H94.3636L100.35 45.7053H98.1428L96.7253 42.5133H90.1071ZM93.4172 34.8264L90.7965 40.9173H96.0176L93.4172 34.8264ZM105.173 32.7171L109.348 42.6963H109.389L113.504 32.7171H116.537V45.7053H114.587V34.8451H114.546L109.919 45.7053H108.679L104.07 34.8451H104.029V45.7053H102.14V32.7171H105.173ZM121.878 32.7171V45.7053H119.931V32.7171H121.878ZM127.817 32.7171L135.105 43.1013H135.145V32.7171H137.095V45.7053H134.631L127.267 35.1027H127.226V45.7053H125.276V32.7171H127.817ZM152.367 34.0741L151.009 35.3957C150.089 34.4531 148.828 33.9827 147.225 33.9827C145.639 33.9827 144.352 34.4848 143.367 35.4872C142.394 36.4896 141.908 37.7253 141.908 39.1925C141.908 40.6859 142.394 41.9272 143.367 42.9165C144.352 43.9059 145.657 44.4024 147.285 44.4024C148.598 44.4024 149.681 44.1896 150.535 43.7603V40.1464H147.444V38.6064H152.465V44.8971C150.956 45.6568 149.21 46.0357 147.225 46.0357C145.047 46.0357 143.261 45.4011 141.87 44.128C140.477 42.8437 139.781 41.1973 139.781 39.1925C139.781 37.1877 140.485 35.5525 141.89 34.2944C143.293 33.0232 145.066 32.3867 147.207 32.3867C149.399 32.3867 151.119 32.9485 152.367 34.0741Z" fill="white"/>
</svg>
