<svg fill="none" viewBox="0 0 150 56" id="providers--mascotgaming" xmlns="http://www.w3.org/2000/svg"><path d="M52.022 24.595c.002.717.11 1.43.322 2.114a7.956 7.956 0 011.834-2.114c.001-.996.3-1.968.86-2.786a4.816 4.816 0 012.266-1.79c.176.374.48.672.854.838.374.165.795.189 1.184.065.286-.089.543-.254.745-.477.202-.224.342-.498.405-.795.423-.14.776-.444.98-.846.205-.403.245-.871.112-1.304a1.713 1.713 0 00-.821-1.007 1.664 1.664 0 00-1.28-.127 1.608 1.608 0 00-1.653-.37c-.39.125-.724.388-.939.743a1.753 1.753 0 00-.23 1.186 6.96 6.96 0 00-3.362 2.584 7.157 7.157 0 00-1.276 4.086h-.001z" fill="#fff"></path><path d="M63.758 15.175h-24.6v9.42a7.955 7.955 0 00-1.835 2.114 7.342 7.342 0 01-.322-2.114V13h28.895v11.616c0 1.29-.348 2.557-1.006 3.66a6.987 6.987 0 01-2.724 2.6 6.835 6.835 0 01-7.18-.473c.08-.768.366-1.5.828-2.113a4.766 4.766 0 002.46 1.14 4.73 4.73 0 002.677-.392 4.83 4.83 0 002.044-1.802 4.953 4.953 0 00.763-2.64v-9.42z" fill="#fff"></path><path d="M52.022 30.793c0-1.29.348-2.557 1.005-3.66a6.987 6.987 0 012.725-2.6 6.835 6.835 0 017.179.472 4.234 4.234 0 01-.827 2.114 4.774 4.774 0 00-1.833-1.007 4.72 4.72 0 00-4.014.663c-.58.402-1.067.93-1.425 1.545a4.967 4.967 0 00-.398 4.119 4.9 4.9 0 001.103 1.798c.493.51 1.09.904 1.748 1.153.176-.374.48-.672.854-.837a1.673 1.673 0 011.184-.066c.286.089.543.254.745.477.202.224.342.498.404.795.428.136.786.44.994.844.208.404.25.876.116 1.311a1.713 1.713 0 01-.83 1.01c-.396.213-.86.255-1.288.119a1.607 1.607 0 01-1.654.37 1.703 1.703 0 01-.938-.743 1.754 1.754 0 01-.23-1.186 7.038 7.038 0 01-3.342-2.607 7.234 7.234 0 01-1.276-4.084h-.002zM50.893 30.794a7.234 7.234 0 00-.322-2.114 7.962 7.962 0 01-1.835 2.114c0 .996-.3 1.968-.859 2.786a4.816 4.816 0 01-2.266 1.79 1.713 1.713 0 00-.854-.837 1.672 1.672 0 00-1.185-.066 1.673 1.673 0 00-.745.477 1.717 1.717 0 00-.404.796 1.714 1.714 0 00-1.18 1.488 1.75 1.75 0 00.386 1.256 1.695 1.695 0 001.146.61c.221.021.444-.003.656-.07a1.606 1.606 0 001.653.37c.391-.126.725-.39.94-.744.214-.354.296-.776.23-1.187a6.982 6.982 0 003.358-2.586 7.178 7.178 0 001.28-4.084l.001.001zM50.893 24.595a7.156 7.156 0 00-1.276-4.086 6.96 6.96 0 00-3.362-2.584 1.73 1.73 0 00-.224-1.192 1.7 1.7 0 00-2.599-.369 1.664 1.664 0 00-1.28.128 1.713 1.713 0 00-.82 1.007c-.133.433-.093.901.112 1.304.204.402.556.706.98.846.077.35.26.668.522.908s.591.391.942.432c.35.04.705-.031 1.014-.205.308-.174.556-.442.708-.766.658.25 1.254.644 1.746 1.154.492.51.869 1.123 1.102 1.797a4.966 4.966 0 01-.398 4.117 4.852 4.852 0 01-1.425 1.545 4.718 4.718 0 01-4.012.664 4.775 4.775 0 01-1.832-1.006 3.897 3.897 0 00-.827 2.113 6.851 6.851 0 007.195.47 7.004 7.004 0 002.73-2.608 7.17 7.17 0 001.005-3.67h-.001z" fill="#fff"></path><path d="M37.02 30.793c0-1.29.348-2.557 1.005-3.66a6.987 6.987 0 012.725-2.6 6.834 6.834 0 017.179.473 4.234 4.234 0 01-.827 2.113 4.766 4.766 0 00-2.461-1.142 4.728 4.728 0 00-2.677.393 4.829 4.829 0 00-2.044 1.802 4.952 4.952 0 00-.764 2.641v9.42h24.601v-9.42a7.963 7.963 0 001.835-2.113c.21.684.318 1.396.322 2.113V43H37.02V30.793zM74.188 18.515l2.047 5.346h.02l2.017-5.346h1.488v6.958h-.956v-5.818h-.02l-2.269 5.818h-.608l-2.26-5.818h-.02v5.818h-.926v-6.958h1.487zM82.39 23.763l-.686 1.71H80.64l2.965-6.958h.87l2.935 6.958h-1.082l-.695-1.71h-3.245zm1.622-4.118l-1.285 3.263h2.56l-1.275-3.263zM92.364 19.134l-.676.668a1.515 1.515 0 00-.57-.471 1.658 1.658 0 00-.762-.177c-.348 0-.657.098-.928.294-.27.19-.405.469-.405.836 0 .183.032.34.096.472a.895.895 0 00.329.334c.154.091.293.163.415.216.122.046.309.111.56.197.251.078.441.144.57.196.135.046.309.128.521.246.213.118.374.242.483.373.116.125.216.292.3.502.09.21.135.448.135.717 0 .681-.232 1.206-.696 1.572-.457.36-1.014.54-1.67.54-.444 0-.87-.084-1.275-.255a2.46 2.46 0 01-.975-.756l.743-.64c.161.243.377.44.647.59.277.151.57.226.88.226.36 0 .678-.101.955-.304.277-.21.415-.505.415-.885a.99.99 0 00-.096-.442 1.201 1.201 0 00-.213-.314 1.271 1.271 0 00-.376-.236 4.403 4.403 0 00-.425-.187 8.629 8.629 0 00-.512-.167 7.79 7.79 0 01-.657-.246 3.525 3.525 0 01-.55-.344 1.435 1.435 0 01-.425-.57 2.039 2.039 0 01-.145-.796c0-.439.12-.812.358-1.12.238-.315.527-.537.869-.668a3.148 3.148 0 011.12-.197c.392 0 .763.072 1.11.216.354.144.638.338.85.58zM98.885 23.861l.763.53c-.605.84-1.474 1.259-2.607 1.259-1.05 0-1.912-.344-2.588-1.032-.676-.688-1.014-1.566-1.014-2.634 0-1.074.345-1.95 1.033-2.624.69-.681 1.558-1.022 2.608-1.022.489 0 .959.095 1.41.285.45.19.798.455 1.043.796l-.754.59a1.805 1.805 0 00-.714-.59 2.218 2.218 0 00-.985-.226c-.773 0-1.4.269-1.883.806-.477.537-.715 1.199-.715 1.985 0 .8.235 1.468.705 2.005.47.53 1.091.796 1.864.796.805 0 1.416-.308 1.834-.924zM107.405 21.984c0 1.068-.344 1.946-1.033 2.634-.682.688-1.548 1.032-2.597 1.032-1.043 0-1.906-.344-2.588-1.032-.683-.688-1.024-1.566-1.024-2.634 0-1.074.338-1.95 1.014-2.624.682-.681 1.548-1.022 2.598-1.022 1.049 0 1.915.34 2.597 1.022.689.675 1.033 1.55 1.033 2.624zm-1.033 0c0-.786-.238-1.448-.714-1.985-.477-.537-1.104-.806-1.883-.806-.767 0-1.388.269-1.864.806-.477.537-.715 1.199-.715 1.985 0 .793.238 1.458.715 1.995.476.53 1.097.796 1.864.796.779 0 1.406-.265 1.883-.796.476-.537.714-1.202.714-1.995zM110.808 19.37v6.103h-.956V19.37h-2.192v-.855H113v.855h-2.192zM78.524 31.254l-.667.708c-.45-.505-1.068-.757-1.854-.757-.779 0-1.41.269-1.892.806-.477.537-.715 1.199-.715 1.985 0 .8.238 1.465.715 1.995.482.53 1.123.796 1.921.796.644 0 1.175-.114 1.594-.344v-1.936h-1.517v-.825h2.463v3.37c-.74.407-1.597.61-2.569.61-1.068 0-1.944-.34-2.626-1.022-.683-.688-1.024-1.57-1.024-2.644s.344-1.95 1.033-2.624c.69-.681 1.558-1.022 2.608-1.022 1.075 0 1.918.301 2.53.904zM81.182 35.775l-.685 1.71h-1.063l2.965-6.958h.87l2.935 6.958h-1.082l-.695-1.71h-3.245zm1.623-4.118L81.52 34.92h2.56l-1.275-3.263zM88.569 30.527l2.047 5.346h.02l2.018-5.346h1.487v6.958h-.956v-5.818h-.02l-2.269 5.818h-.608l-2.26-5.818h-.02v5.818h-.926v-6.958h1.487zM96.76 30.527v6.958h-.955v-6.958h.956zM99.672 30.527l3.573 5.563h.02v-5.563h.956v6.958h-1.208l-3.611-5.68h-.02v5.68h-.956v-6.958h1.246zM111.709 31.254l-.666.708c-.451-.505-1.069-.757-1.855-.757-.778 0-1.409.269-1.892.806-.477.537-.715 1.199-.715 1.985 0 .8.238 1.465.715 1.995.483.53 1.123.796 1.921.796.644 0 1.175-.114 1.594-.344v-1.936h-1.516v-.825h2.462v3.37c-.74.407-1.596.61-2.569.61-1.068 0-1.944-.34-2.626-1.022-.683-.688-1.024-1.57-1.024-2.644s.345-1.95 1.034-2.624c.688-.681 1.557-1.022 2.607-1.022 1.075 0 1.918.301 2.53.904z" fill="#fff"></path></svg>