<svg fill="none" viewBox="0 0 150 56" id="providers--microgaming" xmlns="http://www.w3.org/2000/svg"><path d="M30.543 14C22.51 14 16 20.233 16 27.948c0 1.38.213 2.733.64 4.036.267-.358.534-.715.774-1.098a252.014 252.014 0 002.989-4.317l.72-1.099c.24-.358.48-.74.694-1.098.48-.741.934-1.482 1.361-2.223.213-.383.427-.74.667-1.124.24-.383.427-.74.64-1.124.214-.383.428-.766.614-1.124l.587-1.15.054-.076c.32-.613 1.094-.869 1.76-.588.481.256.775.741.748 1.278 0 .664-.133 1.354-.187 2.018-.053.664-.08 1.354-.133 2.043-.054 1.354-.08 2.734-.08 4.088s.08 2.707.213 4.01c.08.639.187 1.278.32 1.916.107.562.294 1.124.56 1.635.08.153.188.307.321.434.08.052.027.026.08.026h.053l.054-.026h.026l.08-.025c.027-.026.08-.051.107-.077.214-.153.4-.332.587-.536.427-.486.828-.97 1.174-1.507.374-.537.72-1.124 1.068-1.712a58.999 58.999 0 001.948-3.602c.293-.613.614-1.226.907-1.865a57.77 57.77 0 00.854-1.865c.267-.638 1.04-.945 1.708-.69.427.154.72.512.8.946 0 .153.027.357.054.562l.08.587c.053.384.106.767.186 1.15.134.766.294 1.533.507 2.274.214.74.48 1.481.8 2.197.321.715.721 1.379 1.228 1.992.107.153.08.358-.053.46-.133.102-.32.102-.427 0a10.936 10.936 0 01-1.761-1.89c-.507-.69-.934-1.431-1.334-2.172-.267-.51-.48-1.022-.72-1.533-.16.307-.294.613-.454.895-.64 1.251-1.281 2.503-2.028 3.755a22.81 22.81 0 01-1.175 1.89 16.01 16.01 0 01-1.414 1.814c-.293.332-.64.613-.987.894-.107.077-.213.153-.347.204l-.24.128-.134.051h-.026l-.08.026h-.054l-.106.025c-.08.026-.134.051-.214.051l-.48.077a2.84 2.84 0 01-1.04-.128 2.945 2.945 0 01-.881-.485 3.97 3.97 0 01-.988-1.2 8.58 8.58 0 01-.8-2.274 20.392 20.392 0 01-.347-2.172c-.16-1.43-.214-2.835-.24-4.266v-2.018c-.267.485-.534.97-.8 1.43-.214.384-.428.767-.668 1.15l-.667 1.15a117.446 117.446 0 01-2.828 4.547c-.614.97-1.255 1.941-1.895 2.886 4.403 6.438 13.422 8.226 20.146 4.011 6.725-4.215 8.593-12.85 4.19-19.287C40.016 16.376 35.453 14 30.543 14zM57.68 32.955v-9.248h-.24l-3.095 9.273h-.774l-3.095-9.273h-.24v9.248h-1.28V22.736h2.267l2.749 8.124 2.695-8.124h2.295V32.98H57.68v-.025zM60.83 24.065v-1.329h1.387v1.329h-1.388zm.026 8.89V25.06h1.36v7.894h-1.36zM70.463 30.375c0 1.533-.614 2.708-3.283 2.708-3.362 0-3.549-1.84-3.549-4.087 0-2.248.187-4.088 3.55-4.088 2.668 0 3.282 1.175 3.282 2.708h-1.281c0-1.252-.454-1.865-2.002-1.865-2.081 0-2.188 1.073-2.188 3.219s.107 3.219 2.188 3.219c1.548 0 2.002-.613 2.002-1.865l1.28.051zM73.104 25.904c.64-.383 1.468-.894 2.242-.92.16-.025.32-.025.48-.025.214 0 .4 0 .64.026l-.106.945c-.214-.026-.4-.026-.587-.026-.16 0-.32 0-.507.026-.72.025-1.495.536-2.055.843v6.207h-1.36v-7.919h1.067l.186.843zM84.098 29.02c0 2.249-.187 4.088-3.603 4.088-3.415 0-3.602-1.84-3.602-4.087 0-2.248.187-4.087 3.602-4.087 3.416 0 3.603 1.839 3.603 4.087zm-5.844 0c0 2.147.107 3.22 2.241 3.22 2.135 0 2.242-1.048 2.242-3.22 0-2.17-.107-3.218-2.242-3.218-2.134 0-2.241 1.047-2.241 3.219zM86.58 34.794a20.16 20.16 0 001.92.077c2.082 0 2.349-.537 2.376-2.631-.614.332-1.468.715-2.349.74-3.015.052-3.202-1.507-3.202-3.96 0-2.451.16-4.086 3.069-4.086.987 0 1.894.434 2.615.868l.133-.715h1.068v7c0 2.835-.667 3.703-3.39 3.703-.8 0-1.6-.076-2.374-.178l.133-.818zm4.296-8.277c-.588-.357-1.335-.715-2.055-.715-2.001 0-2.135 1.073-2.135 3.219 0 2.095.133 3.09 2.135 3.09.72 0 1.494-.382 2.055-.663v-4.93zM99.601 32.955l-.133-.715c-.667.408-1.548.868-2.509.868-3.015.051-3.202-1.584-3.202-4.087 0-2.504.16-4.087 3.15-4.087.986 0 1.867.434 2.534.817l.133-.69h1.068v7.894h-1.04zm-.267-6.489c-.56-.306-1.334-.664-2.054-.664-2.002 0-2.135 1.073-2.135 3.219s.133 3.219 2.135 3.219c.72 0 1.467-.384 2.054-.716v-5.058zM103.524 25.751c.614-.358 1.441-.792 2.322-.817 1.387-.052 2.108.306 2.454.868.641-.383 1.495-.843 2.429-.868 2.828-.077 3.015 1.302 3.015 3.218v4.803h-1.361v-4.726c0-1.635-.107-2.427-1.948-2.427-.667 0-1.361.383-1.921.715.133.562.187 1.15.16 1.738v4.725H107.5V28.23c0-1.635-.107-2.427-1.948-2.427-.64 0-1.334.383-1.868.664v6.489h-1.361V25.06h1.068l.133.69zM115.425 24.065v-1.329h1.388v1.329h-1.388zm.027 8.89V25.06h1.361v7.894h-1.361zM119.694 25.751c.668-.358 1.548-.792 2.509-.817 3.015-.077 3.202 1.302 3.202 3.218v4.803h-1.361v-4.726c0-1.635-.133-2.427-2.135-2.427-.72 0-1.494.383-2.054.69v6.489h-1.361v-7.92h1.067l.133.69zM128.047 34.794c.507.051 1.174.077 1.921.077 2.081 0 2.348-.537 2.375-2.631-.614.332-1.468.715-2.348.74-3.016.052-3.203-1.507-3.203-3.96 0-2.451.161-4.086 3.069-4.086.987 0 1.895.434 2.615.868l.134-.715h1.067v7c0 2.835-.667 3.703-3.389 3.703-.8 0-1.601-.076-2.375-.178l.134-.818zm4.269-8.277c-.587-.357-1.334-.715-2.055-.715-2.001 0-2.134 1.073-2.134 3.219 0 2.095.133 3.09 2.134 3.09.721 0 1.495-.382 2.055-.663v-4.93z" fill="#21E418"></path></svg>