<svg width="155" height="56" viewBox="0 0 155 56" fill="none" xmlns="http://www.w3.org/2000/svg">
<path d="M19.1555 0C8.57474 0 0 12.5548 0 28.0947C0 30.8743 0.280555 33.5996 0.842985 36.2242C1.19467 35.5031 1.54635 34.784 1.86247 34.0125C3.19452 31.135 4.50692 28.2364 5.79948 25.317L6.74783 23.1034C7.06395 22.3823 7.38007 21.6128 7.66195 20.8917C8.29419 19.3992 8.89218 17.9066 9.45461 16.4141C9.73516 15.6426 10.017 14.9235 10.3332 14.1501C10.6493 13.3786 10.8956 12.6595 11.1761 11.8861C11.458 11.1146 11.7399 10.3431 11.9849 9.62204L12.7581 7.30566L12.8292 7.15258C13.2507 5.91785 14.2702 5.4022 15.1474 5.9682C15.781 6.48385 16.1682 7.46076 16.1326 8.54241C16.1326 9.87987 15.9575 11.2697 15.8863 12.6072C15.8165 13.9446 15.781 15.3344 15.7111 16.7223C15.64 19.4495 15.6058 22.2292 15.6058 24.9565C15.6058 27.6838 15.7111 30.409 15.8863 33.0336C15.9917 34.3207 16.1326 35.6078 16.3078 36.8929C16.4488 38.0249 16.6951 39.1569 17.0454 40.1862C17.1508 40.4944 17.2931 40.8046 17.4682 41.0604C17.5736 41.1651 17.5038 41.1127 17.5736 41.1127H17.6434L17.7145 41.0604H17.7488L17.8542 41.01C17.8897 40.9576 17.9595 40.9073 17.9951 40.8549C18.277 40.5467 18.522 40.1862 18.7683 39.7753C19.3307 38.7964 19.8589 37.8215 20.3146 36.7398C20.8073 35.6582 21.263 34.4758 21.7214 33.2914C22.6313 30.9191 23.4871 28.4992 24.2872 26.0361C24.6731 24.8014 25.0959 23.5667 25.4819 22.2796C25.8713 21.0376 26.2463 19.7853 26.6067 18.523C26.9584 17.2379 27.9766 16.6195 28.8564 17.1332C29.4189 17.4434 29.8048 18.1645 29.9102 19.0386C29.9102 19.3468 29.9457 19.7577 29.9813 20.1706L30.0867 21.353C30.1565 22.1265 30.2263 22.8979 30.3317 23.6694C30.5082 25.2123 30.7189 26.7572 30.9995 28.2498C31.2813 29.7403 31.6317 31.2329 32.0532 32.6751C32.476 34.1153 33.0029 35.4527 33.6707 36.6874C33.8116 36.9956 33.7761 37.4085 33.6009 37.614C33.4257 37.8194 33.1794 37.8194 33.0384 37.614C32.1696 36.4896 31.391 35.2117 30.7189 33.8071C30.0511 32.4172 29.4887 30.9247 28.9618 29.4321C28.6101 28.4049 28.3296 27.3736 28.0135 26.3443C27.8027 26.9627 27.6262 27.579 27.4155 28.147C26.5725 30.6669 25.7282 33.1887 24.7443 35.7105C24.2692 37.0173 23.7527 38.2877 23.1966 39.5175C22.6339 40.8021 22.0114 42.0232 21.3341 43.1713C20.9482 43.84 20.4911 44.406 20.0341 44.972C19.8931 45.1271 19.7535 45.2802 19.577 45.3829L19.2609 45.6408L19.0844 45.7435H19.0502L18.9448 45.7959H18.8737L18.734 45.8462C18.6287 45.8986 18.5575 45.9489 18.4522 45.9489L17.8199 46.104C17.3568 46.1488 16.8923 46.0613 16.4501 45.8462C16.0295 45.6247 15.637 45.2943 15.2896 44.8693C14.7559 44.2026 14.3137 43.3812 13.9883 42.4522C13.4978 41.0089 13.1431 39.4668 12.9346 37.8718C12.7308 36.4271 12.5783 34.9667 12.4775 33.4969C12.2668 30.6165 12.1956 27.7865 12.1614 24.9041V20.8394C11.8097 21.8163 11.458 22.7932 11.1077 23.7197C10.8258 24.4932 10.5439 25.2647 10.2278 26.0361L9.34924 28.3525C8.15327 31.4483 6.9113 34.502 5.62429 37.5113C4.81556 39.4651 3.97125 41.4209 3.12827 43.3244C8.92774 56.2921 20.8073 59.8935 29.6639 51.4035C38.5218 42.9135 40.9823 25.5205 35.1828 12.5548C31.633 4.78584 25.6228 0 19.1555 0ZM54.8994 38.18V19.5523H54.5833L50.5067 38.2304H49.4872L45.4106 19.5523H45.0945V38.18H43.4085V17.5964H46.3945L50.0154 33.9602L53.5651 17.5964H56.588V38.2304H54.8994V38.18ZM59.0485 20.2734V17.5964H60.8754V20.2734H59.0472H59.0485ZM59.0827 38.18V22.2775H60.8741V38.178H59.0827V38.18ZM71.7367 32.9832C71.7367 36.0711 70.928 38.4378 67.4125 38.4378C62.9842 38.4378 62.7379 34.7316 62.7379 30.2056C62.7379 25.6776 62.9842 21.9714 67.4138 21.9714C70.928 21.9714 71.7367 24.3381 71.7367 27.4259H70.0495C70.0495 24.9041 69.4515 23.6694 67.4125 23.6694C64.6715 23.6694 64.5305 25.8307 64.5305 30.1532C64.5305 34.4758 64.6715 36.6371 67.4125 36.6371C69.4515 36.6371 70.0495 35.4024 70.0495 32.8805L71.7367 32.9832ZM75.2154 23.9776C76.0584 23.2061 77.149 22.1768 78.1685 22.1245C78.3792 22.0741 78.5899 22.0741 78.8007 22.0741C79.0826 22.0741 79.3276 22.0741 79.6437 22.1265L79.5041 24.0299C79.2222 23.9776 78.9772 23.9776 78.7309 23.9776C78.5201 23.9776 78.3094 23.9776 78.0631 24.0299C77.1147 24.0803 76.0939 25.1096 75.3563 25.7279V38.2304H73.565V22.2796H74.9704L75.2154 23.9776ZM89.6963 30.2539C89.6963 34.784 89.45 38.4882 84.9505 38.4882C80.4524 38.4882 80.2061 34.782 80.2061 30.256C80.2061 25.7279 80.4524 22.0237 84.9505 22.0237C89.45 22.0237 89.6963 25.7259 89.6963 30.2539ZM81.9988 30.2539C81.9988 34.5785 82.1397 36.7398 84.9505 36.7398C87.7627 36.7398 87.9036 34.6289 87.9036 30.2539C87.9036 25.883 87.7627 23.7721 84.9505 23.7721C82.1397 23.7721 81.9988 25.879 81.9988 30.2539ZM92.9655 41.8842C93.8064 41.9973 94.6503 42.0491 95.4944 42.0393C98.2368 42.0393 98.5885 40.9576 98.624 36.7398C97.8153 37.4085 96.6904 38.18 95.53 38.2304C91.5588 38.3351 91.3124 35.1949 91.3124 30.2539C91.3124 25.317 91.5232 22.0237 95.3548 22.0237C96.6549 22.0237 97.8495 22.8979 98.7992 23.7721L98.9744 22.3319H100.381V36.4316C100.381 42.142 99.5026 43.8904 95.9159 43.8904C94.8622 43.8904 93.8085 43.7373 92.789 43.5318L92.9655 41.8842ZM98.624 25.2123C97.8495 24.4932 96.8656 23.7721 95.9173 23.7721C93.2816 23.7721 93.1051 25.9334 93.1051 30.256C93.1051 34.4758 93.2803 36.48 95.9173 36.48C96.8656 36.48 97.8851 35.7105 98.624 35.1445V25.2123ZM110.116 38.18L109.941 36.7398C109.063 37.5616 107.902 38.4882 106.636 38.4882C102.665 38.5909 102.419 35.2976 102.419 30.256C102.419 25.2123 102.63 22.0237 106.568 22.0237C107.867 22.0237 109.027 22.8979 109.906 23.6694L110.081 22.2796H111.487V38.18H110.116ZM109.765 25.1096C109.027 24.4932 108.008 23.7721 107.059 23.7721C104.422 23.7721 104.247 25.9334 104.247 30.256C104.247 34.5785 104.422 36.7398 107.059 36.7398C108.008 36.7398 108.991 35.9663 109.765 35.2976V25.1096ZM115.284 23.6694C116.092 22.9483 117.182 22.0741 118.342 22.0237C120.169 21.919 121.119 22.6401 121.574 23.7721C122.419 23.0007 123.543 22.0741 124.774 22.0237C128.499 21.8686 128.745 24.6463 128.745 28.5056V38.18H126.952V28.6607C126.952 25.3674 126.811 23.7721 124.386 23.7721C123.508 23.7721 122.594 24.5436 121.856 25.2123C122.031 26.3443 122.102 27.5287 122.067 28.713V38.2304H120.521V28.6627C120.521 25.3694 120.38 23.7741 117.955 23.7741C117.112 23.7741 116.198 24.5456 115.494 25.1116V38.182H113.702V22.2775H115.108L115.284 23.6694ZM130.959 20.2734V17.5964H132.787V20.2734H130.959ZM130.995 38.18V22.2775H132.787V38.178H130.995V38.18ZM136.582 23.6694C137.462 22.9483 138.621 22.0741 139.887 22.0237C143.858 21.8686 144.104 24.6463 144.104 28.5056V38.18H142.312V28.6607C142.312 25.3674 142.137 23.7721 139.5 23.7721C138.551 23.7721 137.532 24.5436 136.794 25.1619V38.2324H135.001V22.2796H136.407L136.582 23.6694ZM147.584 41.8842C148.252 41.9869 149.131 42.0393 150.115 42.0393C152.856 42.0393 153.207 40.9576 153.243 36.7398C152.434 37.4085 151.309 38.18 150.15 38.2304C146.178 38.3351 145.931 35.1949 145.931 30.2539C145.931 25.317 146.143 22.0237 149.974 22.0237C151.274 22.0237 152.47 22.8979 153.418 23.7721L153.595 22.3319H155V36.4316C155 42.142 154.121 43.8904 150.536 43.8904C149.482 43.8904 148.427 43.7373 147.408 43.5318L147.584 41.8842ZM153.207 25.2123C152.434 24.4932 151.45 23.7721 150.501 23.7721C147.865 23.7721 147.69 25.9334 147.69 30.256C147.69 34.4758 147.865 36.48 150.501 36.48C151.45 36.48 152.47 35.7105 153.207 35.1445V25.2123Z" fill="#21E418"/>
</svg>
