<svg width="155" height="56" viewBox="0 0 155 56" fill="none" xmlns="http://www.w3.org/2000/svg">
<mask id="mask0_3_751" style="mask-type:luminance" maskUnits="userSpaceOnUse" x="0" y="0" width="155" height="56">
<path d="M0 0H155V56H0V0Z" fill="white"/>
</mask>
<g mask="url(#mask0_3_751)">
<path d="M85.715 17.3709V24.5887H98.8133V31.1733H85.715V38.7084H101.06V45.2122H81.0666V56H79.5166V0H81.0666V10.7878H101.06V17.3709H85.715Z" fill="#8DBB2B"/>
<path d="M25.73 10.7879V45.2124H19.685L13.33 35.0593L11.625 32.2826L6.665 24.0335V45.2124H0V10.7879H6.045L6.12328 10.8657L13.33 22.5262L18.9867 31.8859V10.7879H25.73ZM36.1917 17.371V24.5888H49.3667V31.1719H36.1917V38.7086H51.5367V45.2108H29.5283V10.7864H51.5383V17.371H36.1949H36.1917ZM76.415 10.7879V17.371H68.7433V45.2124H62V17.371H54.25V10.7879H76.415Z" fill="#727375"/>
<path d="M130.122 10.8672V45.2916H124.077L117.722 35.0592L116.093 32.3634L111.057 24.1127V45.2916H104.392V10.8672H110.437L110.515 10.945L117.722 22.607L123.457 31.9667V10.8672H130.122ZM155 10.8672V17.4503H147.328V45.2916H140.585V17.4503H132.913V10.8672H155Z" fill="#8DBB2B"/>
</g>
</svg>
