<svg fill="none" viewBox="0 0 150 56" id="providers--netent" xmlns="http://www.w3.org/2000/svg"><g clip-path="url(#hbclip0_1482_21359)"><path d="M79.747 21.167v4.64h8.366v4.233h-8.366v4.844h9.801v4.181h-12.77V46h-.99V10h.99v6.935h12.77v4.232h-9.8z" fill="#8DBB2B"></path><path d="M41.434 16.935v22.13h-3.861l-4.059-6.527-1.089-1.785-3.168-5.303v13.615H25v-22.13h3.861l.05.05 4.603 7.496 3.613 6.017V16.935h4.307zM48.116 21.167v4.64h8.415v4.232h-8.415v4.845h9.801v4.18H43.86v-22.13h14.058v4.233h-9.8zM73.807 16.935v4.232h-4.9v17.898H64.6V21.167h-4.95v-4.232h14.157z" fill="#727375"></path><path d="M108.11 16.986v22.13h-3.861l-4.059-6.578-1.04-1.733-3.217-5.304v13.615h-4.257v-22.13h3.861l.05.05 4.603 7.497 3.663 6.017V16.986h4.257zM124 16.986v4.232h-4.9v17.898h-4.307V21.218h-4.9v-4.232H124z" fill="#8DBB2B"></path></g></svg>