<svg fill="none" viewBox="0 0 150 56" id="providers--nolimitcity" xmlns="http://www.w3.org/2000/svg"><path d="M40.831 15.751c1.7-1.242 3.917-1.6 5.998-1.485 1.86.087 3.744.675 5.132 1.907a7.641 7.641 0 012.465 4.997c-1.1.004-2.2.002-3.298.002-.227-1.007-.648-2.052-1.544-2.674-1.58-1.14-3.763-1.228-5.597-.679-1.547.438-2.624 1.834-2.864 3.346-1.105.014-2.21.007-3.314.005.211-2.096 1.262-4.143 3.023-5.419zm17.32-1.52c1.094-.004 2.185-.004 3.276 0 .053 2.31.012 4.62.022 6.932-1.106.016-2.212.016-3.32 0 .012-2.311-.028-4.622.022-6.931zm14.512.026c1.061-.03 2.124-.057 3.182-.007.268.202.078.615.142.9-.011 2.008 0 4.016-.007 6.022-1.105-.002-2.211.005-3.314-.005a1349.01 1349.01 0 01-.003-6.91zm10.976 1.095c1.58-.99 3.577-1.302 5.419-.98 1.729.307 3.117 1.49 4.137 2.816 1.02-1.306 2.404-2.428 4.093-2.777 2.14-.436 4.579-.01 6.192 1.487 1.461 1.375 2.209 3.332 2.365 5.272-1.101.004-2.204.002-3.305.002-.168-1.15-.543-2.394-1.587-3.082-1.385-.856-3.317-.78-4.652.133-.959.684-1.362 1.845-1.502 2.947-1.096.002-2.195.007-3.293-.005-.183-1.156-.636-2.368-1.659-3.075-1.646-1.056-4.201-.693-5.3.95-.436.633-.621 1.384-.737 2.128-1.118.004-2.233.013-3.35-.01.225-2.226 1.221-4.505 3.179-5.806zm26.235-1.12c1.091-.005 2.183-.005 3.276 0 .05 2.309.01 4.62.022 6.93-1.108.02-2.216.008-3.322.01.012-2.313-.028-4.627.024-6.94zm7.046.025c3.666-.062 7.331-.014 10.999-.023.038 1.086.017 2.171.019 3.257-1.248.02-2.493-.003-3.739.016-.109 1.219-.033 2.444-.057 3.665-1.106 0-2.211.005-3.317-.005-.009-1.22.005-2.44-.009-3.66-1.303-.019-2.605.01-3.905-.019 0-1.076-.012-2.155.009-3.231zm-95.86.087c1.959-.004 3.916.005 5.876-.004 2.38-.11 4.852.9 6.315 2.74.926 1.159 1.234 2.649 1.293 4.08-1.117.021-2.234.01-3.352.01-.024-1.292-.614-2.68-1.884-3.252-1.537-.682-3.276-.35-4.908-.4-.038 1.219-.01 2.435-.02 3.654-1.107-.002-2.213.01-3.32-.011 0-2.273.002-4.545 0-6.817zm0 7.643c1.105-.02 2.21-.012 3.316-.007.01 2.828.002 5.657.005 8.487h-3.322v-8.48zm10.108.103c1.118.002 2.233-.004 3.348.007.014 2.825.002 5.648.007 8.473-1.125.092-2.252.06-3.378-.004.01-2.825-.036-5.65.023-8.476zm6.674-.105c1.106-.014 2.211-.017 3.32.002-.09 1.4.17 2.899 1.195 3.957 2.261 2.359 7.092 1.765 8.36-1.325.456-.814.335-1.758.385-2.644 1.118.003 2.235-.009 3.353.012.132 2.084-.373 4.255-1.728 5.917-1.373 1.742-3.663 2.607-5.879 2.687-2.33.152-4.842-.358-6.579-1.953-1.803-1.698-2.702-4.241-2.427-6.653zm20.288 8.597c.014-2.871-.029-5.74.02-8.611 1.1.009 2.2-.005 3.301.014.017 1.762-.029 3.527.017 5.287l.078.079c2.28.045 4.562.004 6.845.018 0 1.07-.003 2.141 0 3.21-3.417.102-6.845.097-10.262.003zm14.536-8.602c1.105-.005 2.211-.014 3.317.007 0 2.862-.003 5.722 0 8.581-1.106.087-2.216.09-3.322 0 .002-2.862-.007-5.726.005-8.588zm7.83 0c1.105-.005 2.21-.014 3.316.007v8.604a25.854 25.854 0 01-3.322.005c.005-2.871-.007-5.745.005-8.616zm10.981.002c1.12-.011 2.242-.009 3.362-.002.01 2.866 0 5.735.005 8.604-1.125.08-2.259.097-3.38-.011.009-2.862-.02-5.727.013-8.59zm11.073 8.582c-.121-2.853-.036-5.729-.04-8.589h3.293c.135 2.874.09 5.759.026 8.634-1.092.028-2.192.095-3.279-.045zm7.302.039c-.007-2.876-.002-5.752-.002-8.628h3.307c.034 2.87.005 5.738.015 8.607-1.104.087-2.214.076-3.32.02zm10.976-8.623c1.103-.007 2.208-.014 3.316.007 0 2.866-.002 5.733 0 8.6-1.105.075-2.218.094-3.321-.012.002-2.864-.005-5.73.005-8.595z" fill="#FFFC00"></path><path d="M44.644 36.666c.992-.874 2.546-.833 3.678-.24-.143.33-.283.66-.42.993-.705-.266-1.635-.645-2.261-.016-.688.845-.705 2.187-.04 3.05.704.62 1.705.248 2.502.046.003.356.003.714.005 1.07-.85.27-1.784.38-2.655.149-.982-.271-1.554-1.265-1.615-2.201-.095-.994.021-2.126.806-2.85zm18.883-.576h1.305v5.68h-1.305v-5.68zm16.43 0h4.448v1.033h-1.601c.004 1.544-.01 3.091.01 4.636-.44.007-.879.011-1.315.016v-4.652h-1.542a74.076 74.076 0 010-1.033zm18.78-.002c.48.002.961.002 1.443.002.389.741.776 1.485 1.151 2.235.417-.732.811-1.478 1.186-2.233.474-.002.951-.002 1.428-.006-.638 1.175-1.343 2.315-1.943 3.506-.095.721-.021 1.453-.038 2.178h-1.25c-.007-.704.033-1.409-.019-2.111-.605-1.214-1.315-2.378-1.957-3.571z" fill="#fff"></path></svg>