<svg width="155" height="56" viewBox="0 0 155 56" fill="none" xmlns="http://www.w3.org/2000/svg">
<path d="M28.673 3.09947C31.1383 0.581418 34.3534 -0.144399 37.3712 0.0887537C40.0686 0.265139 42.8007 1.45726 44.8136 3.95504C46.8748 6.58263 48.1513 10.2004 48.3883 14.0861C46.7931 14.0942 45.1979 14.0901 43.6056 14.0901C43.2764 12.0485 42.6659 9.92984 41.3665 8.66879C39.0752 6.35753 35.9094 6.17912 33.2498 7.29217C31.0064 8.18018 29.4445 11.0105 29.0965 14.0759C27.494 14.1043 25.8916 14.0901 24.2906 14.0861C24.5966 9.83658 26.1193 5.68646 28.673 3.09947ZM53.7902 0.0177944C55.3767 0.00968471 56.9589 0.00968471 58.541 0.0177944C58.6179 4.70113 58.5584 9.38447 58.5729 14.0719C56.969 14.1043 55.3651 14.1043 53.7583 14.0719C53.7757 9.38649 53.7177 4.70113 53.7902 0.0198226V0.0177944ZM74.8353 0.0705073C76.3739 0.00968476 77.9155 -0.0450555 79.4498 0.0563154C79.8384 0.465854 79.5629 1.30318 79.6557 1.88099C79.6397 5.95205 79.6557 10.0231 79.6455 14.0901C78.0431 14.0861 76.4392 14.1002 74.8396 14.08C74.8296 9.41016 74.8282 4.74033 74.8353 0.0705073ZM90.7525 2.29053C93.0438 0.283387 95.9398 -0.349169 98.611 0.30366C101.118 0.926077 103.131 3.32451 104.61 6.01287C106.09 3.36506 108.097 1.0903 110.546 0.38273C113.649 -0.501224 117.186 0.362455 119.526 3.3975C121.644 6.1852 122.729 10.1529 122.955 14.0861C121.359 14.0942 119.759 14.0901 118.162 14.0901C117.919 11.7586 117.375 9.23647 115.861 7.8416C113.852 6.10613 111.051 6.26021 109.115 8.11125C107.724 9.498 107.14 11.8518 106.937 14.0861C105.347 14.0901 103.753 14.1002 102.161 14.0759C101.896 11.7322 101.239 9.27499 99.7552 7.8416C97.3682 5.70065 93.663 6.4366 92.0693 9.76765C91.437 11.051 91.1687 12.5736 91.0005 14.082C89.3792 14.0901 87.7622 14.1084 86.1424 14.0617C86.4687 9.54869 87.913 4.9282 90.7525 2.29053ZM128.798 0.0198226C130.38 0.00968554 131.964 0.00968554 133.549 0.0198226C133.621 4.70113 133.563 9.3865 133.581 14.0698C131.974 14.1104 130.367 14.0861 128.763 14.0901C128.781 9.40069 128.723 4.70924 128.798 0.0198226ZM139.016 0.0705073C144.332 -0.0551926 149.647 0.0421239 154.967 0.0238772C155.022 2.22565 154.991 4.4254 154.994 6.62718C153.184 6.66773 151.379 6.6211 149.572 6.65962C149.414 9.13104 149.524 11.6146 149.489 14.0901C147.885 14.0901 146.283 14.1002 144.679 14.08C144.666 11.6065 144.686 9.13307 144.666 6.65962C142.776 6.6211 140.888 6.67989 139.003 6.6211C139.003 4.4396 138.986 2.25201 139.016 0.0705073ZM0.00144939 0.246893C2.84236 0.238783 5.68037 0.25703 8.52273 0.238783C11.9742 0.0157674 15.559 2.06346 17.6806 5.79391C19.0235 8.14369 19.4702 11.1645 19.5557 14.0658C17.9359 14.1084 16.316 14.0861 14.6947 14.0861C14.6599 11.4666 13.8043 8.65257 11.9626 7.49288C9.73363 6.11019 7.21176 6.78329 4.84506 6.68192C4.78996 9.15334 4.83056 11.6187 4.81606 14.0901C3.21071 14.0861 1.6068 14.1104 0.00144939 14.0678C0.00144939 9.45948 0.00434975 4.85319 0.00144939 0.246893ZM0.00144939 15.7425C1.6039 15.7019 3.20636 15.7181 4.81026 15.7283C4.82476 21.4618 4.81316 27.1974 4.81751 32.935H0L0.00144939 15.7425ZM14.6599 15.9513C16.2812 15.9553 17.8982 15.9432 19.5151 15.9655C19.5354 21.6929 19.518 27.4163 19.5253 33.1438C17.8938 33.3303 16.2595 33.2654 14.6266 33.1357C14.6411 27.4082 14.5743 21.6808 14.6599 15.9513ZM24.3384 15.7384C25.9423 15.71 27.5448 15.7039 29.153 15.7425C29.0225 18.5808 29.3996 21.6199 30.886 23.7649C34.1649 28.5476 41.1707 27.3433 43.0095 21.0786C43.6708 19.4283 43.4954 17.5144 43.5679 15.7181C45.1892 15.7242 46.809 15.6999 48.4303 15.7425C48.6218 19.9676 47.8894 24.3691 45.9244 27.7387C43.9333 31.2704 40.6124 33.0242 37.3988 33.1864C34.0199 33.4945 30.377 32.4605 27.858 29.2268C25.2433 25.7843 23.9396 20.6285 24.3384 15.7384ZM53.7598 33.1681C53.7801 27.3474 53.7177 21.5307 53.7888 15.71C55.384 15.7283 56.9792 15.6999 58.5758 15.7384C58.6005 19.3107 58.5338 22.8891 58.6005 26.4574L58.7136 26.6175C62.02 26.7088 65.3293 26.6256 68.6401 26.654C68.6401 28.8234 68.6357 30.9947 68.6401 33.162C63.6848 33.3688 58.715 33.3587 53.7598 33.1681ZM74.8396 15.7283C76.4421 15.7181 78.046 15.6999 79.6499 15.7425C79.6499 21.5449 79.6455 27.3433 79.6499 33.1397C78.046 33.3161 76.4363 33.3222 74.8324 33.1397C74.8353 27.3373 74.8222 21.5307 74.8396 15.7283ZM86.1946 15.7283C87.797 15.7181 89.3995 15.6999 91.0034 15.7425V33.1864C89.3994 33.3341 87.7902 33.3375 86.1859 33.1965C86.1931 27.3758 86.1772 21.549 86.1946 15.7283ZM102.119 15.7323C103.743 15.71 105.37 15.7141 106.995 15.7283C107.009 21.5388 106.995 27.3555 107.002 33.1722C105.37 33.3344 103.726 33.3688 102.1 33.1499C102.113 27.3474 102.071 21.5368 102.119 15.7323ZM118.177 33.1316C118.001 27.3474 118.125 21.5165 118.119 15.7181H122.894C123.09 21.5449 123.025 27.394 122.932 33.2229C121.348 33.2796 119.753 33.4155 118.177 33.1316ZM128.766 33.2107C128.756 27.3798 128.763 21.549 128.763 15.7181H133.559C133.608 21.5368 133.566 27.3515 133.581 33.1681C131.98 33.3445 130.37 33.3222 128.766 33.2087V33.2107ZM144.683 15.7283C146.283 15.7141 147.885 15.6999 149.492 15.7425C149.492 21.553 149.489 27.3656 149.492 33.1782C147.89 33.3303 146.276 33.3688 144.676 33.1539C144.679 27.3474 144.669 21.5368 144.683 15.7283Z" fill="#FFFC00"/>
<path d="M34.2026 45.5027C35.6412 43.7307 37.8948 43.8139 39.5364 45.0161C39.329 45.6852 39.126 46.3542 38.9273 47.0293C37.9049 46.4901 36.5563 45.7217 35.6484 46.9969C34.6507 48.7101 34.6261 51.4309 35.5904 53.1805C36.6114 54.4375 38.063 53.6833 39.2188 53.2738C39.2231 53.9956 39.2231 54.7214 39.226 55.4431C37.9934 55.9905 36.6389 56.2135 35.3758 55.7452C33.9517 55.1958 33.1222 53.1805 33.0338 51.2829C32.896 49.2676 33.0642 46.9706 34.2026 45.5027ZM61.5864 44.3349H63.4789V55.8506H61.5864V44.3349ZM85.4129 44.3349H91.8634V46.4292H89.5416C89.5474 49.5596 89.5271 52.696 89.5561 55.8283C88.918 55.8425 88.2814 55.8506 87.6491 55.8608V46.4292H85.4129C85.4095 45.7311 85.4095 45.033 85.4129 44.3349ZM112.647 44.3309C113.343 44.3349 114.041 44.3349 114.74 44.3349C115.304 45.8372 115.865 47.3456 116.409 48.8662C117.014 47.3821 117.585 45.8697 118.129 44.339C118.816 44.3349 119.508 44.3349 120.2 44.3268C119.275 46.709 118.252 49.0203 117.382 51.4349C117.244 52.8967 117.352 54.3808 117.327 55.8506H115.514C115.504 54.4233 115.562 52.994 115.487 51.5708C114.609 49.1095 113.578 46.7496 112.647 44.3309Z" fill="white"/>
</svg>
