<svg width="155" height="56" viewBox="0 0 155 56" fill="none" xmlns="http://www.w3.org/2000/svg">
<path d="M30.8464 16.2997C30.1873 16.2997 29.5296 16.6357 28.9236 17.248C28.291 17.8565 27.7338 18.7413 27.2283 19.8912C26.748 21.0411 26.343 22.4672 26.04 24.0912C25.7356 25.7152 25.5834 27.6117 25.5834 29.7808C25.5834 31.8789 25.737 33.8427 26.04 35.4704C26.343 37.0944 26.7228 38.5168 27.2283 39.6704C27.7087 40.8203 28.2896 41.7013 28.9236 42.3099C29.5561 42.9221 30.1873 43.2581 30.8464 43.2581C31.5027 43.2581 32.1604 42.9221 32.7678 42.3099C33.4004 41.7013 33.9576 40.8203 34.4631 39.6704C34.9434 38.5168 35.3484 37.0944 35.6528 35.4704C35.9558 33.8427 36.108 31.9461 36.108 29.7808C36.108 27.6789 35.9544 25.7861 35.6528 24.0912C35.3588 22.5032 34.9551 21.0782 34.4631 19.8912C33.9667 18.7275 33.3911 17.8301 32.7678 17.248C32.1532 16.6275 31.5034 16.3063 30.8464 16.2997ZM30.8464 50.9824C29.7024 50.9876 28.563 50.5999 27.4559 49.8288C26.4316 49.0678 25.4764 47.7541 24.6492 45.9685C23.8644 44.2064 23.2318 41.9067 22.7501 39.2635C22.2963 36.5531 22.0673 33.4395 22.0673 29.848C22.0673 26.2565 22.2963 23.072 22.7515 20.3653C23.1767 17.7603 23.8265 15.4613 24.6478 13.6565C25.4664 11.8414 26.4127 10.4832 27.4308 9.66186C28.5286 8.75731 29.6711 8.30044 30.8199 8.30667C32.0096 8.30667 33.1477 8.7808 34.2103 9.66186C35.2716 10.5429 36.2086 11.8981 36.9933 13.6565C37.8017 15.4942 38.4491 17.7845 38.8896 20.3653C39.3449 23.0757 39.5739 26.2565 39.5739 29.848C39.5739 33.4357 39.3449 36.6203 38.8896 39.2635C38.4644 41.8673 37.8145 44.165 36.9933 45.9685C36.2086 47.7307 35.273 49.0187 34.1852 49.8288C33.1728 50.5755 32.0361 50.9824 30.8464 50.9824ZM64.7677 16.2997C64.1114 16.2997 63.4522 16.6357 62.8448 17.248C62.2136 17.8565 61.6579 18.7413 61.151 19.8912C60.6706 21.0411 60.2657 22.4672 59.9613 24.0912C59.6582 25.7152 59.506 27.6117 59.506 29.7808C59.506 31.9461 59.6582 33.8427 59.9613 35.4704C60.2657 37.0944 60.6455 38.5168 61.151 39.6704C61.6314 40.8203 62.2122 41.7013 62.8448 42.3099C63.4774 42.9221 64.1351 43.2581 64.7677 43.2581C65.4254 43.2581 66.0831 42.9221 66.6905 42.3099C67.3231 41.7013 67.8802 40.8203 68.3857 39.6704C68.8661 38.5168 69.271 37.0944 69.5741 35.4704C69.8785 33.8427 70.0293 31.9461 70.0293 29.7808C70.0293 27.6155 69.8785 25.7861 69.5741 24.0912C69.2804 22.5035 68.8773 21.0785 68.3857 19.8912C67.8893 18.7275 67.3138 17.8302 66.6905 17.248C66.0759 16.6275 65.4246 16.3063 64.7677 16.2997ZM64.7677 50.9824C63.6242 50.9872 62.4852 50.5995 61.3786 49.8288C60.3538 49.0683 59.3981 47.7545 58.5705 45.9685C57.7857 44.2064 57.1545 41.9067 56.6727 39.2635C56.2175 36.5531 55.9648 33.4395 55.9648 29.848C55.9648 26.2565 56.1924 23.072 56.6727 20.3653C57.0982 17.7597 57.7485 15.4606 58.5705 13.6565C59.389 11.8414 60.3353 10.4832 61.3535 9.66186C62.4513 8.75731 63.5938 8.30044 64.7425 8.30667C65.9323 8.30667 67.0703 8.7808 68.133 9.66186C69.1942 10.5429 70.1298 11.8981 70.9146 13.6565C71.7235 15.4936 72.3714 17.784 72.8123 20.3653C73.2675 23.0757 73.4965 26.2565 73.4965 29.848C73.4965 33.4357 73.2675 36.6203 72.8123 39.2635C72.3867 41.8678 71.7363 44.1655 70.9146 45.9685C70.1312 47.7307 69.1942 49.0187 68.1078 49.8288C67.1206 50.5755 65.9825 50.9824 64.7677 50.9824ZM16.2136 56L3.77167 16.1093V56H0V0H3.94622L15.9119 38.3563V0H19.6822V56H16.2136ZM49.667 49.4107H46.285L39.3644 9.88213H43.2129L47.9886 37.3856L52.7405 9.88213H56.5876L49.667 49.4107ZM115.834 49.4107V17.4347H110.715V9.88587H124.246V17.4347H119.128V49.4144L115.834 49.4107ZM130.397 9.88213H126.706V49.4107H130.397V9.88213ZM105.474 32.2709L103.308 19.5403L101.144 32.2709H105.474ZM108.404 49.4107L106.773 39.816H99.894L98.263 49.4107H94.7232L101.677 9.88213H104.989L111.944 49.4107H108.404ZM145.262 55.9963C143.769 55.9963 142.301 55.4512 140.91 54.3685C139.563 53.3298 138.307 51.5792 137.217 49.2203C136.138 46.881 135.273 43.9167 134.687 40.5515C134.054 37.1653 133.751 33.0325 133.751 28.4256C133.751 23.8859 134.054 19.8203 134.687 16.3669C135.273 12.9819 136.138 9.9953 137.217 7.63094C138.31 5.25399 139.564 3.45948 140.91 2.34453C142.319 1.1736 143.786 0.580723 145.262 0.586132C148.321 0.586132 151.154 3.2928 153.002 5.39467C153.204 5.66347 154.443 7.08587 154.443 7.08587L152.521 15.6912L152.242 15.2171C150.346 12.1669 148.195 10.2032 146.222 9.59467C145.904 9.48481 145.583 9.43864 145.262 9.45654H145.007C144.105 9.5157 143.21 9.92697 142.351 10.6773C141.466 11.4465 140.648 12.6915 139.948 14.336C139.257 15.9555 138.697 17.9379 138.305 20.16C137.9 22.4635 137.697 25.1067 137.697 28.0859C137.697 31.0688 137.9 33.7083 138.305 36.0117C138.71 38.3152 139.265 40.2789 139.948 41.8357C140.66 43.432 141.475 44.6715 142.351 45.4944C143.291 46.3163 144.273 46.7285 145.262 46.7152C148.524 46.7152 151.256 42.7205 152.977 39.3307L153.28 38.7893L155 46.7152L154.747 47.1893C152.597 50.848 149.308 55.384 145.893 55.9253C145.665 55.9253 145.463 55.9963 145.262 55.9963ZM89.0203 9.88213L84.2655 33.2827L79.4871 9.88213H76.2712V49.2837H79.1813V24.8005L84.2669 49.4107L89.354 24.8005V49.2837H92.2641V9.88213H89.0203Z" fill="white"/>
</svg>
