<svg fill="none" viewBox="0 0 150 56" id="providers--novomatic" xmlns="http://www.w3.org/2000/svg"><path d="M41.09 24.366c-.472 0-.943.09-1.377.254-.453.163-.852.4-1.214.708-.344.308-.634.69-.851 1.125-.218.435-.327.943-.327 1.524 0 .562.11 1.088.327 1.524.217.435.489.816.851 1.125.344.308.76.544 1.214.707.453.164.905.254 1.377.254.47 0 .941-.09 1.376-.254.453-.163.852-.399 1.214-.707.344-.309.634-.69.852-1.125.217-.436.326-.944.326-1.524 0-.563-.11-1.07-.326-1.524a3.765 3.765 0 00-.852-1.125 3.684 3.684 0 00-1.214-.708 3.94 3.94 0 00-1.377-.254zm0 9.29a9.565 9.565 0 01-2.428-.309 5.576 5.576 0 01-2.01-1.034c-.562-.472-1.015-1.088-1.36-1.796-.325-.726-.489-1.56-.489-2.522 0-.962.164-1.815.49-2.54a4.823 4.823 0 011.358-1.797 5.702 5.702 0 011.993-1.07 8.184 8.184 0 012.427-.363c.852 0 1.667.127 2.428.363.76.236 1.431.599 1.993 1.07a5.184 5.184 0 011.358 1.797c.326.726.49 1.578.49 2.54 0 .961-.164 1.814-.49 2.522a4.821 4.821 0 01-1.358 1.796c-.562.472-1.232.817-2.011 1.034-.725.2-1.54.309-2.392.309zM65.382 24.366c-.47 0-.942.09-1.377.254-.452.163-.85.4-1.213.708-.344.308-.634.69-.852 1.125-.217.435-.326.943-.326 1.524 0 .58.109 1.088.326 1.524.218.435.49.816.852 1.125.344.308.76.544 1.213.707.453.164.924.254 1.377.254.471 0 .942-.09 1.377-.254.453-.163.852-.399 1.214-.707.344-.309.634-.69.851-1.125.218-.436.326-.944.326-1.524 0-.58-.108-1.07-.326-1.524a3.765 3.765 0 00-.851-1.125 3.685 3.685 0 00-1.214-.708 3.94 3.94 0 00-1.377-.254zm0 9.29a9.567 9.567 0 01-2.427-.309 5.576 5.576 0 01-2.011-1.034c-.562-.472-1.014-1.088-1.359-1.796-.326-.726-.507-1.56-.507-2.522 0-.962.163-1.815.507-2.54a4.82 4.82 0 011.359-1.797 5.702 5.702 0 011.993-1.07 8.184 8.184 0 012.427-.363c.852 0 1.667.127 2.428.363.76.236 1.43.599 1.992 1.07a5.182 5.182 0 011.359 1.797c.326.726.49 1.578.49 2.54 0 .961-.164 1.814-.49 2.522a4.82 4.82 0 01-1.359 1.796c-.561.472-1.232.817-2.01 1.034-.707.2-1.522.309-2.392.309zM30.611 35l-8.91-10.685V35H19V20h2.826l8.569 10.274V20h2.7v15h-2.484zM54.568 33.235h-2.422L47.19 22.647h2.756l3.42 7.367 3.403-7.367h2.755l-4.956 10.588zM101.952 33.235V24.67h-3.666v-2.022h9.69v2.022h-3.665v8.566h-2.359zM112.381 22.647h-2.643v10.588h2.643V22.647zM94.533 28.644l-1.551-3.41-1.55 3.41h3.1zm2.098 4.591l-1.168-2.57h-4.926l-1.168 2.57h-2.535l4.98-10.588h2.372l4.98 10.588h-2.535zM123.026 34.999c-1.069 0-2.12-.146-3.116-.436a7.512 7.512 0 01-2.645-1.379 6.557 6.557 0 01-1.812-2.322c-.453-.907-.67-2.014-.67-3.248 0-1.216.217-2.305.67-3.23a6.622 6.622 0 011.812-2.34 7.897 7.897 0 012.645-1.416 10.448 10.448 0 013.116-.471c2.191 0 4.22.725 5.543 1.288.145.072 1.032.453 1.032.453l-1.376 2.305-.2-.127c-1.358-.817-2.898-1.343-4.311-1.506a4.624 4.624 0 00-.688-.037h-.182a6.644 6.644 0 00-1.902.327 4.896 4.896 0 00-1.721.98 4.8 4.8 0 00-1.177 1.56c-.29.617-.435 1.325-.435 2.123 0 .799.145 1.506.435 2.123.29.617.688 1.143 1.177 1.56a5.529 5.529 0 001.721.98 6.593 6.593 0 002.084.327c2.336 0 4.293-1.07 5.525-1.978l.217-.145L130 32.513l-.181.127c-1.54.98-3.895 2.195-6.341 2.34-.163 0-.308.019-.452.019zM82.75 22.647l-3.405 6.268-3.422-6.268H73.62v10.554h2.084v-6.558l3.642 6.592 3.643-6.592v6.558h2.084V22.647H82.75z" fill="#fff"></path></svg>