<svg fill="none" viewBox="0 0 150 56" id="providers--threeoaksgaming" xmlns="http://www.w3.org/2000/svg"><g clip-path="url(#icclip0_7699_42299)"><path fill-rule="evenodd" clip-rule="evenodd" d="M50.205 17h6.592c-.27.23-.488.521-.611.934-.907.043-1.82.174-2.727.404-1.016.258-1.9.883-1.9 1.958 0 .347.09.676.246.962l-.01-.225.137-.07c.123-.066.256-.123.383-.179.329-.14.67-.258 1.012-.357 2.006-.582 4.96-.582 6.966 0 .342.099.684.22 1.012.357.128.052.26.113.383.178l.137.07-.01.226a2.02 2.02 0 00.247-.962c0-1.075-.884-1.71-1.901-1.958a14.33 14.33 0 00-2.9-.408c.201-.263.511-.432.821-.597.196-.108.392-.21.57-.333h4.764c.647 0 1.176.545 1.176 1.211v19.573c0 .667-.529 1.211-1.176 1.211H50.205c-.648 0-1.177-.544-1.177-1.21V18.21c-.004-.666.525-1.211 1.177-1.211zm7.59 9.53c1.673-.98 2.439-2.112 2.535-3.985-.68 2.29-1.673 3.399-2.535 3.985zm-5.644-2.93c.237 3.287 3.684 3.564 4.66 5.423.975-1.859 4.421-2.14 4.658-5.422l.11-2.423c-2.357-1.262-7.176-1.262-9.533 0l.105 2.423zM32.188 17H45.4c.647 0 1.176.545 1.176 1.211v19.573c0 .667-.53 1.211-1.176 1.211H32.188c-.647 0-1.176-.544-1.176-1.21V18.21c0-.666.529-1.211 1.176-1.211zm7.663 15.056c1.674-.98 2.44-2.112 2.535-3.986-.68 2.291-1.673 3.4-2.535 3.986zm-5.712-2.75c.237 3.286 3.684 3.567 4.66 5.422.975-1.86 4.421-2.141 4.658-5.423l.11-2.422c-2.357-1.263-7.176-1.263-9.533 0l.105 2.422zm4.035-5.668c-.907.043-1.82.174-2.726.404-1.017.258-1.901.883-1.901 1.958 0 .347.09.676.246.962l-.01-.225.137-.07c.123-.066.256-.122.383-.179.329-.14.67-.258 1.012-.357 2.006-.582 4.96-.582 6.966 0 .342.099.684.221 1.012.357.128.052.26.113.383.179l.137.07-.01.225A2.02 2.02 0 0044.05 26c0-1.075-.884-1.709-1.9-1.958a14.332 14.332 0 00-2.9-.408c.2-.263.51-.432.82-.596.684-.371 1.35-.733 1.432-1.77-1.268.164-.63.103-1.879.896-.601.329-1.217.662-1.45 1.474zM14.176 17h1.901l.046 1.028c.237 3.287 3.683 3.564 4.659 5.423.976-1.86 4.422-2.141 4.659-5.423L25.487 17h1.9c.648 0 1.177.545 1.177 1.211v19.573c0 .667-.529 1.211-1.176 1.211H25.49l.06-1.3c-2.357-1.263-7.176-1.263-9.533 0l.06 1.3h-1.902C13.53 39 13 38.451 13 37.785V18.21c0-.666.529-1.211 1.176-1.211zm10.216 0c-.67 1.958-1.577 2.948-2.375 3.488 1.518-.892 2.289-1.91 2.49-3.488h-.115zm-4.23 17.455c-.907.043-1.82.174-2.726.404-1.017.258-1.901.883-1.901 1.958 0 .347.09.676.246.962l-.01-.225.137-.07c.124-.066.256-.123.383-.179.329-.14.67-.258 1.012-.357 2.006-.582 4.96-.582 6.966 0 .342.099.684.221 1.013.357.127.052.26.113.382.179l.137.07-.009.225a2.02 2.02 0 00.246-.962c0-1.075-.884-1.709-1.9-1.958a14.331 14.331 0 00-2.9-.408c.2-.263.51-.432.82-.596.684-.371 1.35-.733 1.432-1.77-1.267.164-.63.103-1.878.896-.602.324-1.218.657-1.45 1.474z" fill="#F8A400"></path><path fill-rule="evenodd" clip-rule="evenodd" d="M77.352 29.653c2.65 0 4.276-1.695 4.276-4v-.033c0-2.273-1.577-3.146-3.19-3.427l3.004-2.954v-2.028h-8.028v2.306h4.668l-2.836 2.934.406 1.713h1.085c1.459 0 2.325.56 2.325 1.554v.033c0 .911-.697 1.484-1.682 1.484-1.204 0-2.052-.526-2.868-1.47l-1.791 1.775c1.016 1.24 2.493 2.113 4.631 2.113zM94.9 29.653c3.664 0 6.327-2.85 6.327-6.329v-.033c0-3.479-2.63-6.291-6.296-6.291-3.665 0-6.328 2.85-6.328 6.324v.033c0 3.483 2.631 6.296 6.296 6.296zm.031-2.484c-2.106 0-3.597-1.747-3.597-3.845v-.033c0-2.099 1.459-3.807 3.565-3.807 2.107 0 3.597 1.746 3.597 3.845v.032c0 2.1-1.459 3.808-3.565 3.808zM101.77 29.441h2.662l1.085-2.741h5.024l1.085 2.741h2.73l-5.083-12.319h-2.411l-5.092 12.32zm4.686-5.117l1.577-3.967 1.578 3.967h-3.155zM116.194 29.441h2.616v-3.737l1.373-1.47 3.683 5.207h3.137l-5.056-7.042 4.837-5.188h-3.155l-4.819 5.348V17.21h-2.616v12.23zM132.637 29.62c2.562 0 4.363-1.362 4.363-3.794v-.032c0-2.132-1.359-3.024-3.766-3.672-2.051-.54-2.562-.803-2.562-1.605v-.038c0-.596.525-1.066 1.528-1.066 1.003 0 2.037.456 3.086 1.207l1.358-2.028c-1.203-.996-2.68-1.554-4.412-1.554-2.426 0-4.158 1.47-4.158 3.685v.033c0 2.427 1.545 3.113 3.939 3.742 1.987.525 2.393.873 2.393 1.554v.033c0 .718-.643 1.154-1.714 1.154-1.359 0-2.476-.577-3.547-1.483l-1.545 1.906a7.43 7.43 0 005.037 1.958zM75.328 39c.908 0 1.61-.366 2.12-.812v-2.216h-2.156v.971h1.098v.728c-.278.207-.628.305-1.025.305-.88 0-1.5-.685-1.5-1.62v-.013c0-.869.63-1.592 1.422-1.592.575 0 .917.188 1.295.517l.688-.855c-.515-.45-1.057-.7-1.946-.7-1.5 0-2.599 1.188-2.599 2.644v.014C72.721 37.882 73.783 39 75.328 39zM84.874 38.91h1.113l.451-1.145h2.097l.452 1.146h1.14l-2.125-5.146h-1.007l-2.12 5.146zm1.957-2.135l.66-1.658.661 1.658H86.83zM97.707 38.91h1.067v-3.314l1.382 2.165h.031l1.396-2.184v3.334h1.084v-5.108h-1.175l-1.305 2.16-1.303-2.16h-1.177v5.108z" fill="#fff"></path><path d="M111.803 33.803h-1.089v5.108h1.089v-5.108z" fill="#fff"></path><path fill-rule="evenodd" clip-rule="evenodd" d="M119.85 38.91h1.08v-3.248l2.403 3.249h.925v-5.108h-1.076v3.145l-2.325-3.145h-1.007v5.108zM134.643 39c.907 0 1.61-.366 2.12-.812v-2.216h-2.156v.971h1.099v.728c-.278.207-.63.305-1.026.305-.88 0-1.505-.685-1.505-1.62v-.013c0-.869.63-1.592 1.423-1.592.574 0 .916.188 1.294.517l.689-.855c-.515-.45-1.058-.7-1.947-.7-1.499 0-2.598 1.188-2.598 2.644v.014c0 1.511 1.066 2.629 2.607 2.629z" fill="#fff"></path></g></svg>