<svg width="155" height="56" viewBox="0 0 155 56" fill="none" xmlns="http://www.w3.org/2000/svg">
<path d="M76.1352 20.4702C75.2423 19.2297 73.9117 18.6102 72.1433 18.6102C68.1707 18.6102 65.2905 21.9007 65.2905 26.4096C65.2905 30.6395 67.9746 33.61 71.7511 33.61C73.3654 33.61 74.8273 33.0111 75.6993 31.9433V32.5422C75.6993 35.7472 73.3426 36.216 71.9455 36.216C70.2226 36.216 68.6084 35.6616 67.6909 35.1483L67.5158 35.0627L66.5354 38.781L66.6229 38.8238C67.9308 39.5288 69.939 39.936 72.012 39.936C74.6312 39.936 76.7253 39.3149 78.1224 38.1188C79.6929 36.7721 80.4791 34.6572 80.4791 31.495V23.439C80.4791 21.3036 80.5001 20.0852 80.5666 19.1013L80.5438 18.9302H76.2665L76.1352 20.4702ZM73.059 29.9995C71.3572 29.9995 70.1999 28.504 70.1999 26.2812C70.1999 23.9096 71.3554 22.3063 73.08 22.3063C74.2373 22.3063 75.1548 22.9907 75.5032 24.1885C75.568 24.4452 75.6555 24.7224 75.6555 24.9773V27.1145C75.6555 27.6056 75.5242 28.0112 75.4384 28.2901C75.1547 29.3168 74.1498 29.9995 73.059 29.9995ZM94.2266 30.0851V25.0201C94.2266 20.8107 91.891 18.5897 87.5699 18.5897C84.4062 18.5897 82.2894 19.5941 81.7222 19.9141L81.6136 19.9774L82.5293 23.1601L82.6834 23.0557C83.5553 22.5202 85.2133 21.9863 86.7628 21.9863C88.8813 21.9863 89.3821 22.9479 89.3821 23.7385V23.7813C83.7094 23.824 80.6104 25.8329 80.6104 29.4656C80.6104 31.6867 82.2912 34.0583 85.497 34.0583C87.2425 34.0583 88.7062 33.5244 89.7095 32.4344L89.9493 33.8666H94.4017V33.6322C94.2704 32.9255 94.2266 31.6439 94.2266 30.0851ZM87.0902 30.5984C86.0432 30.5984 85.4094 29.9995 85.4094 29.0156C85.4094 27.6279 86.8066 26.9006 89.4258 26.8801V28.3106C89.4258 28.5673 89.4031 28.824 89.3383 29.0378C89.0337 29.9345 88.0952 30.5984 87.0902 30.5984ZM118.012 25.0424V33.8444H113.211V25.6823C113.211 23.5674 112.535 22.4996 111.182 22.4996C109.872 22.4996 109.349 23.5263 109.174 23.9729C109.086 24.2946 109.065 24.7224 109.065 25.0851V33.8239H104.264V25.4051C104.264 24.3151 104.002 22.4996 102.256 22.4996C101.188 22.4996 100.51 23.2902 100.25 24.0157C100.097 24.3802 100.118 24.8062 100.118 25.1279V33.8444H95.3174V23.6974C95.3174 21.9435 95.2299 20.4052 95.1651 19.0603L95.1213 18.8892H99.3111L99.4862 20.7252C100.25 19.7002 101.603 18.5897 103.937 18.5897C105.814 18.5897 107.34 19.4863 108.062 20.9819C108.629 20.2563 109.261 19.7002 109.939 19.3152C110.824 18.8292 111.824 18.5791 112.84 18.5897C116.047 18.5897 118.012 21.0041 118.012 25.0424ZM119.103 18.8874H123.903V33.8444H119.103V18.8874ZM124.057 15.0425C124.057 16.4525 122.988 17.4347 121.438 17.4347C119.976 17.4347 118.906 16.4303 118.906 15.0425C118.906 13.6531 119.997 12.6487 121.503 12.6487C122.988 12.6487 124.035 13.6103 124.057 15.0425ZM139.398 24.9996V33.8461H134.597V25.5335C134.597 23.5468 133.832 22.5219 132.37 22.5219C130.931 22.5219 130.297 23.6324 130.101 24.1235C130.014 24.3579 129.993 24.7001 129.993 25.1912V33.8239H124.973V23.6957C124.973 21.9435 124.929 20.4052 124.886 19.0586L124.908 18.8874H129.186L129.382 20.7902C129.905 20.0852 131.302 18.6102 133.943 18.6102C137.346 18.6102 139.398 21.0041 139.398 24.9996ZM150.658 18.8874L150.527 20.4702C149.632 19.2297 148.301 18.6102 146.533 18.6102C142.562 18.6102 139.682 21.9007 139.682 26.4096C139.682 30.6395 142.366 33.61 146.141 33.61C147.755 33.61 149.24 33.0111 150.112 31.9433V32.5422C150.112 35.7472 147.734 36.216 146.358 36.216C144.635 36.216 143.021 35.6616 142.103 35.1483L141.928 35.0627L140.946 38.781L141.034 38.8238C142.343 39.5288 144.351 39.936 146.424 39.936C149.042 39.936 151.138 39.3149 152.556 38.1188C154.128 36.7721 154.912 34.6572 154.912 31.495V23.439C154.912 21.3036 154.935 20.0852 155 19.1013L154.979 18.9302H150.658V18.8874ZM147.471 29.9995C145.77 29.9995 144.612 28.504 144.612 26.2812C144.612 23.9096 145.77 22.3063 147.494 22.3063C148.65 22.3063 149.48 22.9907 149.807 24.1885C149.872 24.4452 149.872 24.7224 149.872 24.9773V27.1145C149.872 27.6056 149.851 28.0112 149.763 28.2901C149.457 29.3168 148.562 29.9995 147.471 29.9995Z" fill="white"/>
<path d="M17.4699 39.7614L25.9789 28.3277L17.3193 16.384H22.9675L28.9921 24.2501L34.9415 16.3122H36.5225L45.408 4.73297C40.5988 1.64673 34.9713 0.00161656 29.218 0C13.1033 0.0752895 0 12.6007 0 28.0368C0 36.9945 4.44363 45.0043 11.3717 50.1018L18.7515 39.6878L17.4699 39.7614ZM15.5877 37.8672H9.78894C9.71365 37.8672 9.71365 37.7953 9.71365 37.7953V20.7542C9.71365 19.3717 9.1884 18.9336 6.32578 18.9336C6.25049 18.9336 6.25049 18.8617 6.25049 18.8617V16.8939C6.25049 16.8221 6.32578 16.8221 6.32578 16.8221H11.2211C14.5337 16.8221 15.7383 18.2782 15.7383 21.1906V37.7953C15.7383 37.7953 15.663 37.8672 15.5877 37.8672Z" fill="#008C47"/>
<path d="M47.5177 6.26245L39.8368 16.3119H41.2672L32.7581 27.7456L41.3425 39.6893H35.542L29.5926 32.0406L23.7956 39.7612H22.1376L13.7791 51.7767C18.2227 54.4717 23.568 55.9997 29.2162 55.9997C45.3309 55.9997 58.3589 43.4743 58.3589 28.0365C58.3589 19.2242 54.1446 11.3599 47.5177 6.26245ZM55.0463 37.8669L41.8695 37.9405C41.8695 36.4843 41.7942 35.3909 41.8695 31.8232C41.8695 31.2415 42.5471 30.2216 43.2999 29.5646C46.012 27.0167 50.3033 24.6879 50.3033 23.0109V20.9747C50.3033 19.9532 50.0774 19.0805 48.7976 19.0805C46.539 19.0805 47.0642 20.5349 47.0642 22.1383V22.2101L42.2459 25.6324C42.1707 25.706 42.0201 25.6324 42.0201 25.5605C42.0201 23.8135 41.7189 21.7019 41.9448 20.6085C42.4718 18.1325 44.7304 16.5309 48.7223 16.5309C53.2395 16.5309 54.9728 18.278 55.1986 19.4433C55.4998 21.1202 55.4998 22.7201 55.2739 23.8853C54.9728 25.3432 53.1659 26.9448 50.228 29.2754C48.5717 30.658 47.3671 31.825 47.3671 32.3332V34.6637C47.3671 34.7373 47.4424 34.7373 47.5177 34.7373H55.1986C55.2739 34.7373 55.3492 34.8092 55.3492 34.8827V37.5761C55.1986 37.7951 55.1216 37.8669 55.0481 37.8669H55.0463Z" fill="#99989A"/>
</svg>
