<svg fill="none" viewBox="0 0 150 56" id="providers--onlyplay" xmlns="http://www.w3.org/2000/svg"><path d="M55.393 27.318c0-4.497-3.428-7.655-7.76-7.655-4.3 0-7.79 3.158-7.79 7.655s3.49 7.684 7.79 7.684c4.301-.03 7.76-3.187 7.76-7.684zm-11.79 0c0-2.65 1.564-4.349 4.03-4.349 2.407 0 4 1.698 4 4.349 0 2.621-1.563 4.348-4 4.348-2.466 0-4.03-1.727-4.03-4.348zM65.53 34.824h3.669v-6.94c0-3.187-1.865-5.063-4.632-5.063-1.624 0-2.918.714-3.64 1.697V22.94h-3.699v11.884h3.7V28.36c0-1.608.902-2.502 2.315-2.502 1.414 0 2.316.894 2.316 2.502v6.464h-.03zM71.545 34.824h3.699V19.038h-3.7v15.786zM83.275 30.386l-2.798-7.446h-4.12l4.902 11.496-2.767 6.047h3.97l7.55-17.543h-4l-2.737 7.446zM94.824 24.608V22.91h-3.7v17.573h3.7v-7.327c.662 1.012 1.955 1.846 3.7 1.846 2.947 0 5.323-2.383 5.323-6.135 0-3.753-2.346-6.106-5.324-6.106-1.744 0-3.007.804-3.699 1.847zm5.293 4.259c0 1.906-1.263 2.948-2.646 2.948-1.384 0-2.647-1.042-2.647-2.948 0-1.907 1.263-2.949 2.647-2.949 1.383.03 2.646 1.043 2.646 2.949zM105.592 34.824h3.699V19.038h-3.699v15.786zM111.005 28.867c0 3.753 2.346 6.135 5.294 6.135 1.804 0 3.068-.804 3.729-1.846v1.697h3.7V22.94h-3.7v1.697c-.661-1.042-1.925-1.846-3.729-1.846-2.948-.03-5.294 2.323-5.294 6.076zm9.023 0c0 1.906-1.233 2.948-2.646 2.948-1.384 0-2.647-1.072-2.647-2.948 0-1.877 1.263-2.92 2.647-2.92 1.413 0 2.646 1.043 2.646 2.92zM131.728 30.386l-2.797-7.446h-4.12l4.902 11.496-2.767 6.047h3.97l7.549-17.543h-4l-2.737 7.446zM22.279 38.338C16.053 38.338 11 33.334 11 27.169 11 21.004 16.053 16 22.279 16s11.279 5.004 11.279 11.169c0 6.165-5.053 11.169-11.28 11.169zm0-19.36c-4.572 0-8.271 3.664-8.271 8.191 0 4.527 3.7 8.19 8.27 8.19 4.573 0 8.272-3.663 8.272-8.19 0-4.527-3.7-8.19-8.271-8.19z" fill="#F7822D"></path><path d="M22.279 30.892c2.076 0 3.76-1.667 3.76-3.723s-1.684-3.723-3.76-3.723c-2.077 0-3.76 1.667-3.76 3.723s1.683 3.723 3.76 3.723z" fill="#F7822D"></path></svg>