<svg width="155" height="56" viewBox="0 0 155 56" fill="none" xmlns="http://www.w3.org/2000/svg">
<path d="M53.9828 25.8877C53.9828 15.6017 49.8143 8.37838 44.5465 8.37838C39.3176 8.37838 35.0737 15.6017 35.0737 25.8877C35.0737 36.1737 39.3176 43.4633 44.5465 43.4633C49.7766 43.3947 53.9828 36.1737 53.9828 25.8877ZM39.6459 25.8877C39.6459 19.8263 41.5478 15.9402 44.5465 15.9402C47.4734 15.9402 49.4105 19.824 49.4105 25.8877C49.4105 31.8827 47.5099 35.8329 44.5465 35.8329C41.5478 35.8329 39.6459 31.8827 39.6459 25.8877ZM66.3096 43.0562H70.7712V27.1823C70.7712 19.8927 68.5033 15.6017 65.1386 15.6017C63.1637 15.6017 61.5902 17.2348 60.7122 19.4832V15.8739H56.2142V43.0562H60.7135V28.271C60.7135 24.5931 61.8103 22.5482 63.5285 22.5482C65.248 22.5482 66.3448 24.5931 66.3448 28.271V43.0562H66.3096ZM73.6239 43.0562H78.122V6.94882H73.6227L73.6239 43.0562ZM87.8879 32.9051L84.4854 15.8739H79.4754L85.4364 42.1687L82.0716 56H86.8992L96.0802 15.8739H91.2161L87.8879 32.9051ZM101.932 19.6891V15.8053H97.4324V56H101.932V39.2409C102.737 41.5557 104.309 43.4633 106.431 43.4633C110.015 43.4633 112.904 38.0127 112.904 29.4307C112.904 20.8465 110.051 15.4644 106.43 15.4644C104.309 15.4644 102.773 17.3034 101.932 19.6891ZM108.368 29.4307C108.368 33.7903 106.832 36.1737 105.15 36.1737C103.468 36.1737 101.932 33.7903 101.932 29.4307C101.932 25.0688 103.468 22.6855 105.15 22.6855C106.832 22.7541 108.368 25.0711 108.368 29.4307ZM115.026 43.0562H119.524V6.94882H115.026V43.0562ZM121.608 29.4307C121.608 38.0149 124.461 43.4633 128.046 43.4633C130.239 43.4633 131.776 41.6243 132.58 39.2409V43.1225H137.08V15.8739H132.58V19.7554C131.776 17.3721 130.239 15.5331 128.046 15.5331C124.461 15.4644 121.608 20.8465 121.608 29.4307ZM132.58 29.4307C132.58 33.7903 131.081 36.1737 129.363 36.1737C127.68 36.1737 126.144 33.7217 126.144 29.4307C126.144 25.1374 127.68 22.7518 129.363 22.7518C131.081 22.7518 132.58 25.1374 132.58 29.4307ZM146.808 32.9051L143.406 15.8739H138.396L144.357 42.1687L140.993 56H145.82L155 15.8739H150.136L146.808 32.9051ZM13.7155 51.0937C6.14455 51.0937 0 39.6481 0 25.5469C0 11.4457 6.14455 0 13.7155 0C21.2864 0 27.431 11.4457 27.431 25.5469C27.431 39.6481 21.2876 51.0937 13.7155 51.0937ZM13.7155 6.81158C8.15585 6.81158 3.65779 15.1923 3.65779 25.5469C3.65779 35.9015 8.15706 44.2799 13.7143 44.2799C19.2751 44.2799 23.7732 35.9015 23.7732 25.5469C23.7732 15.1923 19.2739 6.81158 13.7155 6.81158Z" fill="#F7822D"/>
<path d="M13.7155 34.0625C16.24 34.0625 18.2878 30.2496 18.2878 25.5469C18.2878 20.8442 16.24 17.0312 13.7155 17.0312C11.1899 17.0312 9.14331 20.8442 9.14331 25.5469C9.14331 30.2496 11.1899 34.0625 13.7155 34.0625Z" fill="#F7822D"/>
</svg>
