<svg width="155" height="56" viewBox="0 0 155 56" fill="none" xmlns="http://www.w3.org/2000/svg">
<mask id="mask0_3_1137" style="mask-type:luminance" maskUnits="userSpaceOnUse" x="0" y="0" width="155" height="56">
<path d="M0 0H155V56H0V0Z" fill="white"/>
</mask>
<g mask="url(#mask0_3_1137)">
<path d="M83.6225 40.3092C83.6225 44.2982 83.7 48.4572 83.6225 52.6185C83.545 55.2203 82.15 56.5212 80.445 55.9138C78.9725 55.3926 78.585 54.18 78.585 52.6185C78.585 44.2982 78.5075 35.9757 78.6625 27.6532C78.7281 24.6333 79.6799 21.72 81.3728 19.3571C83.0657 16.9942 85.407 15.3111 88.04 14.5643C93.465 12.9166 99.2775 15.4302 102.223 20.804C105.168 26.0938 104.625 32.8548 100.905 37.5351C97.1075 42.3037 91.3725 43.6046 86.025 41.0889C85.3275 40.5698 84.785 39.9625 83.6225 40.3092ZM91.2175 36.5831C95.4025 36.6692 98.89 32.9431 99.045 28.2606C99.2 23.5782 95.5575 19.5052 91.295 19.5052C87.11 19.5914 83.7 23.3175 83.6225 28C83.6225 32.7686 87.0325 36.5831 91.2175 36.5831ZM4.96 39.6157V52.1855C4.96 54.0938 4.65 55.8255 2.635 55.9117C0.465001 56 0 54.3545 0 52.2738V27.9138C0.0335862 24.905 0.931597 21.9868 2.56289 19.5856C4.19419 17.1843 6.47333 15.4256 9.0675 14.5665C14.4925 12.8326 20.305 15.1717 23.405 20.3732C26.505 25.5748 26.1175 32.3357 22.475 37.1043C18.91 41.8729 13.02 43.5185 7.905 41.1794C7.13 40.8326 6.2775 40.3092 4.96 39.6157ZM20.3825 28.0862C20.305 23.4058 16.895 19.5914 12.6325 19.5914C8.4475 19.6775 5.0375 23.492 4.96 28.1745C5.115 32.8548 8.525 36.5831 12.71 36.5831C16.895 36.5831 20.305 32.8548 20.305 28.1745C20.3825 28.1745 20.3825 28.0862 20.3825 28.0862ZM149.73 40.7422C147.095 41.6102 144.615 42.3898 141.902 41.4357C139.362 40.5792 137.204 38.6916 135.858 36.148C135.083 34.6748 134.618 33.2877 135.703 31.3815C137.02 29.1265 136.942 26.2662 135.547 24.1877C133.842 21.4114 134.617 18.5511 134.85 15.6908C134.927 14.3898 136.09 13.6963 137.33 13.9569C138.802 14.2154 139.5 15.4302 139.5 16.9917C139.577 21.3252 139.577 25.7471 139.5 30.0806C139.5 32.508 140.275 34.4142 142.213 35.6289C143.918 36.7554 146.01 36.5809 147.637 35.2822C149.187 34.0674 150.04 32.0729 149.885 29.9945V17.7692C149.885 15.7748 150.272 13.9548 152.365 13.8686C154.457 13.8686 154.922 15.6025 154.922 17.6809C154.922 26.6969 155 35.7129 154.845 44.7289C154.767 50.1028 151.202 54.5246 146.475 55.6511C142.212 56.6052 137.33 54.0917 135.392 49.9305C134.695 48.3689 134.54 46.8957 136.012 45.9415C137.33 44.9895 138.57 45.4225 139.578 46.8095C141.98 50.1911 143.917 50.9708 146.475 49.8421C149.032 48.7157 150.04 46.5489 149.963 42.3898C149.885 41.8686 149.807 41.4357 149.73 40.7422ZM47.1975 39.6157C39.2925 45.164 29.2175 40.3092 27.5125 31.7283C26.4275 26.0917 27.5125 21.1529 31.465 17.4246C35.4175 13.6985 39.9125 12.7422 44.7175 14.9972C49.5225 17.2502 52.08 21.4975 52.3125 27.2203C52.4675 30.6018 52.39 33.8951 52.39 37.2745C52.39 39.0083 52.7 40.9145 50.84 41.6963C48.98 42.5643 48.05 41.0889 47.1975 39.6157ZM39.9125 36.4086C43.9425 36.5809 47.275 33.0271 47.43 28.5191V27.9138C47.4328 25.7129 46.6667 23.5968 45.2931 22.0116C43.9196 20.4265 42.0461 19.4962 40.0675 19.4169C35.805 19.4169 32.3175 23.2314 32.1625 28C32.24 32.7686 35.65 36.4948 39.9125 36.4086C39.835 36.4086 39.835 36.4086 39.9125 36.4086ZM105.865 20.8923V4.16123C105.865 1.99446 106.175 0.0861538 108.422 0C110.592 0 110.902 1.90616 110.902 3.90062V38.2308C110.902 40.2252 110.36 42.0452 108.19 41.8708C106.175 41.7846 105.787 40.0508 105.787 38.1446C105.865 32.424 105.865 26.7012 105.865 20.8923ZM54.095 32.508C54.1725 30.2529 53.94 27.6532 54.405 25.0535C54.9713 22.1068 56.3647 19.436 58.3843 17.4263C60.4039 15.4165 62.9454 14.1715 65.6425 13.8708C67.425 13.6985 69.13 13.9569 69.285 16.3843C69.44 18.5511 68.045 19.1585 66.34 19.5052C61.69 20.1988 59.2875 23.3175 59.21 28.5191C59.1325 31.7283 59.21 35.0215 59.21 38.3148C59.21 40.2231 58.6675 41.8686 56.73 41.8686C54.715 41.8686 54.1725 40.3092 54.095 38.4009V32.508ZM75.95 27.7415V38.4031C75.95 40.3092 75.33 41.9569 73.315 41.8708C71.3 41.7846 70.9125 40.2231 70.9125 38.2308V17.5108C70.9125 15.5163 71.3775 13.9569 73.3925 13.8708C75.4075 13.7846 75.95 15.344 75.95 17.3385V27.7415ZM75.8725 5.46215C75.795 7.19384 74.9425 8.23415 73.47 8.23415C71.92 8.23415 70.835 7.19385 70.9125 5.37385C70.99 3.72831 71.92 2.77415 73.3925 2.77415C75.02 2.86031 75.795 3.81446 75.8725 5.46215Z" fill="#1099DB"/>
<path d="M128.805 35.4543C126.195 37.685 123.451 39.713 120.59 41.5239C120.512 39.0965 118.575 37.2743 118.885 34.6746C120.9 33.2014 122.915 31.6399 124.93 30.1666C126.093 29.5593 126.712 28.086 126.402 26.6128C129.58 28.4328 130.045 30.3389 128.805 35.4543Z" fill="#FB6327"/>
<path d="M118.885 34.6769C118.575 37.2745 120.512 39.0966 120.59 41.524C117.955 43.0834 115.785 42.9111 113.925 40.7422C112.375 38.9222 111.755 33.8068 112.84 31.9006C113.925 29.9083 116.405 30.0806 117.412 32.2474C117.877 33.1154 117.645 34.4163 118.885 34.6769Z" fill="#FD3744"/>
<path d="M128.805 35.4546C130.123 30.3414 129.58 28.4331 126.403 26.6131L119.892 21.4115L119.505 17.3386C123.535 19.5915 127.1 22.7125 130.743 25.6589C132.913 27.3928 132.525 30.2552 132.06 32.8528C131.136 33.9448 130.03 34.8282 128.805 35.4546Z" fill="#FB8B14"/>
<path d="M119.505 17.4246L119.892 21.4976C118.885 20.9785 118.032 20.804 117.722 22.5379C117.412 24.4462 116.25 25.312 114.545 24.9652C112.917 24.6206 112.452 23.2314 112.452 21.5837C112.452 19.2446 112.22 16.9034 113.925 15.0834C114.957 14.9116 116.012 15.0366 116.989 15.4464C117.966 15.8563 118.832 16.5373 119.505 17.4246Z" fill="#FB6327"/>
<path d="M113.925 14.9972C116.405 11.8762 118.032 12.3953 121.597 14.5642C125.705 17.0778 129.192 20.5455 133.145 23.2313C136.477 25.4864 135.702 30.5996 132.06 32.8547C132.525 30.255 132.835 27.3925 130.742 25.6609C127.1 22.7101 123.612 19.5913 119.505 17.3384C118.809 16.483 117.94 15.8243 116.97 15.4171C115.999 15.0099 114.955 14.866 113.925 14.9972Z" fill="#FCB162"/>
</g>
</svg>
