<svg width="155" height="56" viewBox="0 0 155 56" fill="none" xmlns="http://www.w3.org/2000/svg">
<mask id="mask0_3_971" style="mask-type:luminance" maskUnits="userSpaceOnUse" x="0" y="0" width="155" height="56">
<path d="M0 0H155V56H0V0Z" fill="white"/>
</mask>
<g mask="url(#mask0_3_971)">
<path d="M97.2998 2.90796L98.2641 12.9406L104.483 10.8793L101.571 3.82549L97.2998 2.90796ZM91.5216 13.6061L86.4573 17.679L92.9524 22.5575L91.5216 13.6061ZM93.2206 32.1744L96.1999 39.3618L99.4385 30.1132L93.2206 32.1744ZM104.759 20.5027L106.187 29.4606L111.309 25.3144L111.931 19.4797L104.759 20.5027Z" fill="#E2690E"/>
<path d="M0 8.96431H4.87654V12.5225C5.46347 11.3686 6.19809 10.3881 7.04058 9.63415C8.01116 8.83326 9.11764 8.44152 10.2345 8.50338C11.2412 8.50022 12.2387 8.78193 13.1705 9.33262C14.1244 9.89262 14.9813 10.7369 15.6893 11.8095C16.4464 12.9748 17.0411 14.3403 17.439 15.8286C17.8965 17.5775 18.1201 19.4363 18.0977 21.3058V21.3963C18.1209 23.2659 17.8973 25.1248 17.439 26.8735C17.0444 28.3611 16.456 29.7254 15.7057 30.8926C15.0113 31.9658 14.1642 32.8087 13.2227 33.3631C12.2904 33.9151 11.2926 34.199 10.2851 34.1988C9.16069 34.2635 8.04554 33.8806 7.06144 33.0917C6.25757 32.4017 5.53633 31.5282 4.92572 30.5049V41.1298H0V8.96431ZM8.98404 28.2391C9.53668 28.2389 10.0832 28.0721 10.5888 27.7495C11.0943 27.4268 11.5477 26.9554 11.9201 26.3652C12.318 25.7406 12.628 25.0126 12.8352 24.2178C13.0707 23.3175 13.1854 22.3591 13.1765 21.3963V21.3058C13.1835 20.35 13.0677 19.4007 12.8352 18.5058C12.6362 17.6991 12.3299 16.9564 11.9335 16.3197C11.5593 15.7272 11.1034 15.2544 10.5952 14.9316C10.087 14.6089 9.53766 14.4435 8.98255 14.4458C8.42664 14.4458 7.87519 14.6117 7.36399 14.9348C6.8616 15.2556 6.41242 15.7278 6.04649 16.3197C5.65804 16.9572 5.35392 17.6923 5.14928 18.4886C4.91976 19.3846 4.80649 20.3323 4.81245 21.2886V21.3791C4.80649 22.3332 4.91976 23.2809 5.14928 24.1769C5.35346 24.9738 5.6575 25.7083 6.04649 26.3458C6.41163 26.9403 6.86024 27.412 7.36399 27.7308C7.87246 28.0665 8.42502 28.2398 8.98404 28.2391ZM24.9297 34.1988C24.1521 34.2049 23.3783 34.0415 22.6345 33.7142C21.9489 33.4126 21.3095 32.9172 20.7581 32.2582C20.2229 31.6067 19.793 30.7935 19.4987 29.876C19.1708 28.8486 19.0087 27.7269 19.0248 26.5957V26.5031C19.0043 25.2911 19.1798 24.0889 19.5375 22.9923C19.8743 22.0231 20.3706 21.1852 20.9801 20.5498C21.6359 19.8671 22.3766 19.3717 23.1621 19.0938C24.0793 18.7545 25.0232 18.5902 25.97 18.6049C26.7379 18.5932 27.5048 18.6863 28.2607 18.8828C28.9075 19.068 29.5454 19.3157 30.1699 19.6258V19.208C30.1987 18.5815 30.1305 17.9537 29.9701 17.3701C29.8097 16.7866 29.5613 16.2622 29.2428 15.8351C28.6094 15.1114 27.6943 14.7 26.4692 14.7C25.6334 14.6849 24.7989 14.8004 23.9803 15.0446C23.2113 15.2988 22.4556 15.6305 21.7194 16.0354L20.5017 10.6723C21.4532 10.084 22.4354 9.60573 23.4393 9.24215C24.6614 8.84369 25.9103 8.66061 27.1608 8.69077C28.3382 8.64769 29.5111 8.89108 30.6319 9.40585C31.5146 9.83117 32.3184 10.542 32.9822 11.4843C33.6365 12.4286 34.1255 13.585 34.4085 14.8572C34.7066 16.3111 34.8482 17.8252 34.8273 19.3415V33.74H30.1281V31.0563C29.5218 32.0164 28.7905 32.7945 27.976 33.3458C27.0165 33.9511 25.9762 34.2423 24.9297 34.1988ZM26.4051 29.3634C27.3989 29.4354 28.3794 29.0085 29.1802 28.1551C29.5126 27.786 29.7795 27.308 29.9589 26.7605C30.1382 26.213 30.2248 25.6116 30.2116 25.0062V23.7548C29.2311 23.137 28.1722 22.8216 27.1026 22.8286C26.2372 22.7625 25.3775 23.0674 24.6316 23.7052C24.3417 23.9803 24.1065 24.3597 23.9489 24.8061C23.7913 25.2525 23.7169 25.7505 23.7329 26.2511V26.3415C23.7191 26.7709 23.7795 27.1985 23.9085 27.5858C24.0375 27.973 24.2312 28.3078 24.4721 28.56C25.0385 29.12 25.7196 29.3935 26.4066 29.344L26.4051 29.3634ZM43.2495 34.1557C42.5623 34.1643 41.8772 34.0464 41.2106 33.8046C40.6255 33.5986 40.0854 33.1839 39.6398 32.5985C39.1705 31.9627 38.8151 31.1719 38.6039 30.2938C38.3335 29.1407 38.2083 27.9268 38.2343 26.7098V14.9714H36.1925V8.96215H38.2433V2.63631H43.1198V8.96431H47.1647V14.9735H43.1168V25.5985C43.1168 27.2095 43.6414 28.0151 44.6907 28.0151C45.5351 28.0196 46.3652 27.6999 47.0962 27.0889V32.7298C45.9271 33.7031 44.5969 34.1982 43.248 34.1622L43.2495 34.1557ZM54.0294 34.1988C53.2519 34.2058 52.4781 34.0431 51.7342 33.7163C51.0479 33.4153 50.41 32.9196 49.8578 32.2582C49.3233 31.6071 48.894 30.7947 48.6 29.8782C48.2718 28.8501 48.1098 27.7276 48.126 26.5957V26.5052C48.1052 25.2934 48.2802 24.0913 48.6372 22.9945C48.974 22.0338 49.4644 21.2068 50.068 20.5757C50.7238 19.8908 51.4645 19.3975 52.2499 19.1175C53.1671 18.7782 54.1111 18.6139 55.0578 18.6286C55.8258 18.6176 56.5927 18.7114 57.3485 18.9086C57.9953 19.0917 58.6332 19.3394 59.2577 19.6495V19.2338C59.2867 18.6058 59.2181 17.9764 59.0569 17.3916C58.8957 16.8069 58.6461 16.2817 58.3262 15.8545C57.7092 15.0791 56.7866 14.7 55.569 14.7C54.7332 14.6849 53.8987 14.8005 53.0801 15.0446C52.3125 15.2988 51.5569 15.6305 50.8191 16.0354L49.603 10.6745C50.5536 10.0844 51.5354 9.60546 52.539 9.24215C53.7612 8.84369 55.0101 8.66061 56.262 8.69292C57.4309 8.65287 58.5963 8.89305 59.7108 9.40369C60.6085 9.82116 61.4273 10.5333 62.1028 11.4843C62.7556 12.4363 63.2385 13.6015 63.5127 14.8809C63.8168 16.3262 63.9628 17.8317 63.945 19.3415V33.74H59.2279V31.0563C58.6198 32.0169 57.8865 32.7966 57.0668 33.3458C56.1099 33.9486 55.0729 34.2398 54.0294 34.1988ZM55.5064 29.3634C56.4997 29.4349 57.4796 29.0081 58.28 28.1551C58.6138 27.7892 58.8827 27.3138 59.0643 26.7681C59.246 26.2225 59.3352 25.6222 59.3248 25.0169V23.7548C58.3492 23.1335 57.2938 22.8179 56.2277 22.8286C55.3623 22.7625 54.5026 23.0674 53.7567 23.7052C53.4671 23.9806 53.2321 24.3601 53.0748 24.8065C52.9175 25.2528 52.8433 25.7507 52.8595 26.2511V26.3415C52.8455 26.7707 52.9056 27.1982 53.0344 27.5854C53.1632 27.9727 53.3566 28.3076 53.5972 28.56C54.1576 29.1114 54.8283 29.3871 55.5064 29.3462V29.3634ZM74.242 41.2225C72.8804 41.2298 71.5228 41.0064 70.1971 40.5569C68.96 40.1336 67.7643 39.4882 66.6381 38.6357L68.3162 33.3652C69.1752 34.0605 70.0811 34.627 71.0198 35.056C72.0228 35.4781 73.0661 35.6806 74.1124 35.6612C75.7905 35.6612 77.0246 35.0905 77.8175 33.9511C78.6223 32.8138 79.0217 31.1338 79.0217 28.9154V27.7071C78.3592 28.8906 77.5544 29.8916 76.646 30.6622C75.6495 31.4223 74.5319 31.7893 73.4059 31.7262C72.4194 31.7322 71.4407 31.4744 70.519 30.9658C69.6095 30.4663 68.7803 29.7032 68.0823 28.7237C67.3591 27.6909 66.7882 26.457 66.4041 25.0966C65.9708 23.5327 65.758 21.8595 65.7781 20.1751V20.0803C65.7483 18.3788 65.9644 16.6858 66.4115 15.1114C66.8054 13.7495 67.3847 12.5161 68.1151 11.4843C68.8129 10.5034 69.6428 9.74017 70.5533 9.24215C71.4641 8.73638 72.4317 8.47789 73.4074 8.47969C74.5431 8.41723 75.6728 8.78338 76.6788 9.54369C77.5301 10.2437 78.2996 11.1334 78.9591 12.18V8.96431H83.8326V28.1422C83.8326 32.5511 83.1068 35.8012 81.6522 37.8991C80.7956 39.1043 79.742 39.977 78.5895 40.4363C77.1736 40.9963 75.7101 41.2612 74.242 41.2225ZM74.8203 25.8806C75.393 25.8908 75.9622 25.7499 76.5 25.4649C76.9948 25.1957 77.4464 24.7843 77.8294 24.2566C78.2079 23.7462 78.509 23.128 78.7147 22.4431C78.9308 21.7129 79.0396 20.9268 79.0336 20.1342V20.0372C79.0394 19.2439 78.9308 18.4576 78.7147 17.7283C78.509 17.0423 78.2076 16.4249 77.8294 15.9148C77.4449 15.3981 76.9929 14.9975 76.5 14.7366C75.9623 14.4507 75.3931 14.3091 74.8203 14.3188C74.2562 14.3095 73.6958 14.4511 73.1675 14.7366C72.679 15.0004 72.2313 15.4007 71.85 15.9148C71.4744 16.4268 71.1747 17.0438 70.9691 17.7283C70.753 18.4576 70.6444 19.2439 70.6502 20.0372V20.1342C70.628 20.9094 70.7223 21.6825 70.9265 22.4001C71.1308 23.1177 71.4403 23.7628 71.8336 24.2911C72.6495 25.3591 73.7198 25.9274 74.8203 25.8806ZM113.739 8.96431H118.615V12.5052C118.895 11.9732 119.201 11.4671 119.53 10.9954C119.864 10.5086 120.237 10.08 120.638 9.71385C121.54 8.894 122.589 8.47326 123.654 8.50338C125.516 8.50338 126.952 9.32184 127.969 10.9523C128.984 12.5849 129.492 14.8335 129.492 17.6982V33.74H124.624V19.9446C124.624 18.2862 124.368 17.0305 123.852 16.184C123.575 15.7545 123.236 15.4187 122.859 15.2005C122.482 14.9824 122.076 14.8872 121.671 14.9218C121.258 14.8919 120.847 14.9889 120.463 15.2065C120.078 15.4241 119.731 15.7573 119.442 16.184C118.897 17.0305 118.624 18.2883 118.624 19.9446V33.7378H113.739V8.96431ZM132.219 0H137.351V6.23754H132.219V0ZM132.349 8.96431H137.212V33.7443H132.349V8.96431ZM145.084 34.1988C144.307 34.2058 143.533 34.0432 142.789 33.7163C142.103 33.4151 141.466 32.9194 140.914 32.2582C140.38 31.6061 139.95 30.794 139.655 29.8782C139.327 28.85 139.165 27.7276 139.181 26.5957V26.5052C139.161 25.2935 139.336 24.0916 139.692 22.9945C140.029 22.0338 140.519 21.2068 141.123 20.5757C141.779 19.8908 142.52 19.3975 143.305 19.1175C144.222 18.7784 145.166 18.6141 146.113 18.6286C146.881 18.6176 147.648 18.7114 148.404 18.9086C149.051 19.0925 149.689 19.34 150.313 19.6495V19.2338C150.342 18.6058 150.273 17.9763 150.112 17.3915C149.951 16.8068 149.701 16.2816 149.381 15.8545C148.761 15.0791 147.842 14.7 146.621 14.7C145.785 14.6849 144.951 14.8005 144.132 15.0446C143.364 15.2989 142.608 15.6299 141.871 16.0354L140.654 10.6745C141.605 10.0852 142.587 9.60625 143.591 9.24215C144.812 8.84369 146.062 8.66061 147.313 8.69292C148.482 8.65279 149.648 8.89297 150.763 9.40369C151.662 9.82085 152.481 10.533 153.158 11.4843C153.811 12.4385 154.295 13.6037 154.572 14.8809C154.873 16.3283 155.016 17.8317 155 19.3415V33.74H150.284V31.0563C149.675 32.0175 148.941 32.7956 148.123 33.3458C147.166 33.9495 146.129 34.2407 145.084 34.1988ZM146.561 29.3634C147.555 29.4353 148.535 29.0084 149.335 28.1551C149.669 27.7898 149.939 27.3145 150.12 26.7687C150.302 26.2229 150.391 25.6224 150.38 25.0169V23.7548C149.406 23.129 148.35 22.8132 147.284 22.8286C146.418 22.7622 145.558 23.0671 144.812 23.7052C144.522 23.9791 144.286 24.3581 144.129 24.8043C143.971 25.2506 143.897 25.7486 143.915 26.2489V26.3415C143.902 26.7705 143.962 27.1975 144.091 27.5846C144.219 27.9716 144.412 28.3067 144.652 28.56C145.214 29.1114 145.883 29.3871 146.561 29.3462V29.3634Z" fill="white"/>
<path d="M66.2103 51.6233C66.2103 49.2067 67.3982 47.2295 69.0719 47.2295C70.9348 47.2295 71.8797 49.3403 71.8797 51.7633C71.8797 51.9378 71.8797 52.1209 71.8544 52.3061H67.5576C67.6012 52.8976 67.7989 53.4429 68.1106 53.8313C68.4223 54.2197 68.8246 54.4222 69.2358 54.3975C69.5339 54.3998 69.829 54.3119 70.1021 54.1394C70.3752 53.9669 70.6203 53.7137 70.8216 53.3959L71.6115 54.3975C71.3285 54.9123 70.9666 55.3251 70.5543 55.6032C70.142 55.8813 69.6906 56.0171 69.2358 55.9999C68.6316 56.0256 68.0365 55.7821 67.5312 55.3024C67.026 54.8227 66.6351 54.1301 66.4115 53.3184C66.2646 52.7794 66.1961 52.2023 66.2103 51.6233ZM70.5444 51.0203C70.4564 49.7753 69.9482 48.7953 69.0599 48.7953C68.2209 48.7953 67.662 49.7086 67.5398 51.0203H70.5444ZM74.1198 47.3759H75.4626V48.6683C75.6516 48.2127 75.9202 47.8371 76.2415 47.5792C76.5628 47.3214 76.9254 47.1904 77.2928 47.1993C78.6103 47.1993 79.3913 48.4744 79.3913 50.4279V55.8061H78.0484V51.0203C78.0484 49.7064 77.5909 48.9526 76.7891 48.9526C75.9873 48.9526 75.4716 49.7387 75.4716 51.0504V55.8061H74.1302L74.1198 47.3759ZM82.1589 53.48V49.0366H81.4048V47.3759H82.147V45.0584H83.5033V47.3738H85.0756V49.0344H83.5018V53.187C83.486 53.33 83.4937 53.4763 83.5242 53.6141C83.5548 53.7519 83.6074 53.8774 83.6778 53.9804C83.7482 54.0834 83.8344 54.1609 83.9294 54.2068C84.0244 54.2527 84.1255 54.2657 84.2246 54.2446C84.5152 54.2489 84.8044 54.1498 85.0637 53.9559V55.539C84.6956 55.8406 84.2768 55.987 83.855 55.9698C82.8609 55.9483 82.1589 55.3279 82.1589 53.4778V53.48ZM86.8596 51.6233C86.8596 49.2067 88.0459 47.2295 89.7211 47.2295C91.5841 47.2295 92.5231 49.3403 92.5231 51.7633C92.5231 51.9378 92.5231 52.1209 92.5037 52.3061H88.1846C88.2199 52.9069 88.4143 53.4648 88.7272 53.8636C89.0401 54.2624 89.4474 54.4714 89.8642 54.447C90.1679 54.4497 90.4686 54.359 90.7461 54.1807C91.0236 54.0024 91.2717 53.7408 91.4738 53.4132L92.2429 54.3975C91.9554 54.9116 91.5894 55.3223 91.1736 55.5973C90.7577 55.8724 90.3034 56.0043 89.8463 55.9827C89.4491 55.9925 89.0546 55.8862 88.6866 55.67C88.3185 55.4539 87.9845 55.1324 87.7047 54.7249C87.4259 54.3175 87.2072 53.8325 87.0619 53.2994C86.9167 52.7663 86.8479 52.196 86.8596 51.6233ZM91.1936 51.0203C91.1057 49.7753 90.5975 48.7953 89.7077 48.7953C88.8686 48.7953 88.3112 49.7086 88.189 51.0203H91.1936ZM94.7527 47.3759H96.091V49.2713C96.2365 48.6438 96.5204 48.1025 96.8992 47.7306C97.278 47.3587 97.7307 47.1766 98.188 47.2122V49.2606H98.109C96.9301 49.2606 96.091 50.359 96.091 52.5861V55.7953H94.7527V47.3759ZM100.497 53.48V49.0366H99.7544V47.3759H100.497V45.0584H101.838V47.3738H103.413V49.0344H101.838V53.187C101.821 53.3294 101.828 53.4754 101.858 53.6131C101.888 53.7508 101.94 53.8764 102.01 53.9795C102.08 54.0826 102.166 54.1604 102.26 54.2065C102.355 54.2525 102.456 54.2656 102.555 54.2446C102.847 54.2489 103.136 54.1476 103.395 53.9559V55.539C103.027 55.838 102.609 55.9869 102.187 55.9698C101.191 55.9483 100.495 55.3279 100.495 53.4778L100.497 53.48ZM105.276 53.383V53.3464C105.276 51.5329 106.263 50.6326 107.694 50.6326C108.23 50.6261 108.762 50.7446 109.271 50.9836V50.7726C109.271 49.5621 108.759 48.959 107.816 48.959C107.236 48.959 106.664 49.1399 106.136 49.4846L105.785 47.9683C106.473 47.4966 107.23 47.2618 107.99 47.279C108.341 47.2373 108.695 47.2978 109.029 47.4568C109.364 47.6159 109.673 47.8704 109.938 48.2052C110.16 48.5549 110.33 48.966 110.439 49.4135C110.548 49.861 110.593 50.3358 110.572 50.8092V55.8061H109.263V54.755C109.03 55.1533 108.736 55.4692 108.405 55.6786C108.074 55.888 107.715 55.9854 107.354 55.9633C106.254 55.9827 105.276 55.0759 105.276 53.383ZM109.293 52.7799V52.1747C108.867 51.9472 108.416 51.8348 107.962 51.843C107.098 51.843 106.586 52.3686 106.586 53.243V53.2753C106.586 54.0895 107.086 54.5569 107.726 54.5569C108.616 54.5784 109.291 53.8418 109.291 52.7735V52.7778L109.293 52.7799ZM113.084 44.2443H114.529V46.0578H113.084V44.2443ZM113.14 47.3759H114.482V55.8363H113.141L113.14 47.3759ZM117.122 47.3738H118.465V48.6683C118.656 48.2157 118.924 47.8424 119.245 47.5849C119.565 47.3275 119.927 47.1946 120.293 47.1993C121.615 47.1993 122.392 48.4744 122.392 50.4279V55.8061H121.049V51.0203C121.049 49.7064 120.596 48.9526 119.791 48.9526C118.985 48.9526 118.469 49.7387 118.469 51.0504V55.8061H117.126L117.122 47.3738ZM124.888 47.3738H126.231V48.6489C126.418 48.2074 126.68 47.8425 126.993 47.5888C127.305 47.335 127.657 47.201 128.015 47.1993C128.375 47.1758 128.733 47.3036 129.044 47.5674C129.355 47.8311 129.606 48.2195 129.768 48.6855C129.987 48.2224 130.281 47.8446 130.626 47.5854C130.97 47.3261 131.353 47.1935 131.741 47.1993C132.999 47.1993 133.792 48.3646 133.792 50.4258V55.8061H132.449V51.0203C132.449 49.6719 132.03 48.9526 131.267 48.9526C130.503 48.9526 130.008 49.6892 130.008 51.0504V55.8061H128.665V50.9707C128.665 49.659 128.221 48.9224 127.477 48.9224C126.735 48.9224 126.219 49.7258 126.219 51.0203V55.7759H124.876L124.888 47.3738ZM135.992 51.6233C135.992 49.2067 137.179 47.2295 138.853 47.2295C140.716 47.2295 141.657 49.3403 141.657 51.7633V52.3061H137.334C137.37 52.9063 137.564 53.4635 137.877 53.8622C138.189 54.2608 138.596 54.4703 139.013 54.447C139.311 54.4486 139.606 54.3601 139.879 54.1872C140.152 54.0144 140.397 53.761 140.598 53.4433L141.409 54.3975C141.122 54.9113 140.756 55.3218 140.34 55.5969C139.924 55.8719 139.47 56.004 139.013 55.9827C138.411 56.0075 137.818 55.7647 137.314 55.2871C136.811 54.8095 136.421 54.12 136.197 53.3119C136.05 52.7753 135.98 52.2006 135.992 51.6233ZM140.326 51.0203C140.238 49.7753 139.731 48.7953 138.841 48.7953C138.002 48.7953 137.443 49.7086 137.323 51.0203H140.326ZM143.901 47.3738H145.239V48.6683C145.431 48.2158 145.7 47.8427 146.021 47.5853C146.341 47.3278 146.703 47.1949 147.07 47.1993C148.392 47.1993 149.168 48.4744 149.168 50.4279V55.8061H147.828V51.0203C147.828 49.7064 147.372 48.9526 146.57 48.9526C145.769 48.9526 145.248 49.7387 145.248 51.0504V55.8061H143.91L143.901 47.3738ZM151.942 53.48V49.0366H151.198V47.3759H151.942V45.0584H153.285V47.3738H154.857V49.0344H153.285V53.187C153.27 53.3272 153.278 53.4706 153.31 53.6049C153.341 53.739 153.394 53.8611 153.463 53.9619C153.531 54.0626 153.615 54.1394 153.708 54.1864C153.801 54.2319 153.9 54.2459 153.997 54.2273C154.289 54.23 154.577 54.1302 154.836 53.9366V55.5218C154.468 55.8207 154.05 55.9689 153.627 55.9504C152.642 55.9504 151.942 55.3258 151.942 53.4778V53.48ZM110.883 16.9249L104.483 10.879L98.2655 12.9403L110.648 25.3378C110.731 25.417 110.826 25.4642 110.926 25.475C111.025 25.4857 111.124 25.4596 111.215 25.3992C111.305 25.3388 111.383 25.2461 111.442 25.1298C111.5 25.0135 111.537 24.8775 111.549 24.7347L111.922 20.1341C111.974 19.5123 111.904 18.8821 111.72 18.3149C111.536 17.7477 111.246 17.2661 110.883 16.9249ZM104.752 20.4895L96.1402 38.3319C96.0859 38.4517 96.0536 38.5896 96.0466 38.7324C96.0396 38.8753 96.0581 39.0184 96.1003 39.148C96.1424 39.2776 96.2069 39.3894 96.2874 39.4728C96.368 39.5562 96.462 39.6083 96.5605 39.6243L99.7544 40.1692C100.182 40.2377 100.614 40.1353 101.003 39.8733C101.393 39.6112 101.726 39.1995 101.965 38.683L106.162 29.4603L104.752 20.4895ZM87.0563 17.7153C86.9735 17.6364 86.8781 17.5895 86.7792 17.5789C86.6803 17.5683 86.5812 17.5945 86.4913 17.655C86.4013 17.7154 86.3236 17.8081 86.2655 17.9242C86.2073 18.0404 86.1707 18.1761 86.1591 18.3184L85.7806 22.919C85.7293 23.5405 85.7993 24.1703 85.9826 24.7374C86.1659 25.3044 86.4552 25.7862 86.8179 26.1283L93.2206 32.1741L99.4474 30.1129L87.0563 17.7153ZM101.126 3.42671L97.9332 2.88394C97.5022 2.81209 97.0659 2.91411 96.6726 3.17872C96.2793 3.44332 95.9444 3.86016 95.705 4.38302L91.5081 13.6058L92.9389 22.5572L101.546 4.72117C101.6 4.60143 101.632 4.46355 101.639 4.32068C101.646 4.17782 101.628 4.03475 101.586 3.90513C101.544 3.77552 101.479 3.66368 101.399 3.5803C101.318 3.49692 101.224 3.44263 101.126 3.42671Z" fill="#FF7E14"/>
<path d="M92.9523 22.5442L98.1343 12.8024L105.099 19.8131L104.759 20.4895L110.054 24.7325L98.7379 12.7658L101.167 5.51807L92.9523 22.4968" fill="#A04507"/>
</g>
</svg>
