<svg width="155" height="56" viewBox="0 0 155 56" fill="none" xmlns="http://www.w3.org/2000/svg">
<mask id="mask0_3_980" style="mask-type:luminance" maskUnits="userSpaceOnUse" x="0" y="0" width="155" height="56">
<path d="M0 0H155V56H0V0Z" fill="white"/>
</mask>
<g mask="url(#mask0_3_980)">
<path d="M12.3233 34.1514H15.7333V38.8188H12.3233V34.1514ZM12.3233 39.6652H15.7333V44.3326H12.3233V39.6652ZM8.215 6.04585H11.625V10.7111H8.215V6.04585ZM8.215 0.424316H11.625V5.08955H8.215V0.424316ZM16.3533 0.424316H19.7633V5.08955H16.3533V0.424316ZM16.3533 34.1514H19.7633V38.8188H16.3533V34.1514ZM16.3533 6.04585H19.7633V10.7111H16.3533V6.04585ZM12.3233 0.424316H15.7333V5.08955H12.3233V0.424316ZM12.3233 6.04585H15.7333V10.7111H12.3233V6.04585ZM16.3533 39.6652H19.7633V44.3326H16.3533V39.6652ZM0 28.5299H3.41V33.1972H0V28.5299ZM0 17.2868H3.41V21.9542H0V17.2868ZM8.215 34.1514H11.625V38.8188H8.215V34.1514ZM0 11.6652H3.41V16.3326H0V11.6652Z" fill="#515152"/>
<path d="M0 6.04565H3.41V10.7109H0V6.04565Z" fill="#5E4FA1"/>
<path d="M0 22.9082H3.41V27.5756H0V22.9082ZM0 50.9082H3.41V55.5756H0V50.9082ZM0 45.2867H3.41V49.9541H0V45.2867ZM0 34.1513H3.41V38.8187H0V34.1513ZM0 39.6651H3.41V44.3325H0V39.6651Z" fill="#515152"/>
<path d="M4.10828 50.9082H7.51828V55.5756H4.10828V50.9082Z" fill="#1EBEE6"/>
<path d="M4.10828 0.424316H7.51828V5.08955H4.10828V0.424316ZM4.10828 45.2868H7.51828V49.9542H4.10828V45.2868ZM4.10828 6.04585H7.51828V10.7111H4.10828V6.04585ZM4.10828 11.6652H7.51828V16.3326H4.10828V11.6652ZM8.21496 39.6652H11.625V44.3326H8.21496V39.6652ZM4.10828 17.2868H7.51828V21.9542H4.10828V17.2868ZM4.10828 39.6652H7.51828V44.3326H4.10828V39.6652ZM4.10828 34.1514H7.51828V38.8188H4.10828V34.1514ZM4.10828 22.9083H7.51828V27.5757H4.10828V22.9083ZM4.10828 28.5299H7.51828V33.1972H4.10828V28.5299ZM24.5683 34.1514H27.9783V38.8188H24.5683V34.1514ZM32.7816 28.5299H36.1916V33.1972H32.7816V28.5299ZM32.7816 34.1514H36.1916V38.8188H32.7816V34.1514ZM32.7816 6.04585H36.1916V10.7111H32.7816V6.04585ZM32.7816 22.9083H36.1916V27.5757H32.7816V22.9083ZM32.7816 17.2868H36.1916V21.9542H32.7816V17.2868ZM32.7816 11.6652H36.1916V16.3326H32.7816V11.6652ZM28.675 11.6652H32.085V16.3326H28.675V11.6652ZM28.675 6.04585H32.085V10.7111H28.675V6.04585ZM28.675 0.424316H32.085V5.08955H28.675V0.424316ZM36.89 22.9083H40.3V27.5757H36.89V22.9083ZM36.89 11.6652H40.3V16.3326H36.89V11.6652ZM36.89 17.2868H40.3V21.9542H36.89V17.2868Z" fill="#515152"/>
<path d="M32.7816 0.424316H36.1916V5.08955H32.7816V0.424316Z" fill="#F36F21"/>
<path d="M36.89 28.5299H40.3V33.1972H36.89V28.5299ZM20.46 0.424316H23.87V5.08955H20.46V0.424316ZM20.46 6.04585H23.87V10.7111H20.46V6.04585ZM20.46 34.1514H23.87V38.8188H20.46V34.1514Z" fill="#515152"/>
<path d="M24.5682 39.6653H27.9782V44.3327H24.5682V39.6653Z" fill="#B64C9C"/>
<path d="M20.46 39.6652H23.87V44.3326H20.46V39.6652ZM24.5683 0.424316H27.9783V5.08955H24.5683V0.424316ZM28.675 34.1514H32.085V38.8188H28.675V34.1514ZM28.675 28.5299H32.085V33.1972H28.675V28.5299ZM24.5683 6.04585H27.9783V10.7111H24.5683V6.04585ZM61.4583 45.2868H64.8683V49.9542H61.4583V45.2868ZM61.4583 50.9083H64.8683V55.5757H61.4583V50.9083ZM57.35 11.6652H60.76V16.3326H57.35V11.6652ZM57.35 6.04585H60.76V10.7111H57.35V6.04585Z" fill="#515152"/>
<path d="M57.3501 0.424316H60.7601V5.08955H57.3501V0.424316Z" fill="#FDB81B"/>
<path d="M65.565 0.424316H68.975V5.08955H65.565V0.424316ZM65.565 6.04585H68.975V10.7111H65.565V6.04585ZM65.565 45.2868H68.975V49.9542H65.565V45.2868ZM61.4583 0.424316H64.8683V5.08955H61.4583V0.424316ZM61.4583 6.04585H64.8683V10.7111H61.4583V6.04585ZM65.565 50.9083H68.975V55.5757H65.565V50.9083ZM49.135 28.5299H52.545V33.1972H49.135V28.5299ZM49.135 17.2868H52.545V21.9542H49.135V17.2868Z" fill="#515152"/>
<path d="M49.135 11.6653H52.545V16.3327H49.135V11.6653Z" fill="#E51B73"/>
<path d="M49.135 22.9082H52.545V27.5756H49.135V22.9082ZM49.135 34.1513H52.545V38.8187H49.135V34.1513ZM49.135 39.6651H52.545V44.3325H49.135V39.6651Z" fill="#515152"/>
<path d="M53.2417 45.2866H56.6517V49.954H53.2417V45.2866Z" fill="#3D81C3"/>
<path d="M53.2417 6.04565H56.6517V10.7109H53.2417V6.04565ZM53.2417 11.665H56.6517V16.3324H53.2417V11.665ZM57.35 45.2866H60.76V49.954H57.35V45.2866ZM57.35 39.665H60.76V44.3324H57.35V39.665ZM57.35 50.9081H60.76V55.5755H57.35V50.9081ZM53.2417 17.2866H56.6517V21.954H53.2417V17.2866ZM53.2417 39.665H56.6517V44.3324H53.2417V39.665ZM53.2417 34.1512H56.6517V38.8186H53.2417V34.1512ZM53.2417 22.9081H56.6517V27.5755H53.2417V22.9081ZM53.2417 28.5297H56.6517V33.197H53.2417V28.5297ZM81.9167 28.5297H85.3267V33.197H81.9167V28.5297ZM81.9167 34.1512H85.3267V38.8186H81.9167V34.1512ZM81.9167 6.04565H85.3267V10.7109H81.9167V6.04565ZM81.9167 22.9081H85.3267V27.5755H81.9167V22.9081ZM81.9167 11.665H85.3267V16.3324H81.9167V11.665ZM81.9167 39.665H85.3267V44.3324H81.9167V39.665ZM81.9167 45.2866H85.3267V49.954H81.9167V45.2866ZM77.81 11.665H81.22V16.3324H77.81V11.665ZM77.81 6.04565H81.22V10.7109H77.81V6.04565Z" fill="#515152"/>
<path d="M86.0249 22.9082H89.4349V27.5756H86.0249V22.9082Z" fill="#5EBF85"/>
<path d="M69.6733 50.9082H73.0833V55.5756H69.6733V50.9082Z" fill="#515152"/>
<path d="M86.0249 39.6653H89.4349V44.3327H86.0249V39.6653Z" fill="#EE2830"/>
<path d="M86.025 28.5299H89.435V33.1972H86.025V28.5299ZM86.025 34.1514H89.435V38.8188H86.025V34.1514ZM69.6733 0.424316H73.0833V5.08955H69.6733V0.424316ZM69.6733 6.04585H73.0833V10.7111H69.6733V6.04585ZM73.7017 45.2868H77.1117V49.9542H73.7017V45.2868ZM69.6733 22.9083H73.0833V27.5757H69.6733V22.9083ZM73.7017 50.9083H77.1117V55.5757H73.7017V50.9083ZM69.6733 45.2868H73.0833V49.9542H69.6733V45.2868ZM77.81 22.9083H81.22V27.5757H77.81V22.9083ZM69.6733 28.5299H73.0833V33.1972H69.6733V28.5299ZM73.7017 0.424316H77.1117V5.08955H73.7017V0.424316ZM77.81 39.6652H81.22V44.3326H77.81V39.6652Z" fill="#515152"/>
<path d="M77.8101 50.9082H81.2201V55.5756H77.8101V50.9082Z" fill="#F04E23"/>
<path d="M77.81 45.2866H81.22V49.954H77.81V45.2866ZM77.81 28.5297H81.22V33.197H77.81V28.5297ZM73.7017 6.04565H77.1117V10.7109H73.7017V6.04565ZM73.7017 28.5297H77.1117V33.197H73.7017V28.5297ZM73.7017 22.9081H77.1117V27.5755H73.7017V22.9081Z" fill="#515152"/>
<path d="M152.365 0H147.405V3.18123H150.04V14.9542H152.365V3.18123H155V0H152.365ZM145.467 3.18123V0H137.64V14.9542H145.467V11.7729H140.042V9.12154H144.15V5.94031H140.042V3.18339H145.467V3.18123ZM114.777 1.90831V0H109.972V1.90831H108.345V13.0437H109.972V15.0597H114.777V13.0458H116.095V1.91046H114.777V1.90831ZM113.77 11.8806H110.592V3.18123H113.77V11.8785V11.8806ZM105.168 1.90831V0H98.425V14.9542H100.75V9.33262H105.168V7.52985H106.33V1.90831H105.168ZM104.005 6.15139H100.75V3.18123H104.005V6.15139ZM135.703 5.62154V0H133.378V5.62154H130.123V0H127.798V14.9542H130.123V9.33262H133.378V14.9542H135.703V9.33262H134.463V5.62154H135.703ZM125.86 5.62154V1.90831H124.542V0H119.66V1.90831H118.032V13.0437H119.66V14.9542H124.542V13.0458H125.86V9.44031H123.535V11.7729H120.357V3.18123H123.535V5.62154H125.86ZM132.99 41.0458H128.03V44.2271H130.665V56H132.99V44.2271H135.625V41.0458H132.99ZM114.855 42.9542V41.0458H110.05V42.9542H108.423V54.0895H110.05V56.1055H114.855V54.0917H116.173V42.9542H114.855ZM113.848 52.9243H110.67V44.3326H113.848V52.9243ZM106.33 44.2271V41.0458H100.13V43.0597H98.3467V48.5735H100.13V50.1674H104.005V52.8166H98.89V56H105.012V54.0917H106.33V48.5757H105.012V46.984H100.672V44.2271H106.33ZM126.015 44.2271V41.0458H118.188V56H120.513V50.1631H124.698V46.9818H120.513V44.2249L126.015 44.2271ZM136.787 23.7569V20.5757H129.037V35.5298H136.787V32.3508H131.362V29.5938H135.547V26.4126H131.362V23.7569H136.787ZM146.785 23.7569V20.5757H140.585V22.5917H138.802V28H140.585V29.5917H144.46V32.2409H139.345V35.5298H145.467V33.6215H146.785V28H145.467V26.4105H141.127V23.7569H146.785ZM114.778 22.4862V20.5757H109.585V22.4862H108.19V35.5298H110.515V31.5022H113.848V35.5298H116.173V22.4862H114.778ZM113.848 28.3188H110.593V23.7569H113.848V28.3166V28.3188ZM102.455 26.0917V29.2729H103.85V32.3486H100.672V23.7591H105.167V20.5757H99.975V22.3785H98.3467V33.5138H99.975V35.5298H104.857V33.516H106.175V26.0917H102.455ZM126.325 20.5757V22.3785H124.698V24.2889H123.613V26.1972H121.598V24.2889H120.513V22.3785H118.885V20.5757H118.188V35.5298H120.513V29.9083H122.218V31.8188H122.915V29.9105H124.698V35.532H127.023V20.5757H126.325Z" fill="#727375"/>
</g>
</svg>
