<svg width="155" height="56" viewBox="0 0 155 56" fill="none" xmlns="http://www.w3.org/2000/svg">
<path fill-rule="evenodd" clip-rule="evenodd" d="M5.45702 6.72H147.359L155 0V50.4C155.003 53.4899 152.558 55.9967 149.543 56H5.45542C4.00926 55.9988 2.62216 55.4086 1.59636 54.3579C0.57367 53.3071 -0.00159463 51.884 3.32019e-06 50.4V12.32C3.32019e-06 10.8376 0.573669 9.41294 1.59796 8.36212C2.62415 7.31103 4.01031 6.72075 5.45702 6.72Z" fill="#002E5B"/>
<path fill-rule="evenodd" clip-rule="evenodd" d="M25.5081 37.0555C26.0402 36.7343 26.4893 36.2896 26.8232 35.7576C27.1732 35.1877 27.4145 34.5552 27.5343 33.8915C27.6733 33.1766 27.7421 32.4503 27.7421 31.7223C27.7421 30.9943 27.667 30.2679 27.5167 29.5548C27.3809 28.8795 27.1284 28.2371 26.7721 27.6524C26.4328 27.1035 25.9764 26.6416 25.4378 26.3018C24.8333 25.9417 24.143 25.7632 23.4452 25.7863C22.7364 25.7605 22.0347 25.939 21.419 26.3018C20.8852 26.6362 20.4362 27.0924 20.1038 27.6359C19.7564 28.213 19.5153 28.8512 19.3927 29.5185C19.2537 30.2449 19.185 30.9844 19.185 31.7223C19.185 32.4519 19.2601 33.1783 19.4103 33.8915C19.5414 34.5536 19.7874 35.1861 20.1374 35.7576C20.7311 36.6041 21.6011 37.2014 22.5877 37.4398C23.5743 37.6782 24.6113 37.5418 25.5081 37.0555ZM19.1163 22.4807V24.8277H19.185C19.7246 23.8894 20.5197 23.1351 21.4717 22.6585C22.4263 22.2015 23.4681 21.9707 24.5206 21.9832C25.7798 21.9503 27.0294 22.2303 28.1575 22.8018C29.1467 23.3239 30.0112 24.0651 30.6871 24.971C31.3752 25.9112 31.8808 26.9793 32.1764 28.1169C32.5024 29.339 32.6654 30.6006 32.6606 31.8672C32.6654 33.0696 32.5008 34.267 32.1764 35.4216C31.8742 36.5156 31.3743 37.541 30.7031 38.4439C30.0439 39.3217 29.2039 40.0378 28.2438 40.5406C27.1725 41.083 25.9902 41.3513 24.797 41.323C23.7372 41.3346 22.6887 41.0981 21.7306 40.6312C20.7994 40.1731 20.0039 39.4668 19.4263 38.5856H19.3592V47.2952H14.4391V22.4807H19.1163ZM40.318 15.479V40.8602H35.3979V15.479H40.3196H40.318ZM48.5634 28.1334C48.6545 27.1385 48.9789 26.427 49.5334 26.0004C50.0879 25.5738 50.8501 25.3614 51.8184 25.3614C52.2302 25.3595 52.6414 25.3892 53.0489 25.4503C53.4052 25.4997 53.7456 25.6199 54.0556 25.8044C54.3464 25.9856 54.5861 26.2442 54.7475 26.5522C54.9392 26.9557 55.0287 27.4004 55.008 27.8484C55.0331 28.0698 55.0051 28.2941 54.9266 28.5017C54.848 28.7093 54.7212 28.8939 54.5573 29.0392C54.1686 29.3437 53.7196 29.5562 53.2422 29.6618C52.6158 29.8167 51.9798 29.9237 51.3375 29.9814C50.62 30.0522 49.8929 30.1461 49.1547 30.2663C48.4132 30.3849 47.6781 30.5463 46.9543 30.7456C46.262 30.9306 45.6058 31.237 45.0144 31.6515C44.4343 32.0715 43.9597 32.6265 43.6289 33.2705C43.2437 34.0694 43.0591 34.9551 43.092 35.8465C43.0712 36.6898 43.231 37.5265 43.5586 38.3007C43.8542 38.9661 44.3001 39.5508 44.8578 40.0054C45.433 40.4665 46.093 40.8058 46.7993 41.0018C47.5775 41.2209 48.3812 41.3279 49.1882 41.3214C50.2924 41.3214 51.3902 41.1534 52.4448 40.8239C53.4987 40.4977 54.4534 39.8977 55.2173 39.0814C55.2617 39.6867 55.3781 40.2841 55.564 40.8602H60.5513C60.2757 40.3326 60.1107 39.7513 60.0671 39.1538C59.9725 38.3637 59.9261 37.5683 59.9281 36.7722V27.2094C59.9281 26.0959 59.6868 25.2016 59.201 24.5246C58.7133 23.8472 58.0712 23.3042 57.3314 22.9435C56.5323 22.554 55.6786 22.2967 54.8018 22.1809C53.8948 22.0511 52.9802 21.9851 52.0645 21.9832C51.0697 21.9837 50.0774 22.0853 49.1019 22.2863C48.169 22.4679 47.2723 22.8098 46.4493 23.2976C45.6714 23.7645 45.0078 24.4091 44.5094 25.1818C43.9697 26.0675 43.6706 27.0862 43.6433 28.1317H48.5618L48.5634 28.1334ZM55.0064 33.7498C54.9991 34.1301 54.9703 34.5095 54.9201 34.8863C54.8562 35.3821 54.6964 35.8581 54.4535 36.2912C54.1658 36.7854 53.7616 37.1971 53.2742 37.4821C52.7437 37.8148 51.9926 37.9811 51.0227 37.9795C50.6392 37.9795 50.2556 37.9465 49.8801 37.8741C49.5369 37.8131 49.2079 37.6863 48.9102 37.5002C48.6321 37.3218 48.4049 37.0706 48.2518 36.7722C48.0801 36.4202 47.9967 36.0295 48.0089 35.6357C47.9929 35.2289 48.0776 34.8254 48.2518 34.4614C48.4068 34.1616 48.6257 33.9014 48.891 33.6971C49.177 33.4863 49.4934 33.3249 49.8274 33.2178C50.1853 33.0992 50.5497 33.0037 50.9188 32.9329C51.3119 32.8621 51.705 32.8028 52.0965 32.755C52.4896 32.7072 52.8635 32.6479 53.223 32.5771C53.5634 32.5112 53.899 32.4223 54.2282 32.3103C54.5147 32.2183 54.7801 32.067 55.008 31.8656V33.7515L55.0064 33.7498ZM73.2294 22.4823V25.8588H69.626V34.9571C69.626 35.8119 69.7651 36.3802 70.0415 36.6635C70.3196 36.9484 70.8725 37.0917 71.705 37.0917C71.983 37.0917 72.2483 37.0785 72.5024 37.0555C72.7469 37.0341 72.9897 36.9978 73.2294 36.9501V40.8585C72.7708 40.9343 72.3081 40.9822 71.844 41.0018C71.3479 41.0245 70.8513 41.036 70.3547 41.0364C69.6296 41.0394 68.9052 40.986 68.1879 40.8767C67.5552 40.7866 66.9444 40.5755 66.387 40.2541C65.865 39.9441 65.4385 39.4885 65.1566 38.9397C64.8288 38.243 64.674 37.4733 64.7059 36.6997V25.8588H61.7274V22.4823H64.7075V16.9712H69.626V22.4807L73.2294 22.4823ZM75.3771 19.6378V15.479H80.2972V19.6378H75.3771ZM80.2972 22.4823V40.8585H75.3771V22.4823H80.2972ZM94.8993 37.0555C95.4314 36.7343 95.882 36.2896 96.216 35.7576C96.5644 35.1877 96.8057 34.5552 96.9255 33.8915C97.0645 33.1783 97.1332 32.4519 97.1332 31.7239C97.1332 30.9943 97.0581 30.2679 96.9095 29.5548C96.7721 28.8795 96.5196 28.2371 96.1633 27.6541C95.824 27.1051 95.3677 26.6431 94.829 26.3035C94.2249 25.9437 93.5353 25.7651 92.8379 25.7879C92.1288 25.7613 91.4265 25.9393 90.8101 26.3018C90.278 26.6362 89.8274 27.0924 89.495 27.6359C89.148 28.2136 88.9074 28.8524 88.7855 29.5202C88.6449 30.2449 88.5762 30.9844 88.5778 31.7239C88.5778 32.4519 88.6529 33.1799 88.8015 33.8915C88.9341 34.5536 89.1802 35.1861 89.5302 35.7576C90.1238 36.6037 90.9935 37.2007 91.9798 37.4391C92.966 37.6775 94.0026 37.5413 94.8993 37.0555ZM88.5075 22.4807V24.8277H88.5762C89.1156 23.8892 89.9108 23.1349 90.8629 22.6585C91.8174 22.2015 92.8593 21.9707 93.9118 21.9832C95.171 21.9503 96.4189 22.2303 97.5471 22.8018C98.5378 23.3239 99.4007 24.0651 100.077 24.971C100.765 25.9115 101.272 26.9804 101.566 28.1169C101.894 29.339 102.057 30.6006 102.052 31.8672C102.055 33.0696 101.892 34.267 101.566 35.4216C101.264 36.5155 100.765 37.541 100.094 38.4439C99.4346 39.3219 98.5941 40.038 97.6334 40.5406C96.5626 41.0827 95.3809 41.3511 94.1882 41.323C93.1279 41.3349 92.0788 41.0983 91.1201 40.6312C90.1901 40.1726 89.3958 39.4664 88.8191 38.5856H88.7488V47.2952H83.8303V22.4807H88.5075ZM116.775 40.8585V38.299H116.673C116.114 39.3037 115.267 40.1108 114.249 40.6098C113.296 41.0746 112.255 41.3175 111.2 41.3214C110.097 41.3583 108.998 41.1771 107.961 40.7877C107.177 40.4781 106.489 39.9563 105.968 39.2774C105.459 38.572 105.11 37.7583 104.946 36.8957C104.741 35.8722 104.643 34.8293 104.653 33.7844V22.4823H109.572V32.8621C109.572 34.3774 109.803 35.5105 110.265 36.255C110.727 37.0028 111.547 37.375 112.724 37.375C114.064 37.375 115.034 36.9682 115.634 36.1496C116.235 35.3327 116.536 33.987 116.536 32.1143V22.4823H121.454V40.8602H116.777L116.775 40.8585ZM128.988 36.2912C129.198 36.6701 129.489 36.9995 129.837 37.2515C130.2 37.5068 130.604 37.6945 131.032 37.8016C131.491 37.9218 131.962 37.9811 132.435 37.9795C132.802 37.9771 133.168 37.9352 133.527 37.8543C133.889 37.7785 134.241 37.6468 134.565 37.4639C134.874 37.2894 135.141 37.0472 135.345 36.7524C135.562 36.423 135.673 36.031 135.657 35.6324C135.657 34.8748 135.166 34.3065 134.185 33.9277C132.845 33.4481 131.473 33.0683 130.08 32.7912C129.364 32.6249 128.664 32.4289 127.983 32.2032C127.34 31.9963 126.727 31.6969 126.165 31.3138C125.642 30.9568 125.205 30.4834 124.883 29.9286C124.543 29.3059 124.375 28.5989 124.398 27.8847C124.357 26.8672 124.591 25.8582 125.073 24.9694C125.511 24.2242 126.125 23.6063 126.858 23.1741C127.632 22.722 128.475 22.4089 129.351 22.2484C130.288 22.0694 131.239 21.9801 132.192 21.9816C133.14 21.9803 134.086 22.0763 135.016 22.2682C135.879 22.4378 136.705 22.7623 137.459 23.2268C138.177 23.6814 138.787 24.2957 139.243 25.0221C139.749 25.8785 140.042 26.8503 140.091 27.8501H135.414C135.345 26.8783 134.987 26.2195 134.34 25.8769C133.629 25.5184 132.845 25.3415 132.053 25.3614C131.753 25.3626 131.452 25.3802 131.154 25.4141C130.85 25.4443 130.552 25.5221 130.27 25.6446C130.008 25.7599 129.778 25.9378 129.594 26.1602C129.399 26.4178 129.301 26.7396 129.318 27.0661C129.311 27.2759 129.352 27.4844 129.436 27.6756C129.52 27.8669 129.645 28.0359 129.802 28.1696C130.176 28.4825 130.606 28.7164 131.066 28.8614C131.651 29.059 132.247 29.2188 132.849 29.3423C133.52 29.4839 134.203 29.6388 134.894 29.8035C135.602 29.9682 136.302 30.1708 136.989 30.4079C137.638 30.6286 138.252 30.9465 138.809 31.3501C139.334 31.7355 139.771 32.2329 140.091 32.8077C140.433 33.4698 140.601 34.211 140.575 34.9588C140.622 35.9541 140.409 36.9442 139.958 37.8257C139.507 38.7073 138.835 39.448 138.012 39.9708C137.211 40.4846 136.324 40.8404 135.396 41.0199C133.4 41.4271 131.345 41.4209 129.351 41.0018C128.413 40.8105 127.516 40.4492 126.7 39.9345C125.926 39.4374 125.274 38.7627 124.795 37.963C124.267 37.0295 123.985 35.9689 123.98 34.8879H128.658C128.645 35.3777 128.759 35.8622 128.988 36.2912Z" fill="#FDE428"/>
</svg>
