<svg width="155" height="56" viewBox="0 0 155 56" fill="none" xmlns="http://www.w3.org/2000/svg">
<mask id="mask0_3_866" style="mask-type:alpha" maskUnits="userSpaceOnUse" x="76" y="0" width="70" height="56">
<path d="M76.9253 0H145.313V56H76.9253V0Z" fill="white"/>
</mask>
<g mask="url(#mask0_3_866)">
<path fill-rule="evenodd" clip-rule="evenodd" d="M114.798 5.46559C114.498 5.05235 114.241 5.07845 113.991 5.07845H97.9524C96.0868 5.07845 94.3979 5.87665 92.829 7.12288C89.688 9.60665 87.5723 13.0561 86.5219 17.7757C84.9214 24.9681 83.1458 32.0932 81.3535 39.203C79.6412 45.9866 82.8373 51.4044 87.8824 50.9368C90.5933 50.6867 93.3275 50.9107 96.0501 50.8802C96.8971 50.8737 97.739 50.8585 98.586 50.5322C102.957 48.8358 105.668 44.9274 107.119 39.4466C108.193 35.4121 109.121 31.3124 110.062 27.2235C110.418 25.6685 110.923 24.1569 111.097 22.5431C110.578 22.1081 110.063 22.3039 109.576 22.2995C106.904 22.2778 104.231 22.2625 101.557 22.3039C100.608 22.3191 99.4979 21.8167 98.756 22.5518C98.0325 23.2739 98.0458 24.7963 97.7557 25.973C97.1438 28.4589 96.5519 30.9535 95.9367 33.5178C97.4172 33.9201 98.8277 33.4025 100.227 33.8875C99.8097 35.5992 99.4129 37.1564 99.0645 38.7311C98.9394 39.2966 98.8094 39.6837 98.2875 39.6837C95.6266 39.662 92.9624 39.6707 90.1198 39.6707C90.695 37.2565 91.2085 35.0729 91.7337 32.8892C92.9391 27.8717 94.1428 22.8606 95.3565 17.8474C95.7283 16.3032 95.7367 16.3032 97.0154 16.2945H100.5C104.078 16.2945 107.659 16.3054 111.237 16.2793C111.635 16.2793 112.134 16.5642 112.341 15.6769C113.144 12.234 113.991 8.8041 114.798 5.46559ZM119.758 50.8345C121.722 50.8737 123.748 51.2848 125.638 50.6758C130.548 49.0881 134.06 45.2254 135.657 38.7789C137.359 31.904 138.995 24.9986 140.637 18.0976C141.054 16.3467 141.409 14.5959 141.475 12.7124C141.655 7.48392 138.303 4.22153 135.16 4.3281C132.237 4.42598 129.311 4.34333 126.389 4.3542C125.838 4.3542 125.29 4.3542 124.741 4.54995C119.75 6.28336 116.334 10.2396 114.725 16.7361C114.043 19.483 113.391 22.243 112.737 25.0073C111.565 29.9618 110.32 34.8945 109.258 39.8925C107.871 46.4303 111.295 51.0064 115.225 50.8454C116.734 50.7889 118.246 50.8389 119.758 50.8389V50.8345ZM83.7943 12.6472C86.1034 6.7314 89.6213 2.68386 94.4812 0.641603C94.9764 0.434985 95.615 0.719901 95.9818 0H136.841C136.931 0.293615 137.136 0.289266 137.327 0.350164C141.26 1.5181 143.763 4.65217 144.872 9.73714C145.077 10.6876 144.943 11.7229 145.312 12.6298C145.127 15.1745 144.818 17.6713 144.171 20.1159C143.353 23.2043 142.741 26.3884 141.957 29.4985C140.767 34.2181 139.87 39.0617 138.408 43.6638C136.127 48.9728 132.904 52.8485 128.483 54.9038C126.968 55.6172 125.37 55.9815 123.759 55.9804C111.512 55.9587 99.2679 55.9043 87.0237 56C82.729 56.037 77.8373 52.1091 77.1587 45.0297C77.1154 44.5729 77.0054 44.1314 76.927 43.6812C76.982 40.5624 77.6606 37.6306 78.3942 34.6922C80.2231 27.3584 81.8203 19.9245 83.7943 12.6472Z" fill="black"/>
</g>
<path fill-rule="evenodd" clip-rule="evenodd" d="M138.409 43.6637C139.872 39.0616 140.769 34.218 141.959 29.4984C142.743 26.3883 143.354 23.2064 144.173 20.1158C144.82 17.6712 145.13 15.1744 145.313 12.6253C146.672 12.6406 148.029 12.6319 149.391 12.6688C151.21 12.721 152.636 13.7737 153.808 15.5898C154.336 16.4075 154.463 17.482 155 18.2584V23.0215C154.101 24.8049 154.003 26.9429 153.518 28.9068C153.008 30.9621 152.661 33.0936 152.189 35.1706C150.924 40.7493 146.862 43.866 143.386 43.6746C141.729 43.5876 140.067 43.6637 138.409 43.6637ZM60.7666 23.8654H64.913C65.2848 23.8654 65.5782 23.7892 65.7132 23.2064C66.0767 21.6622 66.4835 20.131 66.902 18.4868C65.4298 18.2323 64.0844 18.4259 62.7422 18.3497C62.2104 18.3193 62.0487 18.7978 61.9186 19.2937C61.5435 20.7074 61.1984 22.1319 60.7666 23.861V23.8654ZM69.9897 36.5191C70.9767 36.5191 71.8753 36.4778 72.7689 36.5343C73.4492 36.5778 73.7426 36.2146 73.9127 35.362C74.4062 32.8891 75.0014 30.4423 75.4965 27.9629C76.0401 25.253 75.0797 23.5369 72.984 23.4304C71.827 23.3651 70.6666 23.3651 69.5095 23.4304C67.2638 23.5717 65.6682 25.1616 64.8963 27.7955C64.0894 30.5359 63.6042 33.4416 62.9623 36.3429C63.8793 36.6692 64.7396 36.3908 65.5715 36.5387C66.4202 36.6866 66.7119 36.1124 66.902 35.1772C67.3038 33.2088 67.7289 31.2492 68.1757 29.3005C68.3008 28.7481 68.4025 28.1043 69.0227 28.15C69.9163 28.2109 70.8233 27.9977 71.7886 28.3174L69.9897 36.5191ZM28.6124 17.9017C27.5821 17.9017 26.8251 17.9909 26.0882 17.8734C25.1963 17.7321 24.8511 18.2497 24.6077 19.2893C23.6291 23.5022 22.5504 27.678 21.6 31.9039C21.2699 33.372 20.7181 34.7878 20.6581 36.5191C24.0242 36.5191 27.292 36.5039 30.5597 36.5321C31.1399 36.5321 31.34 36.1363 31.485 35.5034C31.8768 33.8069 32.3453 32.1323 32.6921 30.4184C33.4874 26.5101 34.1359 27.1691 30.6381 27.0799C30.0262 27.0647 29.7245 27.4344 29.5611 28.1608C29.3493 29.1048 29.0742 30.0269 28.8642 30.9752C28.7575 31.4689 28.6174 31.8234 28.1689 31.7886C27.277 31.7168 26.3683 31.9604 25.3596 31.5798L28.6107 17.8995L28.6124 17.9017ZM50.9499 27.1386L53.1107 17.8995C52.0036 17.8995 51.1083 17.9387 50.208 17.8843C49.6478 17.8539 49.4294 18.1714 49.276 18.8478C48.5912 21.8019 47.887 24.7483 47.1637 27.6867C46.8319 29.0417 47.167 30.1531 47.8772 31.1035C48.3074 31.682 48.9659 31.7125 49.5261 32.0714C49.4244 33.5938 48.7425 34.8988 48.6725 36.456C48.9109 36.4778 49.1076 36.5321 49.306 36.5169C50.2514 36.443 51.3868 36.991 52.0903 36.2733C52.6522 35.7013 52.7439 34.2941 52.9789 33.2306C53.1657 32.3867 53.4808 31.9452 54.1844 31.7299C56.0817 31.1492 57.3638 29.5919 57.969 27.1299C58.4441 25.1899 58.946 23.2629 59.3811 21.3076C60.2414 17.4667 60.7482 17.9365 57.3738 17.893C56.7819 17.8843 56.4685 18.1431 56.3001 18.937C55.95 20.579 55.5165 22.1907 55.118 23.8197C54.2177 27.504 54.2177 27.5062 51.235 27.3083C51.1884 27.3083 51.1433 27.2561 50.9499 27.1386ZM8.63568 36.5191C9.47763 36.5191 10.3779 36.4973 11.2749 36.5278C11.7967 36.5474 12.0435 36.3212 12.2186 35.6034C12.4903 34.4877 12.4936 33.0414 13.1689 32.3454C13.9091 31.5755 15.0128 32.1323 15.9565 32.0627C18.8208 31.8582 20.5347 30.2096 21.4467 26.6819C21.7834 25.3769 22.1052 24.0589 22.367 22.7235C22.9472 19.77 21.8835 17.9452 19.5494 17.9039C17.6887 17.8734 15.8214 17.98 13.9641 17.8669C13.0072 17.8082 12.677 18.3193 12.4203 19.4263C11.2316 24.5831 9.9778 29.7116 8.73571 34.8422C8.61901 35.3359 8.41561 35.7992 8.63902 36.5191H8.63568ZM32.6954 36.3668C33.6824 36.6496 34.5911 36.4277 35.4814 36.5321C36.0916 36.6039 36.4084 36.2646 36.5734 35.5425C36.7768 34.6595 37.0169 33.7939 37.2036 32.9087C37.307 32.4128 37.4437 32.0322 37.8872 32.067C38.7792 32.1279 39.6878 31.8713 40.5881 32.2454C40.6098 33.7417 39.8329 34.964 39.8962 36.5191C40.7898 36.5191 41.6435 36.4821 42.4938 36.5321C43.1523 36.5691 43.4607 36.2646 43.6575 35.3925C44.6361 31.1144 45.6948 26.8668 46.6852 22.5887C47.2937 19.9396 46.2183 18.0039 44.111 17.9082C43.0033 17.8476 41.8941 17.8491 40.7865 17.9126C38.5608 18.0648 36.8785 19.5742 36.1433 22.2233C34.8578 26.845 33.8425 31.595 32.6954 36.3668ZM83.796 12.6471C81.822 19.9244 80.2198 27.3583 78.3942 34.6921C77.6623 37.6305 76.9804 40.5644 76.922 43.6833L38.1873 43.6615C27.7455 43.6615 17.3053 43.6637 6.86342 43.6528C6.16151 43.6528 5.44127 43.6724 4.75604 43.4897C0.8714 42.4675 -0.54241 38.2916 0.182835 34.0049C0.936422 29.5745 1.91675 25.2051 2.84706 20.827C3.96411 15.5528 8.02714 12.5905 11.3166 12.6058C35.4747 12.7058 59.6379 12.6514 83.7977 12.6493" fill="#2785C3"/>
<path fill-rule="evenodd" clip-rule="evenodd" d="M132.036 16.3597C129.661 16.3597 127.502 16.3553 125.343 16.364C123.953 16.3705 123.96 16.3814 123.561 18.0539C122.667 21.8144 121.762 25.5661 120.872 29.3309C120.07 32.7108 119.286 36.0949 118.448 39.6749C120.235 39.6749 121.891 39.7031 123.544 39.664C124.493 39.6444 125.608 40.1316 126.35 39.4465C127.091 38.7614 127.062 37.2085 127.346 36.0297C128.9 29.5919 130.422 23.1411 132.036 16.3597ZM119.76 50.8388C118.251 50.8388 116.735 50.7887 115.225 50.8475C111.297 51.0019 107.872 46.4324 109.26 39.8924C110.322 34.8944 111.57 29.9616 112.742 25.0028C113.393 22.2428 114.048 19.485 114.726 16.7381C116.339 10.2394 119.753 6.2854 124.743 4.54981C125.295 4.35842 125.84 4.35842 126.392 4.35407C129.313 4.34319 132.239 4.43019 135.162 4.32797C138.308 4.2214 141.657 7.48814 141.477 12.7123C141.41 14.598 141.057 16.3488 140.639 18.0996C138.996 24.9985 137.359 31.9039 135.659 38.7766C134.061 45.2253 130.55 49.0879 125.64 50.6735C123.75 51.2824 121.722 50.8692 119.76 50.8388ZM114.8 5.46545C113.993 8.80397 113.146 12.2338 112.342 15.6789C112.139 16.5641 111.637 16.2748 111.239 16.2792C107.661 16.3053 104.08 16.2944 100.502 16.2944H97.0172C95.7417 16.3031 95.7301 16.3031 95.3583 17.8473C94.1445 22.8605 92.9408 27.8737 91.7354 32.8891C91.2135 35.0749 90.6967 37.2607 90.1248 39.6727C92.9641 39.6727 95.6267 39.664 98.2892 39.6792C98.8111 39.6836 98.9428 39.2986 99.0678 38.7288C99.4146 37.1563 99.8131 35.5991 100.228 33.8874C98.8278 33.4024 97.4206 33.9244 95.9385 33.5177C96.5537 30.9556 97.1455 28.4544 97.7574 25.9728C98.0492 24.794 98.0342 23.2781 98.7577 22.5517C99.4997 21.8165 100.61 22.319 101.559 22.3037C104.23 22.2668 106.905 22.2776 109.578 22.3037C110.063 22.3037 110.58 22.108 111.1 22.543C110.925 24.1589 110.42 25.6662 110.063 27.2256C109.126 31.3145 108.196 35.412 107.124 39.4487C105.667 44.9295 102.959 48.8378 98.5877 50.5299C97.7407 50.8562 96.8988 50.8736 96.0518 50.8801C93.3293 50.9105 90.595 50.6865 87.8841 50.9388C82.8407 51.4064 79.643 45.9865 81.3552 39.2073C83.1492 32.0909 84.9231 24.9658 86.5236 17.7755C87.574 13.0559 89.6914 9.60651 92.8308 7.1184C94.3979 5.87869 96.0902 5.07832 97.9558 5.07832H113.995C114.243 5.07832 114.501 5.05222 114.8 5.46545Z" fill="#E62727"/>
<path fill-rule="evenodd" clip-rule="evenodd" d="M132.036 16.3599C130.422 23.1413 128.901 29.5921 127.346 36.0299C127.061 37.2087 127.091 38.7572 126.35 39.4467C125.607 40.1318 124.493 39.6446 123.544 39.6642C121.889 39.7012 120.235 39.6751 118.448 39.6751C119.286 36.0973 120.073 32.7109 120.87 29.3311C121.762 25.5663 122.667 21.8124 123.561 18.0519C123.959 16.3773 123.953 16.3707 125.343 16.362C127.502 16.3555 129.661 16.3599 132.036 16.3599Z" fill="black"/>
<path fill-rule="evenodd" clip-rule="evenodd" d="M38.6491 27.2477C38.6958 26.891 38.7174 26.6278 38.7658 26.3733C39.4543 22.4411 39.7461 22.1975 42.9789 22.8152L42.8188 23.5633C41.9185 27.4999 41.9185 27.4999 38.6491 27.2477ZM14.4209 27.339C14.2609 26.6648 14.4209 26.3886 14.4926 26.0797C15.4079 22.2301 15.4079 22.2301 18.6607 22.7956C18.3972 23.9918 18.1205 25.175 17.8721 26.369C17.7387 27.0236 17.4769 27.3695 16.9251 27.3477C16.0831 27.3086 15.2412 27.339 14.4209 27.339Z" fill="#2785C3"/>
</svg>
