<svg width="155" height="56" viewBox="0 0 155 56" fill="none" xmlns="http://www.w3.org/2000/svg">
<path d="M35.5246 20.4166L35.4633 20.1211C33.9806 14.1795 28.3679 12.3719 21.8998 15.0938L20.8349 14.005C24.024 11.7484 27.1975 10.5713 29.8534 10.8923C33.821 11.3832 35.7613 15.0938 35.5246 20.4166ZM29.7722 32.9047C25.6207 41.5729 18.1204 47.5819 13.0195 46.9561C7.92573 46.3257 7.1516 38.7905 11.3031 30.113L11.5611 29.5826L11.5739 40.4585C11.5497 43.2199 13.1706 44.5181 14.3325 43.4223L29.5925 28.1588C29.857 27.8716 30.0727 27.48 30.2197 27.0205C30.3668 26.5609 30.4403 26.0483 30.4337 25.53C30.4276 25.0128 30.3422 24.5064 30.1853 24.057C30.0284 23.6075 29.805 23.2293 29.5355 22.957L23.3525 17.1108C25.0234 16.2895 26.6272 15.901 28.0528 16.0685C33.1495 16.706 33.9151 24.2412 29.7722 32.9117V32.9047ZM10.3664 51.6322C5.68178 51.0552 3.81562 45.9884 5.03454 39.0859C5.01747 40.2086 5.14169 41.325 5.3995 42.3662C7.22574 49.7525 15.4431 50.7458 23.7417 44.6181C23.9128 44.4971 24.0853 44.3552 24.2535 44.2343C19.5903 49.1732 14.3981 52.1254 10.3664 51.6275V51.6345V51.6322ZM15.7624 13.0233L25.9985 23.6084C26.7541 24.3528 26.8453 26.2977 26.0384 27.1562L15.7011 37.5017C14.9099 38.2531 13.8008 37.3667 13.8207 35.4707L13.7723 14.9053C13.8179 13.1908 14.8529 12.1579 15.7624 13.0093V13.0233ZM39.4665 16.82C37.3223 8.17041 28.4121 6.26277 18.7591 11.8671L14.4808 7.46551C13.1464 6.21624 11.6224 7.73537 11.5497 10.2688L11.554 17.4178C3.24251 25.6068 -1.58041 37.3667 0.471078 45.6533C2.84904 55.2288 13.5057 56.5409 24.2692 48.5753C35.037 40.619 41.8416 26.4117 39.4665 16.8269V16.82ZM48.0231 29.3081L47.0936 34.9333C46.9553 35.7871 46.8484 36.5664 46.7657 37.2364C46.6773 37.9437 46.6403 38.4462 46.6403 38.7649C46.6403 39.3697 46.7386 39.8257 46.9425 40.1747C47.0549 40.3482 47.1875 40.483 47.3325 40.5709C47.4776 40.6588 47.632 40.6982 47.7865 40.6865C48.3354 40.6865 48.8999 40.1747 49.4887 39.1674C50.0746 38.16 50.6363 36.7083 51.1809 34.8123C51.8181 32.4753 52.353 30.0677 52.7819 27.6075C53.1782 25.2485 53.3878 23.3874 53.3878 22.0706C53.4114 21.2593 53.2874 20.4548 53.0314 19.7582C52.7933 19.172 52.4897 18.8718 52.139 18.8718C51.3278 18.8718 50.5864 19.7326 49.9107 21.4239C49.2349 23.1385 48.6048 25.7603 48.0288 29.3081H48.0231ZM42.1809 16.25C43.5613 16.0667 44.9389 15.8294 46.3124 15.5381C47.6225 15.2613 48.8785 14.9333 50.096 14.5494L49.0724 20.5701C50.096 18.2437 51.0697 16.5315 52.0078 15.4753C52.9245 14.3889 53.8754 13.8701 54.8776 13.8701C56.2405 13.8701 57.3012 14.575 58.034 15.9871C58.7838 17.4132 59.1474 19.4302 59.1474 22.0427C59.1474 24.2482 58.8979 26.5792 58.3861 29.0056C57.8751 31.4244 57.1586 33.7142 56.2576 35.808C55.1927 38.2461 54.0792 40.0746 52.8831 41.2914C51.7476 42.4831 50.4268 43.12 49.0767 43.1269C48.038 43.1574 47.0251 42.5982 46.2112 41.5449L45.1576 48.0798C45.0832 48.4784 45.0312 48.8872 45.0022 49.3011C44.9656 49.7015 44.9494 50.1061 44.9538 50.5109C44.9538 51.2972 45.0878 51.8695 45.3715 52.1859C45.6566 52.5023 46.2311 52.6977 47.0936 52.7907V54.3099H37.318V52.7163C37.3551 52.7163 37.3993 52.7163 37.4606 52.6884C37.5073 52.6691 37.5551 52.6581 37.6032 52.6558C38.2105 52.6558 38.6653 52.3999 38.9675 51.8765C39.2697 51.3507 39.5805 49.9921 39.9084 47.7774L43.799 21.7682C43.8688 21.3495 43.9216 20.9261 43.9629 20.5236C43.9971 20.2212 44.0171 19.9117 44.0242 19.6023C44.0242 18.8835 43.8931 18.4066 43.6393 18.1437C43.377 17.8482 42.8894 17.7156 42.1809 17.7156V16.25Z" fill="white"/>
<path d="M60.1182 1.90067C61.527 1.71375 62.9319 1.45618 64.331 1.1283C65.6782 0.811915 66.9542 0.448995 68.1545 0L62.7913 34.8797C62.7471 35.1193 62.7058 35.3613 62.6687 35.6055C62.6159 35.8963 62.5832 36.1964 62.5689 36.4989C62.5689 36.9107 62.6145 37.2387 62.7129 37.4667C62.7627 37.5792 62.829 37.6697 62.9056 37.7298C62.9823 37.79 63.067 37.8178 63.152 37.811C63.3487 37.811 63.5654 37.5946 63.8149 37.1456C64.0644 36.7083 64.5477 35.552 65.2648 33.6839L66.1244 34.7541C65.0438 37.7086 64.0074 39.8605 63.0294 41.1982C62.0543 42.5289 61.0392 43.1873 59.9785 43.1873C59.0447 43.1873 58.312 42.7639 57.8087 41.8961C57.3012 41.0354 57.0517 39.7861 57.0517 38.1739C57.0517 37.3876 57.3083 35.2822 57.8287 31.8763L57.8786 31.539L61.4398 8.83101C61.4726 8.62861 61.5225 8.31222 61.5752 7.90278C61.8033 6.41155 61.9031 5.45075 61.9031 5.03433C61.9031 4.46203 61.7834 4.04561 61.5425 3.76877C61.2039 3.45731 60.8167 3.31494 60.429 3.35932H60.1225L60.1182 1.90067Z" fill="white"/>
<path d="M76.9279 19.965C76.9508 19.2589 76.8344 18.5593 76.5958 17.969C76.4998 17.7373 76.3698 17.5485 76.2176 17.4197C76.0655 17.2909 75.8961 17.2262 75.7247 17.2315C75.2115 17.2315 74.721 17.641 74.2463 18.4738C73.7716 19.3136 73.2227 20.6909 72.5969 22.6404C71.8684 24.9459 71.2952 27.1978 70.8804 29.4218C70.5007 31.2637 70.2884 33.1863 70.2503 35.1285C70.2503 36.0823 70.3643 36.8221 70.5981 37.3805C70.7025 37.6292 70.8431 37.8317 71.0074 37.9698C71.1716 38.1078 71.3543 38.1771 71.539 38.1714C72.1136 38.1714 72.7038 37.6131 73.3125 36.4662C73.9184 35.3239 74.4958 33.7094 75.0404 31.6319C75.6135 29.3218 76.064 27.0629 76.409 24.9133C76.7483 22.7544 76.9236 21.1073 76.9236 19.965H76.9279ZM83.4003 14.8446L80.5348 32.1042V32.1647C80.1014 34.8261 79.879 36.3708 79.879 36.8082C79.879 37.2246 79.9218 37.548 80.023 37.8015C80.0582 37.9177 80.1133 38.0147 80.1816 38.0807C80.25 38.1468 80.3286 38.1791 80.4079 38.1738C80.8712 38.1738 81.4729 37.2595 82.2014 35.417C82.4223 34.8982 82.5906 34.4818 82.7046 34.1933L83.5357 35.2681C82.602 37.9574 81.6739 39.9535 80.723 41.2237C79.7692 42.5009 78.7456 43.1267 77.6536 43.1267C76.7397 43.1267 76.0426 42.7893 75.5722 42.138C75.0903 41.4586 74.8565 40.4909 74.8565 39.1927C74.8565 38.8112 74.8722 38.3203 74.9221 37.7364C74.9634 37.1432 75.0404 36.3848 75.1388 35.4496C74.2748 38.0435 73.3282 39.9791 72.3146 41.2307C71.3447 42.4689 70.1473 43.1369 68.9159 43.1267C67.6257 43.1267 66.6106 42.466 65.8622 41.1422C65.1123 39.8046 64.7402 37.99 64.7402 35.6868C64.7402 33.0254 65.0923 30.2291 65.8208 27.2723C66.5365 24.348 67.4988 21.7354 68.7148 19.4881C69.67 17.6805 70.6594 16.2963 71.6916 15.3239C72.592 14.4172 73.6234 13.9155 74.6811 13.8699C75.5893 13.8699 76.2978 14.2398 76.8253 14.9586C77.3499 15.6984 77.6978 16.8128 77.8617 18.2993L78.3935 14.8446H83.4017H83.4003Z" fill="white"/>
<path d="M81.7309 17.2317V15.6381C83.128 15.3822 84.5394 15.0682 85.9807 14.7122C87.4092 14.3563 88.1876 14.1795 88.2945 14.1795C88.8676 14.1795 89.6204 18.3344 90.5328 26.649C90.902 29.9618 91.2057 32.6278 91.4466 34.6239C92.5315 31.0086 93.2714 28.3752 93.6735 26.7211C94.0755 25.074 94.2722 23.8596 94.2722 23.078C94.2722 22.4731 93.9358 21.7356 93.2686 20.9005C92.6057 20.0536 92.2607 19.0859 92.2607 18.0111C92.2457 17.4574 92.3005 16.9046 92.4217 16.3868C92.5428 15.8691 92.7277 15.3973 92.9649 15.0007C93.2103 14.6189 93.5005 14.3221 93.818 14.1282C94.1356 13.9343 94.4739 13.8473 94.8125 13.8724C95.5738 13.8724 96.1754 14.2469 96.6046 15.0007C97.0266 15.7591 97.2475 16.8223 97.2475 18.1786C97.2475 19.8792 96.7486 22.622 95.762 26.4001C94.7712 30.1618 93.4197 34.3959 91.7089 39.1417C89.7715 44.546 88.0023 48.4706 86.4198 50.9575C84.8302 53.4421 83.3077 54.6728 81.8336 54.6728C80.8584 54.6728 80.0943 54.3168 79.5369 53.6026C79.2625 53.2554 79.0431 52.8059 78.897 52.2919C78.7509 51.7779 78.6824 51.2142 78.6972 50.6481C78.6972 49.5175 78.9395 48.5916 79.4257 47.8448C79.9246 47.0934 80.5804 46.6956 81.2562 46.7351C81.8378 46.7351 82.4594 47.119 83.128 47.8657C83.791 48.6311 84.24 48.994 84.4624 48.994C84.863 48.994 85.3135 48.4427 85.8211 47.3423C86.3457 46.2326 86.608 45.1904 86.608 44.1807C86.608 43.4433 86.5652 42.5011 86.484 41.3658C86.3834 39.9677 86.2622 38.5738 86.1204 37.1852C85.8139 33.9469 85.4718 30.7179 85.0968 27.5004C84.8326 25.1949 84.5212 22.9044 84.163 20.6329C83.9178 19.1998 83.6712 18.267 83.4174 17.8226C83.1722 17.3853 82.7616 17.1712 82.19 17.1712H82.1401C82.0047 17.2083 81.8681 17.2309 81.7309 17.2387" fill="white"/>
<path d="M104.068 35.324C102.987 37.8249 101.926 39.7395 100.894 41.0562C99.8706 42.4009 98.9383 43.0593 98.09 43.0593C97.7888 43.0822 97.4881 42.9965 97.2094 42.8084C96.9307 42.6202 96.6809 42.3341 96.4776 41.9705C96.0603 41.141 95.8469 40.088 95.8789 39.016C95.8846 38.5274 95.9117 38.0412 95.9616 37.562C96.0057 37.0176 96.0842 36.4127 96.1868 35.7753L99.2662 16.0149H96.0229L96.3251 14.3096C97.7179 13.8118 98.9497 12.723 100.027 11.0294C101.097 9.33579 102.07 6.99543 102.922 3.99902H104.026L102.582 13.9258H105.546L105.247 16.0079H102.193L99.2362 35.096C99.1719 35.4829 99.12 35.8751 99.0808 36.2708C99.0566 36.6198 99.0324 36.9455 99.0324 37.213C99.0324 37.8435 99.1136 38.3297 99.289 38.6647C99.3737 38.8322 99.4812 38.9651 99.603 39.0528C99.7248 39.1404 99.8575 39.1804 99.9904 39.1695C100.38 39.1695 100.833 38.7973 101.373 38.0249C101.906 37.2665 102.589 36.0173 103.405 34.3027L104.068 35.324Z" fill="white"/>
<path d="M107.09 28.8171C109.477 28.631 111.484 27.5609 113.096 25.6253C114.717 23.6618 115.52 21.4587 115.52 18.9578C115.52 18.125 115.389 17.4922 115.131 17.0758C114.881 16.6733 114.492 16.457 113.973 16.457C112.527 16.457 111.189 17.5341 109.96 19.7232C108.732 21.9286 107.779 24.953 107.094 28.8171H107.09ZM106.808 30.9085C106.616 32.1569 106.515 33.4372 106.504 34.7238C106.504 36.3779 106.751 37.6411 107.25 38.5089C107.742 39.3813 108.474 40.028 109.42 40.028C110.36 40.028 111.434 39.3022 112.622 38.246C114.068 36.9084 115.419 35.3128 116.65 33.4885L117.436 35.438C115.664 38.0576 113.997 39.9931 112.425 41.2308C110.865 42.494 109.334 43.1128 107.827 43.1128C106.353 43.1128 105.204 42.38 104.388 40.9423C103.573 39.4837 103.168 37.4457 103.168 34.7773C103.168 32.2392 103.487 29.643 104.122 27.0235C104.734 24.4639 105.615 22.0982 106.725 20.0326C107.79 18.0901 108.962 16.6128 110.222 15.5776C111.44 14.5746 112.784 14.0451 114.148 14.0305C115.384 14.0305 116.355 14.5028 117.072 15.4496C117.784 16.3895 118.149 17.683 118.149 19.3207C118.149 22.2846 117.097 24.8576 115.012 27.0211C112.924 29.173 110.194 30.4642 106.812 30.9062" fill="white"/>
<path d="M130.094 31.318L130.05 35.0635C128.928 37.7505 127.712 39.7675 126.385 41.1121C125.083 42.4296 123.58 43.1192 122.049 43.1012C120.334 43.1012 118.939 42.159 117.856 40.2513C116.789 38.3763 116.253 35.8824 116.253 32.7696C116.253 30.4921 116.555 28.168 117.161 25.7951C117.756 23.4338 118.611 21.2697 119.683 19.4091C120.665 17.7155 121.771 16.3848 122.992 15.4775C124.154 14.5645 125.427 14.0853 126.717 14.0747C128.06 14.0747 129.12 14.5865 129.914 15.5915C130.704 16.6012 131.102 17.9319 131.102 19.6115C131.102 20.6119 130.901 21.4727 130.488 22.1845C130.305 22.5253 130.08 22.798 129.827 22.9839C129.574 23.1697 129.299 23.2645 129.022 23.2617C128.812 23.277 128.603 23.2182 128.409 23.0893C128.214 22.9604 128.039 22.7645 127.896 22.5149C127.601 21.9827 127.446 21.2823 127.465 20.5654C127.465 20.0024 127.581 19.3556 127.815 18.6112C127.97 18.1808 128.083 17.7132 128.15 17.2246C128.15 16.8827 128.04 16.6082 127.802 16.3871C127.506 16.1482 127.178 16.0361 126.848 16.0614C126.021 16.0614 125.186 16.4802 124.326 17.334C123.442 18.2468 122.68 19.4416 122.086 20.8469C121.315 22.6038 120.705 24.5359 120.277 26.5814C119.871 28.4833 119.661 30.4814 119.654 32.4951C119.654 34.6796 119.986 36.4337 120.665 37.7109C121.001 38.3782 121.423 38.9167 121.9 39.2882C122.378 39.6597 122.9 39.8551 123.429 39.8605C124.346 39.8605 125.251 39.1556 126.131 38.2134C127.028 37.2596 128.502 35.3589 130.094 31.318Z" fill="white"/>
<path d="M128.075 43.1315L134.14 7.063C134.174 6.83734 134.2 6.60936 134.213 6.37672C134.233 6.16587 134.242 5.95267 134.241 5.73928C134.241 5.10185 134.143 4.66449 133.955 4.40858C133.762 4.18757 133.211 4.07125 132.314 4.07125H130.934L131.146 2.41951C132.194 2.35088 133.238 2.151 134.267 1.82163C135.198 1.50984 136.112 1.06933 136.997 0.504883H138.095L133.893 25.4183C136.043 21.8217 138.025 19.0393 139.826 17.0363C141.623 15.0588 143.06 14.0655 144.125 14.0655C144.694 14.0655 145.103 14.2818 145.374 14.7238C145.636 15.1821 145.783 15.8684 145.783 16.7943C145.776 17.1468 145.749 17.4974 145.701 17.8412C145.646 18.3162 145.582 18.788 145.508 19.2557L142.446 36.2174C142.387 36.5761 142.339 36.9395 142.303 37.3062C142.26 37.6854 142.239 38.0692 142.238 38.4554C142.238 38.6764 142.303 38.8649 142.413 39.0394C142.524 39.2092 142.66 39.5046 142.802 39.5046C143.102 39.5046 143.519 38.9672 144.043 38.2949C144.576 37.6203 145.127 36.7083 145.713 35.5521L146.339 36.4338C145.284 38.5834 144.268 40.2375 143.294 41.3588C142.312 42.501 141.411 43.0733 140.584 43.0733C140.127 43.1117 139.676 42.8823 139.314 42.4266C139.157 42.211 139.033 41.9393 138.951 41.6326C138.87 41.3258 138.833 40.9925 138.843 40.6585C138.843 40.3724 138.859 40.0839 138.893 39.7978C138.926 39.4953 138.987 39.1696 139.057 38.8044L142.209 21.2494C142.266 20.8679 142.303 20.5794 142.323 20.377C142.341 20.1969 142.349 20.0148 142.347 19.8326C142.347 19.3813 142.275 19.0416 142.115 18.7974C141.964 18.5764 141.746 18.4624 141.459 18.4624C141.009 18.4624 140.346 18.9183 139.478 19.8466C138.404 21.0347 137.389 22.3603 136.444 23.8108C135.613 24.9813 134.854 26.28 134.176 27.6889C133.717 28.698 133.364 29.8246 133.132 31.0226L131.044 43.1338C130.807 43.064 129.963 43.0245 129.718 42.9989C129.473 42.971 129.829 42.971 129.578 42.971C129.32 42.971 129.066 42.971 128.817 42.9989C128.569 43.0254 128.321 43.0681 128.075 43.1315ZM92.0553 53.0536V53.5235C92.0553 53.7655 92.0682 53.9888 92.1095 54.1958C92.195 54.7658 92.4773 55.0496 92.9606 55.0496C93.1245 55.0543 93.2885 55.0124 93.4439 54.9287C93.7718 54.7612 93.9386 54.3564 93.9514 53.7189C93.9542 53.5189 93.9255 53.3211 93.8681 53.1444C93.8107 52.9676 93.7265 52.8178 93.6235 52.7093C93.4501 52.529 93.2696 52.3673 93.0832 52.2254L92.4488 51.7555C92.2287 51.6024 92.0186 51.4138 91.8215 51.1925C91.6512 51.0027 91.5137 50.7447 91.422 50.4433C91.3304 50.1418 91.2878 49.807 91.2983 49.4709C91.2983 48.652 91.4979 48.0751 91.8828 47.7238C92.2535 47.4353 92.6612 47.3004 93.0718 47.3283C93.6848 47.3283 94.1268 47.5214 94.3976 47.8983C94.6115 48.2077 94.7213 48.8056 94.7213 49.7059V49.8734H93.8488V49.6733L93.8331 49.236C93.7789 48.5846 93.5209 48.2612 93.0547 48.2752C92.4702 48.2752 92.1751 48.6637 92.1665 49.4384C92.1665 49.9269 92.3519 50.3224 92.7197 50.6341C92.9478 50.8342 93.2015 51.0226 93.4895 51.225C93.7746 51.4204 94.0127 51.6019 94.1924 51.7834C94.3944 51.9751 94.5602 52.2538 94.6716 52.5891C94.783 52.9243 94.8357 53.3032 94.8239 53.684C94.8153 55.2171 94.1923 55.9895 92.9606 55.9895C92.5374 56.0413 92.114 55.8943 91.7403 55.5661C91.5805 55.4095 91.4472 55.1906 91.3521 54.9291C91.2571 54.6676 91.2033 54.3717 91.1957 54.0679L91.1843 53.3886V53.0536H92.0553ZM95.4056 50.1642C95.4056 49.4779 95.4455 48.9731 95.5196 48.652C95.6422 48.1402 95.896 47.7773 96.2895 47.5679C96.5876 47.4046 96.9002 47.3228 97.2147 47.326C97.5292 47.3228 97.8418 47.4046 98.1399 47.5679C98.5291 47.7703 98.7815 48.1402 98.9012 48.6451C98.9925 49.1383 99.0338 49.6547 99.0238 50.1688V52.9931C99.0238 53.5049 99.0081 53.9399 98.9711 54.3098C98.877 55.4265 98.2996 55.9895 97.2389 55.9895C96.4734 55.9895 95.9573 55.7336 95.6993 55.2102C95.4954 54.8193 95.3999 54.0749 95.4041 52.9931L95.4056 50.1642ZM96.2766 52.9861C96.2766 53.691 96.3094 54.1563 96.3707 54.3634C96.4422 54.592 96.5616 54.7712 96.7072 54.8682C96.8665 54.9871 97.0395 55.0489 97.2147 55.0496C97.3714 55.0512 97.5264 54.9981 97.6695 54.8938C97.7963 54.8257 97.9078 54.6971 97.9894 54.5246C98.071 54.352 98.1189 54.1435 98.1271 53.926C98.1399 53.6654 98.1485 53.356 98.1513 52.9861V50.1642C98.1759 49.7239 98.1338 49.2805 98.0287 48.873C97.8904 48.4706 97.6196 48.2682 97.2147 48.2752C97.0647 48.2722 96.9157 48.3156 96.7756 48.4031C96.6436 48.4655 96.5267 48.5932 96.4412 48.7687C96.3556 48.9441 96.3056 49.1586 96.298 49.3825C96.2789 49.6418 96.2718 49.9031 96.2766 50.1642V52.9861ZM99.8136 47.4493H100.683V53.0722L100.69 53.812C100.719 54.6332 101.01 55.0427 101.559 55.0496C102.112 55.0496 102.414 54.6658 102.462 53.8934C102.484 53.621 102.495 53.3468 102.495 53.0722V47.447H103.368V53.1606C103.368 53.6305 103.356 53.9865 103.339 54.2493C103.318 54.623 103.215 54.9715 103.048 55.2311C102.729 55.7429 102.241 55.9895 101.587 55.9895C100.907 55.9895 100.415 55.7406 100.117 55.2451C99.9534 54.978 99.852 54.6257 99.8307 54.2493C99.8147 53.8871 99.809 53.5238 99.8136 53.1606V47.447V47.4493ZM105.64 47.4493H106.161C106.36 47.4493 106.545 47.4819 106.712 47.5284C107.355 47.6959 107.679 48.3612 107.692 49.5454C107.692 50.1688 107.606 50.6341 107.434 50.9645C107.27 51.2716 106.949 51.474 106.476 51.588C106.694 51.6042 106.909 51.6787 107.114 51.802C107.298 51.9578 107.417 52.2068 107.462 52.5348C107.495 52.7907 107.513 53.0536 107.519 53.3141L107.561 54.3029C107.575 54.8379 107.642 55.3684 107.757 55.8685H106.856L106.766 55.3335C106.738 55.1428 106.721 54.948 106.717 54.7519L106.684 53.9935L106.655 53.2071C106.614 52.6023 106.439 52.2393 106.123 52.1184C105.974 52.071 105.821 52.0484 105.669 52.0509H105.067V55.8685H104.19V47.447H105.64V47.4493ZM105.063 48.3961V51.1041H105.684C105.847 51.1041 106.008 51.0878 106.169 51.0505C106.434 50.9831 106.618 50.8016 106.721 50.5201C106.8 50.2261 106.834 49.9051 106.819 49.5849C106.819 49.115 106.721 48.7939 106.528 48.6102C106.278 48.4376 106.006 48.3643 105.734 48.3961H105.063ZM110.966 49.6733L110.962 49.2825C110.942 48.6102 110.697 48.2752 110.229 48.2752C109.812 48.2752 109.542 48.4566 109.42 48.8102C109.355 48.9616 109.315 49.1381 109.306 49.322L109.296 50.0153V53.3421C109.296 53.9469 109.338 54.3308 109.402 54.5053C109.545 54.8682 109.796 55.0403 110.148 55.0403C110.61 55.0403 110.872 54.6867 110.929 53.9679L110.966 53.4281V53.1397H111.839V53.4351L111.83 53.9609C111.827 54.2323 111.79 54.4999 111.722 54.7477C111.654 54.9954 111.556 55.2183 111.434 55.4032C111.289 55.6102 111.116 55.7584 110.929 55.836C110.684 55.943 110.43 55.9942 110.177 55.9895C109.951 55.997 109.726 55.9634 109.505 55.8895C108.788 55.6731 108.429 54.8798 108.424 53.5375V50.1758C108.424 49.8059 108.432 49.4709 108.464 49.1545C108.487 48.8077 108.568 48.4778 108.698 48.2007C108.976 47.6284 109.477 47.3399 110.192 47.326C111.196 47.3399 111.741 47.8657 111.815 48.894C111.83 49.0941 111.839 49.3151 111.839 49.564V49.8897H110.966V49.6733ZM112.596 47.4539H115.446V48.3961H113.468V51.0761H115.323V52.0183H113.468V54.9263H115.503V55.8755H112.596V47.4539ZM117.758 50.1688C117.758 49.4779 117.799 48.9731 117.878 48.652C117.992 48.1402 118.246 47.7773 118.643 47.5679C118.941 47.4051 119.254 47.3237 119.569 47.326C119.897 47.326 120.203 47.4074 120.494 47.5679C120.883 47.7703 121.137 48.1402 121.259 48.6451C121.349 49.1383 121.391 49.6547 121.382 50.1688V52.9931C121.382 53.5049 121.362 53.9399 121.329 54.3098C121.227 55.4265 120.654 55.9895 119.593 55.9895C118.823 55.9895 118.311 55.7336 118.053 55.2102C117.854 54.8193 117.755 54.0749 117.758 52.9931V50.1688ZM118.631 52.9838C118.613 53.4491 118.645 53.9167 118.725 54.3634C118.796 54.5937 118.916 54.7728 119.061 54.8682C119.22 54.9871 119.393 55.049 119.569 55.0496C119.726 55.0526 119.883 54.9994 120.026 54.8938C120.152 54.8244 120.262 54.6951 120.342 54.5226C120.423 54.3501 120.47 54.1423 120.477 53.926C120.494 53.6654 120.502 53.356 120.505 52.9861V50.1642C120.53 49.7222 120.488 49.2802 120.383 48.873C120.244 48.4706 119.974 48.2682 119.569 48.2752C119.419 48.272 119.271 48.3154 119.131 48.4031C118.999 48.4646 118.882 48.5922 118.796 48.7679C118.711 48.9436 118.661 49.1585 118.655 49.3825C118.635 49.6408 118.626 49.9036 118.631 50.1642V52.9838ZM124.948 47.447V48.3961H123.044V51.0645H124.879V52.0044H123.044V55.8685H122.172V47.447H124.948ZM127.847 53.0536V53.5235C127.841 53.7509 127.859 53.9783 127.9 54.1958C127.981 54.7658 128.268 55.0496 128.747 55.0496C128.914 55.0543 129.08 55.0124 129.239 54.9287C129.562 54.7612 129.731 54.3564 129.742 53.7189C129.745 53.519 129.716 53.3214 129.658 53.1447C129.601 52.968 129.517 52.8181 129.414 52.7093C129.241 52.5285 129.06 52.3668 128.874 52.2254L128.239 51.7555C128.019 51.5999 127.808 51.4114 127.609 51.1925C127.441 50.9997 127.305 50.741 127.214 50.4402C127.123 50.1394 127.08 49.8061 127.089 49.4709C127.093 48.652 127.29 48.0751 127.675 47.7238C128.045 47.4353 128.453 47.2981 128.862 47.3283C129.473 47.3283 129.914 47.5214 130.188 47.8983C130.402 48.2077 130.508 48.8056 130.508 49.7059V49.8734H129.639V49.6733L129.624 49.236C129.567 48.5846 129.309 48.2612 128.845 48.2752C128.256 48.2752 127.966 48.6637 127.957 49.4384C127.957 49.9269 128.141 50.3224 128.51 50.6341C128.735 50.8342 128.994 51.0226 129.28 51.225C129.567 51.4204 129.803 51.6019 129.984 51.7834C130.186 51.9756 130.351 52.2545 130.463 52.5897C130.574 52.9249 130.626 53.3034 130.614 53.684C130.602 55.2171 129.984 55.9895 128.751 55.9895C128.328 56.0413 127.905 55.8943 127.531 55.5661C127.372 55.4082 127.24 55.1889 127.146 54.9275C127.051 54.6662 126.998 54.3709 126.991 54.0679L126.975 53.3886V53.0536H127.847ZM131.229 47.447H132.096V53.0722L132.104 53.812C132.133 54.6332 132.428 55.0427 132.972 55.0496C133.526 55.0496 133.824 54.6658 133.878 53.8934C133.895 53.6205 133.906 53.3465 133.911 53.0722V47.447H134.782V53.1606C134.782 53.6305 134.77 53.9865 134.749 54.2493C134.731 54.6231 134.629 54.9728 134.462 55.2311C134.143 55.7429 133.653 55.9895 133.001 55.9895C132.321 55.9895 131.826 55.7406 131.527 55.2451C131.367 54.9752 131.269 54.6235 131.249 54.2493C131.233 53.887 131.226 53.5238 131.229 53.1606V47.447ZM138.172 49.6663V49.2825C138.148 48.6102 137.902 48.2752 137.435 48.2752C137.021 48.2752 136.752 48.4566 136.625 48.8102C136.561 48.9622 136.521 49.1383 136.509 49.322L136.502 50.0153V53.3421C136.505 53.9469 136.542 54.3308 136.612 54.5053C136.752 54.8682 137.001 55.0403 137.353 55.0403C137.815 55.0403 138.078 54.6867 138.139 53.9679L138.172 53.4281V53.1397H139.044V53.4351L139.036 53.9609C139.035 54.2326 138.999 54.5011 138.932 54.7494C138.864 54.9976 138.765 55.2203 138.642 55.4032C138.496 55.6109 138.322 55.7592 138.135 55.836C137.889 55.9422 137.636 55.9938 137.382 55.9895C137.158 55.9969 136.934 55.9634 136.715 55.8895C135.993 55.6731 135.638 54.8798 135.634 53.5375V50.1758C135.629 49.8341 135.642 49.4924 135.674 49.1545C135.695 48.8067 135.776 48.4758 135.908 48.2007C136.186 47.6284 136.682 47.3399 137.402 47.326C138.406 47.3399 138.95 47.8657 139.024 48.894C139.039 49.1173 139.044 49.3406 139.044 49.564V49.8897H138.172V49.6663ZM142.38 49.6663L142.377 49.2825C142.352 48.6102 142.111 48.2752 141.64 48.2752C141.227 48.2752 140.956 48.4566 140.829 48.8102C140.764 48.961 140.726 49.138 140.718 49.322L140.711 50.0153V53.3421C140.711 53.9469 140.751 54.3308 140.816 54.5053C140.96 54.8682 141.21 55.0403 141.562 55.0403C142.025 55.0403 142.283 54.6867 142.34 53.9679L142.38 53.4281V53.1397H143.248V53.4351L143.244 53.9609C143.24 54.2322 143.203 54.4994 143.135 54.747C143.067 54.9946 142.969 55.2177 142.848 55.4032C142.702 55.6106 142.528 55.7589 142.34 55.836C142.094 55.943 141.841 55.9942 141.586 55.9895C141.362 55.9969 141.138 55.9634 140.919 55.8895C140.203 55.6731 139.843 54.8798 139.838 53.5375V50.1758C139.834 49.8341 139.847 49.4923 139.88 49.1545C139.9 48.8077 139.979 48.4772 140.109 48.2007C140.391 47.6284 140.886 47.3399 141.608 47.326C142.61 47.3399 143.15 47.8657 143.229 48.894C143.244 49.0941 143.248 49.3151 143.248 49.564V49.8897H142.38V49.6663ZM144.01 47.447H146.86V48.3961H144.882V51.0761H146.737V52.0183H144.882V54.9263H146.914V55.8755H144.007L144.01 47.447ZM148.194 53.0536V53.5235C148.194 53.7655 148.207 53.9888 148.248 54.1958C148.334 54.7658 148.616 55.0496 149.095 55.0496C149.262 55.0543 149.429 55.0124 149.587 54.9287C149.91 54.7612 150.077 54.3564 150.09 53.7189C150.091 53.5194 150.062 53.3225 150.005 53.1462C149.947 52.9699 149.864 52.8197 149.762 52.7093C149.589 52.5285 149.408 52.3668 149.222 52.2254L148.587 51.7555C148.368 51.6019 148.158 51.4133 147.962 51.1925C147.792 51.0014 147.655 50.7433 147.563 50.4422C147.471 50.1411 147.428 49.8069 147.437 49.4709C147.441 48.652 147.638 48.0751 148.023 47.7238C148.392 47.4353 148.8 47.2981 149.21 47.3283C149.823 47.3283 150.263 47.5214 150.536 47.8983C150.753 48.2077 150.86 48.8056 150.86 49.7059V49.8734H149.987V49.6733L149.972 49.236C149.918 48.5846 149.657 48.2612 149.193 48.2752C148.607 48.2752 148.314 48.6637 148.305 49.4384C148.305 49.9269 148.489 50.3224 148.854 50.6341C149.084 50.8342 149.344 51.0226 149.631 51.225C149.918 51.4204 150.147 51.6019 150.328 51.7834C150.53 51.9762 150.695 52.2551 150.807 52.5899C150.919 52.9248 150.973 53.3031 150.963 53.684C150.954 55.2171 150.335 55.9895 149.099 55.9895C148.676 56.0424 148.252 55.8955 147.879 55.5661C147.719 55.4113 147.585 55.1926 147.49 54.9306C147.396 54.6686 147.344 54.3718 147.339 54.0679L147.323 53.3886V53.0536H148.194ZM152.231 53.0536V53.5235C152.227 53.7508 152.245 53.9778 152.284 54.1958C152.371 54.7658 152.653 55.0496 153.132 55.0496C153.298 55.0543 153.462 55.0124 153.62 54.9287C153.946 54.7612 154.11 54.3564 154.127 53.7189C154.129 53.5194 154.099 53.3225 154.042 53.1462C153.985 52.9699 153.901 52.8197 153.8 52.7093C153.625 52.5284 153.443 52.3668 153.255 52.2254L152.625 51.7555C152.405 51.6014 152.195 51.4128 151.998 51.1925C151.827 51.0034 151.689 50.7455 151.597 50.4439C151.506 50.1423 151.463 49.8071 151.474 49.4709C151.479 48.652 151.674 48.0751 152.059 47.7238C152.43 47.4353 152.837 47.2981 153.246 47.3283C153.861 47.3283 154.299 47.5214 154.574 47.8983C154.786 48.2077 154.897 48.8056 154.897 49.7059V49.8734H154.025V49.6733L154.003 49.236C153.955 48.5846 153.693 48.2612 153.231 48.2752C152.645 48.2752 152.35 48.6637 152.343 49.4384C152.343 49.9269 152.527 50.3224 152.894 50.6341C153.12 50.8342 153.378 51.0226 153.664 51.225C153.951 51.4204 154.189 51.6019 154.364 51.7834C154.566 51.9749 154.733 52.2534 154.845 52.5886C154.956 52.9238 155.01 53.3028 154.999 53.684C154.987 55.2171 154.368 55.9895 153.137 55.9895C152.713 56.0418 152.29 55.8948 151.916 55.5661C151.757 55.4095 151.624 55.1904 151.53 54.9288C151.435 54.6672 151.383 54.3713 151.376 54.0679L151.359 53.3886V53.0536H152.231Z" fill="white"/>
</svg>
