<svg width="155" height="56" viewBox="0 0 155 56" fill="none" xmlns="http://www.w3.org/2000/svg">
<path d="M4.20182 51.9994V10.4705L22.6105 27.9978L12.1865 37.9274V27.9978C12.1865 25.7862 11.247 23.9972 10.0844 23.9972C8.92298 23.9972 7.98469 25.7862 7.98469 27.9978V44.3946C7.98469 45.7871 8.35902 47.0688 8.98123 47.7981C9.60345 48.5298 10.3694 48.5935 11.0239 47.9775L28.2476 31.5783C28.5974 31.2481 28.8918 30.7383 29.0976 30.1065C29.3035 29.4747 29.4125 28.746 29.4125 28.0025C29.4125 27.259 29.3035 26.5303 29.0976 25.8985C28.8918 25.2667 28.5974 24.757 28.2476 24.4267L3.03919 0.422821C2.71939 0.11696 2.36366 -0.0271875 2.00617 0.00422551C1.64868 0.0356385 1.30143 0.241558 0.997778 0.602202C0.692636 0.959377 0.440688 1.45958 0.266004 2.05503C0.0913202 2.65048 -0.000264664 3.32128 5.74479e-07 4.00334V51.9994C5.74479e-07 54.2109 0.939522 56 2.10091 56C3.2623 56 4.20182 54.2109 4.20182 51.9994Z" fill="#FF002A"/>
<path d="M56.8398 19.2669C56.6033 18.2098 56.2117 17.305 55.7119 16.6612C55.1951 16.0041 54.5881 15.6512 53.9667 15.6462H45.4057C45.0614 15.6475 44.7313 15.9085 44.4879 16.3721C44.2444 16.8357 44.1073 17.4642 44.1067 18.1198V37.8823C44.1067 38.538 44.2435 39.1669 44.487 39.6305C44.7305 40.0942 45.0607 40.3547 45.405 40.3547C45.7494 40.3547 46.0796 40.0942 46.3231 39.6305C46.5666 39.1669 46.7034 38.538 46.7034 37.8823V32.1162H53.9679C54.3943 32.1162 54.8096 31.9533 55.1814 31.6488C55.7365 31.1985 56.2117 30.4527 56.5498 29.501C56.7183 29.0337 56.851 28.505 56.9414 27.9456C57.0307 27.3862 57.0815 26.7891 57.0815 26.1801V21.5705C57.0815 20.7562 56.996 19.9679 56.8361 19.2598L56.8398 19.2669ZM54.4885 26.1872C54.4885 26.3288 54.4724 26.4563 54.4489 26.5743C54.4083 26.7506 54.3437 26.903 54.2617 27.0156C54.1771 27.1303 54.0755 27.1907 53.9717 27.1879H46.7083V20.6028H53.9717C54.046 20.6028 54.113 20.6311 54.1749 20.6736C54.2677 20.7515 54.3478 20.8754 54.4067 21.0324C54.4665 21.1938 54.4978 21.3872 54.496 21.5847V26.1943L54.4885 26.1872ZM118.933 26.5459C118.416 25.8883 117.809 25.5353 117.187 25.531H109.576C109.506 25.5306 109.437 25.5058 109.372 25.4579C109.28 25.3796 109.2 25.2558 109.141 25.0991C109.08 24.9382 109.049 24.7444 109.051 24.5468V21.5847C109.052 21.4515 109.065 21.3196 109.09 21.1952C109.131 21.0199 109.196 20.8684 109.278 20.7562C109.363 20.642 109.464 20.5817 109.567 20.5839H118.561C118.905 20.5839 119.235 20.3234 119.479 19.8598C119.722 19.3961 119.859 18.7673 119.859 18.1115C119.859 17.4558 119.722 16.827 119.479 16.3633C119.235 15.8996 118.905 15.6392 118.561 15.6392H109.567C109.141 15.6392 108.727 15.8044 108.355 16.1089C107.799 16.5582 107.324 17.3031 106.985 18.2543C106.815 18.7333 106.683 19.2585 106.595 19.8121C106.504 20.3691 106.453 20.9663 106.453 21.5752V24.5444C106.455 25.5147 106.581 26.4695 106.821 27.3262C107.06 28.1828 107.405 28.9155 107.827 29.4609C108.344 30.1178 108.951 30.4707 109.572 30.4758H117.184C117.258 30.4734 117.325 30.5018 117.387 30.5466C117.48 30.6248 117.56 30.7487 117.619 30.9054C117.679 31.0652 117.711 31.2583 117.708 31.4553V34.4198C117.708 34.5614 117.693 34.6889 117.669 34.8092C117.628 34.9845 117.563 35.1359 117.481 35.2482C117.397 35.3616 117.296 35.4211 117.192 35.4182H108.199C107.854 35.4182 107.524 35.6788 107.28 36.1427C107.037 36.6066 106.9 37.2357 106.9 37.8917C106.9 38.5478 107.037 39.1769 107.28 39.6408C107.524 40.1047 107.854 40.3653 108.199 40.3653H117.192C117.619 40.3653 118.033 40.2001 118.405 39.8956C118.96 39.4455 119.435 38.7007 119.774 37.7501C120.12 36.7665 120.305 35.6102 120.306 34.4269V31.4647C120.304 30.4943 120.178 29.5392 119.939 28.6824C119.7 27.8257 119.354 27.0931 118.933 26.5483V26.5459ZM103.344 16.2575C103.216 16.0433 103.067 15.8794 102.905 15.775C102.744 15.6707 102.573 15.6281 102.403 15.6495C102.233 15.671 102.067 15.7562 101.914 15.9003C101.761 16.0443 101.625 16.2443 101.513 16.4889L96.4348 27.5349L91.3579 16.4889C91.2459 16.2443 91.1095 16.0443 90.9568 15.9003C90.804 15.7562 90.6379 15.671 90.4678 15.6495C90.2977 15.6281 90.1271 15.6707 89.9657 15.775C89.8043 15.8794 89.6553 16.0433 89.5272 16.2575C89.3988 16.471 89.2938 16.7305 89.2181 17.0214C89.1425 17.3123 89.0978 17.6287 89.0865 17.9526C89.0752 18.2765 89.0976 18.6014 89.1524 18.9087C89.2072 19.2161 89.2933 19.4998 89.4058 19.7437L95.1408 32.2224V37.8823C95.1408 38.538 95.2776 39.1669 95.5211 39.6305C95.7646 40.0942 96.0948 40.3547 96.4392 40.3547C96.7835 40.3547 97.1137 40.0942 97.3572 39.6305C97.6007 39.1669 97.7375 38.538 97.7375 37.8823V32.22L103.473 19.7437C103.585 19.4998 103.671 19.2161 103.726 18.9087C103.781 18.6014 103.803 18.2765 103.792 17.9526C103.781 17.6287 103.736 17.3123 103.66 17.0214C103.585 16.7305 103.48 16.471 103.351 16.2575H103.344ZM137.319 19.2669C137.083 18.2094 136.692 17.3039 136.192 16.6588C135.675 16.0018 135.068 15.6488 134.447 15.6439H126.834C126.408 15.6462 125.994 15.8091 125.622 16.1159C125.067 16.5659 124.591 17.3107 124.252 18.2614C123.907 19.2451 123.722 20.4013 123.721 21.5847V34.434C123.722 35.4044 123.848 36.3595 124.087 37.2163C124.327 38.073 124.672 38.8056 125.094 39.3504C125.611 40.0081 126.218 40.3611 126.839 40.3653H134.451C135.114 40.3594 135.76 39.9524 136.294 39.2028C136.829 38.4533 137.224 37.4 137.424 36.1947C137.513 35.633 137.564 35.0382 137.564 34.4245V21.5752C137.564 20.7633 137.479 19.975 137.319 19.2669ZM134.968 34.4198C134.968 34.5614 134.951 34.6865 134.928 34.8069C134.887 34.9826 134.823 35.1343 134.741 35.2459C134.656 35.3618 134.555 35.4223 134.451 35.4182H126.839C126.769 35.4168 126.7 35.3912 126.635 35.3427C126.543 35.2637 126.463 35.1399 126.404 34.9839C126.343 34.8234 126.312 34.6294 126.315 34.4316V21.5847C126.315 21.4431 126.33 21.3156 126.353 21.1952C126.394 21.0194 126.459 20.8678 126.542 20.7562C126.626 20.642 126.727 20.5817 126.83 20.5839H134.443C134.518 20.5839 134.585 20.6146 134.647 20.6594C134.715 20.7179 134.777 20.8022 134.828 20.9072C134.879 21.0123 134.919 21.1359 134.944 21.2708C134.961 21.3667 134.969 21.4672 134.968 21.5681V34.4198ZM153.701 15.6462C152.986 15.6462 152.402 16.7485 152.402 18.1198V32.2436L143.335 16.3118C143.15 15.9842 142.919 15.7668 142.669 15.6863C142.42 15.6059 142.164 15.6659 141.933 15.859C141.701 16.0521 141.504 16.3699 141.366 16.7732C141.228 17.1766 141.155 17.6479 141.156 18.1292V37.8894C141.156 38.5451 141.293 39.174 141.537 39.6376C141.78 40.1013 142.11 40.3618 142.455 40.3618C142.799 40.3618 143.129 40.1013 143.373 39.6376C143.616 39.174 143.753 38.5451 143.753 37.8894V23.7656L152.821 39.6997C153.006 40.0273 153.238 40.2448 153.487 40.3252C153.736 40.4057 153.992 40.3457 154.224 40.1525C154.455 39.9594 154.652 39.6417 154.79 39.2383C154.928 38.835 155.001 38.3636 155 37.8823V18.1198C155 16.7556 154.421 15.6462 153.701 15.6462ZM70.836 35.4087H63.0521V18.1198C63.0521 17.4638 62.9152 16.8346 62.6716 16.3707C62.428 15.9068 62.0976 15.6462 61.7531 15.6462C61.4086 15.6462 61.0782 15.9068 60.8346 16.3707C60.591 16.8346 60.4541 17.4638 60.4541 18.1198V37.8823C60.454 38.2069 60.4875 38.5283 60.5527 38.8282C60.618 39.128 60.7137 39.4004 60.8344 39.6296C60.9551 39.8588 61.0984 40.0403 61.2561 40.1637C61.4137 40.2871 61.5826 40.35 61.7531 40.3488H70.8322C71.1767 40.3488 71.5071 40.0882 71.7507 39.6243C71.9943 39.1604 72.1312 38.5313 72.1312 37.8752C72.1312 37.2192 71.9943 36.59 71.7507 36.1262C71.5071 35.6623 71.1767 35.4017 70.8322 35.4017L70.836 35.4087ZM88.4786 40.3488C88.0324 40.3488 87.5986 39.9098 87.3557 39.1191L82.4226 23.015L77.4895 39.1191C77.13 40.2969 76.3367 40.7005 75.7145 40.0065C75.5671 39.8431 75.4381 39.6258 75.3348 39.3672C75.2316 39.1087 75.1562 38.8138 75.1129 38.4996C75.0696 38.1854 75.0593 37.858 75.0825 37.5362C75.1058 37.2144 75.1622 36.9045 75.2485 36.6243L81.3046 16.8618C81.5351 16.1018 81.9652 15.6321 82.4238 15.6321C82.8812 15.6321 83.3113 16.1018 83.5418 16.8594L89.5979 36.6243C89.7708 37.1908 89.8189 37.8648 89.7315 38.4986C89.6442 39.1325 89.4286 39.6746 89.1318 40.0065C88.9338 40.2275 88.7082 40.3433 88.4786 40.3417V40.3488Z" fill="white"/>
</svg>
