<svg fill="none" viewBox="0 0 150 56" id="providers--playson" xmlns="http://www.w3.org/2000/svg"><path d="M15.39 38.032V20.437l14.852 7.426-8.41 4.207v-4.207c0-.937-.758-1.695-1.696-1.695-.937 0-1.694.758-1.694 1.695v6.947c0 .59.302 1.133.804 1.442.502.31 1.12.337 1.648.076L34.79 29.38a1.691 1.691 0 000-3.03L14.452 16.18a1.684 1.684 0 00-1.647.076A1.69 1.69 0 0012 17.697v20.335c0 .937.758 1.695 1.695 1.695s1.695-.758 1.695-1.695z" fill="#FF002A"></path><path d="M57.858 24.164a2.53 2.53 0 00-.91-1.104 2.555 2.555 0 00-1.408-.43h-6.907a1.05 1.05 0 00-1.048 1.048v8.373a1.047 1.047 0 102.095 0v-2.443h5.861c.344 0 .679-.069.979-.198a2.53 2.53 0 001.104-.91c.136-.198.243-.422.316-.659.072-.237.113-.49.113-.748V25.14c0-.345-.069-.679-.198-.979l.003.003zm-1.897 2.932c0 .06-.013.114-.032.164a.456.456 0 01-.151.187.394.394 0 01-.234.073h-5.86v-2.79h5.86c.06 0 .114.012.164.03a.456.456 0 01.187.152.394.394 0 01.072.234v1.953l-.006-.003zM107.954 27.248a2.55 2.55 0 00-1.408-.43h-6.141a.458.458 0 01-.164-.031.46.46 0 01-.187-.152.388.388 0 01-.072-.234v-1.255a.47.47 0 01.031-.165.463.463 0 01.152-.186.394.394 0 01.233-.073h7.256a1.047 1.047 0 100-2.095h-7.256c-.344 0-.678.07-.978.199a2.53 2.53 0 00-1.105.909 2.443 2.443 0 00-.315.66c-.073.236-.114.489-.114.747V26.4a2.53 2.53 0 001.108 2.083 2.556 2.556 0 001.408.43h6.141c.06-.001.114.011.164.03a.46.46 0 01.187.152.382.382 0 01.072.233v1.256c0 .06-.012.114-.031.165a.464.464 0 01-.152.186.394.394 0 01-.233.072h-7.256a1.047 1.047 0 100 2.096h7.256c.344 0 .678-.07.978-.199a2.537 2.537 0 001.105-.909 2.542 2.542 0 00.429-1.408v-1.255a2.526 2.526 0 00-1.108-2.083zM95.377 22.889a1.045 1.045 0 00-1.477.098l-4.097 4.68-4.096-4.68a1.045 1.045 0 00-1.477-.098 1.045 1.045 0 00-.098 1.477l4.627 5.287v2.398a1.047 1.047 0 102.095 0v-2.399l4.627-5.286a1.045 1.045 0 00-.098-1.477h-.006zM122.788 24.164a2.533 2.533 0 00-.909-1.105 2.555 2.555 0 00-1.408-.43h-6.142c-.344.001-.678.07-.978.2a2.536 2.536 0 00-1.105.909 2.542 2.542 0 00-.429 1.408v5.444a2.526 2.526 0 001.108 2.083 2.55 2.55 0 001.408.43h6.141a2.528 2.528 0 002.399-1.767c.072-.238.113-.49.113-.75v-5.444c0-.344-.069-.678-.198-.978zm-1.897 6.42c0 .06-.013.113-.032.164a.452.452 0 01-.151.186.386.386 0 01-.234.073h-6.141a.466.466 0 01-.165-.032.464.464 0 01-.186-.152.382.382 0 01-.072-.234v-5.443c0-.06.012-.114.031-.165a.455.455 0 01.152-.186.394.394 0 01.233-.073h6.142c.06 0 .114.013.164.032a.45.45 0 01.24.259.383.383 0 01.019.126v5.445zM136.005 22.63c-.577 0-1.048.467-1.048 1.048v5.984l-7.315-6.75a1.046 1.046 0 00-1.758.77v8.372a1.047 1.047 0 102.095 0V26.07l7.316 6.751a1.046 1.046 0 001.758-.77v-8.373c0-.578-.467-1.048-1.048-1.048zM69.15 31.003h-6.28v-7.325a1.047 1.047 0 10-2.096 0v8.373a1.044 1.044 0 001.048 1.045h7.325a1.047 1.047 0 100-2.096l.003.003zM83.384 33.096c-.36 0-.71-.186-.906-.521l-3.98-6.823-3.98 6.823c-.29.499-.93.67-1.432.376a1.046 1.046 0 01-.376-1.433l4.886-8.373c.186-.322.533-.521.903-.521.369 0 .716.199.902.52l4.886 8.374a1.05 1.05 0 01-.376 1.433 1.035 1.035 0 01-.527.142v.003z" fill="#fff"></path></svg>