<svg fill="none" viewBox="0 0 150 56" id="providers--playtech" xmlns="http://www.w3.org/2000/svg"><path d="M45.869 24.016l-.043-.127c-1.04-2.554-4.977-3.331-9.514-2.161l-.747-.468c2.237-.97 4.463-1.476 6.326-1.338 2.783.211 4.144 1.806 3.978 4.094zm-4.035 5.368c-2.912 3.726-8.173 6.309-11.751 6.04-3.573-.271-4.116-3.51-1.204-7.24l.181-.228.009 4.675c-.017 1.187 1.12 1.745 1.935 1.274l10.704-6.561a1.324 1.324 0 00.59-1.13 1.331 1.331 0 00-.63-1.106l-4.337-2.513c1.172-.353 2.297-.52 3.297-.448 3.575.274 4.112 3.513 1.206 7.24v-.003zm-13.612 8.05c-3.286-.248-4.595-2.426-3.74-5.393a3.53 3.53 0 00.256 1.41c1.281 3.175 7.045 3.602 12.866.968.12-.052.241-.113.359-.165-3.271 2.123-6.913 3.392-9.741 3.178v.003zm3.785-16.596l7.18 4.55c.53.32.594 1.156.028 1.525l-7.251 4.447c-.555.323-1.333-.058-1.319-.873l-.034-8.84c.032-.737.758-1.181 1.396-.815v.006zm16.627 1.632c-1.504-3.718-7.754-4.538-14.525-2.129l-3.001-1.892c-.936-.537-2.005.116-2.056 1.205l.003 3.073c-5.83 3.52-9.213 8.575-7.774 12.137 1.668 4.116 9.143 4.68 16.693 1.256 7.553-3.42 12.326-9.527 10.66-13.647v-.003zm6.002 5.368l-.652 2.418c-.097.367-.172.702-.23.99-.062.304-.088.52-.088.657 0 .26.069.456.212.606a.807.807 0 00.592.22c.385 0 .781-.22 1.194-.653.411-.433.805-1.057 1.187-1.872a23.31 23.31 0 001.123-3.097c.278-1.014.425-1.814.425-2.38a1.77 1.77 0 00-.25-.994c-.167-.252-.38-.381-.626-.381-.569 0-1.089.37-1.563 1.097-.474.737-.916 1.864-1.32 3.389h-.004zm-4.098-5.613a60.65 60.65 0 002.898-.306c.919-.119 1.8-.26 2.654-.425l-.718 2.588c.718-1 1.401-1.736 2.059-2.19.643-.467 1.31-.69 2.013-.69.956 0 1.7.303 2.214.91.526.613.781 1.48.781 2.603 0 .948-.175 1.95-.534 2.993a11.753 11.753 0 01-1.493 2.924c-.747 1.048-1.528 1.834-2.367 2.357a4.965 4.965 0 01-2.67.789 3.144 3.144 0 01-2.01-.68l-.739 2.809a2.953 2.953 0 00-.109.525 3.155 3.155 0 00-.034.52c0 .338.094.584.293.72.2.136.603.22 1.208.26v.653h-6.857V37.9c.026 0 .057 0 .1-.012a.462.462 0 01.1-.014c.426 0 .745-.11.957-.335.212-.226.43-.81.66-1.762l2.729-11.18c.049-.18.086-.362.115-.535.024-.13.038-.263.043-.396 0-.309-.092-.514-.27-.627-.184-.127-.526-.184-1.023-.184v-.63z" fill="#fff"></path><path d="M63.12 16.057a48.35 48.35 0 002.955-.332c.945-.136 1.84-.292 2.682-.485l-3.762 14.993c-.031.103-.06.207-.086.312-.037.125-.06.254-.07.384 0 .177.032.318.101.416a.358.358 0 00.308.148c.138 0 .29-.093.465-.286.175-.188.514-.685 1.017-1.488l.603.46c-.758 1.27-1.485 2.195-2.171 2.77-.684.572-1.396.855-2.14.855-.655 0-1.169-.182-1.522-.555-.356-.37-.531-.907-.531-1.6 0-.338.18-1.243.545-2.707l.035-.145 2.498-9.761c.023-.087.058-.223.095-.399.16-.641.23-1.054.23-1.233 0-.246-.084-.425-.253-.544a1.392 1.392 0 00-.781-.176h-.215l-.003-.627z" fill="#fff"></path><path d="M74.911 23.822a1.422 1.422 0 00-.233-.858.721.721 0 00-.611-.317c-.36 0-.704.176-1.037.534-.333.361-.718.953-1.157 1.791-.511.991-.913 1.959-1.204 2.915a8.553 8.553 0 00-.442 2.453c0 .41.08.728.244.968a.782.782 0 00.66.34c.403 0 .817-.24 1.244-.733.425-.491.83-1.185 1.212-2.078.402-.993.718-1.964.96-2.888.238-.928.361-1.636.361-2.127h.003zm4.54-2.201l-2.01 7.419v.026c-.304 1.144-.46 1.808-.46 1.996 0 .179.03.318.101.427a.288.288 0 00.27.16c.325 0 .747-.393 1.258-1.185.155-.223.273-.402.353-.526l.583.462c-.655 1.156-1.306 2.014-1.973 2.56-.669.549-1.387.818-2.153.818-.641 0-1.13-.145-1.46-.425-.338-.292-.502-.708-.502-1.266 0-.164.011-.375.046-.626.029-.255.083-.581.152-.983-.606 1.115-1.27 1.947-1.981 2.485a3.837 3.837 0 01-2.384.815c-.905 0-1.617-.284-2.142-.853-.526-.575-.787-1.355-.787-2.345 0-1.144.247-2.346.758-3.617.502-1.257 1.177-2.38 2.03-3.346.67-.777 1.364-1.372 2.088-1.79a4.205 4.205 0 012.097-.625c.637 0 1.134.159 1.504.468.368.318.612.797.727 1.436l.373-1.485h3.513z" fill="#fff"></path><path d="M78.28 22.647v-.685c.98-.11 1.97-.245 2.981-.398 1.002-.153 1.548-.229 1.623-.229.402 0 .93 1.786 1.57 5.36.259 1.424.472 2.57.641 3.428.761-1.554 1.28-2.686 1.562-3.397.282-.708.42-1.23.42-1.566 0-.26-.236-.577-.704-.936-.465-.364-.707-.78-.707-1.242a1.743 1.743 0 01.494-1.294 1.762 1.762 0 011.296-.485c.534 0 .956.161 1.257.485.296.326.451.783.451 1.366 0 .731-.35 1.91-1.042 3.534-.695 1.617-1.643 3.437-2.843 5.477-1.359 2.323-2.6 4.01-3.71 5.079-1.115 1.068-2.183 1.597-3.217 1.597-.684 0-1.22-.153-1.611-.46a1.525 1.525 0 01-.589-1.27c0-.486.17-.884.511-1.205.35-.323.81-.494 1.284-.477.408 0 .844.165 1.313.486.465.329.78.485.936.485.281 0 .597-.237.953-.71.368-.477.552-.925.552-1.359 0-.317-.03-.722-.087-1.21a37.689 37.689 0 00-.255-1.797c-.215-1.392-.455-2.78-.718-4.163a45.162 45.162 0 00-.655-2.952c-.172-.616-.345-1.017-.523-1.208-.172-.188-.46-.28-.861-.28h-.035a2.197 2.197 0 01-.287.029" fill="#fff"></path><path d="M93.948 30.424c-.758 1.075-1.502 1.898-2.226 2.464-.718.578-1.372.861-1.967.861a1.44 1.44 0 01-1.131-.468 1.859 1.859 0 01-.42-1.27c.004-.21.023-.419.058-.625.031-.234.086-.494.158-.768l2.16-8.494h-2.275l.212-.733c.977-.214 1.841-.682 2.597-1.41.75-.728 1.433-1.734 2.03-3.022h.775l-1.013 4.267h2.079l-.21.895h-2.142l-2.074 8.205a4.935 4.935 0 00-.109.505c-.017.15-.034.29-.034.405 0 .271.057.48.18.624a.599.599 0 00.492.217c.273 0 .591-.16.97-.492.374-.326.853-.863 1.425-1.6l.465.44z" fill="#fff"></path><path d="M96.068 27.627c1.674-.08 3.082-.54 4.213-1.372 1.137-.844 1.7-1.791 1.7-2.866 0-.358-.092-.63-.273-.809-.175-.173-.448-.266-.812-.266-1.014 0-1.953.463-2.815 1.404-.861.948-1.53 2.248-2.01 3.909h-.003zm-.198.899a7.149 7.149 0 00-.213 1.64c0 .711.173 1.254.523 1.627.345.375.859.653 1.522.653.66 0 1.413-.312 2.246-.766a15.755 15.755 0 002.826-2.045l.551.838c-1.243 1.126-2.412 1.958-3.515 2.49-1.094.543-2.168.809-3.225.809-1.034 0-1.84-.315-2.412-.933-.572-.627-.856-1.503-.856-2.65 0-1.091.224-2.207.669-3.333a10.157 10.157 0 011.826-3.005c.747-.835 1.569-1.47 2.453-1.915a6.204 6.204 0 012.754-.665c.867 0 1.548.203 2.051.61.499.404.755.96.755 1.664 0 1.274-.738 2.38-2.2 3.31-1.465.925-3.38 1.48-5.752 1.67" fill="#fff"></path><path d="M112.204 28.702l-.031 1.61c-.787 1.155-1.64 2.022-2.571 2.6a5.69 5.69 0 01-3.041.855c-1.203 0-2.182-.405-2.941-1.225-.749-.806-1.125-1.878-1.125-3.216 0-.979.212-1.978.637-2.998a9.02 9.02 0 011.769-2.745c.689-.728 1.465-1.3 2.321-1.69a6.096 6.096 0 012.613-.603c.942 0 1.686.22 2.243.652.554.434.833 1.006.833 1.728 0 .43-.141.8-.431 1.106a1.354 1.354 0 01-1.028.463 1.021 1.021 0 01-.79-.321 1.173 1.173 0 01-.302-.838c0-.242.081-.52.245-.84.109-.185.188-.386.235-.596 0-.147-.077-.265-.244-.36a1.363 1.363 0 00-.669-.14c-.58 0-1.166.18-1.769.547a5.446 5.446 0 00-1.571 1.51 9.506 9.506 0 00-1.269 2.465 7.862 7.862 0 00-.437 2.542c0 .939.233 1.693.709 2.242a2.53 2.53 0 001.939.924c.643 0 1.278-.303 1.895-.708.629-.41 1.663-1.227 2.78-2.964" fill="#fff"></path><path d="M110.788 33.78l4.254-15.504c.024-.097.042-.195.051-.295a1.68 1.68 0 00.02-.274c0-.274-.069-.462-.201-.572-.135-.095-.522-.145-1.151-.145h-.968l.149-.71a14.37 14.37 0 002.189-.257 11.758 11.758 0 001.915-.566h.77l-2.947 10.709c1.508-1.546 2.898-2.742 4.161-3.603 1.261-.85 2.269-1.277 3.016-1.277.399 0 .686.093.876.283.184.197.287.492.287.89a2.359 2.359 0 01-.058.45 8.98 8.98 0 01-.135.608l-2.148 7.291a4.67 4.67 0 00-.1.468c-.03.163-.045.328-.046.494 0 .095.046.176.123.251.078.073.173.2.273.2.21 0 .503-.231.87-.52.374-.29.761-.682 1.172-1.179l.439.379c-.74.924-1.453 1.635-2.136 2.117-.689.491-1.321.737-1.901.737a1.347 1.347 0 01-.891-.278.932.932 0 01-.33-.76c0-.123.011-.247.035-.37.023-.13.066-.27.115-.427l2.211-7.546c.04-.164.066-.288.08-.375a1.41 1.41 0 00.017-.234c0-.194-.051-.34-.163-.445-.106-.095-.259-.144-.46-.144-.316 0-.781.196-1.39.595a17.18 17.18 0 00-2.128 1.704 11.959 11.959 0 00-1.591 1.667 4.87 4.87 0 00-.732 1.433l-1.465 5.206c-.166-.03-.758-.047-.93-.058-.172-.012.078-.012-.098-.012-.181 0-.359 0-.534.012a5.715 5.715 0 00-.52.058zm-25.266 4.265v.202c0 .104.009.2.038.289.06.245.258.367.597.367.115.002.23-.016.339-.052.23-.072.347-.246.356-.52a.503.503 0 00-.23-.434 3.318 3.318 0 00-.379-.208l-.445-.202a2.516 2.516 0 01-.44-.242.844.844 0 01-.367-.74c0-.352.14-.6.41-.751.26-.124.546-.182.834-.17.43 0 .74.083.93.245.15.133.227.39.227.777v.072h-.612v-.086l-.011-.188c-.038-.28-.219-.419-.546-.413-.41 0-.617.167-.623.5 0 .21.13.38.388.514.16.086.338.167.54.254.2.084.367.162.493.24a.893.893 0 01.443.817c-.006.659-.443.991-1.307.991a1.56 1.56 0 01-.856-.182.789.789 0 01-.382-.644l-.008-.292v-.144h.611zm2.35-1.242c0-.295.028-.512.08-.65.086-.22.264-.376.54-.466a2 2 0 01.649-.104 2 2 0 01.649.104c.273.087.45.246.534.463.064.212.093.434.086.655v1.214c0 .22-.011.407-.037.566-.066.48-.471.722-1.215.722-.537 0-.899-.11-1.08-.335-.143-.168-.21-.488-.207-.953v-1.216zm.611 1.213c0 .303.023.503.066.592a.46.46 0 00.236.217.861.861 0 00.356.078.77.77 0 00.319-.067.468.468 0 00.321-.416c.009-.112.015-.245.017-.404v-1.213a1.16 1.16 0 00-.086-.555c-.097-.173-.287-.26-.571-.257a.834.834 0 00-.308.055.465.465 0 00-.335.421 2.247 2.247 0 00-.015.336v1.213zm2.481-2.38h.61v2.417l.005.318c.02.353.224.529.609.532.388 0 .6-.165.634-.497a2.86 2.86 0 00.023-.353v-2.418h.612v2.456c0 .202-.008.355-.02.468a.671.671 0 01-.204.422c-.224.22-.566.326-1.025.326-.477 0-.822-.107-1.031-.32a.695.695 0 01-.201-.428 5.039 5.039 0 01-.012-.468v-2.456zm4.087 0h.365c.14 0 .27.014.387.034.451.072.678.358.687.867 0 .268-.06.468-.181.61-.115.132-.34.219-.672.268.153.007.304.039.448.092.129.067.212.174.244.315.023.11.036.223.04.335l.029.425c.01.23.057.458.138.673h-.632l-.063-.23a1.247 1.247 0 01-.035-.25l-.023-.326-.02-.338c-.029-.26-.152-.416-.373-.468a1.593 1.593 0 00-.319-.029h-.422v1.641h-.615v-3.62h1.017zm-.405.407v1.164h.436c.114 0 .227-.007.34-.023.186-.029.315-.107.387-.228a.848.848 0 00.069-.402c0-.202-.069-.34-.204-.419a1.21 1.21 0 00-.557-.092h-.471zm4.141.549l-.003-.168c-.014-.289-.186-.433-.514-.433-.293 0-.482.078-.568.23a.453.453 0 00-.08.22l-.007.298v1.43c0 .26.03.425.075.5.1.156.276.23.523.23.324 0 .508-.152.548-.461l.026-.232v-.124h.612v.127l-.006.226a.872.872 0 01-.278.62.86.86 0 01-.354.186c-.172.046-.35.068-.528.066a2.128 2.128 0 01-.471-.043c-.503-.093-.755-.434-.758-1.011v-1.445c0-.159.005-.303.028-.439a.82.82 0 01.164-.41c.195-.246.546-.37 1.048-.376.704.006 1.086.232 1.138.674.011.086.017.181.017.288v.14h-.612v-.093zm1.143-.954h1.999v.405h-1.387v1.152h1.301v.405h-1.301v1.25h1.427v.408H99.93v-3.62zm3.621 1.167c0-.297.029-.514.084-.652.08-.22.258-.376.537-.466.209-.07.428-.105.649-.104.23 0 .445.035.649.104.273.087.451.246.537.463.063.212.092.434.086.655v1.214c0 .22-.014.407-.037.566-.072.48-.474.722-1.218.722-.54 0-.899-.11-1.08-.335-.14-.168-.209-.488-.207-.953v-1.214zm.612 1.21c-.012.2.01.401.066.593.05.099.134.176.236.217a.86.86 0 00.356.078.76.76 0 00.321-.067.466.466 0 00.316-.416c.012-.112.018-.245.02-.404v-1.213c.017-.19-.012-.38-.086-.555-.097-.173-.287-.26-.571-.257a.824.824 0 00-.307.055.461.461 0 00-.334.421c-.014.111-.02.224-.017.336v1.213zm4.431-2.38v.408h-1.335v1.147h1.287v.404h-1.287v1.661h-.612v-3.62h1.947zm2.034 2.41v.202a.856.856 0 00.037.289c.057.245.258.367.594.367.117.002.234-.016.345-.052.227-.072.345-.246.353-.52a.505.505 0 00-.23-.434 3.236 3.236 0 00-.379-.208l-.445-.202a2.73 2.73 0 01-.442-.242.86.86 0 01-.365-.74c.003-.352.141-.6.411-.751.26-.124.546-.183.833-.17.428 0 .738.083.93.245.15.133.224.39.224.777v.072h-.609v-.086l-.011-.188c-.04-.28-.221-.419-.546-.413-.413 0-.617.167-.623.5 0 .21.129.38.388.514.158.086.339.167.54.254.201.084.367.162.494.24a.894.894 0 01.442.817c-.009.659-.442.991-1.307.991a1.56 1.56 0 01-.856-.182.792.792 0 01-.379-.644l-.011-.292v-.144h.612zm2.372-2.41h.608v2.418l.006.318c.02.353.227.529.609.532.388 0 .597-.165.635-.497a4.61 4.61 0 00.023-.353v-2.418h.611v2.456c0 .202-.008.355-.023.468a.653.653 0 01-.201.422c-.224.22-.568.326-1.025.326-.477 0-.824-.107-1.034-.32a.702.702 0 01-.195-.428 5.62 5.62 0 01-.014-.468v-2.456zm4.87.954v-.165c-.017-.289-.189-.433-.517-.433-.29 0-.479.078-.568.23a.47.47 0 00-.081.22l-.005.298v1.43c.002.26.028.425.077.5.098.156.273.23.52.23.324 0 .508-.152.551-.461l.023-.232v-.124h.612v.127l-.006.226a.845.845 0 01-.276.62.859.859 0 01-.356.186 1.98 1.98 0 01-.528.066 2.103 2.103 0 01-.468-.043c-.506-.093-.755-.434-.758-1.011v-1.445a2.482 2.482 0 01.028-.439.788.788 0 01.164-.41c.195-.246.543-.37 1.048-.376.704.006 1.086.232 1.138.674.01.096.014.192.014.288v.14h-.612v-.096zm2.952 0l-.002-.165c-.018-.289-.187-.433-.517-.433-.29 0-.48.078-.569.23a.433.433 0 00-.078.22l-.005.298v1.43c0 .26.028.425.074.5.101.156.276.23.523.23.325 0 .506-.152.546-.461l.028-.232v-.124h.609v.127l-.003.226a.88.88 0 01-.278.62.863.863 0 01-.356.186c-.173.046-.35.068-.529.066a2.103 2.103 0 01-.468-.043c-.502-.093-.755-.434-.758-1.011v-1.445a2.482 2.482 0 01.029-.439.797.797 0 01.161-.41c.198-.246.545-.37 1.051-.376.703.006 1.082.232 1.137.674.011.086.014.181.014.288v.14h-.609v-.096zm1.143-.954h1.999v.408h-1.387v1.152h1.301v.405h-1.301v1.25h1.425v.408h-2.039l.002-3.623zm2.935 2.41v.202c0 .104.009.2.038.289.06.245.258.367.594.367.117.002.234-.016.345-.052.227-.072.344-.246.353-.52a.515.515 0 00-.23-.434 3.236 3.236 0 00-.379-.208l-.445-.202a2.545 2.545 0 01-.439-.242.854.854 0 01-.368-.74c.003-.352.141-.6.411-.751.259-.124.545-.183.833-.17.43 0 .738.083.93.245.152.133.227.39.227.777v.072h-.612v-.086l-.011-.188c-.038-.28-.221-.419-.546-.413-.411 0-.617.167-.623.5 0 .21.129.38.385.514.161.086.344.167.545.254.201.084.362.162.489.24a.902.902 0 01.445.817c-.006.659-.44.991-1.307.991a1.551 1.551 0 01-.856-.182.773.773 0 01-.379-.644l-.011-.292v-.144h.611zm2.832 0v.202a.91.91 0 00.037.289c.061.245.259.367.595.367.116.002.231-.016.342-.052.229-.072.344-.246.356-.52a.515.515 0 00-.23-.434 3.267 3.267 0 00-.382-.208l-.442-.202a2.592 2.592 0 01-.44-.242.84.84 0 01-.367-.74c.003-.352.14-.6.41-.751.26-.124.546-.183.833-.17.431 0 .738.083.931.245.149.133.227.39.227.777v.072h-.612v-.086l-.015-.188c-.034-.28-.218-.419-.542-.413-.411 0-.618.167-.623.5 0 .21.129.38.387.514.158.086.339.167.54.254.201.084.368.162.491.24a.895.895 0 01.445.817c-.008.659-.442.991-1.306.991a1.556 1.556 0 01-.856-.182.784.784 0 01-.379-.644l-.012-.292v-.144h.612z" fill="#fff"></path></svg>