<svg width="158" height="73" viewBox="0 0 158 73" fill="none" xmlns="http://www.w3.org/2000/svg">
<path d="M136.022 28.301C128.171 28.7896 131.696 39.0304 140.374 38.4903C148.866 37.9615 144.387 27.7803 136.022 28.301Z" fill="#F19021"/>
<path d="M132.706 21.9747C127.694 21.9776 122.799 23.4654 118.653 26.2455C114.48 29.0456 111.24 33.0012 109.338 37.6149C107.423 42.2505 106.922 47.3378 107.898 52.2507C108.867 57.1512 111.275 61.6618 114.822 65.2211C118.342 68.7547 122.852 71.1689 127.772 72.1537C132.679 73.1312 137.771 72.629 142.385 70.7124C147.022 68.7831 150.974 65.5354 153.736 61.3824C156.52 57.203 158.002 52.3098 158 47.3076C158 40.5895 155.335 34.147 150.591 29.3958C148.257 27.0498 145.474 25.1857 142.403 23.9119C139.333 22.6381 136.036 21.9802 132.706 21.9763V21.9747ZM132.706 69.9869C128.221 69.9842 123.841 68.6532 120.131 66.1659C116.396 63.6607 113.495 60.1213 111.793 55.9927C110.078 51.8444 109.63 47.2917 110.502 42.895C111.369 38.5095 113.523 34.4726 116.697 31.2869C119.847 28.1245 123.882 25.9636 128.285 25.0814C132.677 24.2068 137.234 24.6562 141.364 26.3712C145.514 28.0986 149.05 31.0042 151.523 34.7194C153.592 37.8319 154.863 41.3941 155.228 45.0994C155.593 48.8047 155.04 52.542 153.617 55.9895C152.483 58.7337 150.817 61.2324 148.711 63.3445C146.616 65.4451 144.12 67.1152 141.367 68.2586C138.625 69.3976 135.68 69.9862 132.706 69.9869ZM131.941 4.29175C125.94 8.83824 126.983 15.8079 126.983 15.8079C126.983 15.8079 123.206 6.00072 118.307 0C117.649 7.71935 120.062 17.9522 120.062 17.9522C120.062 17.9522 116.992 11.608 109.474 11.2534C115.712 14.8422 118.13 21.3137 118.684 23.0484C122.391 20.7523 126.647 19.4621 131.02 19.3081C130.527 17.6942 128.78 10.8874 131.945 4.29175H131.941Z" fill="#F19021"/>
<path d="M2.203 49.792V55.093H0V41.4326H4.63788C6.20889 41.4326 7.38959 41.8066 8.18162 42.5563C8.97202 43.306 9.37049 44.333 9.37538 45.634C9.37538 46.9238 8.96876 47.9395 8.15713 48.6795C7.34713 49.4212 6.17622 49.792 4.64605 49.792H2.203ZM7.1283 45.6324C7.1283 44.8586 6.91273 44.2669 6.47997 43.8606C6.05048 43.4543 5.35806 43.2512 4.40599 43.2528H2.20136V47.9895H4.40599C6.21868 47.9895 7.1283 47.206 7.1283 45.6324ZM18.4666 55.093L15.0682 49.6388H13.5038V55.093H11.2991V41.4326H16.1085C17.6664 41.4326 18.8488 41.8131 19.6539 42.574C20.4589 43.335 20.8623 44.341 20.8607 45.5921C20.8607 46.6562 20.5602 47.5332 19.9625 48.2249C19.3632 48.9149 18.5009 49.3535 17.3725 49.5405L20.9587 55.0898L18.4666 55.093ZM13.5021 48.0685H15.9321C17.7121 48.0685 18.5989 47.2834 18.5989 45.7098C18.5989 44.9634 18.3833 44.3797 17.9538 43.9589C17.5211 43.5398 16.8499 43.3302 15.9321 43.3302H13.5054V48.0701L13.5021 48.0685ZM30.9873 52.1329H25.2307L24.1856 55.093H21.834L26.8556 41.647H29.3869L34.3889 55.093H32.0308L30.9889 52.1329H30.9873ZM30.3667 50.4304L28.1066 44.046L25.8448 50.4304H30.3667ZM45.5117 42.516C46.5961 43.3214 47.3559 44.4806 47.6559 45.7872H45.3386C45.0519 45.0637 44.5417 44.4476 43.8803 44.0266C43.1632 43.5759 42.3263 43.3463 41.4764 43.3672C40.6714 43.3542 39.8785 43.5612 39.1852 43.9654C38.5059 44.3684 37.9572 44.9601 37.6012 45.6663C37.2071 46.4777 37.0155 47.3705 37.0427 48.27C37.0165 49.199 37.2147 50.1208 37.6208 50.9592C37.9817 51.6799 38.55 52.278 39.2538 52.6714C40.0018 53.0793 40.8444 53.2841 41.6969 53.2696C42.7695 53.2872 43.8096 52.9056 44.6102 52.2007C45.4202 51.4993 45.9102 50.5352 46.08 49.3083H41.0698V47.68H47.9254V49.7888C47.7823 50.7702 47.4167 51.7071 46.8557 52.5295C46.2898 53.3545 45.5271 54.0294 44.6347 54.4949C43.6605 54.9957 42.5746 55.2474 41.4764 55.2268C40.2437 55.2516 39.0275 54.9439 37.9588 54.3369C36.9513 53.7545 36.1336 52.8997 35.6023 51.8734C35.0549 50.747 34.7708 49.5137 34.7708 48.2644C34.7708 47.0151 35.0549 45.7818 35.6023 44.6554C36.1302 43.6307 36.9446 42.7769 37.949 42.1952C39.0165 41.5953 40.2287 41.2922 41.4568 41.3181C43.0801 41.3181 44.4322 41.7163 45.5133 42.5144L45.5117 42.516ZM63.4786 41.6486V55.093H61.2576V45.0133L57.3726 55.093H55.4423L51.5393 45.0133V55.093H49.3379V41.647H52.0031L56.445 52.3844L60.8102 41.647L63.4786 41.6486ZM74.2568 52.1329H68.5084L67.4649 55.093H65.1002L70.1235 41.647H72.6547L77.6568 55.093H75.3003L74.2568 52.1329ZM73.6362 50.4304L71.3777 44.046L69.1175 50.4304H73.6362ZM87.0861 41.4342V43.2125H83.2778V55.093H81.0568V43.2125H77.2698V41.4326L87.0844 41.4358L87.0861 41.4342ZM90.4632 41.4342V55.093H88.2635V41.4326L90.4632 41.4342ZM102.923 42.574C104.045 43.4464 104.835 44.6673 105.166 46.0387H102.824C102.527 45.2456 101.992 44.5609 101.29 44.0766C100.528 43.5748 99.626 43.3206 98.7102 43.3495C97.9431 43.3372 97.1887 43.5444 96.5382 43.946C95.885 44.3652 95.3657 44.9585 95.0325 45.6582C94.6695 46.4758 94.482 47.3588 94.482 48.2515C94.482 49.1442 94.6695 50.0272 95.0325 50.8448C95.3641 51.5445 95.885 52.1378 96.5382 52.557C97.1914 52.96 97.9443 53.168 98.7102 53.1551C99.6258 53.1846 100.528 52.9309 101.29 52.4296C101.988 51.954 102.523 51.2768 102.825 50.4869H105.166C104.838 51.8559 104.048 53.0739 102.925 53.9403C101.816 54.7851 100.427 55.2075 98.751 55.2075C97.5514 55.2299 96.3687 54.9253 95.333 54.3272C94.3431 53.7436 93.5448 52.8905 93.0337 51.8701C92.4975 50.7407 92.2196 49.5086 92.2196 48.2612C92.2196 47.0138 92.4975 45.7817 93.0337 44.6522C93.5468 43.6308 94.3445 42.775 95.333 42.1855C96.3661 41.5817 97.549 41.2735 98.7494 41.2955C100.423 41.2955 101.813 41.7228 102.923 42.574ZM115.554 49.792V55.093H113.354V41.4326H117.987C119.558 41.4326 120.74 41.8066 121.534 42.5563C122.329 43.306 122.728 44.333 122.729 45.634C122.729 46.9238 122.323 47.9395 121.511 48.6795C120.701 49.4212 119.53 49.792 118 49.792H115.554ZM120.485 45.6324C120.485 44.8586 120.271 44.2669 119.842 43.8606C119.409 43.4543 118.717 43.2512 117.763 43.2528H115.554V47.9895H117.757C119.576 47.9895 120.485 47.206 120.485 45.6324ZM126.505 53.3711H131.221V55.093H124.305V41.4326H126.508L126.505 53.3711ZM141.305 52.1329H135.549L134.505 55.093H132.147L137.17 41.647H139.703L144.707 55.093H142.349L141.305 52.1329ZM140.686 50.4304L138.428 44.046L136.168 50.4304H140.686ZM153.547 41.4342L149.008 50.1193V55.093H146.789V50.1193L142.233 41.4342H144.784L147.913 47.7606L151.042 41.4326L153.547 41.4342Z" fill="white"/>
</svg>
