<svg width="155" height="56" viewBox="0 0 155 56" fill="none" xmlns="http://www.w3.org/2000/svg">
<mask id="mask0_3_1019" style="mask-type:luminance" maskUnits="userSpaceOnUse" x="0" y="0" width="155" height="56">
<path d="M0 0H155V56H0V0Z" fill="white"/>
</mask>
<g mask="url(#mask0_3_1019)">
<path d="M57.1175 4.16039C58.8225 15.777 65.41 25.4281 77.035 33.2299C81.53 30.3984 85.1725 26.9879 88.505 23.3479H72.1525C71.0675 22.0777 69.905 20.7473 68.7425 19.3596H97.7275C92.845 26.9305 86.18 33.346 77.19 38.431C70.2925 34.5588 64.635 29.878 60.3743 24.3873C54.3257 16.9339 51.4582 8.78381 51.4582 0H102.842C102.763 5.25854 101.833 10.345 99.4307 15.3153H66.3436C65.7218 14.0437 65.1018 12.7721 64.4043 11.3844H95.4043C96.2568 8.95727 96.8768 6.58751 97.1093 4.16039H57.1175ZM97.805 43.5748H101.06C102.61 45.4242 104.16 47.3309 105.71 49.2964C107.337 47.3309 108.81 45.4816 110.36 43.5735H113.615V55.7104H110.515V48.0248C110.437 48.0248 110.437 48.0248 110.36 47.966C108.887 49.8154 107.337 51.6661 105.787 53.5729C105.555 53.3994 105.322 53.2833 105.167 53.1099C104.005 51.6661 102.842 50.2784 101.68 48.8347C101.445 48.5372 101.158 48.2648 100.827 48.0248V55.7104H97.7275C97.805 51.7221 97.805 47.6779 97.805 43.5748ZM153.837 46.118C152.907 46.5223 152.055 46.8693 151.125 47.2736C150.195 46.2901 148.955 45.7711 147.327 45.5977C146.096 45.4766 144.847 45.6586 143.762 46.1167C141.67 47.1001 140.74 49.0068 141.515 50.9136C142.135 52.5321 144.382 53.6876 146.94 53.6316C149.42 53.6316 151.202 52.5908 151.59 51.2605H146.707V49.239H154.767C155.542 52.879 152.132 55.8839 147.25 56C144.382 56.0574 141.98 55.4222 140.042 53.8037C138.88 52.879 138.26 51.7235 138.105 50.5093C137.64 47.7366 139.345 45.3081 142.6 43.9805C146.01 42.6501 150.892 43.1705 153.45 45.7698C153.682 45.8859 153.76 46.002 153.837 46.118ZM79.1275 46.118C78.1975 46.5223 77.3432 46.8693 76.415 47.2736C74.4 45.3668 71.3775 45.3095 69.285 46.0607C67.1925 46.8693 66.03 48.8334 66.65 50.7415C67.27 52.5335 69.44 53.7463 72.1525 53.7463C74.555 53.7463 76.3375 52.8217 76.8025 51.3766H71.9975V49.2964H80.135C80.29 50.2798 80.2125 51.2031 79.7475 52.1865C78.7382 54.3828 76.6475 55.6531 73.625 56C69.905 56.4043 66.805 55.5383 64.7125 53.1686C63.1625 51.4339 62.9282 49.5272 63.86 47.5631C65.1757 44.7891 68.7425 43.1705 72.695 43.4014C75.485 43.5175 77.5775 44.3848 79.1275 46.118ZM135.78 55.7678H133.377C131.13 53.3421 128.805 50.9136 126.48 48.4291H126.325V55.7104H123.147V43.5748H125.55C127.797 45.9446 130.122 48.3717 132.447 50.8562C132.525 50.8562 132.525 50.8562 132.602 50.7988V43.5735H135.78V55.7678ZM45.88 48.3717H52.0025V43.5748H55.1025V55.7104C54.7925 55.7104 54.56 55.7104 54.3275 55.7692H52.0025V50.6827H45.9575V55.7104H42.78V43.5748H45.88V48.3717ZM96.0225 55.7678H92.845C92.4575 55.0753 92.1475 54.3241 91.76 53.6302H85.0193C84.7052 54.3492 84.3687 55.0623 84.01 55.7692H80.5225C82.46 51.7235 84.32 47.6779 86.2575 43.6322H90.2875C92.225 47.6205 94.085 51.6648 96.0225 55.7678ZM90.675 51.3192C89.9 49.6433 89.125 48.0248 88.35 46.4062H88.195C87.4975 48.0248 86.7225 49.6433 86.025 51.3192H90.675ZM13.7175 43.5748H16.8175V51.6661C16.8175 52.5908 17.36 53.226 18.445 53.5141C19.375 53.7463 20.3825 53.7463 21.3125 53.5141C22.165 53.2833 22.7075 52.8217 22.8625 52.1278C22.94 51.7809 22.94 51.4927 22.94 51.1444V44.1512V43.5748H26.04C26.04 43.6896 26.1175 43.807 26.1175 43.863V51.6661C26.1175 52.9364 25.6525 53.9772 24.335 54.8445C23.4343 55.4209 22.3288 55.7826 21.1575 55.8839C19.375 56.0574 17.7475 55.9426 16.12 55.2488C14.4925 54.5549 13.64 53.4568 13.5625 52.0704C13.485 49.2964 13.5625 46.5223 13.5625 43.7483C13.7175 43.7483 13.7175 43.6896 13.7175 43.5748ZM40.145 46.002C39.215 46.4076 38.44 46.7532 37.5857 47.1001C37.2775 46.8119 37.045 46.5811 36.735 46.2915C35.96 45.5977 34.4875 45.3668 33.325 45.655C32.6275 45.8285 32.24 46.1754 32.1625 46.6958C32.085 47.2162 32.4725 47.5631 33.015 47.794C33.48 47.9674 33.945 48.1409 34.41 48.257C35.4175 48.5452 36.5007 48.776 37.51 49.0656C41.3075 50.105 41.385 52.9378 39.68 54.4976C38.905 55.1914 37.8957 55.5957 36.735 55.7692C35.185 56.0587 33.5575 56.0014 32.0075 55.6531C30.2232 55.1914 29.0625 54.3241 28.2875 52.9951C28.7525 52.8217 29.14 52.5908 29.6032 52.36C30.07 52.1865 30.535 51.9543 30.9225 51.8396C31.31 52.2439 31.62 52.6482 32.085 52.9378C33.2475 53.689 34.6425 53.8037 36.115 53.5155C36.4766 53.4559 36.805 53.3127 37.0548 53.1058C37.3046 52.8988 37.4637 52.6383 37.51 52.36C37.51 51.7822 37.1225 51.3766 36.425 51.2045C35.65 50.9723 34.9525 50.7988 34.1775 50.568C33.1682 50.2784 32.1625 50.049 31.2325 49.7007C30.6649 49.5091 30.1692 49.2134 29.7903 48.8402C29.4114 48.4669 29.1613 48.028 29.0625 47.5631C28.675 45.8872 29.76 44.326 31.8525 43.6336C34.6425 42.7662 38.595 43.4601 40.145 46.002ZM3.1775 51.7235V55.7118H0V43.6322C0.0775 43.6322 0.232502 43.5748 0.310002 43.5748C2.48 43.5748 4.65 43.5748 6.7425 43.6322C10.075 43.7483 12.4775 46.3489 11.3925 48.9495C10.695 50.5666 8.68 51.7809 6.045 51.7809C5.115 51.7809 4.185 51.7235 3.1775 51.7235ZM3.1775 45.7711V49.4699H5.9675C7.3625 49.4699 8.2925 48.776 8.4475 47.794C8.525 46.7532 7.75 45.8859 6.4325 45.7711C5.425 45.7124 4.34 45.7711 3.1775 45.7711ZM116.947 43.5748H120.047V55.7104H116.947V43.5748Z" fill="white"/>
</g>
</svg>
