<svg width="155" height="56" viewBox="0 0 155 56" fill="none" xmlns="http://www.w3.org/2000/svg">
<mask id="mask0_3_852" style="mask-type:luminance" maskUnits="userSpaceOnUse" x="0" y="0" width="155" height="56">
<path d="M0 0H155V56H0V0Z" fill="white"/>
</mask>
<g mask="url(#mask0_3_852)">
<path d="M95.2475 17.2015V7.13106C95.2475 4.17617 93.5836 2.84051 91.6711 1.9314C89.4966 0.905532 85.6307 0 77.5 0C69.3694 0 65.4966 0.903149 63.3289 1.9314C61.4256 2.84051 59.7502 4.17617 59.7502 7.13106V17.4053C59.7502 18.3799 60.1241 19.345 60.8489 20.2386C61.5715 21.1323 62.6291 21.9353 63.9558 22.5978L69.048 25.1428C69.1665 25.2014 69.3074 25.2461 69.4614 25.274C69.6155 25.3019 69.7791 25.3125 69.9415 25.3049C70.1049 25.2969 70.263 25.2704 70.4047 25.2272C70.5465 25.184 70.6684 25.1251 70.7621 25.0546L75.0793 21.9127C75.2488 21.7882 75.3273 21.6361 75.3005 21.4839C75.2737 21.3317 75.1435 21.1896 74.9334 21.0834L71.3251 19.2795C70.541 18.8868 69.9189 18.4144 69.497 17.8914C69.0718 17.3642 68.8532 16.7978 68.8542 16.2257V9.24357C68.8542 7.12868 70.3541 6.22196 70.9239 5.98247C71.5781 5.70843 72.9663 5.05311 77.5 5.05311C82.0361 5.05311 83.4242 5.70843 84.0761 5.98247C84.646 6.22196 86.1481 7.12868 86.1481 9.24477V15.8289C86.1515 16.8953 85.5154 17.9354 84.3292 18.8029L73.568 26.6393C73.3968 26.7632 73.3166 26.9152 73.3421 27.0675C73.3676 27.2198 73.4972 27.3622 73.7071 27.4686L77.5 29.3631L79.0227 30.1244L80.0233 30.6248L81.2702 31.248C81.6987 31.4625 82.2594 31.5804 82.843 31.5804H92.9955C93.2284 31.5797 93.4553 31.5414 93.6451 31.4708C93.7877 31.4157 93.9059 31.3452 93.9915 31.264C94.0771 31.1828 94.1281 31.0929 94.1411 31.0005C94.1541 30.9081 94.1287 30.8152 94.0667 30.7284C94.0047 30.6416 93.9075 30.5628 93.7819 30.4974L85.7242 26.4737L92.6718 21.4158C94.3508 20.186 95.2514 18.7124 95.2475 17.2015Z" fill="#FF7800"/>
<path d="M95.2429 17.2015V7.13106C95.2429 4.17617 93.5767 2.84051 91.6643 1.9314C89.4897 0.905532 85.6238 0 77.4977 0C69.3671 0 65.4921 0.903149 63.3266 1.9314C61.4233 2.84051 59.7479 4.17617 59.7479 7.13106V17.4053C59.7479 18.3799 60.1218 19.345 60.8443 20.2386C61.5692 21.1323 62.6268 21.9353 63.9512 22.5978L69.0457 25.1428C69.1639 25.2012 69.3044 25.2458 69.4581 25.2738C69.6117 25.3017 69.7749 25.3123 69.9369 25.3049C70.1003 25.2968 70.2583 25.2703 70.4 25.2271C70.5418 25.1839 70.6637 25.125 70.7575 25.0546L75.0747 21.9127C75.2445 21.7883 75.3233 21.6363 75.297 21.4841C75.2707 21.332 75.1408 21.1898 74.9311 21.0834L71.3205 19.2795C70.5373 18.8867 69.916 18.4143 69.4947 17.8914C69.0687 17.3643 68.8494 16.7979 68.8496 16.2257V9.24357C68.8496 7.12868 70.3495 6.22196 70.9216 5.98247C71.5735 5.70843 72.9617 5.05311 77.4977 5.05311C82.0315 5.05311 83.4196 5.70843 84.0716 5.98247C84.6414 6.22196 86.1458 7.12868 86.1458 9.24477V15.8289C86.1486 16.8954 85.5116 17.9355 84.3246 18.8029L73.5657 26.6393C73.3945 26.7632 73.3143 26.9152 73.3398 27.0675C73.3653 27.2198 73.4949 27.3622 73.7048 27.4686L77.4977 29.3631L79.0181 30.1244L80.021 30.6248L81.2679 31.248C81.6941 31.4625 82.2571 31.5804 82.8407 31.5804H92.9909C93.2246 31.5799 93.4523 31.5416 93.6428 31.4708C93.8359 31.3989 93.9835 31.2985 94.0668 31.1825C94.15 31.0658 94.1669 30.9391 94.1155 30.8176C94.0642 30.696 93.9467 30.5848 93.7773 30.4974L85.7196 26.4737L92.6672 21.4158C94.3463 20.186 95.247 18.7124 95.2429 17.2015ZM151.761 41.3947V51.7869L142.605 42.815C141.494 41.7462 140.731 41.3971 139.288 41.3971C137.845 41.3971 136.826 41.9369 136.826 43.0056V54.457H140.061V44.0649L149.215 53.038C150.325 54.1067 151.089 54.4546 152.531 54.4546C153.974 54.4546 154.995 53.9161 154.995 52.8402V41.3959L151.761 41.3947ZM87.265 41.4043H82.827L73.9008 46.542V41.4043H70.664V54.4677H73.9008V49.1013L74.8559 48.5508L83.0663 54.4725H87.265L77.092 47.2628L87.265 41.4043ZM120.989 42.1883C119.186 41.546 117.123 41.4043 115.09 41.4043H109.115V54.4677H112.468V49.8734H115.076C117.109 49.8734 119.172 49.7268 120.975 49.0894C122.776 48.4519 124.264 47.3593 124.264 45.6352C124.264 43.9123 122.762 42.8245 120.989 42.1883ZM119.27 47.6441C118.37 48.0266 116.973 48.266 115.09 48.266H112.482V43.0175H115.09C116.973 43.0175 118.372 43.2558 119.27 43.6395C119.833 43.8778 120.289 44.1804 120.604 44.5271C120.918 44.8755 121.082 45.256 121.082 45.6412C121.082 46.0264 120.918 46.4069 120.604 46.7552C120.293 47.1003 119.837 47.4042 119.27 47.6441ZM15.0099 52.9343C15.4316 52.6471 15.7963 52.335 16.0949 52.0049C16.9679 51.0339 16.9611 49.9198 16.9565 49.1835V46.6123C16.9565 45.8783 16.9565 44.7607 16.0949 43.7908C14.5358 42.0703 11.7686 41.21 8.48853 41.21H8.44978C5.16971 41.21 2.4025 42.0774 0.859336 43.7956C-0.0136788 44.7666 -0.00683431 45.8807 -0.00683431 46.6182V49.1894C-0.00683431 49.9234 -0.00684056 51.0398 0.859336 52.0109C2.40934 53.7338 5.1811 54.5964 8.47257 54.5964C9.74949 54.6029 11.0124 54.457 12.1652 54.1699L14.7683 56.0048H19.3499L15.0076 52.9355L15.0099 52.9343ZM13.7107 49.2657C13.7107 49.8626 13.7221 50.6788 13.1636 51.2948C12.5824 51.943 11.1896 52.9248 8.46802 52.9271C5.7464 52.9271 4.3514 51.943 3.76787 51.2948C3.18434 50.6454 3.22309 49.7209 3.22309 49.1215V46.6826C3.22309 46.0844 3.17978 45.1574 3.76787 44.5093C4.35596 43.8611 5.7464 42.8793 8.46802 42.8793C11.1896 42.8793 12.5824 43.8611 13.1636 44.5093C13.7471 45.1586 13.7107 46.0844 13.7107 46.6826V49.2657ZM57.0058 43.518C59.2214 42.616 61.747 42.5243 65.6448 43.0128V41.8046C65.6448 41.8046 63.7118 41.21 60.6415 41.21C57.5688 41.21 55.7909 41.6378 54.3708 42.3217C52.7387 43.1009 51.4988 44.346 51.1409 46.2846C50.9494 47.3927 50.9494 48.5091 51.1409 49.6184C51.4988 51.5522 52.7501 52.7973 54.3708 53.5813C55.7909 54.2652 57.5551 54.6906 60.6392 54.6906C63.7255 54.6906 65.6311 54.0912 65.6311 54.0912V52.8819C61.7356 53.3728 59.21 53.2786 56.9967 52.3791C54.7401 51.4616 54.291 49.7518 54.2773 47.9563C54.2637 46.1607 54.7492 44.439 57.0058 43.518ZM99.6194 42.7316C101.27 42.7685 102.915 42.8603 104.543 43.0068V41.5997C102.417 41.2925 100.211 41.1638 98.0079 41.2184C96.7246 41.2422 95.4504 41.3375 94.2013 41.5008C92.4233 41.7486 91.434 42.2073 90.8847 42.6565C90.5392 42.9414 90.3224 43.2638 90.2509 43.5991C90.1794 43.9344 90.2551 44.2738 90.4721 44.5915C90.5086 44.6475 90.5474 44.7047 90.5952 44.7643C91.2221 45.6352 92.1726 46.3049 93.522 47.0936C94.9694 47.9396 97.9668 49.4528 99.2296 50.2654C100.014 50.786 100.939 51.4807 100.479 52.08C99.9773 52.7353 97.7457 53.1905 95.1176 53.15C93.4677 53.1081 91.8238 53.0166 90.194 52.8759V54.2735C90.194 54.2735 92.2387 54.762 96.7291 54.6643C101.22 54.5678 102.997 53.9185 103.845 53.2262C104.272 52.8414 104.511 52.4053 104.543 51.9573V51.9215C104.543 51.8477 104.536 51.7726 104.527 51.6963C104.459 51.0255 104.206 50.5227 102.624 49.5338C100.846 48.4293 97.666 46.7993 96.2299 45.9951L95.8379 45.7723C94.7893 45.1646 93.6382 44.4068 94.1739 43.6848C94.7369 42.9258 97.242 42.7066 99.6194 42.7316ZM43.229 41.4019H46.5843V54.4725H43.229V41.4019ZM128.429 41.3816H131.782V54.4523H128.429V41.3816ZM24.7635 41.4043H21.5268V49.9687C21.5268 51.5009 22.4841 54.6727 29.7623 54.6727C37.0404 54.6727 37.9955 51.5009 37.9955 49.9687V41.4043H34.761V49.9687C34.761 52.7008 31.2963 53.0511 29.7623 53.0511C28.2305 53.0511 24.7635 52.7055 24.7635 49.9687V41.4043Z" fill="#FF7800"/>
</g>
</svg>
