<svg fill="none" viewBox="0 0 150 56" id="providers--realisticgame" xmlns="http://www.w3.org/2000/svg"><g clip-path="url(#hrclip0_2492_24106)"><path d="M131.376 32.735c.232.222.348.499.348.831 0 .499-.29.886-.696 1.108a7.747 7.747 0 01-4.118 1.218c-1.044 0-2.03-.221-3.016-.554a9.123 9.123 0 01-2.668-1.606 7.664 7.664 0 01-1.914-2.381c-.464-.942-.696-1.939-.754-2.991 0-1.052.232-2.105.638-3.102a7.543 7.543 0 011.798-2.658c1.566-1.606 3.77-2.492 6.032-2.492 1.218 0 2.436.221 3.596.664.87.333 1.276.831 1.276 1.551 0 .332-.116.61-.348.886a1.031 1.031 0 01-.812.388c-.174 0-.348-.056-.522-.11-.986-.5-2.088-.832-3.19-.832-1.044 0-2.03.277-2.9.776a5.182 5.182 0 00-2.03 2.104c-.464.831-.754 1.717-.754 2.714.058 1.828 1.102 3.545 2.726 4.486.812.499 1.798.72 2.784.72 1.044 0 2.088-.277 3.016-.72.232-.11.464-.166.696-.166.232-.166.58-.055.812.166zM114.092 21.659V34.23c0 .443-.116.886-.406 1.218-.232.277-.58.443-.986.443s-.754-.166-.986-.498c-.29-.388-.406-.83-.406-1.33v-12.46.055c0-.444.116-.831.406-1.164.232-.277.58-.443.986-.443.348 0 .696.166.986.388.29.388.464.83.406 1.218zM107.248 21.548c0 .332-.116.664-.406.886-.29.277-.696.387-1.102.332h-4.988c.29.332.638.665 1.044.942.406.277.754.554 1.102.886.232.277.348.61.348.941v9.083c0 .388-.116.72-.348.997-.232.222-.58.333-.928.333-.406 0-.754-.111-1.044-.388-.29-.222-.464-.61-.464-.997v-8.03h-.058a1.77 1.77 0 00-.464-1.385l-.696-.665c-.232-.166-.522-.443-.928-.72l-1.102-.886c-.464-.277-.754-.775-.812-1.33 0-.332.116-.72.406-.94.232-.222.522-.389.87-.389h7.83c.464 0 .928.111 1.276.444.29.166.464.498.464.886zM28.774 34.674c0 .332-.174.665-.464.886-.29.222-.638.332-1.044.332-.348.056-.754-.11-.928-.443l-2.436-3.877c-.058-.277-.058-.553-.058-.83l.232-.499c.116-.443.464-.665 1.044-.665.406-.055.754.111.986.444l2.494 3.987c.058.111.174.388.174.665zM93.908 30.908c0 .277 0 .609-.058.941a3.85 3.85 0 01-1.044 2.105 5.783 5.783 0 01-2.03 1.495c-.812.388-1.682.554-2.61.554a6.956 6.956 0 01-3.48-.941 3.545 3.545 0 01-1.392-1.496c-.348-.665-.522-1.44-.464-2.16 0-.72.174-1.384.464-2.05.29-.608.754-1.162 1.392-1.55a2.085 2.085 0 011.276-.443c.29 0 .522.11.696.277.174.221.232.443.232.72 0 .166-.058.332-.116.498-.116.222-.232.444-.406.665-.174.222-.29.443-.406.665-.232.387-.348.83-.348 1.274 0 .664.348 1.273.928 1.55a4.39 4.39 0 002.03.499c.696-.056 1.334-.277 1.856-.665.522-.387.87-.997.87-1.661 0-.166 0-.388-.058-.554a1.425 1.425 0 00-.522-.886 3.817 3.817 0 00-.986-.665c-.29-.166-.638-.277-.986-.443l-1.276-.388c-.116 0-.174-.11-.174-.221l.058.055c0-.332-.174-.61-.464-.83-.406-.278-.87-.388-1.334-.278-.058 0-.116-.055-.174-.055-.87-.665-1.334-1.662-1.276-2.659 0-.664.174-1.273.464-1.883a4.104 4.104 0 011.74-1.661c.754-.388 1.624-.554 2.494-.554.87 0 1.74.222 2.552.61.754.442 1.102.886 1.102 1.384a.966.966 0 01-.464.83c-.29.222-.638.333-.986.333-.174 0-.29 0-.464-.055a5.722 5.722 0 00-1.856-.665 1.97 1.97 0 00-1.45.443 1.34 1.34 0 00-.522 1.052c0 .665.406 1.274 1.044 1.607.29.166.58.332.928.443.29.11.696.277 1.102.387.406.111.754.277 1.044.388 2.088.665 3.074 2.05 3.074 3.988zM78.248 21.659V34.23c0 .443-.116.886-.464 1.218-.232.277-.58.443-.986.443s-.754-.166-.986-.498c-.29-.388-.406-.83-.406-1.33V21.66c0-.444.116-.831.406-1.164.232-.277.58-.443.986-.443.348 0 .696.166.986.388.348.388.464.83.464 1.218zM71.404 34.618v.111a1.285 1.285 0 01-1.392 1.163h-4.64c-.696 0-1.102-.166-1.276-.443-.174-.387-.29-.775-.29-1.163V21.714c0-.388.116-.83.406-1.108.232-.277.58-.388.986-.388a1.4 1.4 0 01.928.388c.29.332.406.72.406 1.163v10.745c0 .221.058.443.174.61.116.22.406.331.812.331h2.784c.58 0 1.102.499 1.102 1.163zM50.524 32.015l-1.102 3.047c-.058.276-.232.498-.464.664-.232.166-.522.222-.812.222-.348 0-.696-.111-.928-.333-.29-.221-.406-.609-.406-.941 0-.277.058-.499.116-.72l1.508-4.265v.166c0 .499.232.997.696 1.274l.696.499.348.221c.058 0 .116.056.116.056l.232.11z" fill="#E75294"></path><path d="M58.702 32.79c.232.61.406 1.22.522 1.884a1.452 1.452 0 01-.406.775c-.232.277-.58.443-.986.443-.29 0-.638-.11-.87-.277l-7.482-4.818a1.065 1.065 0 01-.58-.942c0-.332.116-.664.406-.886.232-.277.58-.388.928-.388h8.004c.29 0 .638.111.812.333.174.221.29.498.29.775s-.116.61-.29.831c-.232.221-.58.388-.928.332h-4.466c.638.443 1.334.886 2.146 1.33.174-.499.638-.776 1.218-.776.174 0 .348 0 .522.056l.522.276c.174.056.406.388.638 1.053z" fill="#E75294"></path><path d="M57.31 28.194h-3.016l-1.16-3.6-1.276 3.6h-1.74c-.464 0-.928.166-1.218.498-.058.056-.116.166-.174.222l2.668-7.477c.116-.388.348-.72.696-.942.29-.221.696-.332 1.102-.332.406 0 .812.11 1.16.332.348.222.58.499.696.831l2.262 6.868zM43.158 34.563c0 .332-.116.665-.406.942-.29.276-.638.387-1.044.387h-6.67c-.58 0-.986-.166-1.102-.443-.174-.332-.232-.775-.232-1.163V27.64c0-.332.116-.665.348-.886.232-.277.58-.443.986-.443h3.074l-4.118-3.268c-.522-.388-.87-.941-.928-1.606 0-.332.174-.665.464-.886.406-.277.87-.388 1.334-.388h6.264c.406 0 .812.11 1.16.332.232.222.406.499.406.831 0 .388-.174.72-.464.942-.406.277-.87.443-1.334.387H37.3l4.118 3.323c.464.277.696.776.754 1.274 0 .388-.174.831-.522 1.108-.29.277-.696.443-1.102.443h-3.132c-.696 0-1.044.332-1.044 1.052v2.382c0 .61.406.886 1.218.886h4.06c.406 0 .754.11 1.044.388.348.387.464.72.464 1.052zM27.904 24.483a4.98 4.98 0 01-.522 2.215 4.319 4.319 0 01-1.682 1.828c-.87.554-1.856.83-2.9.886l-.812.056c-.29 0-.638.11-.87.277-.232.221-.406.553-.348.886l.058 3.987c0 .333-.174.61-.464.831-.29.222-.638.333-.986.333-.29 0-.638-.111-.87-.333-.232-.221-.348-.554-.348-.886v-6.425c0-.277 0-.553.116-.83a.899.899 0 01.464-.333c.348-.055.696-.11 1.044-.11h2.262c.638 0 1.334-.056 1.914-.277.58-.277.928-.72 1.044-1.274.058-.222.116-.499.116-.72 0-.554-.232-1.053-.638-1.385a2.293 2.293 0 00-1.45-.498c-.232 0-.464.055-.696.11-.116.056-.232.222-.232.444.116.498.348.941.638 1.329.464.72.754 1.218.986 1.606-.696.166-1.392.222-2.146.222h-.87l-2.146-3.6a2.567 2.567 0 01-.348-.997c0-.444.174-.942.58-1.219.406-.332.986-.498 1.508-.498h3.132a4.39 4.39 0 012.03.498c.638.332 1.16.83 1.624 1.33.58.72.87 1.605.812 2.547z" fill="#E75294"></path><path d="M19.494 35.006c.464-.166.696-.388.696-.664V29.91c0-.388.174-.776.522-.997a2.162 2.162 0 011.16-.333c.986.056 2.03-.166 2.958-.553.696-.333 1.334-.831 1.74-1.44.406-.665.696-1.44.812-2.216 0-.166.116-.277.174-.277.058 0 .116.056.116.222.058 1.33-.58 2.548-1.624 3.434-1.16.886-2.668 1.329-4.176 1.274-.348 0-.638.11-.928.277a.862.862 0 00-.464.609v4.597c0 .277-.29.553-.87.886-.174-.055-.29-.166-.29-.222.058-.11.116-.166.174-.166zm2.146-12.738c.464-.277.986-.388 1.508-.388.986-.055 1.856.388 2.436 1.163.058.056.058.11.058.166 0 .111-.058.166-.174.222-.058 0-.116 0-.174-.056a3.332 3.332 0 00-.986-.775c-.348-.277-.812-.388-1.218-.388-.348 0-.754.111-1.044.277-.116.056-.174.111-.29.111-.116 0-.174-.11-.174-.166 0-.056 0-.166.058-.166zm13.572 12.738l6.496.056c.116 0 .29-.056.406-.111.116-.056.232-.222.232-.333 0-.055.058-.166.116-.166.058-.055.116-.11.174-.11.116 0 .116.11.116.332-.116.443-.522.83-1.044.886h-6.496c-.174 0-.29-.055-.29-.221 0-.167.116-.333.29-.333zm1.566-12.295c.116.055.174.166.174.332 0 .11-.058.166-.116.166a.321.321 0 01-.29-.166l-.754-.61c-.058-.055-.116-.165-.116-.22 0-.167.116-.278.406-.278h5.104a.677.677 0 00.464-.166c.116-.11.232-.221.29-.332 0-.166.058-.222.174-.222.058 0 .116 0 .116.056.058.055.058.055.058.11a.778.778 0 01-.348.665c-.29.166-.58.277-.87.277h-4.814l.522.388zm-.696 9.969c0 .332-.058.554-.232.554-.174 0-.232-.166-.232-.554v-3.212c0-.388.174-.72.464-.942.232-.221.58-.387.986-.387l3.538-.056c.174 0 .348-.11.464-.221a1.2 1.2 0 00.29-.443c.058-.167.116-.222.232-.222.174 0 .232.11.232.332a.778.778 0 01-.348.665c-.174.166-.464.277-.754.277H37.3c-.29 0-.58.11-.812.277-.29.166-.406.498-.406.775v3.157zm2.32-7.2c.058.055.058.11.058.166 0 .11-.058.166-.174.166h-.058c-.116 0-.174-.055-.29-.11l-1.74-1.33c0-.11-.058-.166-.058-.277 0-.11.058-.166.232-.166.058 0 .174.056.232.111l1.798 1.44zm20.068 4.043c0-.166.058-.277.174-.277.116 0 .174.056.232.166.058.111.058.166.058.277 0 .166-.058.332-.232.499-.116.11-.29.221-.464.221h-4.872c-.29 0-.406-.055-.406-.221s.116-.166.348-.222h4.872c.232-.055.29-.166.29-.443zm6.902 5.594h4.698c.174 0 .29-.055.406-.11.116-.112.174-.222.174-.333 0-.056.058-.11.174-.11.174 0 .232.054.232.22-.058.222-.174.444-.348.555-.174.11-.406.221-.638.221h-4.698c-.174 0-.29-.055-.29-.166-.058-.166.058-.277.29-.277zm.29-13.237c0-.277.058-.443.232-.443.174 0 .232.166.232.498v10.966c0 .222-.058.333-.232.333-.174 0-.232-.11-.232-.388V21.88zm11.716-.055c0-.333.116-.444.29-.444s.232.111.232.444V34.23c0 .332-.058.664-.232.941-.116.167-.348.277-.58.277-.232 0-.406-.11-.406-.332 0-.11.058-.166.232-.166.174 0 .348-.111.406-.222.058-.166.116-.332.116-.498l-.058-12.406zm8.816 11.354a.413.413 0 01.116.276c0 .111-.058.166-.174.166-.116 0-.174-.055-.29-.11-.348-.277-.638-.665-.87-1.053-.174-.443-.232-.886-.232-1.384 0-.222.058-.443.174-.665.116-.277.29-.609.464-.886.174-.332.348-.61.464-.83.116-.167.116-.388.174-.555 0-.221.058-.332.116-.332.174 0 .29.11.406.332 0 .222-.058.443-.174.61-.174.277-.29.553-.464.83-.174.277-.348.554-.464.831-.116.277-.174.61-.174.942-.058.72.348 1.44.928 1.828zm.232-9.36c0 .332-.058.498-.174.498-.116 0-.116-.055-.174-.166-.058-.111-.058-.222-.058-.332.058-.61.348-1.164.812-1.607.464-.387 1.044-.553 1.682-.553.29 0 .638.055.928.166.116.055.348.11.696.277.348.166.58.221.754.276.116.056.29.056.406.111.174 0 .348-.11.348-.221 0-.056.058-.056.116-.056.116 0 .174.111.174.277-.116.222-.406.388-.696.388-.348-.055-.696-.11-.986-.277a7.172 7.172 0 00-.986-.332 5.337 5.337 0 00-.986-.111c-.464 0-.928.221-1.218.61-.348.276-.58.664-.638 1.052zm.638 11.187c.406.11.812.166 1.276.166a5.9 5.9 0 002.378-.498 4.776 4.776 0 001.74-1.44c.464-.72.754-1.55.754-2.382.058-1.052-.464-2.049-1.334-2.713-.058-.056-.116-.111-.116-.167 0-.055.058-.11.116-.166.058-.055.174-.055.232-.055.986.664 1.624 1.772 1.624 2.99 0 .942-.29 1.828-.812 2.604-.406.72-1.102 1.273-1.856 1.661-.87.388-1.798.61-2.784.61-.406 0-.87-.056-1.276-.111-.232-.056-.348-.166-.348-.333-.116-.11.058-.166.406-.166zm13.34-10.024l-2.494-2.05c-.116-.11-.116-.166-.116-.221 0-.111.058-.166.232-.166.058 0 .116 0 .116.055l2.61 2.16c.116.11.174.166.174.277 0 .11-.058.11-.174.11l-.348-.165zm0-3.047h5.336c.464 0 .696-.166.696-.498 0-.056.058-.11.174-.11.174 0 .232.054.232.165 0 .222-.116.443-.29.665a1.147 1.147 0 01-.87.221h-5.278c-.174 0-.29-.055-.29-.166 0-.11.116-.277.29-.277zm2.03 3.49c0-.333.058-.499.174-.499.116 0 .174.11.174.333v9.193c0 .277-.058.499-.232.72-.116.222-.348.333-.638.333-.116 0-.174-.056-.174-.222s0-.166.058-.166c.348-.055.638-.332.58-.665l.058-9.027zm10.904-3.6c0-.333.116-.444.29-.444s.232.111.232.444V34.23c0 .332-.058.664-.232.941-.116.167-.348.277-.58.277-.232 0-.406-.11-.406-.332 0-.11.058-.166.232-.166.174 0 .348-.111.406-.222.058-.166.116-.332.116-.498V21.825h-.058zm9.686 10.523c.116.055.232.166.232.332 0 .055-.058.166-.116.166h-.058c-.116 0-.174-.055-.29-.11-1.566-1.33-2.32-2.88-2.32-4.542 0-1.163.348-2.326.986-3.323.348-.61.812-1.108 1.392-1.551a9.294 9.294 0 012.088-1.108c.696-.277 1.45-.387 2.204-.387.406 0 .87.055 1.276.166.232 0 .348.11.348.221s-.058.166-.232.166c-.116 0-.174 0-.29-.055a4.609 4.609 0 00-1.218-.166c-1.102 0-2.146.332-3.074.83-.928.5-1.74 1.164-2.262 2.05a5.658 5.658 0 00-.87 3.046c.116 1.55.812 2.99 2.204 4.265zm.986 2.603c-.174-.056-.29-.166-.29-.277 0-.11.058-.11.232-.11.116 0 .29.054.348.11.812.388 1.682.554 2.61.554.58 0 1.218-.056 1.74-.222a4.6 4.6 0 001.45-.554c.348-.166.58-.443.696-.83.116-.277.232-.444.29-.444.116 0 .232.167.232.444-.058.387-.29.775-.638.996-.522.333-1.102.554-1.682.72-.696.167-1.392.277-2.146.277a6.287 6.287 0 01-2.842-.664zm6.554-12.24c.058.055.116.055.232.055.232 0 .348-.166.348-.387a.613.613 0 00-.174-.444c0-.055-.058-.055-.058-.11 0-.111.058-.166.29-.166.116 0 .232.055.29.166.116.166.116.332.116.498 0 .222-.058.443-.232.61a.763.763 0 01-.58.22c-.116 0-.232 0-.29-.054-.116-.111-.174-.167-.174-.277-.174-.111 0-.111.232-.111" fill="#fff"></path><path d="M24.018 30.188c.406.664.87 1.44 1.45 2.381.522.942.986 1.606 1.218 1.994.29.388.522.554.696.554.058 0 .116 0 .174-.055.116 0 .174.055.174.11 0 .056-.058.166-.116.166-.116.056-.232.056-.348.056a.912.912 0 01-.754-.443c-.232-.277-.58-.886-1.16-1.828-.58-.941-1.102-1.828-1.624-2.548l.29-.387zm-2.958-3.822l-2.146-3.655c0-.056-.058-.166-.058-.222 0-.055.058-.11.058-.11.116 0 .232.055.29.166l2.32 3.821h-.464zm36.946 5.317l.812 2.548c0 .11.058.221.058.277a.898.898 0 01-.29.664.983.983 0 01-.696.277c-.232 0-.406-.055-.58-.166l-7.134-4.486c-.232-.11-.348-.277-.348-.332 0-.056.058-.111.232-.111.116 0 .232.055.348.11l7.134 4.598c.116.055.29.11.464.11.348 0 .522-.166.522-.443 0-.166-.058-.277-.058-.443l-.87-2.825.406.222zm-1.566-3.6l-2.146-6.48c0-.277.058-.443.174-.443.116 0 .174.055.232.221l2.262 6.702h-.522zm-6.032 3.766l-.116-.055-1.16 3.101c-.058.166-.174.333-.348.388-.174.11-.348.166-.58.166-.232 0-.348-.11-.348-.221 0-.166.174-.277.464-.277a.454.454 0 00.29-.111c.116-.055.174-.166.232-.277l1.102-3.046.464.332zm.696-3.71l1.45-4.154c.058-.167.116-.222.29-.222s.174.11.174.332l-1.45 4.043h-.464zm34.568-1.385c0-.056-.058-.111-.058-.166-.058-.056-.116-.111-.116-.166-.058-.056-.116-.111-.116-.167 0-.221.058-.277.174-.277.058 0 .116 0 .174.056.464.498.986.886 1.566 1.163.696.332 1.392.665 2.146.886.116 0 .174.055.174.166 0 .111-.058.222-.174.222h-.058c-.232-.056-.406-.111-.638-.166l-.696-.277-.58-.222-1.798-1.052z" fill="#fff"></path><path d="M23.786 30.686c0 .277 0 .554.058.83l2.436 3.878c.232.277.58.443.928.443.348 0 .754-.11 1.044-.332.29-.222.464-.499.464-.887 0-.276-.116-.498-.232-.72l-2.494-3.987c-.232-.333-.58-.499-.928-.443-.58 0-.986.221-1.044.664l-.232.554zm-.464-6.978l.29.498c.116.166.174.332.29.499.116.166.232.332.29.498.058-.166.116-.332.116-.498a.877.877 0 00-.348-.72c-.058-.167-.348-.277-.638-.277zm-1.74 2.714c.696.055 1.45-.056 2.146-.222-.174-.332-.522-.886-.986-1.606a3.577 3.577 0 01-.638-1.33c0-.221.116-.387.348-.442.232-.111.464-.111.696-.111.522 0 1.044.166 1.508.498.464.332.696.886.638 1.385 0 .221-.058.498-.116.72a1.822 1.822 0 01-1.044 1.274c-.638.221-1.276.332-1.972.277H19.9c-.348 0-.696 0-1.044.11-.232.056-.406.166-.464.333-.116.277-.174.553-.116.775v6.425c0 .332.116.664.348.886.232.221.522.332.87.332s.696-.11.986-.332a.966.966 0 00.464-.831l-.174-3.932c-.058-.333.116-.665.348-.886.232-.167.522-.277.87-.277l.812-.056c1.044-.055 2.03-.387 2.9-.886.696-.443 1.276-1.108 1.682-1.828a4.81 4.81 0 00.522-2.215 3.603 3.603 0 00-.812-2.492 5.266 5.266 0 00-1.624-1.33 3.863 3.863 0 00-2.03-.553h-3.132c-.522 0-1.102.166-1.508.498-.348.332-.58.775-.58 1.219 0 .332.116.664.29.997l2.204 3.6h.87zm-2.436-.554l-1.74-2.825A2.416 2.416 0 0117 21.658c0-.664.29-1.329.754-1.827a3.184 3.184 0 012.32-.776h3.77c.986 0 2.03.277 2.842.776a4.96 4.96 0 011.856 2.049c.464.83.696 1.772.696 2.714 0 .886-.174 1.772-.58 2.547-.406.831-.986 1.496-1.74 2.05l2.494 3.821c.348.499.58 1.108.58 1.717 0 .61-.29 1.219-.812 1.662-.522.387-1.16.609-1.856.609a2.125 2.125 0 01-1.972-.997c-1.856-2.99-2.958-4.708-3.19-5.15v3.655c.058.664-.232 1.329-.754 1.772-.522.388-1.16.61-1.856.61-.638 0-1.218-.167-1.682-.555-.464-.387-.754-.941-.696-1.55v-6.757c0-.554.174-1.108.464-1.551.29-.443.87-.665 1.508-.61zm15.892 10.024h6.728c.406 0 .754-.11 1.044-.387.232-.277.406-.61.348-.942 0-.332-.116-.665-.348-.886-.29-.277-.696-.388-1.102-.388h-4.06c-.812 0-1.218-.277-1.218-.886v-2.381c0-.72.348-1.053 1.044-1.053h3.132c.406 0 .812-.166 1.102-.443.348-.277.522-.665.522-1.108 0-.498-.29-.996-.754-1.273l-4.118-3.323h3.538a3.009 3.009 0 001.334-.499c.29-.221.464-.61.464-.942a.98.98 0 00-.406-.83 1.51 1.51 0 00-1.16-.333h-6.264c-.464 0-.986.111-1.334.388a1.14 1.14 0 00-.464.886c.058.61.348 1.219.928 1.606l4.118 3.268H34.98c-.406 0-.754.166-.986.443-.232.277-.348.554-.348.886v6.591c0 .388.058.776.232 1.163.174.277.58.443 1.16.443zm-.29-10.8l-2.03-1.717c-.58-.498-.928-1.163-.928-1.938 0-.443.116-.83.29-1.219.174-.387.522-.664.928-.886A3.515 3.515 0 0134.516 19h6.844c.696-.055 1.334.221 1.798.72a2.29 2.29 0 01.696 1.662c0 .664-.29 1.273-.812 1.716a3.556 3.556 0 01-2.378.72l2.088 1.828c.522.443.754 1.052.754 1.717s-.232 1.274-.696 1.772c-.464.499-1.218.776-1.914.776h-3.248v2.215l4.408.056c.638 0 1.218.221 1.624.72a2.49 2.49 0 01.638 1.661c.058 1.274-.986 2.326-2.32 2.382h-7.25c-1.566 0-2.32-.776-2.32-2.382v-7.034c0-.554.174-1.107.522-1.606.464-.443 1.102-.775 1.798-.83zm18.328 1.773l-.348 1.273h.812l-.464-1.273zm4.408 4.597c-.174-.056-.348-.111-.522-.056a1.185 1.185 0 00-1.218.776c-.754-.444-1.508-.887-2.146-1.33h4.582c.348 0 .696-.11.928-.332.232-.222.348-.498.29-.83 0-.278-.116-.555-.29-.776a1.172 1.172 0 00-.812-.333h-8.062a1.4 1.4 0 00-.928.388c-.232.222-.406.554-.406.886 0 .388.232.776.58.942l7.482 4.818c.29.166.58.277.87.277.406 0 .754-.166.986-.498.232-.222.348-.499.406-.776a10.077 10.077 0 00-.522-1.883c-.232-.664-.464-.997-.696-1.052l-.522-.221zm-.174-3.268l-2.262-6.868a1.283 1.283 0 00-.696-.83 2.162 2.162 0 00-1.16-.333c-.406 0-.754.11-1.102.332-.348.222-.58.554-.696.942l-4.466 12.517c-.116.221-.116.498-.116.72 0 .332.116.72.406.941.232.222.58.333.928.333a1.5 1.5 0 00.812-.222c.232-.166.406-.388.464-.664l1.102-3.047-.174-.11c-.058-.056-.058-.056-.116-.056l-.348-.221-.696-.499c-.464-.277-.696-.775-.696-1.274 0-.443.174-.83.464-1.163.29-.332.754-.498 1.218-.498h1.74l1.334-3.6 1.16 3.6h2.9zm-11.426 5.483l4.582-12.794a2.216 2.216 0 011.16-1.33c.522-.332 1.16-.498 1.798-.498.58 0 1.16.166 1.682.499.522.332.87.83 1.044 1.384l2.262 6.647c.58 0 1.102.221 1.508.609.406.387.58.941.58 1.44 0 .72-.406 1.384-1.044 1.772l.928 2.548c.058.221.058.388.058.609 0 .443-.116.83-.348 1.163-.232.388-.58.665-.986.886a2.574 2.574 0 01-1.276.333c-.406 0-.812-.111-1.102-.277l-5.278-3.379-.87 2.105c-.174.443-.522.83-.928 1.108-.986.609-2.262.498-3.19-.222-.522-.388-.754-.997-.754-1.606-.058-.332 0-.665.174-.997zm17.922-11.963v12.572c0 .388.058.83.29 1.163.174.277.638.443 1.276.443h4.64a1.285 1.285 0 001.392-1.163v-.11c0-.61-.464-1.164-1.16-1.219H67.46c-.406 0-.696-.11-.812-.332a1.079 1.079 0 01-.174-.61V21.714c0-.388-.116-.831-.406-1.163-.232-.277-.58-.388-.928-.388-.348 0-.696.166-.986.388a1.98 1.98 0 00-.348 1.163zm-1.218.166c0-.554.116-1.052.348-1.55.232-.388.522-.72.928-.942.986-.554 2.204-.388 2.958.387.522.554.812 1.219.754 1.939v10.08c0 .387.232.554.638.554h1.682c.696-.056 1.45.221 1.914.72a2.29 2.29 0 01.696 1.661c0 .61-.232 1.163-.638 1.606-.464.443-1.102.72-1.74.665h-5.104a2.166 2.166 0 01-1.798-.775c-.406-.499-.638-1.108-.638-1.717V21.88zm12.876-.222v12.407c-.058.498.116.941.406 1.329.232.277.58.498.986.498s.754-.166.986-.443c.29-.332.464-.775.464-1.218V21.658c.058-.443-.116-.83-.406-1.163-.232-.277-.58-.387-.986-.387s-.754.166-.986.443c-.348.277-.464.72-.464 1.107zm-1.102-.055c-.058-.72.232-1.385.754-1.883.464-.443 1.16-.665 1.798-.665.638 0 1.276.222 1.74.665.522.498.754 1.163.696 1.828v12.738a3.34 3.34 0 01-.348 1.495c-.174.388-.522.72-.928.942-.348.222-.754.332-1.218.332a2.606 2.606 0 01-1.798-.72c-.522-.553-.812-1.273-.754-1.993l.058-12.739zm13.166 7.92a2.892 2.892 0 00-.754 1.717c0 .388.174.775.522.942a2.21 2.21 0 002.262-.056c.29-.221.464-.61.464-.941 0-.444-.29-.831-.696-1.053-.58-.277-1.16-.498-1.798-.609zm-.232-1.495c0 .11.058.166.174.221l1.276.388c.348.11.638.277.986.443.348.166.696.388.986.665.29.221.464.553.522.886.058.166.058.387.058.554 0 .664-.29 1.273-.87 1.661-.522.388-1.16.665-1.856.665-.696 0-1.45-.166-2.03-.499-.638-.332-.986-.941-.928-1.606 0-.443.116-.886.348-1.274.116-.221.232-.443.406-.664.174-.222.29-.443.406-.665.058-.166.116-.332.116-.498 0-.277-.058-.499-.232-.72-.174-.222-.406-.333-.696-.277a3.152 3.152 0 00-1.276.443 3.897 3.897 0 00-1.334 1.55c-.29.665-.464 1.33-.464 2.05 0 .72.174 1.495.522 2.16.29.609.754 1.107 1.334 1.495a6.956 6.956 0 003.48.942c.928 0 1.798-.166 2.61-.554.812-.332 1.508-.831 2.03-1.496.522-.609.87-1.329 1.044-2.104.058-.277.058-.61.058-.942 0-1.938-1.044-3.323-3.074-4.098-.29-.111-.638-.222-1.044-.388s-.754-.277-1.102-.388a7.057 7.057 0 01-.928-.443 1.721 1.721 0 01-1.044-1.606c0-.387.174-.83.522-1.052a2.033 2.033 0 011.508-.443c.638.11 1.276.332 1.856.664.174.056.29.056.464.056.348 0 .696-.111.986-.332a.966.966 0 00.464-.831c0-.499-.348-.942-1.102-1.385a4.58 4.58 0 00-2.552-.61c-.87 0-1.74.167-2.494.555a3.546 3.546 0 00-1.74 1.661 4.126 4.126 0 00-.464 1.883 3.5 3.5 0 001.276 2.714c.058.056.116.056.174.056.464-.056.928.055 1.334.332.232.221.406.498.406.83h-.116zm-3.306-1.053a5.137 5.137 0 01-1.044-2.824c0-.942.348-1.883.87-2.714.522-.776 1.276-1.44 2.204-1.772a7.84 7.84 0 012.958-.61c.464 0 .87.056 1.334.111a5.605 5.605 0 012.552 1.163c.522.443.812 1.052.812 1.662a1.94 1.94 0 01-.696 1.495c-.522.443-1.16.665-1.798.61a3.782 3.782 0 01-1.914-.5 1.21 1.21 0 00-.638-.165c-.464 0-.638.221-.638.498a.72.72 0 00.464.665c.348.221.754.443 1.218.554l1.508.553c.464.167.928.388 1.334.61a4.788 4.788 0 012.03 1.938c.406.776.638 1.606.638 2.492 0 .776-.174 1.607-.464 2.327-.29.72-.696 1.329-1.276 1.883a7.103 7.103 0 01-2.378 1.495 8.29 8.29 0 01-2.842.499c-1.334 0-2.668-.277-3.828-.942-1.044-.498-1.856-1.385-2.32-2.437-.232-.665-.406-1.385-.406-2.105 0-1.716.87-3.378 2.32-4.486zm16.472-.443v7.976c0 .387.174.72.464.997.29.221.638.387 1.044.387.348 0 .638-.11.928-.332.232-.277.406-.61.348-.997V25.48c0-.332-.116-.665-.348-.942-.348-.332-.696-.609-1.044-.886-.406-.277-.754-.554-1.044-.941h4.988c.406 0 .812-.111 1.102-.333.232-.221.406-.553.406-.886 0-.387-.174-.72-.464-.941a2.086 2.086 0 00-1.276-.443h-7.83c-.348 0-.638.166-.87.387-.232.277-.406.61-.406.942 0 .554.29 1.052.812 1.33l1.102.885c.348.277.696.554.928.72.232.222.522.443.754.665.232.443.406.941.406 1.495zm-1.16 7.976v-7.145c.058-.443-.058-.886-.174-1.274a3.456 3.456 0 00-.986-1.052l-.638-.443c-.174-.111-.348-.277-.638-.499a6.877 6.877 0 01-.638-.553c-.116-.111-.29-.277-.406-.444-.348-.498-.58-1.052-.522-1.661 0-.61.232-1.274.638-1.717a2.313 2.313 0 011.856-.72h7.772c.522 0 1.044.11 1.508.332.406.222.754.554.986.942.232.387.348.775.348 1.218a2.49 2.49 0 01-.638 1.662c-.464.498-1.16.72-1.856.664h-2.146c.232.111.406.333.464.554.058.388.116.831.116 1.274v8.917c.058.665-.174 1.274-.696 1.717a2.596 2.596 0 01-1.682.61c-.464 0-.87-.112-1.276-.278-.406-.221-.754-.498-.986-.886-.29-.388-.406-.886-.406-1.33v.112zm12.006-12.85V34.12c-.058.498.116.942.406 1.33.232.276.58.498.986.498s.754-.166.986-.443c.29-.333.464-.776.406-1.219V21.658c.058-.443-.116-.83-.406-1.163-.232-.277-.58-.387-.986-.387s-.754.166-.986.443a1.86 1.86 0 00-.406 1.107zm-1.102-.11c-.058-.72.232-1.385.754-1.883.464-.444 1.16-.665 1.798-.665.638 0 1.276.221 1.74.665.522.498.754 1.163.696 1.827v12.739a3.34 3.34 0 01-.348 1.495c-.406.776-1.218 1.219-2.088 1.219a2.605 2.605 0 01-1.798-.72c-.522-.554-.812-1.274-.754-1.994V21.548zm19.604 11.077c-.928.443-1.972.72-3.016.72-.986 0-1.914-.222-2.784-.72-1.682-.942-2.726-2.659-2.726-4.487 0-.941.232-1.883.754-2.713.464-.831 1.218-1.551 2.03-2.05a5.968 5.968 0 012.9-.775c1.102 0 2.204.332 3.19.83.174.111.348.111.522.111.29 0 .638-.11.812-.387.232-.222.348-.554.348-.886 0-.72-.406-1.219-1.276-1.551a10.072 10.072 0 00-3.596-.665c-2.262 0-4.466.886-6.032 2.493-.754.775-1.392 1.661-1.798 2.658-.406.997-.638 2.05-.638 3.102s.29 2.049.754 2.99a8.573 8.573 0 001.914 2.437c.812.665 1.682 1.219 2.668 1.606a8.073 8.073 0 003.016.554c1.45 0 2.9-.387 4.118-1.218.406-.222.696-.665.696-1.108 0-.277-.116-.61-.348-.83-.232-.222-.58-.333-.928-.333a.853.853 0 00-.58.222zm1.914 2.88a9.111 9.111 0 01-4.93 1.44 9.243 9.243 0 01-3.48-.665c-1.102-.443-2.146-1.052-3.016-1.883a9.587 9.587 0 01-2.088-2.714c-.522-.997-.754-2.05-.812-3.157 0-1.661.406-3.268 1.276-4.708.812-1.44 2.03-2.603 3.48-3.489 1.45-.83 3.074-1.329 4.814-1.274 1.392 0 2.784.277 4.06.831a3.64 3.64 0 011.508 1.108c.29.443.464.941.522 1.44 0 .554-.232 1.107-.58 1.495a2.116 2.116 0 01-1.566.665c-.464 0-.928-.111-1.334-.332a5.512 5.512 0 00-2.494-.61c-.87 0-1.682.222-2.378.665-.696.443-1.276.997-1.624 1.717-.406.609-.58 1.329-.58 2.104 0 .72.232 1.44.58 2.05.406.664.986 1.218 1.682 1.55.696.388 1.508.61 2.262.61.87 0 1.74-.222 2.552-.665.348-.221.812-.332 1.218-.332.58 0 1.16.221 1.508.664.406.443.638.997.58 1.551a2.503 2.503 0 01-1.16 1.939z" fill="#D20071"></path></g></svg>