<svg width="155" height="56" viewBox="0 0 155 56" fill="none" xmlns="http://www.w3.org/2000/svg">
<mask id="mask0_3_1156" style="mask-type:luminance" maskUnits="userSpaceOnUse" x="0" y="0" width="155" height="56">
<path d="M0 0H155V56H0V0Z" fill="white"/>
</mask>
<g mask="url(#mask0_3_1156)">
<path d="M152.83 42.7311C153.14 43.4218 153.295 44.2836 153.295 45.3164C153.295 46.8689 152.907 48.0729 152.365 48.7636C150.721 51.2087 148.813 52.5223 146.862 52.5529C145.467 52.5529 144.15 51.8653 142.832 50.8293C141.53 49.6519 140.324 47.9618 139.267 45.8329C138.21 43.7883 137.34 41.2691 136.71 38.4253C136.09 35.4947 135.78 32.3929 135.702 29.12C135.702 25.8471 136.012 22.5711 136.555 19.4693C137.092 16.3436 137.911 13.5233 138.957 11.2C141.05 6.20355 143.995 3.44711 147.017 3.44711C148.645 3.44711 150.272 4.13466 151.822 5.51288C152.985 6.54888 153.527 8.09822 153.527 10.3382C153.527 11.3711 153.372 12.236 153.062 13.0947C152.933 13.4737 152.767 13.7793 152.579 13.9884C152.392 14.1975 152.186 14.3046 151.977 14.3018C151.745 14.3018 151.512 14.1275 151.28 13.9595C149.962 12.404 148.49 11.3711 147.017 11.3711C145.622 11.3711 144.305 12.2329 143.142 13.7853C141.987 15.3159 141.045 17.5882 140.43 20.3311C139.81 22.9164 139.422 25.6729 139.422 28.7747C139.5 34.4618 140.895 39.8036 143.065 42.7311C144.15 44.2836 145.467 44.9711 146.785 44.9711C148.18 44.9711 149.575 44.1093 150.815 42.7311C151.125 42.3889 151.435 42.2147 151.745 42.2147C152.055 41.6982 152.52 42.0436 152.83 42.7311ZM129.735 8.27244V47.3822C129.735 48.7604 129.58 50.1387 129.192 51.1716C128.882 52.0333 128.417 52.5498 127.875 52.5498C127.332 52.5498 126.867 52.0333 126.557 51.0004C126.17 49.7933 126.015 48.4182 126.015 46.8627V8.09822V8.26933C126.015 6.888 126.17 5.68399 126.557 4.64799C126.867 3.78622 127.332 3.26978 127.875 3.26978C128.34 3.26978 128.805 3.78622 129.192 4.47688C129.58 5.68399 129.812 7.05911 129.735 8.26622V8.27244ZM120.59 7.92711C120.59 8.96 120.435 9.99288 120.047 10.6836C119.66 11.5453 119.117 11.8876 118.575 11.7164H111.91C112.297 12.7493 112.762 13.7853 113.305 14.6471C113.847 15.5089 114.312 16.3707 114.777 17.4036C115.087 18.2653 115.242 19.3013 115.242 20.3311V48.5893C115.242 49.7964 115.087 50.8293 114.777 51.6911C114.467 52.3818 114.002 52.7271 113.537 52.7271C112.995 52.7271 112.53 52.3818 112.142 51.52C111.755 50.8293 111.522 49.6222 111.522 48.4182V23.436H111.445C111.479 22.6564 111.442 21.8688 111.335 21.1257C111.228 20.3826 111.054 19.7013 110.825 19.1271L109.895 17.0582C109.585 16.5418 109.197 15.68 108.655 14.8182L107.182 12.0618C106.562 11.2 106.175 9.65067 106.097 7.924C106.097 6.89111 106.252 5.684 106.64 4.99955C106.95 4.30889 107.337 3.78933 107.802 3.78933H118.265C118.885 3.78933 119.505 4.13466 119.97 5.17066C120.357 5.68711 120.59 6.72 120.59 7.92711ZM15.7324 48.7636C15.7324 49.7964 15.4999 50.8324 15.1124 51.52C14.7249 52.2107 14.2599 52.5529 13.7174 52.5529C13.2524 52.7271 12.7099 52.2107 12.4774 51.1747L9.2224 39.1129C9.1449 38.2511 9.1449 37.3924 9.1449 36.5307L9.4549 34.9782C9.6099 33.6 10.0749 32.9093 10.8499 32.9093C11.3924 32.7382 11.8574 33.2547 12.1674 34.2907L15.4999 46.6947C15.5774 47.04 15.7324 47.9018 15.7324 48.7636ZM102.765 37.0471C102.765 37.9089 102.765 38.9418 102.687 39.9747C102.527 42.4427 102.039 44.7324 101.292 46.5235C100.546 48.5195 99.62 50.1076 98.5799 51.1747C97.4949 52.3818 96.3324 52.8982 95.0924 52.8982C93.4588 52.8907 91.855 51.881 90.4424 49.9707C89.6396 48.878 88.9927 47.2593 88.5824 45.3164C88.1174 43.2476 87.8849 40.8364 87.9624 38.5964C87.9624 36.3564 88.1949 34.2907 88.5824 32.2187C88.9699 30.3271 89.5899 28.6036 90.4424 27.3964C90.9293 26.5093 91.5291 26.0244 92.1474 26.0182C92.5349 26.0182 92.8449 26.3604 93.0774 26.88C93.3099 27.5675 93.3874 28.2582 93.3874 29.12C93.3874 29.6364 93.3099 30.1529 93.2324 30.6693C93.0774 31.36 92.9224 32.0507 92.6899 32.7382C92.4574 33.4289 92.3024 34.1164 92.1474 34.8071C91.8374 36.0111 91.6824 37.3893 91.6824 38.7707C91.6824 40.8364 92.1474 42.7311 92.9224 43.5929C93.7597 44.6114 94.6902 45.1439 95.6349 45.1453C96.5649 44.9711 97.4174 44.2836 98.1149 43.0764C98.8124 41.8724 99.2774 39.9747 99.2774 37.9089C99.2774 37.3924 99.2774 36.7018 99.1999 36.1853C99.1228 35.0964 98.8741 34.1135 98.5024 33.4289C98.1124 32.5832 97.6678 31.8851 97.1849 31.36C96.7974 30.8436 96.3324 30.4982 95.8674 29.9818L94.1624 28.7747C94.0074 28.7747 93.9299 28.4324 93.9299 28.0871L94.0074 28.2582C94.0074 27.2253 93.7749 26.3604 93.3874 25.676C92.8449 24.8111 92.2249 24.4689 91.6049 24.8111C91.5274 24.8111 91.4499 24.64 91.3724 24.64C90.2099 22.5711 89.5899 19.4693 89.6674 16.3676C89.6674 14.3018 89.8999 12.4071 90.2874 10.5093C90.8233 8.28478 91.6331 6.48492 92.6124 5.34177C93.6199 4.13466 94.7824 3.61822 95.9449 3.61822C97.1074 3.61822 98.2699 4.30889 99.3549 5.516C100.362 6.89111 100.827 8.27244 100.827 9.82177C100.828 10.3401 100.772 10.8503 100.663 11.3028C100.555 11.7553 100.398 12.1346 100.207 12.404C99.8199 13.0947 99.3549 13.44 98.8899 13.44C98.6574 13.44 98.5024 13.44 98.2699 13.2689C97.5009 12.2504 96.6618 11.5503 95.7899 11.2C95.4439 11.1204 95.0945 11.2012 94.7619 11.4377C94.4294 11.6743 94.1202 12.0619 93.8524 12.5782C93.637 12.9646 93.4623 13.4602 93.3414 14.0273C93.2206 14.5944 93.1568 15.2181 93.1549 15.8511C93.1549 17.92 93.6974 19.8147 94.5499 20.8507C94.9374 21.3671 95.3249 21.8836 95.7899 22.2289C96.1774 22.5711 96.7199 23.0907 97.2624 23.4329C97.8049 23.7782 98.2699 24.2947 98.6574 24.64C101.447 26.7089 102.765 31.0178 102.765 37.0471ZM81.8399 8.27244V47.3822C81.8399 48.7604 81.6849 50.1387 81.2199 51.1716C80.9099 52.0333 80.4449 52.5498 79.9024 52.5498C79.3599 52.5498 78.8949 52.0333 78.5849 51.0004C78.1974 49.7933 78.0424 48.4182 78.0424 46.8627V8.27555C78.0424 6.89422 78.1974 5.69022 78.5849 4.65422C78.8949 3.79244 79.3599 3.27599 79.9024 3.27599C80.3674 3.27599 80.8324 3.79244 81.2199 4.48311C81.6849 5.69022 81.8399 7.06533 81.8399 8.27244ZM72.6949 48.5893V48.9347C72.6535 49.988 72.4345 50.9602 72.0859 51.6383C71.7373 52.3165 71.2874 52.6454 70.8349 52.5529H64.6349C63.7049 52.5529 63.1624 52.0364 62.9299 51.1747C62.6974 49.9707 62.5424 48.7635 62.5424 47.5564V8.44355C62.5424 7.23644 62.6974 5.86133 63.0849 4.99644C63.3949 4.13467 63.8599 3.78933 64.4024 3.78933C64.8657 3.82016 65.3076 4.25032 65.6424 4.99644C66.0299 6.02933 66.1849 7.23644 66.1849 8.61466V42.0436C66.1849 42.7311 66.2624 43.4218 66.4174 43.9413C66.5724 44.6258 66.9599 44.9711 67.5024 44.9711H71.2224C71.9974 44.9711 72.6949 46.5236 72.6949 48.5893ZM44.7949 40.4911L43.3224 49.9707C43.2449 50.8293 43.0124 51.52 42.7024 52.0364C42.3924 52.5529 42.0049 52.7271 41.6174 52.7271C41.1524 52.7271 40.6874 52.3818 40.3774 51.6911C39.9899 51.0036 39.8349 49.7964 39.8349 48.7636C39.8349 47.9018 39.9124 47.2111 39.9899 46.5235L42.0049 33.2547V33.7711C42.0049 35.3236 42.3149 36.8729 42.9349 37.7347L43.8649 39.2871L44.3299 39.9747C44.4074 39.9747 44.4849 40.1489 44.4849 40.1489L44.7949 40.4911Z" fill="#E75294"/>
<path d="M55.7224 42.9023C56.0324 44.8001 56.2649 46.6978 56.4199 48.7636C56.3498 49.6781 56.1604 50.52 55.8774 51.1747C55.5674 52.0365 55.1024 52.5529 54.5599 52.5529C54.1724 52.5529 53.7074 52.2107 53.3974 51.6912L43.3999 36.7018C43.1678 36.4255 42.9728 36.006 42.8361 35.4892C42.6995 34.9724 42.6264 34.3781 42.6249 33.7712C42.6249 32.7383 42.7799 31.7054 43.1674 31.0147C43.4774 30.153 43.9424 29.8076 44.4074 29.8076H55.1024C55.4899 29.8076 55.9549 30.153 56.1874 30.8436C56.4199 31.5312 56.5749 32.3929 56.5749 33.2547C56.5749 34.1165 56.4199 35.1525 56.1874 35.8401C55.8774 36.5276 55.4124 37.0472 54.9474 36.873H48.9799C49.8324 38.2512 50.7624 39.6294 51.8474 41.0107C52.0799 39.4583 52.6999 38.5965 53.4749 38.5965C53.7074 38.5965 53.9399 38.5965 54.1724 38.7707L54.8699 39.6294C55.1024 39.8036 55.4124 40.8334 55.7224 42.9023Z" fill="#E75294"/>
<path d="M53.8624 28.604H49.8324L48.2824 17.404L46.5774 28.604H44.2524C43.6324 28.604 43.0124 29.1204 42.6249 30.1533C42.5474 30.3275 42.4699 30.6697 42.3924 30.844L45.9574 7.58218C46.1124 6.37507 46.4224 5.34218 46.8874 4.65151C47.2749 3.96396 47.8174 3.61862 48.3599 3.61862C48.9024 3.61862 49.4449 3.96085 49.9099 4.65151C50.3749 5.34218 50.6849 6.20396 50.8399 7.23684L53.8624 28.604ZM34.9524 48.4186C34.9524 49.4515 34.7974 50.4875 34.4099 51.3493C34.0224 52.208 33.5574 52.5533 33.0149 52.5533H24.1024C23.3274 52.5533 22.7849 52.0368 22.6299 51.1751C22.3974 50.1422 22.3199 48.764 22.3199 47.5568V26.8804C22.3199 25.8475 22.4749 24.8115 22.7849 24.124C23.0949 23.2622 23.5599 22.7457 24.1024 22.7457H28.2099L22.7074 12.5786C22.0099 11.3715 21.5449 9.65107 21.4674 7.58218C21.4674 6.54929 21.6999 5.51329 22.0874 4.82573C22.6299 3.96396 23.2499 3.61862 23.8699 3.61862H32.2399C32.7824 3.61862 33.3249 3.96085 33.7899 4.65151C34.0999 5.34218 34.3324 6.20396 34.3324 7.23684C34.3324 8.44396 34.0999 9.47684 33.7124 10.1675C33.1699 11.0293 32.5499 11.5457 31.9299 11.3715H27.1249L32.6274 21.7097C33.2474 22.5715 33.5574 24.124 33.6349 25.6733C33.6349 26.8804 33.4024 28.2586 32.9374 29.1204C32.5499 29.9822 32.0074 30.4986 31.4649 30.4986H27.2799C26.3499 30.4986 25.8849 31.5315 25.8849 33.7715V41.1822C25.8849 43.08 26.4274 43.9386 27.5124 43.9386H32.9374C33.4799 43.9386 33.9449 44.2808 34.3324 45.1457C34.7974 46.3497 34.9524 47.3857 34.9524 48.4186ZM14.5699 17.0586C14.569 19.4502 14.3302 21.8088 13.8724 23.9497C13.3786 26.317 12.5971 28.2945 11.6249 29.6368C10.4624 31.3604 9.14493 32.2191 7.74993 32.3933L6.66493 32.5675C6.27743 32.5675 5.81243 32.9097 5.50243 33.4293C5.19243 34.1168 4.95993 35.1497 5.03743 36.1857L5.11493 48.5897C5.11493 49.6257 4.88243 50.4875 4.49493 51.1751C4.10743 51.8657 3.64243 52.2111 3.17743 52.2111C2.78993 52.2111 2.32493 51.8657 2.01493 51.1751C1.70493 50.4875 1.54993 49.4515 1.54993 48.4186V28.4297C1.54993 27.568 1.54993 26.7093 1.70493 25.8475C1.85773 25.3545 2.07539 24.9908 2.32493 24.8115C2.78993 24.6404 3.25493 24.4693 3.71993 24.4693H6.74243C7.59493 24.4693 8.52493 24.2951 9.29993 23.6075C10.0749 22.7457 10.5399 21.3675 10.6949 19.644C10.7724 18.9533 10.8499 18.0915 10.8499 17.404C10.8499 15.6804 10.5399 14.128 9.99743 13.0951C9.44707 12.0763 8.76298 11.5293 8.05993 11.5457C7.74993 11.5457 7.43993 11.7168 7.12993 11.888C6.97493 12.0622 6.81993 12.5786 6.81993 13.2693C6.97493 14.8186 7.28493 16.1968 7.67243 17.404C8.29243 19.644 8.67993 21.1933 8.98993 22.4004C8.05993 22.9168 7.12993 23.0911 6.12243 23.0911H4.95993L2.09243 11.8911C1.84678 10.9433 1.68843 9.88708 1.62743 8.78929C1.62743 7.40796 1.85993 5.85862 2.40243 4.99685C2.94493 3.96396 3.71993 3.44751 4.41743 3.44751H8.60243C9.54698 3.44795 10.4775 3.97946 11.3149 4.99685C12.1674 6.02974 12.8649 7.57907 13.4849 9.13462C14.2599 11.3746 14.6474 14.128 14.5699 17.0586Z" fill="#E75294"/>
<path d="M3.33235 49.7967C3.95235 49.2802 4.26235 48.5896 4.26235 47.7309V33.9425C4.26235 32.7354 4.49485 31.5282 4.95985 30.8407C5.42381 30.1598 5.96143 29.8005 6.50985 29.8047C7.82735 29.9789 9.22235 29.2882 10.4624 28.0842C11.3924 27.0482 12.2449 25.4989 12.7874 23.6042C13.3299 21.5354 13.7174 19.1242 13.8724 16.71C13.8724 16.1936 14.0274 15.8482 14.1049 15.8482C14.1824 15.8482 14.2599 16.0225 14.2599 16.5389C14.3374 20.6767 13.4849 24.466 12.0899 27.2225C10.5399 29.9789 8.52485 31.3571 6.50985 31.186C6.04485 31.186 5.65735 31.5282 5.26985 32.0478C5.11081 32.2311 4.9721 32.4974 4.86455 32.8261C4.757 33.1547 4.68353 33.5368 4.64985 33.9425V48.2442C4.64985 49.106 4.26235 49.9647 3.48735 51.0007C3.25485 50.8296 3.09985 50.4843 3.09985 50.31C3.17735 49.9678 3.25485 49.7967 3.33235 49.7967ZM6.19985 10.1674C6.81985 9.30558 7.51735 8.96024 8.21485 8.96024C9.53235 8.78913 10.6949 10.1674 11.4699 12.5785C11.5474 12.7527 11.5474 12.9207 11.5474 13.0949C11.5474 13.4402 11.4699 13.6114 11.3149 13.7856C11.2374 13.7856 11.1599 13.7856 11.0824 13.6114C10.7127 12.6207 10.2656 11.8025 9.76485 11.2002C9.29985 10.3385 8.67985 9.99313 8.13735 9.99313C7.67235 9.99313 7.12985 10.3385 6.74235 10.8549C6.58735 11.0291 6.50985 11.2002 6.35485 11.2002C6.19985 11.2002 6.12235 10.858 6.12235 10.6838C6.12235 10.5096 6.12235 10.1674 6.19985 10.1674ZM24.3349 49.7967L33.0149 49.9709C33.1699 49.9709 33.4024 49.7967 33.5574 49.6256C33.7124 49.4514 33.8674 48.9349 33.8674 48.5896C33.8674 48.4185 33.9449 48.0731 34.0224 48.0731C34.0999 47.902 34.1774 47.7309 34.2549 47.7309C34.4099 47.7309 34.4099 48.0731 34.4099 48.7638C34.2549 50.142 33.7124 51.346 33.0149 51.5203H24.3349C24.1024 51.5203 23.9474 51.3491 23.9474 50.8327C23.9474 50.3131 24.1024 49.7967 24.3349 49.7967ZM26.4274 11.5456C26.5824 11.7167 26.6599 12.062 26.6599 12.5785C26.6599 12.9207 26.5824 13.0949 26.5049 13.0949C26.4261 13.1 26.3483 13.0544 26.28 12.9633C26.2116 12.8722 26.1554 12.7391 26.1174 12.5785L25.1099 10.6807C25.0324 10.5096 24.9549 10.1674 24.9549 9.99624C24.9549 9.47669 25.1099 9.13136 25.4974 9.13136H32.3174C32.5445 9.14667 32.7659 8.9623 32.9374 8.61491C33.0924 8.27269 33.2474 7.92736 33.3249 7.58202C33.3249 7.06558 33.4024 6.89136 33.5574 6.89136C33.6349 6.89136 33.7124 6.89136 33.7124 7.06558C33.7899 7.23669 33.7899 7.23669 33.7899 7.4078C33.7936 7.81598 33.7529 8.21971 33.6716 8.58144C33.5903 8.94316 33.471 9.25113 33.3249 9.47669C32.9374 9.99313 32.5499 10.3385 32.1624 10.3385H25.7299L26.4274 11.5456ZM25.4974 42.5602C25.4974 43.5931 25.4199 44.2838 25.1874 44.2838C24.9549 44.2838 24.8774 43.7674 24.8774 42.5602V32.5674C24.8774 31.3602 25.1099 30.3274 25.4974 29.6367C25.8074 28.9491 26.2724 28.4327 26.8149 28.4327L31.5424 28.2585C31.7749 28.2585 32.0074 27.9162 32.1624 27.5709C32.334 27.1844 32.4664 26.7135 32.5499 26.1927C32.6274 25.6731 32.7049 25.502 32.8599 25.502C33.0924 25.502 33.1699 25.8442 33.1699 26.5349C33.1736 26.9431 33.1329 27.3468 33.0516 27.7085C32.9703 28.0703 32.851 28.3782 32.7049 28.6038C32.4724 29.1202 32.0849 29.4656 31.6974 29.4656H27.1249C26.7374 29.4656 26.3499 29.8078 26.0399 30.3274C25.6524 30.8438 25.4974 31.8767 25.4974 32.7385V42.5602ZM28.5974 20.1602C28.6749 20.3314 28.6749 20.5025 28.6749 20.6767C28.6749 21.0189 28.5974 21.1931 28.4424 21.1931H28.3649C28.2099 21.1931 28.1324 21.022 27.9774 20.8509L25.6524 16.7131C25.6524 16.3709 25.5749 16.1967 25.5749 15.8514C25.5749 15.5091 25.6524 15.3349 25.8849 15.3349C25.9624 15.3349 26.1174 15.5091 26.1949 15.6802L28.5974 20.1602ZM55.4124 32.7385C55.4124 32.222 55.4899 31.8767 55.6449 31.8767C55.7999 31.8767 55.8774 32.0509 55.9549 32.3931C56.0324 32.7385 56.0324 32.9096 56.0324 33.2549C56.0324 33.7714 55.9549 34.2878 55.7224 34.8074C55.5674 35.1496 55.3349 35.4949 55.1024 35.4949H48.5924C48.2049 35.4949 48.0499 35.3238 48.0499 34.8074C48.0499 34.2909 48.2049 34.2909 48.5149 34.1167H55.0249C55.3349 33.9456 55.4124 33.6002 55.4124 32.7385ZM64.6349 50.142H70.9124C71.1449 50.142 71.2999 49.9709 71.4549 49.7998C71.6099 49.4514 71.6874 49.1091 71.6874 48.7638C71.6874 48.5896 71.7649 48.4216 71.9199 48.4216C72.1524 48.4216 72.2299 48.5896 72.2299 49.106C72.1524 49.7967 71.9974 50.4874 71.7649 50.8327C71.5324 51.1749 71.2224 51.5203 70.9124 51.5203H64.6349C64.4024 51.5203 64.2474 51.3491 64.2474 51.0038C64.1699 50.4874 64.3249 50.142 64.6349 50.142ZM65.0224 8.96024C65.0224 8.09847 65.0999 7.58202 65.3324 7.58202C65.5649 7.58202 65.6424 8.09847 65.6424 9.13136V43.2478C65.6424 43.9385 65.5649 44.2838 65.3324 44.2838C65.0999 44.2838 65.0224 43.9416 65.0224 43.0767V8.96024ZM80.6774 8.78914C80.6774 7.75314 80.8324 7.4078 81.0649 7.4078C81.2974 7.4078 81.3749 7.75314 81.3749 8.78914V47.3825C81.3749 48.4154 81.2974 49.4483 81.0649 50.31C80.9099 50.8296 80.5999 51.1718 80.2899 51.1718C79.9799 51.1718 79.7474 50.8296 79.7474 50.1389C79.7474 49.7967 79.8249 49.6225 80.0574 49.6225C80.2899 49.6225 80.5224 49.2771 80.5999 48.9318C80.6774 48.4154 80.7549 47.8989 80.7549 47.3825L80.6774 8.78602V8.78914ZM92.4574 44.1127C92.5533 44.3437 92.6086 44.6501 92.6124 44.9714C92.6124 45.3167 92.5349 45.4878 92.3799 45.4878C92.2249 45.4878 92.1474 45.3167 91.9924 45.1456C91.5274 44.2838 91.1399 43.0767 90.8299 41.8696C90.5974 40.4914 90.5199 39.1131 90.5199 37.5638C90.5199 36.8731 90.5974 36.1856 90.7524 35.4949C90.9074 34.6331 91.1399 33.6002 91.3724 32.7385C91.6049 31.7056 91.8374 30.8407 91.9924 30.1562C92.1474 29.6367 92.1474 28.9491 92.2249 28.4296C92.2249 27.742 92.3024 27.3967 92.3799 27.3967C92.6124 27.3967 92.7674 27.7389 92.9224 28.4296C92.9224 29.1202 92.8448 29.8078 92.6898 30.3274C92.4573 31.1891 92.3024 32.0478 92.0699 32.9096C91.8374 33.7714 91.6049 34.6331 91.4499 35.4949C91.2949 36.3567 91.2174 37.3927 91.2174 38.4256C91.1399 40.6656 91.6824 42.9056 92.4574 44.1127ZM92.7674 14.9927C92.7674 16.0256 92.6899 16.542 92.5349 16.542C92.3799 16.542 92.3799 16.3709 92.3024 16.0256C92.2249 15.6802 92.2249 15.3349 92.2249 14.9927C92.3024 13.0949 92.6899 11.3714 93.3099 9.99313C93.9299 8.78913 94.7049 8.27269 95.5574 8.27269C95.9449 8.27269 96.4099 8.4438 96.7974 8.78914C96.9524 8.96025 97.2624 9.13135 97.7274 9.65091C98.1924 10.1674 98.5024 10.3385 98.7349 10.5096C98.8899 10.6838 99.1224 10.6838 99.2774 10.8549C99.5099 10.8549 99.7424 10.5127 99.7424 10.1674C99.7424 9.99313 99.8199 9.99313 99.8974 9.99313C100.052 9.99313 100.13 10.3385 100.13 10.8549C99.9749 11.5456 99.5874 12.062 99.1999 12.062C98.7349 11.8909 98.2699 11.7198 97.8824 11.2002C97.4545 10.7821 97.0142 10.4369 96.5649 10.1674C96.1312 9.95724 95.6902 9.84163 95.2474 9.82202C94.6274 9.82202 94.0074 10.5096 93.6199 11.7198C93.1549 12.5785 92.8449 13.7856 92.7674 14.9927ZM93.6199 49.7967C94.1624 50.1389 94.7049 50.3131 95.3249 50.3131C96.4187 50.3155 97.5008 49.7879 98.5024 48.7638C99.42 47.7247 100.217 46.1885 100.827 44.2838C101.447 42.0438 101.835 39.4616 101.835 36.8731C101.912 33.6002 101.215 30.4985 100.052 28.4327C99.9749 28.2585 99.8974 28.0874 99.8974 27.9131C99.8974 27.742 99.9749 27.5709 100.052 27.3967C100.13 27.2256 100.285 27.2256 100.362 27.2256C101.68 29.2914 102.532 32.7385 102.532 36.5278C102.532 39.4585 102.145 42.2149 101.447 44.6291C100.905 46.8691 99.9749 48.5896 98.9674 49.7967C97.8049 51.0038 96.5649 51.6945 95.2474 51.6945C94.7049 51.6945 94.0849 51.5202 93.5424 51.3491C93.2324 51.1749 93.0774 50.8327 93.0774 50.3131C92.9224 49.9709 93.1549 49.7967 93.6199 49.7967ZM111.445 18.6109L108.112 12.2331C107.957 11.8909 107.957 11.7167 107.957 11.5456C107.957 11.2002 108.035 11.0291 108.267 11.0291C108.345 11.0291 108.422 11.0291 108.422 11.2002L111.91 17.9202C112.065 18.2625 112.142 18.4367 112.142 18.782C112.142 19.1242 112.065 19.1242 111.91 19.1242L111.445 18.6109ZM111.445 9.13136H118.575C119.195 9.13136 119.505 8.61491 119.505 7.58202C119.505 7.4078 119.582 7.2398 119.737 7.2398C119.97 7.2398 120.047 7.4078 120.047 7.75314C120.047 8.4438 119.892 9.13136 119.66 9.82202C119.496 10.1127 119.308 10.3234 119.109 10.4416C118.909 10.5597 118.701 10.5828 118.497 10.5096H111.445C111.212 10.5096 111.057 10.3385 111.057 9.99313C111.057 9.65091 111.212 9.13136 111.445 9.13136ZM114.157 19.9891C114.157 18.9531 114.235 18.4367 114.39 18.4367C114.545 18.4367 114.622 18.7789 114.622 19.4727V48.0731C114.622 48.9349 114.545 49.6256 114.312 50.3131C114.157 51.0038 113.847 51.3491 113.46 51.3491C113.305 51.3491 113.227 51.1749 113.227 50.6585C113.227 50.142 113.227 50.142 113.305 50.142C113.77 49.9709 114.157 49.1091 114.08 48.0731L114.157 19.9891ZM128.727 8.78914C128.727 7.75314 128.882 7.4078 129.115 7.4078C129.347 7.4078 129.425 7.75314 129.425 8.78914V47.3825C129.425 48.4154 129.347 49.4483 129.115 50.31C128.96 50.8296 128.65 51.1718 128.34 51.1718C128.03 51.1718 127.797 50.8296 127.797 50.1389C127.797 49.7967 127.875 49.6225 128.107 49.6225C128.34 49.6225 128.572 49.2771 128.65 48.9318C128.727 48.4154 128.805 47.8989 128.805 47.3825V8.78914H128.727ZM141.67 41.5274C141.825 41.6985 141.98 42.0438 141.98 42.5602C141.98 42.7314 141.902 43.0767 141.825 43.0767H141.747C141.592 43.0767 141.515 42.9056 141.36 42.7345C139.267 38.5967 138.26 33.7745 138.26 28.6038C138.26 24.9856 138.725 21.3674 139.577 18.2656C140.042 16.3678 140.662 14.8185 141.437 13.4402C142.301 12.0194 143.238 10.861 144.227 9.99313C145.157 9.13136 146.165 8.78914 147.172 8.78914C147.715 8.78914 148.335 8.96024 148.877 9.30558C149.187 9.30558 149.342 9.6478 149.342 9.99313C149.342 10.3385 149.265 10.5096 149.032 10.5096C148.877 10.5096 148.8 10.5096 148.645 10.3385C148.115 9.9979 147.567 9.8242 147.017 9.82202C145.545 9.82202 144.15 10.8549 142.91 12.4042C141.67 13.9598 140.585 16.0256 139.887 18.782C139.12 21.6187 138.717 24.9064 138.725 28.2585C138.88 33.0807 139.81 37.5607 141.67 41.5274ZM142.987 49.6256C142.755 49.4514 142.6 49.1091 142.6 48.7638C142.6 48.4216 142.677 48.4216 142.91 48.4216C143.065 48.4216 143.297 48.5896 143.375 48.7638C144.46 49.9709 145.622 50.4874 146.862 50.4874C147.637 50.4874 148.49 50.3131 149.187 49.7967C149.87 49.4819 150.526 48.899 151.125 48.0731C151.59 47.5567 151.9 46.6949 152.055 45.4909C152.21 44.6291 152.365 44.1096 152.442 44.1096C152.597 44.1096 152.752 44.6291 152.752 45.4909C152.675 46.6949 152.365 47.902 151.9 48.5896C151.202 49.6256 150.427 50.3131 149.652 50.8296C148.722 51.3491 147.792 51.6914 146.785 51.6914C145.467 51.7059 144.166 50.9982 142.987 49.6256ZM151.745 11.5456C151.822 11.7167 151.9 11.7167 152.055 11.7167C152.365 11.7167 152.52 11.2002 152.52 10.5127C152.523 10.258 152.504 10.0045 152.464 9.76723C152.424 9.52998 152.364 9.31376 152.287 9.13136C152.287 8.96024 152.21 8.96025 152.21 8.78914C152.21 8.4438 152.287 8.27269 152.597 8.27269C152.752 8.27269 152.907 8.4438 152.985 8.78914C153.14 9.30558 153.14 9.82202 153.14 10.3385C153.14 11.0291 153.062 11.7167 152.83 12.2362C152.728 12.4703 152.607 12.6522 152.474 12.7701C152.34 12.888 152.197 12.9393 152.055 12.9207C151.9 12.9207 151.745 12.9207 151.667 12.7527C151.512 12.4074 151.435 12.2331 151.435 11.8909C151.202 11.5456 151.435 11.5456 151.745 11.5456Z" fill="white"/>
<path d="M9.37736 34.8076C9.91986 36.8733 10.5399 39.2876 11.3149 42.2151C12.0124 45.1458 12.6324 47.2116 12.9424 48.4187C13.3299 49.6258 13.6399 50.1422 13.8724 50.1422C13.9499 50.1422 14.0274 50.1422 14.1049 49.9711C14.2599 49.9711 14.3374 50.1422 14.3374 50.3133C14.3374 50.4876 14.2599 50.8298 14.1824 50.8298C14.0274 51.004 13.8724 51.004 13.7174 51.004C13.5133 50.9892 13.3141 50.8552 13.138 50.6144C12.962 50.3736 12.8148 50.0336 12.7099 49.6258C12.3999 48.764 11.9349 46.8693 11.1599 43.9387C10.3849 41.0111 9.68736 38.2516 8.98986 36.0116L9.37736 34.8076ZM5.42486 22.9169L2.55736 11.5458C2.55736 11.3716 2.47986 11.0293 2.47986 10.8551C2.47986 10.684 2.55736 10.5129 2.55736 10.5129C2.71236 10.5129 2.86736 10.684 2.94486 11.0293L6.04486 22.9169H5.42486ZM54.7924 39.4587L55.8774 47.3858C55.8774 47.728 55.9549 48.0733 55.9549 48.2476C55.9554 48.6357 55.9213 49.0198 55.8546 49.3755C55.7878 49.7312 55.69 50.0506 55.5674 50.3133C55.3184 50.8751 54.9841 51.1849 54.6374 51.1751C54.3274 51.1751 54.0949 51.004 53.8624 50.6587L44.3299 36.7022C44.0199 36.36 43.8649 35.8405 43.8649 35.6693C43.8649 35.4951 43.9424 35.324 44.1749 35.324C44.3299 35.324 44.4849 35.4951 44.6399 35.6662L54.1724 49.9711C54.3274 50.1422 54.5599 50.3133 54.7924 50.3133C55.2574 50.3133 55.4899 49.7969 55.4899 48.9351C55.4899 48.4187 55.4124 48.0733 55.4124 47.5569L54.2499 38.768L54.7924 39.4587ZM52.6999 28.2587L49.8324 8.09868C49.8324 7.23691 49.9099 6.72046 50.0649 6.72046C50.2199 6.72046 50.2974 6.89157 50.3749 7.40802L53.3974 28.2587H52.6999ZM44.6399 39.9751L44.4849 39.804L42.9349 49.4516C42.8574 49.968 42.7024 50.4876 42.4699 50.6587C42.2374 51.0009 42.0049 51.1751 41.6949 51.1751C41.3849 51.1751 41.2299 50.8329 41.2299 50.4876C41.2299 49.9711 41.4624 49.6258 41.8499 49.6258C41.9924 49.6203 42.1296 49.498 42.2374 49.2805C42.3924 49.1093 42.4699 48.764 42.5474 48.4187L44.0199 38.9422L44.6399 39.9751ZM45.5699 28.4329L47.5074 15.5093C47.5849 14.9898 47.6624 14.8187 47.8949 14.8187C48.1274 14.8187 48.1274 15.1609 48.1274 15.8516L46.1899 28.4298L45.5699 28.4329ZM91.7599 24.124C91.7599 23.9498 91.6824 23.7787 91.6824 23.6076C91.6049 23.4333 91.5274 23.2622 91.5274 23.0911C91.4499 22.9169 91.3724 22.7458 91.3724 22.5716C91.3724 21.884 91.4499 21.7098 91.6049 21.7098C91.6824 21.7098 91.7599 21.7098 91.8374 21.884C92.4574 23.4333 93.1549 24.6405 93.9299 25.5022C94.8599 26.5351 95.7899 27.5711 96.7974 28.2587C96.9524 28.2587 97.0299 28.4298 97.0299 28.7751C97.0299 29.1205 96.9524 29.4658 96.7974 29.4658H96.7199C96.4099 29.2916 96.1774 29.1205 95.8674 28.9493L94.9374 28.0876L94.1624 27.3969L91.7599 24.124Z" fill="white"/>
<path d="M9.06742 36.3567C9.06742 37.2185 9.06742 38.0803 9.14492 38.9389L12.3999 51.0038C12.7099 51.8656 13.1749 52.3821 13.6399 52.3821C14.1049 52.3821 14.6474 52.0398 15.0349 51.3492C15.4224 50.6585 15.6549 49.7967 15.6549 48.5896C15.6549 47.7309 15.4999 47.0403 15.3449 46.3496L12.0124 33.9456C11.7024 32.9096 11.2374 32.3932 10.7724 32.5674C9.99742 32.5674 9.45492 33.2549 9.37742 34.6332L9.06742 36.3567ZM8.44742 14.6474L8.83492 16.1967C8.98992 16.7132 9.06742 17.2296 9.22242 17.7492C9.37742 18.2656 9.53242 18.7821 9.60992 19.2985C9.68742 18.7821 9.76492 18.2656 9.76492 17.7492C9.76923 17.3167 9.72931 16.8881 9.64846 16.4986C9.56761 16.1091 9.44815 15.77 9.29992 15.5092C9.22242 14.9896 8.83492 14.6474 8.44742 14.6474ZM6.12242 23.091C7.05242 23.2621 8.05992 22.9167 8.98992 22.4003C8.75742 21.3674 8.29242 19.6438 7.67242 17.4038C7.26787 16.1775 6.97753 14.7682 6.81992 13.2661C6.81992 12.5785 6.97492 12.0621 7.28492 11.8909C7.59492 11.5456 7.90492 11.5456 8.21492 11.5456C8.91242 11.5456 9.60992 12.0621 10.2299 13.0949C10.8499 14.1278 11.1599 15.8514 11.0824 17.4038C11.0824 18.0914 11.0049 18.9532 10.9274 19.6438C10.8449 20.5131 10.6756 21.325 10.4333 22.0136C10.1909 22.7022 9.8823 23.2482 9.53242 23.6074C8.67992 24.2949 7.82742 24.6403 6.89742 24.4692H3.87492C3.40992 24.4692 2.94492 24.4692 2.47992 24.8114C2.16992 24.9856 1.93742 25.3278 1.85992 25.8474C1.70492 26.7092 1.62742 27.5678 1.70492 28.2585V48.2474C1.70492 49.2803 1.85992 50.3132 2.16992 51.0038C2.47992 51.6914 2.86742 52.0367 3.33242 52.0367C3.79742 52.0367 4.26242 51.6945 4.64992 51.0038C4.84033 50.7342 4.99751 50.3544 5.10616 49.9013C5.21481 49.4482 5.27123 48.9374 5.26992 48.4185L5.03742 36.1856C4.95992 35.1496 5.19242 34.1167 5.50242 33.4292C5.81242 32.9096 6.19992 32.5674 6.66492 32.5674L7.74992 32.3932C9.14492 32.2221 10.4624 31.1892 11.6249 29.6367C12.5549 28.2585 13.3299 26.1896 13.8724 23.9496C14.3383 21.8155 14.5775 19.4524 14.5699 17.0585C14.6391 14.2487 14.2518 11.4811 13.4849 9.30561C12.8882 7.60126 12.1502 6.19405 11.3149 5.16783C10.4965 4.02106 9.55754 3.42549 8.60242 3.44739H4.41742C3.71992 3.44739 2.94492 3.96384 2.40242 4.99673C1.93742 6.02962 1.62742 7.40784 1.62742 8.78917C1.62742 9.82206 1.78242 10.8549 2.01492 11.8909L4.95992 23.091H6.12242ZM2.86742 21.3674L0.542423 12.5785C0.177252 11.3045 -0.0120298 9.80106 -7.72286e-05 8.26962C-7.72286e-05 6.20384 0.387422 4.13495 1.00742 2.58561C1.43026 1.7272 1.92184 1.07198 2.45387 0.657646C2.98589 0.243315 3.54786 0.0780615 4.10742 0.171393H9.14492C10.4624 0.171393 11.8574 1.03317 12.9424 2.58561C14.0119 4.12031 14.8719 6.33108 15.4224 8.96028C16.0424 11.5425 16.3524 14.4732 16.3524 17.4038C16.3524 20.1603 16.1199 22.9167 15.5774 25.3278C15.0349 27.9132 14.2599 29.9821 13.2524 31.7056L16.5849 43.5932C17.0499 45.1456 17.3599 47.0403 17.3599 48.9349C17.3599 50.8327 16.9724 52.7274 16.2749 54.1056C15.5774 55.3096 14.7249 56.0003 13.7949 56.0003C13.2758 56.0956 12.7554 55.8566 12.2906 55.3096C11.8259 54.7625 11.4347 53.9284 11.1599 52.8985C8.67992 43.5963 7.20742 38.2514 6.89742 36.8763V48.2474C6.97492 50.3132 6.58742 52.3821 5.88992 53.7603C5.19242 54.9674 4.33992 55.6581 3.40992 55.6581C2.55742 55.6581 1.78242 55.1385 1.16242 53.9314C0.542424 52.7274 0.154922 51.0038 0.232422 49.1092V28.0874C0.232422 26.3638 0.464923 24.6403 0.852423 23.2621C1.23992 21.8838 2.01492 21.1963 2.86742 21.3674ZM24.1024 52.5532H33.0924C33.6349 52.5532 34.0999 52.211 34.4874 51.3492C34.7974 50.4874 35.0299 49.4514 34.9524 48.4185C34.9524 47.3856 34.7974 46.3496 34.4874 45.6621C34.0999 44.8003 33.5574 44.455 33.0149 44.455H27.5899C26.5049 44.455 25.9624 43.5932 25.9624 41.6985V34.2909C25.9624 32.0509 26.4274 31.0149 27.3574 31.0149H31.5424C32.0849 31.0149 32.6274 30.4985 33.0149 29.6367C33.4799 28.7749 33.7124 27.5678 33.7124 26.1896C33.7124 24.6403 33.3249 23.0909 32.7049 22.2292L27.2024 11.8909H31.9299C32.5689 11.7131 33.1802 11.1807 33.7124 10.3385C34.0999 9.65095 34.3324 8.44073 34.3324 7.40784C34.3402 6.90675 34.2947 6.40894 34.2001 5.95852C34.1055 5.5081 33.9646 5.11898 33.7899 4.82562C33.576 4.41407 33.328 4.10965 33.0613 3.9314C32.7946 3.75314 32.515 3.70487 32.2399 3.78962H23.8699C23.2499 3.78962 22.5524 4.13495 22.0874 4.99673C21.9009 5.31623 21.7481 5.73055 21.6407 6.20819C21.5332 6.68583 21.474 7.21421 21.4674 7.75317C21.5449 9.65095 21.9324 11.5456 22.7074 12.7496L28.2099 22.9167H24.0249C23.4824 22.9167 23.0174 23.4332 22.7074 24.2949C22.3974 25.1567 22.2424 26.0185 22.2424 27.0514V47.5567C22.2424 48.7638 22.3199 49.971 22.5524 51.175C22.7849 52.0367 23.3274 52.5532 24.1024 52.5532ZM23.7149 18.9532L21.0024 13.6114C20.2274 12.0621 19.7624 9.99317 19.7624 7.58206C19.7624 6.20384 19.9174 4.99984 20.1499 3.78962C20.3824 2.58562 20.8474 1.72384 21.3899 1.03317C22.0204 0.345391 22.7087 -0.00741918 23.4049 0.000280794H32.5499C33.4799 -0.17083 34.3324 0.687834 34.9524 2.24028C35.2496 2.91093 35.4852 3.71495 35.645 4.6037C35.8049 5.49244 35.8856 6.44745 35.8824 7.41095C35.8824 9.47673 35.4949 11.3714 34.7974 12.7496C33.8884 14.3616 32.7603 15.1568 31.6199 14.9896L34.4099 20.6767C35.1074 22.0549 35.4174 23.9496 35.4174 26.0185C35.4174 28.0874 35.1074 29.9821 34.4874 31.5314C33.8674 33.0838 32.8599 33.9456 31.9299 33.9456H27.5899V40.8367L33.4799 41.0109C34.3324 41.0109 35.1074 41.6985 35.6499 43.2509C36.1977 44.6702 36.5013 46.5103 36.5024 48.4185C36.5799 52.3821 35.1849 55.6549 33.4024 55.8292H23.7149C21.6224 55.8292 20.6149 53.4149 20.6149 48.4185V26.5349C20.6149 24.8114 20.8474 23.0909 21.3124 21.5385C21.9324 20.1603 22.7849 19.1274 23.7149 18.9563V18.9532ZM48.2049 24.4692L47.7399 28.4296H48.8249L48.2049 24.4692ZM54.0949 38.7709C53.8624 38.5967 53.6299 38.4256 53.3974 38.5967C53.0498 38.5253 52.7018 38.7233 52.4075 39.1599C52.1131 39.5965 51.889 40.2472 51.7699 41.0109C50.7624 39.6296 49.7549 38.2514 48.9024 36.8732H55.0249C55.4899 36.8732 55.9549 36.5309 56.2649 35.8403C56.5749 35.1496 56.7299 34.2909 56.6524 33.2581C56.6524 32.3932 56.4974 31.5314 56.2649 30.8438C55.9745 30.1843 55.5856 29.8129 55.1799 29.8078H44.4074C43.9441 29.8387 43.5023 30.2688 43.1674 31.0149C42.8574 31.7056 42.6249 32.7385 42.6249 33.7714C42.6249 34.9785 42.9349 36.1856 43.3999 36.7021L53.3974 51.6914C53.7849 52.2078 54.1724 52.5532 54.5599 52.5532C55.1024 52.5532 55.5674 52.0367 55.8774 51.0038C56.1874 50.3132 56.3424 49.4514 56.4199 48.5896C56.2695 46.5889 56.0359 44.6269 55.7224 42.7314C55.4124 40.6656 55.1024 39.6296 54.7924 39.4585L54.0949 38.7709ZM53.8624 28.6038L50.8399 7.23673C50.7752 6.67445 50.6584 6.15196 50.4977 5.7059C50.337 5.25983 50.1364 4.90098 49.9099 4.6545C49.446 3.97361 48.9084 3.61428 48.3599 3.6185C47.8174 3.6185 47.3524 3.96073 46.8874 4.65139C46.4224 5.34206 46.1124 6.37495 45.9574 7.58206L39.9899 46.5238C39.8349 47.2114 39.8349 48.0732 39.8349 48.7638C39.8349 49.7967 39.9899 51.0038 40.3774 51.6914C40.6874 52.3821 41.1524 52.7274 41.6174 52.7274C42 52.743 42.3765 52.5034 42.7024 52.0367C43.0124 51.5203 43.2449 50.8296 43.3224 49.971L44.7949 40.4914L44.5624 40.1492C44.4849 39.9749 44.4849 39.9749 44.4074 39.9749L43.9424 39.2874L43.0124 37.7349C42.3924 36.8732 42.0824 35.3238 42.0824 33.7714C42.0824 32.3932 42.3149 31.1892 42.7024 30.1532C43.0899 29.1203 43.7099 28.6038 44.3299 28.6038H46.6549L48.4374 17.4038L49.9874 28.6038H53.8624ZM38.5949 45.6621L44.7174 5.8585C44.8403 4.95838 45.0413 4.12664 45.3079 3.41486C45.5745 2.70308 45.9011 2.12644 46.2674 1.72072C46.9649 0.687835 47.8174 0.171393 48.6699 0.171393C49.4449 0.171393 50.2199 0.687839 50.9174 1.72384C51.6149 2.75673 52.0799 4.30606 52.3124 6.02961L55.3349 26.7092C56.1099 26.7092 56.8074 27.3967 57.3499 28.6038C57.8924 29.8078 58.1249 31.5314 58.1249 33.0838C58.1249 35.3238 57.5824 37.3896 56.7299 38.5967L57.9699 46.5238C58.0474 47.2114 58.0474 47.7309 58.0474 48.4185C58.0474 49.7967 57.8924 51.0007 57.5824 52.0367C57.2724 53.2438 56.8074 54.1056 56.2649 54.7932C55.7449 55.4774 55.1573 55.8344 54.5599 55.8292C54.0174 55.8292 53.4749 55.4838 53.0874 54.9674L46.0349 44.455L44.8724 51.0038C44.6399 52.3821 44.1749 53.5861 43.6324 54.4509C42.3149 56.3456 40.6099 56.0003 39.3699 53.7603C38.6724 52.5532 38.3624 50.6585 38.3624 48.7638C38.2849 47.7309 38.3624 46.6949 38.5949 45.6621ZM62.5424 8.44384V47.5567C62.5424 48.7638 62.6199 50.139 62.9299 51.175C63.1624 52.0367 63.7824 52.5532 64.6349 52.5532H70.8349C71.2875 52.6456 71.7373 52.3168 72.0859 51.6386C72.4345 50.9605 72.6535 49.9883 72.6949 48.9349V48.5927C72.6949 46.6949 72.0749 44.9714 71.1449 44.8003H67.4249C66.8824 44.8003 66.4949 44.4581 66.3399 43.7674C66.1825 43.2033 66.1015 42.5422 66.1074 41.8696V8.44384C66.1074 7.23673 65.9524 5.8585 65.5649 4.82562C65.2549 3.96384 64.7899 3.6185 64.3249 3.6185C63.8599 3.6185 63.3949 4.13495 63.0074 4.82562C62.6935 5.88858 62.5309 7.15415 62.5424 8.44384ZM60.9149 8.96028C60.9149 7.23672 61.0699 5.68739 61.3799 4.13806C61.6899 2.93095 62.0774 1.89806 62.6199 1.20739C63.9374 -0.516162 65.5649 0.000279692 66.5724 2.41139C67.2699 4.13495 67.6574 6.20384 67.5799 8.44384V39.8038C67.5799 41.0078 67.8899 41.5274 68.4324 41.5274H70.6799C71.6099 41.3532 72.6174 42.2149 73.2374 43.7674C73.5344 44.4377 73.7699 45.2412 73.9298 46.1294C74.0896 47.0176 74.1705 47.972 74.1674 48.9349C74.1674 50.8327 73.8574 52.5532 73.3149 53.9314C72.6949 55.3096 71.8424 56.1714 70.9899 56.0003H64.1699C63.7163 56.0658 63.2624 55.8817 62.845 55.4628C62.4276 55.044 62.0584 54.4021 61.7674 53.5892C61.2249 52.0367 60.9149 50.1421 60.9149 48.2474V8.96028ZM78.1199 8.26962V46.8692C78.0424 48.4185 78.2749 49.7967 78.6624 51.0038C78.9724 51.8656 79.4374 52.5532 79.9799 52.5532C80.5224 52.5532 80.9874 52.0367 81.2974 51.175C81.6849 50.1421 81.9174 48.7638 81.9174 47.3856V8.26962C81.9949 6.8914 81.7624 5.68739 81.3749 4.65139C81.0649 3.78962 80.5999 3.44739 80.0574 3.44739C79.5149 3.44739 79.0499 3.96384 78.7399 4.82562C78.2749 5.68739 78.1199 7.06562 78.1199 8.26962ZM76.6474 8.09851C76.5699 5.85851 76.9574 3.78961 77.6549 2.24028C78.2749 0.862056 79.2049 0.171393 80.0574 0.171393C80.9099 0.171393 81.7624 0.862056 82.3824 2.24028C83.0799 3.78961 83.3899 5.8585 83.3124 7.92739V47.5567C83.3146 49.1701 83.1554 50.7625 82.8474 52.2078C82.6149 53.4149 82.1499 54.4478 81.6074 55.1385C81.1424 55.8292 80.5999 56.1714 79.9799 56.1714C79.0852 56.1711 78.2249 55.369 77.5774 53.9314C76.8799 52.2109 76.4924 49.9709 76.5699 47.7309L76.6474 8.09851ZM94.2399 32.7385C93.6586 34.2091 93.3041 36.0886 93.2324 38.0803C93.2324 39.2874 93.4649 40.4914 93.9299 41.0109C94.3937 41.6188 94.9194 41.9234 95.4515 41.8928C95.9835 41.8621 96.5021 41.4972 96.9524 40.8367C97.3399 40.1492 97.5724 38.9389 97.5724 37.9092C97.5724 36.5278 97.1849 35.3238 96.6424 34.6332C95.8674 33.7714 95.0924 33.0838 94.2399 32.7385ZM93.9299 28.0874C93.9299 28.4296 94.0074 28.6038 94.1624 28.7749L95.8674 29.9821C96.3324 30.3243 96.7199 30.8438 97.1849 31.3603C97.6499 31.8767 98.1149 32.5674 98.5024 33.4292C98.8899 34.1167 99.1224 35.1496 99.1999 36.1856C99.2774 36.7021 99.2774 37.3896 99.2774 37.9092C99.2774 39.9749 98.8899 41.8696 98.1149 43.0767C97.4174 44.2838 96.5649 45.1456 95.6349 45.1456C94.7049 45.1456 93.6974 44.6292 92.9224 43.5932C92.0699 42.5603 91.6049 40.6656 91.6824 38.5967C91.6824 37.2185 91.8374 35.8403 92.1474 34.6332C92.3024 33.9456 92.4574 33.2549 92.6899 32.5674C92.9224 31.8767 93.0774 31.1892 93.2324 30.4985C93.3099 29.9821 93.3874 29.4656 93.3874 28.9492C93.3874 28.0874 93.3099 27.3967 93.0774 26.7092C92.8449 26.0185 92.5349 25.6732 92.1474 25.8474C91.543 26.0145 90.9613 26.4847 90.4424 27.2256C89.6745 28.4349 89.0591 30.0996 88.6599 32.0478C88.2724 34.1167 88.0399 36.1856 88.0399 38.4256C88.0399 40.6656 88.2724 43.0767 88.7374 45.1456C89.1249 47.0403 89.7449 48.5896 90.5199 49.7967C91.9324 51.7081 93.5362 52.719 95.1699 52.7274C96.4099 52.7274 97.5724 52.211 98.6574 51.0038C99.7424 49.971 100.672 48.4185 101.37 46.3496C102.067 44.4549 102.532 42.2149 102.765 39.8038C102.842 38.9421 102.842 37.9061 102.842 36.8732C102.842 30.8438 101.447 26.5349 98.7349 24.1238C98.3474 23.7785 97.8824 23.4332 97.3399 22.9167C96.7974 22.4003 96.3324 22.0549 95.8674 21.7096C95.4402 21.321 95.0258 20.8604 94.6274 20.3314C94.2084 19.9141 93.8521 19.2164 93.6038 18.3268C93.3554 17.4372 93.2262 16.3959 93.2324 15.335C93.2324 14.131 93.4649 12.7527 93.9299 12.0621C94.2097 11.5325 94.5319 11.1379 94.8779 10.9012C95.2239 10.6646 95.5866 10.5907 95.9449 10.6838C96.7974 11.0261 97.6499 11.7167 98.4249 12.7496C98.6574 12.9238 98.8124 12.9238 99.0449 12.9238C99.5099 12.9238 99.9749 12.5785 100.362 11.8909C100.553 11.6213 100.71 11.2415 100.819 10.7884C100.927 10.3353 100.984 9.8245 100.982 9.30561C100.982 7.75317 100.517 6.37495 99.5099 4.99673C98.4771 3.60335 97.2918 2.94368 96.0999 3.09895C94.9374 3.09895 93.7749 3.6185 92.7674 4.82562C91.7575 5.86478 90.9351 7.69253 90.4424 9.99317C90.0388 11.8035 89.8262 13.8117 89.8224 15.8514C89.8202 17.465 89.972 19.0596 90.2668 20.5199C90.5617 21.9802 90.9923 23.2696 91.5274 24.2949C91.6049 24.4692 91.6824 24.4692 91.7599 24.4692C92.3799 24.2949 92.9999 24.6403 93.5424 25.5021C93.8524 26.1896 94.0849 27.0514 94.0849 28.0843L93.9299 28.0874ZM89.5124 24.8114C88.681 22.2729 88.1951 19.2129 88.1174 16.0256C88.1174 13.0949 88.5824 10.1674 89.2799 7.58206C89.9774 5.16784 90.9849 3.10206 92.2249 2.06917C93.4771 0.846109 94.8195 0.201557 96.1774 0.171393C96.7974 0.171393 97.3399 0.345615 97.9599 0.516726C99.2099 1.03051 100.383 2.27556 101.37 4.13495C102.067 5.51317 102.455 7.40783 102.455 9.30561C102.456 10.1923 102.373 11.0688 102.213 11.8727C102.052 12.6766 101.817 13.3881 101.525 13.9567C100.827 15.3349 99.9749 16.0256 99.1224 15.8545C98.2257 15.8735 97.343 15.3366 96.5649 14.2989C96.3066 13.9475 96.0115 13.7698 95.7124 13.7856C95.0924 13.7856 94.8599 14.4732 94.8599 15.335C94.8621 15.7849 94.9223 16.2229 95.0329 16.5919C95.1435 16.961 95.2993 17.2439 95.4799 17.4038C95.9449 18.0914 96.4874 18.7821 97.1074 19.1274L99.1224 20.8478C99.7424 21.3674 100.362 22.055 100.905 22.7456C102.047 24.0794 102.992 26.1794 103.617 28.7749C104.16 31.1892 104.47 33.7714 104.47 36.5278C104.47 38.9421 104.237 41.5274 103.85 43.7674C103.462 46.0074 102.92 47.9021 102.145 49.6256C101.229 51.653 100.149 53.2343 98.9674 54.2767C97.7503 55.3071 96.465 55.8325 95.1699 55.8292C93.3874 55.8292 91.6049 54.9674 90.0549 52.8985C88.6599 51.3492 87.5749 48.5896 86.9549 45.3167C86.6449 43.2478 86.4124 41.0078 86.4124 38.7678C86.4124 33.4292 87.5749 28.2585 89.5124 24.8114ZM111.522 23.4332V48.2474C111.522 49.4514 111.755 50.4874 112.142 51.3492C112.53 52.0367 112.995 52.5532 113.537 52.5532C114.002 52.5532 114.39 52.211 114.777 51.5203C115.087 50.6585 115.32 49.6225 115.242 48.4185V20.1603C115.242 19.1274 115.087 18.0914 114.777 17.2296C114.312 16.1967 113.847 15.3349 113.382 14.4732C112.84 13.6114 112.375 12.7496 111.987 11.5456H118.652C119.195 11.5456 119.737 11.2003 120.125 10.5096C120.435 9.82206 120.667 8.78917 120.667 7.75317C120.667 6.54917 120.435 5.51317 120.047 4.82562C119.56 3.93865 118.961 3.45381 118.342 3.44739H107.88C107.415 3.44739 107.027 3.96384 106.717 4.65139C106.407 5.51317 106.175 6.54917 106.175 7.58206C106.175 9.30562 106.562 10.8549 107.26 11.7198L108.732 14.4732C109.197 15.3349 109.662 16.1967 109.972 16.7132C110.282 17.4038 110.67 18.0914 110.98 18.7821C111.29 20.1603 111.522 21.7096 111.522 23.4332ZM109.972 48.2474V26.0185C110.05 24.6403 109.895 23.2621 109.74 22.055C109.404 20.7605 108.956 19.6452 108.422 18.7821L107.57 17.4038C107.337 17.0585 107.105 16.5421 106.717 15.8514C106.418 15.3191 106.134 14.7445 105.865 14.1309C105.71 13.7856 105.477 13.2692 105.322 12.7496C104.857 11.2003 104.547 9.47673 104.625 7.58206C104.625 5.68428 104.935 3.6185 105.477 2.24028C105.793 1.46056 106.18 0.854816 106.609 0.467279C107.038 0.0797412 107.498 -0.0798079 107.957 0.000280794H118.342C119.04 0.000280794 119.737 0.342505 120.357 1.03317C120.9 1.72384 121.365 2.75673 121.675 3.96384C121.985 5.16784 122.14 6.37495 122.14 7.75317C122.139 9.66244 121.836 11.5038 121.287 12.9238C120.667 14.4732 119.737 15.1638 118.807 14.9896H115.94C116.25 15.335 116.482 16.0256 116.56 16.7132C116.637 17.9203 116.715 19.2985 116.715 20.6767V48.4185C116.792 50.4874 116.482 52.3821 115.785 53.7603C115.156 54.993 114.36 55.6655 113.537 55.6581C112.917 55.6581 112.375 55.3096 111.832 54.7932C111.29 54.1056 110.825 53.2438 110.515 52.0367C110.127 50.8296 109.972 49.2803 109.972 47.8989V48.2474ZM126.015 8.26962V47.0403C125.937 48.5896 126.17 49.971 126.557 51.1781C126.867 52.0367 127.332 52.7274 127.875 52.7274C128.417 52.7274 128.882 52.211 129.192 51.3492C129.58 50.3132 129.812 48.9349 129.735 47.5567V8.26962C129.812 6.8914 129.58 5.68739 129.192 4.65139C128.882 3.78962 128.417 3.44739 127.875 3.44739C127.332 3.44739 126.867 3.96384 126.557 4.82562C126.221 5.80625 126.031 7.01501 126.015 8.26962ZM124.542 7.92739C124.465 5.68739 124.852 3.61851 125.55 2.06917C126.17 0.687839 127.1 0.000280794 127.952 0.000280794C128.805 0.000280794 129.657 0.687839 130.277 2.06917C130.975 3.61851 131.285 5.68739 131.207 7.75317V47.3856C131.21 48.999 131.05 50.5914 130.742 52.0367C130.2 54.451 129.115 55.8292 127.952 55.8292C127.058 55.8292 126.197 55.027 125.55 53.5892C124.852 51.8656 124.465 49.6256 124.542 47.3856V7.92739ZM150.737 42.3892C149.497 43.7674 148.102 44.6292 146.707 44.6292C145.39 44.6292 144.15 43.9385 142.987 42.3892C140.74 39.4585 139.345 34.1167 139.345 28.4296C139.345 25.5021 139.655 22.5714 140.352 19.9892C140.972 17.4038 141.98 15.1638 143.065 13.6114C144.247 12.0521 145.581 11.2222 146.94 11.2003C148.412 11.2003 149.885 12.2332 151.202 13.7825C151.435 14.1278 151.667 14.1278 151.9 14.1278C152.287 14.1278 152.752 13.7856 152.985 12.9238C153.295 12.2332 153.45 11.2003 153.45 10.1674C153.45 7.92739 152.907 6.37494 151.745 5.34206C150.211 3.97553 148.582 3.27435 146.94 3.27317C143.917 3.27317 140.972 6.02961 138.88 11.0292C137.872 13.4403 137.02 16.1967 136.477 19.2985C135.935 22.4003 135.625 25.6763 135.625 28.9492C135.625 32.2221 136.012 35.3238 136.632 38.2514C137.28 41.1194 138.147 43.6886 139.19 45.8332C140.275 47.9021 141.437 49.6256 142.755 50.8296C144.039 51.9983 145.407 52.5834 146.785 52.5532C148.722 52.5532 150.66 51.3492 152.287 48.7638C152.83 48.0732 153.217 46.695 153.217 45.3167C153.217 44.455 153.062 43.4189 152.752 42.7345C152.442 42.0438 151.977 41.6985 151.512 41.6985C151.226 41.6938 150.949 41.9404 150.737 42.3892ZM153.295 51.3492C151.329 54.2824 149.042 55.8376 146.707 55.8292C145.115 55.8441 143.536 55.1416 142.057 53.7603C140.585 52.3821 139.19 50.4874 138.027 47.9021C136.887 45.5002 135.942 42.6401 135.237 39.4585C134.54 36.3567 134.23 33.0807 134.152 29.6367C134.152 24.4692 134.695 19.4696 135.857 14.9896C136.942 10.5096 138.57 6.89139 140.507 4.13495C142.445 1.55273 144.615 0.000281743 146.94 0.171393C148.8 0.171393 150.66 1.03317 152.365 2.75672C153.154 3.47728 153.849 4.66558 154.38 6.20383C154.767 7.58206 155 9.13139 155.077 10.6838C155.077 12.4074 154.767 14.1278 154.302 15.335C154.034 15.9982 153.71 16.5245 153.349 16.8806C152.989 17.2367 152.601 17.4149 152.21 17.4038C151.59 17.4038 150.97 17.0585 150.427 16.3709C149.396 15.1364 148.254 14.4862 147.095 14.4732C145.932 14.4732 144.847 15.1638 143.917 16.5421C142.987 17.9203 142.212 19.6438 141.747 21.8838C141.205 23.7785 140.972 26.0185 140.972 28.4296C140.972 30.6696 141.282 32.9096 141.747 34.8074C142.29 36.8732 143.065 38.5967 143.995 39.6296C144.925 40.8367 146.01 41.5274 147.017 41.5274C148.18 41.5274 149.342 40.8367 150.427 39.4585C150.892 38.7709 151.512 38.4256 152.055 38.4256C152.83 38.4256 153.605 39.1132 154.07 40.4914C154.612 41.8696 154.922 43.5932 154.845 45.3167C154.808 46.5348 154.648 47.7154 154.379 48.7633C154.11 49.8112 153.738 50.697 153.295 51.3492Z" fill="#D20071"/>
</g>
</svg>
