<svg width="155" height="56" viewBox="0 0 155 56" fill="none" xmlns="http://www.w3.org/2000/svg">
<path d="M8.97807 50.4522C8.97807 52.5322 8.52683 53.9182 7.4812 54.9591C6.88215 55.653 5.98434 55.8265 4.78778 55.8265C3.29092 55.8265 2.24374 55.1326 1.34593 53.9182C0.647147 52.8219 0.278437 51.4794 0.298749 50.1053C0.298749 48.3704 0.599056 46.9844 1.49686 45.77C1.94499 45.2496 2.39311 44.731 2.84279 44.384C3.44185 44.037 4.04091 43.8636 4.78778 43.8636C5.53466 43.8636 6.13372 44.037 6.88215 44.2105C7.4812 44.384 7.92933 44.731 8.22963 45.2496C8.37901 45.4231 8.37901 45.5965 8.37901 45.77C8.37901 45.9435 8.37901 46.117 8.22808 46.2905C8.0787 46.464 7.92933 46.464 7.77995 46.464C7.63058 46.464 7.4812 46.464 7.33183 46.2905C6.88215 45.9435 6.5834 45.5965 6.28309 45.4231C5.83496 45.2496 5.53621 45.0761 4.93716 45.0761C3.88998 45.0761 2.99217 45.5965 2.39467 46.6374C1.90394 47.5735 1.64463 48.6542 1.64624 49.7565C1.64624 51.4913 2.09436 52.7057 2.84279 53.7447C3.29092 54.2652 3.88998 54.6121 4.63841 54.6121C5.08653 54.6121 5.68559 54.4387 6.13371 54.2652C7.18245 53.7447 7.77995 52.5303 7.77995 50.9708V50.4504H5.98434C5.68559 50.4504 5.38684 50.2787 5.38684 49.7583C5.38684 49.2378 5.53622 49.0644 5.98434 49.0644H8.22808C8.67776 49.0644 8.97651 49.5848 8.97651 50.2769V50.4522H8.97807ZM154.851 50.4522C154.851 52.5322 154.402 53.9182 153.355 54.9591C152.756 55.653 151.858 55.8265 150.662 55.8265C149.165 55.8265 148.118 55.1326 147.22 53.9182C146.522 52.8217 146.153 51.4793 146.173 50.1053C146.173 48.3704 146.473 46.9844 147.371 45.77C147.819 45.2496 148.269 44.731 148.717 44.384C149.321 44.0288 149.988 43.8503 150.662 43.8636C151.41 43.8636 152.008 44.037 152.756 44.2105C153.355 44.384 153.803 44.731 154.104 45.2496C154.253 45.4231 154.253 45.5965 154.253 45.77C154.253 45.9435 154.253 46.117 154.104 46.2905C153.953 46.464 153.803 46.464 153.654 46.464C153.505 46.464 153.355 46.464 153.206 46.2905C152.756 45.9435 152.458 45.5965 152.159 45.4231C151.709 45.2496 151.41 45.0761 150.811 45.0761C149.764 45.0761 148.866 45.5965 148.269 46.6374C147.778 47.5733 147.518 48.6541 147.52 49.7565C147.52 51.4913 147.968 52.7057 148.717 53.7447C149.165 54.2652 149.764 54.6121 150.513 54.6121C150.961 54.6121 151.56 54.4387 152.008 54.2652C153.055 53.7447 153.654 52.5303 153.654 50.9708V50.4504H151.858C151.56 50.4504 151.261 50.2787 151.261 49.7583C151.261 49.2378 151.41 49.0644 151.858 49.0644H154.104C154.701 49.0644 155 49.4113 155 50.1053V50.4522H154.851ZM70.768 54.9591C70.768 55.653 70.6186 55.9982 70.169 55.9982C69.8702 55.9982 69.5714 55.8265 69.5714 55.3061L68.3733 45.77L65.9802 55.3061C65.8308 55.653 65.6815 55.8265 65.3812 55.8265C65.0824 55.8265 64.7837 55.653 64.7837 55.3061L62.389 45.77L61.1924 55.3061C61.1924 55.8265 60.8937 56 60.4456 56C60.1453 56 59.8465 55.653 59.8465 55.1326V54.7856L61.3418 44.9026C61.3418 44.5557 61.4912 44.384 61.6406 44.2105C61.7915 44.037 62.0902 43.8636 62.2396 43.8636C62.5384 43.8636 62.6878 43.8636 62.8387 44.037C62.9881 44.2105 63.1374 44.384 63.1374 44.5575L65.2318 53.0526L67.3262 44.384C67.3262 44.2105 67.4755 44.037 67.6265 43.8636C67.7758 43.6901 67.9252 43.6901 68.224 43.6901C68.5227 43.6901 68.6736 43.6901 68.823 43.8636C68.9724 44.037 69.1218 44.2105 69.1218 44.5556L70.768 54.9591ZM94.1079 55.1326C94.1079 55.653 93.9585 56 93.5088 56C93.0607 56 92.9113 55.8265 92.9113 55.3061V44.9026C92.9113 44.384 93.0607 44.2105 93.5088 44.2105C93.9585 44.2105 94.1079 44.384 94.1079 44.9026V55.1326ZM124.18 55.1326C124.18 55.653 124.031 55.8265 123.581 55.8265C123.283 55.8265 123.133 55.653 122.833 55.3061L117.448 46.464V54.9591C117.448 55.4796 117.298 55.653 116.849 55.653C116.401 55.653 116.251 55.4796 116.251 54.9591V44.5556C116.251 44.037 116.401 43.8636 116.699 43.8636C116.998 43.8636 117.149 44.037 117.448 44.384L122.684 53.2243V44.731C122.684 44.5556 122.684 44.384 122.833 44.2105C122.984 44.037 123.133 44.037 123.283 44.037C123.731 44.037 123.88 44.2105 123.88 44.731V55.1326H124.18ZM38.601 55.3061C38.601 55.653 38.4516 55.8265 38.002 55.8265C37.8526 55.8265 37.7032 55.8265 37.5538 55.653C37.4045 55.653 37.4045 55.653 37.4045 55.4796L36.8054 53.3996H32.1685L31.2692 55.4796C31.1198 55.8265 30.9704 56 30.6717 56C30.3714 56 30.0726 55.8265 30.0726 55.4796V55.1326L33.3636 45.0761C33.5129 44.7291 33.5129 44.5556 33.6639 44.384C33.8132 44.2105 33.9626 44.2105 34.112 44.2105C34.2614 44.2105 34.4107 44.2105 34.711 44.384C34.8604 44.5556 35.0098 44.731 35.0098 45.0761L38.3007 55.1326C38.601 55.1326 38.601 55.3061 38.601 55.3061ZM36.3557 52.0117L34.4107 45.5966L32.3164 52.0117H36.3557ZM129.865 9.36256C132.096 9.36256 133.905 7.26599 133.905 4.68036C133.905 2.09656 132.096 0 129.865 0C127.635 0 125.825 2.09656 125.825 4.68036C125.825 7.26599 127.635 9.36256 129.865 9.36256ZM155 4.68036C155 7.2826 153.204 9.36256 150.961 9.36256C148.717 9.36256 146.921 7.28076 146.921 4.68036C146.921 2.07995 148.717 0 150.961 0C153.204 0 155 2.07995 155 4.68036ZM129.865 32.2476C132.096 32.2476 133.905 30.151 133.905 27.5654C133.905 24.9816 132.096 22.885 129.865 22.885C127.635 22.885 125.825 24.9816 125.825 27.5654C125.825 30.151 127.635 32.2476 129.865 32.2476ZM155 27.5672C155 30.1676 153.206 32.2476 150.961 32.2476C148.717 32.2476 146.921 30.1676 146.921 27.5672C146.921 24.965 148.717 22.885 150.961 22.885C153.206 22.885 155 24.9668 155 27.5672ZM144.528 16.1247C144.528 18.7251 142.733 20.8051 140.489 20.8051C138.244 20.8051 136.448 18.7251 136.448 16.1247C136.448 13.5225 138.244 11.4425 140.489 11.4425C142.733 11.4425 144.528 13.5243 144.528 16.1247ZM119.092 31.2085L107.872 0.520449C107.723 0.173482 107.573 0 107.273 0H102.485C102.187 0 102.037 0.173482 101.888 0.520449L90.5166 31.2067V31.3802C90.5166 31.7271 90.666 31.9006 90.9648 31.9006H96.0529C96.3516 31.9006 96.501 31.7271 96.6504 31.3802L99.045 24.271H111.014L113.408 31.3802C113.558 31.7271 113.707 31.9006 114.006 31.9006H119.092C119.393 31.9006 119.542 31.7271 119.542 31.3802C119.243 31.3802 119.243 31.2085 119.092 31.2085ZM100.691 18.7233L104.88 6.41334L109.069 18.7233H100.691ZM39.3479 9.883C39.6482 8.66862 40.0963 8.14817 40.0963 8.14817C40.0963 8.14817 40.6954 6.93564 42.0413 6.2417C43.3888 5.54777 44.5854 5.54777 44.5854 5.54777H54.609C54.9094 5.54777 55.2081 5.2008 55.2081 4.85384V0.693933C55.2081 0.346967 54.9078 0 54.609 0H43.5382C37.4029 0 32.4657 6.2417 32.4657 13.8694V18.3781C32.4657 26.0059 37.4029 32.2476 43.5382 32.2476H54.609C54.9094 32.2476 55.2081 31.9006 55.2081 31.5536V27.2184C55.2081 26.8733 54.9078 26.5263 54.609 26.5263H44.5854C44.5854 26.5263 43.2379 26.5263 42.0413 25.8324C40.6954 25.1385 40.0963 23.9259 40.0963 23.9259C40.0963 23.9259 39.6482 23.232 39.3494 22.1911C39.0491 20.9785 39.0491 19.4172 39.0491 19.4172V18.7233H54.609C54.9094 18.7233 55.2081 18.3781 55.2081 18.0312V13.6941C55.2081 13.3471 54.9078 13.002 54.609 13.002H39.0491V12.655C39.0491 12.655 39.1985 11.0937 39.3494 9.88116L39.3479 9.883ZM73.7602 31.9006H82.8861C83.1848 31.9006 83.3357 31.5536 83.3357 31.2067V26.8733C83.3357 26.5263 83.1848 26.1793 82.8861 26.1793H74.658C74.658 26.1793 73.6108 26.1794 72.5636 25.4854C71.5149 24.7915 70.9174 23.5789 70.9174 23.5789C70.9174 23.5789 70.3183 22.885 70.3183 21.6706V0.520449C70.3183 0.173482 70.169 0 69.8702 0H65.0824C64.7837 0 64.4834 0.346967 64.4834 0.693933V21.8441C64.6343 27.3919 68.6736 31.9006 73.7602 31.9006ZM24.6858 31.2067L18.2533 18.7233C21.5442 17.8558 23.788 15.2573 23.788 9.53604C23.9389 1.90647 19.4499 0.173483 13.9137 0H0.599057C0.298751 0 0 0.346967 0 0.693933V31.3802C0 31.7271 0.298751 32.0741 0.599057 32.0741H5.38528C5.68559 32.0741 5.98434 31.7271 5.98434 31.3802V19.4172H12.7171L18.7015 31.5536C18.7731 31.7143 18.8811 31.8481 19.0133 31.94C19.1455 32.032 19.2967 32.0784 19.4499 32.0741H24.538C24.8352 32.0741 24.9861 31.9006 24.9861 31.5536C24.6858 31.3802 24.6858 31.2067 24.6858 31.2067ZM14.063 13.6959L12.5677 13.8694H5.83496V5.72125H14.063C17.2061 5.72125 18.1039 7.45609 18.1039 9.70768C17.9546 11.963 17.0568 13.6959 14.0646 13.6959H14.063Z" fill="white"/>
</svg>
