<svg fill="none" viewBox="0 0 150 56" id="providers--relaxgaming" xmlns="http://www.w3.org/2000/svg"><path d="M30.77 40.337c0 1.127-.29 1.878-.962 2.442-.385.376-.962.47-1.731.47-.962 0-1.635-.376-2.212-1.034a3.329 3.329 0 01-.673-2.066c0-.94.193-1.691.77-2.349.288-.282.576-.563.865-.751.385-.188.77-.282 1.25-.282s.865.094 1.346.188c.385.094.673.282.866.563.096.094.096.188.096.282 0 .094 0 .188-.097.282-.096.094-.192.094-.288.094-.096 0-.192 0-.288-.094-.289-.188-.481-.376-.674-.47-.288-.094-.48-.188-.865-.188-.673 0-1.25.282-1.634.846a3.19 3.19 0 00-.481 1.69c0 .94.288 1.598.769 2.161.288.282.673.47 1.154.47.288 0 .673-.094.961-.188.674-.282 1.058-.94 1.058-1.785v-.282h-1.154c-.192 0-.384-.093-.384-.375 0-.282.096-.376.384-.376h1.442c.289 0 .481.282.481.657v.095zm93.749 0c0 1.127-.288 1.878-.961 2.442-.385.376-.962.47-1.731.47-.962 0-1.635-.376-2.212-1.034a3.333 3.333 0 01-.673-2.066c0-.94.193-1.691.77-2.349.288-.282.577-.563.865-.751a2.713 2.713 0 011.25-.282c.481 0 .865.094 1.346.188.385.094.673.282.866.563.096.094.096.188.096.282 0 .094 0 .188-.096.282-.097.094-.193.094-.289.094-.096 0-.192 0-.288-.094-.289-.188-.481-.376-.673-.47-.289-.094-.481-.188-.866-.188-.673 0-1.25.282-1.634.846a3.184 3.184 0 00-.481 1.69c0 .94.288 1.598.769 2.161.288.282.673.47 1.154.47.288 0 .673-.094.961-.188.673-.282 1.058-.94 1.058-1.785v-.282h-1.154c-.192 0-.384-.093-.384-.375 0-.282.096-.376.384-.376h1.443c.384 0 .576.188.576.564v.188h-.096zm-54.038 2.442c0 .376-.096.563-.385.563-.192 0-.384-.093-.384-.375l-.77-5.167-1.538 5.167c-.096.188-.192.282-.385.282-.192 0-.384-.094-.384-.282L65.096 37.8l-.769 5.167c0 .282-.192.376-.48.376-.193 0-.385-.188-.385-.47v-.188l.961-5.355c0-.188.096-.281.192-.375.097-.094.289-.188.385-.188.192 0 .288 0 .385.094.096.094.192.188.192.282l1.346 4.603 1.346-4.697c0-.094.096-.188.193-.282.096-.094.192-.094.384-.094s.289 0 .385.094c.096.094.192.188.192.375l1.058 5.637zm15 .094c0 .282-.096.47-.385.47-.288 0-.384-.094-.384-.376V37.33c0-.281.096-.375.384-.375.289 0 .385.094.385.375v5.543zm19.327 0c0 .282-.096.376-.385.376-.192 0-.288-.094-.481-.282l-3.461-4.791v4.603c0 .282-.096.376-.385.376-.288 0-.384-.094-.384-.376v-5.637c0-.281.096-.375.288-.375.192 0 .289.094.481.282l3.365 4.79v-4.602c0-.095 0-.188.096-.282.097-.094.193-.094.289-.094.288 0 .384.094.384.376v5.636h.193zm-55 .094c0 .188-.096.282-.385.282-.096 0-.192 0-.288-.094-.096 0-.096 0-.096-.094l-.385-1.127h-2.98l-.578 1.127c-.096.188-.192.282-.384.282-.193 0-.385-.094-.385-.282v-.188l2.115-5.449c.096-.188.096-.282.193-.375.096-.094.192-.094.288-.094.096 0 .192 0 .385.094.096.093.192.188.192.375l2.115 5.449c.193 0 .193.094.193.094zm-1.443-1.785l-1.25-3.476-1.346 3.476h2.596zM108.461 18.073c1.434 0 2.597-1.136 2.597-2.537 0-1.4-1.163-2.536-2.597-2.536-1.433 0-2.596 1.136-2.596 2.536 0 1.401 1.163 2.537 2.596 2.537zM124.615 15.536c0 1.41-1.154 2.537-2.596 2.537-1.442 0-2.596-1.128-2.596-2.537S120.577 13 122.019 13c1.442 0 2.596 1.127 2.596 2.536zM108.461 30.473c1.434 0 2.597-1.136 2.597-2.537 0-1.4-1.163-2.536-2.597-2.536-1.433 0-2.596 1.136-2.596 2.536 0 1.401 1.163 2.537 2.596 2.537zM124.615 27.937c0 1.409-1.153 2.536-2.596 2.536-1.442 0-2.596-1.127-2.596-2.536 0-1.41 1.154-2.537 2.596-2.537 1.443 0 2.596 1.128 2.596 2.537zm-6.73-6.2c0 1.409-1.154 2.536-2.596 2.536-1.443 0-2.597-1.127-2.597-2.536 0-1.41 1.154-2.537 2.597-2.537 1.442 0 2.596 1.128 2.596 2.537zM101.538 29.91l-7.211-16.628c-.096-.188-.192-.282-.385-.282h-3.077c-.192 0-.288.094-.384.282l-7.308 16.627v.094c0 .188.096.282.288.282h3.27c.192 0 .288-.094.384-.282l1.539-3.852h7.692l1.539 3.852c.096.188.192.282.384.282h3.269c.193 0 .289-.094.289-.282-.192 0-.192-.094-.289-.094zm-11.826-6.765l2.692-6.67 2.692 6.67h-5.385zm-39.424-4.79c.193-.658.481-.94.481-.94s.385-.657 1.25-1.033c.866-.376 1.635-.376 1.635-.376h6.442c.193 0 .385-.188.385-.376v-2.254c0-.188-.193-.376-.385-.376h-7.115c-3.943 0-7.116 3.382-7.116 7.515v2.443c0 4.133 3.173 7.515 7.116 7.515h7.115c.193 0 .385-.188.385-.376v-2.349c0-.187-.193-.375-.385-.375h-6.442s-.866 0-1.635-.376c-.865-.376-1.25-1.033-1.25-1.033s-.288-.376-.48-.94c-.193-.657-.193-1.503-.193-1.503v-.376h10c.193 0 .385-.187.385-.375V20.42c0-.188-.193-.375-.385-.375h-10v-.188s.096-.846.193-1.503zm22.116 11.93h5.865c.192 0 .289-.188.289-.376v-2.348c0-.188-.097-.376-.289-.376h-5.288s-.673 0-1.346-.376c-.674-.376-1.058-1.033-1.058-1.033s-.385-.376-.385-1.034v-11.46c0-.188-.096-.282-.288-.282h-3.077c-.192 0-.385.188-.385.376v11.46c.097 3.006 2.693 5.449 5.962 5.449zm-31.539-.376l-4.134-6.764c2.115-.47 3.557-1.878 3.557-4.978.097-4.134-2.788-5.073-6.346-5.167h-8.557c-.193 0-.385.188-.385.376v16.627c0 .188.192.376.385.376h3.076c.193 0 .385-.188.385-.376v-6.482h4.327l3.846 6.576a.53.53 0 00.481.282h3.27c.191 0 .288-.094.288-.282-.193-.094-.193-.188-.193-.188zm-6.827-9.488l-.961.094H28.75V16.1h5.288c2.02 0 2.597.94 2.597 2.16-.096 1.222-.673 2.161-2.596 2.161z" fill="#fff"></path></svg>