<svg fill="none" viewBox="0 0 150 56" id="providers--revolvergaming" xmlns="http://www.w3.org/2000/svg"><g clip-path="url(#huclip0_7303_43855)" fill="#fff"><path d="M65.874 35.633H63.39l-2.646-7.42v-1.44h2.376V21.7h-3.024v13.88h-2.43V19.725h6.372c.972 0 1.458.48 1.458 1.441v5.819c0 .694-.216 1.12-.702 1.28a7.41 7.41 0 01-1.566.161l2.646 7.206zM74.028 35.633h-6.696V19.726h6.642v2.135h-4.212v4.644h3.618v2.082h-3.618v5.018h4.266v2.029zM83.694 19.726l-3.078 15.96H78.24l-3.078-15.96h2.43l1.728 10.89c0 .32.054.747.054 1.388 0-.48 0-.908.054-1.388l1.836-10.943h2.43v.053zM93.144 34.192c0 .961-.486 1.441-1.458 1.441h-5.238c-.972 0-1.458-.48-1.404-1.44V21.166c0-.96.486-1.441 1.404-1.441h5.238c.972 0 1.458.48 1.458 1.441v13.025zm-2.376-.587v-11.85H87.42v11.85h3.348zM101.406 35.633h-6.318V19.726h2.43v13.826h3.942l-.054 2.081zM110.856 19.726l-3.078 15.96h-2.376l-3.078-15.96h2.43l1.782 10.943c0 .32.054.747.054 1.388 0-.32 0-.747.054-1.388l1.836-10.943h2.376zM118.902 35.633h-6.642V19.726h6.642v2.135h-4.212v4.644h3.618v2.082h-3.618v5.018h4.266l-.054 2.029zM128.784 35.633H126.3l-2.646-7.42v-1.44h2.376V21.7h-3.024v13.88h-2.43V19.725h6.372c.972 0 1.458.48 1.458 1.441v5.819c0 .694-.216 1.12-.702 1.28-.486.161-1.026.161-1.566.161l2.646 7.206zM93.36 40.705h-1.404v-.801h2.484v1.334c0 .267-.108.48-.324.641-.216.16-.54.267-.81.267h-2.484a1.3 1.3 0 01-.756-.267.758.758 0 01-.324-.64v-2.082c0-.267.108-.48.324-.641a1.3 1.3 0 01.756-.267h2.484c.324 0 .594.107.81.267.216.16.324.374.324.64v.374h-1.08a.367.367 0 00-.378-.373h-1.62a.617.617 0 00-.432.16.482.482 0 00-.162.373v1.068c0 .16.054.32.162.374.108.107.27.16.432.16h1.62a.297.297 0 00.27-.16c.108-.16.108-.32.108-.427zM96.87 42.146l1.944-3.897h1.674l1.944 3.897h-1.188l-.378-.747h-2.43l-.378.747H96.87zm3.618-1.548l-.81-1.708-.81 1.708h1.62zM104.7 42.146v-3.897h1.89l1.188 2.509 1.188-2.509h1.89v3.897h-1.08V38.89l-1.512 3.256h-.918l-1.566-3.31v3.31h-1.08zM113.232 42.146v-3.897h1.08v3.897h-1.08zM116.796 42.146v-3.897h1.836l2.16 3.15v-3.15h1.08v3.897h-1.836l-2.16-3.15v3.15h-1.08zM127.92 40.705h-1.404v-.801H129v1.334c0 .267-.108.48-.324.641-.216.16-.54.267-.81.267h-2.484a1.3 1.3 0 01-.756-.267.758.758 0 01-.324-.64v-2.082c0-.267.108-.48.324-.641a1.3 1.3 0 01.756-.267h2.484c.324 0 .594.107.81.267.216.16.324.374.324.64v.374h-1.08a.367.367 0 00-.378-.373h-1.62a.617.617 0 00-.432.16.482.482 0 00-.162.373v1.068c0 .16.054.32.162.374.108.107.27.16.432.16h1.62a.297.297 0 00.27-.16c.108-.16.108-.32.108-.427zM33.474 13.48c2.268-.64 4.644-.64 6.858 0 2.214 4.11 6.318 7.047 10.908 8.114.756 1.708 1.566 3.47 1.566 5.338-3.24 3.47-4.914 8.274-4.32 12.972-1.296 1.12-2.646 2.242-4.266 2.99-.54.266-1.08-.108-1.62-.268-1.296-.533-2.7-.8-4.104-.96-.972-.107-1.89-.16-2.862-.054-.702.16-1.458.267-2.214.32-1.188.267-2.322.908-3.51 1.068-1.566-.694-3.024-1.655-4.212-2.883.432-4.91-1.026-10.035-4.698-13.451.324-1.762.756-3.524 1.674-5.072.594-.373 1.35-.48 1.998-.747 3.726-1.228 6.858-4.004 8.802-7.367zm-6.48 9.289c-2.43 3.683-2.43 8.808.108 12.437 1.458 2.242 3.78 3.897 6.372 4.751a13.78 13.78 0 006.912 0c4.266-1.334 7.722-5.124 8.208-9.608.864-5.712-3.294-11.477-8.91-12.705-4.752-1.174-10.098 1.014-12.69 5.125z"></path><path d="M36.498 34.352H34.77l-1.89-5.178V28.16h1.62v-3.523h-2.106v9.715H30.72v-11.05h4.428c.648 0 1.026.32 1.026 1.015v4.003c0 .48-.162.748-.486.908-.378.106-.702.106-1.08.106l1.89 5.018zM43.032 33.338c0 .694-.324 1.014-1.026 1.014h-3.51c-.648 0-.972-.32-.972-1.014v-9.021c0-.694.324-1.015 1.026-1.015h3.51c.702 0 1.026.32 1.026 1.015v2.349h-1.674V24.69h-2.16v8.221h2.16v-3.096H40.17v-1.388h2.916v4.911h-.054z"></path></g></svg>