<svg width="155" height="56" viewBox="0 0 155 56" fill="none" xmlns="http://www.w3.org/2000/svg">
<mask id="mask0_3_1217" style="mask-type:luminance" maskUnits="userSpaceOnUse" x="0" y="0" width="155" height="56">
<path d="M0 0H155V56H0V0Z" fill="white"/>
</mask>
<g mask="url(#mask0_3_1217)">
<path d="M64.4025 42.2483H60.8375L57.04 28.3976V25.7096H60.45V16.24H56.11V42.1493H52.6225V12.5533H61.7675C63.1625 12.5533 63.86 13.4493 63.86 15.2432V26.1053C63.86 27.4008 63.55 28.196 62.8525 28.4947C62.1137 28.6984 61.3602 28.7991 60.605 28.7952L64.4025 42.2483ZM76.105 42.2483H66.495V12.5552H76.0275V16.5405H69.9825V25.2093H75.175V29.0957H69.9825V38.4627H76.105V42.2483ZM89.9775 12.5552L85.56 42.3472H82.15L77.7325 12.5552H81.22L83.7 32.8832C83.7 33.4805 83.7775 34.2776 83.7775 35.4741C83.7775 34.5781 83.7775 33.7792 83.855 32.8832L86.49 12.4563H89.9775V12.5552ZM103.54 39.5584C103.54 41.3523 102.842 42.2483 101.447 42.2483H93.93C92.535 42.2483 91.8375 41.3523 91.915 39.5603V15.2432C91.915 13.4512 92.6125 12.5533 93.93 12.5533H101.447C102.842 12.5533 103.54 13.4493 103.54 15.2432V39.5584ZM100.13 38.4627V16.3427H95.325V38.4627H100.13ZM115.397 42.2483H106.33V12.5552H109.817V38.3637H115.475L115.397 42.2483ZM128.96 12.5552L124.543 42.3472H121.133L116.715 12.5552H120.202L122.76 32.9821C122.76 33.5795 122.837 34.3765 122.837 35.5731C122.837 34.9757 122.837 34.1787 122.915 32.9821L125.55 12.5552H128.96ZM140.508 42.2483H130.975V12.5552H140.508V16.5405H134.463V25.2093H139.655V29.0957H134.463V38.4627H140.585L140.508 42.2483ZM154.69 42.2483H151.125L147.327 28.3976V25.7096H150.737V16.24H146.397V42.1493H142.91V12.5533H152.055C153.45 12.5533 154.148 13.4493 154.148 15.2432V26.1053C154.148 27.4008 153.838 28.196 153.14 28.4947C152.443 28.7952 151.668 28.7952 150.893 28.7952L154.69 42.2483ZM103.85 51.716H101.835V50.2208H105.4V52.7109C105.4 53.2093 105.245 53.6069 104.935 53.9075C104.625 54.2061 104.16 54.4059 103.773 54.4059H100.207C99.8145 54.3926 99.4348 54.2181 99.1225 53.9075C98.9752 53.7738 98.8556 53.5947 98.7745 53.3862C98.6933 53.1777 98.6531 52.9464 98.6575 52.7128V48.8264C98.6575 48.328 98.8125 47.9304 99.1225 47.6299C99.4348 47.3192 99.8145 47.1448 100.207 47.1315H103.773C104.238 47.1315 104.625 47.3312 104.935 47.6299C105.245 47.9285 105.4 48.328 105.4 48.8245V49.5227H103.85C103.851 49.43 103.838 49.338 103.811 49.2522C103.784 49.1664 103.744 49.0886 103.693 49.0235C103.643 48.9584 103.582 48.9074 103.516 48.8735C103.45 48.8396 103.379 48.8236 103.308 48.8264H100.982C100.754 48.8181 100.532 48.9251 100.363 49.1251C100.287 49.2121 100.227 49.3195 100.187 49.4398C100.147 49.56 100.127 49.6903 100.13 49.8213V51.8149C100.13 52.1136 100.208 52.4123 100.363 52.5131C100.518 52.7128 100.75 52.8117 100.982 52.8117H103.308C103.387 52.814 103.466 52.7872 103.534 52.7344C103.603 52.6816 103.658 52.6049 103.695 52.5131C103.85 52.2144 103.85 51.9157 103.85 51.716ZM108.888 54.4059L111.678 47.1315H114.08L116.87 54.4059H115.165L114.622 53.0115H111.135L110.592 54.4059H108.888ZM114.08 51.5163L112.918 48.328L111.755 51.5163H114.08ZM120.125 54.4059V47.1315H122.837L124.543 51.8149L126.248 47.1315H128.96V54.4059H127.41V48.328L125.24 54.4059H123.923L121.675 48.2272V54.4059H120.125ZM132.37 54.4059V47.1315H133.92V54.4059H132.37ZM137.485 54.4059V47.1315H140.12L143.22 53.0115V47.1315H144.77V54.4059H142.135L139.035 48.5259V54.4059H137.485ZM153.45 51.716H151.435V50.2208H155V52.7109C155 53.2093 154.845 53.6069 154.535 53.9075C154.225 54.2061 153.76 54.4059 153.372 54.4059H149.808C149.415 54.3926 149.035 54.2181 148.723 53.9075C148.575 53.7738 148.456 53.5947 148.374 53.3862C148.293 53.1777 148.253 52.9464 148.258 52.7128V48.8264C148.258 48.328 148.413 47.9304 148.723 47.6299C149.035 47.3192 149.415 47.1448 149.808 47.1315H153.372C153.837 47.1315 154.225 47.3312 154.535 47.6299C154.845 47.9285 155 48.328 155 48.8245V49.5227H153.45C153.451 49.43 153.438 49.338 153.411 49.2522C153.384 49.1664 153.344 49.0886 153.293 49.0235C153.243 48.9584 153.182 48.9074 153.116 48.8735C153.05 48.8396 152.979 48.8236 152.908 48.8264H150.582C150.354 48.8181 150.132 48.9251 149.962 49.1251C149.887 49.2121 149.827 49.3195 149.787 49.4398C149.747 49.56 149.727 49.6903 149.73 49.8213V51.8149C149.73 52.1136 149.807 52.4123 149.962 52.5131C150.117 52.7128 150.35 52.8117 150.582 52.8117H152.908C152.987 52.814 153.066 52.7872 153.134 52.7344C153.203 52.6816 153.258 52.6049 153.295 52.5131C153.45 52.2144 153.45 51.9157 153.45 51.716ZM17.9025 0.896C21.1575 -0.298667 24.5675 -0.298667 27.745 0.896C30.9225 8.568 36.8125 14.0504 43.4 16.0421C44.485 19.2304 45.6475 22.5195 45.6475 26.0064C40.9975 32.4837 38.595 41.4512 39.4475 50.2208C37.5875 52.3115 35.65 54.4059 33.325 55.8021C32.55 56.2987 31.775 55.6005 31 55.3019C29.14 54.3069 27.125 53.8085 25.11 53.5099C23.715 53.3101 22.3975 53.2112 21.0025 53.4091C19.995 53.7077 18.91 53.9075 17.825 54.0064C16.12 54.5048 14.4925 55.7013 12.7875 56C10.54 54.7045 8.4475 52.9107 6.7425 50.6184C7.3625 41.4531 5.27 31.8864 0 25.5099C0.465 22.2208 1.085 18.9317 2.4025 16.0421C3.255 15.3459 4.34 15.1461 5.27 14.6477C10.6175 12.3555 15.1125 7.1736 17.9025 0.896ZM8.6025 18.2355C5.115 25.1104 5.115 34.6771 8.7575 41.4512C10.85 45.6363 14.1825 48.7256 17.9025 50.3197C21.1555 51.4159 24.5695 51.4159 27.8225 50.3197C33.945 47.8296 38.905 40.7549 39.6025 32.3848C40.8425 21.7224 34.875 10.9611 26.815 8.6688C19.995 6.47733 12.3225 10.5616 8.6025 18.2355Z" fill="white"/>
<path d="M22.2425 39.8571H19.7625L17.05 30.1915V28.2987H19.375V21.7225H16.3525V39.8571H13.95V19.2305H20.305C21.235 19.2305 21.7775 19.8278 21.7775 21.1251V28.5974C21.7775 29.4934 21.545 29.9937 21.08 30.2923C20.5375 30.4902 20.0725 30.4902 19.53 30.4902L22.2425 39.8571ZM31.62 37.9643C31.62 39.2598 31.155 39.8571 30.1475 39.8571H25.1099C24.1799 39.8571 23.7149 39.2598 23.7149 37.9643V21.1251C23.7149 19.8297 24.18 19.2305 25.1875 19.2305H30.225C31.2325 19.2305 31.6975 19.8278 31.6975 21.1251V25.5099H29.295V21.8214H26.195V37.1673H29.295V31.3881H27.5124V28.7971H31.6975V37.9643H31.62Z" fill="white"/>
</g>
</svg>
