<svg width="36" height="36" viewBox="0 0 36 36" fill="none" xmlns="http://www.w3.org/2000/svg">
<mask id="mask0_6_1796" style="mask-type:luminance" maskUnits="userSpaceOnUse" x="0" y="0" width="36" height="36">
<path d="M0 0H36V36H0V0Z" fill="white"/>
</mask>
<g mask="url(#mask0_6_1796)">
<path d="M28.077 32.888L25.252 33.225L23.548 35.502C23.425 35.6666 23.263 35.798 23.0767 35.8845C22.8904 35.9711 22.6854 36.01 22.4804 35.9978C22.2753 35.9856 22.0764 35.9227 21.9016 35.8147C21.7269 35.7067 21.5816 35.557 21.479 35.379L13.11 20.884L20.636 16.539L29.005 31.034C29.1079 31.2119 29.1651 31.4126 29.1713 31.6181C29.1776 31.8235 29.1326 32.0273 29.0406 32.2111C28.9486 32.3949 28.8124 32.553 28.6442 32.6711C28.476 32.7893 28.2811 32.8638 28.077 32.888Z" fill="#FF6464"/>
<path d="M24.321 31.612C24.2504 31.6529 24.1725 31.6794 24.0916 31.6901C24.0108 31.7008 23.9286 31.6955 23.8499 31.6744C23.7711 31.6533 23.6973 31.6169 23.6326 31.5673C23.5679 31.5176 23.5137 31.4557 23.473 31.385L17.267 20.635C17.2261 20.5644 17.1996 20.4865 17.1889 20.4056C17.1781 20.3248 17.1834 20.2426 17.2045 20.1638C17.247 20.0047 17.3509 19.869 17.4935 19.7865C17.636 19.704 17.8055 19.6815 17.9646 19.724C18.1237 19.7665 18.2595 19.8704 18.342 20.013L24.548 30.764C24.5888 30.8346 24.6154 30.9125 24.6261 30.9933C24.6368 31.0742 24.6315 31.1563 24.6104 31.2351C24.5893 31.3139 24.5529 31.3877 24.5032 31.4524C24.4536 31.517 24.3916 31.5713 24.321 31.612Z" fill="#D2555A"/>
<path d="M7.92292 32.888L10.7479 33.225L12.4519 35.502C12.5749 35.6666 12.7369 35.798 12.9232 35.8845C13.1095 35.9711 13.3145 36.01 13.5195 35.9978C13.7246 35.9856 13.9235 35.9227 14.0983 35.8147C14.273 35.7067 14.4183 35.557 14.5209 35.379L22.8899 20.884L15.3639 16.539L6.99492 31.034C6.89196 31.2119 6.8348 31.4126 6.82857 31.6181C6.82235 31.8235 6.86725 32.0273 6.95926 32.2111C7.05126 32.3949 7.18748 32.553 7.35568 32.6711C7.52388 32.7893 7.7188 32.8638 7.92292 32.888Z" fill="#FF6464"/>
<path d="M10.9369 24.207L10.1339 25.597C10.2363 25.6184 10.3346 25.6562 10.4249 25.709C10.8849 25.999 11.0419 26.841 11.5349 27.079C12.0229 27.315 12.7789 26.913 13.2959 27.094C13.8069 27.273 14.1489 28.059 14.6839 28.181C15.2109 28.301 15.8579 27.741 16.4049 27.801C16.9409 27.861 17.4479 28.551 17.9999 28.551C18.5519 28.551 19.0599 27.861 19.5949 27.801C20.1409 27.741 20.7889 28.301 21.3149 28.181C21.8509 28.06 22.1919 27.273 22.7019 27.095C23.2189 26.914 23.9759 27.315 24.4639 27.08C24.9569 26.842 25.1139 26 25.5739 25.71C25.6646 25.6572 25.7632 25.6193 25.8659 25.598L25.0629 24.207H10.9369Z" fill="#D2555A"/>
<path d="M11.6789 31.612C11.7495 31.6527 11.8273 31.6791 11.908 31.6898C11.9888 31.7004 12.0708 31.695 12.1495 31.6739C12.2281 31.6529 12.3018 31.6165 12.3664 31.5669C12.431 31.5173 12.4852 31.4555 12.5259 31.385L18.7329 20.635C18.8154 20.4924 18.8379 20.323 18.7954 20.1638C18.7529 20.0047 18.649 19.869 18.5064 19.7865C18.3639 19.704 18.1944 19.6815 18.0353 19.724C17.8762 19.7665 17.7404 19.8704 17.6579 20.013L11.4509 30.764C11.4101 30.8346 11.3836 30.9126 11.373 30.9935C11.3623 31.0744 11.3678 31.1565 11.3889 31.2353C11.4101 31.3141 11.4466 31.3879 11.4964 31.4526C11.5462 31.5172 11.6082 31.5714 11.6789 31.612Z" fill="#D2555A"/>
<path d="M31.655 13.655C31.655 14.161 31.022 14.626 30.967 15.117C30.912 15.618 31.425 16.212 31.316 16.695C31.204 17.185 30.483 17.498 30.319 17.967C30.153 18.441 30.521 19.135 30.305 19.582C30.087 20.034 29.315 20.177 29.049 20.599C28.783 21.022 28.987 21.78 28.676 22.17C28.364 22.56 27.579 22.53 27.226 22.882C26.873 23.235 26.904 24.02 26.514 24.332C26.124 24.643 25.366 24.439 24.942 24.705C24.521 24.971 24.377 25.743 23.926 25.961C23.478 26.177 22.784 25.809 22.311 25.975C21.842 26.138 21.53 26.859 21.039 26.971C20.556 27.081 19.963 26.567 19.462 26.622C18.971 26.677 18.506 27.31 18 27.31C17.494 27.31 17.029 26.677 16.538 26.622C16.037 26.567 15.443 27.081 14.96 26.971C14.47 26.859 14.157 26.138 13.688 25.974C13.214 25.808 12.521 26.176 12.073 25.96C11.622 25.742 11.478 24.97 11.057 24.705C10.633 24.438 9.87497 24.642 9.48497 24.331C9.09497 24.019 9.12597 23.234 8.77297 22.881C8.41997 22.528 7.63497 22.559 7.32297 22.169C7.01297 21.779 7.21597 21.021 6.94997 20.597C6.68397 20.176 5.91197 20.032 5.69397 19.581C5.47797 19.133 5.84597 18.44 5.68097 17.966C5.51697 17.497 4.79597 17.185 4.68397 16.694C4.57397 16.212 5.08897 15.618 5.03297 15.117C4.97797 14.626 4.34497 14.161 4.34497 13.655C4.34497 13.15 4.97797 12.685 5.03297 12.193C5.08897 11.692 4.57497 11.098 4.68497 10.615C4.79597 10.125 5.51697 9.812 5.68097 9.343C5.84697 8.87 5.47897 8.176 5.69497 7.728C5.91297 7.277 6.68497 7.133 6.94997 6.712C7.21697 6.288 7.01297 5.53 7.32397 5.14C7.63597 4.75 8.42097 4.781 8.77397 4.428C9.12697 4.075 9.09597 3.29 9.48597 2.978C9.87597 2.668 10.634 2.872 11.058 2.605C11.479 2.34 11.623 1.567 12.074 1.35C12.522 1.134 13.216 1.502 13.689 1.336C14.158 1.172 14.47 0.451 14.961 0.34C15.443 0.23 16.037 0.744 16.538 0.688C17.03 0.633 17.495 0 18 0C18.506 0 18.971 0.633 19.462 0.688C19.963 0.744 20.557 0.23 21.04 0.34C21.53 0.451 21.843 1.172 22.312 1.336C22.786 1.502 23.479 1.134 23.927 1.35C24.378 1.568 24.522 2.34 24.943 2.606C25.367 2.872 26.125 2.668 26.515 2.979C26.905 3.291 26.875 4.076 27.227 4.429C27.58 4.782 28.365 4.751 28.677 5.142C28.987 5.532 28.784 6.29 29.05 6.712C29.316 7.134 30.088 7.278 30.306 7.729C30.522 8.177 30.154 8.871 30.32 9.345C30.483 9.813 31.204 10.125 31.316 10.615C31.426 11.099 30.911 11.692 30.967 12.193C31.022 12.684 31.655 13.15 31.655 13.655Z" fill="#FFD782"/>
<path d="M18 25.448C11.497 25.448 6.20703 20.158 6.20703 13.655C6.20703 7.152 11.497 1.862 18 1.862C24.503 1.862 29.793 7.152 29.793 13.655C29.793 20.158 24.503 25.448 18 25.448ZM18 3.103C12.182 3.103 7.44803 7.837 7.44803 13.655C7.44803 19.473 12.182 24.207 18 24.207C23.818 24.207 28.552 19.473 28.552 13.655C28.552 7.837 23.818 3.103 18 3.103Z" fill="#FFC36E"/>
<path d="M17.9999 22.965C20.4691 22.965 22.8371 21.9841 24.5831 20.2382C26.3291 18.4922 27.3099 16.1242 27.3099 13.655C27.3099 11.1858 26.3291 8.8178 24.5831 7.07184C22.8371 5.32587 20.4691 4.345 17.9999 4.345C15.5308 4.345 13.1627 5.32587 11.4168 7.07184C9.67081 8.8178 8.68994 11.1858 8.68994 13.655C8.68994 16.1242 9.67081 18.4922 11.4168 20.2382C13.1627 21.9841 15.5308 22.965 17.9999 22.965Z" fill="#FFE3A8"/>
<path d="M22.1799 16.097C22.1799 14.498 21.2399 13.515 19.3049 13.092L18.6279 12.959V9.509C18.6479 9.509 18.6659 9.505 18.6859 9.509C19.2989 9.636 19.7959 10.001 20.0489 10.509C20.118 10.6475 20.2239 10.7643 20.3549 10.8466C20.4859 10.929 20.637 10.9738 20.7918 10.9761C20.9465 10.9783 21.0989 10.938 21.2322 10.8595C21.3656 10.781 21.4748 10.6674 21.5479 10.531C21.6192 10.4061 21.6552 10.2642 21.652 10.1205C21.6488 9.97678 21.6066 9.83661 21.5299 9.715C20.9809 8.842 19.9499 8.279 18.6279 8.129V7.529C18.6279 7.43686 18.6098 7.34563 18.5745 7.26051C18.5392 7.1754 18.4875 7.09807 18.4223 7.03297C18.3571 6.96786 18.2797 6.91625 18.1945 6.88108C18.1094 6.84591 18.0181 6.82787 17.9259 6.828H17.9219C17.736 6.828 17.5577 6.90186 17.4263 7.03332C17.2948 7.16478 17.2209 7.34309 17.2209 7.529V8.115C17.2119 8.117 17.2069 8.125 17.1979 8.126C15.0509 8.36 13.8199 9.506 13.8199 11.271C13.8199 12.801 14.7769 13.832 16.5869 14.253L17.2209 14.403V17.994C17.1905 18.0011 17.1589 18.0025 17.1279 17.998C16.4089 17.864 15.8579 17.494 15.5769 16.955C15.5063 16.8156 15.3987 16.6983 15.2659 16.6159C15.1331 16.5336 14.9802 16.4893 14.8239 16.488H14.7169C14.565 16.4871 14.4156 16.5275 14.2848 16.6048C14.1539 16.6821 14.0465 16.7935 13.9739 16.927C13.9015 17.0528 13.8645 17.1958 13.867 17.3409C13.8695 17.4861 13.9113 17.6278 13.9879 17.751C14.5479 18.657 15.6859 19.226 17.1919 19.352C17.2029 19.352 17.2099 19.364 17.2209 19.366V19.782C17.2209 20.169 17.5349 20.482 17.9209 20.482H17.9259C18.018 20.4821 18.1092 20.4641 18.1943 20.429C18.2794 20.3939 18.3567 20.3424 18.4219 20.2774C18.4871 20.2124 18.5389 20.1352 18.5742 20.0502C18.6096 19.9652 18.6278 19.8741 18.6279 19.782V19.342C20.9179 19.102 22.1799 17.95 22.1799 16.097ZM17.1719 12.648C17.1507 12.6485 17.1294 12.6458 17.1089 12.64C16.1659 12.383 15.6469 11.826 15.6469 11.072C15.6469 10.267 16.2449 9.632 17.1349 9.495C17.1636 9.4911 17.1928 9.49245 17.2209 9.499V12.632C17.2039 12.636 17.1889 12.648 17.1709 12.648H17.1719ZM18.6619 18.029L18.6369 18.031C18.6339 18.031 18.6309 18.027 18.6269 18.027V14.681C18.6479 14.68 18.6689 14.676 18.6889 14.68C19.8409 14.94 20.4009 15.486 20.4009 16.352C20.4009 17.288 19.7509 17.915 18.6609 18.029H18.6619Z" fill="#E1B464"/>
<path d="M26.009 5.94399C25.4824 5.82317 25.0005 5.55648 24.6185 5.17446C24.2365 4.79245 23.9698 4.31055 23.849 3.78399C23.8456 3.76753 23.8366 3.75274 23.8236 3.74212C23.8106 3.73151 23.7943 3.72571 23.7775 3.72571C23.7607 3.72571 23.7444 3.73151 23.7313 3.74212C23.7183 3.75274 23.7093 3.76753 23.706 3.78399C23.5851 4.31055 23.3185 4.79245 22.9364 5.17446C22.5544 5.55648 22.0725 5.82317 21.546 5.94399C21.5295 5.94737 21.5147 5.95634 21.5041 5.96936C21.4935 5.98239 21.4877 5.99868 21.4877 6.01549C21.4877 6.03229 21.4935 6.04858 21.5041 6.06161C21.5147 6.07463 21.5295 6.0836 21.546 6.08699C22.0725 6.2078 22.5544 6.47449 22.9364 6.85651C23.3185 7.23852 23.5851 7.72042 23.706 8.24699C23.724 8.32699 23.831 8.32699 23.849 8.24699C23.9698 7.72042 24.2365 7.23852 24.6185 6.85651C25.0005 6.47449 25.4824 6.2078 26.009 6.08699C26.0254 6.0836 26.0402 6.07463 26.0508 6.06161C26.0614 6.04858 26.0672 6.03229 26.0672 6.01549C26.0672 5.99868 26.0614 5.98239 26.0508 5.96936C26.0402 5.95634 26.0254 5.94737 26.009 5.94399ZM22.296 9.04999C21.9748 8.96628 21.6818 8.79844 21.4472 8.56378C21.2125 8.32912 21.0447 8.03612 20.961 7.71499C20.9584 7.7012 20.9511 7.68874 20.9403 7.67977C20.9296 7.6708 20.916 7.66589 20.902 7.66589C20.8879 7.66589 20.8744 7.6708 20.8636 7.67977C20.8528 7.68874 20.8455 7.7012 20.843 7.71499C20.7591 8.03593 20.5912 8.32873 20.3565 8.5632C20.1219 8.79768 19.829 8.96536 19.508 9.04899C19.4935 9.05086 19.4802 9.05794 19.4706 9.06889C19.461 9.07984 19.4557 9.09391 19.4557 9.10849C19.4557 9.12306 19.461 9.13714 19.4706 9.14808C19.4802 9.15903 19.4935 9.16611 19.508 9.16799C19.8291 9.2516 20.1222 9.4194 20.3569 9.65408C20.5915 9.88876 20.7593 10.1818 20.843 10.503C20.8455 10.5168 20.8528 10.5292 20.8636 10.5382C20.8744 10.5472 20.8879 10.5521 20.902 10.5521C20.916 10.5521 20.9296 10.5472 20.9403 10.5382C20.9511 10.5292 20.9584 10.5168 20.961 10.503C21.0446 10.1818 21.2124 9.88876 21.4471 9.65408C21.6817 9.4194 21.9748 9.2516 22.296 9.16799C22.3104 9.16611 22.3237 9.15903 22.3333 9.14808C22.3429 9.13714 22.3482 9.12306 22.3482 9.10849C22.3482 9.09391 22.3429 9.07984 22.3333 9.06889C22.3237 9.05794 22.3104 9.05086 22.296 9.04899V9.04999Z" fill="white"/>
</g>
</svg>
