<svg viewBox="0 0 26.729 26.73" id="about-us" xmlns="http://www.w3.org/2000/svg"><path d="M21.453 13.328L13.14 7.497l-8.313 5.831 5.813 4.077c.022-.085.073-.226.073-.391 0-.181.027-.189.027-.189l.141.75 2.26 1.585 3.477-2.438c-.015-.22-.021-.607-.021-.607l.22.468 4.636-3.255zm-8.312 4.692l-6.687-4.691 4.34-3.043c-.009-.178-.018-.531-.018-.531l.187.412 2.178-1.528 6.687 4.69-6.687 4.691z"  fill='#fff'></path><path d="M13.363 0C5.995 0 0 5.995 0 13.364c0 7.37 5.995 13.366 13.363 13.366 7.371 0 13.366-5.996 13.366-13.366C26.729 5.995 20.734 0 13.363 0zm9.723 5.818a12.248 12.248 0 012.451 5.727l-1.349.119a10.933 10.933 0 00-2.119-4.928l1.017-.918zm2.564 7.5a.64.64 0 11-1.28 0 .64.64 0 011.28 0zM4.494 4.84c.026-.027.049-.056.075-.082a.64.64 0 11.43 1.111.638.638 0 01-.505-1.029zm8.857-1.425c5.498 0 9.972 4.475 9.972 9.972 0 5.5-4.474 9.972-9.972 9.972-5.5 0-9.972-4.472-9.972-9.972 0-5.497 4.472-9.972 9.972-9.972zm8.091.969c.354 0 .64.285.64.64s-.286.64-.64.64a.64.64 0 110-1.28zm-6.567-3.238a12.241 12.241 0 015.704 2.248l-.895 1.046a10.913 10.913 0 00-4.925-1.938l.116-1.356zm-1.759-.039a.641.641 0 11.004 1.282.641.641 0 01-.004-1.282zm-1.608 1.459a10.897 10.897 0 00-4.78 2.082L5.894 3.59a12.26 12.26 0 015.437-2.371l.177 1.347zM3.379 6.17l1.072.808a10.93 10.93 0 00-1.939 4.72l-1.326-.15A12.226 12.226 0 013.379 6.17zm-1.645 6.513c.353 0 .638.282.64.636l-.001.021a.64.64 0 11-.639-.657zm1.659 7.9a12.25 12.25 0 01-2.218-5.518l1.32-.057a10.94 10.94 0 001.903 4.724l-1.005.851zm1.599 1.508a.641.641 0 11-.002-1.282.641.641 0 01.002 1.282zm6.39 3.429a12.256 12.256 0 01-5.57-2.438l.892-.979a10.914 10.914 0 004.791 2.103l-.113 1.314zm1.734.145a.64.64 0 11.002-1.28.64.64 0 01-.002 1.28zm1.76-.086l-.058-1.318a10.942 10.942 0 004.897-1.938l.901.987a12.22 12.22 0 01-5.74 2.269zm7.1-3.423c-.013.015-.028.028-.042.043a.64.64 0 11.042-.043zm1.152-1.302l-1.025-.866a10.895 10.895 0 002.11-5.019l1.354.056a12.276 12.276 0 01-2.439 5.829z"  fill='#fff'></path><path d="M13.167 15.003c-.95 0-1.723-.772-1.723-1.722s.772-1.723 1.723-1.723c.948 0 1.721.772 1.721 1.723 0 .949-.773 1.722-1.721 1.722zm0-2.51a.788.788 0 10-.001 1.577.788.788 0 00.001-1.577z" fill='#fff'></path><path fill="none" d="M13.141 8.638l-6.687 4.69 6.687 4.692 4.355-3.055v-.944h1.345l.986-.693z"></path><path d="M19.736 15.393a2.333 2.333 0 00-.53-.488l-.887.622c.172.034.458.166.681.448.271.342.333.833.154 1.195-.37.743-1.143.916-1.573.801-.295-.077-.978-.379-.978-1.491 0-1.118-.288-1.752-.94-2.056 1.538-.844 2.603-2.428 2.603-4.199 0-2.958-2.655-4.789-5.116-4.789-1.737 0-3.511.998-4.434 2.461-.685-.051-1.454.176-1.95.876a2.306 2.306 0 00-.388 1.887c.101.433.323.824.635 1.137l.787-.554a1.458 1.458 0 01-.509-.797 1.365 1.365 0 01.238-1.131c.503-.708 1.429-.501 1.732-.292.239.163.596.407.596 1.218 0 .598-.019 2.386-.033 3.958a524.987 524.987 0 00-.022 2.626c0 .463-.402.927-.978 1.129-.438.154-1.231-.068-1.524-.783-.262-.634-.063-1.238.548-1.724l-.788-.552c-.766.729-1.013 1.695-.627 2.633.381.926 1.299 1.408 2.11 1.408.209 0 .409-.032.592-.097.96-.338 1.605-1.146 1.605-2.014 0-.276.009-1.312.021-2.49.835.49 1.63.733 2.414.733.508 0 1.002-.077 1.469-.214.706.146 1.021.651 1.021 1.625 0 1.439.866 2.183 1.674 2.397.16.043.332.065.512.065.782 0 1.68-.422 2.144-1.356.338-.685.234-1.565-.259-2.192zm-6.561-1.261c-.748 0-1.537-.3-2.403-.904.013-1.277.024-2.511.024-2.986 0-1.307-.704-1.787-1.009-1.995a1.162 1.162 0 00-.123-.077c.787-1.063 2.173-1.796 3.485-1.796 2.009 0 4.178 1.472 4.178 3.851 0 2.117-1.901 3.907-4.152 3.907z" fill='#fff'></path><path d="M9.063 15.157l.385.271v1.149l-.514-.365.129-1.055zM9.194 11.409c.144-.096.273-.179.273-.179v-1.168l-.341.253.068 1.094zM15.097 17.783c.129-.089.285-.204.285-.204s-.068-.264-.096-.567c-.022-.257-.007-.501-.007-.501s-.264.195-.372.271c-.107.073.19 1.001.19 1.001zM16.409 10.928l.399.278s.067-.258.096-.549c.025-.29.013-.514.013-.514l-.42-.291-.088 1.076z" fill='#fff'></path></svg>