<svg fill="none" viewBox="0 0 150 56" id="logo-riobet" xmlns="http://www.w3.org/2000/svg"><path d="M41.504 14.037a.81.81 0 00.805-.814.81.81 0 00-.805-.815.81.81 0 00-.806.815c0 .45.36.814.806.814zM50.891 15.317a15.32 15.32 0 00-7.176-2.86l-.147 1.726a13.643 13.643 0 016.197 2.466l1.126-1.332zM31.29 18.465a.81.81 0 00.806-.813.81.81 0 00-.807-.815.793.793 0 00-.54.215c-.034.033-.063.07-.095.104a.81.81 0 00.636 1.31zM39.48 14.265l-.225-1.713a15.326 15.326 0 00-6.84 3.014l1.049 1.346a13.643 13.643 0 016.015-2.647zM55.433 25.837l1.697-.151a15.677 15.677 0 00-3.084-7.285l-1.28 1.167a13.989 13.989 0 012.667 6.27zM30.6 19.875l-1.35-1.027a15.676 15.676 0 00-2.76 6.839l1.67.19a13.989 13.989 0 012.44-6.002zM51.977 18.204a.81.81 0 00.806-.815.81.81 0 00-.806-.814.81.81 0 00-.805.814c0 .45.36.815.805.815zM56.466 27.125a.809.809 0 00-.805.814c0 .45.36.814.805.814a.81.81 0 00.807-.814.81.81 0 00-.807-.814zM52.053 37.823a.81.81 0 00-.805.814c0 .45.36.814.805.814a.797.797 0 00.595-.268.811.811 0 00.212-.546.81.81 0 00-.807-.814zM27.182 28.76c.44 0 .794-.352.805-.793l.001-.027a.81.81 0 00-.805-.808.81.81 0 00-.806.815c0 .45.36.814.805.814zM43.643 41.858l.073 1.678a15.309 15.309 0 007.223-2.886l-1.135-1.258a13.649 13.649 0 01-6.161 2.466zM52.809 36.424l1.29 1.103a15.691 15.691 0 003.066-7.416l-1.702-.071a13.957 13.957 0 01-2.654 6.384zM41.503 42.016a.809.809 0 00-.804.815c0 .45.36.814.804.814a.81.81 0 00.807-.814.81.81 0 00-.807-.815zM32.312 40.36a15.34 15.34 0 007.009 3.1l.14-1.67a13.67 13.67 0 01-6.027-2.674l-1.122 1.244zM28.14 30.092l-1.663.07a15.676 15.676 0 002.792 7.02l1.265-1.082a13.973 13.973 0 01-2.395-6.008zM31.28 37.47a.809.809 0 00-.805.815c0 .45.36.814.805.814a.81.81 0 00.806-.814.81.81 0 00-.806-.814z" fill="#3D2600"></path><path d="M54.342 28.029c0-6.995-5.628-12.684-12.546-12.684-6.917 0-12.546 5.69-12.546 12.684 0 6.993 5.629 12.683 12.546 12.683 6.919 0 12.546-5.69 12.546-12.683z" fill="#115417"></path><path d="M41.814 11C32.542 11 25 18.626 25 28c0 9.373 7.542 17 16.814 17S58.63 37.373 58.63 28c0-9.374-7.544-17-16.816-17zm12.232 7.401a15.664 15.664 0 013.084 7.284l-1.698.152a13.978 13.978 0 00-2.666-6.269l1.28-1.167zm3.227 9.539a.81.81 0 01-.807.814.81.81 0 01-.805-.814c0-.451.36-.815.805-.815a.81.81 0 01.807.815zm-26.62-10.784c.033-.034.062-.071.095-.105a.794.794 0 01.541-.214.81.81 0 01.807.814.81.81 0 01-.807.814.809.809 0 01-.805-.814c0-.188.065-.358.17-.495zm11.143-1.812c6.919 0 12.547 5.69 12.547 12.684 0 6.994-5.629 12.684-12.547 12.684-6.917 0-12.546-5.69-12.546-12.684 0-6.994 5.629-12.684 12.546-12.684zm10.181 1.23a.81.81 0 01.807.816.81.81 0 01-.807.813.81.81 0 01-.805-.813.81.81 0 01.805-.815zm-8.262-4.118a15.32 15.32 0 017.177 2.86l-1.127 1.333a13.641 13.641 0 00-6.197-2.466l.147-1.727zm-2.212-.048a.81.81 0 01.807.815.81.81 0 01-.807.814.81.81 0 01-.805-.814c0-.45.36-.815.805-.815zm-2.024 1.857a13.637 13.637 0 00-6.015 2.647l-1.048-1.347a15.326 15.326 0 016.839-3.014l.224 1.714zM29.25 18.849l1.35 1.027a13.993 13.993 0 00-2.44 6.002l-1.67-.19a15.677 15.677 0 012.76-6.84zm-2.068 8.283c.444 0 .802.36.806.807l-.002.028a.808.808 0 01-.804.793.81.81 0 01-.806-.814.81.81 0 01.806-.814zM29.27 37.18a15.683 15.683 0 01-2.792-7.02l1.662-.07a13.971 13.971 0 002.395 6.009l-1.265 1.08zm2.01 1.918a.81.81 0 01-.804-.814c0-.451.36-.815.805-.815a.81.81 0 01.806.815.81.81 0 01-.806.814zm8.042 4.361a15.339 15.339 0 01-7.01-3.1l1.123-1.244a13.675 13.675 0 006.028 2.673l-.141 1.671zm2.182.185a.809.809 0 01-.805-.814c0-.45.36-.815.805-.815a.81.81 0 01.807.815.81.81 0 01-.807.814zm2.214-.11l-.074-1.677a13.65 13.65 0 006.161-2.465l1.136 1.258a15.31 15.31 0 01-7.223 2.885zm8.931-4.352l-.052.053a.797.797 0 01-.543.215.81.81 0 01-.805-.814c0-.45.36-.814.805-.814a.81.81 0 01.807.814.811.811 0 01-.212.546zm1.451-1.656l-1.29-1.103a13.965 13.965 0 002.655-6.384l1.702.071a15.697 15.697 0 01-3.067 7.416z" fill="#D3B775"></path><path d="M41.533 35.371l-10.459-7.417 10.46-7.418 10.457 7.418-10.458 7.417z" fill="#3D2600"></path><path d="M41.533 35.371l-10.459-7.417 10.46-7.418 10.457 7.418-10.458 7.417zm-8.412-7.417l8.412 5.966 8.413-5.966-8.413-5.967-8.412 5.967z" fill="#D3B775"></path><path d="M41.565 30.084c-1.195 0-2.167-.983-2.167-2.192 0-1.207.972-2.19 2.167-2.19 1.195 0 2.167.983 2.167 2.19 0 1.209-.972 2.192-2.167 2.192zm0-3.194a.999.999 0 00-.992 1.003 1 1 0 00.992 1.003 1 1 0 00.992-1.003.999.999 0 00-.992-1.003z" fill="#D3B775"></path><path d="M49.831 30.579a2.885 2.885 0 00-.667-.62l-1.115.79c.216.043.575.21.856.57.34.435.419 1.06.194 1.52-.465.947-1.438 1.166-1.98 1.02-.37-.1-1.23-.484-1.23-1.898 0-1.421-.362-2.23-1.183-2.614 1.936-1.073 3.274-3.088 3.274-5.341 0-3.763-3.34-6.092-6.436-6.092-2.186 0-4.419 1.27-5.579 3.13-.861-.064-1.828.223-2.454 1.114a2.961 2.961 0 00-.487 2.401c.127.55.407 1.048.799 1.446l.99-.703a1.852 1.852 0 01-.64-1.014 1.75 1.75 0 01.299-1.438c.633-.901 1.797-.638 2.181-.373.298.206.748.518.748 1.55 0 .76-.022 3.034-.041 5.034a694.84 694.84 0 00-.03 3.341c0 .588-.505 1.179-1.229 1.436-.551.195-1.548-.088-1.918-.997-.328-.807-.08-1.575.69-2.192l-.991-.703c-.965.927-1.275 2.156-.79 3.35.48 1.177 1.636 1.79 2.655 1.79.263 0 .516-.041.746-.123 1.207-.428 2.018-1.458 2.018-2.56 0-.353.013-1.668.027-3.168 1.05.624 2.051.933 3.037.933.64 0 1.26-.098 1.848-.274.89.187 1.286.83 1.286 2.068 0 1.832 1.088 2.777 2.106 3.05.201.055.419.083.643.083.984 0 2.113-.536 2.697-1.725.428-.873.298-1.994-.324-2.791zm-8.255-1.605c-.942 0-1.935-.38-3.024-1.15.016-1.625.03-3.193.03-3.798 0-1.66-.884-2.272-1.269-2.538a1.866 1.866 0 00-.153-.094c.99-1.354 2.732-2.287 4.384-2.287 2.528 0 5.257 1.873 5.257 4.9 0 2.691-2.393 4.966-5.225 4.966z" fill="#D3B775"></path><path d="M36.402 30.28l.485.343v1.463l-.647-.464.162-1.343zM36.569 25.512c.18-.122.343-.226.343-.226v-1.487l-.43.322.087 1.39zM43.995 33.618c.161-.112.357-.258.357-.258s-.085-.336-.119-.723c-.029-.326-.008-.637-.008-.637s-.333.25-.469.344c-.136.095.239 1.274.239 1.274zM45.646 24.9l.502.353s.085-.327.12-.697c.033-.37.016-.654.016-.654l-.527-.37-.111 1.369z" fill="#D3B775"></path><path d="M63.674 33.238V22.762c0-.11.02-.216.06-.314a.775.775 0 01.732-.486h2.881c.503 0 .977.097 1.423.294a3.72 3.72 0 011.164.8c.332.336.594.73.788 1.18.194.451.291.93.291 1.439 0 .332-.04.655-.123.97a3.59 3.59 0 01-.97 1.668 4.006 4.006 0 01-.84.63l2.381 3.856a.834.834 0 01.067.755.783.783 0 01-.731.484c-.28 0-.505-.132-.68-.393l-2.635-4.264h-2.225v3.857a.775.775 0 01-.231.567.76.76 0 01-.56.234.76.76 0 01-.56-.234.774.774 0 01-.232-.567zm1.583-9.676v4.22h2.09a2.041 2.041 0 001.475-.623 2.22 2.22 0 00.444-.672c.11-.254.165-.525.165-.812a2.08 2.08 0 00-.165-.823 2.108 2.108 0 00-1.113-1.125 1.999 1.999 0 00-.806-.165h-2.09zM76.275 33.239c0 .221-.077.41-.232.566a.757.757 0 01-.56.234.758.758 0 01-.56-.234.776.776 0 01-.231-.566V22.76c0-.221.077-.41.231-.566a.761.761 0 01.56-.234c.22 0 .406.078.56.234a.777.777 0 01.232.566V33.24zM91.258 28c0 1.666-.585 3.09-1.754 4.272-1.165 1.178-2.571 1.767-4.219 1.767-1.652 0-3.06-.59-4.225-1.767-1.165-1.177-1.748-2.6-1.748-4.272 0-1.665.583-3.087 1.748-4.264 1.169-1.183 2.578-1.774 4.225-1.774 1.643 0 3.05.591 4.219 1.774a6.059 6.059 0 011.318 1.947A6.01 6.01 0 0191.258 28zm-5.973-4.438c-.617 0-1.18.108-1.69.324a4.41 4.41 0 00-1.415.981 4.436 4.436 0 00-.968 1.427A4.432 4.432 0 0080.895 28c0 1.228.428 2.274 1.284 3.14.856.865 1.891 1.298 3.106 1.298 1.214 0 2.25-.433 3.106-1.298.856-.866 1.284-1.912 1.284-3.14 0-1.223-.428-2.267-1.284-3.133-.861-.87-1.896-1.305-3.106-1.305zM97.036 21.962c.423 0 .822.081 1.198.245a3.122 3.122 0 011.65 1.668c.162.38.243.784.243 1.212 0 .765-.234 1.431-.702 2a3.773 3.773 0 011.378 1.4c.157.279.275.574.354.883.08.31.12.628.12.955 0 .508-.097.988-.291 1.438-.194.45-.456.844-.788 1.181-.33.337-.72.604-1.164.8-.446.196-.92.294-1.423.294h-2.882a.74.74 0 01-.306-.064.856.856 0 01-.25-.17.782.782 0 01-.235-.566V22.761a.79.79 0 01.235-.566.854.854 0 01.25-.17.74.74 0 01.306-.064h2.307zm-1.516 1.6v3.057h1.516c.21 0 .405-.04.586-.121.182-.08.341-.192.478-.332a1.6 1.6 0 00.325-.488c.08-.184.12-.38.12-.592 0-.206-.04-.4-.12-.585a1.562 1.562 0 00-.81-.82 1.423 1.423 0 00-.58-.12H95.52zm0 4.657v4.22h2.09a2.06 2.06 0 001.475-.62c.187-.19.336-.415.445-.671a2.08 2.08 0 00.164-.823c0-.287-.055-.558-.164-.815a2.095 2.095 0 00-1.113-1.124 1.999 1.999 0 00-.806-.167h-2.09zM111.541 32.438c.219 0 .406.079.56.234a.773.773 0 01.232.567c0 .222-.077.41-.232.566a.76.76 0 01-.56.234h-6.906a.792.792 0 01-.314-.06.785.785 0 01-.478-.74V22.762a.823.823 0 01.228-.57.792.792 0 01.25-.17.792.792 0 01.314-.06h6.906c.219 0 .406.077.56.233a.774.774 0 01.232.567c0 .221-.077.41-.232.566a.76.76 0 01-.56.234h-6.115V27.2h4.39c.219 0 .406.078.56.235a.776.776 0 01.232.566c0 .221-.078.41-.232.566a.757.757 0 01-.56.234h-4.39v3.638h6.115zM123.209 23.562h-2.949v9.676a.772.772 0 01-.232.567.758.758 0 01-.56.234.758.758 0 01-.56-.234.776.776 0 01-.231-.567v-9.676h-2.949a.763.763 0 01-.561-.235.775.775 0 01-.23-.566c0-.221.076-.41.23-.566a.763.763 0 01.561-.234h7.481c.219 0 .405.078.559.234a.775.775 0 01.232.566c0 .222-.077.41-.232.567a.755.755 0 01-.559.234z" fill="#D2B77F"></path></svg>