<svg width="24" height="24" viewBox="0 0 24 24" fill="none" xmlns="http://www.w3.org/2000/svg">
<path d="M23.466 20.8555C23.823 21.211 24 21.643 24 22.153C24 22.654 23.8185 23.086 23.4525 23.452C23.2849 23.6272 23.0832 23.7662 22.8598 23.8604C22.6363 23.9545 22.396 24.0019 22.1535 23.9995C21.9108 24.0056 21.6695 23.9599 21.4458 23.8655C21.2221 23.7711 21.021 23.6301 20.856 23.452L15.9075 18.5201C14.2226 19.701 12.211 20.3261 10.1535 20.308C8.79778 20.3117 7.45549 20.0392 6.20853 19.5071C4.99726 19.0028 3.89539 18.2682 2.96404 17.3441C2.03997 16.4122 1.30541 15.3098 0.801039 14.0982C0.268716 12.8519 -0.00383685 11.5101 4.08014e-05 10.1548C4.08014e-05 8.78083 0.26704 7.46536 0.801039 6.21139C1.30544 4.99978 2.04 3.89746 2.96404 2.96547C3.89536 2.04023 4.99785 1.30508 6.21003 0.801024C7.45689 0.268593 8.79924 -0.00395417 10.155 4.3345e-05C11.5275 4.3345e-05 12.8445 0.267037 14.0985 0.801024C15.3098 1.30531 16.4116 2.03988 17.343 2.96397C18.2669 3.89608 19.0014 4.99837 19.506 6.20989C20.04 7.46386 20.307 8.77933 20.307 10.1533C20.307 12.2682 19.71 14.1852 18.5175 15.9072L23.4675 20.8555H23.466ZM14.718 14.7177C15.9825 13.4532 16.614 11.9323 16.614 10.1533C16.614 8.37434 15.9825 6.85338 14.718 5.58891C13.455 4.32444 11.934 3.69295 10.1535 3.69295C8.37453 3.69295 6.85353 4.32444 5.58903 5.58891C4.32453 6.85488 3.69303 8.37434 3.69303 10.1533C3.69303 11.9323 4.32453 13.4532 5.58903 14.7177C6.85353 15.9822 8.37453 16.6151 10.1535 16.6151C11.9325 16.6151 13.4535 15.9822 14.718 14.7177Z" fill="#888"/>
</svg>
