<svg width="155" height="56" viewBox="0 0 155 56" fill="none" xmlns="http://www.w3.org/2000/svg">
<mask id="mask0_3_1224" style="mask-type:luminance" maskUnits="userSpaceOnUse" x="0" y="0" width="155" height="56">
<path d="M0 0H155V56H0V0Z" fill="white"/>
</mask>
<g mask="url(#mask0_3_1224)">
<path d="M4.25536 31.3599C2.43267 30.4732 1.31753 29.0266 0.710449 27.2532C0.658782 27.0666 0.506652 26.8332 0.456421 26.6466V15.7732C0.556884 15.5866 0.657345 15.3999 0.709012 15.2132C1.1654 13.8599 1.97628 12.7866 3.24212 12.0399C4.30559 11.4332 5.36906 10.9199 6.4842 10.4066C6.4842 10.5932 6.4842 10.7799 6.43253 10.9666C6.23161 11.7132 6.58466 12.1332 7.44577 12.0866C7.94513 12.043 8.4379 11.9491 8.9154 11.8066C10.9921 11.1532 12.9167 10.1732 14.791 9.19324C17.0701 7.97991 19.4009 6.76657 21.5278 5.27324C22.1349 4.85324 22.6932 4.33991 23.1496 3.77991C23.6548 3.26657 23.6045 2.89324 23.1496 2.33324C23.0477 2.23991 23.0477 2.09991 22.996 2.00657L24.668 1.16657C26.8968 0.0465739 29.074 0.0465741 31.2526 1.25991L42.4987 7.41991C44.9299 8.77324 47.3611 10.1266 49.8426 11.4332C51.1601 12.1332 51.5146 13.0666 50.6032 14.4199C50.4009 14.5132 50.1985 14.6066 50.0464 14.7466C47.918 16.8932 44.0688 17.1732 41.6362 15.4932C38.5979 13.3932 35.3056 11.7599 31.5569 10.8266C29.0252 10.2199 26.4404 9.89324 23.8069 10.2199C20.6667 10.5932 17.9815 11.9466 15.6522 13.9066C13.8797 15.3999 12.5622 17.1732 11.5992 19.1799C10.7381 20.9999 10.1812 22.9132 10.2315 24.9199C10.2315 26.0399 10.4855 27.1132 10.6376 28.2332C10.8902 28.9332 11.0926 29.6799 11.3983 30.3799C11.6997 31.0799 11.6509 31.1266 10.7898 31.1266H5.52119C5.0648 31.0799 4.66008 31.2666 4.25536 31.3599Z" fill="#E80531"/>
<path d="M22.2369 18.0134C22.8956 16.3801 24.2633 15.3534 26.0358 14.8401C27.5054 14.3734 28.9736 14.4667 30.3916 15.0734C36.7236 17.8734 43.0556 20.6734 49.336 23.5667C52.1231 24.8734 53.4406 27.1601 53.4909 30.0067C53.5411 33.0401 53.5411 36.0734 53.4909 39.1067C53.4392 41.2534 52.426 42.9801 50.4009 44.0534C47.6138 45.5467 44.8281 46.9001 42.0424 48.3467C41.9419 48.3934 41.8903 48.3934 41.7898 48.4401C41.7898 48.3467 41.7898 48.2534 41.84 48.2067C43.1059 47.2267 44.0689 46.0134 44.8281 44.7067C45.6892 43.1667 46.1456 41.5801 46.2475 39.9001C46.2977 38.8734 46.2475 37.8934 45.9935 36.8667C45.5888 35.3267 44.93 33.8801 43.967 32.6201C43.258 31.6867 42.4486 30.8467 41.4353 30.1934C40.5742 29.6334 39.7131 28.9801 38.7501 28.6534C34.4445 27.0667 30.0888 25.5734 25.733 24.0801C23.4022 23.2867 21.9843 21.4667 22.135 19.2734C22.135 18.7601 22.1866 18.3867 22.2369 18.0134Z" fill="#EF023A"/>
<path d="M34.09 52.3602C32.3175 53.2935 30.5451 54.2735 28.7209 55.0669C26.7447 55.9535 24.7196 55.7669 22.8453 54.7402C19.0966 52.7335 15.3479 50.6802 11.5992 48.6735C8.45899 46.9935 5.3188 45.2669 2.17862 43.5402C1.77347 43.3152 1.44125 42.9928 1.21704 42.6069C0.963016 42.1869 1.11515 41.6735 1.41797 41.2535C3.03973 38.9202 6.33204 37.6135 9.3201 38.0802C10.4855 38.2669 11.5489 38.6402 12.512 39.2469C13.6759 39.9469 14.8929 40.6002 16.1085 41.3002C16.1085 41.3935 16.0569 41.5335 16.1085 41.5802C16.3611 41.7669 16.6151 41.9535 16.8677 42.0935C20.0079 43.9135 23.0979 45.7802 26.2395 47.6002L33.381 51.8002C33.6336 51.9402 33.8374 52.1735 34.09 52.3602Z" fill="#E80531"/>
<path d="M4.25537 31.3601C4.66009 31.2668 5.06482 31.1268 5.47097 31.1268C7.24343 31.0801 8.96565 31.1268 10.7381 31.1268C11.5992 31.1268 11.5992 31.0801 11.3466 30.3801C11.0926 29.6801 10.84 28.9334 10.586 28.2334L22.1866 28.0934C22.287 28.0934 22.4392 28.0934 22.5411 28.0468C22.5941 27.9954 22.6291 27.9303 22.6415 27.8601C24.1112 28.4201 25.5794 29.0268 27.049 29.5868C27.4035 29.7268 27.8096 29.7734 28.1627 29.9601C30.2408 30.8934 31.709 32.7601 31.6588 34.9068C31.6588 35.8868 31.3545 36.7734 30.6972 37.6134H20.3639C19.8558 37.6134 19.3492 37.8001 18.8943 37.8934C17.5265 37.3334 16.1588 36.7268 14.8413 36.1668C11.4973 34.7201 8.15477 33.2268 4.81222 31.7801C4.66666 31.5996 4.47538 31.4554 4.25537 31.3601Z" fill="#CB051E"/>
<path d="M22.2369 18.0134C22.1866 18.3868 22.1364 18.8068 22.0847 19.1801C21.9326 21.3734 23.352 23.1934 25.6813 23.9868C30.0371 25.4801 34.3929 26.9734 38.6984 28.5601C39.6614 28.9334 40.5226 29.5401 41.3837 30.1001C42.3969 30.7534 43.2063 31.5934 43.9168 32.5268C44.8783 33.8334 45.5888 35.2334 45.9433 36.7734C46.1958 37.8001 46.2475 38.7801 46.1958 39.8068C46.1079 41.4861 45.6238 43.127 44.7779 44.6134C43.967 45.9668 43.0054 47.1334 41.7898 48.1134C41.7382 48.1601 41.7382 48.2534 41.7382 48.3468H41.4353C41.0292 48.3934 40.877 48.1134 40.7751 47.8334C40.3704 46.9468 39.6614 46.3868 38.852 45.9201C37.0781 44.9401 35.3559 43.8668 33.6337 42.8401C33.3811 42.7001 33.1787 42.5601 33.2289 42.2334C34.3426 41.6268 35.4076 41.0201 36.217 40.0868C37.7383 38.4068 38.5477 36.4001 38.5477 34.2534C38.5477 31.6868 37.18 29.8668 34.5967 28.8401C31.7091 27.6734 28.7713 26.5534 25.8851 25.3868C23.9089 24.5934 22.4909 23.3801 21.9326 21.4201C21.5781 20.3001 21.6298 19.1334 22.2369 18.0134Z" fill="#950803"/>
<path d="M22.6415 27.8133C22.5913 27.8599 22.5913 27.9999 22.5411 27.9999C22.4406 28.0466 22.3387 28.0466 22.1866 28.0466L10.586 28.1866C10.4338 27.0666 10.2315 25.9933 10.1812 24.8733C10.131 22.8666 10.6879 20.9532 11.549 19.1332C12.5105 17.1266 13.828 15.3532 15.6005 13.8599C17.9312 11.8999 20.5662 10.5932 23.7567 10.1732C26.3902 9.84658 28.9736 10.1266 31.5067 10.7799C35.2037 11.7132 38.496 13.3466 41.586 15.4466C44.0172 17.1266 47.8678 16.8466 49.9961 14.6999C50.1468 14.5599 50.3492 14.4666 50.5516 14.3732C50.1407 15.165 49.5495 15.8643 48.8188 16.4228C48.0882 16.9812 47.2356 17.3854 46.3201 17.6073C45.4047 17.8293 44.4482 17.8637 43.517 17.7081C42.5858 17.5526 41.7021 17.2109 40.9272 16.7066C38.75 15.3532 36.5212 14.0932 34.09 13.2066C32.1654 12.4599 30.1389 11.9466 28.0105 11.8999C24.2116 11.8066 20.7169 12.7399 17.7791 15.0732C16.1071 16.4266 15.2962 18.2466 15.0436 20.2999C14.8915 21.3732 14.9934 22.4466 15.4498 23.4266C16.1071 24.7799 17.172 25.7132 18.6402 26.2732C20.0582 26.7866 21.3757 27.2999 22.6415 27.8133Z" fill="#950803"/>
<path d="M33.2289 42.3264C33.1786 42.6064 33.381 42.7464 33.6336 42.9331C35.3558 43.9598 37.078 44.9864 38.8519 46.0131C39.713 46.4798 40.422 47.0864 40.7751 47.9264C40.877 48.2064 41.0291 48.4864 41.4352 48.4398V48.6264C38.9524 49.8864 36.5212 51.1464 34.0397 52.4064C33.7857 52.2198 33.5834 51.9864 33.3308 51.8464L26.1878 47.6464C23.0477 45.8264 19.9577 43.9598 16.8161 42.1398C16.5635 41.9998 16.3109 41.8131 16.0569 41.6264C16.0066 41.5798 16.0569 41.4398 16.0569 41.3464C17.2222 41.8598 18.3359 42.3731 19.5013 42.8398C20.869 43.3998 22.3387 43.6798 23.8069 43.8664C27.1509 44.3331 30.2408 43.6798 33.2289 42.3264Z" fill="#CB051E"/>
<path d="M22.9457 2.00659C22.9974 2.09993 23.0462 2.23992 23.0978 2.33326C23.5542 2.84659 23.6045 3.21992 23.0978 3.77992C22.5912 4.29326 22.0344 4.80659 21.4761 5.27326C19.3506 6.76659 17.0701 7.97993 14.7408 9.19326C12.8664 10.2199 10.9418 11.1533 8.86511 11.8066C8.40872 11.9466 7.9021 12.0399 7.39548 12.0866C6.53437 12.1333 6.17988 11.7133 6.38224 10.9666C6.43391 10.7799 6.43391 10.5933 6.43391 10.4066C11.4484 7.83993 16.4113 5.31992 21.4259 2.75326C21.9325 2.51992 22.4377 2.28659 22.9457 2.00659Z" fill="#EF023A"/>
<path d="M18.9446 37.8003C19.4512 37.7069 19.9578 37.5203 20.4128 37.5203H30.7461C29.6841 39.1069 28.1125 39.9003 26.0861 40.0403C24.8202 40.1336 23.6549 39.8536 22.5412 39.3403C21.3758 38.8269 20.1602 38.3136 18.9446 37.8003Z" fill="#E80531"/>
<path d="M82.1601 14.8401V25.0601H79.3242V20.5334C79.2725 20.4867 79.2237 20.4867 79.2237 20.4401C78.918 20.7667 78.5636 21.0467 78.2607 21.3734L77.1456 22.4001C76.8413 22.6801 76.639 22.6801 76.3347 22.4001C75.7276 21.7934 75.1191 21.1867 74.512 20.6267L74.258 20.3934V25.0601H71.3719V14.8401C71.9789 14.7001 72.4339 14.8401 72.8903 15.3067C74.1575 16.6601 75.4736 17.9201 76.7911 19.2267C78.1086 17.9201 79.4247 16.6601 80.6403 15.3067C81.0464 14.8401 81.4999 14.6534 82.1601 14.8401ZM131.091 14.6067C134.435 14.6067 136.765 16.8001 136.765 19.9267C136.765 23.0534 134.384 25.2467 130.991 25.2467C127.597 25.2467 125.318 23.0534 125.318 19.9267C125.318 16.8001 127.697 14.6067 131.091 14.6067ZM133.827 19.9734C133.827 18.6667 133.118 17.6867 131.952 17.3134C130.484 16.8467 128.914 17.5467 128.458 18.9467C127.901 20.5334 128.66 22.2134 130.18 22.6334C132.054 23.1467 133.827 21.8867 133.827 19.9734ZM95.836 14.8401C97.7104 14.8401 99.5345 14.7467 101.357 14.8867C102.979 14.9801 104.093 15.9134 104.549 17.3601C105.005 18.8534 104.649 20.2067 103.333 21.2334C103.283 21.2801 103.181 21.3267 103.079 21.4201C103.74 22.3534 104.347 23.3334 105.005 24.3134C105.156 24.5001 105.206 24.7334 105.36 25.0601H102.37C102.218 25.0601 102.068 24.8734 101.966 24.7334C101.459 23.9401 101.004 23.1467 100.548 22.3534C100.345 21.9801 100.091 21.8401 99.6349 21.8867C99.3823 21.9334 99.0781 21.8867 98.7236 21.8867V25.0601H95.836V14.8401ZM98.6734 19.6934C99.3824 19.6934 100.041 19.7401 100.648 19.6934C101.357 19.6467 101.763 19.2267 101.814 18.5267C101.864 17.8267 101.561 17.2667 100.952 17.2201C100.192 17.1734 99.4326 17.2201 98.6734 17.2201V19.6934ZM69.1416 17.9201H66.4578C66.0014 16.9867 64.8877 16.6601 63.8744 17.1267C63.5199 17.3134 63.3176 17.5467 63.3678 17.9201C63.3678 18.3401 63.6204 18.5734 64.0266 18.6201C64.6853 18.7601 65.3943 18.8067 66.0531 18.9001C66.5582 18.9934 67.0146 19.0867 67.5212 19.2267C69.9524 19.9734 69.9524 22.7734 68.6866 23.9401C68.0279 24.5934 67.1668 24.9667 66.2554 25.1067C64.836 25.3401 63.4683 25.2934 62.2025 24.6401C61.0371 24.0801 60.43 23.1467 60.3798 21.8867H63.0636C63.6204 22.8667 64.9379 23.1934 66.0516 22.6801C66.4075 22.4934 66.6601 22.2601 66.6099 21.8867C66.6099 21.4667 66.3559 21.1867 65.9497 21.0934C65.5967 21.0001 65.1919 20.9534 64.836 20.9067C64.127 20.7667 63.3678 20.7201 62.7091 20.5334C61.5437 20.2067 60.7343 19.5067 60.5821 18.2934C60.43 17.0334 60.8347 15.9134 62.0503 15.2601C63.873 14.2334 65.799 14.2334 67.6231 15.2134C68.6364 15.8667 69.0913 16.7534 69.1416 17.9201ZM114.984 21.9334H117.668C118.327 22.9134 119.39 23.2401 120.505 22.8201C121.012 22.6334 121.265 22.3067 121.265 21.9334C121.214 21.4667 120.91 21.1867 120.454 21.0934C119.796 20.9534 119.086 20.9534 118.429 20.8134C118.044 20.7701 117.669 20.6758 117.314 20.5334C116.2 20.1601 115.389 19.5067 115.187 18.3401C115.034 17.1267 115.389 16.0534 116.554 15.3067C118.175 14.2334 120.86 14.2334 122.48 15.3534C123.341 15.9601 123.798 16.8001 123.798 17.8267H121.112C120.658 16.8934 119.442 16.5667 118.479 17.0801C118.124 17.2667 118.023 17.5001 118.023 17.8734C118.023 18.2467 118.277 18.4801 118.631 18.5734C119.29 18.7134 119.999 18.7601 120.658 18.9001C121.164 18.9934 121.619 19.0867 122.126 19.2267C124.659 19.9734 124.609 22.8667 123.291 24.0334C122.582 24.6401 121.821 25.0134 120.91 25.1534C119.34 25.4334 117.87 25.2934 116.503 24.5001C115.491 23.9401 114.984 23.0534 114.984 21.9334ZM94.7725 25.0601H91.7343C91.6826 24.9201 91.5305 24.8267 91.4802 24.6401C91.2793 23.9401 90.8215 23.7067 90.012 23.7534C89.1509 23.8467 88.2381 23.8001 87.3282 23.7534C86.9221 23.7534 86.7197 23.8467 86.6178 24.1734C86.4155 24.9201 85.9088 25.1067 85.098 25.0134C84.4909 24.9667 83.9326 25.0134 83.3255 25.0134C83.2753 25.0134 83.225 24.9667 83.1231 24.9667C83.1734 24.7801 83.1734 24.5934 83.2753 24.4067C84.8454 21.2801 86.4657 18.1534 88.0358 15.0267C88.2898 14.5601 88.6443 14.7001 88.9974 14.6534C89.3533 14.6534 89.6059 14.6534 89.8097 15.0267C91.3281 18.1067 92.8996 21.1867 94.4697 24.2667C94.6706 24.5467 94.6706 24.7801 94.7725 25.0601ZM88.9988 19.0867C88.5941 19.9734 88.2381 20.7667 87.8837 21.5601H90.1125C89.758 20.7201 89.4035 19.9734 88.9988 19.0867ZM145.021 21.7467H141.475V25.0134H138.589V14.7934H145.478V17.0801H141.527V19.3667H145.021V21.7467ZM151.96 25.0601H149.175V17.1734H146.439V14.7934H154.646V17.1267H151.96V25.0601ZM111.336 17.1734V25.0601H108.552V17.2201H105.816V14.8867H114.021V17.2201C113.16 17.1734 112.299 17.1734 111.337 17.1734H111.336ZM94.7725 30.9867V41.2067H93.4565V34.0201C93.4048 34.0201 93.4048 33.9734 93.3546 33.9734C92.1892 35.4667 90.9736 36.9601 89.7078 38.5934C88.4419 37.0067 87.2766 35.5134 86.061 33.9734C86.0093 33.9734 86.0093 33.9734 85.9605 34.0201V41.2067H84.5913V31.0334C85.0477 30.8467 85.1999 31.0801 85.4524 31.3601C86.8704 33.1334 88.2898 34.8601 89.7078 36.6801C89.8599 36.5401 89.9604 36.4001 90.1125 36.2601C91.43 34.6267 92.6958 32.9934 94.0133 31.4067C94.1655 31.1267 94.3162 30.8467 94.7725 30.9867ZM125.824 33.8801H124.557C123.595 32.2934 122.126 31.6867 120.201 31.9667C118.377 32.2467 117.111 33.4601 116.757 35.1401C116.554 36.2134 116.655 37.2401 117.213 38.2201C118.074 39.8067 119.897 40.5067 121.974 40.1334C123.747 39.8067 124.861 38.5934 124.963 36.8667H121.062V35.8867H126.179C126.634 39.1067 123.95 41.6734 120.505 41.3934C117.161 41.1134 115.034 38.6867 115.339 35.5601C115.693 31.7334 119.593 30.0067 123.089 31.1734C124.507 31.6867 125.318 32.4801 125.824 33.8801ZM70.2567 36.9134H66.3559V35.8867H71.4221C71.9789 37.8467 70.5093 40.3667 68.2302 41.0667C64.127 42.3734 60.0755 39.8067 60.5807 35.3734C61.0385 31.4067 65.3441 29.9601 68.6866 31.3134C69.9022 31.8267 70.6112 32.6201 71.0159 33.8334H69.7501C69.3956 32.9934 68.7368 32.3867 67.6734 32.1067C63.8242 31.1734 61.4935 33.6934 61.8982 36.7267C62.1522 38.4067 63.0636 39.6201 64.9379 40.0867C66.0014 40.3201 67.0146 40.2734 68.0279 39.8534C69.4458 39.3401 70.1046 38.3134 70.2567 36.9134ZM113.008 41.2067C112.553 41.3467 112.401 41.0201 112.199 40.8334C110.07 38.5467 107.943 36.2601 105.815 34.0201C105.714 33.8801 105.614 33.7867 105.41 33.6001V41.2067H104.195V31.0334C104.549 30.8467 104.701 31.0801 104.904 31.3134C106.88 33.4134 108.855 35.5601 110.831 37.6601C111.134 37.9867 111.438 38.2667 111.742 38.6401V31.0334H113.008V41.2067ZM73.3969 41.2067H71.9287C73.7011 37.7534 75.4234 34.3467 77.1456 30.9867H77.8043C79.5266 34.3934 81.2488 37.7534 82.971 41.2067H81.5014C81.1469 40.5067 80.7407 39.8067 80.3877 39.1067C80.2356 38.8267 80.0834 38.6867 79.7289 38.6867H75.1191C74.7646 38.6867 74.5623 38.7801 74.4101 39.1067C74.1575 39.8067 73.7514 40.5067 73.3969 41.2067ZM77.5001 32.8534C76.717 34.4147 75.9573 35.9859 75.221 37.5667H79.8308C79.014 36.0129 78.2369 34.4414 77.5001 32.8534ZM102.068 40.2734V41.2067H96.9009V40.2734H98.7738V31.9667H97.0516V30.9867H101.915V31.9201H100.193V40.2267C100.8 40.2734 101.409 40.2734 102.068 40.2734Z" fill="white"/>
<path d="M41.4855 48.58V48.3933H41.7897C41.6376 48.44 41.5859 48.5333 41.4855 48.58Z" fill="#EF023A"/>
</g>
</svg>
