<svg fill="none" viewBox="0 0 150 56" id="providers--spadegaming" xmlns="http://www.w3.org/2000/svg"><g clip-path="url(#hxclip0_2492_24225)"><path d="M38.8 43.63c-.8-.584-1.32-.973-1.56-1.168-.16-.156-.32-.311-.44-.506-.2-.233-.28-.506-.24-.817-.04-.39.12-.74.36-1.013.28-.272.68-.389 1.08-.389.96 0 1.56.584 1.72 1.713h.36v-1.713c0-.039 0-.117-.04-.156-.2-.194-.8-.311-1.88-.311-.72 0-1.44.195-2 .584-.6.39-.96 1.051-.92 1.752 0 .39.12.817.36 1.129.4.428.84.817 1.32 1.129.72.467 1.4.973 2 1.596.32.35.48.778.48 1.245 0 .468-.16.896-.52 1.207-.36.312-.8.506-1.32.468a1.974 1.974 0 01-1.72-.857c-.2-.39-.36-.779-.4-1.207H35v1.869c0 .117.04.233.16.272.32.117.64.195.96.273.4.078.84.117 1.24.117.88.039 1.72-.195 2.4-.701.6-.428.92-1.129.92-1.869 0-.467-.12-.895-.4-1.284-.4-.545-.92-.974-1.48-1.363zM45.84 41.917c-.92-.039-1.76.39-2.32 1.09v-1.09c-.72.35-1.52.545-2.32.545v.35h.32c.2 0 .4.04.6.117.12.156.2.35.16.545v6.852c0 .584-.04.895-.16 1.051-.12.117-.4.234-.92.273V52h3.72v-.35c-.68-.078-1.08-.156-1.2-.273-.12-.117-.2-.467-.2-1.051v-1.79c.48.194 1 .31 1.52.31.96.04 1.92-.389 2.56-1.09a3.793 3.793 0 001-2.724 3.303 3.303 0 00-.76-2.258c-.48-.584-1.2-.896-2-.857zm.88 5.684c-.36.545-1 .818-1.64.818-.56 0-1.12-.234-1.52-.623V45.46c0-.506.04-1.012.12-1.518.2-.896.76-1.363 1.6-1.363.6 0 1.16.273 1.48.74.4.584.6 1.323.56 2.024-.04.973-.2 1.713-.6 2.258zM54.84 47.951c-.16 0-.32-.078-.36-.233a1.678 1.678 0 01-.08-.779v-2.92c0-.74-.16-1.284-.56-1.596-.4-.311-.92-.506-1.72-.506-.6 0-1.2.117-1.72.35-.16.078-.32.195-.36.39l-.2.74c0 .077 0 .116.12.116l.4.117h.12c.08 0 .16-.117.28-.311.36-.662.76-.974 1.24-.974.76 0 1.16.623 1.16 1.908l-1.48.545c-.44.156-.88.35-1.32.584-.64.311-1.04.934-1.04 1.635-.04.467.16.934.48 1.285.32.35.8.506 1.28.506a2.19 2.19 0 001-.35l1.04-.662c0 .35.12.74.32 1.05l1.92-.622-.08-.35a1.47 1.47 0 01-.44.077zm-1.68-2.14c0 1.478-.48 2.18-1.48 2.18-.32 0-.6-.079-.8-.312-.2-.234-.32-.506-.32-.818 0-.74.48-1.284 1.4-1.674.32-.116.72-.272 1.2-.428v1.051zM62.72 47.951c-.32 0-.48-.35-.48-.973v-8.02c-.72.273-1.52.39-2.32.39v.35h.36c.2 0 .4.04.56.117.12.078.16.312.16.623v1.674a3.783 3.783 0 00-1.48-.195 3.64 3.64 0 00-2.64.974 3.35 3.35 0 00-1 2.53c-.04.895.28 1.752.88 2.413.52.623 1.32.974 2.16.974.44-.04.84-.156 1.2-.39l.92-.506v.078c0 .312.12.584.32.818l1.96-.623-.08-.35c-.2.077-.36.116-.52.116zM61 46.433c0 .545-.08.856-.24 1.051-.16.195-.4.35-.64.428a1.86 1.86 0 01-.8.195c-.68 0-1.24-.35-1.64-1.051-.32-.623-.52-1.285-.48-1.985-.04-.662.16-1.285.52-1.83.36-.545.96-.857 1.64-.857a1.85 1.85 0 011.64.818v3.231zM69.28 43.63c-.36-1.129-1.16-1.674-2.4-1.674a2.97 2.97 0 00-2.24.896c-.6.661-.92 1.518-.88 2.413 0 .934.32 1.869.92 2.57.56.661 1.44 1.012 2.64 1.012h.36l1.76-.818-.2-.39c-.48.273-1 .43-1.56.468-.44 0-.88-.078-1.24-.311-.88-.468-1.32-1.402-1.32-2.725h4.36a5.46 5.46 0 00-.2-1.44zm-1.88.934h-2.36c.04-.311.08-.622.16-.895.28-.856.8-1.285 1.6-1.285.8-.038 1.44.584 1.48 1.363v.078c-.04.467-.32.74-.88.74zM76.84 42.073l-.16-.156c-.64.117-1.28.195-1.96.195h-.36c-.4-.117-.8-.195-1.2-.195-.72-.039-1.4.195-1.96.623-.52.39-.8.973-.76 1.635 0 .934.52 1.635 1.56 2.102l-1.28 1.051v.234c0 .39.28.662.88.779l-1.44.74c-.12.077-.16.233-.16.466 0 .507.12.974.44 1.363.28.35.68.623 1.12.779.52.194 1.04.311 1.6.311.76.039 1.52-.195 2.16-.623a2.175 2.175 0 001.08-1.869c.04-.7-.4-1.323-1.08-1.557-.48-.194-1-.311-1.52-.35a6.358 6.358 0 01-1.44-.312c-.2-.077-.28-.155-.28-.31 0-.157.12-.351.36-.546H73c.68.039 1.36-.195 1.88-.662.48-.39.76-.973.76-1.596 0-.584-.2-1.129-.6-1.518h1.4l.4-.584zm-4.64 6.345l1.32.234c.28.039.56.117.84.195.56.117.96.622.92 1.167 0 .429-.2.857-.6 1.13-.44.31-.96.467-1.48.428-.56.039-1.08-.156-1.52-.467-.4-.273-.6-.74-.6-1.207 0-.273.08-.545.24-.74.24-.311.56-.545.88-.74zm1.04-2.335c-.44 0-.84-.234-1.04-.623-.28-.467-.44-.973-.4-1.518-.04-.429.08-.896.36-1.246.24-.312.6-.467.96-.467.4 0 .72.194.92.545.24.467.36.973.32 1.518.04 1.207-.36 1.79-1.12 1.79zM82.36 47.951c-.16 0-.32-.078-.36-.233a2.448 2.448 0 01-.12-.779v-2.92c0-.74-.16-1.284-.56-1.596-.36-.35-.92-.506-1.72-.506-.6 0-1.2.117-1.76.35-.16.078-.32.195-.36.39l-.2.74c0 .077 0 .116.12.116l.44.117h.12c.08 0 .16-.117.28-.311.36-.662.76-.974 1.24-.974.76 0 1.16.623 1.16 1.908l-1.48.545c-.44.156-.88.35-1.32.584-.64.311-1.04.934-1.04 1.635-.04.467.16.934.48 1.285.32.35.8.506 1.28.506a2.19 2.19 0 001-.35l1.04-.662c.04.35.12.74.32 1.05l1.92-.622-.08-.35c-.08.038-.24.077-.4.077zm-1.68-2.14c0 1.478-.48 2.18-1.48 2.18-.32 0-.6-.079-.8-.312-.2-.234-.32-.506-.32-.818 0-.74.48-1.284 1.4-1.674.32-.116.72-.272 1.2-.428v1.051zM94.2 47.017v-2.764c0-.35 0-.7-.08-1.051-.2-.856-.84-1.285-1.84-1.285-.96 0-1.84.428-2.44 1.168-.16-.35-.36-.662-.68-.895a1.763 1.763 0 00-1.08-.234 3.2 3.2 0 00-2.48 1.168v-1.168c-.72.35-1.52.545-2.32.584v.312h.32c.2-.04.44.039.64.116.12.078.16.273.16.506v3.582c0 .584-.04.934-.16 1.051-.08.117-.4.195-.92.234v.35h3.4v-.35c-.56-.04-.84-.156-.92-.234-.08-.117-.16-.467-.16-1.051v-1.557c0-1.168.16-1.947.48-2.297.32-.35.8-.545 1.28-.545.4-.039.8.117 1.04.428.2.273.28.818.28 1.518v2.414c0 .584-.04.934-.16 1.051-.08.117-.4.195-.92.234v.35h3.4v-.35c-.56-.04-.88-.156-.96-.234-.08-.117-.16-.467-.16-1.051V45.46c0-.584 0-.973.04-1.207.04-.39.2-.779.44-1.09.32-.39.8-.584 1.28-.545.4-.039.8.117 1.04.428.2.312.28.818.28 1.518v2.414c0 .584-.04.934-.16 1.051-.08.117-.4.195-.92.234v.35h3.36v-.35c-.56-.04-.84-.117-.92-.234-.08-.078-.16-.39-.16-1.012zM97.28 41.06a.8.8 0 00.56-.233c.16-.155.24-.35.24-.545 0-.194-.08-.39-.24-.545a.788.788 0 00-1.12 0c-.16.117-.24.312-.24.545 0 .195.08.428.24.545a.8.8 0 00.56.234zM98.16 48.03c-.08-.118-.12-.468-.12-1.052v-5.1c-.72.35-1.52.545-2.32.545v.35h.32c.2-.038.44 0 .64.117.12.078.16.273.16.545v3.543c0 .584-.04.934-.16 1.051-.08.117-.4.195-.92.234v.35h3.4v-.35c-.6-.04-.92-.117-1-.234zM106.72 47.99c-.08-.078-.12-.428-.12-1.012v-2.764c.04-.428 0-.817-.12-1.207-.28-.74-.88-1.129-1.88-1.129a3.534 3.534 0 00-2.72 1.13v-1.13c-.72.35-1.52.545-2.32.545v.35h.32c.2 0 .4.04.6.117.12.078.16.273.16.545v3.582c0 .584-.04.895-.16 1.012-.12.117-.4.195-.92.273v.35h3.4v-.35c-.56-.078-.88-.156-.96-.273-.08-.117-.16-.467-.16-1.012v-1.635c0-.467.04-.895.12-1.363.2-.934.84-1.401 1.84-1.401.56 0 .96.156 1.2.428.24.273.36.779.36 1.518v2.414c.04.35 0 .7-.12 1.012-.08.156-.44.234-.96.312v.35h3.4v-.35c-.56-.078-.88-.156-.96-.312zM115 42.034l-.16-.156c-.64.117-1.28.195-1.92.195h-.36c-.4-.117-.8-.195-1.2-.195-.72-.039-1.4.195-1.96.623-.52.39-.8.973-.76 1.635 0 .935.52 1.635 1.56 2.102l-1.32 1.051v.234c0 .39.28.662.88.779l-1.44.74c-.12.077-.16.233-.16.466 0 .507.12.974.44 1.363.28.35.68.623 1.12.779.52.194 1.04.311 1.6.311.76.039 1.52-.195 2.16-.623.64-.428 1.08-1.129 1.08-1.868.04-.701-.4-1.324-1.08-1.558a5.08 5.08 0 00-1.52-.35 6.358 6.358 0 01-1.44-.311c-.2-.078-.28-.156-.28-.312s.12-.35.4-.545h.52c.68.04 1.36-.194 1.88-.662.48-.389.76-.973.76-1.596 0-.545-.2-1.09-.6-1.518h1.4l.4-.584zm-4.64 6.346l1.32.233c.28.04.56.117.84.195.56.117.96.623.92 1.168 0 .428-.2.856-.6 1.129-.44.311-.96.467-1.48.428-.56.039-1.08-.156-1.52-.467-.4-.273-.6-.74-.6-1.207 0-.273.08-.545.24-.74.24-.311.56-.545.88-.74zm1.04-2.336c-.44 0-.84-.234-1.04-.623-.28-.467-.44-.973-.4-1.518-.04-.428.08-.857.36-1.246.24-.311.6-.467.96-.467.4 0 .76.194.92.545.24.467.36 1.012.32 1.518.04 1.168-.36 1.752-1.12 1.79z" fill="#BC9A61"></path><path d="M88.76 33.781h-.84v-.35H90v.35h-.84v2.258h-.36l-.04-2.258zM90.36 33.43h.52l.84 1.947.84-1.946h.56v2.608h-.36v-2.141l-.88 2.14h-.24l-.88-2.14v2.14h-.36v-2.607h-.04zM79.4 32.107a6.37 6.37 0 01-1.64-4.555l.04-.428.44.117c.04 0 4.48 1.129 6.68-.779 2.12-1.868 2.92-6.19.16-10.55-2.56-4.126-8.84-8.447-10.08-9.265-1.24.818-7.48 5.139-10.08 9.265-2.72 4.36-1.96 8.682.16 10.55 2.2 1.908 6.64.779 6.68.779l.44-.117.04.428a6.37 6.37 0 01-1.64 4.555c-1.52 1.635-3.96 2.453-7.28 2.453v1.479c3.72 0 6.56-.973 8.4-2.959a7.275 7.275 0 002.04-5.644c-.04-.74-.12-1.44-.24-2.18l-2.16.544c-.92.234-3.96.701-5.28-.467-1.68-1.44-2.2-4.983.08-8.68 2.08-3.31 6.72-6.775 8.84-8.254 2.08 1.44 6.76 4.944 8.8 8.253 2.32 3.698 1.76 7.202.08 8.681-1.32 1.13-4.36.701-5.28.468l-2.16-.584c-.12.7-.2 1.44-.24 2.18-.16 2.063.6 4.126 2.04 5.644C80.08 34.988 82.88 36 86.6 36v-1.48c-3.2.04-5.68-.778-7.2-2.413z" fill="#B9131A"></path><path d="M86.44 28.097c2.88-2.491 4-7.902.6-13.314-3.16-4.983-10.68-9.888-11-10.121L75 4l-1.04.662c-.32.194-7.84 5.1-11 10.122-3.4 5.45-2.28 10.822.6 13.313 1.72 1.48 4.08 1.752 5.92 1.674-.16.312-.36.623-.64.857-1.08 1.129-2.96 1.713-5.56 1.713v1.479c3.08 0 5.32-.74 6.72-2.219a5.79 5.79 0 001.48-3.543c-1.28.273-4.84.779-6.92-1.05-2.4-2.103-3.32-6.735-.32-11.446 3-4.71 10.24-9.46 10.56-9.654l.2-.117.2.117c.32.194 7.56 4.905 10.56 9.654 3 4.75 2.08 9.343-.32 11.445-2.08 1.791-5.64 1.285-6.92 1.051.04 1.324.56 2.57 1.48 3.543 1.36 1.48 3.64 2.219 6.68 2.219v-1.48c-2.6 0-4.48-.583-5.56-1.712a6.897 6.897 0 01-.64-.857c1.88.078 4.24-.194 5.96-1.674z" fill="#B9131A"></path></g></svg>