<svg width="155" height="56" viewBox="0 0 155 56" fill="none" xmlns="http://www.w3.org/2000/svg">
<mask id="mask0_3_1148" style="mask-type:luminance" maskUnits="userSpaceOnUse" x="0" y="0" width="155" height="56">
<path d="M0 0H155V56H0V0Z" fill="white"/>
</mask>
<g mask="url(#mask0_3_1148)">
<path d="M7.3625 46.2351C5.8125 45.5538 4.805 45.0999 4.34 44.8724C4.03 44.6904 3.72 44.5096 3.4875 44.2821C3.1 44.0103 2.945 43.6918 3.0225 43.3289C2.945 42.8739 3.255 42.4656 3.72 42.1471C4.2625 41.8298 5.0375 41.6933 5.8125 41.6933C7.6725 41.6933 8.835 42.3746 9.145 43.6918H9.8425V41.6933C9.8425 41.6478 9.8425 41.5568 9.765 41.5113C9.3775 41.2849 8.215 41.1484 6.1225 41.1484C4.7275 41.1484 3.3325 41.3759 2.2475 41.8298C1.085 42.2848 0.387503 43.0559 0.465003 43.8738C0.465003 44.3288 0.697497 44.8269 1.1625 45.1909C1.9375 45.6903 2.79 46.1441 3.72 46.5081C5.115 47.0529 6.4325 47.6433 7.595 48.3701C8.215 48.7784 8.525 49.2778 8.525 49.8226C8.525 50.3686 8.215 50.8679 7.5175 51.2308C6.82 51.5948 5.9675 51.8211 4.96 51.7768C4.30908 51.7948 3.66129 51.7125 3.07806 51.5375C2.49484 51.3625 1.99553 51.1007 1.6275 50.7769C1.24 50.3219 0.929997 49.8681 0.852497 49.3688H0V51.5493C0 51.6858 0.0774997 51.8211 0.31 51.8666C0.93 52.0031 1.55 52.0941 2.17 52.1851C2.945 52.2761 3.7975 52.3216 4.5725 52.3216C6.2775 52.3671 7.905 52.0941 9.2225 51.5038C10.385 51.0044 11.005 50.1866 11.005 49.3233C11.005 48.7784 10.7725 48.2791 10.23 47.8253C9.455 47.1894 8.4475 46.6889 7.3625 46.2351ZM21.0025 44.2366C19.22 44.1911 17.5925 44.6916 16.5075 45.5083V44.2366C15.1125 44.6449 13.5625 44.8724 12.0125 44.8724V45.2808H12.6325C13.02 45.2808 13.4075 45.3274 13.795 45.4173C14.0275 45.5993 14.1825 45.8256 14.105 46.0531V54.0471C14.105 54.7284 14.0275 55.0913 13.795 55.2733C13.5625 55.4098 13.02 55.5463 12.0125 55.5918V56.0001H19.22V55.5918C17.9025 55.5008 17.1275 55.4098 16.895 55.2733C16.6625 55.1368 16.5075 54.7284 16.5075 54.0471V51.9588C17.4375 52.1851 18.445 52.3204 19.4525 52.3204C21.3125 52.3671 23.1725 51.8666 24.4125 51.0488C25.7323 50.1859 26.4292 49.0429 26.35 47.8708C26.4205 46.9129 25.8955 45.9737 24.8775 45.2364C23.9475 44.5551 22.5525 44.1911 21.0025 44.2366ZM22.7075 50.8679C22.01 51.5038 20.77 51.8223 19.53 51.8223C18.445 51.8223 17.36 51.5493 16.585 51.0954V48.3701C16.585 47.7798 16.6625 47.1894 16.8175 46.5991C17.205 45.5538 18.29 45.0089 19.9175 45.0089C21.08 45.0089 22.165 45.3274 22.785 45.8723C23.56 46.5536 23.9475 47.4158 23.87 48.2336C23.7925 49.3688 23.4825 50.2321 22.7075 50.8679ZM38.44 51.2763C38.13 51.2763 37.82 51.1853 37.7425 51.0044C37.5725 50.7131 37.5194 50.4017 37.5875 50.0956V46.6889C37.5875 45.8256 37.2775 45.1909 36.5025 44.8269C35.7275 44.4641 34.72 44.2366 33.17 44.2366C32.0075 44.2366 30.845 44.3731 29.8375 44.6449C29.5275 44.7359 29.2175 44.8724 29.14 45.0999L28.7525 45.9633C28.7525 46.0531 28.7525 46.0986 28.985 46.0986L29.76 46.2351H29.9925C30.1475 46.2351 30.3025 46.0986 30.535 45.8723C31.2325 45.0999 32.0075 44.7359 32.9375 44.7359C34.41 44.7359 35.185 45.4628 35.185 46.9619L32.3175 47.5978C31.465 47.7798 30.6125 48.0061 29.76 48.2791C28.52 48.6419 27.745 49.3688 27.745 50.1866C27.6675 50.7314 28.055 51.2763 28.675 51.6858C29.295 52.0941 30.225 52.2761 31.155 52.2761C31.8466 52.2375 32.5119 52.0973 33.0925 51.8678L35.1075 51.0954C35.1075 51.5038 35.34 51.9588 35.7275 52.3204L39.4475 51.5948L39.2925 51.1864C39.0176 51.2423 38.7301 51.2726 38.44 51.2763ZM35.185 48.7796C35.185 50.5039 34.255 51.3229 32.3175 51.3229C31.6975 51.3229 31.155 51.2308 30.7675 50.9589C30.38 50.6859 30.1475 50.3686 30.1475 50.0046C30.1475 49.1413 31.0775 48.5066 32.86 48.0516C33.48 47.9163 34.255 47.7343 35.185 47.5523V48.7796ZM53.7075 51.2763C53.0875 51.2763 52.7775 50.8679 52.7775 50.1411V40.7844C51.3825 41.1029 49.8325 41.2394 48.2825 41.2394V41.6478H48.98C49.3675 41.6478 49.755 41.6944 50.065 41.7843C50.2975 41.8753 50.375 42.1483 50.375 42.5111V44.4641C49.4537 44.2743 48.4789 44.197 47.5075 44.2366C46.5723 44.2121 45.6384 44.3 44.7603 44.4951C43.8821 44.6902 43.0772 44.9886 42.3925 45.3729C41.7447 45.756 41.2375 46.2166 40.9038 46.725C40.57 47.2334 40.4171 47.7784 40.455 48.3246C40.3775 49.3688 40.9975 50.3686 42.16 51.1398C43.1675 51.8666 44.7175 52.2761 46.345 52.2761C47.1975 52.2294 47.9725 52.0941 48.67 51.8211L50.4525 51.2308V51.3218C50.4525 51.6858 50.685 52.0031 51.0725 52.2761L54.87 51.5493L54.715 51.1409C54.3275 51.2308 54.0175 51.2763 53.7075 51.2763ZM50.375 49.5053C50.375 50.1411 50.22 50.5039 49.91 50.7314C49.6 50.9589 49.135 51.1398 48.67 51.2308C48.188 51.3754 47.6584 51.4531 47.12 51.4583C45.8025 51.4583 44.7175 51.0499 43.9425 50.2321C43.3225 49.5053 42.935 48.7329 43.0125 47.9163C42.935 47.1439 43.3225 46.4171 44.02 45.7813C44.7175 45.1454 45.88 44.7814 47.1975 44.7814C47.8192 44.7606 48.4391 44.8377 48.9963 45.005C49.5535 45.1724 50.0286 45.4242 50.375 45.7358V49.5053ZM66.4175 46.2351C65.72 44.9179 64.17 44.2821 61.7675 44.2821C60.9629 44.2638 60.1609 44.3474 59.4133 44.5275C58.6657 44.7075 57.9892 44.98 57.4275 45.3274C56.265 46.0986 55.645 47.0984 55.7225 48.1426C55.7225 49.2323 56.3425 50.3231 57.505 51.1409C58.59 51.9121 60.295 52.3216 62.62 52.3216H63.3175L66.7275 51.3673L66.34 50.9123C65.41 51.2308 64.4025 51.4139 63.3175 51.4583C62.465 51.4583 61.6125 51.3673 60.915 51.0954C59.21 50.5494 58.3575 49.4598 58.3575 47.9163H66.805C66.8008 47.3484 66.6705 46.7822 66.4175 46.2351ZM62.775 47.3248H58.2025C58.28 46.9619 58.3575 46.5991 58.5125 46.2806C59.055 45.2819 60.0625 44.7814 61.6125 44.7814C63.1625 44.7371 64.4025 45.4628 64.48 46.3716V46.4626C64.4025 47.0074 63.86 47.3248 62.775 47.3248ZM81.065 44.4186L80.755 44.2366C79.515 44.3731 78.275 44.4641 76.9575 44.4641H76.26C75.485 44.3276 74.71 44.2366 73.935 44.2366C72.54 44.1911 71.2225 44.4641 70.1375 44.9634C69.13 45.4184 68.5875 46.0986 68.665 46.8709C68.665 47.9606 69.6725 48.7784 71.6875 49.3233L69.2075 50.5494V50.8224C69.2075 51.2774 69.75 51.5948 70.9125 51.7313L68.1225 52.5946C67.89 52.6844 67.8125 52.8664 67.8125 53.1383C67.8125 53.7298 68.045 54.2746 68.665 54.7284C69.2075 55.1368 69.9825 55.4553 70.835 55.6373C71.8425 55.8636 72.85 56.0001 73.935 56.0001C75.4075 56.0456 76.88 55.7726 78.12 55.2733C78.7538 55.0509 79.2802 54.7328 79.6472 54.3503C80.0142 53.9679 80.209 53.5344 80.2125 53.0928C80.29 52.2761 79.4375 51.5493 78.12 51.2763C77.19 51.0499 76.1825 50.9134 75.175 50.8679C74.2247 50.8121 73.2884 50.69 72.385 50.5039C71.9975 50.4141 71.8425 50.3231 71.8425 50.1423C71.8425 49.9591 72.075 49.7328 72.54 49.5053H73.625C74.9425 49.5508 76.26 49.2778 77.2675 48.7329C78.1975 48.2779 78.74 47.5978 78.74 46.8709C78.74 46.1896 78.3525 45.5538 77.5775 45.0999H80.29L81.065 44.4186ZM72.075 51.8211L74.6325 52.0941C75.175 52.1396 75.7175 52.2306 76.26 52.3216C77.345 52.4581 78.12 53.0473 78.0425 53.6831C78.0425 54.1836 77.655 54.6829 76.88 55.0014C76.0275 55.3631 75.02 55.5463 74.0125 55.5008C72.9275 55.5463 71.92 55.3188 71.0675 54.9559C70.2925 54.6374 69.905 54.0926 69.905 53.5478C69.905 53.2293 70.06 52.9119 70.37 52.6844C70.835 52.3216 71.455 52.0486 72.075 51.8211ZM74.09 49.0969C73.2375 49.0969 72.4625 48.8239 72.075 48.3701C71.5325 47.8253 71.2225 47.2349 71.3 46.5991C71.2225 46.0986 71.455 45.5538 71.9975 45.1454C72.4625 44.7814 73.16 44.6006 73.8575 44.6006C74.6325 44.6006 75.2525 44.8269 75.64 45.2364C76.105 45.7813 76.3375 46.3716 76.26 47.0074C76.3375 48.4156 75.5625 49.0969 74.09 49.0969ZM91.76 51.2763C91.45 51.2763 91.14 51.1853 91.0625 51.0044C90.904 50.711 90.8255 50.4041 90.83 50.0956V46.6889C90.83 45.8256 90.52 45.1909 89.745 44.8269C89.0475 44.4186 87.9625 44.2366 86.4125 44.2366C85.25 44.2366 84.0875 44.3731 83.0025 44.6449C82.6925 44.7359 82.3825 44.8724 82.305 45.0999L81.9175 45.9633C81.9175 46.0531 81.9175 46.0986 82.15 46.0986L83.0025 46.2351H83.235C83.39 46.2351 83.545 46.0986 83.7775 45.8723C84.475 45.0999 85.25 44.7359 86.18 44.7359C87.6525 44.7359 88.4275 45.4628 88.4275 46.9619L85.56 47.5978C84.7075 47.7798 83.855 48.0061 83.0025 48.2791C81.7625 48.6419 80.9875 49.3688 80.9875 50.1866C80.91 50.7314 81.2975 51.2763 81.9175 51.6858C82.5375 52.0941 83.4675 52.2761 84.3975 52.2761C85.0891 52.2375 85.7544 52.0973 86.335 51.8678L88.35 51.0954C88.4275 51.5038 88.5825 51.9588 88.97 52.3204L92.69 51.5948L92.535 51.1864C92.38 51.2308 92.07 51.2763 91.76 51.2763ZM88.505 48.7796C88.505 50.5039 87.575 51.3229 85.6375 51.3229C85.0175 51.3229 84.475 51.2308 84.0875 50.9589C83.7 50.6859 83.4675 50.3686 83.4675 50.0046C83.4675 49.1413 84.3975 48.5066 86.18 48.0516C86.8 47.9163 87.575 47.7343 88.505 47.5523V48.7796ZM114.7 50.1866V46.9619C114.7 46.5536 114.7 46.1453 114.545 45.7358C114.158 44.7371 112.917 44.2366 110.98 44.2366C109.12 44.2366 107.415 44.7359 106.252 45.5993C105.942 45.1909 105.555 44.8269 104.935 44.5551C104.304 44.3314 103.571 44.2357 102.843 44.2821C101.924 44.2807 101.016 44.4023 100.185 44.6379C99.3544 44.8736 98.6208 45.2175 98.0375 45.6448V44.2821C96.6425 44.6904 95.0925 44.9179 93.5425 44.9634V45.3274H94.1625C94.55 45.2808 95.015 45.3729 95.4025 45.4628C95.635 45.5538 95.7125 45.7813 95.7125 46.0531V50.2321C95.7125 50.9134 95.635 51.3218 95.4025 51.4583C95.2475 51.5948 94.6275 51.6858 93.62 51.7313V52.1396H100.208V51.7313C99.1225 51.6846 98.58 51.5493 98.425 51.4583C98.27 51.3218 98.115 50.9134 98.115 50.2321V48.4156C98.115 47.0529 98.425 46.1441 99.045 45.7358C99.665 45.3274 100.595 45.0999 101.525 45.0999C102.3 45.0544 103.075 45.2364 103.54 45.5993C103.928 45.9178 104.083 46.5536 104.083 47.3703V50.1866C104.083 50.8679 104.005 51.2763 103.772 51.4128C103.617 51.5493 102.997 51.6403 101.99 51.6858V52.0941H108.578V51.6858C107.493 51.6391 106.873 51.5038 106.718 51.4128C106.563 51.2763 106.407 50.8679 106.407 50.1866V48.3701C106.407 47.6888 106.407 47.2349 106.485 46.9619C106.562 46.5069 106.873 46.0531 107.338 45.6903C107.958 45.2353 108.888 45.0089 109.818 45.0544C110.593 45.0089 111.368 45.1909 111.833 45.5538C112.22 45.9178 112.375 46.5081 112.375 47.3248V50.1411C112.375 50.8224 112.297 51.2308 112.065 51.3673C111.91 51.5038 111.29 51.5948 110.282 51.6403V52.0486H116.792V51.6403C115.707 51.5936 115.165 51.5038 115.01 51.3673C114.855 51.2763 114.7 50.9123 114.7 50.1866ZM120.667 43.2368C121.074 43.2354 121.464 43.1378 121.752 42.9649C122.062 42.7841 122.218 42.5566 122.218 42.3291C122.218 42.1028 122.062 41.8741 121.752 41.6933C121.611 41.6069 121.442 41.5384 121.255 41.4916C121.069 41.4448 120.869 41.4207 120.667 41.4207C120.466 41.4207 120.266 41.4448 120.08 41.4916C119.893 41.5384 119.724 41.6069 119.583 41.6933C119.273 41.8298 119.118 42.0573 119.118 42.3291C119.118 42.5566 119.273 42.8284 119.583 42.9649C119.871 43.1382 120.26 43.2351 120.667 43.2368ZM122.373 51.3684C122.218 51.2308 122.14 50.8224 122.14 50.1411V44.1911C120.745 44.5994 119.195 44.8269 117.645 44.8269V45.2353H118.265C118.653 45.1909 119.118 45.2353 119.505 45.3718C119.738 45.4628 119.815 45.6903 119.815 46.0076V50.1411C119.815 50.8224 119.738 51.2308 119.505 51.3673C119.35 51.5038 118.73 51.5948 117.723 51.6403V52.0486H124.31V51.6403C123.148 51.5936 122.528 51.5049 122.373 51.3684ZM138.958 51.3218C138.803 51.2308 138.725 50.8224 138.725 50.1411V46.9164C138.802 46.4171 138.725 45.9633 138.493 45.5083C137.95 44.6449 136.787 44.1911 134.85 44.1911C133.866 44.1697 132.886 44.2764 131.976 44.5039C131.067 44.7314 130.249 45.0744 129.58 45.5094V44.1911C128.185 44.5994 126.635 44.8269 125.085 44.8269V45.2353H125.705C126.092 45.2353 126.48 45.2819 126.868 45.3718C127.1 45.4628 127.177 45.6903 127.177 46.0076V50.1866C127.177 50.8679 127.1 51.2308 126.868 51.3673C126.635 51.5038 126.092 51.5948 125.085 51.6858V52.0941H131.672V51.6858C130.587 51.5948 129.967 51.5038 129.812 51.3673C129.658 51.2308 129.502 50.8224 129.502 50.1866V48.2791C129.502 47.7343 129.58 47.2349 129.735 46.6889C130.122 45.5993 131.363 45.0544 133.3 45.0544C134.385 45.0544 135.16 45.2364 135.625 45.5538C136.09 45.8723 136.323 46.4626 136.323 47.3248V50.1411C136.4 50.5494 136.322 50.9578 136.09 51.3218C135.935 51.5038 135.237 51.5948 134.23 51.6858V52.0941H140.818V51.6858C139.733 51.5948 139.113 51.5038 138.958 51.3218ZM155 44.3731L154.69 44.1911C153.45 44.3276 152.21 44.4186 150.97 44.4186H150.272C149.497 44.2821 148.723 44.1911 147.948 44.1911C146.553 44.1456 145.235 44.4186 144.15 44.9179C143.143 45.3729 142.6 46.0531 142.677 46.8254C142.677 47.9163 143.685 48.7329 145.7 49.2778L143.142 50.5039V50.7769C143.142 51.2319 143.685 51.5493 144.848 51.6858L142.057 52.5491C141.825 52.6389 141.748 52.8209 141.748 53.0928C141.748 53.6843 141.98 54.2291 142.6 54.6829C143.142 55.0913 143.918 55.4098 144.77 55.5918C145.778 55.8181 146.785 55.9546 147.87 55.9546C149.342 56.0001 150.815 55.7271 152.055 55.2278C153.295 54.7284 154.147 53.9106 154.147 53.0484C154.225 52.2306 153.373 51.5038 152.055 51.2308C151.114 51.0042 150.121 50.8664 149.11 50.8224C148.16 50.767 147.224 50.6452 146.32 50.4596C145.932 50.3686 145.777 50.2776 145.777 50.0956C145.777 49.9136 146.01 49.6873 146.552 49.4598H147.56C148.878 49.5064 150.195 49.2334 151.203 48.6874C152.133 48.2336 152.675 47.5523 152.675 46.8254C152.675 46.1896 152.287 45.5538 151.512 45.0544H154.225L155 44.3731ZM146.01 51.7768L148.568 52.0486C149.11 52.0953 149.652 52.1851 150.195 52.2761C151.28 52.4126 152.055 53.0029 151.978 53.6388C151.978 54.1381 151.59 54.6374 150.815 54.9559C149.962 55.3188 148.955 55.5008 147.948 55.4553C146.863 55.5008 145.855 55.2733 145.002 54.9104C144.227 54.5919 143.84 54.0471 143.84 53.5023C143.84 53.1838 143.995 52.8664 144.305 52.6389C144.77 52.2761 145.39 52.0043 146.01 51.7768ZM148.025 49.0514C147.173 49.0514 146.398 48.7784 146.01 48.3246C145.468 47.7798 145.157 47.1894 145.235 46.5536C145.157 46.0543 145.39 45.5538 145.932 45.0999C146.397 44.7371 147.095 44.5551 147.792 44.5551C148.567 44.5551 149.265 44.7814 149.575 45.1909C150.04 45.7358 150.272 46.3716 150.195 46.9619C150.272 48.3246 149.498 49.0071 148.025 49.0514Z" fill="#BC9A61"/>
<path d="M104.16 34.7445H102.533V34.3361H106.563V34.7445H104.935V37.3788H104.238L104.16 34.7445ZM107.26 34.335H108.268L109.895 36.6065L111.523 34.3361H112.608V37.3788H111.91V34.881L110.205 37.3776H109.74L108.035 34.881V37.3776H107.338V34.3361L107.26 34.335ZM86.0251 32.7915C83.8457 31.3409 82.704 29.4315 82.8476 27.4773L82.9251 26.978L83.7775 27.1145C83.855 27.1145 92.4575 28.4316 96.72 26.2056C100.828 24.0263 102.378 18.984 97.0301 13.8973C92.0701 9.08363 79.9025 4.04247 77.5 3.08813C75.0975 4.04247 63.0075 9.08363 57.97 13.8973C52.7 18.984 54.1726 24.0263 58.2801 26.2056C62.5426 28.4316 71.1451 27.1145 71.2226 27.1145L72.075 26.978L72.1525 27.4773C72.2961 29.4315 71.1544 31.3409 68.975 32.7915C66.03 34.699 61.3025 35.6533 54.87 35.6533V37.3788C62.0775 37.3788 67.5801 36.2436 71.1451 33.9266C72.5438 33.0615 73.6198 32.0266 74.3014 30.8912C74.983 29.7557 75.2544 28.5457 75.0976 27.342C75.0201 26.4786 74.865 25.662 74.6325 24.7986L70.4475 25.4333C68.665 25.7063 62.7751 26.2511 60.2176 24.8885C56.9626 23.2085 55.9551 19.075 60.3726 14.7618C64.4026 10.9001 73.3925 6.85763 77.5 5.13214C81.53 6.81214 90.5976 10.9001 94.5501 14.7606C99.0451 19.075 97.96 23.163 94.705 24.8885C92.1475 26.2068 86.2575 25.7063 84.475 25.4345L80.2901 24.7531C80.0576 25.5698 79.9025 26.4331 79.825 27.2965C79.515 29.7033 80.9875 32.1101 83.7775 33.8811C87.3425 36.1526 92.7675 37.3333 99.975 37.3333V35.6066C93.775 35.6533 88.9701 34.699 86.0251 32.7915Z" fill="#B9131A"/>
<path d="M99.665 28.1132C105.245 25.207 107.415 18.8942 100.828 12.5802C94.705 6.76667 80.135 1.04417 79.515 0.772334L77.5 0L75.485 0.772334C74.865 0.998667 60.295 6.72233 54.1725 12.5813C47.585 18.9397 49.755 25.207 55.335 28.1132C58.6675 29.8398 63.24 30.1572 66.805 30.0662C66.495 30.4302 66.1075 30.793 65.565 31.066C63.4725 32.3832 59.83 33.0645 54.7925 33.0645V34.79C60.76 34.79 65.1 33.9267 67.8125 32.2012C69.5214 31.0598 70.5328 29.6018 70.68 28.0677C68.2 28.3862 61.3025 28.9765 57.2725 26.8427C52.6225 24.3892 50.84 18.9852 56.6525 13.489C62.465 7.994 76.4925 2.45233 77.1125 2.226L77.5 2.0895L77.8875 2.226C78.5075 2.45233 92.535 7.9485 98.3475 13.489C104.16 19.0307 102.378 24.3892 97.7275 26.8415C93.6975 28.931 86.8 28.3407 84.32 28.0677C84.3975 29.6123 85.405 31.066 87.1875 32.2012C89.8225 33.9278 94.24 34.79 100.13 34.79V33.0633C95.0925 33.0633 91.45 32.3832 89.3575 31.066C88.9019 30.7526 88.4873 30.4183 88.1175 30.0662C91.76 30.1572 96.3325 29.8398 99.665 28.1132Z" fill="#B9131A"/>
</g>
</svg>
