<svg width="155" height="56" viewBox="0 0 155 56" fill="none" xmlns="http://www.w3.org/2000/svg">
<mask id="mask0_3_1240" style="mask-type:luminance" maskUnits="userSpaceOnUse" x="0" y="0" width="155" height="56">
<path d="M0 0H155V56H0V0Z" fill="white"/>
</mask>
<g mask="url(#mask0_3_1240)">
<path d="M1.93683 15.9227C2.01499 14.9777 2.32499 14.0327 2.71183 13.3583C3.09999 12.8193 3.64316 12.5487 4.10683 12.5487C4.95999 12.4133 5.88999 12.4133 6.74316 12.4133H19.7632C19.685 14.3033 19.4518 16.1933 19.22 17.948C19.065 19.026 18.6768 19.838 18.135 20.3747C17.7468 20.6453 17.36 20.7807 16.9718 20.916C16.1982 21.0513 15.4218 21.1867 14.6468 21.0513H6.74316C6.58816 21.0513 6.50999 21.1867 6.35499 21.3197C6.27329 21.4682 6.21922 21.657 6.19999 21.861C6.19999 22.2647 6.12316 22.6707 6.12316 23.2097H13.8732C14.8018 23.2097 15.7318 23.2097 16.585 23.345C17.1282 23.345 17.67 23.7487 18.135 24.29C18.445 24.9643 18.5232 25.774 18.5232 26.7167V27.1227C18.5232 27.7993 18.445 29.4163 18.2118 31.8453L18.0582 34.139C17.9032 35.8937 17.7468 37.6483 17.4382 39.403C17.36 40.0773 17.205 40.7517 16.9718 41.293C16.6285 41.8613 16.1968 42.2366 15.7318 42.371C14.57 42.5063 13.4068 42.6417 12.245 42.6417H4.64999C3.48683 42.6417 2.32499 42.6417 1.23999 42.5063C0.851832 42.371 0.543155 41.9673 0.309992 41.5613C0.154992 40.8847 -6.01697e-06 40.2127 0.0768316 39.403C0.154994 37.6483 0.23183 35.8937 0.388155 34.139H12.7087C12.8637 34.139 12.9405 34.0037 13.0187 33.8707C13.0968 33.6 13.1737 33.3293 13.1737 33.194C13.2505 32.7903 13.2505 32.3867 13.2505 31.9807H4.64999C3.71999 31.9807 3.02183 31.9807 2.55683 31.8453C2.01499 31.8453 1.54999 31.5747 1.16316 31.0357C0.929994 30.3613 0.774992 29.687 0.774992 28.8773V28.2007C0.85183 27.3933 1.00683 25.774 1.16316 23.345L1.31683 21.1867C1.54999 19.432 1.70499 17.6773 1.93683 15.9227ZM23.4818 52.087C23.25 52.8967 22.94 53.4357 22.63 53.977C22.32 54.3807 22.01 54.6513 21.6232 54.7843C21.1731 55.0505 20.7016 55.1876 20.2268 55.1903C19.84 55.3257 19.375 55.3257 18.9868 55.3257H17.36C17.7482 54.649 18.0582 54.2453 18.2118 54.1123L18.6782 53.3003C18.8318 53.032 18.91 52.7613 18.91 52.4907C18.9868 52.2223 18.9868 51.8163 18.9868 51.548L19.6068 42.91L21.1568 23.4803L21.3118 21.1867C21.4668 19.026 21.6218 17.542 21.7 16.8677C21.7768 15.9227 22.01 14.9777 22.32 14.168C22.785 13.3583 23.4818 12.8193 24.1032 12.8193C25.0318 12.684 25.9618 12.5487 26.8918 12.684H34.7982C35.5718 12.684 36.425 12.684 37.2 12.8193C38.285 12.9547 38.905 13.3583 39.1368 14.168C39.2918 14.7093 39.37 15.3813 39.2918 15.9227V17.136C39.215 18.6223 39.1368 19.971 38.9832 21.3197C38.905 22.8037 38.5168 27.1227 37.8968 34.4097C37.7908 35.9895 37.6619 37.5642 37.51 39.1323C37.4318 40.2127 37.2 41.1553 36.735 41.832C36.3482 42.371 35.8832 42.777 35.34 42.777C34.4868 42.91 33.5568 43.0453 32.6282 42.91H24.49L23.7932 50.197C23.7932 50.8737 23.6382 51.548 23.4818 52.087ZM31.465 34.2743H32.55C32.6282 34.139 32.705 34.139 32.7818 34.0037C32.86 33.7353 32.9368 33.6 33.015 33.3293C33.0932 32.9257 33.0932 32.5197 33.0932 32.2513L33.945 21.3197H26.8932C26.7382 21.3197 26.505 21.455 26.4282 21.5903C26.3311 21.7747 26.2759 22.0156 26.2732 22.267C26.195 22.6707 26.1182 23.0743 26.1182 23.4803L25.265 34.2743H31.465ZM47.1968 12.5487L45.415 34.2743C45.3368 35.8937 45.105 37.3777 44.95 38.997C44.8718 40.0773 44.64 41.0223 44.2518 41.6967C43.7882 42.371 43.1668 42.6417 42.5468 42.6417C42.0832 42.6417 41.23 42.777 39.9118 42.777H38.2863C38.5963 42.371 38.8295 41.9673 39.0613 41.426C39.2932 41.1577 39.4482 40.7517 39.6813 40.481C39.7566 40.3631 39.8164 40.2176 39.8564 40.0548C39.8965 39.892 39.9158 39.7157 39.9132 39.5383C39.9913 39.1323 40.0682 38.7287 40.0682 38.325L42.1613 12.4157L47.1968 12.5487ZM47.43 10.3903H42.3918L42.47 8.771C42.7018 6.47733 42.8568 4.858 42.9337 4.18366C43.025 3.21396 43.2371 2.29195 43.555 1.484C43.9418 0.809666 44.485 0.405998 45.0268 0.270665C46.1132 0.135332 47.12 0 48.205 0L47.43 10.3903ZM49.755 16.597C49.8318 15.652 50.065 14.707 50.375 13.8997C50.685 13.223 51.2282 12.6863 51.77 12.6863C52.4668 12.5487 53.2418 12.4133 54.0182 12.5487H65.41C65.9532 12.5487 66.495 12.684 66.96 13.2253C67.3482 13.8997 67.58 14.8447 67.5032 15.9227C67.5032 16.7323 67.425 18.487 67.1932 21.1843L67.0382 23.345L66.34 31.9807L66.185 34.2743C66.1068 36.029 65.875 37.6483 65.72 39.2677C65.6537 40.0607 65.4659 40.8069 65.1768 41.426C64.79 42.1027 64.4032 42.5063 63.86 42.6393C62.775 42.777 61.6132 42.91 60.45 42.91L61.1468 34.2767L61.3018 31.9807L62 23.345L62.155 21.1867H54.9482C54.7932 21.1867 54.715 21.1867 54.56 21.3197C54.4832 21.5903 54.3282 21.7257 54.3282 21.9963C54.3282 22.4 54.25 22.8037 54.25 23.345L53.475 32.116L53.32 34.4097C53.165 36.568 53.01 38.052 52.9332 38.8617C52.8641 39.9072 52.6212 40.8935 52.235 41.6967C51.77 42.371 51.2282 42.777 50.6068 42.91C50.1432 42.91 49.2118 43.0453 47.8168 43.0453H46.19C46.655 42.371 46.965 41.9673 47.0432 41.6967C47.275 41.426 47.43 41.02 47.6632 40.7517C47.74 40.481 47.8168 40.348 47.8168 40.075C47.895 39.6713 47.9718 39.2677 47.9718 38.7287L48.36 34.4097L48.515 32.2513L49.2118 23.6157L49.3668 21.455C49.5218 18.8907 49.6768 17.4067 49.755 16.597ZM69.9831 16.4617C70.06 15.519 70.37 14.5717 70.7582 13.7643C71.145 13.223 71.61 12.9547 72.075 12.8193C72.7718 12.684 73.47 12.5487 74.1682 12.684H84.0868C84.7837 12.684 85.4805 12.684 86.1787 12.8193C86.5655 12.8193 86.9537 13.2253 87.2637 13.629C87.5737 14.3057 87.6518 15.113 87.6518 16.0557C87.5737 17.8127 87.4955 19.5673 87.3418 21.3197L87.1855 23.6133L86.4887 32.2513L86.3337 34.4097C86.1787 36.7033 86.0237 38.1897 85.9455 38.997C85.8687 39.942 85.6355 40.887 85.3255 41.5613C84.9387 42.238 84.5505 42.6417 84.0087 42.7747C82.9237 42.91 81.7605 43.0453 80.5987 43.0453L81.2955 34.4097L81.4518 32.2513L82.1487 23.6157L82.3037 21.3197H81.3737C81.23 21.3245 81.0921 21.4207 80.9855 21.5903C80.9087 21.861 80.8305 22.1293 80.8305 22.4C80.8305 22.8037 80.7537 23.0767 80.7537 23.4803L80.0568 32.1137L79.9018 34.2743C79.8237 36.029 79.5918 37.6483 79.4368 39.403C79.3465 40.2776 79.1022 41.08 78.7387 41.6967C78.4287 42.1003 78.0405 42.5063 77.6537 42.6417C76.4918 42.91 75.3287 43.0453 74.1655 42.91L74.8637 34.2767L75.0187 32.116L75.7155 23.4803L75.8718 21.1867H75.0955C74.9405 21.1867 74.7855 21.1867 74.7087 21.455C74.6305 21.7257 74.5537 21.9963 74.5537 22.2647C74.5537 22.6707 74.4768 23.0743 74.4768 23.478L73.6237 32.116L73.4687 34.2743C73.3137 36.029 73.1587 37.919 72.8487 39.6713C72.7645 40.5811 72.4876 41.4009 72.0737 41.965C71.6414 42.4949 71.1272 42.7783 70.6005 42.777C70.1368 42.777 69.2837 42.91 67.8887 42.91H66.2618C66.7255 42.2357 67.0368 41.832 67.1137 41.5613C67.3455 41.2907 67.5787 41.0223 67.7337 40.6163L67.9655 39.8067C67.9655 39.5383 68.0437 39.1323 68.0437 38.7287L68.4318 34.4097L68.5855 32.2513L69.2837 23.6157L69.4387 21.3197C69.7487 18.7553 69.905 17.1383 69.9831 16.4617ZM105.943 12.684C106.33 12.684 106.718 12.9547 107.028 13.3607C107.415 14.035 107.648 14.9777 107.571 15.9227C107.571 16.1933 107.571 16.4617 107.492 16.7323C107.415 18.2163 107.338 19.7003 107.183 21.1867L106.64 28.0677L106.176 34.2743C106.097 36.1643 105.865 38.0543 105.633 39.9443C105.555 40.7517 105.245 41.426 104.935 41.9673C104.548 42.371 104.16 42.6417 103.773 42.777C102.639 42.9368 101.501 43.0263 100.363 43.0453H92.69C91.605 43.0453 90.52 43.0453 89.435 42.777C89.0482 42.6417 88.66 42.371 88.35 41.832C88.1182 41.1553 88.04 40.481 88.04 39.6713V39.2677C88.04 38.458 88.195 36.7033 88.35 34.2743L88.5831 31.9807C88.7381 29.8223 88.8931 28.3383 88.97 27.5287C89.0481 26.4483 89.28 25.368 89.6681 24.5583C90.055 24.0193 90.52 23.6157 91.0631 23.6157C91.9931 23.4803 92.845 23.345 93.775 23.4803H101.758C101.913 23.4803 101.99 23.345 102.068 23.2097C102.145 23.0743 102.145 22.8037 102.145 22.6707C102.223 22.2647 102.223 21.7257 102.223 21.3197H94.395C93.155 21.3197 92.225 21.3197 91.8381 21.1843C91.3731 21.1843 90.9082 20.7807 90.52 20.1063C90.2739 19.2231 90.1418 18.255 90.1332 17.2713V12.684H103.773C104.47 12.5487 105.168 12.684 105.943 12.684ZM93.8532 32.116C93.775 32.116 93.6981 32.2513 93.62 32.3867C93.5232 32.6722 93.4698 32.9969 93.465 33.3293C93.465 33.7353 93.3881 34.006 93.3881 34.2743H100.905C100.983 34.2743 101.06 34.139 101.138 34.0037C101.235 33.8199 101.29 33.5799 101.293 33.3293C101.37 32.9257 101.37 32.3867 101.37 31.9807H94.395C94.24 31.9807 94.0095 31.9807 93.8532 32.116ZM115.785 0H117.413C117.8 0 118.265 1.32124e-06 118.653 0.135335C119.118 0.135335 119.505 0.406002 119.893 0.945002C120.125 1.61933 120.28 2.429 120.203 3.23867C120.203 4.99333 120.048 6.748 119.893 8.50033L119.583 12.5487H127.333C127.255 14.3033 127.023 16.058 126.79 17.8127C126.713 18.7577 126.325 19.7027 125.86 20.377C125.473 20.7807 125.085 20.9137 124.62 21.0513C124.155 21.1867 123.148 21.1867 121.598 21.1867H118.885L118.73 23.4803L118.033 32.1137L117.878 34.2743H125.628C125.55 36.029 125.318 37.7837 125.163 39.403C125.073 40.2776 124.828 41.0799 124.465 41.6967C124.063 42.2707 123.582 42.6439 123.07 42.777C122.063 42.91 121.133 43.0453 120.125 42.91H116.948C115.94 42.91 114.933 42.91 113.925 42.777C113.46 42.777 112.995 42.371 112.685 41.6967C112.535 41.1491 112.456 40.5499 112.453 39.942V38.997C112.53 38.1873 112.685 36.7033 112.84 34.4097L112.995 32.2513L113.693 23.6157L113.848 21.3197H108.887C109.12 18.893 109.275 17.2713 109.275 16.597C109.352 15.3837 109.663 14.4387 110.205 13.629C110.67 13.223 111.135 12.9523 111.6 12.9523C112.375 12.8193 113.073 12.8193 113.848 12.8193H114.623L115.32 4.046V2.83267C115.32 2.56433 115.32 2.296 115.243 2.15833C115.165 1.89 115.01 1.61933 114.855 1.34866C114.623 0.944998 114.39 0.674331 114.158 0.270665L115.785 0ZM134.773 12.5487L132.99 34.2743C132.913 35.8937 132.758 37.3777 132.525 38.997C132.448 40.0773 132.215 41.0223 131.828 41.6967C131.363 42.371 130.743 42.6417 130.123 42.777C129.658 42.777 128.805 42.91 127.488 42.91H125.86C126.17 42.5063 126.403 42.1003 126.635 41.5613C126.868 41.2907 127.023 40.8847 127.255 40.6163C127.331 40.4983 127.391 40.3525 127.431 40.1893C127.471 40.0261 127.491 39.8493 127.488 39.6713C127.565 39.2677 127.643 38.8617 127.643 38.458L129.735 12.5487H134.773ZM134.928 10.3903H129.968L130.045 8.771C130.278 6.47733 130.433 4.858 130.51 4.18366C130.588 3.23866 130.82 2.29367 131.13 1.484C131.518 0.809666 131.983 0.405998 132.525 0.270665C133.61 0.135332 134.695 1.32124e-06 135.78 0.135335L134.928 10.3903ZM149.963 12.684H155C154.768 15.113 154.613 16.7323 154.535 17.6773C154.458 18.6223 154.225 19.5673 153.838 20.2417C153.295 20.916 152.675 21.3197 152.055 21.3197C151.59 21.3197 150.738 21.3197 149.343 21.455H143.065C142.755 21.3197 142.368 21.455 142.058 21.455C141.98 21.455 141.825 21.455 141.748 21.5903C141.67 21.861 141.593 21.9963 141.515 22.267C141.515 22.6707 141.438 23.0743 141.438 23.4803L140.508 34.2743H153.218C153.14 36.029 152.908 37.7837 152.753 39.403C152.681 40.3266 152.435 41.1809 152.055 41.8297C151.59 42.371 151.048 42.6417 150.505 42.6417C150.04 42.6417 149.11 42.777 147.638 42.777H139.733C138.648 42.777 137.563 42.777 136.478 42.5063C136.09 42.371 135.703 41.9673 135.393 41.426C135.242 40.7846 135.163 40.0976 135.16 39.403V39.1323C135.16 38.3227 135.315 36.7057 135.548 34.2743C135.703 32.7903 135.858 30.632 136.09 27.6617C136.323 24.6937 136.555 22.5353 136.633 21.0513C136.865 18.6223 137.02 17.003 137.02 16.1933C137.098 15.2483 137.408 14.3033 137.795 13.4937C138.183 12.9547 138.725 12.5487 139.19 12.5487C140.043 12.4133 140.973 12.2803 141.825 12.4133L149.963 12.684ZM32.395 49.1167H30.69L30.4568 51.548H31.8518L31.775 52.4907H30.38L30.1468 54.9197H32.085L32.0068 55.8647H29.3718L30.1468 48.3093H32.55L32.395 49.1167ZM42.625 56H42.3918L40.6868 51.9517C40.455 51.4127 40.0668 50.603 39.9118 49.9287C39.835 50.603 39.7568 51.2773 39.7568 51.9517L39.37 55.8647H38.6718L39.4468 48.3093H39.9118L41.4618 51.9517C41.695 52.4907 42.005 53.3003 42.2368 53.8417C42.315 53.3003 42.315 52.6283 42.3918 51.9517L42.78 48.3093H43.4L42.625 56ZM53.3982 49.1167H52.0032L51.305 55.8647H50.6082L51.305 49.119H49.91L49.9882 48.3093H53.475L53.3982 49.1167ZM62.3868 49.1167H60.6818L60.45 51.4127H61.845L61.7668 52.3577H60.295L60.0618 54.7843H62L61.9218 55.7293H59.2868L60.0618 48.174H62.465L62.3868 49.1167ZM71.455 55.8647L70.37 52.4907H69.75L69.44 55.8647H68.7432L69.5182 48.3093H70.835C71.455 48.3093 71.92 48.9837 71.9982 50.0617V50.197C71.9982 51.2773 71.61 52.2223 70.99 52.3577L72.1518 55.8647H71.455ZM70.68 49.119H70.06L69.75 51.5457H70.37C70.835 51.5457 71.2232 50.8713 71.3 50.0617C71.3 49.525 71.0682 48.9837 70.68 49.119ZM82.0718 49.1167H80.6795L79.9813 55.8647H79.2845L79.9813 49.119H78.5863L78.6632 48.174H82.1513L82.0732 49.119L82.0718 49.1167ZM90.52 55.8647L90.21 53.8417H88.505L87.8081 55.8647H87.11L89.745 48.0387H89.9768L91.0631 55.8647H90.52ZM89.9 51.0067C89.8232 50.7383 89.8232 50.3323 89.8232 50.0617C89.745 50.3323 89.6668 50.7383 89.5118 51.0067L88.8931 52.8967H90.1332L89.9 51.0067ZM98.6568 55.8647H98.0368L98.8118 48.3093H99.51L98.6568 55.8647ZM109.74 56H109.585L107.88 51.9517C107.648 51.4127 107.26 50.603 107.105 49.9287C107.028 50.603 107.028 51.2773 106.95 51.9517L106.562 55.8647H105.865L106.64 48.3093H107.105L108.655 51.9517C108.887 52.4907 109.198 53.3003 109.43 53.8417C109.43 53.3003 109.507 52.6283 109.585 51.9517L109.973 48.3093H110.67L109.74 56ZM121.752 55.8647H121.132L121.287 52.3577C121.287 51.8163 121.365 51.1443 121.365 50.603C121.178 51.2399 120.943 51.83 120.667 52.3577L119.272 55.8647H119.04L118.342 52.3577C118.265 51.8163 118.11 51.1443 118.032 50.603C117.955 51.142 117.877 51.8163 117.8 52.3577L117.257 55.8647H116.637L117.8 48.174H118.187L118.962 52.087C119.117 52.626 119.195 53.4357 119.35 54.11C119.505 53.5733 119.815 52.7613 120.125 52.087L121.675 48.174H122.14L121.752 55.8647ZM131.75 49.1167H130.045L129.812 51.548H131.207L131.13 52.4907H129.657L129.425 54.9197H131.44L131.362 55.8647H128.65L129.425 48.3093H131.827L131.75 49.1167ZM141.98 56H141.825L140.12 51.9517C139.888 51.4127 139.5 50.603 139.345 49.9287C139.268 50.603 139.19 51.2773 139.19 51.9517L138.803 55.8647H138.183L138.958 48.3093H139.423L140.973 51.9517C141.205 52.4907 141.515 53.3003 141.748 53.8417C141.825 53.3003 141.825 52.6283 141.903 51.9517L142.29 48.3093H142.988L141.98 56ZM152.753 49.1167H151.358L150.66 55.8647H149.963L150.66 49.119H149.265L149.343 48.174H152.83L152.753 49.1167Z" fill="white"/>
</g>
</svg>
