<svg width="155" height="56" viewBox="0 0 155 56" fill="none" xmlns="http://www.w3.org/2000/svg">
<path d="M23.4151 20.2103C23.4151 20.2103 19.6582 0 11.8078 0H0.00126122V28.8416C0.00126122 31.6681 1.61118 36.3022 3.18832 36.3022H16.5039L16.3703 39.99H5.90389C1.67674 39.99 0 35.7502 0 35.7502C0 35.7502 3.55519 56 12.5465 56H23.4138V28.0015C23.4138 24.7625 22.6095 20.0557 19.5901 20.0557H6.90993V15.6582H18.047C20.7979 15.6582 23.4151 20.2103 23.4151 20.2103Z" fill="#9E4796"/>
<path d="M58.9141 7.54546H59.465C59.4335 9.03151 59.934 12.1098 58.8826 11.8217C58.8826 10.3963 58.8952 8.97086 58.9141 7.54546ZM29.6228 9.48036C31.1294 7.47873 32.9372 7.38472 34.6203 7.64554C36.0222 8.01553 37.5703 8.94356 38.4453 11.7549C38.9798 13.3411 39.092 15.4064 39.1954 17.3413L38.5259 17.2867C38.5713 13.8233 37.5628 10.5115 36.123 9.64413C34.4376 8.72149 32.6883 8.70286 30.9995 9.58954C29.8813 10.1749 28.8525 12.3857 28.7983 15.1759C28.7 17.5505 29.3404 19.8767 30.2645 20.8168C32.7469 23.3401 35.6263 22.8609 38.0204 25.9604C39.8825 28.3684 39.9568 35.6561 38.0923 38.1642C35.9365 41.1849 33.2133 41.2516 30.8558 39.6291C29.4249 38.7374 28.1327 36.1475 27.8642 32.6234C27.7545 31.3132 27.4418 28.6838 28.3962 29.0811C28.1403 32.5991 28.9736 36.2627 30.3503 37.767C31.8379 39.5896 33.5651 39.2864 35.1863 39.1742C36.6349 38.8436 38.3305 37.2756 38.7844 33.7212C39.2004 30.6339 38.3381 27.2797 37.0446 26.3698C34.788 24.6715 32.3876 24.1529 30.1574 22.2089C29.111 21.1262 28.1541 18.7515 28.2184 15.9098C28.1138 13.3684 28.6521 10.7177 29.6228 9.48036ZM154.385 7.8457L154.84 8.3643C154.908 17.8114 154.845 27.2797 154.86 36.7328C154.868 37.9216 154.926 39.1044 155 40.2811L154.353 40.2417C154.376 29.445 154.317 18.6454 154.385 7.8457ZM65.471 20.5409C65.5082 20.4901 65.5401 20.4195 65.5643 20.3346C66.8641 15.8279 69.7675 15.4215 71.6724 17.9387C72.56 19.2034 73.1954 21.4567 73.213 23.9315C73.2458 29.1387 73.1916 34.3551 73.2344 39.5654C73.2359 39.6577 73.2293 39.7498 73.215 39.8355C73.2006 39.9212 73.1789 39.9987 73.1512 40.0628C73.1231 40.1306 73.0897 40.1843 73.0529 40.2207C73.0161 40.2571 72.9767 40.2756 72.9369 40.2751H72.884C72.8048 40.2711 72.7291 40.1953 72.6722 40.0628C72.6454 39.9983 72.6243 39.9216 72.61 39.8373C72.5957 39.7529 72.5886 39.6625 72.589 39.5714C72.6053 34.8009 72.5953 30.0304 72.5978 25.2629C72.589 23.4584 72.4515 21.4962 71.8767 20.1769C70.9689 17.8417 69.4712 17.502 68.213 18.0267C66.4934 18.6332 65.2214 22.5728 65.2063 26.5488C65.1747 30.8856 65.2126 35.2316 65.1911 39.5714C65.1896 39.6781 65.1782 39.7827 65.1577 39.8774C65.1373 39.9722 65.1083 40.0548 65.073 40.1193C65.0376 40.1838 64.9967 40.2285 64.9532 40.2502C64.9098 40.2719 64.8649 40.27 64.8217 40.2447L64.8154 40.2387C64.7512 40.2014 64.6938 40.1153 64.6516 39.993C64.61 39.8739 64.5868 39.7239 64.586 39.5684C64.5545 32.7962 64.5961 26.0241 64.5658 19.255C64.5658 19.2307 64.5658 19.2064 64.5683 19.1822C64.6137 18.3178 64.4549 15.8704 65.1785 17.0319C65.21 18.3421 65.1785 19.6553 65.1521 20.9654C65.2302 20.8654 65.3727 20.6743 65.471 20.5409ZM82.2447 16.486C83.4228 16.2219 84.6079 16.7633 85.6637 18.0479C88.3591 21.7479 88.7449 31.2071 86.9081 36.754C84.8077 42.5951 80.2465 42.2736 78.4916 35.644C77.1578 30.3064 77.4679 22.2695 79.7472 18.5787C80.4684 17.2867 81.3723 16.8439 82.2447 16.486ZM81.0319 18.4695C78.218 20.8714 77.575 30.0243 79.1572 35.4014C80.5566 40.181 83.6579 40.7603 85.6259 37.6669C88.1007 33.4635 88.0515 23.3401 85.4822 19.3732C84.161 17.502 82.4767 17.3807 81.0319 18.4695ZM114.001 17.9842C116.047 15.4519 118.848 15.9887 120.508 19.9313C121.503 22.3514 121.604 25.7936 121.779 28.9386C118.644 29.1418 115.503 28.8597 112.368 29.0751C111.957 33.3088 113.359 38.7496 115.368 39.2469C117.115 40.1143 119.279 39.1408 120.279 35.3529C120.592 34.5613 120.687 32.6537 121.388 33.694C120.351 41.0332 116.097 42.7316 113.525 38.9315C112.166 36.8996 111.692 32.9995 111.609 29.439C111.537 25.0415 112.294 20.2376 114.001 17.9842ZM114.356 19.0548C113.026 20.7774 112.301 24.3136 112.209 27.771C115.149 27.7831 118.087 27.8377 121.023 27.7406C120.868 24.817 120.512 21.6721 119.439 19.8433C118.017 17.2655 115.928 17.1987 114.356 19.0548ZM126.775 21.1686C128.006 15.8006 131.29 15.1911 133.325 18.2208C133.717 18.8426 134.042 19.6787 134.274 20.6607C134.505 21.6427 134.637 22.7427 134.659 23.8708C134.719 29.3359 134.647 34.81 134.69 40.2841C134.457 40.2667 134.224 40.2525 133.992 40.2417C134.023 34.81 134.018 29.3753 134 23.9436C134.006 20.4954 132.566 18.054 131.189 17.8781C129.124 16.9986 126.928 20.4226 126.712 25.4084C126.67 30.3576 126.678 35.3086 126.736 40.2569L126.049 40.2751C126.092 32.5567 126.038 24.8322 126.083 17.1138C126.245 17.0592 126.566 16.944 126.727 16.8833C126.719 18.3087 126.591 19.7675 126.777 21.1686H126.775ZM140.164 20.8229C141.586 16.1039 144.589 15.2729 146.684 17.866C147.466 18.7273 147.862 20.6227 148.526 21.8267C148.509 20.0253 148.477 18.2208 148.471 16.4193C148.668 16.4011 148.868 16.3738 149.07 16.3526C149.077 24.347 149.063 32.3413 149.077 40.3357C148.906 40.3084 148.567 40.2478 148.396 40.2235C148.497 38.5632 148.535 36.8841 148.509 35.2073C147.854 36.6782 147.377 38.6555 146.512 39.529C144.439 42.0098 141.518 41.1182 140.144 36.4507C138.834 31.85 138.848 25.4024 140.164 20.8229ZM142.514 18.3573C139.739 20.744 139.121 29.5967 140.483 35.1133C141.73 40.269 145.066 40.9665 146.909 37.2089C148.911 33.2967 149.012 25.5358 147.411 20.9109C146.224 17.7295 144.167 17.1502 142.514 18.3573ZM47.3446 17.3564C49.2155 15.5671 51.6234 16.3405 53.0089 19.9434C54.5571 24.3136 54.6378 30.9159 53.5258 35.8381C52.2298 41.1455 49.0402 42.3131 46.8302 39.6715C46.0284 38.8102 45.5481 37.0209 45.0173 35.4742C45.0287 39.7595 45.0173 44.0417 45.04 48.3331L44.3681 48.4574C44.3756 37.955 44.3643 27.4525 44.3731 16.9501C44.5433 16.9804 44.8824 17.0259 45.0539 17.0471C45.0312 18.6666 44.9908 20.28 44.953 21.8995C45.7094 20.28 46.3045 18.0479 47.3446 17.3564ZM48.1867 18.1025C44.8244 19.8372 44.068 30.6187 45.9742 36.4022C47.0307 39.4956 48.9331 40.2023 50.5077 39.3955C52.2273 38.6222 53.454 34.7008 53.575 30.734C53.7868 26.9279 53.4565 22.6062 52.163 19.9889C51.0889 17.775 49.5407 17.4292 48.1867 18.1025ZM95.2035 17.0714C96.9017 15.5065 99.2705 16.6771 99.9601 21.0443C101.133 16.298 103.965 15.1213 105.913 17.8387C106.793 19.1155 107.159 21.6448 107.166 23.9648C107.202 29.4238 107.126 34.8889 107.207 40.3509L106.584 40.1901C106.551 34.7615 106.615 29.3359 106.56 23.9163C106.557 20.8654 105.529 18.0085 104.195 17.8932C102.449 17.126 100.443 19.7129 100.21 24.0376C100.123 29.445 100.195 34.8646 100.178 40.2751H99.4886C99.529 34.8282 99.4912 29.3783 99.5176 23.9284C99.5298 22.6663 99.3718 21.4286 99.0673 20.4003C98.7628 19.3721 98.3281 18.6085 97.8283 18.2238C96.7239 17.502 95.414 17.6233 94.5025 19.4187C93.5116 21.296 93.0943 24.3682 93.0981 27.2736C93.0943 31.6104 93.0742 35.9473 93.1208 40.2841L92.5195 40.3023C92.5434 32.5385 92.5371 24.7776 92.5258 17.0198L93.1145 16.9592C93.0981 18.2147 93.0716 19.4733 93.0691 20.7289C93.8306 19.6553 94.2592 17.4626 95.2035 17.0714ZM58.8422 16.9501H59.5545C59.4965 24.7503 59.5293 32.5567 59.5394 40.3569L58.9053 39.9869C58.8561 32.308 58.9809 24.623 58.8422 16.9501Z" fill="white"/>
</svg>
