<svg fill="none" viewBox="0 0 150 56" id="providers--spinomenal" xmlns="http://www.w3.org/2000/svg"><path d="M32.382 25.918s-2.98-6.664-9.207-6.664H13.81v9.51c0 .932 1.277 2.46 2.528 2.46H26.9l-.106 1.216h-8.302c-3.353 0-4.683-1.398-4.683-1.398s2.82 6.677 9.952 6.677h8.62v-9.232c0-1.068-.638-2.62-3.033-2.62H19.29v-1.45h8.834c2.182 0 4.258 1.501 4.258 1.501z" fill="#9E4796"></path><path d="M60.54 21.742h.437c-.025.49.372 1.505-.462 1.41 0-.47.01-.94.025-1.41zm-23.234.638c1.195-.66 2.629-.691 3.964-.605 1.112.122 2.34.428 3.034 1.355.424.523.513 1.204.595 1.842l-.531-.018c.036-1.142-.764-2.234-1.906-2.52a9.34 9.34 0 00-4.064-.018c-.887.193-1.703.922-1.746 1.842-.078.783.43 1.55 1.163 1.86 1.969.832 4.253.674 6.152 1.696 1.477.794 1.536 3.197.057 4.024-1.71.996-3.87 1.018-5.74.483-1.135-.294-2.16-1.148-2.373-2.31-.087-.432-.335-1.299.422-1.168-.203 1.16.458 2.368 1.55 2.864 1.18.601 2.55.501 3.836.464 1.149-.109 2.494-.626 2.854-1.798.33-1.018-.354-2.124-1.38-2.424-1.79-.56-3.694-.731-5.463-1.372-.83-.357-1.589-1.14-1.538-2.077-.083-.838.344-1.712 1.114-2.12zm98.962-.539l.361.171c.054 3.115.004 6.237.016 9.354.006.392.052.782.111 1.17l-.513-.013c.018-3.56-.029-7.12.025-10.681zm-70.527 4.186a.223.223 0 00.074-.068c1.031-1.486 3.334-1.62 4.845-.79.704.417 1.208 1.16 1.222 1.976.026 1.717-.017 3.437.017 5.155a.216.216 0 01-.066.164.238.238 0 01-.17.07h-.042a.249.249 0 01-.168-.07.226.226 0 01-.066-.162c.013-1.573.005-3.146.007-4.718-.007-.595-.116-1.242-.572-1.677-.72-.77-1.908-.882-2.906-.709-1.364.2-2.373 1.499-2.385 2.81-.025 1.43.005 2.863-.012 4.294a.237.237 0 01-.293.222l-.005-.002a.243.243 0 01-.13-.081.222.222 0 01-.052-.14c-.025-2.233.008-4.466-.016-6.698 0-.008 0-.016.002-.024.036-.285-.09-1.092.484-.709.025.432 0 .865-.021 1.297.062-.033.175-.096.253-.14zm13.305-1.337a4.984 4.984 0 012.712.515c2.138 1.22 2.444 4.339.987 6.168-1.666 1.926-5.284 1.82-6.676-.366-1.058-1.76-.812-4.41.996-5.627.572-.426 1.288-.572 1.98-.69zm-.962.654c-2.232.792-2.742 3.81-1.487 5.583 1.11 1.576 3.57 1.767 5.131.747 1.963-1.386 1.924-4.724-.114-6.032-1.048-.617-2.384-.657-3.53-.298zm26.151-.16c1.623-.835 3.845-.658 5.162.642.789.798.869 1.933 1.008 2.97-2.487.067-4.978-.026-7.465.045-.326 1.396.786 3.19 2.38 3.354 1.385.286 3.102-.035 3.895-1.284.248-.261.324-.89.88-.547-.823 2.42-4.197 2.98-6.237 1.727-1.078-.67-1.454-1.956-1.52-3.13-.057-1.45.543-3.033 1.897-3.776zm.282.353c-1.055.568-1.63 1.734-1.703 2.874 2.332.004 4.662.022 6.991-.01-.123-.964-.405-2.001-1.256-2.604-1.128-.85-2.785-.872-4.032-.26zm9.851.697c.976-1.77 3.581-1.971 5.195-.972a2.36 2.36 0 011.058 1.863c.048 1.802-.009 3.607.025 5.412a46.544 46.544 0 00-.554-.014c.025-1.791.021-3.583.007-5.374.004-1.137-1.138-1.942-2.23-2-1.638-.29-3.38.839-3.551 2.483a99.856 99.856 0 00.019 4.896l-.545.006c.034-2.545-.009-5.092.027-7.637.128-.018.383-.056.511-.076-.007.47-.108.951.039 1.413h-.001zm10.62-.114c1.128-1.556 3.51-1.83 5.172-.975.62.284.934.909 1.461 1.306-.014-.594-.039-1.189-.044-1.783.156-.006.315-.015.475-.022.006 2.636-.005 5.272.006 7.908-.136-.009-.405-.029-.54-.037a9.066 9.066 0 00.089-1.654c-.519.485-.898 1.137-1.584 1.425-1.644.818-3.961.524-5.051-1.015-1.039-1.517-1.028-3.643.016-5.153zm1.864-.813c-2.201.787-2.691 3.706-1.611 5.525.989 1.7 3.635 1.93 5.097.691 1.588-1.29 1.668-3.849.398-5.374-.941-1.049-2.573-1.24-3.884-.842zm-75.489-.33c1.484-.59 3.394-.335 4.493.853 1.228 1.441 1.292 3.618.41 5.241-1.028 1.75-3.558 2.135-5.311 1.264-.636-.284-1.017-.874-1.438-1.384.009 1.413 0 2.825.018 4.24l-.533.041c.006-3.463-.003-6.926.004-10.389.135.01.404.025.54.032-.018.534-.05 1.066-.08 1.6.6-.534 1.072-1.27 1.897-1.498zm.668.246c-2.667.572-3.267 4.127-1.755 6.034.838 1.02 2.347 1.253 3.596.987 1.364-.255 2.337-1.548 2.433-2.856.168-1.255-.094-2.68-1.12-3.543-.852-.73-2.08-.844-3.154-.622zm37.294-.34c1.347-.516 3.226-.13 3.773 1.31.93-1.565 3.177-1.953 4.722-1.057.698.421.988 1.255.994 2.02.028 1.8-.032 3.602.032 5.403l-.494-.053c-.026-1.79.025-3.579-.019-5.366-.002-1.006-.818-1.948-1.876-1.986-1.385-.253-2.976.6-3.161 2.026-.069 1.783-.012 3.57-.025 5.354h-.547c.032-1.796.002-3.593.023-5.39a1.928 1.928 0 00-1.34-1.881c-.876-.238-1.915-.198-2.638.394-.786.619-1.117 1.632-1.114 2.59-.003 1.43-.019 2.86.018 4.29l-.477.006c.019-2.56.014-5.119.005-7.677l.467-.02c-.013.414-.034.829-.036 1.243.604-.354.944-1.077 1.693-1.206zm-28.842-.04h.565c-.046 2.572-.02 5.146-.012 7.718l-.503-.122c-.039-2.532.06-5.066-.05-7.596z" fill="#fff"></path></svg>