<svg fill="none" viewBox="0 0 150 56" id="providers--spinmatic" xmlns="http://www.w3.org/2000/svg"><g clip-path="url(#hyclip0_7301_43327)" fill="#fff"><path d="M17.462 22.824c.059-.405.293-.81.585-1.099.293-.231.703-.347 1.053-.347.644-.058 1.346-.058 1.99-.058h9.828c-.059.81-.235 1.62-.41 2.372-.117.462-.41.81-.819 1.04-.293.116-.585.174-.878.232-.584.058-1.17.116-1.755.058H21.09c-.117 0-.176.058-.293.115a.436.436 0 00-.117.232c0 .173-.058.347-.058.578h5.85c.701 0 1.403 0 2.047.058.41 0 .819.173 1.17.405.234.289.293.636.293 1.04v.174c0 .29-.059.983-.235 2.024l-.116.983c-.117.752-.235 1.504-.468 2.256-.059.289-.176.578-.352.81a1.79 1.79 0 01-.936.462c-.877.058-1.755.116-2.632.116H19.51c-.878 0-1.755 0-2.574-.058-.293-.058-.526-.231-.702-.405-.117-.29-.234-.578-.176-.925.059-.752.117-1.504.235-2.256H25.593c.117 0 .175-.058.234-.115.059-.116.117-.232.117-.29.058-.173.058-.346.058-.52H19.51c-.702 0-1.229 0-1.58-.058-.409 0-.76-.116-1.052-.347-.176-.289-.293-.578-.293-.925v-.29c.058-.346.175-1.04.293-2.081l.116-.925c.176-.752.293-1.504.468-2.256zM33.725 38.323c-.175.347-.409.578-.643.81-.234.173-.468.289-.76.346a3.346 3.346 0 01-1.054.174c-.292.058-.643.058-.936.058h-1.228c.293-.29.527-.463.643-.52l.352-.348c.116-.115.175-.231.175-.347.058-.115.058-.289.058-.404l.468-3.702 1.17-8.327.117-.983c.117-.926.234-1.562.293-1.851.058-.405.234-.81.468-1.157.351-.347.877-.578 1.346-.578.701-.058 1.403-.116 2.105-.058h5.968c.584 0 1.228 0 1.813.058.819.058 1.287.231 1.462.578.117.232.176.52.117.752v.52c-.058.637-.117 1.215-.233 1.793-.059.636-.352 2.487-.82 5.61a39.848 39.848 0 01-.292 2.024c-.059.463-.234.867-.585 1.157-.292.231-.643.405-1.053.405-.644.057-1.346.115-2.047.057h-6.143l-.526 3.123c0 .29-.117.579-.235.81zm6.026-7.634h.819c.059-.058.117-.058.175-.116.059-.115.117-.173.176-.289.059-.173.059-.347.059-.462l.643-4.685H36.3c-.117 0-.293.058-.351.116a.439.439 0 00-.117.29c-.059.173-.117.346-.117.52l-.644 4.626h4.68zM51.626 21.378l-1.345 9.311c-.059.694-.234 1.33-.351 2.024-.059.463-.234.868-.527 1.157-.35.289-.819.405-1.287.405-.35 0-.994.058-1.989.058H44.9c.234-.174.41-.347.585-.579.175-.115.292-.289.468-.405a.522.522 0 00.175-.404c.059-.174.117-.347.117-.52l1.58-11.104 3.802.057zm.176-.925h-3.803l.059-.694c.175-.983.292-1.677.35-1.966a2.85 2.85 0 01.469-1.157c.292-.289.702-.462 1.111-.52.82-.058 1.58-.116 2.399-.116l-.585 4.453zM53.557 23.113c.058-.405.234-.81.468-1.156.234-.29.644-.52 1.053-.52.526-.059 1.111-.117 1.697-.059h8.599c.41 0 .819.058 1.17.29.293.289.468.694.41 1.156 0 .347-.059 1.099-.234 2.255l-.117.926-.527 3.701-.117.983c-.059.752-.234 1.446-.351 2.14a1.89 1.89 0 01-.41.925c-.292.29-.584.463-.994.52-.819.059-1.696.116-2.574.116l.526-3.7.117-.984.527-3.701.117-.925h-5.44c-.117 0-.176 0-.293.057-.058.116-.175.174-.175.29 0 .173-.059.346-.059.578l-.585 3.759-.117.983c-.117.925-.234 1.561-.292 1.908a2.289 2.289 0 01-.527 1.215c-.351.289-.76.463-1.229.52-.35 0-1.053.058-2.106.058h-1.228c.351-.289.585-.462.644-.578.175-.116.292-.29.468-.405.058-.116.116-.173.116-.29.059-.173.117-.346.117-.577l.293-1.851.117-.925.526-3.701.117-.926c.117-1.099.234-1.735.293-2.082zM68.826 23.055c.058-.404.292-.81.585-1.156.292-.232.643-.347.994-.405.526-.058 1.053-.116 1.58-.058H79.472c.526 0 1.052 0 1.579.058.292 0 .585.174.819.347.234.29.293.636.293 1.04-.059.753-.118 1.505-.234 2.256l-.118.983-.526 3.702-.117.925c-.117.983-.234 1.62-.293 1.966-.058.405-.234.81-.468 1.099-.292.29-.585.463-.994.52-.819.058-1.697.116-2.574.116l.526-3.701.118-.925.526-3.701.117-.984h-.702a.45.45 0 00-.293.116c-.058.116-.117.231-.117.347 0 .173-.058.29-.058.463l-.526 3.7-.117.926c-.059.752-.234 1.446-.351 2.198a1.816 1.816 0 01-.527.983c-.234.173-.527.347-.819.405-.877.115-1.755.173-2.633.115l.527-3.7.117-.926.526-3.701.118-.983h-.586c-.117 0-.234 0-.292.115-.059.116-.117.232-.117.347 0 .174-.058.347-.058.52l-.644 3.702-.117.925c-.117.752-.234 1.562-.468 2.313a1.56 1.56 0 01-.585.983 1.942 1.942 0 01-1.112.348c-.35 0-.994.057-2.047.057h-1.228c.35-.289.585-.462.643-.578.175-.116.351-.231.468-.405l.175-.347c0-.115.059-.289.059-.462l.293-1.851.116-.925.527-3.701.117-.984c.234-1.099.351-1.792.41-2.082zM95.97 21.436c.292 0 .585.116.819.29.292.289.468.693.41 1.098 0 .116 0 .231-.06.347-.058.636-.116 1.272-.233 1.909l-.41 2.949-.35 2.66c-.06.81-.235 1.62-.41 2.43-.059.346-.293.635-.527.867-.292.173-.585.289-.877.347a36.66 36.66 0 01-2.574.115h-5.792c-.819 0-1.638 0-2.457-.115-.292-.058-.585-.174-.819-.405-.175-.29-.234-.579-.234-.926v-.173c0-.347.117-1.099.234-2.14l.176-.983c.117-.925.234-1.561.292-1.908.059-.463.234-.926.527-1.273.292-.231.643-.404 1.053-.404.702-.058 1.345-.116 2.047-.058h6.026c.117 0 .175-.058.234-.116.058-.058.058-.174.058-.231.059-.174.059-.405.059-.579h-5.909c-.936 0-1.638 0-1.93-.058-.351 0-.702-.173-.995-.462a2.859 2.859 0 01-.292-1.215v-1.966h10.296c.526-.058 1.053 0 1.638 0zm-9.126 8.328c-.059 0-.117.058-.176.116a.83.83 0 00-.117.404c0 .174-.058.29-.058.405h5.674c.059 0 .117-.058.176-.116a.439.439 0 00.117-.289c.058-.173.058-.404.058-.578h-5.265c-.117 0-.292 0-.41.058zM103.399 16h1.229c.292 0 .643 0 .936.058.351 0 .643.116.936.347.175.289.292.636.234.983 0 .752-.117 1.504-.234 2.255l-.234 1.735h5.85c-.059.752-.234 1.504-.41 2.256-.058.405-.351.81-.702 1.099-.292.173-.585.23-.936.289-.351.058-1.111.058-2.281.058h-2.048l-.117.983-.526 3.7-.117.926h5.85c-.059.752-.234 1.504-.351 2.198a1.817 1.817 0 01-.527.983 2.175 2.175 0 01-1.053.463c-.76.057-1.462.115-2.223.057h-2.398c-.761 0-1.521 0-2.282-.057-.351 0-.702-.174-.936-.463a1.763 1.763 0 01-.175-.752v-.405c.058-.347.175-.983.292-1.966l.117-.925.527-3.701.117-.984h-3.745c.176-1.04.293-1.735.293-2.024.058-.52.293-.925.702-1.272.351-.174.702-.29 1.053-.29.585-.057 1.112-.057 1.697-.057h.585l.526-3.76v-.52c0-.115 0-.23-.058-.289-.059-.115-.176-.231-.293-.347-.175-.173-.351-.289-.526-.462l1.228-.116zM117.732 21.378l-1.346 9.311c-.058.694-.175 1.33-.351 2.024-.058.463-.234.868-.526 1.157-.351.289-.819.405-1.287.463-.351 0-.995.057-1.989.057h-1.229c.234-.173.41-.347.585-.578.176-.116.293-.29.468-.405a.523.523 0 00.176-.405c.058-.173.117-.347.117-.52l1.579-11.104h3.803zm.117-.925h-3.744l.058-.694c.176-.983.293-1.677.351-1.966.059-.405.234-.81.468-1.157.293-.289.644-.462 1.053-.52.819-.058 1.638-.116 2.457-.058l-.643 4.395zM129.198 21.436H133c-.175 1.041-.292 1.735-.351 2.14-.058.405-.234.81-.526 1.099-.41.289-.878.462-1.346.462-.351 0-.994 0-2.047.058h-4.739c-.234-.058-.526 0-.76 0-.059 0-.176 0-.234.058-.059.116-.117.174-.176.29 0 .173-.058.346-.058.52l-.702 4.626h9.594c-.059.752-.234 1.504-.351 2.198a1.788 1.788 0 01-.527 1.04c-.351.232-.76.348-1.17.348-.351 0-1.053.058-2.164.058h-5.967c-.819 0-1.638 0-2.457-.116-.293-.058-.585-.231-.819-.463a2.298 2.298 0 01-.176-.867v-.116c0-.347.117-1.04.293-2.082.117-.636.234-1.561.409-2.834.176-1.272.351-2.197.41-2.833.175-1.041.292-1.735.292-2.082.059-.405.293-.81.585-1.157.293-.231.702-.405 1.053-.405.644-.058 1.346-.115 1.989-.058l6.143.116zM40.453 37.05h-1.287l-.176 1.042h1.053l-.058.404h-1.053l-.176 1.041h1.463l-.059.405h-1.989l.585-3.238h1.814l-.117.347zM48.175 40h-.176l-1.287-1.735c-.175-.231-.468-.578-.585-.867-.058.289-.117.578-.117.867l-.292 1.677h-.527l.585-3.238h.351l1.17 1.561c.176.231.41.578.585.81.059-.232.059-.52.117-.81l.293-1.561h.468L48.175 40zM56.307 37.05h-1.053l-.527 2.892h-.526l.526-2.891h-1.053l.059-.347h2.632l-.058.347zM63.092 37.05h-1.287l-.175.984h1.053l-.059.405h-1.111l-.176 1.04H62.8l-.059.405h-1.989l.585-3.238h1.814l-.059.405zM69.937 39.942l-.819-1.446h-.468l-.234 1.446h-.526l.585-3.238h.994c.468 0 .819.289.878.751v.058c0 .463-.293.868-.761.926l.877 1.503h-.526zm-.585-2.891h-.468l-.234 1.04h.468c.351 0 .644-.289.702-.636 0-.23-.175-.462-.468-.404zM77.951 37.05H76.9l-.527 2.892h-.526l.526-2.891h-1.053l.058-.405h2.633l-.059.405zM84.328 39.942l-.234-.867h-1.287l-.526.867h-.527l1.989-3.354h.175l.82 3.354h-.41zm-.468-2.082c-.058-.115-.058-.289-.058-.405-.059.116-.118.29-.235.405l-.467.81h.936l-.176-.81zM90.47 39.942h-.468l.585-3.238h.527l-.644 3.238zM98.836 40h-.117l-1.287-1.735c-.175-.231-.468-.578-.585-.867-.058.289-.058.578-.117.867l-.293 1.677h-.526l.585-3.238h.351l1.17 1.561c.175.231.41.578.585.81 0-.232.058-.52.117-.81l.293-1.561h.526L98.836 40zM107.903 39.942h-.468l.117-1.503c0-.232.059-.52.059-.752a3.463 3.463 0 01-.527.752l-1.053 1.503h-.175l-.527-1.503c-.058-.232-.175-.52-.234-.752-.058.231-.117.52-.175.752l-.41 1.503h-.468l.878-3.296h.292l.585 1.677c.117.231.176.578.293.867.117-.23.351-.578.585-.867l1.17-1.677h.351l-.293 3.296zM115.45 37.05h-1.287l-.176 1.042h1.053l-.058.404h-1.112l-.175 1.041h1.521l-.059.405h-2.047l.585-3.238h1.813l-.058.347zM123.172 40h-.117l-1.287-1.735c-.175-.231-.468-.578-.585-.867-.058.289-.117.578-.117.867l-.292 1.677h-.468l.585-3.238h.351l1.17 1.561c.175.231.409.578.585.81.058-.232.058-.52.117-.81l.292-1.561h.527L123.172 40zM131.304 37.05h-1.053l-.527 2.892h-.526l.526-2.891h-1.053l.059-.405h2.632l-.058.405z"></path></g></svg>