<svg width="155" height="56" viewBox="0 0 155 56" fill="none" xmlns="http://www.w3.org/2000/svg">
<mask id="mask0_3_1253" style="mask-type:luminance" maskUnits="userSpaceOnUse" x="0" y="0" width="155" height="56">
<path d="M0 0H155V56H0V0Z" fill="white"/>
</mask>
<g mask="url(#mask0_3_1253)">
<path fill-rule="evenodd" clip-rule="evenodd" d="M0.219586 35.0467V32.2934H8.59819V35.4966C8.59819 38.4273 9.90493 39.8963 12.5162 39.8963H12.5485C15.1362 39.8963 16.43 38.4329 16.43 35.5097C16.43 33.8409 15.8724 32.2766 14.7551 30.815C13.6357 29.3534 12.301 28.015 10.7467 26.8054L6.54875 23.0478C4.81361 21.7337 3.36264 20.1041 2.19368 18.1627C1.02257 16.2214 0.437012 14.071 0.437012 11.7115C0.437012 8.08087 1.54139 5.29767 3.75014 3.35634C5.95674 1.415 8.95555 0.444336 12.7444 0.444336C16.5333 0.444336 19.4396 1.415 21.4718 3.35447C23.504 5.29394 24.5201 8.07714 24.5201 11.7059V13.147H16.7917V11.271C16.7917 8.32914 15.429 6.8582 12.6949 6.8582C9.96305 6.8582 8.59819 8.331 8.59819 11.2729C8.59819 12.5049 8.89528 13.6809 9.48945 14.7971C10.0753 15.9025 10.8561 16.9221 11.8037 17.8193C12.7509 18.7153 13.795 19.6038 14.936 20.4793C16.0769 21.3566 17.205 22.2769 18.3158 23.2363C19.4288 24.1977 20.4557 25.2243 21.4008 26.3201C22.3437 27.4158 23.1101 28.7113 23.7042 30.2027C24.2941 31.6961 24.5912 33.3201 24.5912 35.0747C24.5912 38.6942 23.5514 41.4718 21.4718 43.4075C19.3922 45.3414 16.458 46.3102 12.6669 46.3102C8.87805 46.3102 5.85341 45.3395 3.59945 43.4001C1.34764 41.4587 0.219586 38.6755 0.219586 35.0467ZM37.3938 22.5625H41.2731C42.6013 22.5625 43.5981 22.2395 44.2654 21.5918C44.9285 20.9478 45.2622 19.8521 45.2622 18.3065V11.5827C45.2622 10.039 44.9285 8.95073 44.2654 8.31233C43.5981 7.67767 42.6013 7.36034 41.2731 7.36034H37.3938V22.5625ZM29.2326 45.8081V0.946469H41.2558C49.3654 0.946469 53.4233 4.6518 53.4233 12.0625V17.8902C53.4233 25.2822 49.3697 28.9782 41.2644 28.9782H37.3938V45.8081H29.2326ZM65.3906 21.155H68.5811C70.2258 21.155 71.4529 20.791 72.2623 20.0611C73.0717 19.3294 73.4765 18.1105 73.4765 16.4006V11.9897C73.5001 8.90407 72.1224 7.36034 69.3431 7.36034H65.3906V21.155ZM57.2316 45.8081V0.944602H69.5433C73.7413 0.944602 76.809 1.7902 78.74 3.4814C80.671 5.17074 81.6376 7.76914 81.6376 11.2766V14.8121C81.6376 19.4246 79.8551 22.4617 76.2945 23.9214C79.9047 25.2374 81.7087 28.4201 81.7087 33.4713V40.6542C81.7087 42.9465 81.9993 44.6638 82.5784 45.8062H74.3074C73.8252 44.5369 73.5755 42.7075 73.5497 40.3107V33.2846C73.5497 31.2443 73.132 29.7809 72.301 28.8979C71.4636 28.0113 70.1052 27.5689 68.2172 27.5689H65.3906V45.8062L57.2316 45.8081ZM87.0777 45.8081H95.2367V0.944602H87.0777V45.8081ZM109.344 39.3942H114.024C115.449 39.3942 116.513 39.0657 117.214 38.4086C117.914 37.7515 118.267 36.611 118.267 34.9833V31.0726C118.267 29.0286 117.862 27.6099 117.051 26.8185C116.241 26.0251 114.894 25.6294 113.008 25.6294H109.344V39.3942ZM109.344 19.2155H112.549C114.201 19.2155 115.434 18.8497 116.246 18.1198C117.062 17.3918 117.468 16.1803 117.468 14.491V11.9897C117.49 8.9022 116.108 7.35847 113.314 7.35847H109.344V19.2155ZM101.185 45.8099V0.946469H113.516C117.72 0.946469 120.792 1.7902 122.726 3.47954C124.661 5.167 125.628 7.7654 125.628 11.2691V12.8651C125.628 17.4758 123.862 20.4886 120.332 21.9054C124.396 23.283 126.424 26.4862 126.424 31.5113V35.1699C126.424 38.6326 125.373 41.2739 123.27 43.0865C121.167 44.9009 118.082 45.8099 114.024 45.8099H101.181H101.185ZM131.322 45.8081V0.944602H153.588V7.35847H139.481V19.8427H150.686V26.2547H139.481V39.3942H153.588V45.8081H131.322ZM0 54.9435H153.702V48.7145H0V54.9435Z" fill="white"/>
</g>
</svg>
