<svg width="155" height="56" viewBox="0 0 155 56" fill="none" xmlns="http://www.w3.org/2000/svg">
<mask id="mask0_3_1030" style="mask-type:luminance" maskUnits="userSpaceOnUse" x="0" y="0" width="155" height="56">
<path d="M0 0H155V56H0V0Z" fill="white"/>
</mask>
<g mask="url(#mask0_3_1030)">
<path d="M6.88078 12.632L10.9685 17.226C13.4835 20.054 13.8315 22.382 13.8315 26.694C13.8315 31.76 11.4229 34.08 6.91573 34.08C2.40705 34.08 -0.00152521 31.76 -0.00152521 26.694V23.396C-0.0202466 23.1406 0.00379294 22.8829 0.0689035 22.641C0.134014 22.3991 0.238612 22.1789 0.375336 21.996C0.511998 21.815 0.677506 21.6763 0.859895 21.5898C1.04228 21.5034 1.23699 21.4713 1.42994 21.496H3.73823C3.93123 21.4703 4.12616 21.5019 4.30867 21.5884C4.49117 21.6749 4.65662 21.8142 4.79284 21.996C4.93017 22.1784 5.03517 22.3985 5.10032 22.6405C5.16547 22.8825 5.18916 23.1405 5.1697 23.396V26.696C5.15785 26.9981 5.19555 27.3001 5.28024 27.5814C5.36494 27.8626 5.49464 28.1166 5.66053 28.326C5.82647 28.5331 6.02477 28.69 6.24159 28.7857C6.4584 28.8814 6.68848 28.9136 6.91573 28.88C7.14279 28.9145 7.37283 28.8828 7.58951 28.787C7.80619 28.6913 8.00418 28.5339 8.1694 28.326C8.33623 28.1171 8.46655 27.8629 8.5513 27.5811C8.63606 27.2993 8.67323 26.9966 8.66024 26.694C8.66024 24.284 8.38671 23.032 6.97651 21.472L2.86141 16.852C0.346463 14.02 -6.43544e-06 11.7 -6.43544e-06 7.38C-6.43544e-06 2.32 2.40705 0 6.91573 0C11.4229 0 13.8299 2.32 13.8299 7.38V10.676C13.8505 10.932 13.8277 11.1908 13.7634 11.4338C13.699 11.6769 13.5946 11.8983 13.4576 12.082C13.3207 12.2635 13.1547 12.4023 12.9716 12.4881C12.7886 12.574 12.5932 12.6047 12.4 12.578H10.1039C9.91035 12.6053 9.71466 12.5749 9.5313 12.489C9.34794 12.4031 9.18163 12.264 9.0447 12.082C8.90638 11.8992 8.80067 11.6782 8.73523 11.4351C8.66979 11.1919 8.64625 10.9326 8.66632 10.676V7.38C8.67493 7.07978 8.63464 6.7806 8.54814 6.50257C8.46165 6.22453 8.33096 5.97407 8.16485 5.768C7.99894 5.56377 7.80134 5.40937 7.58568 5.31544C7.37002 5.22152 7.14144 5.19032 6.91573 5.224C6.69035 5.19023 6.4621 5.22159 6.24688 5.3159C6.03166 5.4102 5.83467 5.56517 5.66965 5.77C5.5031 5.9752 5.37209 6.22522 5.28556 6.50305C5.19902 6.78087 5.15899 7.07998 5.16818 7.38C5.16818 9.798 5.44931 11.05 6.88078 12.632ZM25.5021 5.432V31.946C25.5211 32.2018 25.4972 32.4599 25.4321 32.7022C25.367 32.9444 25.2622 33.1649 25.1252 33.348C24.9886 33.5291 24.8231 33.6679 24.6407 33.7544C24.4583 33.8409 24.2635 33.8728 24.0706 33.848H21.7638C21.5706 33.8743 21.3753 33.843 21.1924 33.7565C21.0096 33.6699 20.8439 33.5303 20.7077 33.348C20.5705 33.1655 20.4658 32.9454 20.4009 32.7033C20.336 32.4613 20.3126 32.2033 20.3323 31.948V5.43H17.0135C16.8203 5.45714 16.625 5.42644 16.4421 5.3402C16.2592 5.25396 16.0935 5.11442 15.9574 4.932C15.8197 4.74924 15.7145 4.52845 15.6496 4.28563C15.5847 4.0428 15.5616 3.78401 15.5821 3.528V2.132C15.5619 1.87571 15.5851 1.61673 15.65 1.37365C15.7149 1.13056 15.8199 0.909389 15.9574 0.726C16.0942 0.545008 16.2601 0.406547 16.4428 0.320732C16.6255 0.234917 16.8205 0.203917 17.0135 0.23H28.8026C28.9959 0.202591 29.1914 0.232959 29.3746 0.31884C29.5577 0.404721 29.7237 0.5439 29.8603 0.726C29.9982 0.908912 30.1034 1.13008 30.1681 1.37333C30.2327 1.61659 30.2553 1.87579 30.2341 2.132V3.526C30.2544 3.78214 30.2315 4.04102 30.1668 4.2841C30.1022 4.52718 29.9975 4.74843 29.8603 4.932C29.7235 5.11374 29.5574 5.25282 29.3744 5.339C29.1914 5.42518 28.996 5.45628 28.8026 5.43L25.5021 5.432ZM39.9231 32.178L39.5022 27.53H35.3081L34.8887 32.178C34.8841 32.4153 34.8427 32.6488 34.7669 32.8641C34.6911 33.0794 34.5826 33.272 34.448 33.43C34.3139 33.5864 34.1566 33.7045 33.9861 33.7768C33.8155 33.8491 33.6354 33.874 33.4572 33.85H31.3632C30.3131 33.85 29.7904 32.87 29.9651 31.476L33.3326 2.044C33.4572 0.694001 33.9845 0.232 34.8036 0.232H40.0249C40.8273 0.232 41.3546 0.692001 41.4959 2.044L44.8634 31.476C45.0381 32.872 44.5154 33.85 43.4653 33.85H41.3546C41.1763 33.8749 40.9961 33.8504 40.8254 33.7781C40.6548 33.7057 40.4975 33.5872 40.3638 33.43C40.2287 33.2726 40.1199 33.0801 40.044 32.8646C39.9682 32.6492 39.927 32.4154 39.9231 32.178ZM35.764 22.33H39.0144L38.5585 17.04L37.6103 4.64H37.2577L36.2518 17.04L35.764 22.33ZM52.4979 14.348H52.8474L56.8652 1.298C56.9738 0.960338 57.1599 0.675916 57.3976 0.484711C57.6353 0.293505 57.9125 0.205128 58.1903 0.232H60.5716C62.0699 0.232 62.1428 2.132 61.8951 2.924L57.4047 17.04L61.8951 31.156C62.1428 31.946 62.0699 33.85 60.5716 33.85H58.1903C57.9126 33.8766 57.6354 33.7881 57.3978 33.5969C57.1602 33.4057 56.9739 33.1215 56.8652 32.784L52.8459 19.734H52.4979V31.946C52.5169 32.1999 52.4936 32.4562 52.4296 32.6969C52.3655 32.9377 52.2623 33.1572 52.1271 33.34C51.9924 33.521 51.8289 33.6605 51.6485 33.7487C51.468 33.8368 51.2749 33.8714 51.0831 33.85H48.7597C48.5666 33.876 48.3716 33.8445 48.1891 33.758C48.0066 33.6715 47.8411 33.532 47.705 33.35C47.5671 33.1673 47.4618 32.9466 47.3966 32.7038C47.3314 32.461 47.308 32.2022 47.3282 31.946V2.104C47.3117 1.85037 47.3376 1.59508 47.404 1.356C47.4705 1.11693 47.5758 0.899858 47.7126 0.719999C47.8489 0.541865 48.0135 0.405708 48.1945 0.321325C48.3756 0.236943 48.5686 0.206436 48.7597 0.232H51.0847C51.2777 0.204901 51.4729 0.235423 51.6557 0.321295C51.8386 0.407167 52.0044 0.546181 52.1408 0.728001C52.2787 0.910913 52.3839 1.13208 52.4486 1.37533C52.5132 1.61859 52.5358 1.87779 52.5146 2.134L52.4979 14.348ZM74.9197 0.232C75.1122 0.207733 75.3064 0.240394 75.4881 0.327595C75.6697 0.414795 75.8343 0.554331 75.9697 0.736C76.1067 0.918254 76.2113 1.13807 76.2762 1.37975C76.3411 1.62142 76.3646 1.87898 76.3451 2.134V3.528C76.3641 3.78376 76.3403 4.0419 76.2751 4.28417C76.21 4.52644 76.1052 4.74691 75.9682 4.93C75.8316 5.11097 75.6661 5.2497 75.4837 5.33617C75.3013 5.42265 75.1066 5.45469 74.9136 5.43H69.8609V14.436H73.5992C73.7929 14.4099 73.9886 14.4417 74.1718 14.5289C74.3549 14.6162 74.5207 14.7567 74.6568 14.94C74.7946 15.1231 74.8997 15.3443 74.9646 15.5874C75.0296 15.8306 75.0526 16.0897 75.0322 16.346V17.734C75.0523 17.9903 75.0291 18.2493 74.9642 18.4924C74.8993 18.7354 74.7943 18.9566 74.6568 19.14C74.5201 19.3212 74.3543 19.4598 74.1715 19.5457C73.9887 19.6315 73.7937 19.6624 73.6007 19.636H69.8624V28.648H74.9136C75.1094 28.6218 75.3072 28.6544 75.4919 28.7434C75.6767 28.8325 75.8438 28.9756 75.9804 29.162C76.1184 29.3486 76.2228 29.5736 76.2859 29.8204C76.349 30.0672 76.3693 30.3295 76.3451 30.588V31.984C76.3641 32.2398 76.3403 32.4979 76.2751 32.7402C76.21 32.9824 76.1052 33.2029 75.9682 33.386C75.8316 33.5671 75.6661 33.7059 75.4837 33.7924C75.3013 33.8789 75.1066 33.9108 74.9136 33.886H66.1121C65.919 33.912 65.724 33.8805 65.5415 33.794C65.359 33.7075 65.1935 33.568 65.0574 33.386C64.9196 33.2036 64.8144 32.9833 64.7492 32.7408C64.684 32.4983 64.6606 32.2398 64.6806 31.984V2.142C64.6606 1.88558 64.6837 1.62651 64.7483 1.38317C64.8129 1.13983 64.9174 0.918194 65.0544 0.733999C65.1911 0.55189 65.3571 0.412306 65.5401 0.325451C65.7231 0.238596 65.9185 0.206667 66.1121 0.232H74.9197Z" fill="#00D45C"/>
<path d="M84.3383 28.6478H89.3925C89.5896 28.6174 89.7894 28.6471 89.9765 28.7345C90.1636 28.8219 90.3329 28.9646 90.4714 29.1518C90.6111 29.3391 90.7169 29.5655 90.7808 29.8142C90.8447 30.0628 90.8652 30.3273 90.8407 30.5878V31.9838C90.8595 32.2392 90.8355 32.497 90.7704 32.7388C90.7053 32.9807 90.6006 33.2009 90.4638 33.3838C90.3274 33.5653 90.162 33.7046 89.9796 33.7914C89.7971 33.8782 89.6023 33.9105 89.4092 33.8858H80.6C80.403 33.9165 80.2032 33.8872 80.0161 33.8002C79.8291 33.7131 79.6597 33.5707 79.5211 33.3838C79.381 33.1964 79.275 32.9696 79.2111 32.7206C79.1471 32.4715 79.1269 32.2066 79.1518 31.9458V2.10376C79.1358 1.84828 79.1624 1.59128 79.2299 1.3508C79.2974 1.11032 79.404 0.892201 79.5424 0.71176C79.6806 0.533161 79.8472 0.397216 80.0302 0.313759C80.2125 0.231759 80.407 0.20176 80.6 0.23176H82.9068C83.1001 0.204351 83.2956 0.234719 83.4787 0.320601C83.6618 0.406482 83.8279 0.545661 83.9644 0.72776C84.1021 0.910921 84.2071 1.13212 84.2718 1.37531C84.3364 1.6185 84.3591 1.87758 84.3383 2.13376V28.6478ZM106.57 7.37976V26.6958C106.57 31.7618 104.162 34.0818 99.6544 34.0818C95.1457 34.0818 92.7371 31.7618 92.7371 26.6958V7.37976C92.7371 2.32176 95.1457 -0.000240326 99.6544 -0.000240326C104.162 -0.000240326 106.57 2.32176 106.57 7.37976ZM97.9084 7.37976V26.6958C97.9433 27.2798 98.1424 27.8238 98.4661 28.2198C98.7886 28.6149 99.213 28.8346 99.6536 28.8346C100.094 28.8346 100.519 28.6149 100.841 28.2198C101.165 27.8238 101.364 27.2798 101.4 26.6958V7.37976C101.365 6.79767 101.166 6.25402 100.841 5.85576C100.519 5.46058 100.094 5.24089 99.6536 5.24089C99.213 5.24089 98.7886 5.46058 98.4661 5.85576C98.1424 6.25176 97.9433 6.79576 97.9084 7.37976ZM122.091 15.9738C122.285 15.9505 122.48 15.9852 122.662 16.0752C122.845 16.1653 123.009 16.3084 123.143 16.4938C123.278 16.6799 123.381 16.9034 123.442 17.1479C123.504 17.3924 123.524 17.652 123.5 17.9078V26.6958C123.5 31.7618 121.093 34.0818 116.584 34.0818C112.077 34.0818 109.669 31.7618 109.669 26.6958V7.37976C109.669 2.32176 112.077 -0.000240326 116.584 -0.000240326C121.093 -0.000240326 123.5 2.32176 123.5 7.37976V10.2158C123.522 10.4717 123.499 10.7308 123.435 10.9739C123.37 11.2169 123.265 11.4377 123.126 11.6198C122.99 11.8022 122.824 11.9418 122.641 12.028C122.458 12.1142 122.262 12.1449 122.069 12.1178H119.762C119.47 12.1585 119.176 12.0675 118.928 11.8597C118.681 11.6519 118.494 11.3395 118.399 10.9738C118.334 10.7302 118.31 10.4706 118.33 10.2138V7.37976C118.296 6.79785 118.097 6.25411 117.773 5.85576C117.45 5.46058 117.026 5.24089 116.585 5.24089C116.144 5.24089 115.72 5.46058 115.398 5.85576C115.074 6.25176 114.875 6.79576 114.838 7.37976V26.6958C114.875 27.2798 115.074 27.8238 115.398 28.2198C115.72 28.6149 116.144 28.8346 116.585 28.8346C117.026 28.8346 117.45 28.6149 117.773 28.2198C118.096 27.8238 118.295 27.2798 118.33 26.6958V21.1758H118.016C117.823 21.2017 117.628 21.1703 117.445 21.0838C117.263 20.9972 117.097 20.8578 116.961 20.6758C116.824 20.4927 116.719 20.2719 116.654 20.0292C116.588 19.7865 116.565 19.5279 116.584 19.2718V17.9078C116.555 17.5224 116.623 17.1351 116.779 16.8067C116.935 16.4784 117.17 16.2275 117.446 16.0938C117.628 16.0083 117.823 15.9782 118.016 16.0058L122.091 15.9758V15.9738ZM131.815 31.9478C131.833 32.2034 131.809 32.4612 131.744 32.7033C131.679 32.9454 131.575 33.166 131.439 33.3498C131.302 33.531 131.136 33.6698 130.954 33.7563C130.772 33.8428 130.577 33.8747 130.384 33.8498H128.076C127.883 33.8755 127.688 33.8439 127.505 33.7574C127.323 33.6708 127.157 33.5315 127.021 33.3498C126.884 33.1671 126.779 32.947 126.714 32.7051C126.649 32.4631 126.625 32.2052 126.644 31.9498V2.10176C126.619 1.7203 126.69 1.33853 126.847 1.01587C127.003 0.693205 127.237 0.447767 127.51 0.31776C127.692 0.233793 127.885 0.203737 128.076 0.229759H130.384C130.676 0.190563 130.969 0.282228 131.216 0.489885C131.463 0.697542 131.65 1.00901 131.745 1.37376C131.811 1.61576 131.834 1.87376 131.815 2.13176V31.9438V31.9478ZM148.762 12.0738C148.781 12.328 148.756 12.5844 148.691 12.825C148.626 13.0655 148.521 13.2842 148.385 13.4656C148.248 13.6469 148.083 13.7864 147.901 13.8743C147.719 13.9621 147.524 13.9961 147.331 13.9738H145.024C144.831 14.0012 144.635 13.9708 144.452 13.8849C144.269 13.799 144.103 13.6599 143.966 13.4778C143.829 13.2942 143.725 13.0732 143.66 12.8306C143.596 12.5879 143.573 12.3295 143.592 12.0738V7.37976C143.567 6.78756 143.372 6.22997 143.047 5.81976C142.723 5.41252 142.292 5.18528 141.844 5.18528C141.396 5.18528 140.965 5.41252 140.641 5.81976C140.315 6.22977 140.12 6.78732 140.094 7.37976V26.6958C140.12 27.2898 140.316 27.8478 140.641 28.2558C140.965 28.663 141.396 28.8902 141.844 28.8902C142.292 28.8902 142.723 28.663 143.047 28.2558C143.372 27.8455 143.567 27.288 143.592 26.6958V22.0098C143.568 21.628 143.641 21.2464 143.798 20.9244C143.956 20.6024 144.19 20.3582 144.465 20.2298C144.646 20.1467 144.839 20.1181 145.03 20.1458H147.337C147.527 20.1218 147.719 20.1535 147.898 20.2385C148.078 20.3236 148.241 20.4599 148.376 20.6378C148.512 20.8163 148.617 21.0313 148.683 21.2681C148.75 21.505 148.777 21.758 148.762 22.0098V26.6958C148.762 31.7618 146.349 34.0818 141.84 34.0818C137.333 34.0818 134.924 31.7618 134.924 26.6958V7.37976C134.924 2.32176 137.339 -0.000240326 141.84 -0.000240326C146.343 -0.000240326 148.762 2.32176 148.762 7.37976V12.0738ZM151.631 0.747759C151.815 0.504004 152.033 0.310538 152.274 0.178513C152.515 0.0464874 152.774 -0.0214844 153.034 -0.0214844C153.295 -0.0214844 153.554 0.0464874 153.795 0.178513C154.035 0.310538 154.254 0.504004 154.438 0.747759C154.805 1.24746 155.007 1.91839 155 2.61376C155.004 3.30361 154.802 3.96802 154.438 4.46376C154.256 4.71123 154.038 4.90826 153.797 5.04324C153.556 5.17822 153.297 5.24844 153.035 5.24976C152.773 5.25007 152.513 5.1806 152.272 5.04553C152.031 4.91046 151.813 4.71257 151.631 4.46376C151.448 4.22011 151.304 3.93067 151.208 3.61255C151.112 3.29444 151.065 2.95413 151.07 2.61176C151.063 2.26699 151.11 1.92395 151.207 1.60376C151.303 1.28376 151.447 0.991759 151.631 0.747759ZM151.883 4.19376C152.03 4.39798 152.207 4.56089 152.403 4.67262C152.598 4.78435 152.81 4.84258 153.023 4.84376C153.237 4.84387 153.448 4.78623 153.644 4.67442C153.84 4.56261 154.017 4.39901 154.163 4.19376C154.314 3.98324 154.433 3.73512 154.511 3.46386C154.589 3.1926 154.625 2.90362 154.617 2.61376C154.631 2.02324 154.468 1.44926 154.163 1.01576C154.014 0.81625 153.837 0.6575 153.641 0.548681C153.445 0.439862 153.235 0.383129 153.023 0.38176C152.81 0.381223 152.6 0.437089 152.404 0.546021C152.208 0.654952 152.031 0.814713 151.883 1.01576C151.577 1.44857 151.412 2.02231 151.423 2.61376C151.412 3.20453 151.577 3.77745 151.883 4.20976V4.19376ZM152.265 1.06776H153.152C153.679 1.06776 153.944 1.35976 153.944 1.93376C153.953 2.15418 153.897 2.37072 153.787 2.53776C153.732 2.6178 153.664 2.68119 153.588 2.72363C153.512 2.76608 153.431 2.78658 153.348 2.78376L154.006 4.14976H153.607L152.973 2.79976H152.642V4.16376H152.265V1.06776ZM152.642 2.39576H153.091C153.213 2.40576 153.335 2.37376 153.444 2.29976C153.489 2.25594 153.525 2.1964 153.546 2.12776C153.569 2.05976 153.576 1.98576 153.569 1.91176C153.571 1.84049 153.559 1.76966 153.535 1.70576C153.51 1.64362 153.473 1.59124 153.427 1.55376C153.321 1.49258 153.207 1.46189 153.091 1.46376H152.642V2.39576ZM8.73474 42.5278L8.55391 43.6618C8.5376 43.8967 8.45844 44.1164 8.33053 44.2818C8.15656 44.3957 7.96155 44.4422 7.76827 44.4158H5.61347L3.92974 54.9278C3.91031 55.162 3.83101 55.3806 3.70484 55.5478C3.53072 55.661 3.33572 55.7068 3.14259 55.6798H1.95273C1.63362 55.6798 1.47558 55.5098 1.47558 55.1658C1.46922 55.094 1.46922 55.0215 1.47558 54.9498C1.47558 54.8518 1.50445 54.7638 1.50901 54.6658L3.16538 44.4218H0.9194C0.600282 44.4218 0.442244 44.2518 0.442244 43.9078C0.437546 43.8359 0.437546 43.7636 0.442244 43.6918C0.442244 43.5938 0.471115 43.5058 0.48783 43.4078L0.667144 42.2738C0.686749 42.0442 0.766235 41.8308 0.892047 41.6698C1.06327 41.5448 1.25962 41.4924 1.4543 41.5198H8.31381C8.63293 41.5198 8.79097 41.6918 8.79097 42.0358C8.79553 42.1103 8.79553 42.1852 8.79097 42.2598C8.76817 42.3478 8.75146 42.4458 8.73474 42.5278ZM18.9845 42.5278L17.009 54.9278C16.9895 55.1573 16.91 55.3708 16.7841 55.5318C16.6139 55.6604 16.4167 55.713 16.2218 55.6818H15.0214C14.7022 55.6818 14.5396 55.5098 14.5396 55.1658C14.536 55.0938 14.536 55.0217 14.5396 54.9498C14.5396 54.8518 14.5396 54.7638 14.5776 54.6658L15.3587 49.7578H12.2374L11.4123 54.9278C11.3957 55.163 11.316 55.3828 11.1874 55.5478C11.0133 55.661 10.8183 55.7068 10.6251 55.6798H9.42464C9.10553 55.6798 8.94141 55.5098 8.94141 55.1658C8.9349 55.094 8.9349 55.0215 8.94141 54.9498C8.94141 54.8518 8.94141 54.7638 8.98092 54.6658L10.9564 42.2738C10.9759 42.0442 11.0554 41.8307 11.1813 41.6698C11.3523 41.5439 11.5489 41.4915 11.7436 41.5198H12.9669C13.286 41.5198 13.4501 41.6918 13.4501 42.0358C13.454 42.1103 13.454 42.1852 13.4501 42.2598C13.4403 42.3532 13.4251 42.4454 13.4045 42.5358L12.6857 46.9298H15.8313L16.5759 42.2738C16.5954 42.0442 16.6749 41.8307 16.8008 41.6698C16.972 41.5448 17.1684 41.4924 17.3631 41.5198H18.5924C18.9055 41.5198 19.0696 41.6918 19.0696 42.0358C19.0736 42.1103 19.0736 42.1852 19.0696 42.2598C19.0466 42.3519 19.0181 42.4415 18.9845 42.5278ZM19.957 54.6678L21.9325 42.2738C21.952 42.0442 22.0315 41.8307 22.1574 41.6698C22.3282 41.5451 22.524 41.4927 22.7182 41.5198H23.9475C24.2667 41.5198 24.4247 41.6918 24.4247 42.0358C24.4359 42.2048 24.4204 42.375 24.3791 42.5358L22.3702 54.9278C22.3507 55.162 22.2715 55.3806 22.1453 55.5478C21.9712 55.661 21.7762 55.7068 21.583 55.6798H20.3765C20.0573 55.6798 19.8993 55.5098 19.8993 55.1658C19.8929 55.094 19.8929 55.0215 19.8993 54.9498C19.9312 54.8605 19.9503 54.7642 19.9555 54.6658L19.957 54.6678ZM34.8948 42.5278L32.9193 54.9278C32.9023 55.1633 32.822 55.3831 32.6929 55.5478C32.5192 55.6607 32.3248 55.7064 32.1321 55.6798H31.1839C30.9911 55.712 30.7954 55.6682 30.6217 55.5538C30.4994 55.3865 30.4157 55.1771 30.38 54.9498L28.7541 47.4898L27.5688 54.9498C27.5447 55.1736 27.4682 55.3819 27.3499 55.5458C27.1956 55.6718 27.014 55.7274 26.8333 55.7038H25.7088C25.3896 55.7038 25.2331 55.5318 25.2331 55.1878C25.2268 55.116 25.2268 55.0435 25.2331 54.9718C25.2331 54.8758 25.2331 54.7858 25.2726 54.6878L27.2481 42.2958C27.2676 42.0662 27.3471 41.8527 27.473 41.6918C27.6438 41.565 27.8405 41.5125 28.0353 41.5418H29.0048C29.1976 41.5143 29.3924 41.5587 29.567 41.6698C29.6886 41.8378 29.7737 42.0498 29.8087 42.2818L31.4346 49.7418L32.6199 42.2818C32.6394 42.0522 32.7189 41.8387 32.8448 41.6778C33.0161 41.5528 33.2124 41.5004 33.4071 41.5278H34.4951C34.8143 41.5278 34.9784 41.6998 34.9784 42.0418C34.9817 42.1164 34.9817 42.1912 34.9784 42.2658C34.9176 42.3478 34.9054 42.4478 34.8948 42.5278ZM35.8658 54.6678L37.8413 42.2738C37.8608 42.0442 37.9403 41.8307 38.0662 41.6698C38.2374 41.5447 38.4338 41.4923 38.6285 41.5198H39.8122C40.1314 41.5198 40.2894 41.6918 40.2894 42.0358C40.2918 42.0704 40.2918 42.1052 40.2894 42.1398V42.3558L39.5706 46.8318L42.7694 42.2738C42.9442 42.0338 43.0733 41.8638 43.1645 41.7598C43.236 41.6693 43.3215 41.6004 43.4152 41.5578C43.5246 41.5298 43.6356 41.5178 43.7465 41.5198H45.6004C45.7797 41.5198 45.8694 41.6098 45.8694 41.7958C45.8622 41.9501 45.8099 42.0949 45.7235 42.1998L41.9169 47.2878L43.6964 54.4638C43.748 54.6738 43.783 54.8238 43.7967 54.9118C43.8164 54.9718 43.827 55.0358 43.8316 55.0978C43.8321 55.1792 43.818 55.2596 43.7906 55.3325C43.7631 55.4055 43.7231 55.4689 43.6736 55.5178C43.5573 55.6255 43.4175 55.6803 43.2754 55.6738H41.8835C41.7211 55.696 41.5576 55.649 41.417 55.5398C41.3037 55.3593 41.2232 55.1472 41.1814 54.9198L39.9232 49.6158L38.8625 50.9658L38.2349 54.9258C38.2135 55.1552 38.1343 55.3685 38.01 55.5318C37.8398 55.6604 37.6425 55.713 37.4477 55.6818H36.2868C35.9676 55.6818 35.8096 55.5098 35.8096 55.1658C35.8032 55.094 35.8032 55.0215 35.8096 54.9498C35.8414 54.8604 35.8604 54.7662 35.8658 54.6678ZM51.9828 54.6678L53.9583 42.2738C53.9778 42.0442 54.0573 41.8307 54.1832 41.6698C54.3544 41.5447 54.5507 41.4923 54.7454 41.5198H57.4655C58.3013 41.4598 59.128 41.7618 59.824 42.3798C60.1056 42.6408 60.3334 42.9902 60.4865 43.3964C60.6396 43.8026 60.7133 44.2526 60.7008 44.7058C60.7084 44.8298 60.7084 44.9558 60.7008 45.0798C60.7008 45.2138 60.6658 45.3618 60.6491 45.5198L60.6035 45.7958C60.5115 46.3453 60.3196 46.8572 60.0443 47.2878C59.7769 47.7278 59.4289 48.0678 59.0322 48.2718C59.3909 48.4838 59.6933 48.8338 59.8984 49.2798C60.1112 49.7238 60.2206 50.2438 60.2115 50.7718C60.2058 51.0066 60.187 51.2406 60.1552 51.4718L60.0945 51.8458C59.9472 52.9732 59.4821 53.986 58.7921 54.6818C58.0173 55.3985 57.0815 55.7508 56.1359 55.6818H52.4037C52.0846 55.6818 51.9205 55.5098 51.9205 55.1658C51.9236 55.0927 51.9328 55.0202 51.9478 54.9498L51.9828 54.6678ZM55.1436 49.7198L54.6315 52.9718H55.9626C56.9397 52.9718 57.4944 52.4798 57.6464 51.4798L57.6798 51.2398V50.9438C57.6798 50.1238 57.2543 49.7118 56.3942 49.7118L55.1436 49.7198ZM56.0249 44.2438L55.5463 47.2278H56.7255C57.6129 47.2278 58.1174 46.7798 58.242 45.8918V45.6758C58.2486 45.576 58.2486 45.4756 58.242 45.3758C58.242 44.6318 57.8485 44.2818 57.0735 44.2818L56.0249 44.2418V44.2438ZM62.0426 54.6658L63.9953 42.2738C64.0148 42.0442 64.0943 41.8307 64.2202 41.6698C64.3908 41.5428 64.5877 41.4902 64.7824 41.5198H66.0057C66.3248 41.5198 66.4874 41.6918 66.4874 42.0358C66.4914 42.1103 66.4914 42.1852 66.4874 42.2598C66.4874 42.3478 66.4874 42.4458 66.4418 42.5358L64.4664 54.9278C64.45 55.1627 64.3709 55.3824 64.243 55.5478C64.0689 55.661 63.8739 55.7068 63.6807 55.6798H62.4514C62.1322 55.6798 61.9742 55.5098 61.9742 55.1658C61.9678 55.094 61.9678 55.0215 61.9742 54.9498C62.0121 54.8626 62.0355 54.7658 62.0426 54.6658ZM76.0488 48.9958L75.7342 50.9658C75.5637 52.3889 75.0432 53.6992 74.2526 54.6958C73.4797 55.5927 72.474 56.0633 71.4444 56.0098C70.4472 56.0884 69.4651 55.6611 68.7 54.8158C68.3638 54.3858 68.1026 53.8647 67.9347 53.2887C67.7667 52.7126 67.696 52.0954 67.7274 51.4798V50.7338C67.7274 50.5098 67.7791 50.2338 67.8186 49.9878L68.2836 47.0038C68.8915 43.1338 70.4779 41.1978 73.0445 41.1918C73.9283 41.1299 74.7987 41.4963 75.4911 42.2218C75.7921 42.5638 76.03 42.9915 76.1869 43.4724C76.3439 43.9534 76.4156 44.475 76.3968 44.9978V45.2438C76.3944 45.3348 76.3826 45.4249 76.3618 45.5118C76.3239 45.9078 76.1096 46.1078 75.7236 46.1078H74.5383C74.1675 46.1078 73.9761 45.8998 73.9761 45.4878C73.9914 45.1727 73.9266 44.8598 73.7917 44.5987C73.6569 44.3375 73.4597 44.1429 73.2315 44.0458C73.0802 43.9835 72.9202 43.9671 72.7634 43.9978C71.7544 43.9978 71.0949 44.9918 70.7879 46.9818L70.2941 50.0858C70.2648 50.2779 70.2404 50.4714 70.2211 50.6658C70.1994 50.8491 70.1883 51.0343 70.1877 51.2198C70.1877 52.5318 70.6481 53.1878 71.569 53.1878C72.0036 53.2038 72.4261 52.9878 72.7421 52.5918C73.081 52.1298 73.3029 51.5378 73.3758 50.8978H72.3334C72.0416 50.8978 71.8957 50.7178 71.8957 50.3618C71.893 50.3245 71.893 50.287 71.8957 50.2498V50.0398L72.0857 48.8098C72.0999 48.5813 72.1785 48.368 72.306 48.2118C72.467 48.0894 72.6526 48.0349 72.8379 48.0558H75.5443C75.8756 48.0558 76.0382 48.2198 76.0382 48.5478C76.0519 48.6958 76.0534 48.8478 76.0488 48.9958ZM86.4505 48.9958L86.136 50.9658C85.9606 52.3868 85.4409 53.6952 84.6543 54.6958C83.8813 55.5909 82.8766 56.0613 81.8476 56.0098C80.85 56.0889 79.8672 55.6616 79.1017 54.8158C78.7588 54.3905 78.4911 53.8713 78.3175 53.2948C78.1439 52.7183 78.0687 52.0987 78.0972 51.4798C78.0972 51.2318 78.1094 50.9818 78.1307 50.7338C78.1489 50.4838 78.1793 50.2338 78.2218 49.9878L78.6808 47.0038C79.2947 43.1338 80.8812 41.1978 83.4417 41.1918C84.3263 41.1316 85.1969 41.501 85.8883 42.2298C86.1897 42.5708 86.4279 42.998 86.5847 43.4788C86.7414 43.9596 86.8124 44.4812 86.7924 45.0038V45.2498C86.7924 45.3418 86.7833 45.4318 86.7651 45.5198C86.7256 45.9138 86.5128 46.1158 86.1192 46.1158H84.94C84.5693 46.1158 84.3778 45.9078 84.3778 45.4958C84.3886 45.2869 84.3642 45.0776 84.3064 44.8826C84.2486 44.6876 84.1588 44.5118 84.0435 44.3678C83.9281 44.2256 83.79 44.1194 83.6393 44.0567C83.4886 43.9941 83.3292 43.9767 83.1727 44.0058C82.1622 44.0058 81.5027 44.9998 81.1972 46.9898L80.7019 50.0918C80.6684 50.2858 80.6456 50.4878 80.6228 50.6738C80.6151 50.8576 80.6151 51.0419 80.6228 51.2258C80.6228 52.5398 81.0833 53.1958 81.9981 53.1958C82.4357 53.2118 82.8597 52.9978 83.1773 52.5998C83.5146 52.1358 83.7365 51.5438 83.8125 50.9058H82.7624C82.4752 50.9058 82.3294 50.7258 82.3294 50.3698C82.3266 50.3325 82.3266 50.295 82.3294 50.2578V50.0478L82.5269 48.8158C82.5411 48.5882 82.6191 48.3758 82.7457 48.2198C82.9049 48.0967 83.0892 48.0422 83.273 48.0638H85.984C86.3107 48.0638 86.4779 48.2278 86.4779 48.5558C86.4779 48.7038 86.4688 48.8498 86.4505 48.9958ZM90.8802 41.5198H96.2687C96.6 41.5198 96.7626 41.6918 96.7626 42.0358V42.3778L96.5544 43.5118C96.536 43.7671 96.4622 44.0101 96.3417 44.2118C96.2044 44.3453 96.0344 44.4073 95.8645 44.3858H92.1992L91.7783 47.0058H95.0287C95.3539 47.0058 95.5226 47.1758 95.5226 47.5178C95.5254 47.5704 95.5254 47.6232 95.5226 47.6758V47.8618L95.36 48.9138C95.3426 49.1684 95.2704 49.4112 95.1518 49.6138C95.0137 49.7512 94.8406 49.8135 94.6686 49.7878H91.3786L90.8847 52.8078H94.6686C94.9998 52.8078 95.1624 52.9878 95.1624 53.3298C95.1652 53.3824 95.1652 53.4352 95.1624 53.4878V53.6678L94.9831 54.7998C94.9715 55.0725 94.895 55.3335 94.7643 55.5458C94.6272 55.6727 94.4601 55.7309 94.2932 55.7098H88.6236C88.3029 55.7098 88.1464 55.5398 88.1464 55.1958C88.1412 55.1293 88.1412 55.0622 88.1464 54.9958C88.1464 54.9058 88.1464 54.8078 88.1798 54.6958L90.1553 42.3038C90.1748 42.0742 90.2543 41.8607 90.3802 41.6998C90.5322 41.5798 90.7039 41.5198 90.8802 41.5198ZM99.1879 55.6798H97.9919C97.6728 55.6798 97.5087 55.5098 97.5087 55.1658C97.5051 55.0938 97.5051 55.0217 97.5087 54.9498C97.5087 54.8518 97.5087 54.7638 97.5482 54.6658L99.5237 42.2738C99.5433 42.0442 99.6228 41.8308 99.7486 41.6698C99.9198 41.5448 100.116 41.4924 100.311 41.5198H103.118C104.001 41.4571 104.871 41.8149 105.57 42.5278C105.866 42.8665 106.099 43.2903 106.251 43.7664C106.404 44.2425 106.47 44.7582 106.447 45.2738C106.455 45.4269 106.455 45.5806 106.447 45.7338C106.447 45.8998 106.412 46.0858 106.395 46.2878L106.35 46.6018C106.278 47.4218 106.04 48.1998 105.663 48.8558C105.286 49.5118 104.782 50.0218 104.207 50.3318L105.408 54.9498C105.426 55.0193 105.436 55.0922 105.437 55.1658C105.437 55.5258 105.245 55.7038 104.874 55.7038H103.482C103.32 55.7218 103.157 55.6744 103.016 55.5678C102.894 55.3938 102.811 55.1794 102.776 54.9478L101.803 50.7938H100.636L99.9796 54.9498C99.969 55.1808 99.8905 55.3974 99.7608 55.5538C99.5849 55.6752 99.3842 55.7193 99.1879 55.6798ZM101.641 44.2878L101.046 48.0178H102.27C102.561 48.066 102.857 47.9978 103.118 47.822C103.38 47.6461 103.595 47.3708 103.736 47.0318C103.831 46.8061 103.891 46.558 103.914 46.3018L103.949 46.0858V45.8458C103.952 45.7591 103.952 45.6724 103.949 45.5858C103.949 44.6978 103.549 44.2578 102.753 44.2578L101.641 44.2878Z" fill="white"/>
</g>
</svg>
