<svg fill="none" viewBox="0 0 150 56" id="providers--stakelogic" xmlns="http://www.w3.org/2000/svg"><g clip-path="url(#ibclip0_1482_21632)"><path d="M28.528 20.316l2.69 2.297c1.655 1.414 1.884 2.578 1.884 4.734 0 2.533-1.585 3.693-4.551 3.693-2.967 0-4.552-1.16-4.552-3.693v-1.649a.878.878 0 01.248-.7.861.861 0 01.694-.25h1.519a.854.854 0 01.694.25.871.871 0 01.248.7v1.65a1.054 1.054 0 00.323.815 1.033 1.033 0 00.826.277 1.024 1.024 0 00.825-.277 1.045 1.045 0 00.323-.816c0-1.205-.18-1.831-1.108-2.611l-2.708-2.31C24.228 21.01 24 19.85 24 17.69 24 15.16 25.584 14 28.551 14c2.966 0 4.55 1.16 4.55 3.69v1.648a.873.873 0 01-.245.703.855.855 0 01-.696.248h-1.511a.853.853 0 01-.697-.248.87.87 0 01-.249-.703V17.69a1.053 1.053 0 00-.33-.806 1.033 1.033 0 00-.822-.272 1.026 1.026 0 00-.82.273 1.045 1.045 0 00-.33.805c0 1.209.185 1.836 1.127 2.627zm12.254-3.6v13.257a.877.877 0 01-.248.701.86.86 0 01-.694.25h-1.518a.852.852 0 01-.695-.25.87.87 0 01-.247-.7V16.715h-2.184a.848.848 0 01-.695-.249.868.868 0 01-.247-.702v-.698a.873.873 0 01.247-.703.857.857 0 01.695-.248h7.758a.85.85 0 01.696.248.865.865 0 01.246.703v.697a.873.873 0 01-.246.703.856.856 0 01-.696.249h-2.172zm9.49 13.373l-.277-2.324h-2.76l-.276 2.324a.868.868 0 01-.29.626.852.852 0 01-.652.21h-1.378c-.691 0-1.035-.49-.92-1.187l2.216-14.716c.082-.675.429-.906.968-.906h3.436c.528 0 .875.23.968.906l2.216 14.716c.115.698-.229 1.187-.92 1.187h-1.389a.845.845 0 01-.652-.21.861.861 0 01-.29-.626zm-2.737-4.924h2.139l-.3-2.645-.624-6.2h-.232l-.662 6.2-.321 2.645zm11.012-3.991h.23l2.644-6.525a.877.877 0 01.872-.533h1.567c.986 0 1.034.95.871 1.346l-2.955 7.058 2.955 7.058c.163.395.115 1.347-.871 1.347h-1.567a.878.878 0 01-.872-.533l-2.645-6.525h-.229v6.106a.876.876 0 01-.244.697.86.86 0 01-.687.255h-1.529a.852.852 0 01-.694-.25.869.869 0 01-.248-.702V15.052a.873.873 0 01.253-.692.855.855 0 01.689-.244h1.53a.85.85 0 01.695.248.865.865 0 01.246.703l-.01 6.107zm14.755-7.058a.854.854 0 01.691.252.87.87 0 01.247.699v.697a.877.877 0 01-.248.701.861.861 0 01-.694.25h-3.325v4.503h2.46a.852.852 0 01.696.252.87.87 0 01.247.703v.694a.873.873 0 01-.247.703.855.855 0 01-.695.248h-2.46v4.506h3.324a.855.855 0 01.702.257.87.87 0 01.24.713v.698a.877.877 0 01-.248.701.86.86 0 01-.694.25h-5.792a.852.852 0 01-.694-.25.868.868 0 01-.248-.701V15.071a.878.878 0 01.246-.704.859.859 0 01.696-.251h5.796z" fill="#00D45C"></path><path d="M79.5 28.324h3.326a.853.853 0 01.71.252.872.872 0 01.243.718v.698a.877.877 0 01-.248.7.859.859 0 01-.694.251H77.04a.852.852 0 01-.71-.251.87.87 0 01-.243-.719V15.052a.878.878 0 01.257-.696.86.86 0 01.321-.199c.12-.041.248-.056.375-.041h1.518a.85.85 0 01.696.248.868.868 0 01.246.703v13.257zM94.13 17.69v9.658c0 2.533-1.585 3.693-4.551 3.693-2.967 0-4.552-1.16-4.552-3.693V17.69c0-2.529 1.585-3.69 4.552-3.69 2.966 0 4.55 1.161 4.55 3.69zm-5.7 0v9.658c.023.292.154.564.367.762a1.147 1.147 0 001.563 0c.213-.198.344-.47.368-.762V17.69a1.169 1.169 0 00-.368-.762 1.147 1.147 0 00-1.563 0c-.213.198-.344.47-.367.762zm15.914 4.297a.849.849 0 01.692.26.87.87 0 01.235.707v4.394c0 2.533-1.584 3.693-4.551 3.693-2.966 0-4.551-1.16-4.551-3.693V17.69c0-2.529 1.585-3.69 4.551-3.69 2.967 0 4.551 1.161 4.551 3.69v1.418a.858.858 0 01-.246.702.85.85 0 01-.696.249h-1.518a.853.853 0 01-.897-.572.873.873 0 01-.045-.38V17.69a1.167 1.167 0 00-.367-.762 1.147 1.147 0 00-1.563 0c-.213.198-.344.47-.368.762v9.658c.024.292.155.564.368.762a1.147 1.147 0 001.563 0c.213-.198.344-.47.367-.762v-2.76h-.207a.852.852 0 01-.694-.25.874.874 0 01-.248-.702v-.682a.873.873 0 01.567-.907.846.846 0 01.375-.044l2.682-.015zm6.399 7.987a.886.886 0 01-.248.701.859.859 0 01-.694.25h-1.519a.854.854 0 01-.694-.25.874.874 0 01-.248-.7V15.051a.868.868 0 01.57-.892.855.855 0 01.372-.044h1.519a.856.856 0 01.896.572c.043.121.058.25.046.379v14.906zm11.152-9.937a.87.87 0 01-.942.95h-1.518a.85.85 0 01-.696-.248.876.876 0 01-.246-.702v-2.347a1.17 1.17 0 00-.359-.78 1.146 1.146 0 00-1.583 0 1.171 1.171 0 00-.36.78v9.658c.017.297.146.576.36.78a1.146 1.146 0 001.583 0 1.17 1.17 0 00.359-.78v-2.343a.868.868 0 01.574-.89.849.849 0 01.372-.042h1.518a.852.852 0 01.684.246.875.875 0 01.254.686v2.343c0 2.533-1.588 3.693-4.555 3.693-2.966 0-4.551-1.16-4.551-3.693V17.69c0-2.529 1.589-3.69 4.551-3.69 2.963 0 4.555 1.161 4.555 3.69v2.347zm1.888-5.663a1.301 1.301 0 011.847 0 1.315 1.315 0 01.37.933 1.315 1.315 0 01-.37.925 1.292 1.292 0 01-.923.393 1.28 1.28 0 01-.924-.393 1.28 1.28 0 01-.369-.926 1.263 1.263 0 01.09-.504c.063-.16.158-.306.279-.428zm.166 1.723a1.038 1.038 0 00.75.325 1.027 1.027 0 00.75-.325 1.093 1.093 0 00.299-.79 1.125 1.125 0 00-.299-.799 1.058 1.058 0 00-.75-.317 1.041 1.041 0 00-.75.317 1.13 1.13 0 00-.303.799 1.13 1.13 0 00.303.798v-.008zm.251-1.563h.584c.347 0 .521.146.521.433a.426.426 0 01-.103.302.378.378 0 01-.289.123l.433.683h-.263l-.417-.675h-.218v.682h-.248v-1.548zm.248.664h.296c.08.005.16-.011.232-.048a.2.2 0 00.067-.086c.015-.034.02-.071.015-.108a.213.213 0 00-.022-.103.203.203 0 00-.071-.076.533.533 0 00-.221-.045h-.296v.466zm-94.7 20.066l-.119.567a.498.498 0 01-.147.31.674.674 0 01-.37.067h-1.418l-1.108 5.256a.52.52 0 01-.148.31.674.674 0 01-.37.066h-.783c-.21 0-.314-.085-.314-.257a.466.466 0 010-.108c0-.049.019-.093.022-.142l1.09-5.122h-1.478c-.21 0-.314-.085-.314-.257a.63.63 0 010-.108c0-.049.019-.093.03-.142l.118-.567a.499.499 0 01.148-.302.626.626 0 01.37-.075h4.514c.21 0 .314.086.314.258a.697.697 0 010 .112c-.015.044-.026.093-.037.134zm6.745 0l-1.3 6.2a.498.498 0 01-.148.302.598.598 0 01-.37.075h-.79c-.21 0-.317-.086-.317-.258a.814.814 0 010-.108c0-.049 0-.093.025-.142l.514-2.454h-2.054l-.543 2.585a.497.497 0 01-.148.31.674.674 0 01-.37.066h-.79c-.21 0-.318-.085-.318-.257a.455.455 0 010-.108c0-.049 0-.093.026-.142l1.3-6.196a.498.498 0 01.148-.302.619.619 0 01.37-.075h.805c.21 0 .318.086.318.258a.804.804 0 010 .112.916.916 0 01-.03.138l-.473 2.197h2.07l.49-2.328a.498.498 0 01.148-.302.626.626 0 01.37-.075h.809c.206 0 .314.086.314.258a.804.804 0 010 .112.935.935 0 01-.056.134zm.64 6.07l1.3-6.197a.498.498 0 01.148-.302.625.625 0 01.369-.075h.809c.21 0 .314.086.314.258a.614.614 0 01-.03.25l-1.322 6.196a.52.52 0 01-.148.31.674.674 0 01-.37.066h-.794c-.21 0-.314-.085-.314-.257a.466.466 0 010-.108.4.4 0 00.037-.142zm9.83-6.07l-1.3 6.2a.497.497 0 01-.149.31.674.674 0 01-.369.066h-.624a.645.645 0 01-.37-.063.615.615 0 01-.159-.302l-1.07-3.73-.78 3.73a.543.543 0 01-.144.298.543.543 0 01-.34.079h-.74c-.21 0-.313-.086-.313-.258a.466.466 0 010-.108c0-.048 0-.093.026-.142l1.3-6.196a.498.498 0 01.148-.302.612.612 0 01.37-.075h.638a.682.682 0 01.37.064c.08.084.136.19.159.306l1.07 3.73.78-3.73a.498.498 0 01.148-.302.626.626 0 01.37-.075h.716c.21 0 .318.086.318.257a.95.95 0 010 .112c-.04.041-.048.09-.055.13zm.639 6.07l1.3-6.197a.498.498 0 01.148-.302.625.625 0 01.37-.075h.779c.21 0 .314.086.314.258a.284.284 0 010 .052v.108l-.473 2.238 2.105-2.279c.115-.12.2-.205.26-.257a.45.45 0 01.165-.101c.072-.014.145-.02.218-.019h1.22c.118 0 .177.045.177.138a.3.3 0 01-.096.202l-2.505 2.544 1.171 3.588c.034.105.057.18.066.224.013.03.02.062.023.093a.26.26 0 01-.104.21.429.429 0 01-.262.078h-.916a.502.502 0 01-.307-.067.772.772 0 01-.155-.31l-.828-2.652-.698.675-.413 1.98a.517.517 0 01-.148.303.598.598 0 01-.37.075h-.764c-.21 0-.314-.086-.314-.258a.466.466 0 010-.108.403.403 0 00.037-.142zm10.606 0l1.3-6.197a.498.498 0 01.148-.302.625.625 0 01.37-.075h1.79c.55-.03 1.094.121 1.552.43a1.362 1.362 0 01.577 1.163c.005.062.005.125 0 .187 0 .067-.023.141-.034.22l-.03.138a1.74 1.74 0 01-.368.746c-.176.22-.405.39-.666.492.236.106.435.281.57.504.14.222.212.482.206.746a2.399 2.399 0 01-.037.35l-.04.187a2.271 2.271 0 01-.857 1.418 2.773 2.773 0 01-1.748.5h-2.456c-.21 0-.318-.086-.318-.258a.502.502 0 01.018-.108l.023-.142zm2.08-2.474l-.337 1.626h.876c.643 0 1.008-.246 1.108-.746l.022-.12v-.148c0-.41-.28-.616-.846-.616l-.823.004zm.58-2.738l-.315 1.492h.776c.584 0 .916-.224.998-.668v-.108a.866.866 0 000-.15c0-.372-.259-.547-.769-.547l-.69-.02zm3.96 5.211l1.285-6.196a.498.498 0 01.148-.302.61.61 0 01.37-.075h.805c.21 0 .317.086.317.258a.804.804 0 010 .112c0 .044 0 .093-.03.138l-1.3 6.196a.498.498 0 01-.147.31.674.674 0 01-.37.066h-.809c-.21 0-.314-.085-.314-.257a.466.466 0 010-.108.352.352 0 00.045-.142zm9.217-2.835l-.207.985a3.293 3.293 0 01-.975 1.865 2.637 2.637 0 01-1.848.657 2.57 2.57 0 01-1.806-.597 2.127 2.127 0 01-.64-1.668v-.373c0-.112.034-.25.06-.373l.306-1.492c.4-1.935 1.444-2.903 3.133-2.906a2.382 2.382 0 011.61.515 1.726 1.726 0 01.596 1.388v.123a.505.505 0 01-.023.134c-.025.198-.166.298-.42.298h-.78c-.244 0-.37-.104-.37-.31a.71.71 0 00-.49-.721.691.691 0 00-.308-.024c-.664 0-1.098.497-1.3 1.492l-.325 1.552a4.33 4.33 0 00-.048.29 1.849 1.849 0 00-.022.277c0 .656.303.984.909.984.286.008.564-.1.772-.298.223-.231.369-.527.417-.847H71.6c-.192 0-.288-.09-.288-.268a.29.29 0 010-.056v-.105l.125-.615a.46.46 0 01.145-.299.598.598 0 01.35-.078h1.781c.218 0 .325.082.325.246.009.074.011.15.008.224zm6.845 0l-.207.985a3.338 3.338 0 01-.975 1.865 2.644 2.644 0 01-1.847.657 2.57 2.57 0 01-1.807-.597 2.116 2.116 0 01-.661-1.668c0-.124.008-.249.022-.373.012-.125.032-.25.06-.373l.302-1.492c.404-1.935 1.448-2.903 3.133-2.906a2.379 2.379 0 011.61.519 1.715 1.715 0 01.595 1.387v.123c0 .046-.006.091-.018.135-.026.197-.166.298-.425.298h-.776c-.244 0-.37-.104-.37-.31a.711.711 0 00-.22-.564.696.696 0 00-.573-.181c-.665 0-1.099.497-1.3 1.492l-.326 1.551c-.022.097-.037.198-.052.291a2.491 2.491 0 000 .276c0 .657.303.985.905.985.288.008.567-.099.776-.298.222-.232.368-.528.418-.847h-.691c-.189 0-.285-.09-.285-.268a.291.291 0 010-.056v-.105l.13-.616a.46.46 0 01.144-.298.583.583 0 01.347-.078h1.784c.215 0 .325.082.325.246 0 .074-.006.147-.018.22zm2.915-3.738h3.546c.218 0 .325.086.325.258v.171l-.137.567a.668.668 0 01-.14.35.455.455 0 01-.314.087h-2.412l-.277 1.31h2.139c.214 0 .325.085.325.256a.568.568 0 010 .079v.093l-.107.526a.672.672 0 01-.137.35.444.444 0 01-.318.087h-2.165l-.325 1.51h2.49c.218 0 .325.09.325.261a.568.568 0 010 .079v.09l-.118.566a.65.65 0 01-.144.373.462.462 0 01-.31.082H82.32c-.211 0-.314-.085-.314-.257a.484.484 0 010-.1c0-.045 0-.094.022-.15l1.3-6.196a.498.498 0 01.148-.302c.1-.06.213-.09.329-.09zm5.467 7.08h-.787c-.21 0-.318-.085-.318-.257a.814.814 0 010-.108c0-.049 0-.093.026-.142l1.3-6.196a.499.499 0 01.148-.302.626.626 0 01.37-.075h1.847a2.422 2.422 0 011.614.504 1.686 1.686 0 01.577 1.373 1.75 1.75 0 010 .23c0 .083-.023.176-.034.277l-.03.157c-.047.41-.204.799-.452 1.127-.248.328-.58.583-.958.738l.79 2.309a.349.349 0 01.019.108c0 .18-.126.269-.37.269h-.916a.528.528 0 01-.307-.068.647.647 0 01-.158-.31l-.64-2.077h-.768l-.432 2.078a.446.446 0 01-.144.302.612.612 0 01-.377.063zm1.614-5.696l-.391 1.865h.805a.963.963 0 00.965-.493.987.987 0 00.117-.365l.023-.108v-.12a1.293 1.293 0 000-.13c0-.444-.263-.664-.787-.664l-.732.015z" fill="#fff"></path></g></svg>