<svg fill="none" viewBox="0 0 150 56" id="providers--thunderkick" xmlns="http://www.w3.org/2000/svg"><path d="M21.556 14.451c.325.849.604 1.603.928 2.546.464-1.744.882-3.347 1.346-4.997.232.094.417.189.556.283 1.763.99 3.526 1.933 5.289 2.922.325.189.603.425.881.707 1.021 1.085 2.042 2.216 3.109 3.394.881-.282 1.762-.612 2.737-.895 1.345 2.875 2.69 5.704 3.99 8.532-.326 2.216-.604 4.431-.929 6.694.696-.189 1.253-.377 1.949-.566-.974 2.451-1.902 4.761-2.83 7.118a188.364 188.364 0 00-4.685 1.744c-1.485.566-3.016 1.132-4.5 1.697-.418.142-.79.236-1.253.189-1.484-.095-2.969-.095-4.407-.189-.278 0-.603 0-.881-.094-2.18-.754-4.408-1.508-6.634-2.31-.65-1.084-1.253-2.262-1.949-3.347-.788-1.178-1.16-2.498-1.392-3.912-.232-1.744-.556-3.536-.835-5.28-.046-.188 0-.33-.046-.566.603.283 1.16.519 1.81.802.046-.377.092-.66.092-.99.046-1.131.046-2.263.046-3.347 0-.283.093-.613.232-.848.743-1.367 1.531-2.735 2.32-4.101.14-.236.325-.472.51-.66 1.392-1.367 2.784-2.782 4.175-4.149.093-.188.186-.235.372-.377zm7.609 25.55c.139-3.347.324-6.647.464-9.947 1.855-.047 3.664-.141 5.474-.188.093-1.65.139-3.159.185-4.714 0-.33-.092-.66-.092-.943-5.753.047-11.413.141-17.212.236.047 1.98.14 3.912.186 5.94 1.948-.095 3.85-.142 5.845-.237l.418 9.805c1.53.047 3.062.047 4.732.047zM80.893 35.379h-3.248c-.556-1.461-1.066-2.97-1.623-4.478-.047 0-.093.047-.186.047.093 1.414.186 2.828.279 4.195-1.114.66-2.134 0-3.294.142-.14-4.431-.278-8.72-.418-13.105 1.067-.141 1.995-.283 3.062-.424a420.583 420.583 0 012.041 5.468c.047 0 .14 0 .186-.047a790.676 790.676 0 01-.278-5.374c1.113-.047 2.04-.094 3.247-.141.278 4.62.186 9.097.232 13.717zM59.506 22.086c1.206.047 2.227.142 3.387.189.278 4.478-.093 8.768-.093 13.151-1.206.189-2.227.189-3.247-.141a496.773 496.773 0 00-.557-4.242c0-.048-.186-.048-.418-.048v4.808h-3.2c-.418-4.666-.233-9.286-.604-14h3.433c.14 2.027.232 4.007.371 6.081.279-.047.464-.094.882-.141.046-1.839.046-3.63.046-5.657zM132.062 21.426c.696 1.838-.093 3.488.278 5.232 1.438-1.32 1.253-3.064 1.253-4.855a99.148 99.148 0 003.433-.472c.696 2.876.139 5.233-1.902 7.26 1.391 1.838 2.412 3.818 2.829 6.317-1.252.141-2.319.282-3.293.377-.65-1.414-1.206-2.734-1.763-4.007-.139 0-.232.047-.371.047-.139 1.226-.232 2.451-.371 3.771-1.021.142-1.902.236-3.016.377-.325-4.572-.325-9.003-.371-13.623 1.113-.141 2.227-.283 3.294-.424zM114.619 35.332h-2.969c-.417-1.084-.835-2.074-1.252-3.064-.093-.189-.279-.377-.604-.754-.046 1.414-.139 2.498-.185 3.818-.974.141-1.902.236-2.737.377-.418-1.037-.789-12.256-.418-13.623 1.114 0 2.227-.33 3.48 0v4.62c1.113-1.462 1.299-3.112 1.623-4.856.882-.094 1.763-.188 2.877-.283.417 2.923-.511 5.28-2.088 7.543 1.392 1.744 2.18 3.77 2.273 6.222zM64.053 21.473c1.02.094 2.041.236 3.2.377v4.667c0 1.603-.046 3.158 0 4.76 0 .472.186.944.28 1.556.927-.518.834-1.225.834-1.838v-7.92-1.696c1.067-.095 1.995-.142 2.923-.236.139.377.278.66.278.896-.093 3.3-.093 6.6-.278 9.899-.14 2.593-1.578 3.771-4.129 3.582-1.81-.141-3.201-1.46-3.247-3.346-.093-3.347-.093-6.694-.14-10.041 0-.094.093-.236.279-.66zM81.728 35.049c.14-4.62.278-9.051.418-13.482 1.855-.283 3.479-.094 5.01.613 1.252.565 2.041 1.555 2.273 2.922.417 2.263.325 4.479-.186 6.694-.232.943-.695 1.697-1.484 2.216-1.81 1.084-3.758 1.32-6.031 1.037zm3.108-2.782c1.949-1.32 1.485-3.158 1.67-4.76.093-1.038.047-2.263-1.299-3.017-.139 2.64-.232 5.043-.37 7.777zM100.795 35.143c-.975-.047-1.763-.094-2.737-.141-.232-4.431-.186-8.674-.186-13.152 1.902-.519 3.804-.754 5.66 0 .927.377 1.531 1.084 1.809 2.074.51 2.121.603 4.195-1.067 5.94.371 1.602.789 3.205 1.16 4.808-.835.848-1.717.471-2.737.518-.186-.801-.372-1.555-.557-2.357-.186-.707-.371-1.461-.603-2.262-1.114.471-.603 1.367-.696 1.98-.093.848-.046 1.602-.046 2.592zm.092-7.118c.789-.471 1.346-.754 1.763-.99.186-2.121-.232-2.687-1.763-2.498v3.488zM125.103 25.81c-.139-.566-.278-.943-.417-1.414h-1.067c-.789 1.885-.835 7.118-.093 8.485a.863.863 0 00.371.094c.185 0 .371-.047.649-.094.093-.566.232-1.179.372-1.98.788-.047 1.67-.094 2.458-.189.789 2.687-.139 4.243-2.598 4.714-2.737.519-4.778-.801-5.01-3.63-.185-2.404.047-4.855.278-7.306.186-1.603 1.392-2.64 2.83-2.828 2.181-.283 4.036.424 4.825 1.932.325.613.603 1.32.278 2.169-.881.047-1.809.047-2.876.047zM96.897 21.992c.093.848.14 1.697.232 2.734-1.206.047-2.226.141-3.386.188v2.546c.325.047.696.047 1.067.094h1.067c.557.943.186 1.744 0 2.687-.696.094-1.345.141-2.134.236.046.801.093 1.555.14 2.404h3.2v2.64c-2.134.094-4.221.047-6.495.047V21.992h6.31zM47.909 25.197c-.881-.094-1.577-.141-2.505-.236-.047-.99-.14-1.885-.186-3.016 2.923-.425 5.706-.142 8.443-.378.418 1.085.51 1.839.279 3.3-.696.047-1.392.094-2.227.189v10.229c-1.067.094-2.088.141-3.247.236a395.744 395.744 0 01-.557-10.324zM119.073 34.908a82.074 82.074 0 00-3.573.188V21.71c1.067-.142 2.088-.236 3.294-.378.093 4.573.186 8.91.279 13.577z" fill="#FF9F00"></path></svg>