<svg width="155" height="56" viewBox="0 0 155 56" fill="none" xmlns="http://www.w3.org/2000/svg">
<path d="M11.7598 4.31199C12.1597 5.80562 12.5031 7.13212 12.9018 8.79112C13.4728 5.72293 13.9872 2.90281 14.5582 0C14.8437 0.165372 15.0714 0.332504 15.2424 0.497876C17.412 2.23956 19.5816 3.89856 21.7512 5.63849C22.1511 5.97099 22.4932 6.38618 22.8353 6.8823C24.0918 8.79112 25.3483 10.7809 26.6613 12.8533C27.7455 12.3572 28.8297 11.7766 30.0295 11.2787C31.6847 16.3367 33.3399 21.3137 34.9397 26.2889C34.5385 30.1875 34.1964 34.0843 33.7965 38.0655C34.653 37.733 35.3384 37.4023 36.1949 37.0698C34.9963 41.3818 33.8543 45.4457 32.7123 49.5923C30.7811 50.5785 28.8591 51.6014 26.9468 52.6605C25.1194 53.6562 23.2353 54.652 21.4091 55.646C20.8947 55.8958 20.4369 56.0612 19.8671 55.9785C18.0409 55.8114 16.2134 55.8114 14.4438 55.646C14.1016 55.646 13.7017 55.646 13.3596 55.4806C10.6768 54.1541 7.93502 52.8276 5.19567 51.4167C4.39577 49.5096 3.6537 47.4372 2.79719 45.5284C1.82747 43.456 1.36968 41.1337 1.08417 38.6461C0.79867 35.5779 0.39995 32.4253 0.0566078 29.3571C-5.8222e-07 29.0263 0.0566084 28.7765 0 28.3613C0.742062 28.8592 1.42752 29.2744 2.22742 29.7723C2.28403 29.109 2.34064 28.6112 2.34064 28.0306C2.39724 26.0408 2.39724 24.0493 2.39724 22.1423C2.39724 21.6444 2.51169 21.0638 2.68275 20.6504C3.5971 18.2455 4.56682 15.8388 5.53778 13.4356C5.71007 13.0204 5.93773 12.6052 6.1654 12.2745C7.87842 9.86955 9.59143 7.38018 11.3032 4.97524C11.4177 4.6445 11.5309 4.56181 11.7598 4.31199ZM21.1236 49.2616C21.2946 43.3733 21.5223 37.5676 21.6946 31.762C23.9774 31.6793 26.2035 31.514 28.431 31.4313C28.5454 28.5285 28.602 25.8737 28.6586 23.138C28.6586 22.5575 28.5454 21.9769 28.5454 21.479C21.4657 21.5617 14.5004 21.7271 7.36402 21.8942C7.42185 25.3776 7.5363 28.7765 7.59291 32.3443C9.99016 32.1772 12.3308 32.0945 14.7859 31.9274L15.3003 49.1771C17.1831 49.2598 19.0684 49.2616 21.1236 49.2616ZM84.7809 41.1302H80.7839C80.0997 38.5599 79.4721 35.9051 78.7866 33.2521C78.7288 33.2521 78.6722 33.3348 78.5577 33.3348C78.6722 35.8224 78.7866 38.3101 78.9011 40.715C77.5301 41.8761 76.2749 40.715 74.8474 40.9648C74.6751 33.1694 74.5053 25.6239 74.333 17.9095C75.6461 17.6614 76.7881 17.4116 78.1012 17.1635C78.9539 20.3618 79.7912 23.5684 80.6128 26.7833C80.6707 26.7833 80.7851 26.7833 80.8417 26.7006C80.7202 23.5497 80.6062 20.3982 80.4996 17.2462C81.8693 17.1635 83.0101 17.0808 84.4954 16.9982C84.8376 25.126 84.7243 33.0023 84.7809 41.1302ZM58.4617 17.7441C59.9459 17.8268 61.2023 17.9939 62.6298 18.0766C62.9719 25.9546 62.5154 33.5019 62.5154 41.2129C61.0313 41.5454 59.7748 41.5454 58.5196 40.9648C58.2986 38.4758 58.0701 35.9882 57.8341 33.5019C57.8341 33.4175 57.6052 33.4175 57.3197 33.4175V41.8761H53.3817C52.8673 33.6673 53.095 25.5395 52.6384 17.2462H56.8632C57.0354 20.8123 57.1487 24.2956 57.3197 27.9444C57.6631 27.8617 57.8907 27.779 58.4051 27.6963C58.4617 24.461 58.4617 21.3101 58.4617 17.7441ZM147.75 16.583C148.607 19.8165 147.636 22.7193 148.093 25.7875C149.862 23.4653 149.635 20.3971 149.635 17.2462C151.046 17.0046 152.454 16.7278 153.859 16.4158C154.716 21.4755 154.03 25.6221 151.519 29.1882C153.23 32.4218 154.487 35.9051 155 40.3016C153.459 40.5496 152.146 40.7977 150.948 40.9648C150.148 38.4772 149.463 36.1549 148.778 33.9154C148.607 33.9154 148.492 33.9981 148.321 33.9981C148.15 36.1549 148.036 38.3101 147.865 40.6323C146.608 40.8821 145.524 41.0475 144.153 41.2956C143.753 33.2521 143.753 25.4568 143.697 17.3289C145.066 17.0808 146.437 16.831 147.75 16.583ZM126.285 41.0475H122.631C122.118 39.1404 121.603 37.3988 121.09 35.6571C120.976 35.3246 120.747 34.9938 120.347 34.3306C120.29 36.8182 120.176 38.7253 120.119 41.0475C118.921 41.2956 117.779 41.4627 116.751 41.7107C116.237 39.8864 115.78 20.149 116.237 17.7441C117.608 17.7441 118.977 17.1635 120.519 17.7441V25.872C121.889 23.2999 122.118 20.3971 122.517 17.3289C123.602 17.1635 124.686 16.9982 126.057 16.831C126.57 21.9734 125.428 26.12 123.488 30.1013C125.201 33.1694 126.17 36.7337 126.285 41.0475ZM64.0573 16.6656C65.3126 16.831 66.569 17.0808 67.9953 17.3289V25.5395C67.9953 28.3596 67.9387 31.0953 67.9953 33.9136C67.9953 34.744 68.2242 35.5744 68.3399 36.6511C69.4807 35.7398 69.3662 34.4959 69.3662 33.4175V19.484V16.5003C70.6793 16.3331 71.8213 16.2505 72.9633 16.0851C73.1344 16.7483 73.3054 17.2462 73.3054 17.6614C73.191 23.467 73.191 29.2726 72.9633 35.0765C72.791 39.6383 71.0214 41.7107 67.8821 41.3782C65.6547 41.1302 63.9429 38.8097 63.8863 35.4917C63.7718 29.6034 63.7718 23.7151 63.714 17.8268C63.714 17.6614 63.8285 17.4116 64.0573 16.6656ZM85.8085 40.5496C85.9808 32.4218 86.1506 24.6264 86.3229 16.831C88.6057 16.3331 90.6042 16.6657 92.4883 17.9095C94.029 18.9035 95 20.6451 95.2855 23.0501C95.7987 27.0313 95.6854 30.9299 95.0566 34.8267C94.7711 36.4857 94.2013 37.8122 93.2304 38.7253C91.003 40.6323 88.6057 41.0475 85.8085 40.5496ZM89.6333 35.6553C92.0317 33.3331 91.4607 30.0995 91.6884 27.2811C91.8029 25.455 91.7462 23.2999 90.0898 21.9734C89.9188 26.6179 89.8031 30.8454 89.6333 35.6553ZM109.273 40.715C108.073 40.6323 107.103 40.5496 105.905 40.4669C105.619 32.6716 105.676 25.207 105.676 17.3289C108.016 16.4158 110.357 16.0024 112.641 17.3289C113.782 17.9921 114.525 19.236 114.867 20.9776C115.495 24.7091 115.609 28.3578 113.554 31.4278C114.011 34.2461 114.525 37.0663 114.982 39.8864C113.954 41.3782 112.869 40.715 111.613 40.7977C111.384 39.3885 111.156 38.062 110.928 36.6511C110.699 35.4072 110.471 34.0808 110.186 32.6716C108.815 33.5002 109.444 35.0765 109.329 36.1549C109.215 37.6468 109.273 38.9733 109.273 40.715ZM109.386 28.1924C110.357 27.3638 111.042 26.8659 111.556 26.4508C111.784 22.7193 111.27 21.7236 109.386 22.0561V28.1924ZM139.187 24.2956C139.016 23.2999 138.844 22.6366 138.673 21.808H137.36C136.389 25.1243 136.333 34.3306 137.246 36.7355C137.387 36.8388 137.544 36.8953 137.702 36.9009C137.93 36.9009 138.159 36.8182 138.501 36.7355C138.616 35.7398 138.787 34.6613 138.959 33.2521C139.929 33.1694 141.014 33.0868 141.984 32.9196C142.955 37.6468 141.813 40.3842 138.787 41.2129C135.418 42.1259 132.907 39.8037 132.621 34.8267C132.394 30.5974 132.679 26.2854 132.963 21.9734C133.192 19.1533 134.676 17.3289 136.446 16.9982C139.13 16.5003 141.413 17.7441 142.384 20.3971C142.784 21.4755 143.126 22.7193 142.726 24.213C141.642 24.2956 140.5 24.2956 139.187 24.2956ZM104.476 17.5787C104.59 19.0706 104.648 20.5642 104.761 22.3886C103.277 22.4713 102.022 22.6366 100.594 22.7193V27.1985C100.994 27.2811 101.451 27.2811 101.907 27.3638H103.221C103.906 29.0228 103.449 30.432 103.221 32.091C102.364 32.2564 101.565 32.3391 100.594 32.5062C100.651 33.9154 100.709 35.2419 100.767 36.7355H104.705V41.38C102.079 41.5454 99.5102 41.4627 96.7118 41.4627V17.5787H104.476ZM44.1903 23.2172C43.1061 23.0518 42.2496 22.9691 41.1076 22.802C41.0497 21.0603 40.9353 19.4858 40.8787 17.496C44.4758 16.7483 47.9006 17.2462 51.2688 16.831C51.7832 18.7398 51.8964 20.0663 51.6121 22.6366C50.7556 22.7193 49.8991 22.802 48.8715 22.9691V40.9648C47.5585 41.1302 46.302 41.2129 44.8757 41.38C44.5919 35.3303 44.3634 29.2755 44.1903 23.2172ZM131.766 40.3016C130.299 40.3661 128.833 40.4764 127.369 40.6323V17.0826C128.682 16.8328 129.938 16.6674 131.423 16.4176C131.537 24.4628 131.651 32.091 131.766 40.3016Z" fill="#FF9F00"/>
</svg>
