<svg width="155" height="56" viewBox="0 0 155 56" fill="none" xmlns="http://www.w3.org/2000/svg">
<mask id="mask0_3_876" style="mask-type:luminance" maskUnits="userSpaceOnUse" x="0" y="0" width="155" height="56">
<path d="M0 0H155V56H0V0Z" fill="white"/>
</mask>
<g mask="url(#mask0_3_876)">
<path d="M105.09 38.2716C107.802 38.2156 110.437 38.777 112.53 40.072C113.227 40.5788 114.002 41.1416 114.545 41.7604C114.855 42.1552 115.165 42.5486 115.475 42.886C114.39 43.3368 113.227 43.5622 112.142 43.9556C111.367 44.1796 110.67 44.4624 109.817 44.6304C109.43 44.0116 109.042 43.4488 108.345 42.9994C106.64 41.7604 103.695 41.7604 101.757 42.774C100.827 43.2234 100.13 43.9556 99.665 44.6878C98.815 46.1741 98.7324 47.8316 99.4325 49.3582C99.8975 50.2598 100.517 51.0466 101.602 51.6094C102.532 52.1722 103.772 52.4536 104.935 52.4536C106.097 52.4536 107.337 52.2856 108.267 51.7228C109.12 51.272 109.585 50.4838 109.74 49.753C109.662 49.5276 109.275 49.585 109.042 49.585H104.935C104.78 49.0768 104.857 48.5714 104.857 48.0072C104.857 47.3884 104.78 46.7696 104.935 46.0948H116.637C116.715 47.2204 116.56 48.346 116.327 49.4716C115.862 51.3854 114.312 53.0738 112.22 54.3114C110.36 55.325 108.035 55.8304 105.71 55.8878C104.857 55.9998 104.005 55.8878 103.152 55.8318C100.959 55.6482 98.8721 55.0456 97.1075 54.086C96.6425 53.806 96.1775 53.4672 95.7125 53.1298C94.7825 52.4536 94.085 51.5534 93.62 50.6518C92.7675 49.1342 92.69 47.5018 92.845 45.8694C93.0696 43.8957 94.2495 42.0423 96.1775 40.6348C98.5025 39.0598 101.757 38.2156 105.09 38.2716ZM21.9325 38.777H31C31.8525 38.833 32.7825 38.777 33.635 38.833V42.4366H28.9075C28.1325 42.4366 27.3575 42.4366 26.5825 42.4926V45.1946C28.5975 45.2506 30.535 45.1946 32.55 45.1946C32.7825 45.1946 33.015 45.1386 33.2475 45.3066C33.325 46.4882 33.2475 47.6698 33.2475 48.8514C31.3875 48.9074 29.605 48.8514 27.745 48.8514C27.3575 48.8514 26.97 48.8514 26.5825 48.7954C26.4275 49.753 26.505 50.7652 26.505 51.7214H33.48V55.381C32.55 55.437 31.62 55.381 30.69 55.437H20.615C20.5375 55.213 20.46 55.0436 20.46 54.8182V38.8904C21.08 38.8344 21.4675 38.777 21.9325 38.777ZM66.185 38.889C66.65 38.777 67.27 38.833 67.8125 38.833H78.895C79.9025 38.833 80.91 38.889 81.995 38.889V42.4926C80.3675 42.5486 78.6625 42.4926 77.035 42.5486V53.8606C77.035 54.4234 77.1125 54.9862 76.9575 55.493H71.92C71.61 55.493 71.3 55.437 71.0675 55.437C71.145 51.16 71.0675 46.883 71.0675 42.6046C69.44 42.4366 67.8125 42.6046 66.185 42.5486C66.185 41.2536 66.1075 40.0706 66.185 38.889ZM87.9625 38.777C88.66 38.777 89.3575 38.777 90.055 38.833C90.1325 39.5092 90.055 40.1854 90.055 40.8602V53.8606C90.055 54.3674 90.1325 54.8742 89.9775 55.437C88.1175 55.381 86.18 55.437 84.32 55.437C84.01 55.437 84.0875 55.213 84.0875 55.0436V38.8344C85.3275 38.7224 86.645 38.833 87.9625 38.777ZM122.217 38.777H130.432C131.13 38.777 131.75 38.833 132.37 38.833V42.4366C130.975 42.4926 129.58 42.4366 128.185 42.4366C127.177 42.4366 126.247 42.3806 125.24 42.4926V45.1946C127.487 45.1946 129.657 45.1386 131.905 45.1946V48.8528H127.565C126.79 48.8528 126.015 48.7968 125.24 48.9088V51.6108C126.015 51.7228 126.79 51.6668 127.565 51.6668H132.37V55.2116C132.06 55.2676 131.827 55.3236 131.517 55.3236H121.83C120.977 55.3236 120.202 55.3796 119.35 55.2676V38.721C120.28 38.777 121.287 38.777 122.217 38.777ZM13.175 49.809C12.7875 49.4716 12.4 49.1328 12.09 48.7954V48.5714C13.4075 48.402 14.6475 47.8952 15.5 47.107C16.3525 46.2628 16.895 45.1932 16.895 44.125C16.9725 42.886 16.6625 41.591 15.4225 40.5788C14.1825 39.5652 12.555 39.1158 10.7725 38.8904C8.13747 38.7224 5.50246 38.7784 2.78996 38.7784H0.232463C-0.0775365 39.1704 0.154969 39.8466 0.154969 40.2974V53.4112C0.154969 54.086 -0.0775309 54.7048 0.154969 55.325C1.08497 55.437 2.01497 55.381 2.94497 55.381H5.50247C5.73497 55.381 6.04496 55.381 6.04496 55.0996C6.12246 53.0738 6.04497 51.0466 6.12247 49.0208C6.66497 49.4716 7.05247 49.9784 7.51747 50.4838C8.98997 52.0602 10.3075 53.7486 11.78 55.325C12.3225 55.381 12.9425 55.325 13.485 55.325H18.0575C18.3675 55.325 18.6775 55.269 19.065 55.213C17.05 53.4672 15.035 51.6668 13.175 49.809ZM10.54 44.7998C10.385 45.3066 9.84246 45.644 9.29996 45.8694C8.21496 46.2628 7.12997 46.2068 5.96747 46.2068V42.0418C7.20747 42.0978 8.83497 42.0418 9.84247 42.6606C10.695 43.2234 10.7725 44.125 10.54 44.7998ZM152.21 52.735C151.202 51.7228 150.117 50.7652 149.11 49.809C148.722 49.4142 148.18 49.0768 148.025 48.6274C149.497 48.4594 150.815 47.7832 151.667 46.939C153.062 45.4186 153.217 43.2808 152.21 41.591C151.9 40.9722 151.125 40.4668 150.505 40.072C149.342 39.3972 147.792 39.0024 146.32 38.9464C144.305 38.7784 142.212 38.8904 140.12 38.8904C138.802 38.8904 137.407 38.8904 136.09 38.9464C136.012 39.3398 136.09 39.7346 136.09 40.128V54.9862C136.09 55.1556 136.09 55.325 136.167 55.493C138.105 55.549 140.042 55.493 141.98 55.493C142.057 53.974 141.98 52.455 141.98 50.9346C141.98 50.3158 141.902 49.753 142.135 49.1342C143.917 51.104 145.545 53.0738 147.327 55.0422C147.56 55.2116 147.637 55.493 148.025 55.437H155C154.147 54.5368 153.14 53.6366 152.21 52.735ZM145.312 45.9254C144.305 46.2628 143.142 46.3202 142.135 46.2628C142.038 46.186 141.983 46.0866 141.98 45.9828V43.8996C141.98 43.2808 141.902 42.718 142.057 42.0978C142.755 42.0978 143.53 42.0978 144.227 42.2672C144.925 42.3792 145.622 42.5486 146.165 42.9994C147.095 43.8436 146.785 45.3626 145.312 45.9254ZM56.6525 44.237C56.3488 43.6182 55.9317 43.0315 55.4125 42.4926C54.7925 41.8738 54.1725 41.311 53.3975 40.8602C51.4694 39.6192 49.0028 38.9028 46.4225 38.8344C44.485 38.7224 42.47 38.7784 40.5325 38.7784C39.4475 38.7784 38.3625 38.7224 37.2775 38.8904V53.918C37.2775 54.4234 37.2 54.9302 37.355 55.493C39.6025 55.437 41.85 55.493 44.0975 55.493C45.88 55.493 47.6625 55.493 49.3675 55.0436C50.4077 54.7784 51.3973 54.419 52.3125 53.974C53.32 53.4112 54.25 52.8484 54.9475 52.1162C57.35 49.865 57.8925 46.8256 56.6525 44.237ZM50.9175 48.346C50.6075 49.4716 49.6775 50.4838 48.2825 51.048C46.7325 51.7228 45.0275 51.7228 43.245 51.7228V42.5486L43.3225 42.4926C44.02 42.4366 44.7175 42.4366 45.415 42.4926C47.12 42.5486 48.825 43.1674 49.91 44.181C50.6075 44.8558 50.9175 45.588 51.0725 46.4322C51.2275 47.051 51.0725 47.7272 50.9175 48.346Z" fill="white"/>
<path d="M98.425 24.2019C97.1075 26.5651 94.1625 27.3519 94.1625 27.3519C96.72 24.8207 98.0375 22.2881 98.1925 19.2487C97.495 19.8675 96.4875 19.8675 96.4875 19.8675C97.805 18.0671 98.115 16.0973 98.1925 14.2955C98.0375 14.8023 97.495 15.6465 97.34 15.9839C96.6425 17.4469 95.7125 18.7419 93.93 19.7555C94.86 20.6557 95.17 21.6119 94.395 22.6255C93.2325 23.9205 92.07 25.3835 91.5275 26.9585C91.5275 26.9585 90.365 24.7647 92.225 22.9629C92.845 22.3441 93.0775 21.6119 92.9225 20.9371C92.69 19.8675 91.3725 19.6421 91.605 18.4605C90.5975 17.8977 88.04 17.1669 86.955 16.4347C87.575 15.8159 89.28 16.4907 90.055 16.8281C90.985 17.2229 92.3025 17.7283 93.155 17.4469C94.0075 17.1669 94.24 16.4907 94.085 15.7585C92.7675 16.0399 91.76 15.7025 91.295 14.8023C91.76 14.8023 92.6125 14.7463 93.155 14.5783C94.4725 14.1835 94.55 13.7887 94.7825 12.9445C94.3175 13.3393 93.31 13.5073 92.7675 13.3393C92.7675 13.3393 95.945 11.5375 95.8675 9.11825C95.8675 8.44205 95.48 6.86705 95.48 6.86705C96.6425 7.26045 96.875 7.71125 97.4175 8.49945C97.4175 8.49945 100.208 8.38745 100.285 6.30425C99.7425 6.75365 99.2 6.92305 98.8125 6.80965C98.8125 6.52965 99.2 5.85345 99.665 5.79745C101.293 4.50245 101.758 2.87145 101.68 1.18165C101.448 0.169451 100.13 -0.225348 98.89 0.113452C95.8675 1.23905 93.6975 1.85785 90.1325 2.13925C88.1175 2.30725 87.42 2.19525 86.49 1.91385C88.2725 4.05305 93.3875 3.15145 95.5575 2.53265C95.015 3.09545 92.3025 4.05305 92.3025 4.05305C92.3025 4.05305 94.3175 4.10905 95.17 3.77165C94.705 4.72785 94.0075 5.29065 93.3875 5.68405C93.6975 7.09105 94.4725 8.78085 93.155 10.4119C92.225 11.4815 91.3725 12.1577 89.9775 12.8899C88.35 13.7327 85.9475 13.9581 84.01 13.7327C84.8625 13.1699 85.0175 12.8324 85.87 12.7764C88.7375 12.6084 89.745 11.5949 90.83 10.3559C91.6825 9.39965 92.535 8.10465 92.3025 6.69765C91.8375 7.48585 91.6825 7.82325 90.52 8.44205C88.815 9.39965 86.8 8.21805 84.3975 9.90645C83.235 10.8067 83.0025 12.1003 81.2975 12.6085C80.91 12.5511 81.1425 11.7629 81.2975 11.5949C81.53 10.9747 80.0575 10.8067 80.8325 10.4119C81.84 9.96245 82.925 9.34365 83.6225 8.21665C82.6925 8.27265 81.84 7.93665 81.9175 7.37385C83.39 7.65385 84.785 7.59785 86.1025 7.31785C84.5525 7.20445 83.235 6.92305 82.5375 6.41625C82.3825 6.30425 82.46 6.13625 82.615 6.13625C84.475 6.30425 87.1875 6.30425 89.28 5.57205C85.715 5.40405 83.39 5.57205 81.9175 4.39045C81.685 4.22245 81.22 3.71565 81.1425 3.43425C82.925 3.77025 84.63 3.71425 86.335 3.37825C85.6375 2.98345 83.235 1.74445 77.345 1.74445C71.3775 1.74445 69.0525 2.98345 68.355 3.37685C70.06 3.71425 71.765 3.77165 73.5475 3.43285C73.47 3.71425 73.005 4.22105 72.7725 4.39045C71.3 5.51605 69.0525 5.40405 65.41 5.57205C67.5025 6.36025 70.215 6.30425 72.075 6.13485C72.23 6.13485 72.3075 6.30285 72.1525 6.41625C71.455 6.92305 70.06 7.20445 68.5875 7.31645C69.9825 7.59785 71.3 7.65385 72.7725 7.37245C72.85 7.87925 71.9975 8.27405 71.0675 8.21805C71.765 9.34365 72.85 9.96245 73.8575 10.4119C74.71 10.8067 73.16 10.9747 73.3925 11.5949C73.5475 11.7629 73.78 12.551 73.3925 12.607C71.6875 12.0442 71.455 10.8067 70.2925 9.90505C67.89 8.16065 65.9525 9.39965 64.17 8.44205C63.085 7.82325 62.93 7.48585 62.3875 6.69765C62.155 8.10465 63.0075 9.34365 63.86 10.3559C64.945 11.5949 66.03 12.607 68.82 12.7764C69.6725 12.8324 69.8275 13.1699 70.68 13.7327C68.7425 13.9581 66.34 13.6766 64.7125 12.8884C63.3175 12.1576 62.465 11.4815 61.535 10.4119C60.14 8.83685 60.9925 7.09105 61.3025 5.68405C60.499 5.16265 59.8867 4.50564 59.52 3.77165C60.76 4.05165 62.775 4.05165 62.775 4.05165C62.775 4.05165 60.0625 3.09545 59.52 2.53265C61.7675 3.09545 66.805 3.99705 68.5875 1.91385C67.6575 2.19525 66.8825 2.30725 64.945 2.13785C61.38 1.85785 59.21 1.23905 56.1875 0.113452C54.9475 -0.225348 53.63 0.169451 53.3975 1.18165C53.2425 2.92745 53.785 4.50245 55.4125 5.79745C55.8775 5.85345 56.265 6.52965 56.265 6.80965C55.8775 6.92165 55.335 6.75365 54.7925 6.30425C54.87 8.38605 57.66 8.49945 57.66 8.49945C58.2025 7.71125 58.435 7.26045 59.5975 6.86705C59.5975 6.86705 59.2875 8.44205 59.21 9.11825C59.055 11.5375 62.31 13.3393 62.31 13.3393C61.7675 13.5073 60.76 13.3393 60.295 12.9445C60.5275 13.7887 60.605 14.1835 61.9225 14.5769C62.465 14.7449 63.3175 14.8023 63.7825 14.8023C63.3175 15.7025 62.31 16.0399 60.9925 15.7585C60.76 16.4907 61.07 17.2229 61.9225 17.4469C62.775 17.7283 64.0925 17.2229 65.0225 16.8281C65.7975 16.4921 67.425 15.8719 68.1225 16.4347C67.0375 17.1669 64.48 17.8977 63.4725 18.4605C63.705 19.5861 62.3875 19.8675 62.155 20.9371C61.9225 21.6119 62.2325 22.3441 62.8525 22.9629C64.635 24.8207 63.55 26.9585 63.55 26.9585C63.0075 25.3835 61.9225 23.9205 60.6825 22.6255C59.83 21.6119 60.2175 20.6557 61.1475 19.7555C59.365 18.7419 58.435 17.4469 57.7375 15.9839C57.5825 15.6479 57.04 14.8023 56.885 14.2955C56.885 16.1533 57.2725 18.0671 58.59 19.8675C58.59 19.8675 57.66 19.8675 56.885 19.2487C56.9625 22.2867 58.3575 24.8207 60.915 27.3533C60.915 27.3533 57.97 26.6211 56.6525 24.2019C54.56 20.3743 54.87 16.0399 54.87 16.0399C54.87 16.0399 52.545 19.7555 54.56 24.4259C55.18 25.8903 55.8 27.1279 56.575 27.9721C56.8075 28.1961 57.97 28.7603 58.6675 29.3231C58.9 28.8163 59.1325 28.3669 59.1325 28.3669C59.1325 28.3669 60.0625 28.7589 60.6825 29.3231C61.4575 30.0553 62.3875 31.0115 62.3875 31.0115C62.93 29.9419 63.085 29.1537 64.015 29.1537C65.0225 29.1537 65.0225 31.1809 65.255 31.7437C66.34 31.2369 68.975 30.5607 70.4475 30.9555C71.61 31.2355 72.1525 31.9117 73.315 32.2491L73.7025 32.3051C75.175 32.2491 76.3375 32.1931 77.655 32.1371C78.8175 32.1931 80.0575 32.2491 81.6075 32.3051L81.9175 32.2491C83.08 31.9131 83.6225 31.2369 84.785 30.9555C86.2575 30.5607 88.8925 31.1795 89.9775 31.7437C90.21 31.1809 90.21 29.1537 91.2175 29.1537C92.225 29.1537 92.3025 29.9419 92.845 31.0115C92.845 31.0115 93.775 30.0553 94.55 29.3231C95.17 28.7603 96.1 28.3669 96.1 28.3669C96.1 28.3669 96.3325 28.8163 96.565 29.3231C97.2625 28.8163 98.425 28.1975 98.6575 27.9721C99.4325 27.1279 100.053 25.8903 100.673 24.4259C102.688 19.7555 100.363 16.0399 100.363 16.0399C100.363 16.0399 100.595 20.3743 98.425 24.2019ZM86.335 10.1879C87.265 9.79305 89.125 10.0185 89.125 10.0185C89.125 10.0185 88.5825 11.2001 87.6525 11.6509C86.8 12.0443 86.025 11.9309 85.715 11.5389C85.3275 11.0321 85.56 10.4693 86.335 10.1879ZM69.285 11.4815C68.975 11.8763 68.2 11.9883 67.3475 11.5935C66.4175 11.1441 65.875 9.96245 65.875 9.96245C65.875 9.96245 67.735 9.79445 68.665 10.1305C69.44 10.4693 69.6725 11.0321 69.285 11.4815ZM73.0825 16.0399C73.5475 16.0399 73.5475 16.7721 74.0125 17.1095C74.6325 17.5043 76.1825 17.4469 77.5 17.4469C78.6625 17.4469 80.3675 17.5029 80.9875 17.1109C81.53 16.7721 81.4525 16.0399 81.9175 16.0399C82.8475 16.0959 82.2275 17.5042 81.4525 17.8416C80.6 18.235 78.9725 18.3485 77.5 18.2925C75.8725 18.4045 74.4 18.2364 73.5475 17.8416C72.7725 17.5042 72.1525 16.0973 73.0825 16.0399ZM66.96 23.3577C68.2775 23.4697 70.06 23.6937 71.3775 23.1323C71.6875 22.7375 70.9125 22.6815 70.06 22.6815C68.7425 22.6815 67.0375 22.2881 66.7275 21.3305C68.045 22.0627 70.4475 22.1747 71.145 21.7253C69.285 21.2185 67.3475 20.881 66.8825 19.0232C67.58 19.586 69.5175 20.7116 71.145 20.2622C70.06 19.4167 69.44 18.7979 68.4325 18.0671C68.1225 17.7857 69.2075 17.7283 69.285 17.5043C69.5175 16.8855 69.0525 16.0399 69.595 15.4771C69.8275 15.0277 70.525 14.6343 71.2225 14.7463C71.145 15.5345 70.9125 16.3213 71.145 17.2229C71.61 18.5165 73.16 19.3047 74.6325 19.9249C75.4075 20.1489 76.725 20.2609 76.88 20.9931V22.6815C76.88 22.6815 76.0275 23.6391 74.71 23.9205C72.85 24.3699 70.7575 24.7647 68.5875 24.5953C67.735 24.5953 67.115 23.9205 66.96 23.3577ZM84.01 28.7603C83.3125 28.9283 84.0875 29.9419 83.545 30.2793C82.5375 30.8421 81.6075 31.1809 80.29 31.1809C79.4375 31.1809 78.0425 31.0689 77.5775 30.5047V30.4487C76.9575 31.0675 75.64 31.1235 74.7875 31.1235C73.47 31.1235 72.4625 30.7875 71.455 30.2233C70.9125 29.8859 71.61 28.8723 70.99 28.7043C70.06 28.4789 69.2075 29.9419 67.9675 29.9419C68.355 28.0281 70.37 26.7905 72.7725 26.0583C74.245 25.6649 75.795 25.4955 77.5775 25.4955C79.205 25.4955 80.91 25.6635 82.305 26.0583C84.7075 26.7345 86.645 27.9721 87.11 29.9419C85.87 29.9979 84.94 28.5349 84.01 28.7603ZM83.6225 23.1323C84.8625 23.6951 86.7225 23.4697 88.04 23.3563C87.885 23.9205 87.3425 24.5953 86.2575 24.6513C84.0875 24.8193 81.995 24.4833 80.135 23.9765C78.8175 23.6391 77.965 22.7375 77.965 22.7375V21.0491C78.1975 20.3183 79.4375 20.2048 80.2125 19.9808C81.7625 19.3606 83.235 18.5738 83.7 17.2788C83.9325 16.3786 83.7 15.5905 83.6225 14.8023C84.32 14.6343 85.0175 15.0263 85.25 15.5345C85.7925 16.0973 85.3275 16.9414 85.56 17.5602C85.6375 17.7842 86.7225 17.8403 86.4125 18.1231C85.405 18.8553 84.8625 19.4741 83.7 20.3183C85.25 20.7677 87.1875 19.6421 87.9625 19.0793C87.4975 20.8811 85.56 21.2745 83.7 21.7813C84.475 22.2321 86.8 22.1187 88.1175 21.3879C87.8075 22.3441 86.18 22.7375 84.785 22.7375C84.0875 22.6815 83.3125 22.7375 83.6225 23.1323Z" fill="#F02029"/>
</g>
</svg>
