<svg fill="none" viewBox="0 0 150 56" id="providers--tomhorn" xmlns="http://www.w3.org/2000/svg"><path d="M31.282 47.118a81.495 81.495 0 00-2.443-.122l-2.862-.147c-.074 0-.123-.05-.172-.098-1.974-1.641-3.948-3.258-5.922-4.9-.838-.71-1.702-1.395-2.54-2.106a.44.44 0 01-.149-.22 442.771 442.771 0 01-1.751-5.291c-.223-.661-.346-1.372-.519-2.058-.32-1.347-.641-2.67-.962-4.017a.806.806 0 010-.343c.222-.735.42-1.445.642-2.18.839-2.94 1.677-5.854 2.516-8.769.025-.098.05-.171.074-.27.025-.22.148-.318.296-.416a.296.296 0 00.124-.122c1.381-1.225 2.738-2.474 4.12-3.699.567-.49 1.184-.906 1.776-1.347a80.608 80.608 0 012.32-1.715.225.225 0 01.172-.073c3.503 0 7.007-.025 10.51-.025.05 0 .099.025.148.05 1.456 1.077 2.936 2.155 4.367 3.281.493.368.938.833 1.382 1.25.937.857 1.875 1.714 2.788 2.572a.64.64 0 01.123.22c1.06 3.65 2.097 7.3 3.158 10.95v.048c.173.27.099.564.025.858-.47 1.837-.889 3.698-1.382 5.536-.173.66-.42 1.298-.617 1.935l-1.184 3.6a.73.73 0 01-.173.27c-2.738 2.253-5.477 4.507-8.19 6.785a1.092 1.092 0 01-.74.294c-.79.024-1.605.073-2.394.122-.765.05-1.554.098-2.32.123-.049.024-.122.024-.221.024zm5.23-11.194c1.061 1.641 2.097 3.282 3.158 4.948.025-.025.025-.025.025-.049.32-.637.666-1.274.987-1.91.024-.05.024-.098.024-.123.025-.294.025-.563.05-.857l.148-2.646c.024-.416.05-.857.074-1.298-.05 0-.074.025-.124.025-1.06.342-2.121.66-3.207 1.004a.188.188 0 00-.099.049c-.32.27-.666.539-1.036.857zm-14.95-1.96l.073 1.299c.074 1.151.123 2.302.197 3.454a.47.47 0 00.075.244c.296.588.616 1.2.912 1.789.025.048.05.073.074.122 1.061-1.641 2.098-3.282 3.158-4.948-.37-.294-.715-.588-1.06-.882-.025-.024-.05-.024-.1-.049-.789-.245-1.578-.49-2.368-.76-.32-.072-.641-.17-.962-.268zm-1.21-4.237c.05-.05.074-.098.099-.123.617-.881 1.258-1.788 1.875-2.67.148-.22.271-.44.345-.71.099-.343.198-.686.296-1.053-1.702-.637-3.404-1.25-5.131-1.886.049.735.123 1.42.172 2.13 0 .123.05.246.1.32l1.553 2.792c.247.392.47.784.691 1.2zm21.835.024c.024-.049.024-.049.049-.049.765-1.347 1.505-2.694 2.27-4.041.025-.05.025-.098.05-.147.024-.294.049-.564.073-.857.05-.441.074-.907.123-1.372-1.727.637-3.404 1.249-5.131 1.886.148.49.271.93.395 1.396a.53.53 0 00.074.122c.69.98 1.356 1.96 2.047 2.915 0 .05.025.098.05.147zm-2.788 11.317a544.812 544.812 0 01-3.133-4.923c-.37.318-.74.612-1.11.93-.025.025-.05.05-.075.098-.592 1.03-1.209 2.058-1.8 3.087-.026.024-.026.049-.05.073.024 0 .05.025.074.025 1.332.392 2.69.784 4.021 1.175.05.025.099.025.148 0 .445-.122.913-.22 1.357-.343.198-.024.37-.073.568-.122zm-10.066-.735c-.025-.024-.025-.049-.025-.073-.617-1.054-1.209-2.082-1.826-3.136-.024-.024-.024-.073-.049-.073-.37-.319-.74-.613-1.11-.931-1.037 1.641-2.097 3.282-3.134 4.924.025.024.05.024.075.024.542.147 1.11.27 1.652.416.124.025.247.074.346.025 1.135-.319 2.27-.662 3.405-1.004.197-.05.419-.098.666-.172zm6.735-23.588c-.025-.05-.05-.074-.074-.123-.863-1.2-1.727-2.376-2.59-3.576-.025-.05-.075-.073-.124-.098-.567-.294-1.16-.563-1.727-.857-.024-.025-.05-.025-.099-.025v6.075h1.259c.074 0 .123-.025.197-.05.494-.22 1.012-.416 1.505-.636.543-.245 1.086-.465 1.653-.71zm-4.959 1.371v-6.074c-.05.024-.074.024-.099.049-.567.27-1.11.539-1.677.833-.074.049-.148.097-.198.17L26.62 16.55l-.148.147c.074.073.099.073.123.098.962.416 1.9.808 2.862 1.224.099.05.197.098.296.123.444-.025.888-.025 1.357-.025zm13.495 4.752l-.123-.122c-.37-.49-.765-.98-1.135-1.47a.663.663 0 00-.197-.171c-.987-.441-1.999-.907-2.985-1.348-.321-.147-.617-.269-.938-.416 0 .074 0 .123-.025.196-.049 1.151-.098 2.327-.148 3.478 0 .172.025.343.074.515.1.343.198.661.296 1.004.025.074.05.123.05.196 1.702-.588 3.404-1.225 5.132-1.862zm-21.538 1.91c.148-.489.271-.954.395-1.42.024-.049 0-.122 0-.171-.05-1.029-.074-2.033-.123-3.062 0-.245-.025-.49-.025-.76-.025 0-.05.025-.074.025l-3.923 1.764c-.05.024-.099.049-.123.098-.395.49-.79 1.004-1.185 1.518a.533.533 0 00-.074.123c1.752.612 3.43 1.25 5.132 1.886zm8.389 3.847v6.466h4.12c-1.357-2.155-2.739-4.286-4.12-6.466zm-4.49 6.466h4.12v-6.466c-1.358 2.18-2.74 4.31-4.12 6.466zm4.49-15.7V27.4c1.11-1.764 2.22-3.478 3.355-5.242a182.183 182.183 0 01-3.356-2.768zm-.346 8.009v-8.01c-1.11.93-2.245 1.837-3.355 2.768 1.11 1.764 2.22 3.478 3.355 5.242zm4.786 7.52c.42-1.494.864-2.989 1.283-4.483a482.304 482.304 0 01-5.403-2.008c1.357 2.18 2.739 4.31 4.12 6.49zm-9.227 0a738.305 738.305 0 014.12-6.442v-.025c-1.8.662-3.577 1.323-5.378 1.984.42 1.494.839 2.964 1.258 4.483zm-2.541-9.75c2.22.834 4.416 1.642 6.612 2.45 0 0 0-.024.025-.024-1.11-1.715-2.196-3.454-3.306-5.169-1.11.907-2.196 1.813-3.331 2.744zm10.954-2.767c-1.11 1.715-2.196 3.454-3.306 5.168 0 0 0 .025.025.025a1151.35 1151.35 0 006.612-2.45c-1.11-.906-2.22-1.812-3.33-2.743zm-4.465 5.634v-.025c-2.196-.808-4.392-1.616-6.612-2.45.419 1.495.838 2.965 1.282 4.459l5.33-1.984zm1.332-.025v.025c1.776.661 3.553 1.323 5.354 1.984.42-1.47.839-2.94 1.283-4.458-2.245.808-4.441 1.64-6.637 2.45zm13.693-3.698c-.272.465-.518.906-.765 1.347-.025.049-.025.098-.05.171-.049.613-.098 1.25-.148 1.862l-.221 2.67c-.05.612-.1 1.224-.149 1.861.025-.024.05-.049.074-.049a205.12 205.12 0 002.27-2.45.261.261 0 00.05-.146c0-.343-.025-.686-.05-1.029-.05-.955-.098-1.935-.148-2.89 0-.05 0-.123-.024-.147-.272-.417-.568-.784-.84-1.2zM18.255 32.25c-.025-.294-.05-.564-.074-.808l-.444-5.34c-.025-.27-.074-.49-.197-.686-.198-.319-.395-.686-.568-1.005-.024-.024-.024-.049-.05-.098-.27.393-.567.784-.838 1.176-.025.025-.025.098-.025.123-.074 1.323-.123 2.62-.197 3.943 0 .05.025.147.074.172l1.505 1.641.814.882zm22.723 8.353c.444-.147.863-.27 1.283-.392.049 0 .074-.05.098-.098.716-1.005 1.431-2.009 2.147-2.989.074-.098.074-.171.05-.27-.124-.758-.248-1.542-.37-2.326-.075-.392-.124-.784-.198-1.2-.025.024-.025.049-.05.073-.962 1.837-1.9 3.674-2.862 5.511-.024.025-.024.074-.049.123 0 .49-.025 1.004-.05 1.568zm-22.427-7.3c0 .05-.024.074-.024.098-.198 1.151-.37 2.327-.568 3.478 0 .05.025.147.05.196.715 1.005 1.43 2.009 2.17 3.038.05.049.1.098.149.122.222.074.444.147.666.196.197.05.394.123.592.172l-.074-1.47a.491.491 0 00-.074-.27c-.938-1.812-1.875-3.6-2.788-5.413-.05-.049-.074-.073-.099-.147zm21.144-17.367c0 .025-.025.025-.025.05.025.024.05.024.074.048a602.949 602.949 0 003.652 4.679c.049.049.098.098.148.122.394.172.79.368 1.184.54.024.024.074.024.099.048 0-.073 0-.122.024-.171.025-.392.025-.809.05-1.2a.864.864 0 00-.05-.245l-1.776-3.16c-.099-.172-.198-.22-.346-.245l-2.491-.368c-.198-.049-.37-.073-.543-.098zM17.737 21.4c.05-.025.099-.025.123-.05.395-.17.765-.342 1.16-.514a.331.331 0 00.173-.147c1.208-1.543 2.417-3.086 3.602-4.63a.338.338 0 00.074-.097h-.099c-1.011.147-2.023.294-3.06.465-.049 0-.098.05-.123.098-.616 1.102-1.258 2.205-1.875 3.307-.024.024-.024.073-.024.147 0 .27.024.539.024.808 0 .196.025.392.025.613zm14.926-10.043c0 .024-.024.049-.024.073.271.368.567.735.838 1.078.05.074.124.123.173.147 1.703.833 3.38 1.666 5.083 2.498.024.025.074.025.123.05-.025-.05-.025-.074-.025-.098-.444-1.054-.863-2.083-1.307-3.136-.025-.049-.099-.098-.148-.122a174.01 174.01 0 00-3.356-1.005c-.049 0-.098-.024-.123 0-.444.172-.839.343-1.234.515zm-8.93 3.87c.049-.025.073-.025.098-.049 1.702-.857 3.43-1.69 5.132-2.547.049-.025.098-.05.123-.099.247-.342.518-.71.765-1.077.024-.025.05-.05.074-.098-.42-.172-.814-.343-1.21-.515-.024-.024-.073 0-.122 0-1.135.343-2.246.686-3.38 1.005-.075.024-.1.073-.149.147-.419 1.028-.863 2.033-1.282 3.062-.025.049-.025.098-.05.171zM31.8 43.42c.05.024.05.048.074.048.888.564 1.8 1.103 2.69 1.666.048.025.123.025.172 0 1.085-.465 2.17-.955 3.257-1.445a.418.418 0 00.148-.147c.197-.343.394-.661.592-1.004.024-.05.049-.074.074-.123-.395-.122-.74-.196-1.11-.343a.89.89 0 00-.617 0c-1.407.368-2.788.71-4.195 1.053-.37.123-.715.197-1.085.294zm-1.061.024c-.05-.025-.074-.025-.123-.025-1.727-.44-3.454-.857-5.157-1.298a.98.98 0 00-.592.025c-.271.098-.567.171-.839.245a2.083 2.083 0 00-.296.098c.222.392.444.759.666 1.15.025.05.099.123.148.123 1.086.49 2.172.956 3.232 1.421.074.025.124.025.198-.024.567-.343 1.135-.71 1.702-1.054.345-.22.69-.44 1.061-.661zm-5.576-24.642c-.024.074-.024.098-.05.147-.37 1.298-.74 2.597-1.11 3.87-.123.392-.197.784-.147 1.225.024.245.024.465.024.71v.098c1.135-.93 2.245-1.861 3.356-2.792a376.356 376.356 0 01-2.073-3.258zm13.52 6.05c.025-.49.025-.955.05-1.396 0-.049-.025-.073-.025-.122l-1.258-4.41c0-.048-.025-.073-.05-.122-.69 1.102-1.406 2.18-2.097 3.282 1.11.907 2.245 1.838 3.38 2.768zm-1.085 5.267l3.404 1.249c-.024-.073-.024-.122-.049-.171-.345-1.176-.69-2.352-1.012-3.552-.172-.613-.37-1.151-.74-1.568-.123-.122-.222-.294-.32-.465-.42 1.518-.864 3.013-1.283 4.507zM21.56 31.392l3.405-1.249c-.444-1.518-.864-3.013-1.283-4.507-.271.392-.518.76-.79 1.127-.024.024-.024.073-.049.122-.247.907-.518 1.789-.765 2.695-.172.588-.345 1.176-.518 1.813zm19.293.417c-1.135-.417-2.245-.833-3.38-1.25-.42 1.495-.838 2.965-1.283 4.459.05 0 .075-.025.124-.025.271-.073.543-.171.814-.245.222-.049.395-.171.592-.318l3.035-2.499c.024-.049.049-.098.098-.122zm-19.145 0c.05.049.099.073.123.098l3.035 2.498c.197.147.37.27.592.319l.444.147c.148.049.296.098.47.147-.026-.074-.026-.098-.026-.147l-1.184-4.189c-.024-.098-.05-.122-.123-.098-.716.27-1.406.515-2.122.784-.444.147-.814.294-1.209.441zm9.745 3.748v4.017c.05-.025.075-.05.1-.074.937-.783 1.899-1.592 2.836-2.351.37-.294.691-.637.938-1.127.074-.147.173-.294.271-.465h-4.144zm-4.515 0c.223.367.42.71.617 1.053.025.049.074.098.124.147 1.11.93 2.22 1.837 3.355 2.768.025.024.05.049.074.049v-4.017h-4.17zm8.068-13.717c.691-1.078 1.382-2.156 2.073-3.258h-3.948c-.222 0-.42.024-.641.122-.272.123-.543.245-.84.368 1.136.93 2.246 1.837 3.356 2.768zm-9.548-3.258c.716 1.102 1.382 2.18 2.073 3.258 1.11-.931 2.22-1.837 3.355-2.768-.05-.025-.074-.025-.099-.05-.32-.146-.641-.269-.962-.416-.074-.024-.123-.049-.197-.049h-4.046c-.025.025-.05.025-.124.025zm18.504 13.692c.173-1.96.32-3.87.493-5.78h-.024c-.666 1.2-1.333 2.376-1.999 3.576.494.71 1.012 1.445 1.53 2.204zm-25.363 0c.519-.759 1.037-1.47 1.555-2.204-.666-1.2-1.332-2.4-1.999-3.576 0 0-.024 0-.024.024.123 1.886.296 3.797.468 5.756zm.247.833c.864 1.666 1.727 3.307 2.566 4.948 0 0 .025 0 .025-.024l-.222-4.189c-.79-.245-1.555-.49-2.369-.735zm22.279 4.924h.024c.84-1.642 1.703-3.283 2.566-4.948-.814.245-1.579.49-2.368.735l-.222 4.213zM23.214 16.132a650.036 650.036 0 01-3.33 4.287c.024.024.049.024.073 0 1.086-.49 2.196-.98 3.282-1.47.074-.024.074-.073.074-.147l-.074-2.008c0-.22-.025-.441-.025-.662zm19.441 4.311s0-.024.025-.024c-1.11-1.42-2.196-2.841-3.306-4.262 0 .073 0 .122-.025.147-.024.833-.049 1.64-.098 2.474 0 .122.024.171.098.196l2.443 1.102c.271.098.567.22.863.367zm-14.21-7.054s0-.025-.025-.025c-1.505.735-3.01 1.495-4.564 2.254.74.318 1.455.612 2.17.93.075.025.124.025.198-.048.494-.71 1.012-1.396 1.505-2.107.247-.343.494-.661.716-1.004zm10.214 2.253v-.024c-1.505-.76-3.035-1.494-4.54-2.254 0 .025-.025.025-.025.05.05.073.124.146.173.22l2.072 2.866c.025.049.1.073.124.049.74-.294 1.48-.613 2.196-.907zm-7.007 27.386c1.653-.417 3.256-.833 4.86-1.225-.025-.025-.05-.05-.074-.05-1.135-.342-2.245-.66-3.38-1.003-.074-.025-.099 0-.148.073-.32.539-.641 1.102-.937 1.641-.074.172-.198.343-.321.564zm-5.625-1.274v.024c1.603.417 3.232.809 4.86 1.225-.025-.049-.025-.073-.025-.073-.42-.71-.814-1.421-1.233-2.132-.05-.097-.099-.073-.173-.073-.79.22-1.554.465-2.344.686-.37.147-.715.245-1.085.343zm-1.333-29.737h-.074c-.74.22-1.505.441-2.245.686-.172.049-.32.196-.493.294.493.76.962 1.494 1.43 2.254.47-1.078.914-2.132 1.382-3.234zm13.175 0c.469 1.102.913 2.156 1.357 3.234.493-.76.962-1.495 1.431-2.254-.173-.098-.296-.22-.444-.27-.518-.171-1.061-.318-1.604-.49a14.01 14.01 0 00-.74-.22zm6.44 21.066c.197 1.175.394 2.351.592 3.551.049-.073.074-.122.098-.147.469-.66.938-1.322 1.407-1.96.123-.17.172-.367.222-.587-.79-.294-1.555-.588-2.32-.857zm-26.67 3.527l.049-.05c.197-1.15.37-2.326.567-3.502-.79.294-1.554.564-2.319.858.05.245.123.44.247.636.468.637.913 1.274 1.381 1.911.05.049.05.098.074.147zm29.087-6.418c-.765.833-1.53 1.641-2.294 2.474.79.294 1.53.564 2.294.858.148-.417.148-.417.124-.833-.025-.196-.025-.417-.025-.613-.025-.637-.074-1.249-.099-1.886zm-30.889 0v.098c-.05.833-.074 1.666-.123 2.499-.025.27.05.49.123.71.765-.294 1.53-.563 2.295-.857-.79-.809-1.53-1.617-2.295-2.45zm26.794-14.256c-.444-.759-.84-1.494-1.258-2.229-.124-.22-.297-.294-.445-.44l-1.406 2.204c1.036.147 2.072.294 3.109.465zm-19.59-.465c-.468-.76-.937-1.47-1.43-2.23-.149.148-.297.246-.395.417-.42.71-.815 1.446-1.234 2.156-.024.024-.024.049-.05.122 1.037-.171 2.073-.318 3.11-.465zm11.152 29.908c-.938-.588-1.826-1.127-2.738-1.715v2.695c.172 0 .32.049.468 0 .765-.294 1.505-.637 2.27-.98zm-3.084-1.69a167.59 167.59 0 00-2.739 1.715c.05.024.075.049.124.049.69.293 1.357.587 2.048.906.197.098.394.049.592.049-.025-.907-.025-1.813-.025-2.72zm17.147-15.677c-.469-.661-.913-1.298-1.382-1.96.05 1.103.099 2.18.173 3.283.395-.465.79-.882 1.209-1.323zm-32.567-1.91s-.024-.025 0 0c-.469.612-.913 1.249-1.381 1.91.42.441.814.882 1.233 1.323l.148-3.233zm1.95-6.908c.517-.906 1.01-1.813 1.529-2.719-.567.074-1.11.172-1.653.245.05.833.099 1.617.123 2.474zm27.385-2.474c-.543-.073-1.086-.171-1.653-.245.518.906 1.011 1.813 1.53 2.72.049-.858.074-1.642.123-2.475zM19.612 39.99v-.024c-.592-.809-1.16-1.617-1.752-2.45-.098.637-.197 1.225-.296 1.862.691.196 1.357.392 2.048.612zm23.315-.024s0 .024.025.024c.69-.22 1.356-.416 2.047-.637-.099-.612-.197-1.224-.296-1.861-.617.857-1.184 1.665-1.776 2.474zm-7.821 5.511c.469.294.913.563 1.357.857.074.05.099.025.148-.049l1.036-1.837c.025-.024.025-.073.05-.122-.864.367-1.728.76-2.591 1.151zm-7.648 0c-.888-.392-1.752-.76-2.59-1.151.37.686.74 1.322 1.11 1.984.024.024.049.024.073.024a70.04 70.04 0 011.407-.857zm.567-34.93c-.025-.024-.05-.024-.05-.049l-1.85-.808c-.049-.024-.074 0-.098.074-.124.318-.247.612-.395.93-.099.22-.173.417-.271.662.863-.27 1.751-.54 2.664-.809zm6.513 0c.913.27 1.802.54 2.69.809-.025-.074-.05-.098-.05-.147-.197-.466-.394-.931-.592-1.42-.05-.074-.099-.099-.172-.074-.593.27-1.185.514-1.777.759-.025.024-.05.049-.099.073zM20.55 30.095l.666 1.176c.345-1.2.666-2.351 1.011-3.527 0 0-.024 0-.024-.025-.543.784-1.086 1.568-1.653 2.376zm21.44 0c-.544-.784-1.11-1.567-1.654-2.351 0 0-.024 0-.024.024.345 1.176.666 2.327 1.011 3.528.247-.441.444-.809.666-1.2zM24.792 18.73h-.05c-.345.147-.69.318-1.035.465-.074.025-.05.074-.05.147l.074 2.033c0 .294.025.564.025.858h.025c.345-1.152.69-2.328 1.011-3.503zm13.964 3.503c.025-.05.025-.098.025-.148.025-.93.074-1.837.099-2.767 0-.074-.025-.098-.074-.123-.321-.147-.666-.294-.987-.44-.025 0-.05 0-.074-.025.345 1.175.666 2.327 1.011 3.503zM28.223 37.736l.024.049c.444.783.913 1.567 1.357 2.351.05.074.074.074.148.05l.74-.221c.099-.025.222-.074.346-.098-.889-.71-1.727-1.421-2.616-2.131zm6.093.024c-.863.686-1.727 1.396-2.566 2.107l.025.024c.346.098.716.22 1.061.319.025 0 .099-.05.123-.074.42-.686.815-1.396 1.234-2.106.025-.098.074-.172.123-.27zM21.536 33.5c.815.27 1.653.514 2.468.784v-.025c-.84-.685-1.678-1.396-2.542-2.106l.074 1.347zm19.54-1.347c-.863.71-1.702 1.396-2.54 2.106v.025c.813-.245 1.628-.514 2.466-.784.025-.44.05-.882.074-1.347zM28.642 18.116c-.05-.024-.05-.024-.074-.049-.765-.318-1.505-.637-2.27-.955-.025-.024-.099.025-.123.05-.222.293-.42.562-.617.856-.025.025-.025.05-.05.074 1.037.024 2.073.024 3.134.024zm8.388 0c0-.024.025-.024.025-.049-.247-.318-.469-.637-.715-.93-.025-.025-.075-.025-.124 0l-1.702.734c-.198.074-.395.172-.592.245v.025c1.06-.025 2.072-.025 3.108-.025zm1.974-1.812s-.025 0 0 0c-.444.637-.839 1.274-1.258 1.935.395.171.765.343 1.16.514.024-.833.073-1.64.098-2.45zm-15.42 0c-.024 0-.024 0 0 0 0 .833.05 1.64.074 2.474.395-.172.765-.343 1.16-.515-.42-.686-.84-1.322-1.234-1.96zm7.87 26.405c.42-.71.815-1.372 1.21-2.082-.42-.122-.815-.245-1.21-.367v2.45zm-.345-.024V40.26c-.395.122-.79.245-1.209.367.395.686.79 1.372 1.21 2.058zM25.88 16.94c-.691-.294-1.333-.564-1.999-.858v.025c.395.637.814 1.273 1.21 1.886.27-.367.517-.71.789-1.053zm10.781 0c.272.367.543.71.814 1.053.395-.613.79-1.25 1.21-1.886v-.025c-.667.27-1.333.564-2.024.858zm5.551 13.472l-.666 1.175c.666.245 1.332.49 1.974.735V32.3c-.42-.637-.839-1.25-1.308-1.886zm-21.217 1.175c-.222-.416-.444-.783-.666-1.175-.445.637-.889 1.273-1.333 1.886v.024c.691-.245 1.332-.49 1.999-.735zm22.377 1.176v-.024c-.642-.245-1.283-.466-1.95-.71l-.073 1.371c.69-.22 1.357-.44 2.023-.637zm-22.18.637c-.025-.465-.05-.906-.074-1.372-.666.245-1.308.49-1.949.71v.025c.666.196 1.332.417 2.023.637zm26.892-4.654c-.345.343-.69.686-1.011 1.053-.025.025-.025.098-.025.147l.074 1.519c0 .147.025.319.025.465h.024c.321-1.028.617-2.106.913-3.184zm-32.69 3.258c0-.05.025-.074.025-.098.025-.661.074-1.323.099-1.984a.261.261 0 00-.05-.147c-.296-.343-.617-.662-.937-1.004l-.05-.05c.296 1.103.592 2.18.913 3.283zm30.79 3.478c-.024 0-.024 0 0 0-.345.417-.641.882-.962 1.298-.172.245-.246.441-.172.784.074.368.123.76.197 1.176.32-1.102.617-2.18.938-3.258zm-28.865 3.258c.024-.074.024-.098.024-.147.074-.465.148-.906.222-1.372.025-.098 0-.147-.049-.196l-1.036-1.47-.074-.073s-.025 0-.025.025c.32 1.077.617 2.13.938 3.233zm8.166-28.634c0-.025 0-.025 0 0-.79.612-1.554 1.249-2.32 1.886.568-.147 1.111-.319 1.678-.49.05 0 .075-.074.1-.123.147-.343.295-.71.443-1.053.05-.073.074-.147.099-.22zm11.596-.025c0 .05.024.098.024.122.173.393.321.784.494 1.176.024.098.074.123.148.147.296.074.567.172.863.27.247.073.518.147.765.22v-.024c-.74-.637-1.53-1.274-2.294-1.91zm7.352 6.1v-.025l-2.295-1.91c.296.563.617 1.126.913 1.665.025.024.05.049.099.049.444.098.863.171 1.283.22zm-24.006-1.887s-.024-.024 0 0c-.79.613-1.554 1.25-2.319 1.886.444-.049.864-.098 1.283-.171a.188.188 0 00.099-.05c.32-.563.616-1.126.937-1.665zm-4.12 8.206c.222.392.42.76.617 1.102l.518-.661c0-.025.025-.05.025-.074 0-.294-.025-.587-.025-.881-.395.196-.765.343-1.135.514zm29.335 1.102c.197-.343.394-.71.617-1.102-.395-.172-.74-.343-1.135-.515-.025.319-.025.588-.025.882 0 .025 0 .05.025.074.148.245.32.44.518.661zM32.047 11.16c-.272-.343-.518-.686-.765-.98-.247.319-.494.637-.765.98.247.122.493.22.74.318h.074c.222-.098.444-.196.716-.318zm8.56 30.006a6.956 6.956 0 00-.764.245c-.025 0-.05.024-.074.049-.123.22-.247.44-.395.686.395.122.79.22 1.16.343l.074-1.323zm-17.418.98c-.148-.245-.27-.466-.394-.686l-.05-.05c-.246-.073-.518-.17-.79-.244.026.44.05.882.075 1.323.37-.123.765-.22 1.16-.343zm3.578 4.237v.025h2.763l-.025-.025c-.518-.22-1.036-.465-1.554-.686h-.074c-.37.221-.74.441-1.11.686zm9.03.025v-.025c-.37-.22-.74-.465-1.11-.686-.025-.024-.075 0-.124 0-.37.172-.74.319-1.11.49-.148.074-.272.123-.42.196v.025h2.764zM14.653 26.86c.025-.024.025-.024.05-.024.32-.466.665-.931.986-1.397a.451.451 0 00.05-.171c.024-.294.024-.588.049-.882 0-.245.025-.465.025-.71h-.025c-.37 1.053-.74 2.106-1.135 3.184zm33.208 0c.025-.024.025-.024 0 0a82.495 82.495 0 00-1.11-3.209c0 .564.025 1.127.05 1.666 0 .049.024.098.024.122.37.466.715.931 1.036 1.421zm-2.541-8.99c-.05.613-.074 1.2-.099 1.789 0 .049.025.122.05.146l.74 1.323c.024.025.024.05.05.074l.024-.025a159.572 159.572 0 01-.765-3.307zm-28.076 0a132.195 132.195 0 00-.765 3.332c.024 0 .024 0 .024-.025.272-.465.543-.93.79-1.396.025-.024.025-.073.025-.122 0-.588-.05-1.2-.074-1.789zM39.645 43.47h-.049c-.42.195-.863.367-1.283.563-.025.024-.074.049-.099.098-.246.44-.493.882-.764 1.323-.025.024-.025.073-.05.097l.025.025c.74-.686 1.48-1.396 2.22-2.107zm-14.507 2.13c0-.024 0-.024 0 0-.172-.318-.345-.612-.518-.955-.197-.416-.468-.71-.838-.784-.05 0-.1-.049-.173-.073-.222-.098-.469-.196-.69-.294v.024a172.8 172.8 0 012.22 2.082zm18.85-5.437c0-.025-.025-.025 0 0l-.025-.025c-.469.147-.913.294-1.382.441-.049.025-.098.05-.123.098-.247.319-.469.661-.715.98-.05.049-.1.098-.149.171 0 .025.025.025.025.05.79-.589 1.58-1.152 2.369-1.715zm-23.044 1.69s0-.025.025-.025c-.296-.416-.592-.808-.864-1.224a.188.188 0 00-.098-.05c-.32-.097-.617-.195-.938-.293-.148-.05-.32-.098-.468-.147v.024c.764.588 1.554 1.151 2.343 1.715zM35.28 9.764v-.025c-.913.074-1.802.123-2.714.196.024.025.049.05.074.05.296.097.592.17.888.269a.763.763 0 00.69-.05c.37-.146.716-.293 1.062-.44zm-5.28.196s0-.025 0 0c-.913-.098-1.801-.147-2.739-.22.05.024.05.024.05.048.419.196.863.368 1.283.563.024.025.074.025.123 0l.74-.22c.197-.073.37-.122.543-.171zm15.814 14.035c.222.27.444.539.642.784a442.63 442.63 0 01-.074-1.715h-.025c-.172.294-.345.588-.543.931zm-29.606-.955h-.024l-.074 1.715c.197-.245.42-.515.641-.784-.197-.319-.37-.613-.543-.931zm28.99-2.621c-.025.392-.025.735-.05 1.078 0 .024.025.049.05.073.271.123.567.245.863.392-.296-.539-.567-1.004-.863-1.543zm-27.83 0c-.296.514-.568 1.004-.864 1.518l.864-.391c.025 0 .05-.05.05-.074-.025-.318-.025-.661-.05-1.053zM40.904 42.17c.345-.465.666-.93.987-1.372a8.864 8.864 0 00-.864.245c-.025 0-.05.05-.05.074-.049.318-.049.661-.073 1.053zm-19.244-.122c-.025-.27-.025-.613-.05-.956 0-.024-.024-.048-.049-.048-.296-.098-.567-.172-.863-.27 0 0 0 .024-.025.024.32.417.666.833.987 1.25zm18.356.784v-.025c-.272-.073-.543-.171-.84-.245-.024 0-.049 0-.073.025-.173.27-.321.538-.47.832 0 0 0 .025.026.025.444-.22.913-.416 1.357-.612zM33.23 10.645v-.024a24.335 24.335 0 00-1.431-.417c0 .025-.025.025-.025.05.198.245.37.49.568.734.024.025.049.025.074.025.296-.123.542-.245.814-.368zM23.93 43.444c-.1-.196-.198-.343-.272-.49-.074-.122-.148-.318-.247-.367-.098-.05-.246.049-.37.073-.172.05-.345.098-.493.147v.025c.444.196.888.392 1.382.612zm5.378-32.823v.024c.271.123.543.245.79.343.024 0 .049 0 .074-.024.197-.245.37-.49.567-.735 0 0-.025-.024-.025-.049-.444.147-.912.294-1.406.441zm15.617 14.207s0 .024 0 0c.173-.27.346-.539.494-.833a6.89 6.89 0 00-.395-.49c-.025.441-.074.882-.099 1.323zm-27.311.024s.024-.024 0 0c-.025-.465-.05-.906-.099-1.322-.123.147-.247.318-.395.465.173.294.346.563.494.857zm4.293 14.893h-.025c.024.294.024.588.05.882 0 .025.024.05.024.074.173.049.32.097.518.171-.197-.392-.395-.76-.567-1.127zm18.775.025h-.025c-.197.367-.37.71-.567 1.102.197-.049.345-.098.493-.147.025 0 .05-.049.05-.073.024-.294.024-.588.049-.882zM17.786 22.5c.247-.342.494-.636.74-.954a3.658 3.658 0 00-.715.294c-.025 0-.05.073-.05.098 0 .171.025.343.025.563zm26.966 0c0-.195.025-.366.025-.538 0-.073-.025-.122-.074-.122-.197-.074-.37-.172-.567-.245-.025-.025-.074-.025-.124-.05v.025c.247.294.494.588.74.93zM30.788 11.749c-.172-.074-.32-.147-.493-.196-.025 0-.05 0-.05.024-.172.22-.32.417-.493.637 0 .025.025.025.025.05.32-.197.641-.344 1.011-.515zm1.999.49c0-.025.024-.025.024-.05-.172-.195-.32-.416-.468-.612-.025-.024-.05-.049-.074-.024-.148.049-.296.122-.47.196.322.171.642.318.988.49zm6.538 29.295c-.37.098-.716.172-1.037.27.247.098.47.171.716.22.025 0 .074-.024.074-.049.074-.122.148-.27.247-.44zm-16.086 0c.098.172.172.319.271.466.025.024.05.024.074.024.247-.073.469-.147.716-.196v-.024c-.346-.098-.691-.172-1.061-.27zm15.913-16.632a3.018 3.018 0 01-.099-.392h-.024v.417c.024 0 .074-.025.123-.025zm-15.617.05v-.417h-.025c-.025.123-.074.245-.099.392.05-.025.1 0 .124.024zm-.247.342c-.05.123-.074.245-.099.368l.025.024c.074-.098.148-.22.222-.318l-.148-.074zm15.84.05c.073.122.147.22.221.342h.025c-.025-.122-.074-.245-.099-.367-.074 0-.098 0-.148.024zM26.79 35.997a2.462 2.462 0 00-.172-.368l-.074.147a.698.698 0 00.246.22zm9.154-.343c-.074.122-.124.22-.198.343 0 0 0 .024.025.024.099-.073.173-.147.271-.22-.049-.074-.074-.098-.098-.147zm-9.622-.196c-.099-.025-.173-.05-.272-.074.148.196.198.196.272.074zm10.19-.098a4.066 4.066 0 00-.272.073c.074.147.099.147.271-.073zm-5.058-16.657a1.72 1.72 0 00.246-.098c-.222-.049-.247-.049-.247.098zm-.346 0c0-.147-.05-.171-.222-.098.074.025.148.074.222.098z" fill="#FFA700"></path><path d="M60.197 19.415h-3.133v-2.352h7.747c.493 0 .863.392.863.857v1.47h-3.133v7.52h-2.369v-7.495h.025zM76.53 22.011c0 2.719-2.22 4.924-4.96 4.924-2.738 0-4.958-2.205-4.958-4.924 0-2.719 2.22-4.923 4.959-4.923 2.738 0 4.959 2.204 4.959 4.923zm-2.369 0a2.58 2.58 0 00-2.59-2.572 2.58 2.58 0 00-2.59 2.572c0 1.42 1.159 2.572 2.59 2.572a2.581 2.581 0 002.59-2.572zM78.084 17.088h2.122c.098 0 .172.049.246.122l2.69 3.086 2.64-3.11c.074-.074.148-.123.246-.123h2.097v9.847h-2.343v-6.148l-1.11 1.298-.913 1.029a.874.874 0 01-1.308 0l-2.023-2.352v6.149h-2.369v-9.798h.025zM94.343 17.088h1.505c.493 0 .863.392.863.857v2.89h3.849v-3.747h1.505a.87.87 0 01.863.857v8.99h-2.368v-3.748h-3.849v3.747h-2.368v-9.846zM114.401 22.011c0 2.719-2.221 4.924-4.959 4.924-2.739 0-4.959-2.205-4.959-4.924 0-2.719 2.22-4.923 4.959-4.923 2.738 0 4.959 2.204 4.959 4.923zm-2.369 0a2.58 2.58 0 00-2.59-2.572 2.581 2.581 0 00-2.591 2.572c0 1.42 1.16 2.572 2.591 2.572a2.58 2.58 0 002.59-2.572zM115.955 22.77c0-.465.395-.857.864-.857h2.837c.715 0 1.283-.588 1.258-1.298-.025-.686-.617-1.2-1.283-1.2h-3.676v-2.352h3.652c1.973 0 3.676 1.592 3.651 3.576a3.52 3.52 0 01-2.073 3.21l3.084 3.085h-3.281l-2.689-2.67v2.67h-2.369V22.77h.025zM125.503 17.088h1.85c.247 0 .494.122.667.293l5.205 6.002v-6.295h1.481c.493 0 .863.392.863.857v8.99h-2.393l-5.329-6.149v6.148h-2.344v-9.846zM58.988 39.084c-.05-.025-.099-.025-.148-.05-.05-.024-.099-.048-.148-.048l-.099-.05-.197-.097c-.025-.024-.074-.049-.099-.073-.074-.05-.123-.099-.172-.123a4.302 4.302 0 01-.346-.294 3.114 3.114 0 01-.913-2.229 3.2 3.2 0 01.913-2.229c.099-.098.222-.196.346-.294a.748.748 0 01.172-.122c.124-.098.272-.147.395-.22l.148-.074.148-.05c.32-.097.666-.17 1.012-.17.345 0 .69.048 1.011.17l.148.05.148.073c.148.074.272.123.395.22.074.05.123.074.197.123.124.098.247.196.346.294l-1.061 1.053c-.074-.073-.148-.147-.247-.196-.024-.024-.05-.024-.074-.049l-.05-.024-.073-.05c-.05-.024-.099-.048-.124-.048l-.074-.025c-.024 0-.024-.024-.049-.024s-.025 0-.025-.025c-.024 0-.049 0-.049-.024a2.188 2.188 0 00-.42-.05c-.147 0-.295.025-.419.05-.024 0-.05.024-.074.024l-.025.025c-.024 0-.049 0-.049.024l-.074.025c-.05.024-.098.024-.123.049l-.05.024-.024.025-.025.024c-.025 0-.05.025-.05.05l-.073.048c-.025.025-.05.05-.074.05a1.622 1.622 0 00-.568 1.248c0 .49.222.931.568 1.25l.074.073.024.025.075.049c.049.049.123.073.172.098.05.024.074.049.123.073.075.025.124.05.198.074.123.024.271.049.42.049.147 0 .295-.025.419-.05.074-.024.123-.048.197-.073.05-.024.099-.049.123-.073.075-.025.124-.074.173-.098l.123-.098.124-.098v-1.151h.937c.296 0 .543.244.543.538v.588c0 .392-.148.784-.444 1.078-.099.098-.222.196-.345.294l-.198.123-.098.049a.74.74 0 01-.198.097.188.188 0 01-.098.05l-.124.048h-.024a.352.352 0 01-.148.05c-.321.097-.667.17-1.012.17s-.666-.048-.987-.146zM65.847 33.328a.6.6 0 01.518-.343c.222 0 .42.122.493.318l2.788 5.928h-1.579l-.616-1.298h-2.246l-.616 1.298h-1.505l2.763-5.903zm.987 3.208l-.469-1.004-.469 1.005h.938zM70.46 32.985h1.357c.05 0 .1.024.148.073l1.703 1.96 1.702-1.96c.05-.049.099-.073.148-.073h1.332v6.27h-1.504v-3.919l-.716.833-.567.661a.57.57 0 01-.84 0l-1.282-1.494v3.92h-1.505v-6.271h.024zM78.035 32.985h.962c.296 0 .543.245.543.539v5.707h-1.505v-6.246zM80.724 32.985h1.184c.148 0 .32.073.42.196L85.634 37v-4.016h.937c.296 0 .543.245.543.539v5.707h-1.505l-3.405-3.92v3.92H80.7v-6.246h.025zM90.272 39.084c-.05-.025-.099-.025-.148-.05-.05-.024-.099-.048-.148-.048l-.099-.05-.197-.097c-.025-.024-.074-.049-.099-.073-.074-.05-.123-.099-.173-.123a4.302 4.302 0 01-.345-.294 3.114 3.114 0 01-.913-2.229 3.2 3.2 0 01.913-2.229c.099-.098.222-.196.345-.294a.748.748 0 01.173-.122c.123-.098.271-.147.395-.22l.148-.074.148-.05c.32-.097.666-.17 1.011-.17.346 0 .691.048 1.012.17l.148.05.148.073c.148.074.271.123.395.22.074.05.123.074.197.123.123.098.247.196.345.294l-1.06 1.053a.966.966 0 00-.247-.196c-.025-.024-.05-.024-.074-.049l-.05-.024-.073-.05c-.05-.024-.1-.048-.124-.048l-.074-.025c-.025 0-.025-.024-.05-.024-.024 0-.024 0-.024-.025-.025 0-.05 0-.05-.024a2.186 2.186 0 00-.419-.05c-.148 0-.296.025-.42.05-.024 0-.048.024-.073.024l-.025.025c-.024 0-.05 0-.05.024l-.073.025c-.05.024-.099.024-.123.049l-.05.024-.024.025-.05.024c-.024 0-.05.025-.05.05l-.073.048c-.025.025-.05.05-.074.05a1.622 1.622 0 00-.568 1.248c0 .49.222.931.568 1.25l.074.073.024.025.075.049c.049.049.123.073.172.098.05.024.074.049.123.073.075.025.124.05.198.074.123.024.271.049.42.049.147 0 .295-.025.419-.05.074-.024.123-.048.197-.073a.54.54 0 00.123-.073c.075-.025.124-.074.173-.098l.124-.098.123-.098v-1.151h.937c.297 0 .543.244.543.538v.588c0 .392-.148.784-.444 1.078a4.302 4.302 0 01-.345.294l-.198.123-.098.049a.74.74 0 01-.198.097.188.188 0 01-.098.05l-.124.048h.025a.352.352 0 01-.148.05c-.32.097-.666.17-1.012.17-.345 0-.69-.048-1.011-.146z" fill="#fff"></path></svg>