<svg width="155" height="56" viewBox="0 0 155 56" fill="none" xmlns="http://www.w3.org/2000/svg">
<path d="M22.0962 56C21.0592 55.9219 20.0213 55.8618 18.9828 55.8198L15.3355 55.6027C15.2412 55.6027 15.1787 55.5289 15.1163 55.458C12.6006 53.0344 10.0849 50.6463 7.56927 48.2213C6.50132 47.1727 5.40023 46.1611 4.33228 45.111C4.24161 45.028 4.17529 44.9145 4.1424 44.7861C3.38443 42.1869 2.64059 39.5821 1.91091 36.972C1.62672 35.9958 1.46997 34.9457 1.2495 33.9326C0.841689 31.9432 0.432606 29.9893 0.0235219 28C-0.00784062 27.8331 -0.00784062 27.6603 0.0235219 27.4934C0.30644 26.4079 0.558772 25.3594 0.84169 24.2739C1.91091 19.9319 2.97887 15.6283 4.04809 11.3232C4.07995 11.1784 4.11181 11.0706 4.1424 10.9244C4.17426 10.5995 4.33101 10.4548 4.51962 10.31C4.58668 10.2697 4.64173 10.2069 4.67765 10.1299C6.4376 8.32069 8.16696 6.47608 9.92819 4.66691C10.6508 3.94325 11.4371 3.32887 12.1915 2.67757C13.164 1.81292 14.1497 0.968504 15.1482 0.144734C15.1759 0.109615 15.2098 0.0818136 15.2476 0.0632128C15.2855 0.0446121 15.3263 0.0356464 15.3673 0.0369226C19.8316 0.0369226 24.2971 0 28.7613 0C28.8251 0 28.8875 0.0369221 28.9499 0.0738438C30.8055 1.66443 32.6916 3.2565 34.5153 4.91946C35.1436 5.46295 35.7107 6.14969 36.2765 6.76555C37.4706 8.03123 38.666 9.29691 39.8295 10.5641C39.8999 10.6593 39.9531 10.7697 39.9863 10.889C41.3372 16.2796 42.6587 21.6701 44.0109 27.0607V27.1316C44.2313 27.5304 44.137 27.9646 44.0427 28.3988C43.4437 31.1118 42.9098 33.8602 42.2815 36.5747C42.061 37.5494 41.7462 38.4917 41.4952 39.4325L39.9863 44.7492C39.9392 44.8994 39.8639 45.0356 39.7658 45.148C36.2765 48.4753 32.7859 51.8042 29.3284 55.1685C29.0725 55.4456 28.7357 55.6007 28.3854 55.6027C27.3786 55.6382 26.34 55.7105 25.3345 55.7829C24.3595 55.8567 23.354 55.9276 22.3778 55.9646C22.3154 56 22.2224 56 22.0962 56ZM28.7613 39.4679C30.1135 41.8914 31.4338 44.315 32.7859 46.7755C32.8178 46.7385 32.8178 46.7385 32.8178 46.7031C33.2256 45.7623 33.6665 44.8216 34.0756 43.8823C34.1062 43.8084 34.1062 43.7375 34.1062 43.7006C34.138 43.2664 34.138 42.8691 34.1699 42.4349L34.3585 38.5271C34.3891 37.9128 34.4222 37.2615 34.4528 36.6102C34.3891 36.6102 34.3585 36.6471 34.2948 36.6471C32.9439 37.1522 31.5918 37.6218 30.2078 38.1299C30.1604 38.1388 30.1165 38.164 30.0816 38.2022C29.6738 38.601 29.2329 38.9983 28.7613 39.4679ZM9.70899 36.5732L9.80203 38.4917C9.89633 40.1916 9.95878 41.8914 10.0531 43.5928C10.0556 43.7208 10.0887 43.8456 10.1487 43.9532C10.5259 44.8216 10.9337 45.7254 11.3109 46.5953C11.3428 46.6662 11.3746 46.7031 11.4052 46.7755C12.7574 44.3519 14.0789 41.9284 15.4298 39.4679C14.9583 39.0337 14.5186 38.5995 14.0789 38.1653C14.0471 38.1299 14.0152 38.1299 13.9515 38.0929C12.946 37.7311 11.9405 37.3693 10.9337 36.9705C10.5259 36.8642 10.1168 36.7194 9.70772 36.5747L9.70899 36.5732ZM8.16696 30.3157C8.23068 30.2419 8.26127 30.171 8.29313 30.1341C9.07944 28.833 9.89633 27.4934 10.6826 26.1908C10.8713 25.8659 11.028 25.541 11.1223 25.1423C11.2485 24.6357 11.3746 24.1291 11.4995 23.5871C9.33049 22.6463 7.16146 21.741 4.96056 20.8017C5.02301 21.8872 5.11731 22.8989 5.17976 23.9475C5.17976 24.1291 5.24348 24.3108 5.3072 24.4201L7.28635 28.5435C7.60113 29.1224 7.88532 29.7014 8.16696 30.3157ZM35.9936 30.3512C36.0242 30.2788 36.0242 30.2788 36.056 30.2788C37.0309 28.2895 37.974 26.3001 38.9489 24.3108C38.9808 24.2369 38.9808 24.166 39.0126 24.0937C39.0432 23.6595 39.0751 23.2607 39.1057 22.828C39.1694 22.1767 39.2 21.4885 39.2624 20.8017C37.0615 21.7425 34.9244 22.6463 32.7235 23.5871C32.9121 24.3108 33.0688 24.9606 33.2268 25.6488C33.2511 25.7135 33.2829 25.7741 33.3212 25.829C34.2005 27.2763 35.0492 28.7237 35.9299 30.1341C35.9299 30.2079 35.9617 30.2788 35.9936 30.3512ZM32.4405 47.0649C31.0984 44.6497 29.7675 42.2261 28.4478 39.7943C27.9763 40.2639 27.5048 40.6981 27.0332 41.1678C27.0014 41.2047 26.9695 41.2416 26.9377 41.3125C26.1832 42.8337 25.3969 44.3519 24.6437 45.8716C24.6106 45.9071 24.6106 45.944 24.58 45.9794C24.6106 45.9794 24.6437 46.0164 24.6743 46.0164C26.3718 46.5953 28.1025 47.1742 29.7987 47.7517C29.8624 47.7886 29.9249 47.7886 29.9873 47.7517C30.5544 47.5715 31.1508 47.4268 31.7167 47.2451C31.969 47.2097 32.1882 47.1373 32.4405 47.0649ZM19.6124 45.9794C19.5805 45.944 19.5805 45.9071 19.5805 45.8716C18.7942 44.315 18.0398 42.7968 17.2535 41.2401C17.2229 41.2047 17.2229 41.1323 17.191 41.1323C16.7195 40.6612 16.248 40.227 15.7764 39.7574C14.4549 42.1809 13.104 44.6045 11.7824 47.0295C11.8143 47.0649 11.8462 47.0649 11.878 47.0649C12.5688 47.282 13.2926 47.4637 13.9833 47.6793C14.1414 47.7162 14.2981 47.7886 14.4243 47.7162C15.8707 47.2451 17.3172 46.7385 18.7636 46.2335C19.0147 46.1596 19.2976 46.0887 19.6124 45.9794ZM28.1955 11.143C28.1636 11.0692 28.1318 11.0337 28.1012 10.9613C27.0014 9.18909 25.9003 7.45229 24.8005 5.68005C24.7686 5.6062 24.7049 5.57223 24.6425 5.53531C23.9199 5.10111 23.1642 4.70383 22.4416 4.26963C22.411 4.23271 22.3778 4.23271 22.3154 4.23271V13.2047H23.9199C24.0142 13.2047 24.0766 13.1678 24.1709 13.1309C24.8005 12.8059 25.4606 12.5165 26.0889 12.1916C26.7809 11.8297 27.4729 11.5048 28.1955 11.143ZM21.8757 13.1678V4.19727C21.812 4.23271 21.7814 4.23271 21.7496 4.26963C21.027 4.66839 20.335 5.06567 19.6124 5.49987C19.5181 5.57223 19.4238 5.64312 19.3601 5.75094L16.1549 10.855L15.9663 11.0721C16.0606 11.1799 16.0925 11.1799 16.1231 11.2168C17.349 11.8312 18.5444 12.4101 19.7704 13.0245C19.8966 13.0984 20.0215 13.1693 20.1476 13.2062C20.7135 13.1693 21.2793 13.1693 21.877 13.1693L21.8757 13.1678ZM39.0738 20.1859L38.9171 20.0057C38.4455 19.282 37.9421 18.5584 37.4706 17.8347C37.4022 17.7321 37.3168 17.6462 37.2196 17.5822C35.9617 16.9309 34.672 16.2426 33.4155 15.5913C33.0064 15.3742 32.6292 15.194 32.2201 14.9769C32.2201 15.0862 32.2201 15.1586 32.1882 15.2664C32.1258 16.9663 32.0633 18.7031 31.9996 20.403C31.9996 20.657 32.0315 20.9095 32.0939 21.1636C32.2213 21.6701 32.3462 22.1398 32.4711 22.6463C32.503 22.7556 32.5348 22.828 32.5348 22.9358C34.7039 22.0674 36.8716 21.1266 39.0738 20.1859ZM11.6257 23.0067C11.8143 22.2845 11.9711 21.5978 12.1291 20.9095C12.1597 20.8372 12.1291 20.7294 12.1291 20.657C12.0654 19.1373 12.0348 17.6545 11.9723 16.1348C11.9723 15.773 11.9405 15.4112 11.9405 15.0124C11.9086 15.0124 11.8768 15.0493 11.8462 15.0493L6.84668 17.6545C6.78296 17.69 6.72052 17.7269 6.68993 17.7993C6.18654 18.5229 5.68315 19.282 5.17976 20.0411C5.1414 20.0965 5.10968 20.1576 5.08546 20.2228C7.31821 21.1266 9.45666 22.0674 11.6257 23.0067ZM22.3167 28.6882V38.2377H27.5672C25.8379 35.055 24.0766 31.9078 22.3167 28.6882ZM16.5946 38.2377H21.8451V28.6882C20.1145 31.9078 18.3533 35.0535 16.5946 38.2377ZM22.3167 15.0508V26.8791C23.7313 24.2739 25.1459 21.7425 26.5923 19.1373C25.1527 17.7944 23.7269 16.4317 22.3154 15.0493L22.3167 15.0508ZM21.8757 26.8791V15.0493C20.4611 16.4228 19.0147 17.7623 17.6001 19.1373C19.0147 21.7425 20.4293 24.2739 21.8757 26.8791ZM27.975 37.9851C28.5103 35.7787 29.0761 33.5708 29.6101 31.3643C27.3098 30.3917 25.0146 29.4032 22.7245 28.3988C24.4538 31.6183 26.2151 34.7655 27.975 37.9851ZM16.2161 37.9851C17.9521 34.8033 19.7023 31.6319 21.4666 28.4711V28.4342C19.1727 29.4119 16.9081 30.3881 14.6129 31.3643C15.1482 33.5708 15.6821 35.7418 16.2161 37.9851ZM12.9778 23.5856C15.807 24.8173 18.6056 26.0107 21.4042 27.204C21.4042 27.204 21.4042 27.1685 21.4361 27.1685C20.0215 24.6357 18.6375 22.0674 17.2229 19.5346C15.8083 20.8741 14.4243 22.2107 12.9778 23.5856ZM26.9377 19.4991C25.5231 22.032 24.1391 24.6002 22.7245 27.1316C22.7245 27.1316 22.7245 27.1685 22.7563 27.1685C25.5683 25.9724 28.3771 24.7663 31.1827 23.5502C29.7681 22.2121 28.3523 20.8741 26.9377 19.4991ZM21.2474 27.8198V27.7829C18.4489 26.5896 15.6503 25.3963 12.8211 24.1646C13.3551 26.3725 13.889 28.5435 14.4549 30.7499L21.2474 27.8198ZM22.945 27.7829V27.8198C25.2083 28.796 27.4729 29.7737 29.7681 30.7499C30.3034 28.5789 30.8373 26.4079 31.4032 24.166C28.5421 25.3594 25.7435 26.5866 22.945 27.7829ZM40.3954 22.3214C40.0487 23.0082 39.7352 23.6595 39.4205 24.3108C39.3886 24.3831 39.3886 24.4555 39.3567 24.5633C39.2943 25.4686 39.2318 26.4094 39.1681 27.3133L38.8865 31.2565C38.8228 32.1603 38.759 33.0642 38.6966 34.005C38.7284 33.9695 38.7603 33.9326 38.7909 33.9326C39.7637 32.7356 40.728 31.5294 41.6838 30.3143C41.7233 30.2515 41.7455 30.1763 41.7475 30.0986C41.7475 29.5921 41.7157 29.0855 41.6838 28.5789C41.6201 27.1685 41.5589 25.7212 41.4952 24.3108C41.4952 24.2369 41.4952 24.1291 41.4646 24.0937C41.118 23.4778 40.742 22.9358 40.3954 22.3214ZM5.49454 34.0419C5.46268 33.6077 5.43082 33.2089 5.40023 32.8486L4.8344 24.9621C4.80254 24.5633 4.74009 24.2384 4.58334 23.9489C4.33101 23.4778 4.07995 22.9358 3.85948 22.4647C3.82889 22.4292 3.82889 22.3923 3.79576 22.32C3.45167 22.9004 3.07317 23.4778 2.72781 24.0568C2.69595 24.0937 2.69595 24.2015 2.69595 24.2384C2.60164 26.1923 2.5392 28.1078 2.44489 30.0617C2.44489 30.1356 2.47675 30.2788 2.5392 30.3157L4.45717 32.7393L5.49454 34.0419ZM34.4528 46.3782C35.0187 46.1611 35.5526 45.9794 36.0879 45.7992C36.1503 45.7992 36.1822 45.7254 36.2128 45.6545C37.1253 44.1703 38.0365 42.6875 38.9489 41.2401C39.0432 41.0954 39.0432 40.9876 39.0126 40.8414C38.8546 39.7219 38.6966 38.5641 38.5411 37.4062C38.4455 36.8273 38.3831 36.2483 38.2888 35.6339C38.2569 35.6694 38.2569 35.7063 38.2251 35.7418C36.9991 38.4548 35.8037 41.1678 34.5777 43.8808C34.5471 43.9177 34.5471 43.9901 34.5153 44.0624C34.5153 44.7861 34.4847 45.5452 34.4528 46.3782ZM5.87176 35.597C5.87176 35.6709 5.84118 35.7063 5.84118 35.7418C5.58885 37.4416 5.36965 39.1784 5.11731 40.8783C5.11731 40.9522 5.14918 41.0954 5.18104 41.1678C6.09224 42.652 7.00343 44.1348 7.94649 45.6545C8.01021 45.7269 8.07393 45.7993 8.13638 45.8347C8.4193 45.944 8.70221 46.0518 8.98513 46.1242C9.23619 46.198 9.48725 46.3058 9.73958 46.3782L9.64527 44.2072C9.64789 44.0665 9.61513 43.9279 9.55097 43.8084C8.35558 41.1323 7.16146 38.4917 5.99793 35.8141C5.93421 35.7418 5.90362 35.7063 5.87176 35.597ZM32.8178 9.9482C32.8178 9.98513 32.7859 9.98513 32.7859 10.022C32.8178 10.0575 32.8496 10.0575 32.8802 10.0929C34.4218 12.4052 35.9732 14.7087 37.5343 17.0032C37.5968 17.0756 37.6592 17.1479 37.7229 17.1834C38.2251 17.4374 38.7297 17.7269 39.2318 17.9809C39.2624 18.0164 39.3261 18.0164 39.358 18.0518C39.358 17.944 39.358 17.8716 39.3886 17.7993C39.4205 17.2203 39.4205 16.6045 39.4523 16.027C39.4463 15.9035 39.4249 15.7816 39.3886 15.6652L37.1253 10.9983C36.9991 10.7442 36.8729 10.6733 36.6843 10.6364L33.5098 10.0929C33.2574 10.0206 33.0382 9.98513 32.8178 9.9482ZM4.8344 18.0178C4.89812 17.9809 4.96056 17.9809 4.99115 17.944C5.49454 17.6929 5.96607 17.4389 6.46946 17.1849C6.56274 17.1449 6.64082 17.068 6.68993 16.9678C8.22941 14.689 9.77017 12.4101 11.2803 10.1299C11.319 10.0891 11.351 10.0406 11.3746 9.9866H11.2485C9.96005 10.2037 8.67035 10.4208 7.3488 10.6733C7.28635 10.6733 7.22391 10.7472 7.19205 10.8181C6.40701 12.4456 5.58884 14.0746 4.80254 15.7021C4.77195 15.7375 4.77195 15.8099 4.77195 15.9192C4.77195 16.3179 4.80254 16.7152 4.80254 17.1125C4.80254 17.402 4.8344 17.6914 4.8344 18.0178ZM23.8562 3.18561C23.8562 3.22106 23.8256 3.25798 23.8256 3.29342C24.1709 3.83691 24.5482 4.37892 24.8935 4.88549C24.9572 4.99478 25.0515 5.06714 25.114 5.10259C27.2843 6.33282 29.4215 7.56306 31.5918 8.79181C31.6224 8.82874 31.6861 8.82874 31.7485 8.86566C31.7167 8.79181 31.7167 8.75637 31.7167 8.72092C31.1508 7.1643 30.6169 5.6446 30.051 4.08946C30.0192 4.01709 29.9249 3.94472 29.8624 3.90928C28.4411 3.39791 27.0154 2.90313 25.5855 2.42502C25.5231 2.42502 25.4606 2.38958 25.4288 2.42502C24.8629 2.67904 24.3595 2.93159 23.8562 3.18561ZM12.4757 8.9011C12.5382 8.86418 12.5688 8.86418 12.6006 8.82874C14.7697 7.56306 16.9718 6.33282 19.1409 5.06714C19.2033 5.03022 19.2658 4.9933 19.2976 4.92093C19.6124 4.41584 19.9578 3.87236 20.2725 3.33034C20.3031 3.29342 20.3362 3.2565 20.3668 3.18561C19.8316 2.93159 19.3295 2.67904 18.8248 2.42502C18.7942 2.38958 18.7318 2.42502 18.6693 2.42502C17.2229 2.93159 15.807 3.43816 14.3618 3.90928C14.2663 3.94472 14.2344 4.01709 14.172 4.12638C13.638 5.6446 13.0721 7.12886 12.5382 8.64856C12.5063 8.72092 12.5076 8.79329 12.4757 8.9011ZM22.7563 50.5385C22.8201 50.574 22.8201 50.6094 22.8507 50.6094C23.9823 51.4424 25.1446 52.2384 26.2788 53.0699C26.34 53.1068 26.4355 53.1068 26.498 53.0699C27.8807 52.3831 29.2635 51.6595 30.6487 50.9358C30.7264 50.8831 30.7913 50.8084 30.8373 50.7187C31.0884 50.2121 31.3395 49.7425 31.5918 49.2359C31.6224 49.1621 31.6542 49.1266 31.6861 49.0543C31.1827 48.8741 30.743 48.7648 30.2715 48.5477C30.0178 48.4391 29.7389 48.4391 29.4852 48.5477C27.6921 49.0912 25.9322 49.5963 24.1391 50.1029C23.6675 50.2845 23.2279 50.3953 22.7563 50.5385ZM21.4042 50.574C21.3405 50.5371 21.3099 50.5371 21.2474 50.5371C19.0466 49.8872 16.8457 49.2714 14.6753 48.6201C14.4266 48.5419 14.1631 48.5548 13.9209 48.657C13.5755 48.8017 13.1983 48.9095 12.8517 49.0188C12.723 49.0561 12.5969 49.1045 12.4745 49.1636C12.7574 49.7425 13.0403 50.2845 13.3232 50.862C13.3551 50.9358 13.4494 51.0436 13.5118 51.0436C14.8958 51.7673 16.2798 52.4555 17.6307 53.1423C17.725 53.1792 17.7887 53.1792 17.883 53.1068C18.6056 52.6002 19.3295 52.0582 20.0521 51.5502C20.4917 51.2253 20.9314 50.9004 21.4042 50.574ZM14.2981 14.1809C14.2675 14.2902 14.2675 14.3256 14.2344 14.398C13.7629 16.315 13.2913 18.2335 12.8198 20.1135C12.6631 20.6924 12.5688 21.2714 12.6325 21.9227C12.6631 22.2845 12.6631 22.6094 12.6631 22.9713V23.116C14.1095 21.7425 15.5241 20.3675 16.94 18.9926C16.0523 17.3939 15.1716 15.79 14.2981 14.1809ZM31.5281 23.116C31.5599 22.3923 31.5599 21.7056 31.5918 21.0543C31.5918 20.9819 31.5599 20.9465 31.5599 20.8741L29.9567 14.3611C29.9567 14.2902 29.9249 14.2533 29.893 14.1809C29.0137 15.8084 28.1012 17.4005 27.2206 19.028C28.6352 20.3675 30.0816 21.7425 31.5281 23.116ZM30.1453 30.8947L34.4834 32.7393C34.4528 32.6315 34.4528 32.5591 34.421 32.4867C33.9813 30.7499 33.5416 29.0131 33.1313 27.2409C32.9121 26.3356 32.6597 25.541 32.1882 24.9252C32.0315 24.745 31.9053 24.491 31.7804 24.2384C31.2452 26.4803 30.6793 28.6882 30.1453 30.8947ZM9.70644 32.7747L14.0458 30.9301C13.48 28.6882 12.9447 26.4803 12.4107 24.2739C12.0654 24.8528 11.7506 25.3963 11.404 25.9383C11.3734 25.9737 11.3734 26.0461 11.3415 26.1185C11.0267 27.458 10.6814 28.7606 10.3666 30.0986C10.1474 30.967 9.92692 31.834 9.70644 32.7747ZM34.2935 33.3906C32.8471 32.7747 31.4325 32.1603 29.986 31.5445C29.4508 33.7524 28.9181 35.9234 28.351 38.1299C28.4147 38.1299 28.4466 38.0929 28.509 38.0929C28.8544 37.9851 29.201 37.8404 29.5464 37.7311C29.8293 37.6587 30.0498 37.4786 30.3008 37.2615L34.1686 33.5708C34.1992 33.4984 34.2311 33.426 34.2935 33.3906ZM9.89506 33.3906C9.95878 33.4629 10.0212 33.4984 10.0518 33.5353L13.9196 37.2245C14.1707 37.4416 14.3912 37.6233 14.6741 37.6957L15.2399 37.9128C15.4285 37.9851 15.6171 38.0575 15.8389 38.1299C15.8057 38.0206 15.8057 37.9851 15.8057 37.9128L14.2968 31.7261C14.2663 31.5814 14.2331 31.546 14.1401 31.5814C13.2276 31.9802 12.3483 32.342 11.4358 32.7393C10.87 32.9564 10.3984 33.1735 9.89506 33.3906ZM22.3141 38.9259V44.8585C22.3778 44.8216 22.4097 44.7846 22.4416 44.7492C23.6357 43.5928 24.8617 42.398 26.0558 41.2771C26.5273 40.8429 26.9364 40.3363 27.2512 39.6126C27.3455 39.3955 27.4716 39.1784 27.5965 38.9259H22.3154H22.3141ZM16.5602 38.9259C16.8444 39.4679 17.0954 39.9745 17.3465 40.481C17.3784 40.5534 17.4408 40.6258 17.5045 40.6981C18.9191 42.0716 20.3337 43.4112 21.7802 44.7861C21.812 44.8216 21.8439 44.8585 21.8745 44.8585V38.9259H16.5602ZM26.8421 18.6677C27.7227 17.0756 28.6033 15.4835 29.4839 13.856H24.4526C24.1697 13.856 23.9173 13.8915 23.6357 14.0362C23.289 14.2178 22.9437 14.398 22.5652 14.5797C24.0129 15.9532 25.4275 17.2927 26.8421 18.6677ZM14.6741 13.856C15.5865 15.4835 16.4353 17.0756 17.3159 18.6677C18.7305 17.2927 20.1451 15.9546 21.5915 14.5797C21.5278 14.5428 21.4972 14.5427 21.4654 14.5058C21.0576 14.2902 20.6485 14.1086 20.2394 13.8915C20.1451 13.856 20.0826 13.8191 19.9883 13.8191H14.8321C14.8002 13.856 14.7684 13.856 14.6741 13.856ZM38.2556 34.0773C38.4761 31.1827 38.6635 28.3618 38.8839 25.541H38.8533C38.0046 27.3133 37.1546 29.0501 36.3058 30.8223C36.9354 31.8709 37.5955 32.9564 38.2556 34.0773ZM5.93294 34.0773C6.59435 32.9564 7.25449 31.9063 7.91463 30.8223C7.06588 29.0501 6.21713 27.2778 5.3671 25.541C5.3671 25.541 5.33651 25.541 5.33651 25.5765C5.49327 28.3618 5.71374 31.1841 5.93294 34.0773ZM6.24771 35.3076C7.3488 37.768 8.44861 40.1916 9.51783 42.6151C9.51783 42.6151 9.54969 42.6151 9.54969 42.5797L9.26678 36.3931C8.26 36.0312 7.28508 35.6694 6.24771 35.3076ZM34.6402 42.5797H34.6707C35.7412 40.1546 36.8411 37.7311 37.9409 35.2721C36.9035 35.6339 35.9286 35.9958 34.9231 36.3576L34.6402 42.5797ZM11.8143 10.2377C10.4073 12.355 8.99273 14.4654 7.57054 16.569C7.60113 16.6045 7.63299 16.6045 7.66358 16.569C9.04758 15.8454 10.4622 15.1217 11.8462 14.398C11.9405 14.3626 11.9405 14.2902 11.9405 14.1809L11.8462 11.2154C11.8462 10.8904 11.8143 10.5641 11.8143 10.2377ZM36.59 16.6045C36.59 16.6045 36.59 16.569 36.6219 16.569C35.2073 14.4719 33.8233 12.3732 32.4087 10.2746C32.4087 10.3824 32.4087 10.4548 32.3768 10.4917C32.3462 11.7219 32.3144 12.9138 32.2519 14.1455C32.2519 14.3257 32.2825 14.398 32.3768 14.4349L35.4902 16.0625C35.8356 16.2072 36.2128 16.3874 36.59 16.6045ZM18.4807 6.18661C18.4807 6.18661 18.4807 6.14969 18.4489 6.14969C16.5309 7.23519 14.6129 8.35761 12.6325 9.47856C13.5755 9.9482 14.4867 10.3824 15.3979 10.852C15.4935 10.889 15.556 10.889 15.6503 10.7812C16.2798 9.73258 16.94 8.71945 17.5682 7.66939C17.883 7.16282 18.1978 6.69318 18.4807 6.18661ZM31.4975 9.514V9.47856C29.5795 8.35614 27.6297 7.27211 25.7117 6.14969C25.7117 6.18661 25.6798 6.18661 25.6798 6.22353C25.7435 6.33135 25.8379 6.43916 25.9003 6.54845L28.5409 10.7812C28.5727 10.8535 28.6683 10.889 28.6989 10.8535C29.642 10.4193 30.585 9.9482 31.4975 9.514ZM22.5677 49.9596C24.6743 49.3437 26.7172 48.7294 28.7613 48.1504C28.7295 48.1135 28.6976 48.0766 28.667 48.0766C27.2206 47.5715 25.806 47.1018 24.3595 46.5953C24.2652 46.5584 24.2334 46.5953 24.1709 46.7031C23.7631 47.4991 23.354 48.3306 22.9768 49.1266C22.8825 49.3807 22.7245 49.6332 22.5677 49.9596ZM15.3992 48.0781V48.1135C17.4421 48.7294 19.5181 49.3083 21.5928 49.9227C21.561 49.8503 21.561 49.8149 21.561 49.8149C21.0257 48.7663 20.5236 47.7162 19.9896 46.6662C19.9259 46.5229 19.8634 46.5584 19.7691 46.5584C18.7624 46.8833 17.7887 47.2451 16.7819 47.5715C16.3104 47.7886 15.8707 47.9333 15.3992 48.0781ZM13.7004 4.16035H13.6061C12.6631 4.48526 11.6881 4.81165 10.7451 5.17348C10.5259 5.24585 10.3373 5.46295 10.1168 5.60768C10.7451 6.7301 11.3428 7.81413 11.9392 8.93655C12.5382 7.34448 13.104 5.78786 13.7004 4.16035ZM30.4907 4.16035C31.0884 5.78786 31.6542 7.34448 32.2201 8.93655C32.8484 7.81413 33.446 6.72862 34.0437 5.60768C33.8233 5.46295 33.6665 5.28277 33.4779 5.20893C32.8178 4.95638 32.1258 4.73928 31.4338 4.48526C31.122 4.36694 30.8076 4.25859 30.4907 4.16035ZM38.6979 35.2721C38.9489 37.0074 39.2 38.7442 39.4523 40.5165C39.5148 40.4087 39.5466 40.3363 39.5772 40.2994C40.1749 39.3246 40.7726 38.347 41.3703 37.4047C41.527 37.1536 41.5895 36.8627 41.6532 36.5378C40.6464 36.1036 39.6728 35.6694 38.6979 35.2721ZM4.70951 40.481L4.77195 40.4072C5.02301 38.7088 5.24348 36.972 5.49454 35.2352C4.48776 35.6694 3.51411 36.0681 2.5392 36.5023C2.60292 36.8642 2.69595 37.1522 2.85397 37.4416C3.4504 38.3824 4.0175 39.3232 4.61392 40.2639C4.67765 40.3363 4.67892 40.4087 4.70951 40.481ZM41.7781 31.0025C40.8032 32.2327 39.8283 33.426 38.8546 34.6563C39.8614 35.0905 40.8045 35.4892 41.7781 35.9234C41.9667 35.3076 41.9667 35.3076 41.9361 34.6932C41.9043 34.4037 41.9043 34.0773 41.9043 33.7879C41.8724 32.8471 41.81 31.9432 41.7781 31.0025ZM2.41303 31.0025V31.1472C2.34931 32.3774 2.31872 33.6077 2.25628 34.8379C2.22442 35.2367 2.32 35.5616 2.41303 35.8865C3.38795 35.4523 4.36287 35.055 5.33779 34.6208C4.33101 33.426 3.38795 32.2327 2.41303 31.0025ZM36.5594 9.9482C35.9936 8.82726 35.4889 7.74176 34.9562 6.65626C34.7982 6.33135 34.5777 6.22206 34.3891 6.00644L32.5973 9.26146C33.9176 9.47856 35.2379 9.69566 36.5594 9.9482ZM11.5938 9.26146C10.9974 8.13904 10.3997 7.09046 9.77144 5.96804C9.58155 6.18661 9.39294 6.33135 9.26805 6.58389C8.7328 7.63247 8.22941 8.71945 7.69544 9.76803C7.66485 9.80347 7.66485 9.84039 7.63171 9.9482C8.95327 9.69566 10.2723 9.47856 11.5938 9.26146ZM25.806 53.4317C24.6106 52.5633 23.4789 51.7673 22.3167 50.8989V54.8791C22.5359 54.8791 22.7245 54.9514 22.9131 54.8791C23.888 54.4449 24.8311 53.9383 25.806 53.4317ZM21.8757 50.9358C20.7052 51.7671 19.5416 52.6114 18.3851 53.4686C18.4489 53.5041 18.4807 53.541 18.5432 53.541C19.4225 53.9737 20.2725 54.4079 21.1531 54.8791C21.4042 55.0238 21.6553 54.9514 21.9076 54.9514C21.8757 53.6119 21.8757 52.2753 21.8757 50.9358ZM43.7279 27.7829C43.1302 26.8067 42.5644 25.8659 41.9667 24.8882C42.0304 26.5172 42.0929 28.1078 42.1872 29.7368C42.6906 29.0501 43.194 28.4342 43.7279 27.7829ZM2.22442 24.9621C1.62672 25.8659 1.06089 26.8067 0.464465 27.7829C0.999715 28.4342 1.50183 29.0855 2.03581 29.7368L2.22442 24.9621ZM4.70951 14.7599C5.36837 13.4218 5.99665 12.0823 6.65807 10.7442C5.93548 10.8535 5.24348 10.9983 4.55148 11.1061C4.6152 12.3363 4.67892 13.4942 4.70951 14.7599ZM39.6091 11.1061C38.9171 10.9983 38.2251 10.8535 37.5025 10.7442C38.1626 12.0823 38.7909 13.4218 39.4523 14.7613C39.5148 13.4942 39.5466 12.3363 39.6091 11.1061ZM7.2239 45.4729V45.4374C6.46946 44.2426 5.7456 43.0493 4.99115 41.8191C4.86626 42.7598 4.74009 43.6282 4.61392 44.569C5.49454 44.8585 6.34329 45.148 7.2239 45.4729ZM36.9366 45.4374C36.9366 45.4374 36.9366 45.4729 36.9685 45.4729C37.8478 45.148 38.6966 44.8585 39.5772 44.5321C39.451 43.6282 39.3261 42.7244 39.2 41.7836C38.4137 43.0493 37.6911 44.2426 36.9366 45.4374ZM26.9695 53.5765C27.5672 54.0107 28.1331 54.4079 28.6989 54.8421C28.7932 54.916 28.8251 54.8791 28.8875 54.7698L30.2078 52.0568C30.2396 52.0213 30.2396 51.9489 30.2715 51.8766C29.1704 52.4186 28.0693 52.999 26.9695 53.5765ZM17.2229 53.5765C16.0912 52.9975 14.9901 52.454 13.9222 51.8766C14.3937 52.8897 14.8652 53.829 15.3368 54.8067C15.3673 54.8421 15.3992 54.8421 15.4298 54.8421C16.0232 54.4121 16.6209 53.9902 17.2229 53.5765ZM17.9455 1.98935C17.9136 1.9539 17.8817 1.9539 17.8817 1.91698L15.5241 0.723667C15.4617 0.688222 15.4298 0.723667 15.3992 0.832956C15.2412 1.3026 15.0844 1.7368 14.8958 2.20645C14.7697 2.53136 14.6753 2.8223 14.5505 3.18413C15.6503 2.78538 16.7819 2.38662 17.9455 1.98935ZM26.2457 1.98935C27.4092 2.3881 28.5421 2.78686 29.6738 3.18413C29.642 3.07485 29.6101 3.0394 29.6101 2.96703C29.359 2.27881 29.108 1.59207 28.8556 0.869877C28.7919 0.760588 28.7295 0.723667 28.6364 0.760589C27.8807 1.15934 27.1263 1.5197 26.3718 1.88153C26.34 1.91698 26.3081 1.9539 26.2457 1.98935ZM8.4193 30.8592L9.26805 32.596C9.70772 30.8238 10.1168 29.1239 10.5565 27.3871C10.5565 27.3871 10.5259 27.3871 10.5259 27.3502C9.83388 28.508 9.14188 29.6659 8.4193 30.8592ZM35.7425 30.8592C35.0492 29.7014 34.3279 28.545 33.6347 27.3871C33.6347 27.3871 33.6041 27.3871 33.6041 27.4225C34.0437 29.1593 34.4528 30.8592 34.8925 32.6329C35.2073 31.9816 35.4583 31.4382 35.7412 30.8607L35.7425 30.8592ZM13.8253 14.0746H13.7616C13.3219 14.2917 12.8823 14.5442 12.4426 14.7613C12.3483 14.7982 12.3789 14.8706 12.3789 14.9784L12.4732 17.9809C12.4732 18.4151 12.505 18.8139 12.505 19.2481H12.5369C12.9766 17.5467 13.4162 15.8099 13.8253 14.0746ZM31.6211 19.2481C31.653 19.1742 31.653 19.1033 31.653 19.0295C31.6848 17.656 31.7473 16.3165 31.7791 14.943C31.7791 14.8337 31.7473 14.7982 31.6848 14.7613C31.2757 14.5442 30.8361 14.3271 30.427 14.1115C30.3951 14.1115 30.3633 14.1115 30.3327 14.0746C30.7723 15.8099 31.1814 17.5113 31.6211 19.2481ZM18.1978 42.144L18.2284 42.2164C18.7942 43.3728 19.3919 44.5306 19.9578 45.6885C20.0215 45.7978 20.0521 45.7978 20.1464 45.7623L21.0894 45.4359C21.2156 45.399 21.3723 45.3267 21.5304 45.2912C20.3974 44.2426 19.3307 43.1926 18.1978 42.144ZM25.9627 42.1794C24.8629 43.1926 23.7618 44.2412 22.6926 45.2912L22.7245 45.3266C23.1654 45.4714 23.637 45.6516 24.0766 45.7978C24.1085 45.7978 24.2028 45.7239 24.2334 45.6885C24.7686 44.6754 25.272 43.6268 25.806 42.5782C25.8379 42.4335 25.9003 42.3242 25.9627 42.1794ZM9.67586 35.888C10.7145 36.2867 11.7824 36.6471 12.8211 37.0458V37.0089C11.7506 35.9973 10.6826 34.9472 9.58155 33.8986L9.67586 35.888ZM34.5777 33.8986C33.4779 34.9472 32.4087 35.9603 31.3407 37.0089V37.0458C32.3768 36.684 33.4155 36.2867 34.4834 35.888C34.5153 35.2381 34.5471 34.5854 34.5777 33.8986ZM18.7318 13.1678C18.6681 13.1323 18.6681 13.1323 18.6375 13.0954C17.6626 12.6258 16.7195 12.1546 15.7446 11.685C15.7127 11.6496 15.6184 11.7219 15.5878 11.7588C15.3049 12.1916 15.0526 12.5888 14.8015 13.023C14.7697 13.06 14.7697 13.0969 14.7378 13.1323C16.0593 13.1678 17.3796 13.1678 18.7318 13.1678ZM29.4215 13.1678C29.4215 13.1323 29.4533 13.1323 29.4533 13.0954C29.1386 12.6258 28.8556 12.1546 28.5421 11.7219C28.5103 11.685 28.4466 11.685 28.3841 11.7219L26.2151 12.806C25.9627 12.9152 25.7117 13.06 25.4606 13.1678V13.2047C26.8115 13.1678 28.1012 13.1678 29.4215 13.1678ZM31.9372 10.4917C31.3713 11.4325 30.8679 12.3732 30.3339 13.3494C30.8373 13.602 31.3089 13.856 31.8123 14.1086C31.8428 12.8783 31.9053 11.6865 31.9372 10.4902V10.4917ZM12.2858 10.4917C12.2553 10.4917 12.2553 10.4917 12.2858 10.4917C12.2858 11.7219 12.3496 12.9138 12.3801 14.1455C12.8835 13.8914 13.3551 13.6389 13.8585 13.3849C13.3232 12.3718 12.788 11.4325 12.2858 10.4902V10.4917ZM22.3154 49.4885C22.8507 48.4399 23.354 47.4622 23.8574 46.4136C23.3222 46.2334 22.8188 46.0518 22.3154 45.8716V49.4885ZM21.8757 49.453V45.8716C21.3723 46.0518 20.869 46.2334 20.335 46.4136C20.8384 47.4268 21.3418 48.4399 21.877 49.453H21.8757ZM15.2119 11.431C14.3313 10.9968 13.5131 10.598 12.6643 10.1638V10.2007C13.1677 11.1415 13.7017 12.0808 14.2064 12.9861C14.5505 12.4441 14.8652 11.9376 15.2119 11.431ZM28.9512 11.431C29.2979 11.973 29.6432 12.4796 29.9886 12.9861C30.492 12.0808 30.9954 11.14 31.5306 10.2007V10.1638C30.6806 10.5626 29.8318 10.9968 28.9512 11.431ZM36.0254 31.3274L35.1767 33.0627C36.0254 33.4245 36.8742 33.7864 37.6924 34.1482V34.1157C37.1571 33.175 36.6231 32.2696 36.0254 31.3303V31.3274ZM8.98641 33.0627C8.70349 32.4483 8.42057 31.9063 8.13765 31.3274C7.57054 32.2682 7.00471 33.2074 6.43887 34.1128V34.1482C7.31949 33.7864 8.13638 33.4245 8.98641 33.0627ZM37.5038 34.7995V34.7641C36.6856 34.4022 35.8687 34.0758 35.0187 33.7155L34.9256 35.7403C35.805 35.4154 36.655 35.0905 37.5038 34.7995ZM9.23746 35.7403C9.2056 35.0535 9.17374 34.4022 9.14316 33.714C8.2944 34.0758 7.47624 34.4377 6.65935 34.7626V34.7995C7.5081 35.089 8.35685 35.4154 9.23746 35.7403ZM43.5087 28.8669C43.0691 29.3735 42.6294 29.8801 42.2203 30.4221C42.1885 30.459 42.1885 30.5668 42.1885 30.6392L42.2828 32.8825C42.2828 33.0996 42.3146 33.3537 42.3146 33.5693H42.3452C42.7543 32.0511 43.1315 30.459 43.5087 28.8669ZM1.84847 33.6786C1.84847 33.6047 1.88033 33.5693 1.88033 33.5338C1.91219 32.5576 1.97463 31.5799 2.00649 30.6037C2.00475 30.5255 1.98253 30.4498 1.94278 30.3866C1.56555 29.8801 1.15647 29.4089 0.748658 28.9038L0.684938 28.83C1.06216 30.459 1.43939 32.0496 1.84847 33.6786ZM41.0874 38.8151C41.0568 38.8151 41.0568 38.8151 41.0874 38.8151C40.6477 39.431 40.2705 40.1177 39.8614 40.7321C39.6422 41.0939 39.5479 41.3834 39.6422 41.89C39.7365 42.4335 39.799 43.0124 39.8933 43.6268C40.3011 41.9993 40.6796 40.4072 41.0886 38.8151H41.0874ZM4.3017 43.6268C4.33228 43.5175 4.33228 43.482 4.33228 43.4097C4.42659 42.7229 4.5209 42.0716 4.6152 41.3834C4.64706 41.2387 4.6152 41.1663 4.55276 41.0939L3.23247 38.9229L3.13817 38.8151C3.13817 38.8151 3.10631 38.8151 3.10631 38.852C3.51412 40.4426 3.89261 41.9978 4.3017 43.6268ZM14.7085 1.33805C14.7085 1.30112 14.7085 1.30112 14.7085 1.33805C13.7017 2.24189 12.7281 3.18266 11.7519 4.12342C12.4757 3.90632 13.1677 3.6523 13.8903 3.39976C13.954 3.39976 13.9859 3.29047 14.0178 3.2181C14.2051 2.71154 14.3937 2.16952 14.5823 1.66296C14.646 1.55515 14.6766 1.44586 14.7085 1.33805ZM29.4865 1.30112C29.4865 1.37497 29.5171 1.44586 29.5171 1.4813C29.7375 2.06171 29.9261 2.63917 30.1466 3.2181C30.1772 3.36284 30.2409 3.39976 30.3352 3.4352C30.7125 3.54449 31.0578 3.68922 31.435 3.83396C31.7498 3.94177 32.0952 4.05106 32.41 4.15887V4.12342C31.4669 3.18266 30.4601 2.24041 29.4865 1.30112ZM38.8559 10.31V10.2731L35.9311 7.45229C36.3084 8.28377 36.7174 9.11525 37.0947 9.91128C37.1265 9.94673 37.1584 9.98365 37.2208 9.98365C37.7867 10.1284 38.3206 10.2377 38.8559 10.31ZM8.26254 7.52318C7.25577 8.4285 6.28212 9.36927 5.3072 10.3086C5.87304 10.2362 6.40829 10.1638 6.94226 10.056C6.98977 10.0467 7.03374 10.0209 7.06843 9.98217C7.47624 9.15069 7.85346 8.31921 8.26254 7.52318ZM3.012 19.6424C3.29492 20.2213 3.54725 20.7648 3.79831 21.2699L4.45845 20.2937C4.45845 20.2568 4.49031 20.2198 4.49031 20.1844C4.49031 19.7502 4.45845 19.3175 4.45845 18.8833C3.95506 19.1727 3.48353 19.3898 3.012 19.6424ZM40.3966 21.2699C40.6477 20.7633 40.8988 20.2213 41.183 19.6424C40.6796 19.3884 40.2399 19.1358 39.7365 18.8818C39.7046 19.3529 39.7046 19.7502 39.7046 20.1844C39.7046 20.2213 39.7046 20.2582 39.7365 20.2937C39.9251 20.6555 40.1443 20.9435 40.3966 21.2699ZM23.0711 2.89467C22.7245 2.3881 22.411 1.88153 22.0962 1.44733C21.7814 1.91846 21.4666 2.3881 21.1213 2.89467C21.4361 3.07485 21.7496 3.21958 22.0643 3.36431H22.1586C22.4416 3.21958 22.7245 3.07485 23.0711 2.89467ZM33.98 47.2097C33.6497 47.3085 33.3246 47.4293 33.0064 47.5715C32.9745 47.5715 32.9427 47.6069 32.9121 47.6439C32.7553 47.9688 32.5973 48.2937 32.4087 48.657C32.9121 48.8372 33.4155 48.9819 33.887 49.1636L33.9813 47.2097H33.98ZM11.7824 48.657C11.5938 48.2952 11.4384 47.9688 11.2803 47.6439L11.2166 47.57C10.9031 47.4622 10.5565 47.319 10.2098 47.2097C10.243 47.8595 10.2736 48.5123 10.3054 49.1636C10.7769 48.9819 11.2803 48.8387 11.7837 48.657H11.7824ZM16.3423 54.9145V54.9514H19.8634L19.8316 54.9145C19.1714 54.5896 18.5113 54.2278 17.8512 53.9014H17.7569C17.2853 54.2278 16.8138 54.5527 16.3423 54.9145ZM27.8501 54.9514V54.9145C27.3786 54.5896 26.9071 54.2278 26.4355 53.9014C26.4037 53.8659 26.34 53.9014 26.2775 53.9014C25.806 54.1554 25.3345 54.3725 24.8629 54.625C24.6743 54.7343 24.5163 54.8067 24.3277 54.9145V54.9514H27.8501ZM0.904135 26.0815C0.935995 26.0461 0.935995 26.0461 0.967856 26.0461C1.37566 25.3579 1.81533 24.6711 2.22442 23.9829C2.25994 23.9045 2.2816 23.8186 2.28814 23.7304C2.31872 23.2962 2.31872 22.862 2.35058 22.4278C2.35058 22.0659 2.38244 21.741 2.38244 21.3792H2.35058C1.87905 22.9343 1.40752 24.4895 0.904135 26.0815ZM43.2245 26.0815C43.2564 26.0461 43.2564 26.0461 43.2245 26.0815C42.7811 24.4907 42.3095 22.9106 41.81 21.3423C41.81 22.1752 41.8418 23.0067 41.8737 23.8027C41.8737 23.8751 41.9043 23.9475 41.9043 23.9829C42.3758 24.6711 42.8155 25.3579 43.2245 26.0815ZM39.9863 12.8045C39.9226 13.7098 39.892 14.5767 39.8601 15.4466C39.8601 15.519 39.892 15.6268 39.9238 15.6622L40.8669 17.6161C40.8975 17.653 40.8975 17.69 40.9306 17.7254L40.9612 17.6885C40.6213 16.0645 40.2963 14.4364 39.9863 12.8045ZM4.20612 12.8045C3.86285 14.4398 3.53785 16.0803 3.2312 17.7254C3.26178 17.7254 3.26178 17.7254 3.26178 17.6885C3.60842 17.0017 3.95378 16.315 4.26856 15.6268C4.30042 15.5913 4.30042 15.519 4.30042 15.4466C4.30042 14.5782 4.2367 13.6744 4.20612 12.8045ZM32.754 50.6124H32.6916C32.1563 50.9004 31.5918 51.1544 31.0565 51.4439C31.0247 51.4793 30.9622 51.5162 30.9304 51.5886C30.6169 52.2384 30.3021 52.8912 29.9567 53.5425C29.9249 53.5779 29.9249 53.6503 29.893 53.6857L29.9249 53.7227C30.8679 52.7095 31.811 51.6624 32.754 50.6124ZM14.2663 53.7581C14.2663 53.7227 14.2663 53.7227 14.2663 53.7581C14.0471 53.2885 13.8266 52.8543 13.6061 52.3477C13.3551 51.7333 13.0097 51.2991 12.5382 51.1898C12.4745 51.1898 12.4107 51.1175 12.3177 51.082C12.0348 50.9373 11.72 50.7926 11.4384 50.6478V50.6833C12.3892 51.6986 13.331 52.7236 14.2663 53.7581ZM38.2888 45.7284C38.2888 45.6914 38.2569 45.6914 38.2888 45.7284L38.2569 45.6914C37.6592 45.9085 37.0934 46.1256 36.4957 46.3427C36.4333 46.3797 36.3708 46.4166 36.3389 46.4875C36.0242 46.9586 35.7412 47.4637 35.4277 47.9348C35.364 48.0072 35.3003 48.0795 35.2379 48.1873C35.2379 48.2243 35.2697 48.2243 35.2697 48.2612C36.2765 47.3913 37.2833 46.5598 38.2888 45.7284ZM8.92141 48.2243C8.92141 48.2243 8.92141 48.1873 8.95327 48.1873C8.57605 47.573 8.19882 46.994 7.85219 46.3797C7.81784 46.3412 7.77435 46.3154 7.72729 46.3058C7.31949 46.1626 6.94099 46.0178 6.5319 45.8731C6.34329 45.7993 6.12409 45.7284 5.93548 45.656V45.6914C6.90913 46.5598 7.91591 47.3913 8.92141 48.2243ZM27.1913 0.832956V0.796034C26.0277 0.905323 24.8948 0.97769 23.7325 1.0855C23.7631 1.12242 23.795 1.15934 23.8268 1.15934C24.2041 1.3026 24.5813 1.41041 24.9585 1.55662C25.0997 1.62547 25.253 1.65466 25.4058 1.64183C25.5586 1.629 25.7067 1.5745 25.8379 1.48278C26.3094 1.26716 26.7503 1.05006 27.1913 0.832956ZM20.4624 1.12242C19.2989 0.977689 18.1672 0.905322 16.9718 0.79751C17.0355 0.832955 17.0355 0.832956 17.0355 0.868401C17.5695 1.15787 18.1354 1.41189 18.6706 1.69988C18.7012 1.7368 18.7649 1.7368 18.8274 1.69988L19.7704 1.37497C20.0215 1.26716 20.2419 1.19479 20.4624 1.12242ZM40.6158 21.8503C40.8988 22.2491 41.1817 22.6463 41.434 23.0082C41.4012 22.164 41.3697 21.3197 41.3397 20.4753H41.3078C41.0886 20.9095 40.8682 21.3437 40.6158 21.8503ZM2.88583 20.4399H2.85525L2.76094 22.9727C3.012 22.6109 3.29619 22.2121 3.57783 21.8149C3.32678 21.3437 3.10631 20.9095 2.88583 20.4399ZM39.8308 16.569C39.799 17.148 39.7989 17.6545 39.7671 18.1611C39.7671 18.1965 39.799 18.2335 39.8308 18.2689C40.1762 18.4506 40.5534 18.6307 40.9306 18.8478C40.5534 18.0518 40.208 17.3651 39.8308 16.569ZM4.36414 16.569C3.98692 17.3281 3.64028 18.0518 3.26306 18.8109L4.36414 18.2335C4.396 18.2335 4.42786 18.1596 4.42786 18.1242C4.396 17.6545 4.396 17.148 4.36414 16.569ZM34.3585 48.6924C34.7982 48.0057 35.2073 47.319 35.6164 46.6662C35.2443 46.7651 34.8768 46.8859 34.5153 47.028C34.4834 47.028 34.4516 47.1019 34.4516 47.1373C34.3891 47.6069 34.3891 48.1135 34.3585 48.6924ZM9.83388 48.5123C9.80202 48.1135 9.80203 47.6069 9.77017 47.1004C9.77017 47.0649 9.73958 47.0295 9.70772 47.0295C9.3305 46.8847 8.98513 46.7755 8.60791 46.6307C8.60791 46.6307 8.60791 46.6662 8.57605 46.6662C8.98386 47.282 9.4248 47.8964 9.83388 48.5123ZM33.2268 49.6701V49.6332C32.8802 49.5254 32.5348 49.3807 32.1563 49.2714C32.1258 49.2714 32.0939 49.2714 32.0633 49.3083C31.8428 49.7071 31.6542 50.1029 31.4643 50.5371C31.4643 50.5371 31.4643 50.574 31.4975 50.574C32.0633 50.2491 32.661 49.9596 33.2268 49.6701ZM24.5787 2.13408V2.09863C23.9764 1.87182 23.3682 1.66644 22.7551 1.48278C22.7551 1.5197 22.7232 1.5197 22.7232 1.55662C22.9755 1.91846 23.1947 2.28029 23.4471 2.64065C23.4777 2.67757 23.5095 2.67757 23.5414 2.67757C23.9186 2.49591 24.2321 2.31573 24.5787 2.13408ZM12.7268 50.574C12.5993 50.2845 12.4745 50.0674 12.3801 49.8503C12.2858 49.6701 12.1915 49.3807 12.0654 49.3083C11.9405 49.2345 11.7519 49.3807 11.5938 49.4161C11.3746 49.49 11.1542 49.5608 10.9656 49.6332V49.6701C11.5314 49.9596 12.0972 50.2491 12.7268 50.574ZM19.5805 2.09863V2.13408C19.9259 2.31573 20.2725 2.49591 20.5873 2.64065C20.6179 2.64065 20.6498 2.64065 20.6816 2.6052C20.9327 2.24337 21.1531 1.88153 21.4042 1.5197C21.4042 1.5197 21.3723 1.48426 21.3723 1.44733C20.8065 1.66443 20.2101 1.88153 19.5805 2.09863ZM39.4829 23.0805C39.7034 22.6818 39.9238 22.2845 40.1125 21.8503C39.9543 21.6003 39.7863 21.3589 39.6091 21.1266C39.5772 21.7779 39.5148 22.4292 39.4829 23.0805ZM4.67765 23.116C4.64579 22.4292 4.61393 21.7779 4.55148 21.1636C4.39473 21.3807 4.2367 21.6332 4.04809 21.8503C4.26856 22.2845 4.48903 22.6818 4.67765 23.116ZM10.1487 45.111H10.1168C10.1474 45.5452 10.1474 45.9794 10.1805 46.4136C10.1805 46.4505 10.2111 46.4875 10.2111 46.5229C10.4316 46.5953 10.6189 46.6662 10.8713 46.7755C10.6202 46.1965 10.3679 45.653 10.1487 45.111ZM34.0756 45.148H34.0437C33.7927 45.69 33.5722 46.1965 33.3212 46.7755C33.5722 46.7031 33.7608 46.6307 33.9494 46.5584C33.9813 46.5584 34.0132 46.486 34.0132 46.4506C34.0437 46.0164 34.0437 45.5822 34.0756 45.148ZM4.89684 19.6424C5.21162 19.1373 5.5264 18.7031 5.8399 18.2335C5.52379 18.3405 5.21835 18.486 4.9287 18.6677C4.89684 18.6677 4.86498 18.7755 4.86498 18.8124C4.86498 19.0649 4.89684 19.3175 4.89684 19.6424ZM39.2624 19.6424C39.2624 19.3544 39.2943 19.1019 39.2943 18.8478C39.2943 18.74 39.2624 18.6677 39.2 18.6677C38.9489 18.5584 38.7285 18.4136 38.4774 18.3058C38.4455 18.2689 38.3831 18.2689 38.3194 18.232V18.2689C38.6341 18.7031 38.9489 19.1373 39.2624 19.6424ZM21.4666 3.76454C21.2474 3.65526 21.0588 3.54745 20.8384 3.47508C20.8065 3.47508 20.7746 3.47508 20.7746 3.51052C20.5554 3.83543 20.3668 4.12638 20.1464 4.45129C20.1464 4.48821 20.1782 4.48821 20.1782 4.52513C20.586 4.23419 20.9951 4.01709 21.4666 3.76454ZM24.0142 4.48821C24.0142 4.45129 24.0448 4.45129 24.0448 4.41437C23.8256 4.12638 23.637 3.79999 23.4483 3.51052C23.4165 3.47508 23.3846 3.43816 23.354 3.47508C23.1654 3.54745 22.9768 3.65526 22.7551 3.76454C23.1654 4.01709 23.5732 4.23419 24.0142 4.48821ZM32.3462 47.7532C31.8747 47.8979 31.4338 48.0072 31.0247 48.1519C31.3395 48.2966 31.6237 48.4044 31.9372 48.4768C31.969 48.4768 32.0315 48.4414 32.0315 48.4044C32.1258 48.2243 32.2201 48.0042 32.3462 47.7532ZM11.8462 47.7532C11.9711 48.0072 12.0654 48.2243 12.1915 48.4414C12.2234 48.4768 12.2553 48.4768 12.2858 48.4768C12.6006 48.369 12.8835 48.2597 13.1983 48.1873V48.1519C12.7574 48.0072 12.3177 47.8979 11.8462 47.7532ZM32.1258 23.1898C32.0726 23.0003 32.0304 22.8069 31.9996 22.6109H31.969V23.2268C31.9996 23.2268 32.0633 23.1898 32.1258 23.1898ZM12.2234 23.2637V22.6478H12.1915C12.1597 22.8295 12.0972 23.0097 12.0654 23.2268C12.1291 23.1898 12.1928 23.2282 12.2234 23.2637ZM11.9086 23.7688C11.8449 23.9504 11.8143 24.1306 11.7824 24.3123L11.8143 24.3477C11.9086 24.203 12.0029 24.0228 12.0972 23.8781L11.9086 23.7688ZM32.0952 23.8426C32.1882 24.0228 32.2825 24.1675 32.3768 24.3477H32.4087C32.3768 24.1675 32.3144 23.9859 32.2825 23.8057C32.1882 23.8057 32.1576 23.8057 32.0939 23.8411L32.0952 23.8426ZM16.3716 39.5757C16.3116 39.3879 16.2382 39.2061 16.1524 39.0322L16.0581 39.2493C16.1387 39.3851 16.2462 39.4965 16.3716 39.5742V39.5757ZM28.0375 39.0691C27.9432 39.2493 27.8794 39.3941 27.7851 39.5757C27.7851 39.5757 27.7851 39.6112 27.817 39.6112C27.9432 39.5033 28.0375 39.3941 28.1624 39.2862C28.0999 39.177 28.0681 39.1415 28.0375 39.0691ZM15.7752 38.7797C15.649 38.7428 15.5547 38.7058 15.4285 38.6704C15.6171 38.9599 15.6809 38.9599 15.7752 38.7797ZM28.7613 38.6349C28.6448 38.6662 28.5291 38.7022 28.4147 38.7428C28.509 38.9599 28.5421 38.9599 28.7613 38.6349ZM22.3154 14.0347C22.423 13.9959 22.5278 13.9475 22.6289 13.89C22.346 13.8176 22.3141 13.8176 22.3141 14.0347H22.3154ZM21.8745 14.0347C21.8745 13.8176 21.8107 13.7822 21.5915 13.89C21.6858 13.9269 21.7802 13.9993 21.8745 14.0347Z" fill="#FFA700"/>
<path d="M58.9456 15.0864H54.9529V11.6128H64.8257C65.454 11.6128 65.9255 12.1917 65.9255 12.8785V15.0495H61.9328V26.1555H58.9138V15.0864H58.9456ZM79.7605 18.9204C79.7605 22.936 76.9313 26.1925 73.4394 26.1925C69.9501 26.1925 67.1209 22.936 67.1209 18.9204C67.1209 14.9047 69.9501 11.6497 73.4407 11.6497C76.93 11.6497 79.7605 14.9047 79.7605 18.9204ZM76.7414 18.9204C76.7401 18.4197 76.6536 17.9243 76.487 17.4624C76.3203 17.0005 76.0768 16.5812 75.7703 16.2285C75.4637 15.8757 75.1002 15.5964 74.7005 15.4065C74.3008 15.2166 73.8727 15.1199 73.4407 15.1218C73.0087 15.1199 72.5806 15.2166 72.1809 15.4065C71.7812 15.5964 71.4176 15.8757 71.1111 16.2285C70.8046 16.5812 70.561 17.0005 70.3944 17.4624C70.2278 17.9243 70.1413 18.4197 70.14 18.9204C70.14 21.0175 71.617 22.7189 73.4407 22.7189C73.8726 22.7206 74.3007 22.6237 74.7003 22.4338C75.1 22.2439 75.4634 21.9645 75.7699 21.6118C76.0764 21.2591 76.3199 20.8399 76.4866 20.3781C76.6533 19.9163 76.7399 19.4209 76.7414 18.9204ZM81.7409 11.6497H84.4452C84.5701 11.6497 84.6644 11.7221 84.7587 11.8299L88.1868 16.3875L91.5512 11.7944C91.6456 11.6852 91.7399 11.6128 91.8648 11.6128H94.5372V26.1555H91.5512V17.0757L90.1367 18.9927L88.9731 20.5124C88.8686 20.649 88.7403 20.7584 88.5966 20.8333C88.453 20.9082 88.2972 20.9469 88.1397 20.9469C87.9821 20.9469 87.8264 20.9082 87.6827 20.8333C87.539 20.7584 87.4107 20.649 87.3062 20.5124L84.7281 17.0388V26.1201H81.709V11.6497H81.7409ZM102.461 11.6497H104.379C105.008 11.6497 105.479 12.2286 105.479 12.9154V17.1835H110.384V11.6497H112.302C112.592 11.6524 112.869 11.7863 113.075 12.0228C113.28 12.2594 113.398 12.5797 113.402 12.9154V26.1925H110.384V20.6572H105.479V26.191H102.461V11.6497ZM128.023 18.9204C128.023 22.936 125.193 26.1925 121.704 26.1925C118.213 26.1925 115.384 22.936 115.384 18.9204C115.384 14.9047 118.213 11.6497 121.704 11.6497C125.193 11.6497 128.023 14.9047 128.023 18.9204ZM125.004 18.9204C125.003 18.4197 124.917 17.9243 124.75 17.4624C124.583 17.0005 124.34 16.5812 124.033 16.2285C123.727 15.8757 123.363 15.5964 122.963 15.4065C122.564 15.2166 122.136 15.1199 121.704 15.1218C121.272 15.1199 120.843 15.2166 120.444 15.4065C120.044 15.5963 119.68 15.8756 119.374 16.2284C119.067 16.5811 118.823 17.0004 118.657 17.4623C118.49 17.9242 118.403 18.4197 118.402 18.9204C118.402 21.0175 119.88 22.7189 121.704 22.7189C122.136 22.7208 122.564 22.6241 122.963 22.4342C123.363 22.2443 123.727 21.965 124.033 21.6123C124.34 21.2595 124.583 20.8402 124.75 20.3783C124.917 19.9164 125.003 19.421 125.004 18.9204ZM130.004 20.0413C130.004 19.3546 130.507 18.7756 131.105 18.7756H134.72C135.632 18.7756 136.355 17.9072 136.324 16.8586C136.292 15.8455 135.537 15.0864 134.689 15.0864H130.004V11.6128H134.658C137.172 11.6128 139.343 13.964 139.311 16.8941C139.311 17.8952 139.062 18.8751 138.593 19.7161C138.125 20.557 137.456 21.2233 136.669 21.6348L140.599 26.191H136.418L132.991 22.2477V26.191H129.972V20.0413H130.004ZM142.172 11.6497H144.53C144.844 11.6497 145.159 11.8299 145.38 12.0824L152.013 20.9466V11.6497H153.9C154.528 11.6497 155 12.2286 155 12.9154V26.1925H151.95L145.159 17.1112V26.191H142.172V11.6497ZM57.4049 44.135C57.3411 44.0981 57.2787 44.0981 57.2163 44.0611C57.1525 44.0257 57.0901 43.9902 57.0276 43.9902L56.9015 43.9164L56.6504 43.7731C56.6186 43.7377 56.5561 43.7008 56.5243 43.6653C56.4299 43.5915 56.3675 43.5191 56.3051 43.4837C56.1516 43.348 56.0044 43.2031 55.8641 43.0495C55.4913 42.6178 55.1963 42.1044 54.9966 41.5392C54.7968 40.9739 54.6962 40.3683 54.7006 39.7575C54.7036 38.5265 55.1211 37.3454 55.8641 36.4656C55.9903 36.3208 56.147 36.1761 56.3051 36.0314C56.3704 35.9596 56.4442 35.899 56.5243 35.8512C56.6823 35.7065 56.8709 35.6341 57.0276 35.5263L57.2163 35.417L57.4049 35.3432C57.8127 35.1999 58.2536 35.0921 58.6946 35.0921C59.1342 35.0921 59.5739 35.163 59.983 35.3432L60.1716 35.417L60.3602 35.5248C60.5488 35.6341 60.7068 35.7065 60.8636 35.8497C60.9579 35.9236 61.0203 35.959 61.1147 36.0314C61.2727 36.1761 61.4294 36.3208 61.5556 36.4656L60.2035 38.0207C60.1091 37.9129 60.0148 37.8036 59.8887 37.7313C59.8581 37.6958 59.825 37.6958 59.7944 37.6589L59.7306 37.6234L59.6376 37.5496C59.5739 37.5142 59.5115 37.4787 59.4796 37.4787L59.3853 37.4418C59.3547 37.4418 59.3547 37.4063 59.3228 37.4063C59.291 37.4063 59.291 37.4063 59.291 37.3694C59.2604 37.3694 59.2285 37.3694 59.2285 37.334C59.0526 37.2894 58.8733 37.2647 58.6933 37.2601C58.5059 37.2601 58.3173 37.2971 58.1593 37.334C58.1287 37.334 58.0956 37.3694 58.065 37.3694L58.0331 37.4063C58.0026 37.4063 57.9707 37.4063 57.9707 37.4418L57.8764 37.4787C57.8127 37.5142 57.7515 37.5142 57.7196 37.5511L57.6559 37.5865L57.6253 37.6234L57.5935 37.6589C57.5616 37.6589 57.5298 37.6958 57.5298 37.7327L57.4367 37.8036C57.4049 37.8405 57.373 37.8775 57.3424 37.8775C57.1129 38.1048 56.9292 38.3876 56.8042 38.706C56.6791 39.0245 56.6157 39.3708 56.6186 39.7206C56.6186 40.4443 56.9015 41.0956 57.3424 41.5667L57.4367 41.6745L57.4673 41.7114L57.5629 41.7838C57.6253 41.8562 57.7196 41.8916 57.7821 41.9285C57.8458 41.964 57.8764 42.0009 57.9388 42.0363C58.0344 42.0733 58.0969 42.1102 58.1912 42.1456C58.3479 42.1811 58.5365 42.218 58.7264 42.218C58.9138 42.218 59.1024 42.1811 59.2604 42.1442C59.3547 42.1087 59.4171 42.0733 59.5115 42.0363C59.5752 42.0009 59.6376 41.964 59.6682 41.9285C59.7638 41.8916 59.8262 41.8192 59.8887 41.7838L60.0454 41.6391L60.2035 41.4943V39.7944H61.3976C61.7748 39.7944 62.0896 40.1548 62.0896 40.589V41.4574C62.0896 42.0363 61.901 42.6153 61.5237 43.0495C61.3976 43.1942 61.2408 43.3389 61.0841 43.4837L60.8317 43.6653L60.7068 43.7377C60.6294 43.7998 60.5443 43.8481 60.4545 43.8809C60.4202 43.9194 60.3767 43.9452 60.3296 43.9548L60.1716 44.0257H60.141C60.0837 44.0664 60.0192 44.0916 59.9524 44.0995C59.5433 44.2428 59.1024 44.3506 58.6627 44.3506C58.223 44.3506 57.8139 44.2797 57.4049 44.135ZM66.146 35.6341C66.2057 35.4879 66.2987 35.3634 66.4151 35.2741C66.5315 35.1848 66.6667 35.1341 66.8061 35.1275C67.0891 35.1275 67.3414 35.3077 67.4344 35.5972L70.9875 44.3521H68.9752L68.1901 42.4351H65.3278L64.5428 44.3521H62.6248L66.146 35.6341ZM67.4038 40.3719L66.8061 38.8891L66.2085 40.3734L67.4038 40.3719ZM72.0248 35.1275H73.7542C73.8179 35.1275 73.8816 35.163 73.9428 35.2353L76.1131 38.13L78.2822 35.2353C78.3459 35.163 78.4083 35.1275 78.4708 35.1275H80.1683V44.3875H78.2516V38.5997L77.3391 39.8299L76.6165 40.8061C76.5485 40.8921 76.4657 40.9607 76.3736 41.0076C76.2815 41.0546 76.1819 41.0788 76.0813 41.0788C75.9806 41.0788 75.8811 41.0546 75.7889 41.0076C75.6968 40.9607 75.6141 40.8921 75.546 40.8061L73.9122 38.5997V44.389H71.9942V35.1275H72.0248ZM81.6784 35.1275H82.9044C83.2816 35.1275 83.5964 35.4894 83.5964 35.9236V44.3521H81.6784V35.1275ZM85.1053 35.1275H86.6142C86.8028 35.1275 87.022 35.2353 87.1495 35.417L91.3626 41.0572V35.1261H92.5568C92.934 35.1261 93.2488 35.4879 93.2488 35.9221V44.3506H91.3308L86.9914 38.5613V44.3506H85.0747V35.1261H85.1066L85.1053 35.1275ZM97.2733 44.135C97.2096 44.0981 97.1472 44.0981 97.0847 44.0611C97.021 44.0257 96.9585 43.9902 96.8961 43.9902L96.7699 43.9164L96.5189 43.7731C96.487 43.7377 96.4246 43.7008 96.3927 43.6653C96.2984 43.5915 96.236 43.5191 96.1722 43.4837C96.0192 43.348 95.8724 43.2031 95.7326 43.0495C95.3597 42.6178 95.0648 42.1044 94.865 41.5392C94.6653 40.9739 94.5646 40.3683 94.569 39.7575C94.5721 38.5265 94.9896 37.3454 95.7326 36.4656C95.8587 36.3208 96.0155 36.1761 96.1722 36.0314C96.238 35.9595 96.3122 35.8988 96.3927 35.8512C96.5495 35.7065 96.7381 35.6341 96.8961 35.5263L97.0847 35.417L97.2733 35.3432C97.6811 35.1999 98.1221 35.0921 98.5617 35.0921C99.0027 35.0921 99.4424 35.163 99.8514 35.3432L100.04 35.417L100.229 35.5248C100.417 35.6341 100.574 35.7065 100.732 35.8497C100.826 35.9236 100.889 35.959 100.983 36.0314C101.14 36.1761 101.298 36.3208 101.423 36.4656L100.072 38.0207C99.9814 37.9049 99.875 37.8071 99.7571 37.7313C99.7253 37.6958 99.6934 37.6958 99.6628 37.6589L99.5991 37.6234L99.5061 37.5496C99.4424 37.5142 99.3786 37.4787 99.3481 37.4787L99.2537 37.4418C99.2219 37.4418 99.2219 37.4063 99.19 37.4063C99.1594 37.4063 99.1594 37.4063 99.1594 37.3694C99.1276 37.3694 99.0957 37.3694 99.0957 37.334C98.9202 37.2895 98.7414 37.2647 98.5617 37.2601C98.3731 37.2601 98.1845 37.2971 98.0265 37.334C97.9959 37.334 97.9653 37.3694 97.9335 37.3694L97.9016 37.4063C97.871 37.4063 97.8379 37.4063 97.8379 37.4418L97.7449 37.4787C97.6811 37.5142 97.6187 37.5142 97.5881 37.5511L97.5244 37.5865L97.4938 37.6234L97.4301 37.6589C97.3995 37.6589 97.3664 37.6958 97.3664 37.7327L97.2733 37.8036C97.2415 37.8405 97.2096 37.8775 97.179 37.8775C96.9495 38.1048 96.7658 38.3876 96.6408 38.706C96.5157 39.0245 96.4524 39.3708 96.4552 39.7206C96.4552 40.4443 96.7381 41.0956 97.179 41.5667L97.2733 41.6745L97.3039 41.7114L97.3995 41.7838C97.4619 41.8562 97.5562 41.8916 97.6187 41.9285C97.6824 41.964 97.713 42.0009 97.7754 42.0363C97.871 42.0733 97.9335 42.1102 98.0278 42.1456C98.1845 42.1811 98.3731 42.218 98.563 42.218C98.7504 42.218 98.939 42.1811 99.097 42.1442C99.1913 42.1087 99.2538 42.0733 99.3481 42.0363C99.4042 42.0086 99.4569 41.9724 99.5048 41.9285C99.6004 41.8916 99.6628 41.8192 99.7253 41.7838L99.8833 41.6391L100.04 41.4943V39.7944H101.234C101.613 39.7944 101.926 40.1548 101.926 40.589V41.4574C101.926 42.0363 101.738 42.6153 101.36 43.0495C101.22 43.2031 101.074 43.348 100.921 43.4837L100.668 43.6653L100.543 43.7377C100.466 43.7998 100.381 43.8481 100.291 43.8809C100.257 43.9194 100.213 43.9452 100.166 43.9548L100.008 44.0257H100.04C99.9828 44.0664 99.9183 44.0916 99.8514 44.0995C99.4436 44.2428 99.0027 44.3506 98.5617 44.3506C98.1221 44.3506 97.6824 44.2797 97.2733 44.135Z" fill="white"/>
</svg>
