<svg width="155" height="56" viewBox="0 0 155 56" fill="none" xmlns="http://www.w3.org/2000/svg">
<path d="M121.62 2.51697L121.617 2.42695L121.611 2.33693L121.607 2.24331L121.6 2.1569L121.595 2.06687L121.587 1.98045L121.577 1.89043L121.569 1.80401L121.558 1.71759L121.545 1.64197L121.532 1.55555L121.519 1.47634L121.505 1.38992L121.49 1.3107L121.473 1.23868L121.456 1.16666L121.439 1.09465L121.421 1.02264L121.403 0.950617L121.384 0.889402L121.364 0.817384L121.344 0.759775L121.321 0.694962L121.299 0.637346L121.278 0.57973L121.255 0.52572L121.233 0.47171L121.208 0.417693L121.158 0.327674L121.131 0.288066L121.107 0.248458L121.08 0.212449L121.053 0.172841L121.025 0.147635L120.996 0.115225L120.968 0.0936181L120.941 0.0684124L120.913 0.0504113L120.884 0.0360091L120.856 0.0252057L120.827 0.0108034L120.768 0H110.285L100.242 0.0252057L86.6811 0H64.5951L64.536 0.0108034L64.5076 0.0252057L64.4791 0.0360091L64.4507 0.0504113L64.4223 0.0684124L64.395 0.0936181L64.3677 0.115225L64.3393 0.151234L64.312 0.172841L64.2848 0.212449L64.2575 0.248458L64.2325 0.284467L64.2052 0.327674L64.1552 0.417693L64.1302 0.47171L64.1086 0.52572L64.0858 0.57973L64.0642 0.637346L64.0415 0.694962L64.0199 0.759775L63.9994 0.817384L63.979 0.889402L63.9608 0.954216L63.9426 1.02623L63.9244 1.09465L63.9074 1.16666L63.8903 1.23868L63.8733 1.3107L63.8585 1.38992L63.8449 1.47634L63.8324 1.55555L63.8187 1.64197L63.8062 1.71759L63.7948 1.80401L63.788 1.89043L63.7767 1.98045L63.7687 2.06687L63.763 2.1569L63.7562 2.24331L63.7528 2.33693L63.746 2.42695L63.7437 2.51697L63.7391 2.70062V30.823L63.7414 30.9455L63.746 31.0715L63.7528 31.1903L63.7585 31.3092L63.7698 31.4316L63.7801 31.5504L63.7983 31.7197L63.8119 31.8277L63.8369 32.0005L63.8551 32.1013L63.8755 32.2058L63.8971 32.3066L63.9312 32.4506L63.9563 32.5514L63.9835 32.6379L64.0108 32.7279L64.0699 32.8827L64.1006 32.9619L64.1495 33.0664L64.1813 33.1204L64.2166 33.178L64.2688 33.2572L64.3064 33.304L64.3405 33.3472L64.3791 33.3832L64.4166 33.412L64.4541 33.4372L64.4939 33.4589L64.5314 33.4805L64.6099 33.4913H86.6845L100.245 33.4805L110.288 33.4913H120.743L120.782 33.4841L120.82 33.4769L120.858 33.4624L120.898 33.4517L120.935 33.4264L120.973 33.4012L121.029 33.3472L121.064 33.304L121.101 33.2572L121.154 33.178L121.189 33.124L121.238 33.0231L121.27 32.9583L121.3 32.8791L121.359 32.7243L121.387 32.6343L121.414 32.5478L121.438 32.447L121.461 32.357L121.482 32.2526L121.504 32.1518L121.522 32.0473L121.54 31.9393L121.562 31.7737L121.577 31.6548L121.589 31.5432L121.599 31.4244L121.61 31.302L121.616 31.1795L121.623 31.0607L121.627 30.9383L121.63 30.8158V2.70062L121.627 2.52058H121.62V2.51697ZM75.8575 20.3807L75.8552 20.5607L75.8529 20.7263L75.8461 20.8956L75.8393 21.072L75.8313 21.2413L75.8211 21.4105L75.8086 21.5725L75.795 21.7418L75.7813 21.9074L75.7643 22.0694L75.7461 22.2279L75.7279 22.3935L75.7052 22.5484L75.6847 22.6996L75.6597 22.858L75.6358 23.0093L75.6063 23.1533L75.579 23.3045L75.5483 23.4414L75.5176 23.5854L75.4835 23.7186L75.4517 23.8519L75.4176 23.9815L75.3789 24.1075L75.3016 24.3524L75.2618 24.4712L75.2209 24.5828L75.1777 24.6872L75.1345 24.7881L75.0891 24.8853L75.0459 24.9789L74.9981 25.0689L74.9504 25.1554L74.8549 25.3102L74.806 25.3822L74.756 25.447L74.7071 25.5046L74.6548 25.5622L74.6026 25.6163L74.5514 25.6595L74.4991 25.7027L74.3911 25.7675L74.3377 25.7927L74.2843 25.8107L74.2309 25.8251L74.1774 25.8359L74.1217 25.8467L67.8858 25.8575H67.8472L67.8051 25.8467L67.7642 25.8251L67.7244 25.7891L67.6869 25.7603L67.6482 25.7135L67.6107 25.6595L67.5584 25.5622L67.5232 25.4938L67.4925 25.4182L67.4607 25.3318L67.4323 25.2418L67.4039 25.141L67.3788 25.0401L67.3561 24.9357L67.3357 24.8277L67.3186 24.7161L67.297 24.5288L67.2845 24.41L67.2731 24.2876L67.2675 24.1543L67.2629 24.0319L67.2606 23.8987V23.8338L67.2629 23.769V23.7042L67.2697 23.571L67.2777 23.4486L67.2879 23.3261L67.3004 23.2001L67.3175 23.0813L67.3357 22.9625L67.3538 22.8544L67.3891 22.696L67.4027 22.642L67.4164 22.5988L67.4311 22.5448L67.4743 22.4079L67.4902 22.3683L67.5221 22.2891L67.5562 22.2171L67.5925 22.1523L67.6301 22.0947L67.6676 22.0514L67.7051 22.0082L67.7437 21.9686L67.7858 21.947L67.8244 21.9254L67.846 21.9182H71.7108L74.2002 21.9074L74.2456 21.8822L74.2752 21.857L74.3184 21.803L74.3468 21.7634L74.3741 21.7166L74.3991 21.6734L74.4366 21.5869L74.4593 21.5185L74.4809 21.4537L74.5037 21.3817L74.5207 21.3133L74.5389 21.2377L74.5559 21.1584L74.5707 21.072L74.5844 20.982L74.5957 20.8956L74.606 20.8056L74.6139 20.7155L74.6196 20.6147L74.6264 20.5247L74.6287 20.4275V20.2402L74.6264 20.1502L74.6219 20.0638L74.6185 19.9774L74.6117 19.9018L74.5991 19.7757L74.5878 19.7001L74.5514 19.4625L74.5344 19.394L74.5173 19.3292L74.5003 19.2572L74.4821 19.1996L74.4536 19.1096L74.3877 18.9547L74.3525 18.8971L74.3275 18.8575L74.3025 18.8215L74.2638 18.7783L74.1831 18.7243H68.7349L68.5735 18.6811L68.4689 18.6451L68.4155 18.6163L68.3587 18.5838L68.2518 18.5046L68.1995 18.4542L68.1461 18.4002L68.0938 18.3426L68.045 18.2778L67.9927 18.2094L67.9427 18.1373L67.8949 18.0653L67.846 17.9753L67.8006 17.8853L67.7517 17.7953L67.7062 17.6981L67.6642 17.5972L67.621 17.4964L67.5778 17.3848L67.5368 17.2659L67.4971 17.1435L67.4584 17.0211L67.4209 16.8987L67.3823 16.7654L67.3482 16.6322L67.3129 16.4954L67.28 16.3513L67.2493 16.2073L67.2197 16.0561L67.1913 15.912L67.164 15.7572L67.1401 15.6024L67.1174 15.4475L67.0947 15.2819L67.0776 15.1271L67.0594 14.9614L67.0412 14.7958L67.0265 14.6301L67.0128 14.4645L66.9992 14.2953L66.9878 14.126L66.981 13.9604L66.9742 13.7803L66.9685 13.6147L66.964 13.4347V13.2582L66.9617 13.0926L66.964 12.9126L66.9719 12.5597L66.9799 12.394L66.9878 12.214L66.9981 12.0484L67.0231 11.7063L67.0367 11.5406L67.0549 11.3714L67.0731 11.2094L67.0913 11.0509L67.114 10.8889L67.1367 10.7305L67.1595 10.5792L67.1879 10.428L67.2152 10.2768L67.2436 10.1219L67.2754 9.97788L67.3061 9.84465L67.3766 9.56739L67.4107 9.43776L67.4493 9.30453L67.488 9.1821L67.5709 8.94805L67.6141 8.83642L67.6573 8.7284L67.7005 8.62757L67.746 8.52675L67.7937 8.42953L67.8881 8.26029L67.937 8.18107L67.9858 8.10545L68.0381 8.03704L68.0881 7.97223L68.1393 7.91461L68.1916 7.8606L68.245 7.80658L68.2973 7.76697L68.3496 7.72737L68.403 7.69136L68.4598 7.65895L68.5121 7.64095L68.569 7.61934L68.6224 7.60494L68.6781 7.59774H74.8583L74.8788 7.60494H74.8992L74.9413 7.62654L74.9799 7.64815L75.0402 7.70216L75.0777 7.74177L75.1152 7.79579L75.1527 7.8498L75.188 7.91461L75.2368 8.02624L75.2709 8.10545L75.313 8.23868L75.3403 8.33951L75.3653 8.44033L75.388 8.54475L75.4153 8.71399L75.4323 8.83282L75.4528 9.00926L75.4642 9.13169L75.471 9.26492L75.4778 9.45216L75.4801 9.51697V9.65021L75.4778 9.71502L75.471 9.90586L75.4642 10.0355L75.4528 10.1543L75.4323 10.3416L75.4153 10.4604L75.3971 10.5684L75.3744 10.6836L75.3528 10.7845L75.3255 10.8817L75.313 10.9357L75.2846 11.0293L75.2675 11.0653L75.2198 11.1914L75.1857 11.2634L75.1334 11.3534L75.0959 11.4074L75.0584 11.4506L75.0186 11.4902L74.8992 11.5586L74.8788 11.5658H68.6701L68.6247 11.5911L68.5963 11.6127L68.5531 11.6559L68.5246 11.6991L68.4826 11.7639L68.4576 11.8179L68.4201 11.9043L68.3962 11.9619L68.3632 12.0628L68.345 12.1348L68.3246 12.2104L68.2916 12.3688L68.2712 12.4985L68.2598 12.5885L68.2496 12.6821L68.2427 12.7721L68.2359 12.8621L68.2291 12.9594L68.2268 13.0566V13.2438L68.2291 13.3302L68.2359 13.4599L68.2427 13.5463L68.2484 13.6255L68.2564 13.7119L68.2734 13.8308L68.2859 13.91L68.2996 13.982L68.3143 14.0576L68.3382 14.162L68.3632 14.2593L68.3837 14.3241L68.4121 14.4105L68.4348 14.4645L68.4553 14.5185L68.4803 14.5617L68.503 14.6049L68.5394 14.6589L68.5644 14.6914L68.5917 14.7238L68.6667 14.7778H74.2763L74.3855 14.8318L74.4389 14.8642L74.4923 14.9038L74.5446 14.947L74.598 14.9902L74.6503 15.0442L74.7015 15.0983L74.7515 15.1631L74.8003 15.2279L74.8504 15.2963L74.9447 15.4511L74.9936 15.5376L75.039 15.6276L75.0845 15.7176L75.13 15.8184L75.172 15.9192L75.2141 16.0237L75.2562 16.1317L75.2971 16.2433L75.3346 16.3693L75.3744 16.4882L75.4119 16.6178L75.446 16.751L75.4824 16.8807L75.5142 17.0175L75.546 17.1615L75.5767 17.3056L75.6051 17.4496L75.6324 17.6008L75.6574 17.7557L75.6824 17.9069L75.7052 18.0617L75.7461 18.375L75.795 18.8647L75.8086 19.0304L75.8211 19.196L75.8325 19.3616L75.8393 19.5309L75.8461 19.7001L75.8495 19.8657L75.8541 20.0458L75.8563 20.2114L75.8575 20.3807ZM86.04 13.3987L86.0355 13.5679L86.0298 13.7479L86.023 13.9136L86.015 14.0828L86.0036 14.2521L85.9945 14.4213L85.9798 14.5833L85.965 14.749L85.9491 14.911L85.9309 15.0766L85.9127 15.2351L85.8911 15.3899L85.8684 15.5448L85.8456 15.6996L85.7922 15.9985L85.7638 16.1425L85.7354 16.2865L85.7035 16.4198L85.6717 16.5566L85.6376 16.6898L85.6012 16.8194L85.5637 16.9527L85.5262 17.0751L85.4876 17.1939L85.4455 17.3128L85.4035 17.4244L85.3614 17.536L85.3182 17.6332L85.275 17.7341L85.2295 17.8313L85.1818 17.9213L85.1363 18.0077L85.0875 18.0869L85.0386 18.1589L84.9908 18.2274L84.9385 18.2922L84.8885 18.357L84.8374 18.411L84.7874 18.465L84.7339 18.5118L84.6828 18.5514L84.6294 18.5911L84.5771 18.6271L84.5236 18.6451L84.4668 18.6703L84.4145 18.6811L84.3611 18.6919L84.3043 18.6991L81.5239 18.7207L78.8481 18.7279L78.814 18.7675L78.7947 18.7927L78.7674 18.8395L78.7504 18.8827L78.7322 18.9295L78.7117 18.9943L78.6969 19.052L78.681 19.124L78.6674 19.2104L78.6594 19.2824L78.6515 19.3652L78.6492 19.4444L78.6469 19.5345L78.6492 23.9095L78.6469 23.9743V24.0391L78.6446 24.1075L78.6401 24.2047L78.6333 24.302L78.6299 24.3704L78.6231 24.4352L78.6151 24.5252L78.6026 24.6152L78.5946 24.6728L78.5821 24.7629L78.5674 24.8493L78.5549 24.9069L78.5435 24.9609L78.5253 25.0473L78.5071 25.1193L78.4935 25.1698L78.456 25.2886L78.4264 25.375L78.3787 25.4974L78.3298 25.5983L78.2764 25.6847L78.2195 25.7567L78.1627 25.8071L78.1024 25.8431L78.0422 25.8539H77.9797L77.9592 25.8467L77.899 25.8107L77.8603 25.7891L77.8205 25.7459L77.7648 25.6739L77.7273 25.6199L77.675 25.519L77.6262 25.4002L77.6114 25.3606L77.5943 25.3138L77.5659 25.2238L77.5534 25.1806L77.5386 25.1265L77.5045 24.9681L77.4818 24.8673L77.4545 24.698L77.4375 24.5756L77.425 24.4568L77.4113 24.3308L77.4034 24.2083L77.4 24.0787L77.3977 24.0103L77.3943 23.9455V19.07L77.3966 18.9907L77.4 18.9187L77.4022 18.8503L77.4045 18.7747L77.4079 18.7027L77.4102 18.6307L77.4136 18.5586L77.4216 18.4146L77.4261 18.3426L77.4295 18.2706L77.4363 18.2022L77.4398 18.1301L77.4466 18.0617L77.4534 17.9897L77.4591 17.9213L77.467 17.8493L77.4739 17.7845L77.4818 17.7125L77.4898 17.6476L77.4977 17.5756L77.5045 17.5072L77.5125 17.4496L77.5239 17.3848L77.5307 17.32L77.5421 17.2515L77.5489 17.1867L77.5602 17.1291L77.5705 17.0643L77.583 17.0067L77.5943 16.9491L77.6057 16.8807L77.6171 16.8231L77.6296 16.769L77.6546 16.6466L77.6671 16.5962L77.6819 16.535L77.6944 16.481L77.7091 16.427L77.7217 16.3693L77.7364 16.3153L77.7648 16.2109L77.7819 16.1569L77.7967 16.1065L77.8126 16.0525L77.8296 16.0057L77.8444 15.9625L77.8615 15.9084L77.8797 15.8616L77.8967 15.822L77.9138 15.7752L77.9319 15.732L77.9479 15.6888L77.9672 15.6456L77.9854 15.6024L78.0013 15.5628L78.0195 15.5195L78.0377 15.4835L78.0592 15.4475L78.0774 15.4043L78.0956 15.3719L78.1161 15.3395L78.1343 15.3071L78.1547 15.2747L78.1729 15.2387L78.1945 15.2171L78.215 15.1811L78.257 15.1307L78.2786 15.0946L78.3014 15.073L78.3218 15.0478L78.3446 15.0262L78.3662 15.0046L78.3889 14.983L78.4105 14.9614L78.4321 14.9434L78.4548 14.9218L78.4764 14.9074L78.4992 14.8894L78.5208 14.875L78.5435 14.8642L78.5674 14.8498L78.6128 14.839L78.6356 14.8282L78.6594 14.8174H78.6822L78.706 14.8102H84.3577L84.3861 14.7958L84.4145 14.7778L84.4554 14.7346L84.4975 14.6914L84.5248 14.6482L84.5623 14.5833L84.5873 14.5293L84.61 14.4753L84.6316 14.4213L84.6646 14.3205L84.6828 14.2557L84.701 14.1836L84.7169 14.108L84.7339 14.036L84.7487 13.9496L84.7612 13.874L84.7783 13.7407L84.7862 13.6543L84.7976 13.5175L84.801 13.4275L84.8067 13.2942V13.1574L84.8044 13.0674L84.7965 12.8801L84.7862 12.7505L84.7749 12.6605L84.7658 12.5741L84.7521 12.4949L84.7385 12.4084L84.7237 12.3292L84.7067 12.2536L84.6794 12.1492L84.6487 12.0484L84.6282 11.9907L84.6055 11.9331L84.5805 11.8791L84.5316 11.7891L84.493 11.7315L84.4657 11.6955L84.4316 11.6595L84.3952 11.6235L84.3747 11.6127L84.3361 11.5983L84.3134 11.5911H77.9797L77.9479 11.5838L77.9274 11.573L77.9092 11.5658L77.8888 11.555L77.8683 11.5406L77.8387 11.5226L77.8183 11.501L77.7899 11.465L77.7717 11.447L77.7512 11.4218L77.733 11.3966L77.7148 11.3642L77.6978 11.339L77.6796 11.2994L77.6625 11.2634L77.6375 11.213L77.6205 11.1734L77.6034 11.1265L77.5875 11.0833L77.5727 11.0401L77.5523 10.9681L77.5375 10.9249L77.525 10.8709L77.5114 10.8169L77.4864 10.716L77.4659 10.6044L77.4318 10.3704L77.4091 10.1831L77.4 10.0607L77.3931 9.93827L77.3897 9.87346L77.3863 9.80504L77.3841 9.74023V9.50978L77.3863 9.41255L77.3909 9.32253L77.3966 9.22171L77.4034 9.13169L77.4147 9.00926L77.4238 8.91924L77.4409 8.79321L77.4545 8.70679L77.4716 8.62037L77.4852 8.53755L77.517 8.40432L77.5352 8.3323L77.5557 8.26389L77.5841 8.17387L77.6068 8.10906L77.6307 8.05144L77.6728 7.96142L77.6978 7.90741L77.7251 7.8606L77.7535 7.82099L77.791 7.76697L77.8194 7.73097L77.8478 7.70937L77.8978 7.67336L77.9285 7.66255L77.9604 7.65535L77.999 7.64815H84.4464L84.5566 7.70576L84.6089 7.73097L84.6623 7.77058L84.7157 7.81379L84.768 7.85699L84.8203 7.91101L84.8726 7.96862L84.9215 8.02624L84.9704 8.09105L85.0204 8.16307L85.0693 8.23509L85.1181 8.3179L85.1636 8.39712L85.2113 8.48714L85.2568 8.57716L85.3 8.67439L85.3432 8.77881L85.3841 8.88323L85.4262 8.99126L85.4671 9.11009L85.5069 9.23251L85.5808 9.47737L85.6149 9.6106L85.6512 9.74383L85.6831 9.88066L85.7149 10.0175L85.7456 10.1615L85.774 10.3128L85.8013 10.4568L85.8286 10.608L85.8513 10.7629L85.874 10.9177L85.8956 11.0797L85.9138 11.2382L85.932 11.393L85.9491 11.5586L85.9627 11.7243L85.9763 11.8899L85.9889 12.0556L86.0002 12.2248L86.007 12.394L86.0139 12.5597L86.0207 12.7289L86.023 12.8982L86.0252 13.0674V13.4131L86.04 13.3987ZM92.8806 10.0571L92.8772 10.1759L92.8716 10.2984L92.8647 10.4208L92.8534 10.5396L92.8295 10.7737L92.8045 10.9357L92.7863 11.0401L92.7681 11.1445L92.7454 11.2418L92.7215 11.339L92.684 11.4758L92.6556 11.555L92.626 11.6415L92.5976 11.7099L92.5658 11.7819L92.5158 11.8719L92.4646 11.9475L92.4294 11.9943L92.3725 12.0484L92.3168 12.0916L92.2589 12.1168L92.2214 12.124H92.1816L92.1236 12.1168H90.3435L90.3106 12.124L90.2799 12.1348L90.2469 12.142L90.2162 12.1492L90.1833 12.1636L90.1526 12.1744L90.1207 12.196L90.0889 12.214L90.0571 12.2356L90.0264 12.2608L89.9946 12.286L89.9639 12.3112L89.9332 12.3364L89.9014 12.3688L89.8729 12.4084L89.8411 12.4444L89.7831 12.5201L89.7513 12.5633L89.7229 12.6101L89.6956 12.6569L89.6672 12.7001L89.6388 12.7541L89.6115 12.8081L89.5842 12.8621L89.5569 12.9198L89.5297 12.9774L89.5024 13.035L89.4774 13.0998L89.4524 13.1574L89.4285 13.2222L89.4035 13.2942L89.3808 13.3591L89.3353 13.5031L89.3137 13.5751L89.291 13.6435L89.2705 13.7191L89.25 13.7984L89.2296 13.8776L89.2114 13.964L89.1932 14.0396L89.175 14.126L89.1568 14.2125L89.1239 14.3817L89.1068 14.4717L89.0636 14.749L89.05 14.839L89.0363 14.929L89.0238 15.0262L89.0125 15.1199L89.0034 15.2171L88.992 15.3143L88.9818 15.4043L88.9647 15.6024L88.9579 15.7032L88.9511 15.804L88.9443 15.9048L88.9409 16.0021L88.9363 16.1065L88.9329 16.2037L88.9283 16.3081L88.9261 16.4054L88.9238 16.5098V16.8086L88.9272 17.1219L88.9409 17.4208L88.9579 17.7161L88.9818 18.0113L89.0136 18.2922L89.0477 18.5694L89.0909 18.8323L89.1364 19.0844L89.1886 19.3328L89.2478 19.5633L89.3103 19.7865L89.3762 19.999L89.4467 20.197L89.5206 20.3807L89.5967 20.5499L89.6797 20.7011L89.765 20.838L89.8513 20.9604L89.9423 21.0648L90.0366 21.1548L90.1321 21.2197L90.2299 21.2737L90.3288 21.3061L90.4311 21.3133H92.1475L92.1702 21.3241L92.1929 21.3313L92.2145 21.3385L92.26 21.3637L92.2827 21.3745L92.3032 21.3961L92.3259 21.4177L92.3453 21.4393L92.368 21.4609L92.3885 21.4861L92.4089 21.5113L92.4305 21.5473L92.4487 21.5761L92.4692 21.6121L92.4873 21.6481L92.5078 21.6914L92.5271 21.7346L92.543 21.7742L92.5817 21.8642L92.6306 22.0226L92.6453 22.073L92.659 22.1271L92.6738 22.1847L92.6874 22.2423L92.701 22.2999L92.7136 22.3575L92.7249 22.4151L92.7363 22.4835L92.7477 22.5484L92.7556 22.606L92.7658 22.678L92.7738 22.7428L92.7795 22.8076L92.7874 22.8724L92.7943 22.9444L92.7977 23.0129L92.8045 23.0777L92.809 23.1497L92.8113 23.2181L92.8147 23.2901V23.3585L92.8181 23.4306V23.5746L92.8147 23.643V23.7114L92.8113 23.7834L92.809 23.8519L92.8045 23.9239L92.7977 23.9923L92.7943 24.0571L92.7874 24.1291L92.7795 24.1939L92.7738 24.2587L92.7658 24.3308L92.7545 24.3956L92.7477 24.4604L92.7363 24.518L92.7249 24.5828L92.7136 24.6404L92.701 24.698L92.6874 24.7557L92.6738 24.8133L92.659 24.8709L92.6453 24.9249L92.6306 24.9825L92.6135 25.0365L92.5965 25.0797L92.5794 25.1337L92.5612 25.1806L92.543 25.2238L92.5271 25.267L92.5078 25.3102L92.4873 25.3534L92.4692 25.3858L92.4487 25.4182L92.4305 25.4506L92.4089 25.4866L92.3885 25.5082L92.368 25.5334L92.3453 25.5586L92.3248 25.5767L92.3021 25.6019L92.2816 25.6163L92.26 25.6343L92.2373 25.6451L92.2157 25.6559L92.1929 25.6631L92.1713 25.6739L92.1486 25.6811H90.4424L90.2492 25.6595L90.0616 25.6019L89.8752 25.5046L89.6911 25.3678L89.5126 25.2022L89.341 24.9933L89.1727 24.7593L89.0091 24.4928L88.8545 24.1975L88.7044 23.8663L88.5612 23.5134L88.4271 23.1353L88.2986 22.7284L88.1781 22.2963L88.069 21.8462L87.9678 21.3781L87.8746 20.8884L87.7917 20.3771L87.7212 19.8477L87.6609 19.304L87.612 18.7495L87.5723 18.1806L87.5484 17.5972L87.5348 16.9995L87.5325 16.8014V16.6034L87.5359 16.1965L87.5404 15.9985L87.5461 15.7968L87.5541 15.5988L87.562 15.3971L87.57 15.1991L87.5825 15.0046L87.5961 14.8066L87.6109 14.6085L87.6246 14.4213L87.6416 14.2233L87.6598 14.0324L87.678 13.8452L87.6984 13.6543L87.7212 13.4671L87.7439 13.2798L87.7666 13.0962L87.7951 12.9089L87.8223 12.7289L87.8508 12.5417L87.8826 12.3616L87.9133 12.1852L87.9451 12.0195L87.9792 11.8503L88.0122 11.6811L88.0861 11.3534L88.1236 11.195L88.1633 11.0401L88.2043 10.8817L88.2463 10.7305L88.2884 10.5792L88.3304 10.4352L88.3759 10.2912L88.4214 10.1543L88.4669 10.0211L88.5157 9.88786L88.5635 9.75823L88.6624 9.50978L88.7146 9.39095L88.7658 9.27212L88.8192 9.1641L88.8715 9.05607L88.9283 8.95525L88.9806 8.85082L89.0375 8.7536L89.0943 8.66358L89.1511 8.57716L89.2091 8.49074L89.2682 8.41153L89.3262 8.33591L89.3864 8.26389L89.4467 8.19908L89.5058 8.13426L89.566 8.07665L89.6251 8.01903L89.6877 7.97223L89.7479 7.91821L89.8718 7.84259L89.9355 7.80658L89.998 7.78498L90.0605 7.75978L90.1242 7.73817L90.1867 7.71656L90.2503 7.70576L90.314 7.69856H92.1247L92.1634 7.68776H92.2407L92.2987 7.71296L92.3373 7.73457L92.393 7.77778L92.4305 7.82099L92.4646 7.8642L92.5169 7.94341L92.551 8.00103L92.5987 8.10545L92.6283 8.17747L92.6567 8.24949L92.6851 8.33951L92.734 8.52315L92.7567 8.62037L92.7874 8.77881L92.8056 8.88323L92.8227 8.99126L92.8374 9.10288L92.85 9.22171L92.8716 9.45576L92.8772 9.57459L92.8818 9.70062L92.884 9.87706L92.8818 9.99949L92.8806 10.0571ZM99.5701 17.0067L99.5656 17.3056L99.5621 17.4568L99.5576 17.6116L99.5519 17.7629L99.5474 17.9141L99.5417 18.0653L99.5337 18.2094L99.5258 18.3642L99.5178 18.5154L99.5065 18.6595L99.4974 18.8107L99.486 18.9547L99.4746 19.0988L99.461 19.2428L99.4462 19.394L99.4326 19.5381L99.4178 19.6749L99.4007 19.8189L99.3837 19.963L99.3666 20.0962L99.3484 20.2402L99.3303 20.3771L99.3098 20.5139L99.2916 20.6471L99.2689 20.7804L99.2484 20.9172L99.2257 21.0468L99.2041 21.18L99.1802 21.3097L99.1552 21.4429L99.1302 21.5653L99.1052 21.6986L99.0529 21.9434L99.0234 22.0622L98.9961 22.1847L98.9654 22.3071L98.937 22.4259L98.9051 22.5448L98.8744 22.6528L98.8426 22.7644L98.8108 22.876L98.7778 22.9877L98.746 23.0957L98.713 23.2037L98.6789 23.3045L98.6426 23.4018L98.6085 23.5062L98.5698 23.6034L98.5357 23.6934L98.4971 23.7942L98.4596 23.8843L98.4209 23.9743L98.3823 24.0607L98.305 24.2299L98.2629 24.3164L98.2243 24.392L98.1822 24.4712L98.1413 24.5432L98.0992 24.6188L98.0572 24.6872L98.0151 24.7557L97.973 24.8205L97.9299 24.8889L97.8878 24.9537L97.8446 25.0113L97.7991 25.0689L97.7559 25.1229L97.7105 25.1734L97.665 25.2274L97.6218 25.2742L97.5763 25.3174L97.5309 25.3642L97.4831 25.4038L97.4377 25.447L97.3922 25.4866L97.3433 25.5226L97.2978 25.555L97.2501 25.5767L97.2046 25.6019L97.1569 25.6271L97.108 25.6487L97.0603 25.6703L97.0125 25.6811L96.9637 25.6919L96.9182 25.7063L96.8693 25.7135L96.8216 25.7207L96.7727 25.7315H94.9551L94.9301 25.7207L94.9085 25.7135L94.8858 25.7063L94.8653 25.6919L94.8426 25.6847L94.821 25.6631L94.7983 25.6523L94.7789 25.6271L94.7562 25.6055L94.7357 25.5838L94.7153 25.5586L94.6937 25.5334L94.6527 25.4686L94.6346 25.4326L94.613 25.4002L94.5948 25.3606L94.5766 25.3138L94.5584 25.2742L94.5414 25.2274L94.5232 25.1842L94.5073 25.1301L94.4902 25.0833L94.4732 25.0329L94.4584 24.9717L94.4447 24.9213L94.43 24.8637L94.4152 24.8061L94.4038 24.7485L94.3902 24.6908L94.3788 24.6332L94.3663 24.5684L94.3549 24.5072L94.3481 24.4424L94.3367 24.3776L94.3299 24.3056L94.322 24.2407L94.3152 24.1759L94.3095 24.1039L94.3026 24.0391L94.2981 23.9671L94.2947 23.9023L94.2924 23.8302L94.2879 23.7582L94.2856 23.6898V23.4018L94.2879 23.3297L94.2924 23.2649L94.2947 23.1929L94.2992 23.1209L94.3026 23.0561L94.3095 22.9877L94.3152 22.9156L94.322 22.8508L94.3299 22.786L94.3379 22.7212L94.3481 22.6492L94.3561 22.5916L94.3663 22.5268L94.3788 22.4619L94.3902 22.4043L94.4027 22.3467L94.4152 22.2891L94.43 22.2315L94.4447 22.1739L94.4584 22.1199L94.4732 22.0658L94.505 21.965L94.522 21.911L94.5402 21.8642L94.5573 21.821L94.5755 21.7778L94.613 21.7022L94.6346 21.659L94.6527 21.6265L94.6937 21.5617L94.7153 21.5365L94.7357 21.5113L94.7562 21.4861L94.7789 21.4681L94.7994 21.4465L94.8221 21.4249L94.8437 21.4141L94.8665 21.3997L94.8869 21.3889L94.9085 21.3817L94.9312 21.3709L94.9551 21.3637H96.6863L96.7806 21.3565L96.875 21.3205L96.9659 21.2773L97.0569 21.2197L97.1455 21.1404L97.2319 21.0432L97.3149 20.9352L97.399 20.802L97.4763 20.6651L97.5502 20.5103L97.6229 20.3411L97.6934 20.161L97.7605 19.9666L97.8196 19.7649L97.8787 19.5489L97.931 19.3184L97.981 19.0844L98.0242 18.8431L98.0628 18.5911L98.0969 18.3246L98.1265 18.0581L98.1492 17.7845L98.1651 17.5036L98.1788 17.2155L98.1811 17.1075L98.1833 16.9995L98.1867 16.8987V16.5746L98.1833 16.4666L98.1799 16.3657L98.1777 16.2613L98.1731 16.1569L98.1674 16.0561L98.1629 15.9516L98.1549 15.8508L98.1492 15.7464L98.1413 15.6456L98.1333 15.5412L98.122 15.4403L98.1129 15.3395L98.1015 15.2387L98.089 15.1379L98.0753 15.0406L98.0628 14.9434L98.0481 14.8426L98.0344 14.7454L98.0174 14.6554L98.0026 14.5545L97.9844 14.4645L97.9685 14.3745L97.9503 14.2845L97.931 14.1944L97.9128 14.108L97.8923 14.0216L97.8719 13.9352L97.8514 13.8488L97.8287 13.7695L97.8082 13.6903L97.7855 13.6147L97.7378 13.4599L97.7127 13.3915L97.6889 13.3194L97.6616 13.251L97.6343 13.1862L97.6093 13.1214L97.5809 13.053L97.5536 12.9954L97.524 12.9378L97.4956 12.8801L97.4672 12.8261L97.4092 12.7181L97.3774 12.6749L97.349 12.6317L97.3183 12.5849L97.2865 12.5453L97.2558 12.5021L97.2228 12.4625L97.1921 12.4264L97.1592 12.3976L97.1285 12.3616L97.0955 12.34L97.0296 12.286L96.9966 12.2644L96.9648 12.2428L96.9307 12.232L96.8989 12.2212L96.867 12.2068L96.8318 12.1996L96.7988 12.1924L96.767 12.1816H96.7318L94.9642 12.1924H94.888L94.8289 12.178L94.7732 12.1456L94.7164 12.1024L94.6641 12.0448L94.6107 11.9655L94.5777 11.9079L94.5459 11.8503L94.4982 11.7387L94.4527 11.6199L94.4254 11.5406L94.3981 11.4506L94.3754 11.3606L94.3527 11.2634L94.3311 11.159L94.3129 11.0545L94.2879 10.8925L94.2742 10.7809L94.2595 10.662L94.2458 10.482L94.239 10.3668L94.2322 10.2407L94.2288 10.1219V9.93827L94.231 9.81944L94.2356 9.69341L94.2413 9.57459L94.2492 9.45576L94.2606 9.33694L94.2742 9.21811L94.297 9.04887L94.3129 8.94805L94.3311 8.84362L94.3538 8.7428L94.3856 8.59877L94.4129 8.50875L94.4663 8.33951L94.4982 8.26749L94.5459 8.15947L94.5777 8.09825L94.6118 8.04424L94.6459 7.99023L94.68 7.94341L94.7187 7.90381L94.7562 7.8678L94.7937 7.8462L94.8312 7.82459L94.871 7.81379H94.929L94.9881 7.82099H96.6704L96.8636 7.84259L97.0523 7.90021L97.2376 7.99743L97.4195 8.13066L97.5979 8.2963L97.7719 8.49795L97.9389 8.73199L98.1026 9.00206L98.2584 9.29733L98.4084 9.625L98.5516 9.97788L98.6858 10.356L98.8142 10.7629L98.9336 11.1878L99.0427 11.6415L99.1473 12.1096L99.2382 12.5993L99.3212 13.107L99.3939 13.6291L99.4542 14.1728L99.503 14.7274L99.5417 15.3035L99.569 15.8868L99.5815 16.4738L99.5837 16.6286V17.0787L99.5701 17.0067ZM109.854 13.2366L109.85 13.4131L109.847 13.5895L109.842 13.7659L109.836 13.9424L109.828 14.1116L109.806 14.4537L109.778 14.7922L109.761 14.9578L109.742 15.1235L109.722 15.2783L109.7 15.4439L109.678 15.5988L109.653 15.75L109.629 15.9084L109.6 16.0525L109.571 16.2037L109.54 16.3477L109.508 16.4846L109.474 16.6178L109.441 16.7546L109.404 16.8879L109.366 17.0175L109.326 17.1399L109.285 17.2623L109.243 17.3812L109.2 17.4892L109.158 17.6008L109.115 17.7016L109.069 17.8025L109.021 17.8925L108.975 17.9789L108.926 18.0653L108.879 18.1445L108.828 18.2238L108.776 18.2886L108.727 18.3534L108.675 18.411L108.623 18.465L108.57 18.519L108.518 18.5622L108.465 18.6055L108.411 18.6379L108.358 18.6631L108.302 18.6811L108.249 18.7027L108.193 18.7171L108.137 18.7243H107.52L109.181 22.3683L109.208 22.4259L109.233 22.4907L109.268 22.5916L109.3 22.7032L109.318 22.7896L109.34 22.8688L109.357 22.9552L109.379 23.0921L109.393 23.1821L109.41 23.3261L109.424 23.4774L109.432 23.5746L109.435 23.6754L109.44 23.7762L109.442 23.8771V24.0787L109.435 24.2335L109.432 24.3308L109.424 24.4316L109.416 24.5324L109.406 24.626L109.393 24.7233L109.38 24.8133L109.363 24.9033L109.346 24.9897L109.318 25.1229L109.298 25.1986L109.267 25.3102L109.232 25.4146L109.205 25.4794L109.18 25.5442L109.152 25.5983L109.124 25.6523L109.096 25.6955L109.067 25.7423L109.038 25.7783L109.007 25.8071L108.975 25.8431L108.944 25.8611L108.911 25.8755L108.881 25.8863L108.848 25.8935H108.817L108.785 25.8863L108.755 25.8791L108.709 25.8539L108.678 25.8323L108.635 25.7891L108.607 25.7531L108.577 25.7135L108.55 25.6739L108.498 25.5694L105.377 18.7207H102.638L102.618 18.7315L102.583 18.7747L102.561 18.8071L102.544 18.8395L102.526 18.8827L102.498 18.9619L102.483 19.0159L102.458 19.1204L102.44 19.2284L102.433 19.3076L102.429 19.3796L102.425 19.4985V24.0067L102.422 24.1075L102.419 24.2047L102.411 24.338L102.404 24.4028L102.4 24.4676L102.393 24.5252L102.386 24.59L102.379 24.6476L102.371 24.7052L102.363 24.7629L102.352 24.8205L102.341 24.8781L102.329 24.9321L102.318 24.9861L102.306 25.0437L102.292 25.0869L102.278 25.141L102.257 25.213L102.22 25.3318L102.188 25.4182L102.157 25.4902L102.124 25.5586L102.071 25.6487L102.037 25.7027L101.998 25.7459L101.959 25.7891L101.921 25.8107L101.881 25.8323L101.842 25.8467L101.801 25.8539L101.78 25.8467H101.759L101.717 25.8323L101.679 25.8071L101.64 25.7855L101.6 25.7423L101.545 25.6703L101.507 25.6163L101.473 25.5478L101.439 25.4794L101.407 25.4002L101.392 25.3606L101.376 25.3138L101.333 25.1806L101.308 25.0761L101.283 24.9717L101.263 24.8709L101.244 24.7521L101.226 24.6404L101.211 24.518L101.196 24.3308L101.188 24.2083L101.181 24.0787V24.0103L101.179 23.9455V19.07L101.181 18.9907V18.9187L101.183 18.8503L101.186 18.7747L101.19 18.7027L101.192 18.6307L101.197 18.5586L101.199 18.4866L101.204 18.4146L101.209 18.3426L101.217 18.2022L101.224 18.1301L101.23 18.0617L101.236 17.9897L101.243 17.9213L101.25 17.8493L101.258 17.7845L101.265 17.7125L101.273 17.6476L101.281 17.5756L101.289 17.5072L101.297 17.4496L101.305 17.3848L101.325 17.2515L101.333 17.1867L101.343 17.1291L101.355 17.0643L101.366 17.0067L101.377 16.9491L101.388 16.8807L101.4 16.8231L101.414 16.769L101.439 16.6466L101.45 16.5962L101.464 16.535L101.479 16.481L101.491 16.427L101.506 16.3693L101.52 16.3153L101.563 16.1569L101.58 16.1065L101.597 16.0525L101.612 16.0057L101.628 15.9625L101.645 15.9084L101.662 15.8616L101.68 15.822L101.713 15.732L101.731 15.6888L101.749 15.6456L101.766 15.6024L101.804 15.5268L101.822 15.4835L101.84 15.4511L101.861 15.4115L101.879 15.3755L101.897 15.3431L101.919 15.3107L101.939 15.2783L101.957 15.2459L101.978 15.2207L101.999 15.1883L102.02 15.1631L102.04 15.1379L102.063 15.1055L102.083 15.0802L102.106 15.0586L102.128 15.037L102.15 15.0118L102.172 14.9902L102.195 14.9686L102.216 14.9506L102.238 14.929L102.261 14.9182L102.282 14.8966L102.305 14.8822L102.327 14.8714L102.349 14.8642L102.372 14.8498L102.395 14.8426L102.418 14.8354L102.443 14.8282L102.464 14.8174L102.487 14.8102H102.558L108.154 14.803L108.183 14.7886L108.211 14.7634L108.265 14.713L108.292 14.6698L108.319 14.6301L108.344 14.5833L108.368 14.5293L108.391 14.4753L108.423 14.3853L108.445 14.3205L108.464 14.2557L108.482 14.1836L108.499 14.108L108.516 14.036L108.53 13.9496L108.543 13.874L108.564 13.7047L108.572 13.6147L108.577 13.5247L108.585 13.3375L108.589 13.2474L108.585 13.1106L108.582 12.9774L108.574 12.8405L108.566 12.7541L108.558 12.6641L108.548 12.5777L108.535 12.4985L108.514 12.376L108.49 12.2572L108.472 12.1852L108.453 12.1204L108.432 12.0484L108.41 11.9943L108.377 11.9079L108.34 11.8359L108.315 11.7927L108.261 11.7135L108.234 11.6811L108.202 11.6451L108.182 11.6271L108.16 11.6163L108.14 11.6019H108.119L108.098 11.5946H101.763L101.734 11.5875L101.704 11.5766L101.672 11.5658L101.643 11.5406L101.615 11.5226L101.587 11.4866L101.548 11.4434L101.509 11.3894L101.482 11.3426L101.441 11.2526L101.408 11.1806L101.377 11.0977L101.355 11.0257L101.337 10.9717L101.309 10.8709L101.292 10.8061L101.268 10.6944L101.247 10.5864L101.229 10.4712L101.198 10.2299L101.191 10.1435L101.183 10.0571L101.18 9.97068L101.173 9.83745L101.169 9.67181V9.58539L101.172 9.49537L101.174 9.40895L101.179 9.32253L101.182 9.23611L101.189 9.14969L101.196 9.06327L101.209 8.93724L101.221 8.86163L101.236 8.7428L101.255 8.63117L101.269 8.55196L101.294 8.45113L101.31 8.38271L101.338 8.2855L101.388 8.13066L101.41 8.06944L101.442 7.99383L101.475 7.92181L101.501 7.8786L101.53 7.83539L101.558 7.79579L101.606 7.73817L101.634 7.71296L101.663 7.69136L101.695 7.67336L101.725 7.66255L101.754 7.65535L101.796 7.64815H108.233L108.399 7.73457L108.451 7.76697L108.505 7.80658L108.558 7.8498L108.61 7.90381L108.664 7.95782L108.716 8.01543L108.765 8.08025L108.817 8.14506L108.866 8.22428L108.915 8.2999L108.964 8.37911L109.009 8.46913L109.058 8.55916L109.104 8.65998L109.146 8.7572L109.189 8.86163L109.232 8.96965L109.273 9.09208L109.313 9.21091L109.39 9.45576L109.425 9.58899L109.463 9.72223L109.496 9.85906L109.529 10.0031L109.559 10.1471L109.588 10.2984L109.616 10.4532L109.644 10.6044L109.669 10.7593L109.691 10.9177L109.713 11.0725L109.75 11.3966L109.769 11.5622L109.783 11.7279L109.797 11.8935L109.811 12.0592L109.821 12.2284L109.829 12.4048L109.836 12.5741L109.841 12.7433L109.846 12.9198L109.848 13.0962V13.2654L109.854 13.2366ZM119.211 9.65741L119.209 9.79064L119.202 9.92027L119.188 10.1075L119.178 10.2299L119.164 10.3524L119.147 10.464L119.119 10.6332L119.084 10.7989L119.056 10.8961L119.043 10.9393L119.014 11.0329L118.993 11.0977L118.968 11.1626L118.935 11.2346L118.911 11.285L118.884 11.3318L118.845 11.3894L118.818 11.429L118.779 11.4722L118.74 11.5046L118.712 11.5262L118.68 11.5442L118.652 11.555L118.61 11.5622H115.602V23.9491L115.599 24.0787L115.588 24.266L115.58 24.3884L115.568 24.5144L115.553 24.6332L115.536 24.7521L115.518 24.8601L115.498 24.9717L115.476 25.0797L115.436 25.2274L115.422 25.2742L115.408 25.3174L115.377 25.4038L115.344 25.483L115.292 25.5875L115.257 25.6523L115.219 25.7063L115.182 25.7495L115.124 25.8035L115.084 25.8287L115.043 25.8503L115.003 25.8575L114.983 25.8647L114.962 25.8575H114.941L114.92 25.8503L114.9 25.8395L114.858 25.8215L114.78 25.7567L114.742 25.7099L114.704 25.6523L114.651 25.5622L114.602 25.4506L114.585 25.411L114.568 25.3678L114.524 25.2346L114.511 25.1806L114.497 25.1337L114.473 25.0293L114.451 24.9285L114.43 24.8205L114.412 24.698L114.397 24.5792L114.379 24.392L114.369 24.2695L114.362 24.1399L114.36 24.0751L114.357 24.0067L114.355 23.9419V11.555H111.316L111.278 11.537L111.222 11.4974L111.187 11.4614L111.152 11.4254L111.117 11.375L111.085 11.3246L111.052 11.267L111.02 11.1986L110.99 11.1301L110.945 11.0221L110.868 10.7413L110.846 10.6368L110.818 10.4676L110.801 10.3596L110.78 10.1795L110.77 10.0571L110.762 9.93467L110.755 9.80865L110.753 9.68622L110.751 9.55658L110.753 9.43055L110.76 9.30813L110.767 9.1857L110.782 9.00206L110.796 8.87963L110.813 8.76081L110.83 8.65278L110.851 8.54115L110.886 8.38271L110.925 8.23868L110.945 8.17387L110.968 8.10185L110.989 8.04784L111.012 7.99023L111.047 7.91821L111.071 7.8642L111.117 7.79579L111.146 7.75617L111.175 7.72016L111.224 7.68416L111.252 7.65895L111.294 7.64095L111.343 7.62654H118.588L118.609 7.63735H118.63L118.671 7.64815L118.711 7.67336L118.769 7.71656L118.808 7.75978L118.864 7.83539L118.898 7.893L118.934 7.96502L118.967 8.03704L118.997 8.11985L119.056 8.3071L119.084 8.40432L119.105 8.50875L119.127 8.61677L119.155 8.78601L119.176 8.97325L119.188 9.09208L119.202 9.27932L119.209 9.41255L119.211 9.53498V9.66821V9.65741ZM44.5972 8.50154L44.5994 8.64557V24.8997L44.5972 24.9969L44.5949 25.0977L44.5915 25.1878L44.5847 25.285L44.5767 25.4218L44.5699 25.519L44.5619 25.6091L44.5517 25.7027L44.5415 25.7963L44.5244 25.9295L44.5108 26.016L44.4971 26.0988L44.4835 26.1924L44.4585 26.3076L44.4426 26.394L44.4255 26.4733L44.4051 26.5525L44.3778 26.6605L44.3551 26.7361L44.3346 26.8009L44.3107 26.8729L44.2812 26.963L44.2357 27.0818L44.2016 27.161L44.1675 27.233L44.1323 27.2978L44.08 27.3915L44.0231 27.4671L43.9879 27.5139L43.9083 27.5931L43.8697 27.6255L43.8276 27.6507L43.7708 27.6795L43.7105 27.6903H43.6276L43.5889 27.6831L43.5469 27.6687L43.5082 27.6507L43.4662 27.6255L43.4275 27.5895L43.3684 27.5391L43.332 27.4923L43.2922 27.4383L43.257 27.3915L43.2206 27.3303L43.1683 27.2294L43.1365 27.1574L43.1024 27.0854L43.0694 27.0062L43.0251 26.8801L42.991 26.7721L42.9694 26.6965L42.9501 26.6245L42.9308 26.5489L42.9046 26.4372L42.8853 26.3544L42.8694 26.2716L42.8251 26.0195L42.8069 25.8863L42.7944 25.7963L42.783 25.6991L42.7762 25.6091L42.7625 25.4758L42.7523 25.3318L42.7478 25.1878L42.7409 25.0473L42.7387 24.9537V8.60237L42.7409 8.50154L42.7432 8.40432L42.7478 8.3143L42.7512 8.21348L42.758 8.12346L42.7625 8.02624L42.7716 7.93622L42.7796 7.83899L42.791 7.74897L42.8 7.65895L42.8137 7.56893L42.8251 7.48251L42.8705 7.23045L42.8853 7.15124L42.9046 7.06482L42.9308 6.95319L42.9501 6.87397L42.9694 6.80196L42.991 6.72994L43.0115 6.67233L43.0422 6.5751L43.0774 6.47428L43.1126 6.38426L43.1376 6.32665L43.1649 6.27264L43.1899 6.22223L43.2172 6.16821L43.257 6.10339L43.2991 6.04218L43.3286 6.00617L43.3718 5.95216L43.4002 5.93055L43.4446 5.88735L43.4741 5.86574L43.5048 5.84774L43.5355 5.83334L43.565 5.82253L43.5969 5.81893L43.6276 5.80813H43.731L43.7617 5.81893L43.806 5.83334L43.8379 5.84774L43.8833 5.88014L43.914 5.90175L43.9538 5.93776L43.9834 5.97377L44.0129 6.00978L44.0413 6.04579L44.0686 6.08179L44.097 6.1322L44.1357 6.20062L44.163 6.25463L44.2016 6.33025L44.2357 6.41667L44.2607 6.47428L44.2834 6.54269L44.3062 6.60751L44.3346 6.70473L44.3562 6.77315L44.3766 6.84156L44.3971 6.91358L44.4153 6.9928L44.4426 7.10803L44.4676 7.22685L44.4824 7.31327L44.4971 7.39609L44.5165 7.52572L44.5278 7.61574L44.5415 7.70576L44.5528 7.79579L44.5687 7.97942L44.5801 8.11625L44.5847 8.21348L44.5915 8.3143L44.5938 8.40432L44.5972 8.50154ZM11.542 8.55555L11.5432 8.63838V8.96605L11.542 9.05247L11.5397 9.13169L11.5352 9.21451L11.5318 9.30093L11.5272 9.38014L11.5216 9.45576L11.5147 9.54218L11.5079 9.6214L11.5 9.70062L11.4829 9.85545L11.4727 9.93467L11.4625 10.0103L11.4522 10.0895L11.4409 10.1615L11.4295 10.2335L11.4181 10.3056L11.3886 10.4496L11.3738 10.518L11.3601 10.59L11.3431 10.6548L11.326 10.7089L11.3101 10.7773L11.2931 10.8421L11.2556 10.9609L11.2374 11.0149L11.2192 11.0725L11.1987 11.1265L11.1783 11.177L11.1567 11.2274L11.1339 11.2742L11.1123 11.3174L11.0692 11.4146L11.0453 11.4506L11.0226 11.4902L10.9975 11.5262L10.9748 11.5586L10.9498 11.5911L10.9259 11.6199L10.8759 11.6739L10.852 11.7027L10.8259 11.7171L10.8009 11.7387L10.7748 11.7495L10.7497 11.7711L10.7225 11.7855L10.6986 11.7927H10.6713L10.6463 11.8035L10.619 11.8143H10.5679L10.5474 11.8035H10.5406L10.5201 11.7963H6.65536V24.7557L6.65763 24.8205V24.9861L6.65536 25.0689V25.1554L6.65195 25.2058V25.231L6.65081 25.3174L6.64513 25.3966L6.63945 25.4794L6.6349 25.555L6.62922 25.6379L6.62353 25.7207L6.61558 25.7999L6.60648 25.8791L6.59853 25.9547L6.58716 26.0268L6.57806 26.106L6.5667 26.1852L6.55647 26.2572L6.54396 26.3292L6.5326 26.4012L6.50304 26.5453L6.4894 26.6173L6.47349 26.6821L6.45758 26.7505L6.44166 26.8153L6.42461 26.8801L6.40642 26.9378L6.38937 27.0026L6.37119 27.0566L6.353 27.1142L6.3314 27.1718L6.31094 27.2258L6.29275 27.2798L6.27229 27.323L6.24956 27.3735L6.22683 27.4239L6.20637 27.4599L6.18249 27.5067L6.15976 27.5463L6.13703 27.5823L6.11429 27.6255L6.06542 27.6903L6.04041 27.7155L6.01426 27.7515L5.99039 27.7731L5.96539 27.7948L5.94038 27.8236L5.91423 27.838L5.88809 27.856L5.86308 27.8668L5.83808 27.8812L5.8108 27.892L5.78579 27.8992L5.75851 27.9064L5.7335 27.9136H5.68007L5.6562 27.9064L5.62892 27.8992L5.60392 27.892L5.57664 27.8812L5.55163 27.8668L5.52548 27.856L5.50048 27.838L5.4732 27.8236L5.44932 27.7948L5.42432 27.7731L5.39931 27.7479L5.37544 27.7155L5.3493 27.6903L5.29928 27.6255L5.23108 27.5067L5.20835 27.4599L5.18561 27.4239L5.16515 27.3735L5.14242 27.323L5.12309 27.2798L5.10263 27.2258L5.08217 27.1718L5.06171 27.1142L5.04352 27.0566L5.02534 27.0062L5.00829 26.9378L4.9901 26.8801L4.97305 26.8153L4.956 26.7505L4.94122 26.6821L4.92531 26.6173L4.91053 26.5453L4.89689 26.4733L4.88211 26.4012L4.87075 26.3292L4.85711 26.2572L4.84688 26.1852L4.82642 26.0304L4.81505 25.9583L4.80823 25.8791L4.80027 25.7999L4.79118 25.7207L4.78436 25.6379L4.77981 25.555L4.77413 25.4794L4.76844 25.3966L4.7639 25.3174L4.76276 25.231V25.2058L4.76049 25.1554L4.75821 25.0689L4.75594 24.9861V24.8205L4.75821 24.7557V24.6764L4.73889 11.7963H0.87753L0.843429 11.7927L0.813875 11.7783L0.785458 11.7639L0.754767 11.7459L0.726349 11.7243L0.697932 11.7027L0.670651 11.6739L0.642234 11.6487L0.588809 11.5838L0.561528 11.5406L0.508104 11.4614L0.481959 11.4182L0.456952 11.3714L0.383067 11.2166L0.360333 11.159L0.337599 11.0977L0.314865 11.0401L0.294404 10.9753L0.273944 10.9069L0.253483 10.8349L0.233023 10.7737L0.214836 10.698L0.194375 10.6188L0.179598 10.5468L0.160274 10.4748L0.145497 10.3956L0.129583 10.3128L0.11367 10.2335L0.102303 10.1507L0.0897991 10.0643L0.0784318 9.97788L0.0568351 9.80865L0.0466044 9.71862L0.0386476 9.6322L0.0295541 9.54218L0.0250071 9.45216L0.0181869 9.35854L0.0136405 9.26852L0.00909346 9.1785L0.004547 9.08488V8.99126L0 8.89403V8.71399L0.00227323 8.61317L0.00340984 8.52315L0.00795684 8.43313L0.0125038 8.33951L0.0170503 8.24949L0.0238705 8.15586L0.0284175 8.06224L0.037511 7.97223L0.0454678 7.8894L0.0568351 7.79579L0.0761586 7.62654L0.0875258 7.54012L0.101166 7.4573L0.112533 7.38169L0.128447 7.29526L0.14436 7.21605L0.159137 7.13683L0.178461 7.06122L0.193239 6.9856L0.213699 6.91358L0.231886 6.84156L0.252347 6.76954L0.272807 6.69753L0.293268 6.63271L0.314865 6.5679L0.337599 6.50669L0.360333 6.45267L0.383067 6.38786L0.431945 6.28704L0.455815 6.24023L0.480823 6.18622L0.506967 6.15021L0.533111 6.10339L0.587673 6.02418L0.613816 5.98817L0.641097 5.96296L0.669515 5.93416L0.696795 5.90895L0.725213 5.88014L0.75363 5.86214L0.784321 5.84053L0.812738 5.82973L0.841155 5.81893L0.875257 5.80813H10.519L10.5395 5.80093L10.5667 5.79733H10.6179L10.6452 5.80093L10.669 5.80813L10.6963 5.81893L10.7213 5.82973L10.7486 5.83334L10.7736 5.85494L10.7998 5.86574L10.8248 5.88735L10.8509 5.90895L10.8748 5.93416L10.9248 5.98817L10.9487 6.02058L10.9737 6.05298L10.9964 6.08539L11.0226 6.1214L11.0441 6.1574L11.0669 6.20062L11.0896 6.24023L11.1123 6.28704L11.1328 6.33025L11.1555 6.37706L11.1771 6.43107L11.1976 6.48509L11.2181 6.53189L11.2362 6.59311L11.2544 6.64352L11.2738 6.70473L11.2919 6.77315L11.309 6.83076L11.3249 6.89558L11.342 6.95319L11.359 7.02521L11.3727 7.09362L11.3874 7.15483L11.4158 7.29887L11.4284 7.37089L11.4397 7.4429L11.4511 7.51492L11.4625 7.59413L11.4715 7.67336L11.4829 7.74897L11.4988 7.90741L11.5068 7.98302L11.5136 8.06224L11.5204 8.14867L11.5261 8.22788L11.5307 8.3143L11.5341 8.38992L11.5386 8.47634L11.542 8.55555ZM41.1302 24.5036L41.1325 24.6116V24.9105L41.128 25.0689L41.1257 25.141L41.1223 25.2202L41.1177 25.2922L41.1143 25.3678L41.1075 25.4398L41.1041 25.5118L41.095 25.5838L41.0893 25.6631L41.0802 25.7351L41.0723 25.8071L41.0632 25.8719L41.0552 25.9439L41.045 26.016L41.0348 26.0844L41.0234 26.1564L41.012 26.2176L41.0007 26.286L40.9859 26.3508L40.9722 26.4156L40.9586 26.4733L40.9438 26.5381L40.9154 26.6605L40.8984 26.7181L40.8824 26.7757L40.8654 26.8261L40.8495 26.8801L40.8302 26.9306L40.8142 26.9846L40.7961 27.0278L40.7756 27.0818L40.7563 27.1286L40.7369 27.1682L40.7165 27.215L40.6756 27.2906L40.6551 27.3267L40.6346 27.3699L40.613 27.4059L40.5903 27.4347L40.5676 27.4707L40.5471 27.4923L40.5244 27.5175L40.4994 27.5463L40.4766 27.5715L40.4539 27.5931L40.4312 27.6147L40.4073 27.6291L40.3834 27.6471L40.3584 27.6579L40.3357 27.6687L40.2891 27.6903L40.2641 27.6939H40.1197L40.097 27.6795L40.0708 27.6687L40.0492 27.6579L40.0242 27.6471L40.0015 27.6255L39.9765 27.6147L39.9538 27.5931L39.931 27.5679L39.9083 27.5463L39.8844 27.5175L39.8628 27.4923L39.8174 27.4275L39.7969 27.3951L39.7742 27.3591L39.7526 27.3303L39.7321 27.2942L39.7128 27.251L39.6912 27.2042L39.6707 27.1682L39.6514 27.1178L39.6332 27.0746L39.615 27.0278L39.5957 26.9738L39.5775 26.927L39.5605 26.8729L39.5423 26.8189L39.5252 26.7685L39.5093 26.7073L39.4957 26.6497L39.4786 26.5921L39.4638 26.5309L39.4468 26.4588L39.3991 26.2608L36.1958 12.7361L36.1811 12.6893L36.164 12.6209L36.1458 12.5561L36.1265 12.4985L36.1083 12.4372L36.0901 12.3724L36.0526 12.2572L36.0242 12.1636L35.9924 12.0808L35.9742 12.0195L35.9617 11.9907L35.9469 11.9475L35.9299 11.9151L35.9139 11.8791L35.8946 11.8611L35.8798 11.8467L35.8582 11.8287L35.848 11.8251H35.8389L35.8276 11.8287L35.8094 11.8467L35.7957 11.8575L35.7855 11.8719L35.7684 11.8935L35.7582 11.9151L35.748 11.9367L35.7378 11.9619L35.7287 11.9907L35.7025 12.0664L35.673 12.1492L35.6559 12.196L35.6116 12.3328L35.5957 12.3868L35.5786 12.4372L35.5627 12.4985L35.5479 12.5489L35.5229 12.6425L35.5116 12.6929L32.2174 26.5201L32.1878 26.6389L32.1651 26.7181L32.1424 26.8009L32.1174 26.8801L32.081 26.9846L32.0412 27.0926L32.0128 27.1538L31.956 27.2726L31.9105 27.3483L31.8798 27.4023L31.8502 27.4491L31.8161 27.4923L31.7695 27.5463L31.7218 27.5931L31.6866 27.6183L31.6536 27.6471L31.6036 27.6687L31.5683 27.6795L31.5354 27.6903H31.5013L31.4695 27.6939H31.4069L31.3615 27.6723L31.3308 27.6579L31.2876 27.6291L31.2535 27.6147L31.2103 27.5715L31.1819 27.5463L31.1387 27.4923L31.1091 27.4563L31.0682 27.3951L31.0273 27.3303L31 27.2798L30.9625 27.2006L30.9363 27.1394L30.9136 27.0818L30.8875 27.0242L30.8647 26.9594L30.842 26.8945L30.8215 26.8261L30.8011 26.7613L30.7818 26.6893L30.7613 26.6173L30.7408 26.5453L30.7226 26.4661L30.6976 26.3508L30.6817 26.2644L30.6601 26.142L30.6465 26.0556L30.6283 25.9223L30.6147 25.8323L30.5942 25.6523L30.5862 25.5586L30.5783 25.4686L30.5715 25.3678L30.5635 25.231L30.559 25.1337L30.5578 25.0437L30.5544 24.8997V24.4568L30.559 24.3704V24.356L30.5612 24.2912L30.5692 24.1363L30.576 24.0571L30.5828 23.9779L30.5885 23.8987L30.5965 23.8194L30.6044 23.7402L30.6135 23.6682L30.6249 23.5962L30.634 23.517L30.659 23.3729L30.6704 23.3081L30.684 23.2361L30.6976 23.1713L30.7124 23.0993L30.7295 23.0381L30.7408 22.9841L34.1623 8.43673L34.1998 8.2891L34.2396 8.13786L34.2794 7.99383L34.3203 7.85699L34.4067 7.59413L34.4499 7.46091L34.4953 7.34928L34.5908 7.10803L34.6408 7L34.6897 6.89197L34.7397 6.79475L34.7909 6.69753L34.8432 6.60751L34.9512 6.43827L35.008 6.35545L35.0603 6.28344L35.1171 6.22223L35.174 6.15381L35.2319 6.10339L35.2888 6.05298L35.3479 5.99897L35.407 5.96296L35.4672 5.91975L35.5263 5.88735L35.5854 5.86214L35.6457 5.84413L35.7048 5.82973L35.765 5.82253L35.8253 5.81893H35.9446L36.0651 5.84774L36.122 5.87654L36.1822 5.90175L36.2413 5.93416L36.3004 5.97377L36.3573 6.00978L36.4164 6.06379L36.4755 6.1178L36.53 6.17541L36.588 6.24023L36.6448 6.30865L36.6994 6.38426L36.7562 6.46348L36.7903 6.52109L36.8244 6.5751L36.8585 6.63271L36.8926 6.69393L36.9245 6.75514L36.9586 6.81996L36.9915 6.88838L37.0222 6.96039L37.0552 7.0324L37.0859 7.10442L37.1177 7.17644L37.1461 7.25206L37.1768 7.33127L37.2052 7.4105L37.2359 7.49692L37.2621 7.57253L37.3178 7.75257L37.345 7.83899L37.37 7.92541L37.3939 8.02624L37.4212 8.11625L37.4439 8.21348L37.4678 8.3143L40.8836 22.7608L40.8984 22.8148L40.9154 22.8868L40.9325 22.9517L40.9472 23.0237L40.9927 23.2397L41.0063 23.3153L41.02 23.3874L41.045 23.5458L41.0586 23.6286L41.0723 23.7258L41.0973 23.9635L41.1052 24.0607L41.1155 24.2119L41.1246 24.3596L41.1302 24.5036ZM30.5999 14.1872L28.065 24.9861L28.0457 25.0617L28.0207 25.159L27.9968 25.2562L27.9718 25.357L27.9196 25.5442L27.8923 25.6379L27.8639 25.7207L27.8366 25.8107L27.8082 25.8971L27.7797 25.9835L27.7502 26.0628L27.7195 26.1492L27.6888 26.2284L27.657 26.3004L27.6263 26.3724L27.5933 26.448L27.5626 26.5201L27.5285 26.5849L27.4956 26.6569L27.4615 26.7217L27.4274 26.7829L27.3921 26.8477L27.3569 26.9054L27.2864 27.0134L27.25 27.0746L27.2125 27.1286L27.1739 27.1826L27.1341 27.2294L27.0966 27.2798L27.0579 27.323L27.0193 27.3591L26.9784 27.4023L26.9386 27.4383L26.8977 27.4743L26.8579 27.5067L26.817 27.5391L26.7772 27.5679L26.7362 27.5931L26.6965 27.6111L26.6544 27.6291L26.6135 27.6507L26.5294 27.6795H26.4896L26.4475 27.6903L26.3634 27.6939H26.2838L26.2452 27.6831L26.2065 27.6687L26.1668 27.6615L26.127 27.6507L26.0906 27.6363L26.0508 27.6183L26.011 27.6003L25.9724 27.5715L25.936 27.5499L25.8951 27.5283L25.8587 27.4923L25.8212 27.4671L25.7826 27.4347L25.7439 27.3951L25.6325 27.2798L25.5984 27.2294L25.5609 27.1862L25.5234 27.1394L25.4529 27.0386L25.4188 26.9846L25.3483 26.8657L25.3142 26.8081L25.2813 26.7397L25.2494 26.6749L25.2153 26.6101L25.1847 26.5381L25.1528 26.4733L25.1233 26.4012L25.0914 26.322L25.0608 26.2428L25.0323 26.1672L25.0017 26.088L24.9732 26.0087L24.9448 25.9223L24.9175 25.8395L24.8914 25.7495L24.8641 25.6631L24.8368 25.573L24.8118 25.4794L24.7879 25.3858L24.7629 25.285L24.7379 25.1878L22.2395 14.3529L19.7831 25.0617L19.7569 25.159L19.7319 25.2562L19.7069 25.357L19.6819 25.447L19.6569 25.5442L19.6296 25.6379L19.5728 25.8107L19.516 25.9835L19.4853 26.0628L19.4784 26.0844L19.4557 26.1492L19.4239 26.2284L19.3943 26.3004L19.3625 26.3724L19.3284 26.448L19.2977 26.5201L19.2659 26.5849L19.2329 26.6569L19.1988 26.7217L19.1647 26.7829L19.1283 26.8477L19.0942 26.9054L19.0613 26.9594L19.0238 27.017L18.9862 27.0746L18.9465 27.1286L18.9101 27.1826L18.8703 27.2294L18.8339 27.2798L18.793 27.323L18.7544 27.3591L18.7123 27.4023L18.6737 27.4383L18.635 27.4743L18.593 27.5067L18.5543 27.5391L18.5122 27.5679L18.4713 27.5931L18.4315 27.6111L18.3906 27.6291L18.3497 27.6507L18.3088 27.6615L18.2667 27.6795H18.2247L18.1837 27.6903L18.0996 27.6939H18.0212L17.9825 27.6831L17.9416 27.6687L17.903 27.6615L17.8643 27.6507L17.8245 27.6363L17.787 27.6183L17.7484 27.6003L17.7086 27.5715L17.6711 27.5499L17.6324 27.5283L17.5563 27.4671L17.5176 27.4347L17.4813 27.3951L17.4438 27.3591L17.3699 27.2798L17.3324 27.2294L17.2971 27.1862L17.2607 27.1394L17.2255 27.089L17.188 27.0386L17.155 26.9846L17.1209 26.927L17.0846 26.8657L17.0505 26.8081L17.0186 26.7397L16.9527 26.6101L16.9209 26.5381L16.8868 26.4733L16.8572 26.4012L16.8277 26.322L16.7981 26.2428L16.7674 26.1672L16.739 26.088L16.7106 26.0087L16.681 25.9223L16.6549 25.8395L16.6276 25.7495L16.6003 25.6631L16.5742 25.573L16.5492 25.4794L16.5242 25.3858L16.5003 25.285L16.4776 25.1914L13.6551 13.2546L13.2323 11.4722L13.0777 10.8169L13.0629 10.7593L13.0402 10.6728L13.0243 10.608L12.9902 10.464L12.9765 10.3992L12.9618 10.3272L12.9481 10.2515L12.9333 10.1759L12.9208 10.0967L12.9095 10.0247L12.8958 9.94547L12.8788 9.82305L12.8674 9.72223L12.856 9.6322L12.8458 9.53498L12.8333 9.39095L12.8276 9.28653L12.8219 9.1893L12.8174 9.11009L12.814 8.98766L12.8106 8.89043V8.60237L12.814 8.50154V8.40432L12.8185 8.3143L12.8254 8.21348L12.8288 8.11625L12.8401 7.97942L12.8685 7.70576L12.8856 7.57253L12.8992 7.48251L12.9129 7.39609L12.9265 7.31327L12.9436 7.22685L12.9686 7.10803L12.9947 6.9928L13.022 6.88478L13.0425 6.80555L13.0652 6.73354L13.1016 6.61831L13.1504 6.48509L13.2016 6.35545L13.2391 6.27983L13.2925 6.17541L13.3335 6.1106L13.3926 6.02418L13.4358 5.97377L13.4767 5.93416L13.5199 5.89815L13.5847 5.85494L13.6483 5.81893H13.6938L13.737 5.80813L13.7825 5.81893L13.8472 5.82973L13.8904 5.84774L13.9336 5.87654L13.978 5.90895L14.0189 5.94496L14.0598 5.99177L14.1007 6.03858L14.1428 6.0962L14.1814 6.16461L14.2383 6.26543L14.2746 6.34465L14.3258 6.47068L14.3599 6.5607L14.3917 6.65432L14.4224 6.75154L14.452 6.85237L14.4792 6.96399L14.4963 7.03601L17.7336 20.7011L17.7563 20.7912L17.7734 20.8524L17.7893 20.91L17.8052 20.9784L17.8325 21.0612L17.8507 21.1224L17.87 21.1764L17.8882 21.2305L17.9064 21.2881L17.9257 21.3421L17.9473 21.3997L17.9757 21.4861L17.9962 21.5401L18.0041 21.5653L18.0155 21.5833L18.0246 21.6013L18.036 21.6229L18.0564 21.6445L18.0769 21.6662L18.0928 21.677H18.1121L18.1235 21.6662L18.1349 21.6554L18.1462 21.6518L18.1576 21.6301L18.169 21.6193L18.186 21.5833L18.194 21.5653L18.2099 21.5221L18.2213 21.4897L18.2394 21.4321L18.2599 21.3745L18.2804 21.3313L18.2985 21.2773L18.3156 21.2232L18.3395 21.144L18.3645 21.0612L18.3895 20.9784L18.4031 20.9208L18.4202 20.8668L18.4315 20.8056L21.512 7.61574L21.5279 7.54733L21.5575 7.4393L21.5802 7.38169L21.6166 7.28086L21.6393 7.21605L21.662 7.15483L21.6905 7.10442L21.7291 7.02521L21.7564 6.9712L21.7837 6.92798L21.8269 6.86317L21.8575 6.82716L21.9007 6.77675L21.9326 6.74074L21.9633 6.71913L21.9951 6.69393L22.0258 6.67233L22.0565 6.66152L22.0906 6.64352L22.1372 6.63271L22.1701 6.62911H22.2497L22.2861 6.61831L22.3202 6.62911H22.3543L22.3872 6.64352L22.4202 6.66152L22.4543 6.67593L22.485 6.69753L22.5168 6.72634L22.5509 6.75514L22.5816 6.79115L22.6123 6.82716L22.643 6.87037L22.6714 6.91718L22.7169 6.9928L22.7453 7.04321L22.7726 7.10442L22.7965 7.16204L22.8226 7.21965L22.8487 7.28447L22.8715 7.35648L22.8942 7.4285L22.9135 7.50052L22.9351 7.58334L22.9624 7.68416L23.0113 7.875L23.0886 8.18107L23.1204 8.33591L26.0133 20.7587V20.7659L26.0281 20.82L26.0451 20.8848L26.0599 20.9424L26.0633 20.9496L26.0804 21L26.0974 21.0612L26.1224 21.144L26.1509 21.2377L26.1713 21.2881L26.1997 21.3673L26.2225 21.4285L26.2406 21.4861L26.252 21.5221L26.2634 21.5509L26.2804 21.5869L26.2884 21.6013L26.3077 21.6301L26.3179 21.6409L26.343 21.6662L26.3543 21.677H26.3736L26.393 21.6626L26.4043 21.6554L26.4237 21.6301L26.4339 21.6193L26.4441 21.5977L26.4543 21.5761L26.4657 21.5509L26.4725 21.5329L26.493 21.4609L26.5157 21.3997L26.5351 21.3457L26.551 21.3025L26.5782 21.2232L26.5953 21.1728L26.6442 21L26.6612 20.9496L26.676 20.892L26.6896 20.8344L26.7124 20.7407L29.9906 6.9856L30.0088 6.90638L30.0361 6.79836L30.0815 6.65432L30.1304 6.51749L30.1623 6.42387L30.2145 6.30865L30.2714 6.19702L30.3259 6.10339L30.368 6.04218L30.4066 5.99177L30.4487 5.94496L30.5101 5.89454L30.5544 5.86214L30.5965 5.83334L30.659 5.81893L30.7022 5.80813H30.7465L30.7897 5.81893H30.8318L30.8738 5.84053L30.9182 5.86574L30.9613 5.90175L31.0205 5.96296L31.0625 6.00617L31.1046 6.05658L31.1432 6.1178L31.1989 6.20782L31.2353 6.28704L31.2876 6.39506L31.3217 6.48868L31.3706 6.61831L31.3956 6.70473L31.4263 6.80916L31.4479 6.88117L31.4729 6.9928L31.4922 7.07202L31.5081 7.15124L31.5252 7.23766L31.5399 7.31687L31.5536 7.40329L31.5752 7.52932L31.5877 7.61934L31.6024 7.75978L31.6127 7.8498L31.624 7.98302L31.6331 8.08025L31.6377 8.17747L31.6434 8.26749L31.6491 8.41153L31.6513 8.51235L31.6536 8.60237V8.96605L31.6513 9.05247L31.6491 9.13169L31.6445 9.21451L31.6411 9.29012L31.6377 9.37295L31.6309 9.45216L31.6195 9.60699L31.6093 9.68622L31.599 9.76543L31.5911 9.84105L31.5809 9.91307L31.5683 9.98509L31.557 10.0571L31.5456 10.1291L31.532 10.2011L31.5172 10.2732L31.5024 10.3416L31.4876 10.4064L31.4717 10.4712L31.4592 10.5216L31.4444 10.5828L31.399 10.7737L30.5999 14.1836V14.1872ZM57.5601 22.642L57.5578 22.7284V22.894L57.5544 23.0597L57.5521 23.1461L57.5498 23.2289L57.5453 23.3153L57.5419 23.3945L57.5373 23.481L57.5339 23.5638L57.5294 23.6466L57.5237 23.7258L57.5169 23.8122L57.51 23.8915L57.5044 23.9779L57.4964 24.0571L57.4896 24.1327L57.4816 24.2155L57.4737 24.2984L57.4646 24.3776L57.4543 24.4532L57.443 24.5324L57.4339 24.6116L57.4225 24.6908L57.4032 24.8457L57.3907 24.9177L57.3782 24.9969L57.3668 25.0689L57.3532 25.141L57.3384 25.2202L57.327 25.2922L57.3123 25.357L57.2975 25.429L57.2827 25.501L57.2668 25.573L57.252 25.6379L57.2361 25.6991L57.2293 25.7279L57.2191 25.7747L57.202 25.8395L57.1861 25.9079L57.1702 25.9655L57.1508 26.0304L57.1315 26.0952L57.1133 26.1528L57.0792 26.2716L57.0599 26.3292L57.0406 26.3868L57.0201 26.448L57.0019 26.4985L56.9815 26.5597L56.9599 26.6101L56.9394 26.6641L56.919 26.7145L56.8962 26.7613L56.8758 26.8153L56.853 26.8585L56.8326 26.9054L56.7871 26.9954L56.7644 27.0422L56.7416 27.0818L56.7325 27.0962L56.7178 27.1178L56.6723 27.2006L56.6473 27.2366L56.6211 27.2726L56.5223 27.4023L56.4972 27.4275L56.4484 27.4815L56.4211 27.5067L56.3961 27.5283L56.3711 27.5499L56.3438 27.5715L56.3188 27.5931L56.2938 27.6039L56.2665 27.6255L56.2415 27.6363L56.2142 27.6507L56.1881 27.6579L56.1608 27.6687L56.1358 27.6795H56.1085L56.0551 27.6939H56.0278L56.0005 27.7047H55.9744L55.8948 27.6939H55.855L55.8152 27.6795L55.7368 27.6507L55.6993 27.6291L55.6606 27.6111L55.6243 27.5823L55.5833 27.5607L55.547 27.5355L55.4901 27.4815L55.456 27.4455L55.4208 27.4095L55.3662 27.3483L55.3162 27.2834L55.2469 27.1934L55.2003 27.1142L55.165 27.0566L55.1332 27.0062L55.0991 26.9378L49.0928 14.8642L48.6688 14.108L48.6143 14.0216L48.5779 13.9676L48.5483 13.9316L48.5188 13.91L48.4904 13.8884L48.4597 13.8668H48.3869L48.3619 13.91L48.3414 13.964L48.3198 14.0468L48.3085 14.1188L48.296 14.2088L48.2846 14.3205L48.2801 14.3853L48.2744 14.4861L48.271 14.5833L48.2653 14.6806L48.2607 14.7778L48.2562 14.875V14.9722L48.2505 15.073L48.246 15.1739V15.2747L48.2426 15.3719L48.238 15.4727L48.2357 15.57L48.2346 15.6672L48.2323 15.7716V15.8688L48.2301 15.9696V16.0669L48.2278 16.1677V24.8097L48.2255 24.9429L48.2244 25.0437L48.2221 25.141L48.2175 25.2418L48.2107 25.3318L48.205 25.429L48.1937 25.5658L48.1846 25.6631L48.1698 25.7963L48.1516 25.9295L48.1403 26.016L48.1243 26.106L48.1096 26.1924L48.0959 26.2716L48.0789 26.3544L48.0527 26.4733L48.0334 26.5525L48.0038 26.6605L47.9834 26.7361L47.9118 26.963L47.889 27.0242L47.8663 27.089L47.8424 27.1466L47.8038 27.2258L47.7765 27.2798L47.7504 27.3303L47.6958 27.4239L47.6697 27.4599L47.6401 27.5031L47.6117 27.5355L47.5685 27.5787L47.5389 27.6039L47.5094 27.6255L47.4639 27.6579L47.4332 27.6687L47.3878 27.6903L47.3582 27.6939H47.2059L47.1627 27.6687L47.1309 27.6579L47.0854 27.6291L47.0547 27.6039L47.0263 27.5787L46.9695 27.5139L46.9399 27.4779L46.9103 27.4419L46.8842 27.4059L46.8546 27.3591L46.8274 27.305L46.791 27.233L46.7637 27.1718L46.7387 27.1178L46.7148 27.0566L46.6921 26.9954L46.6694 26.9306L46.6466 26.8657L46.6262 26.8045L46.6068 26.7289L46.5853 26.6569L46.5659 26.5849L46.5466 26.5057L46.5227 26.3868L46.5057 26.3112L46.4898 26.2284L46.475 26.142L46.4545 26.016L46.4409 25.9223L46.425 25.7963L46.4136 25.6991L46.4045 25.6091L46.3988 25.5118L46.3897 25.4218L46.3818 25.2778L46.375 25.141L46.3715 25.0437L46.3681 24.8997V11.483L46.3738 11.3138L46.375 11.2274L46.3772 11.1409L46.3818 11.0689L46.3841 10.9825L46.3886 10.8961L46.3943 10.8169L46.3988 10.7305L46.4022 10.6548L46.4091 10.5684L46.4147 10.4892L46.4204 10.4064L46.4273 10.3452L46.4295 10.3272L46.4352 10.2515L46.4443 10.1651L46.4523 10.0859L46.4579 10.0391L46.4625 10.0067L46.4704 9.93107L46.4807 9.85185L46.4898 9.76903L46.5011 9.68982L46.5125 9.6142L46.5227 9.54218L46.5341 9.46656L46.5466 9.39095L46.5602 9.31173L46.5841 9.16769L46.5989 9.09568L46.6114 9.02367L46.6262 8.95165L46.641 8.89043L46.6557 8.81841L46.6716 8.7464L46.6876 8.68879L46.6932 8.65998L46.7046 8.61317L46.7205 8.54836L46.7376 8.48354L46.7535 8.42593L46.7705 8.35751L46.7887 8.29269L46.808 8.23509L46.8262 8.17747L46.8444 8.11625L46.8626 8.05865L46.8819 8.00103L46.9035 7.93982L46.924 7.8894L46.9422 7.83539L46.9626 7.77778L46.9842 7.72377L47.0058 7.67336L47.0263 7.62654L47.049 7.57253L47.0718 7.52932L47.1388 7.39249L47.1616 7.35288L47.1627 7.34568L47.1843 7.30607L47.2082 7.27006L47.232 7.22685L47.257 7.18724L47.2798 7.15124L47.3025 7.11523L47.3287 7.08282L47.3525 7.05041L47.3775 7.018L47.4025 6.9928L47.4287 6.96399L47.4525 6.93158L47.4787 6.90638L47.5014 6.88838H47.5037L47.5287 6.86317L47.556 6.84156L47.581 6.81996L47.6083 6.80555L47.6356 6.78395L47.6594 6.77315L47.6856 6.75514L47.7401 6.72994L47.7651 6.71913L47.872 6.69393H48.0152L48.0539 6.69753L48.0914 6.70473L48.13 6.71913L48.1687 6.72994L48.2073 6.75154L48.2448 6.77315L48.2812 6.78755L48.3198 6.81636L48.3267 6.81996L48.3585 6.84156L48.4324 6.90638L48.4665 6.94239L48.5029 6.97839L48.537 7.018L48.5892 7.08282L48.6245 7.12963L48.6597 7.17284L48.6938 7.21965L48.7257 7.27366L48.7598 7.33127L48.7927 7.38529L48.8268 7.4501L54.8263 19.5381L55.2594 20.3122L55.2821 20.3482L55.2878 20.3591L55.306 20.3879L55.3253 20.4239L55.3458 20.4383L55.3651 20.4671L55.3833 20.4887L55.4037 20.4995L55.4253 20.5211L55.456 20.5319L55.4765 20.5463H55.5242L55.5504 20.5247L55.5686 20.4887L55.5902 20.4203L55.6027 20.3591L55.614 20.287L55.6254 20.2006L55.6356 20.089L55.639 20.0242L55.6459 19.9234L55.6493 19.8261L55.6538 19.7253L55.6584 19.6281L55.6629 19.5309L55.6663 19.4336L55.6709 19.3364L55.6743 19.2392L55.6766 19.1384L55.6811 19.0376L55.6834 18.9367L55.6845 18.8395L55.6891 18.7387L55.6913 18.6415V18.5442L55.6936 18.4398L55.6947 18.3426V18.2418L55.6981 18.1482V9.49177L55.7016 9.40175L55.7038 9.30453L55.7084 9.2037L55.7118 9.11368L55.7186 9.01646L55.7243 8.92644L55.7334 8.83642L55.7402 8.7392L55.7516 8.64918L55.7618 8.55916L55.772 8.46554L55.7845 8.38271L55.7993 8.29269L55.8198 8.16667L55.8357 8.08385L55.8607 7.96502L55.88 7.88581L55.8982 7.80658L55.9164 7.73457L55.9369 7.66255L55.9573 7.59054L55.9823 7.51132L56.0142 7.4285L56.0596 7.30247L56.1085 7.19084L56.1437 7.11883L56.196 7.02881L56.2335 6.96759L56.2699 6.91718L56.3074 6.87397L56.3859 6.79115L56.4245 6.76595L56.4654 6.74074L56.5052 6.72274L56.545 6.70834L56.5859 6.69753H56.6655L56.7087 6.70834L56.7473 6.72274L56.7882 6.74074L56.8292 6.76595L56.8678 6.79115L56.9462 6.87397L56.9838 6.91718L57.0201 6.96759L57.0576 7.02881L57.0929 7.09723L57.1258 7.15844L57.1599 7.23045L57.194 7.30247L57.2259 7.38889L57.2566 7.47531L57.2827 7.55813L57.3054 7.62295L57.327 7.69496L57.3452 7.76697L57.3657 7.83899L57.3839 7.91821L57.4089 8.03704L57.4259 8.11985L57.443 8.19908L57.4566 8.29269L57.4782 8.41512L57.4896 8.50514L57.5009 8.59516L57.51 8.69239L57.5214 8.78241L57.5294 8.87243L57.5385 9.01646L57.5476 9.15329L57.5521 9.25052L57.5555 9.39455L57.5578 9.49177V22.5664L57.5601 22.642Z" fill="white"/>
<path d="M1.28106 52.269C1.0445 52.2944 0.811682 52.0772 0.617227 51.6497C0.433395 51.2145 0.291333 50.6261 0.206879 49.9501C0.110407 49.1831 0.0628864 48.3631 0.0670651 47.5375C0.0670651 46.6517 0.114807 45.8308 0.206879 45.125C0.301225 44.412 0.439902 43.8539 0.62291 43.4398C0.804781 43.0329 1.02985 42.8277 1.29583 42.8277C1.53392 42.8036 1.76818 43.0219 1.96421 43.4506C2.15063 43.8647 2.29272 44.43 2.39161 45.1394C2.49164 45.8488 2.54052 46.6517 2.54052 47.5411C2.54052 48.4269 2.49164 49.2371 2.39161 49.9501C2.29918 50.6297 2.14981 51.2162 1.95967 51.6461C1.75959 52.0734 1.52226 52.2913 1.28106 52.269ZM0 55.9923V43.0797H0.34783V49.8133H0.38875V55.9923H0ZM1.239 51.1312C1.43679 51.1312 1.60274 50.9763 1.7346 50.6631C1.86969 50.3323 1.97221 49.8864 2.03014 49.3776C2.09607 48.8302 2.13017 48.2181 2.13017 47.5411C2.13017 46.8606 2.09721 46.2628 2.03241 45.7191C1.97494 45.2086 1.87138 44.7628 1.7346 44.4372C1.58818 44.1053 1.41093 43.938 1.23104 43.9619C1.02644 43.9619 0.868436 44.1168 0.736579 44.4192C0.605859 44.7253 0.50924 45.143 0.443312 45.6867C0.375076 46.2806 0.341939 46.9092 0.345556 47.5411C0.345556 48.2397 0.37852 48.8482 0.443312 49.3956C0.508103 49.9357 0.60586 50.3606 0.738853 50.6703C0.869573 50.9763 1.03667 51.1312 1.239 51.1312ZM4.62181 52.4275C4.33309 52.4275 4.08529 52.2186 3.88182 51.8153C3.67689 51.403 3.51357 50.8131 3.41123 50.1157C3.29776 49.335 3.24142 48.4833 3.24641 47.624C3.24641 46.6878 3.30324 45.8344 3.4135 45.1142C3.5249 44.394 3.6829 43.8395 3.88637 43.4398C4.09325 43.0401 4.33764 42.8385 4.62067 42.8385C4.90485 42.8385 5.15947 43.0437 5.36407 43.4506C5.56981 43.8539 5.72668 44.4156 5.83467 45.1394C5.94379 45.8596 5.99835 46.6878 5.99835 47.624C5.99835 48.5602 5.94379 49.4172 5.83467 50.1409C5.72554 50.8611 5.56754 51.4192 5.36066 51.8225C5.13706 52.2385 4.88102 52.4469 4.62181 52.4239V52.4275ZM4.62181 51.2392C4.94349 51.2392 5.18448 50.9043 5.34134 50.231C5.49934 49.5576 5.57777 48.6862 5.57777 47.6168C5.57777 46.5509 5.4982 45.6471 5.33906 44.9882C5.1822 44.34 4.94236 44.0159 4.62181 44.0159C4.43132 43.9935 4.24325 44.1569 4.08302 44.484C3.94054 44.7977 3.83089 45.2391 3.76815 45.7515C3.69995 46.2917 3.66585 46.911 3.66585 47.6168C3.66585 48.7114 3.74542 49.5936 3.90796 50.2526C4.06824 50.9115 4.30581 51.2356 4.61954 51.2356L4.62181 51.2392ZM7.42604 51.9774L6.56215 42.8313L6.94636 42.8385L7.61701 49.9357L8.28993 42.8385H8.64117L9.31409 49.9357L9.99043 42.8385H10.3735L9.50961 51.9738H9.17428L8.46726 44.6965L7.7625 51.9702H7.42718L7.4249 51.9774H7.42604ZM12.2741 52.4275C12.0012 52.4275 11.7648 52.2258 11.5648 51.8369C11.3637 51.4354 11.2028 50.8609 11.101 50.1806C10.9858 49.3953 10.9293 48.5364 10.9362 47.6708C10.9362 46.7129 10.9907 45.8236 11.0987 45.0998C11.2078 44.376 11.3601 43.8143 11.5568 43.4254C11.7557 43.0329 11.9887 42.8385 12.257 42.8385C12.5264 42.8385 12.7685 43.0437 12.9629 43.4578C13.1584 43.8683 13.305 44.4552 13.4062 45.2258C13.5051 45.9928 13.5506 46.911 13.5426 47.9768H13.1527V47.5411C13.147 46.3601 13.0675 45.4707 12.9174 44.8729C12.7697 44.2716 12.5525 43.9727 12.265 43.9727C11.9774 43.9727 11.7341 44.2896 11.5738 44.9197C11.4147 45.5535 11.3351 46.4609 11.3351 47.6312C11.3351 48.8014 11.4147 49.6656 11.5738 50.2994C11.733 50.9295 11.9603 51.2392 12.2547 51.2392C12.4548 51.2392 12.6298 51.0952 12.7776 50.7927C12.9319 50.4716 13.0548 50.02 13.1323 49.4892L13.4869 49.9321C13.3861 50.685 13.2163 51.3249 12.9995 51.7691C12.7826 52.2132 12.5288 52.4413 12.2706 52.4239H12.2741V52.4275ZM11.2056 47.9732V46.9362H13.3403V47.9732H11.2056ZM14.4633 51.9774V42.9069H14.8146V45.089L14.7464 44.8081C14.778 44.5452 14.82 44.2959 14.8714 44.0663C14.9172 43.8519 14.9736 43.6622 15.0385 43.5046C15.1144 43.2945 15.2029 43.1352 15.2988 43.0365C15.4834 42.8242 15.6829 42.7794 15.8751 42.9069V44.0663C15.7627 43.9821 15.6464 43.9625 15.5318 44.0087C15.4056 44.0574 15.2865 44.2199 15.1885 44.4768C15.0961 44.6979 15.0227 44.9889 14.9748 45.323C14.926 45.6471 14.8953 45.9928 14.8782 46.3673C14.8623 46.7274 14.8555 47.0874 14.8555 47.4475V51.9774H14.4633ZM17.8837 52.4275C17.604 52.4275 17.3608 52.2258 17.155 51.8369C16.9504 51.4408 16.7913 50.8899 16.6788 50.1806C16.5651 49.4676 16.5083 48.6322 16.5083 47.6708C16.5083 46.7129 16.5651 45.8236 16.6765 45.0998C16.7879 44.376 16.9459 43.8143 17.1471 43.4254C17.3655 43.022 17.615 42.8188 17.8677 42.8385C18.144 42.8385 18.3929 43.0437 18.593 43.4578C18.793 43.8683 18.9453 44.4552 19.0476 45.2258C19.1499 45.9928 19.1977 46.911 19.1886 47.9768H18.7896V47.5411C18.7828 46.3601 18.7021 45.4707 18.5475 44.8729C18.3952 44.2716 18.1724 43.9727 17.8768 43.9727C17.5836 43.9727 17.3335 44.2896 17.1675 44.9197C17.005 45.5535 16.9231 46.4609 16.9231 47.6312C16.9231 48.8014 17.005 49.6656 17.1675 50.2994C17.3335 50.9295 17.5654 51.2392 17.8677 51.2392C18.0723 51.2392 18.2519 51.0952 18.4043 50.7927C18.5622 50.4768 18.6884 50.0245 18.768 49.4892L19.1317 49.9321C19.0192 50.7243 18.8521 51.3364 18.6316 51.7757C18.4068 52.2127 18.1474 52.4375 17.8837 52.4239V52.4275ZM16.7856 47.9732V46.9362H18.9794V47.9732H16.7856ZM21.1562 52.4275C20.8914 52.4275 20.664 52.215 20.4776 51.8009C20.2872 51.3659 20.1378 50.7745 20.0457 50.0905C19.9424 49.3227 19.8912 48.4945 19.8956 47.66C19.8956 46.7562 19.9456 45.9568 20.0434 45.2366C20.1434 44.5165 20.2866 43.9511 20.4719 43.537C20.668 43.1084 20.9021 42.889 21.1403 42.9105C21.4006 42.9105 21.6325 43.1157 21.8144 43.5262C21.9962 43.9403 22.1338 44.502 22.227 45.2186C22.3225 45.9316 22.3691 46.7454 22.3691 47.66C22.3691 48.571 22.3225 49.3668 22.2304 50.0905C22.136 50.8107 21.9996 51.376 21.8189 51.8009C21.6251 52.2306 21.3926 52.4492 21.1562 52.4239V52.4275ZM21.1949 51.2824C21.3733 51.3041 21.549 51.1396 21.695 50.8143C21.8312 50.4856 21.934 50.0373 21.9905 49.5252C22.0553 48.9743 22.0883 48.3513 22.0883 47.6528C22.0914 47.0163 22.0583 46.3832 21.9905 45.7839C21.9342 45.2745 21.8313 44.8296 21.695 44.5057C21.5511 44.1865 21.3783 44.0246 21.2028 44.0447C21.0223 44.0262 20.8447 44.1943 20.697 44.5237C20.5599 44.8545 20.4564 45.3051 20.3992 45.8199C20.3335 46.4094 20.3016 47.0313 20.3048 47.6564C20.3048 48.3405 20.3366 48.9599 20.4014 49.5108C20.46 50.0234 20.5633 50.4728 20.6993 50.8071C20.8431 51.1361 21.0175 51.3034 21.1949 51.2824ZM22.0872 52.1754V45.3914H22.0451V40.1559H22.435V52.1754H22.0872ZM26.1838 52.4275C25.9474 52.4499 25.715 52.2302 25.5211 51.8009C25.3368 51.3619 25.1944 50.77 25.1096 50.0905C25.0137 49.3169 24.9665 48.4911 24.971 47.66C24.971 46.7634 25.0176 45.9316 25.1096 45.2222C25.2051 44.502 25.3427 43.9403 25.5257 43.5298C25.7239 43.1022 25.96 42.8853 26.1997 42.9105C26.4657 42.9105 26.6817 43.1193 26.8681 43.537C27.0534 43.9547 27.1955 44.5237 27.2944 45.2366C27.3944 45.9568 27.4444 46.7634 27.4444 47.66C27.4444 48.5566 27.3944 49.3704 27.2944 50.0905C27.2024 50.775 27.053 51.3666 26.8624 51.8009C26.6626 52.2301 26.4251 52.4481 26.1838 52.4239V52.4275ZM24.905 52.1754V40.1559H25.2949V45.3914H25.2529V52.1754H24.905ZM26.144 51.2824C26.3418 51.2824 26.5066 51.1204 26.6396 50.8035C26.7752 50.4698 26.8778 50.0199 26.9352 49.5072C27.0011 48.9599 27.0341 48.3405 27.0341 47.6564C27.0341 46.9722 27.0022 46.3637 26.9374 45.8199C26.8802 45.3051 26.7767 44.8545 26.6396 44.5237C26.4933 44.1907 26.3161 44.0221 26.1361 44.0447C25.9315 44.0447 25.7723 44.1996 25.6405 44.5057C25.5057 44.8319 25.4041 45.2764 25.3483 45.7839C25.2824 46.3241 25.2506 46.947 25.2506 47.6564C25.2506 48.3621 25.2835 48.9743 25.3483 49.5288C25.4131 50.0725 25.5109 50.501 25.6439 50.8143C25.7757 51.1276 25.9406 51.2824 26.144 51.2824ZM28.6266 55.9923L29.179 51.2104L29.187 52.6291L27.9377 42.8349H28.3504L29.3745 51.0303H29.2052L30.1509 42.8385H30.5476L29.0142 55.9995H28.6254L28.6266 55.9923ZM32.7346 51.9774V40.1487H34.2146C34.4669 40.1487 34.6738 40.3071 34.8329 40.6348C34.9877 40.9247 35.1128 41.3497 35.1933 41.859C35.271 42.3355 35.312 42.8638 35.3126 43.4002C35.3186 43.9874 35.2669 44.566 35.1649 45.0566C35.0714 45.5033 34.9307 45.83 34.7682 45.9784V45.5679C34.9819 45.6932 35.1725 46.0718 35.3013 46.6265C35.4231 47.1589 35.4873 47.8019 35.4843 48.4594C35.4843 49.1435 35.4411 49.7736 35.357 50.2958C35.2734 50.8199 35.1414 51.2508 34.9784 51.5309C34.7886 51.8442 34.5763 51.9967 34.3623 51.9738H32.7335L32.7346 51.9774ZM33.3666 50.1157H34.2862C34.3953 50.1157 34.4919 50.0437 34.5783 49.9105C34.6653 49.7704 34.7377 49.554 34.7869 49.2871C34.8361 49.0202 34.8599 48.7141 34.8557 48.4053C34.8566 48.1067 34.8339 47.8121 34.7897 47.5484C34.7464 47.2959 34.6814 47.0874 34.6022 46.947C34.511 46.789 34.4082 46.7107 34.3044 46.7202H33.3666V50.1157ZM33.3666 44.8765H34.2066C34.2964 44.8765 34.3771 44.8225 34.4465 44.7109C34.5168 44.6037 34.5759 44.435 34.617 44.2248C34.6603 43.9853 34.6816 43.7121 34.6783 43.4362C34.68 43.2474 34.6698 43.0595 34.6483 42.8834C34.6269 42.7072 34.5946 42.5463 34.5533 42.41C34.5078 42.2687 34.4534 42.1592 34.3937 42.0886C34.334 42.0179 34.2702 41.9875 34.2066 41.9995H33.3655V44.8729L33.3666 44.8765ZM37.6451 52.4275C37.3564 52.4275 37.1029 52.2258 36.8858 51.8297C36.6701 51.4387 36.493 50.8652 36.3743 50.1733C36.2499 49.4222 36.1873 48.5837 36.1924 47.7356C36.1924 46.7418 36.2515 45.8812 36.3709 45.1502C36.4828 44.4428 36.6564 43.8517 36.871 43.447C37.0836 43.0437 37.3291 42.8421 37.6099 42.8421C37.9043 42.8421 38.1555 43.0617 38.3601 43.5082C38.5681 43.9403 38.7216 44.5633 38.8216 45.3662C38.9228 46.1656 38.9603 47.1127 38.9353 48.2037H38.3044V47.4619C38.3033 46.4753 38.2476 45.7551 38.1407 45.3014C38.0339 44.8441 37.8657 44.6173 37.6338 44.6173C37.3735 44.6173 37.1791 44.8765 37.054 45.3914C36.9279 45.8992 36.8642 46.6481 36.8642 47.6348C36.8642 48.5566 36.9279 49.2659 37.054 49.7737C37.1791 50.2778 37.3644 50.5298 37.6076 50.5298C37.7633 50.5298 37.8986 50.4218 38.0123 50.2022C38.1287 49.9696 38.2205 49.6324 38.276 49.2335L38.9035 49.8385C38.8019 50.6284 38.6246 51.2972 38.3965 51.7505C38.1703 52.2078 37.9191 52.4347 37.6463 52.4347V52.4239L37.6451 52.4275ZM36.6642 48.1929V46.6661H38.6238V48.1929H36.6642ZM41.5542 52.053C41.361 52.1646 41.17 52.2114 40.9825 52.197C40.8122 52.1936 40.6437 52.0886 40.4857 51.8873C40.3446 51.7031 40.2272 51.3732 40.1527 50.9511C40.087 50.5887 40.0507 50.1805 40.047 49.7629C40.0429 49.3069 40.041 48.8507 40.0413 48.3945V40.5952H40.6949V48.2757C40.6949 48.6358 40.6949 48.9527 40.6972 49.2227C40.7006 49.4928 40.7199 49.716 40.754 49.8889C40.8188 50.2202 40.9234 50.4074 41.0666 50.4434C41.2098 50.4794 41.3724 50.4614 41.5554 50.3786L41.5542 52.053ZM39.5082 44.6569V43.0869H41.5542V44.6569H39.5082ZM44.0288 52.4275C43.7844 52.4275 43.5514 52.2834 43.3377 52.0098C43.1245 51.7264 42.9324 51.3044 42.7739 50.7711C42.6062 50.1961 42.4773 49.5185 42.3954 48.7798C42.3045 47.9876 42.259 47.0838 42.259 46.0648C42.259 44.7325 42.3351 43.5946 42.4897 42.6476C42.6443 41.697 42.8535 40.9696 43.1217 40.4691C43.39 39.9578 43.6912 39.7021 44.0288 39.7021C44.4949 39.7021 44.862 40.055 45.1337 40.7572C45.4065 41.4522 45.5906 42.4316 45.6873 43.6883L45.0416 44.0159C44.9798 43.3433 44.8574 42.7426 44.6892 42.2875C44.5139 41.8379 44.2929 41.6051 44.0675 41.6322C43.8443 41.5942 43.6231 41.7808 43.4355 42.1651C43.2629 42.5504 43.1304 43.0893 43.0547 43.7135C42.9658 44.4609 42.923 45.2555 42.9285 46.054C42.9285 46.947 42.9694 47.7248 43.0535 48.3873C43.1289 49.0073 43.2611 49.5415 43.4332 49.9213C43.6037 50.2886 43.8151 50.4758 44.0675 50.4902C44.2405 50.5063 44.4122 50.3928 44.5687 50.1589C44.7146 49.9217 44.8367 49.56 44.9211 49.1147C45.0121 48.6466 45.0723 48.0633 45.103 47.3611H44.4369V45.7551H45.7748C45.7782 45.8452 45.7805 45.9784 45.7827 46.1548C45.7827 46.3349 45.785 46.4357 45.785 46.4681C45.785 47.6204 45.7134 48.6466 45.5713 49.5432C45.4326 50.4362 45.2303 51.1384 44.9689 51.6425C44.6836 52.1725 44.3571 52.4383 44.0265 52.4095L44.0288 52.4239V52.4275ZM47.4571 52.4275C47.2738 52.4444 47.0921 52.3157 46.9285 52.053C46.7928 51.826 46.68 51.4829 46.6028 51.0628C46.5257 50.6426 46.4873 50.1623 46.492 49.6764C46.492 49.2443 46.5148 48.8482 46.5602 48.499C46.6068 48.1453 46.6802 47.8336 46.7739 47.5916C46.8844 47.3079 47.0109 47.094 47.1468 46.9614C47.2627 46.8426 47.398 46.7346 47.5526 46.6373C47.7106 46.5437 47.8777 46.4573 48.0595 46.3817L48.6336 46.1152L48.4051 46.5257C48.4051 45.8956 48.3619 45.4347 48.271 45.1358C48.18 44.8405 48.0277 44.6929 47.8117 44.6929C47.6813 44.6932 47.5527 44.792 47.4366 44.981C47.3752 45.0798 47.3208 45.2179 47.277 45.3864C47.2332 45.555 47.2009 45.7504 47.182 45.9604L46.5955 45.3843C46.6614 44.6406 46.8043 43.9887 47.0013 43.5334C47.2013 43.0653 47.4741 42.8313 47.8129 42.8313C48.0686 42.8313 48.2937 42.9645 48.4881 43.2274C48.6836 43.4902 48.8291 43.9223 48.9234 44.5237C48.9733 44.8304 49.0049 45.1637 49.0166 45.5067C49.028 45.8308 49.0326 46.1944 49.0326 46.5905V52.1718H48.4699V50.2022L48.5631 50.5226C48.4523 51.1186 48.2954 51.6154 48.1073 51.9666C47.9068 52.2917 47.6834 52.4491 47.4582 52.4239L47.4571 52.4275ZM47.5844 50.8071C47.7129 50.8183 47.8405 50.7358 47.9572 50.5658C48.1274 50.3115 48.2604 49.8606 48.3289 49.3056C48.3645 49.0234 48.3837 48.7234 48.3858 48.4197C48.3903 48.0813 48.3926 47.8112 48.3926 47.6024L48.5904 47.786C48.3971 47.8796 48.2301 47.966 48.0902 48.0381C47.9516 48.1101 47.8333 48.1821 47.7333 48.2469C47.6442 48.2998 47.5561 48.3696 47.4696 48.4558C47.4023 48.5275 47.3385 48.6281 47.2798 48.7546C47.2319 48.8551 47.1912 48.9864 47.1604 49.1399C47.1321 49.2964 47.118 49.4746 47.1195 49.6548C47.1195 49.8817 47.1377 50.0761 47.1729 50.249C47.2117 50.4259 47.2652 50.5655 47.3275 50.6523C47.3969 50.7567 47.4821 50.8071 47.5844 50.8071ZM53.41 51.9774V46.5581C53.41 45.946 53.3622 45.4671 53.2656 45.1286C53.2172 44.9553 53.1572 44.8184 53.0899 44.7281C53.0226 44.6377 52.9499 44.5962 52.8769 44.6065C52.7757 44.6065 52.6859 44.6785 52.6052 44.8261C52.5256 44.9702 52.4608 45.1862 52.4142 45.4743C52.3649 45.7869 52.3407 46.1332 52.3438 46.4825L52.0641 45.9568C52.0591 45.3863 52.1043 44.8227 52.1948 44.3292C52.2832 43.8642 52.4092 43.4826 52.5597 43.2238C52.717 42.9572 52.8929 42.8209 53.0712 42.8277C53.3838 42.8277 53.6225 43.1265 53.7874 43.7207C53.9556 44.3076 54.0374 45.089 54.0374 46.0504V51.9774H53.41ZM50.0181 51.9774V43.0545H50.5751V45.8199H50.6524V51.9774H50.0181ZM51.7186 51.9774V46.5833C51.7186 45.9604 51.6708 45.4779 51.5742 45.1286C51.5254 44.9549 51.465 44.8179 51.3973 44.7275C51.3297 44.6372 51.2565 44.5959 51.1832 44.6065C51.1105 44.5954 51.038 44.6367 50.971 44.7271C50.9041 44.8175 50.8445 44.9548 50.7967 45.1286C50.6978 45.5083 50.6468 45.9906 50.6535 46.4825L50.3716 45.8884C50.3716 45.3086 50.4171 44.7901 50.5069 44.3256C50.5958 43.8659 50.7217 43.4894 50.8717 43.2346C51.0311 42.9608 51.21 42.8219 51.3912 42.8313C51.6015 42.8313 51.7777 42.9753 51.9186 43.2634C52.0619 43.5406 52.1687 43.9259 52.2369 44.4156C52.3085 44.9017 52.3449 45.4491 52.3449 46.0612V51.9774H51.7186ZM56.3779 52.4275C56.0812 52.4275 55.8209 52.2258 55.5993 51.8297C55.3785 51.4438 55.1962 50.8701 55.073 50.1733C54.9453 49.4255 54.8811 48.5856 54.8865 47.7356C54.8865 46.7418 54.9468 45.8812 55.0707 45.1502C55.1867 44.4402 55.3641 43.8495 55.5822 43.447C55.8135 43.0328 56.0759 42.8238 56.3415 42.8421C56.6439 42.8421 56.9019 43.0617 57.1122 43.5082C57.3259 43.9403 57.4828 44.5633 57.5851 45.3662C57.6874 46.1656 57.7272 47.1127 57.701 48.2037H57.0554V47.4619C57.052 46.4753 56.9963 45.7551 56.8871 45.3014C56.7769 44.8441 56.603 44.6173 56.3677 44.6173C56.1005 44.6173 55.9016 44.8765 55.772 45.3914C55.6413 45.8992 55.5765 46.6481 55.5765 47.6348C55.5765 48.5566 55.6413 49.2659 55.772 49.7737C55.9016 50.2778 56.0914 50.5298 56.3404 50.5298C56.4995 50.5298 56.6393 50.4218 56.753 50.2022C56.8717 49.9721 56.9659 49.6347 57.0235 49.2335L57.6669 49.8385C57.5555 50.6559 57.3827 51.2932 57.1474 51.7505C56.9163 52.2059 56.649 52.4432 56.3768 52.4347V52.4239L56.3779 52.4275ZM55.3708 48.1929V46.6661H57.3816V48.1929H55.3708ZM59.6539 52.4275C59.3083 52.4275 59.0264 52.1754 58.8093 51.6713C58.7015 51.4185 58.6109 51.0995 58.5429 50.7332C58.4749 50.3669 58.431 49.9609 58.4137 49.5396L59.0537 49.2155C59.0818 49.6438 59.1597 50.023 59.2719 50.2778C59.3856 50.537 59.5265 50.6667 59.6982 50.6667C59.8213 50.6921 59.9437 50.5911 60.0472 50.3786C60.0871 50.2881 60.1194 50.1679 60.1412 50.0285C60.1631 49.889 60.1737 49.7347 60.1722 49.5792C60.1751 49.4015 60.1587 49.226 60.1256 49.0823C60.0949 48.9563 60.0301 48.8302 59.9278 48.7114C59.773 48.5423 59.616 48.3946 59.4572 48.2685C59.263 48.1156 59.0744 47.8984 58.8945 47.6204C58.773 47.4319 58.6698 47.1434 58.5956 46.785C58.5328 46.4316 58.5013 46.0309 58.5047 45.6255C58.5005 45.0988 58.5486 44.5812 58.6422 44.1456C58.7389 43.7117 58.8731 43.3754 59.0287 43.1769C59.1924 42.9465 59.3867 42.8313 59.6095 42.8313C59.8335 42.8313 60.021 42.9429 60.1892 43.1625C60.3597 43.3786 60.4961 43.6919 60.6007 44.0952C60.7054 44.5035 60.7723 44.9959 60.794 45.5175L60.154 45.8884C60.1483 45.7074 60.1307 45.5321 60.1023 45.374C60.0739 45.2159 60.0354 45.0783 59.9892 44.9702C59.8814 44.7286 59.7529 44.5967 59.6209 44.5921C59.4978 44.5476 59.3733 44.623 59.264 44.8081C59.2224 44.8761 59.1877 44.9796 59.1638 45.1069C59.1399 45.2342 59.1277 45.3802 59.1287 45.5283C59.1287 45.6975 59.1469 45.8452 59.1833 45.9712C59.2469 46.1417 59.3213 46.2669 59.4015 46.3385C59.5129 46.4645 59.6777 46.6157 59.896 46.7958C60.1199 46.9794 60.2984 47.1919 60.4314 47.4367C60.5524 47.6274 60.6537 47.9234 60.7235 48.2901C60.7837 48.6214 60.8144 49.0211 60.8144 49.4928C60.8144 50.4074 60.7121 51.124 60.5041 51.6461C60.2995 52.1682 60.0165 52.4275 59.6539 52.4275Z" fill="#A6B4C6"/>
<path d="M127.275 32.2269V27.7366L131.439 16.0016C131.764 15.0906 131.988 14.2264 132.114 13.4162C132.24 12.6024 132.304 11.821 132.304 11.0648C132.304 10.035 132.234 9.12759 132.094 8.32821C131.96 7.53145 131.759 6.86651 131.514 6.40537C131.258 5.92507 130.965 5.68063 130.668 5.69961C130.33 5.69961 130.031 5.95167 129.77 6.44498C129.518 6.91198 129.31 7.58317 129.167 8.38943C129.023 9.20681 128.956 10.0818 128.965 11.018H127.288C127.288 8.96556 127.433 7.17955 127.722 5.6528C128.011 4.13984 128.427 2.91174 128.924 2.10599C129.438 1.26699 130.031 0.845703 130.702 0.845703C131.324 0.845703 131.883 1.2814 132.379 2.1672C132.873 3.0314 133.264 4.24848 133.547 5.80403C133.83 7.33798 133.972 9.11679 133.972 11.1261C133.972 12.5916 133.91 13.8267 133.782 14.8205C133.65 15.8476 133.457 16.7851 133.214 17.5823C132.966 18.4177 132.657 19.3575 132.289 20.3802L129.335 28.6513L129.186 27.3694H133.972V32.2233H127.274L127.275 32.2269ZM139.377 32.2665V27.1821H135.065V22.3714L138.181 1.48665H140.04L136.924 22.3714H139.377V14.3524H141.028V22.3714H141.94V27.1785H141.028V32.2665H139.377ZM146.02 1.48665L143.425 32.2665H145.061L147.656 1.48665H146.02ZM149.903 32.2665L153.256 6.35856H149.004V1.48665H155V6.35856L151.66 32.2665H149.903Z" fill="white"/>
</svg>
