<svg fill="none" viewBox="0 0 150 56" id="providers--twainsport" xmlns="http://www.w3.org/2000/svg"><path d="M113.994 20.699l-.002-.025-.006-.025-.003-.026-.006-.024-.005-.025-.007-.024-.009-.025-.007-.024-.009-.024-.012-.021-.011-.024-.012-.022-.012-.024-.013-.022-.015-.02-.015-.02-.015-.02-.016-.02-.016-.02-.016-.017-.018-.02-.018-.016-.02-.018-.019-.016-.019-.016-.02-.015-.019-.015-.022-.015-.044-.025-.024-.011-.021-.011-.024-.01-.024-.011-.024-.007-.026-.009-.024-.006-.024-.007-.025-.005-.025-.004-.025-.003-.025-.004-.052-.003h-9.223l-8.835.007L83.257 20H63.827l-.052.003-.025.004-.025.003-.025.004-.025.005-.024.007-.024.006-.025.01-.024.006-.024.011-.024.01-.022.01-.024.012-.044.025-.022.015-.019.015-.02.015-.019.016-.02.016-.019.018-.018.016-.018.02-.016.018-.016.02-.016.019-.015.02-.015.02-.015.02-.013.022-.012.024-.011.022-.012.024-.011.021-.01.024-.006.024-.01.025-.007.024-.005.025-.006.024-.003.026-.006.025-.002.025-.004.051v7.81l.002.034.004.035.006.033.005.033.01.034.009.033.016.047.012.03.022.048.016.028.018.029.019.028.03.04.022.028.024.024.024.025.052.043.027.022.043.029.028.015.031.016.046.022.033.013.03.012.034.01.033.008.033.007.035.006.033.006.069.003H83.26l11.93-.003 8.835.003h9.198l.034-.002.033-.002.034-.004.035-.003.033-.007.033-.007.049-.015.031-.012.033-.013.046-.022.031-.015.043-.028.028-.018.027-.022.052-.043.024-.025.024-.024.021-.028.02-.025.019-.029.019-.028.016-.029.016-.03.019-.046.013-.033.011-.031.009-.033.009-.034.006-.034.006-.033.003-.034.003-.034V20.75L114 20.7h-.006zM73.735 25.66l-.002.05-.002.046-.006.047-.006.049-.007.047-.009.047-.011.045-.012.047-.012.046-.015.045-.016.044-.016.046-.02.043-.018.042-.022.044-.021.042-.026.04-.024.042-.027.038-.027.04-.03.037-.028.037-.03.036-.034.035-.068.068-.035.033-.036.031-.038.029-.038.028-.04.027-.038.026-.042.025-.042.024-.084.043-.043.02-.044.018-.043.016-.046.016-.046.015-.045.012-.046.012-.095.018-.047.007-.047.005-.047.004-.047.003-.049.003-5.486.003h-.034l-.037-.003-.036-.006-.035-.01-.033-.008-.034-.013-.033-.015-.046-.027-.031-.019-.027-.021-.028-.024-.025-.025-.025-.028-.022-.028-.02-.029-.018-.03-.015-.031-.019-.052-.011-.033-.01-.034-.005-.037-.004-.034-.002-.037v-.018l.002-.018v-.018l.006-.037.007-.034.009-.034.011-.035.015-.033.016-.033.016-.03.031-.044.012-.015.012-.012.013-.015.038-.038.014-.011.028-.022.03-.02.032-.018.033-.016.033-.012.033-.012.034-.011.037-.006.034-.006.019-.002h3.4l2.19-.003.04-.007.026-.007.038-.015.025-.011.024-.013.022-.012.033-.024.02-.019.019-.018.02-.02.015-.019.016-.021.015-.022.013-.024.012-.025.01-.024.009-.025.007-.025.005-.028.006-.025.002-.027v-.052l-.002-.025-.004-.024-.003-.024-.006-.021-.011-.035-.01-.021-.032-.066-.015-.019-.015-.018-.015-.02-.016-.016-.025-.025-.058-.043-.031-.016-.022-.011-.022-.01-.034-.012-.071-.015h-4.793l-.142-.012-.092-.01-.047-.008-.05-.009-.094-.022-.046-.014-.047-.015-.046-.016-.043-.018-.046-.019-.044-.02-.042-.02-.043-.025-.04-.025-.043-.025-.04-.027-.037-.028-.038-.028-.038-.031-.036-.033-.035-.034-.034-.034-.033-.034-.034-.037-.03-.037-.031-.038-.029-.04-.027-.04-.026-.042-.025-.04-.024-.043-.021-.043-.02-.043-.02-.046-.015-.043-.016-.046-.016-.046-.013-.046-.012-.046-.012-.047-.01-.047-.006-.046-.006-.05-.005-.046-.004-.05v-.049l-.002-.046.002-.05.007-.098.007-.046.007-.05.009-.046.022-.095.012-.046.016-.047.016-.045.016-.044.02-.045.02-.044.02-.042.025-.042.024-.042.025-.043.028-.04.027-.037.062-.077.03-.036.034-.037.034-.034.073-.065.038-.031.038-.03.038-.028.04-.028.042-.027.083-.047.043-.022.043-.021.046-.019.044-.018.045-.016.046-.015.047-.015.046-.011.046-.011.047-.01.05-.009.046-.005.05-.006.047-.004.049-.002h5.437l.018.002h.018l.037.006.034.006.053.015.033.011.033.015.033.015.031.018.043.031.03.022.037.037.024.028.022.028.02.029.024.047.015.033.018.049.01.034.006.037.006.052.002.018v.037l-.002.018-.006.053-.006.036-.01.033-.018.052-.015.033-.016.03-.02.032-.019.028-.024.027-.011.015-.025.026-.015.01-.042.035-.03.02-.046.025-.033.015-.033.012-.035.011-.105.019-.018.002h-5.462l-.04.007-.025.006-.038.012-.025.012-.037.018-.022.015-.033.024-.021.016-.029.028-.016.02-.018.021-.029.044-.018.036-.01.025-.009.026-.006.025-.006.025-.006.027-.002.027v.052l.002.024.006.036.006.024.005.022.007.024.015.033.011.022.012.02.013.021.021.029.022.027.018.018.025.024.02.015.018.015.022.012.02.012.032.015.022.009.024.009.066.015h4.935l.096.015.047.009.047.011.046.012.047.012.046.015.045.015.044.018.043.018.044.019.083.043.043.024.04.025.04.025.04.028.037.028.037.029.037.03.036.031.033.035.035.033.033.036.03.037.032.036.028.038.028.04.027.04.025.04.024.042.022.043.022.042.02.043.036.087.043.136.012.046.011.046.01.046.006.047.006.047.003.046.004.05.002.046v.047h.001zm8.958-1.939l-.004.047-.005.05-.006.046-.007.047-.01.047-.008.047-.013.045-.013.046-.014.045-.016.046-.016.044-.019.043-.02.043-.02.043-.047.083-.025.04-.025.04-.028.037-.028.038-.03.037-.032.036-.033.037-.033.034-.034.033-.037.033-.037.031-.037.031-.038.027-.038.028-.04.027-.042.025-.04.024-.043.022-.043.02-.042.019-.046.018-.044.018-.045.015-.044.015-.047.013-.045.011-.047.011-.046.01-.047.005-.05.007-.046.003-.047.003-.05.002-2.446.006-2.354.002-.03.011-.017.007-.024.013-.015.012-.016.013-.018.018-.013.016-.014.02-.012.024-.007.02-.007.023-.002.022-.002.025.002 1.215-.002.018v.018l-.002.019-.004.027-.006.027-.003.019-.006.018-.007.025-.011.025-.007.016-.011.025-.013.024-.011.016-.01.015-.016.024-.016.02-.012.014-.033.033-.026.024-.042.034-.043.028-.047.024-.05.02-.05.014-.053.01-.053.003h-.055l-.018-.002-.053-.01-.034-.006-.035-.012-.049-.02-.033-.015-.046-.028-.043-.033-.013-.011-.015-.013-.025-.025-.011-.012-.013-.015-.03-.044-.02-.028-.024-.047-.015-.034-.011-.033-.012-.035-.007-.034-.003-.036-.002-.019-.003-.018v-1.354l.002-.022.003-.02.002-.019.002-.021.003-.02.002-.02.003-.02.007-.04.004-.02.003-.02.006-.019.003-.02.006-.019.006-.02.005-.019.007-.02.006-.018.007-.02.007-.018.007-.02.006-.019.007-.016.01-.018.006-.018.01-.019.006-.018.01-.016.009-.018.011-.016.01-.016.01-.019.01-.016.011-.015.022-.034.011-.014.013-.017.011-.015.013-.015.011-.016.013-.015.025-.029.015-.015.013-.014.014-.015.015-.013.013-.012.015-.015.016-.013.015-.011.015-.013.016-.012.014-.012.017-.012.016-.012.014-.011.016-.012.016-.01.019-.01.016-.012.016-.009.018-.009.016-.009.018-.009.016-.01.019-.006.018-.01.037-.014.019-.01.02-.006.018-.007.02-.006.019-.006.02-.006.019-.006.019-.005.02-.006.019-.004.02-.005.019-.004.02-.003.021-.004.04-.003.02-.003.021-.003h.02l.021-.002h4.972l.025-.004.025-.005.036-.012.037-.012.024-.012.033-.018.022-.015.02-.015.019-.015.029-.028.016-.018.016-.02.014-.021.015-.02.013-.024.011-.021.015-.037.007-.024.01-.038.003-.025.005-.037v-.038l-.002-.025-.007-.052-.009-.036-.01-.025-.008-.024-.012-.022-.012-.024-.013-.022-.015-.021-.024-.029-.027-.028-.018-.016-.02-.016-.022-.015-.043-.025-.034-.016-.024-.01-.03-.01-.032-.01-.018-.003-.034-.004-.02-.002h-5.572l-.028-.002-.018-.003-.016-.002-.018-.003-.018-.004-.026-.005-.018-.006-.025-.01-.016-.005-.018-.007-.016-.007-.016-.009-.015-.007-.016-.011-.015-.01-.022-.014-.015-.011-.015-.013-.014-.012-.013-.012-.018-.02-.013-.012-.011-.015-.012-.015-.022-.028-.018-.031-.03-.065-.02-.052-.008-.034-.006-.034-.003-.018-.003-.019-.002-.018v-.064l.002-.027.004-.025.005-.028.006-.025.01-.034.008-.025.015-.035.012-.024.015-.024.012-.023.028-.037.016-.02.018-.019.025-.025.02-.018.021-.016.037-.025.022-.015.024-.013.025-.011.033-.015.025-.01.025-.006.044-.01.027-.003.028-.002.034-.002h5.672l.097.016.046.007.047.011.047.012.046.012.046.015.046.016.043.016.043.018.044.02.043.02.043.023.04.022.042.025.04.025.038.027.038.029.036.029.037.03.036.033.035.034.065.068.03.037.032.037.028.038.028.038.027.04.025.042.024.04.024.042.02.043.02.043.019.045.016.044.016.043.015.046.012.046.012.046.011.046.01.047.006.047.006.046.006.047.002.047.002.047v.096l.013-.004zm6.018-.928l-.003.033-.005.034-.006.034-.01.033-.021.065-.022.045-.016.029-.016.029-.02.027-.021.027-.033.038-.025.022-.026.024-.025.019-.028.02-.044.025-.045.021-.031.013-.05.015-.049.012-.051.007-.033.002h-.035l-.051-.002h-1.566l-.029.002-.027.003-.029.002-.027.002-.029.004-.027.003-.028.006-.028.005-.028.006-.027.007-.028.007-.027.007-.027.007-.028.009-.025.011-.028.01-.051.021-.028.012-.025.013-.024.013-.025.012-.025.015-.024.015-.024.015-.024.016-.024.016-.024.016-.022.018-.022.016-.021.018-.022.02-.02.018-.04.04-.019.02-.02.019-.018.021-.018.022-.018.022-.016.024-.016.021-.016.024-.016.024-.029.047-.015.025-.038.077-.012.025-.012.025-.011.027-.01.026-.008.027-.01.027-.009.025-.015.055-.006.028-.006.028-.006.028-.003.027-.004.029-.003.027-.004.029-.002.027-.002.029v.083l.003.087.012.083.015.082.021.082.028.078.03.077.038.073.04.07.046.069.052.064.055.062.058.059.062.055.065.051.067.047.073.042.075.038.076.034.08.029.083.025.084.018.086.015.087.009.09.002h1.51l.02.003.02.002.019.002.04.007.02.003.018.006.02.006.017.006.02.006.018.007.018.007.019.01.016.008.018.01.016.01.018.012.017.012.014.011.034.025.043.044.013.014.012.015.013.016.012.016.012.016.011.016.01.016.01.019.01.018.007.016.009.02.007.018.005.018.007.018.006.02.003.019.006.018.004.02.002.019.003.02v.019l.003.02v.04l-.003.019v.019l-.003.02-.002.019-.004.02-.006.019-.003.018-.006.02-.007.018-.005.018-.007.02-.01.018-.006.018-.01.016-.01.018-.01.016-.011.016-.012.016-.012.016-.013.016-.012.015-.013.016-.015.015-.015.012-.015.015-.016.013-.016.012-.014.012-.017.012-.018.012-.016.009-.018.009-.016.009-.019.01-.018.006-.018.007-.02.007-.018.005-.02.007-.018.004-.019.005-.02.003-.019.003-.02.002-.019.003-.02.002h-1.501l-.17-.006-.165-.016-.164-.027-.162-.038-.157-.046-.151-.058-.148-.065-.144-.074-.136-.082-.132-.092-.126-.098-.118-.105-.113-.113-.106-.12-.096-.125-.089-.13-.082-.136-.073-.142-.062-.147-.053-.151-.043-.154-.035-.158-.021-.162-.012-.166-.002-.055v-.055l.003-.113.004-.055.005-.056.007-.055.007-.056.007-.055.011-.054.012-.055.013-.055.012-.052.015-.055.016-.053.016-.052.018-.053.02-.052.02-.052.02-.051.025-.052.024-.05.025-.052.028-.05.027-.049.028-.046.03-.047.029-.047.065-.091.033-.044.035-.043.036-.044.037-.042.037-.042.037-.04.04-.04.04-.038.04-.037.043-.037.042-.036.087-.069.046-.033.045-.033.047-.03.046-.03.05-.028.046-.029.05-.027.05-.025.05-.024.051-.024.052-.022.051-.021.053-.02.053-.018.052-.018.053-.016.052-.016.055-.013.053-.015.109-.021.056-.01.055-.006.055-.007.056-.006.055-.006.056-.003.056-.002h1.593l.034-.003h.068l.051.007.034.006.049.012.033.012.03.012.046.022.03.016.042.029.026.02.025.02.025.025.043.051.02.027.027.044.016.029.015.03.013.031.011.033.019.065.005.033.004.035.002.049-.002.034-.001.016zm5.885 1.93l-.004.083-.003.042-.004.043-.005.042-.004.042-.005.042-.007.04-.007.043-.007.042-.01.04-.008.042-.01.04-.01.04-.012.04-.013.042-.012.04-.013.038-.015.04-.015.04-.015.037-.016.04-.016.038-.018.038-.016.037-.02.037-.018.038-.02.036-.019.037-.021.036-.022.037-.022.034-.022.037-.046.068-.026.033-.024.034-.027.034-.025.033-.028.033-.027.03-.028.031-.028.031-.029.031-.028.03-.029.03-.03.028-.032.027-.03.029-.034.027-.03.025-.034.028-.033.025-.034.025-.034.024-.068.047-.037.024-.034.021-.037.022-.036.02-.037.021-.037.019-.037.019-.037.018-.038.019-.037.018-.038.016-.04.016-.038.015-.04.014-.04.015-.038.013-.04.012-.04.013-.042.011-.04.012-.04.011-.043.01-.04.009-.042.006-.04.007-.042.007-.043.006-.042.006-.042.003-.043.003-.04.004-.043.002-.042.002-.043.003h-1.599l-.022-.003-.019-.002-.02-.002-.018-.004-.02-.002-.019-.006-.02-.003-.017-.007-.02-.006-.018-.006-.018-.007-.019-.007-.036-.018-.016-.01-.019-.009-.016-.011-.016-.013-.016-.011-.015-.013-.016-.012-.014-.015-.015-.013-.015-.014-.013-.017-.012-.014-.013-.016-.013-.016-.01-.016-.012-.016-.01-.016-.011-.018-.01-.017-.006-.018-.01-.018-.006-.02-.007-.018-.006-.018-.005-.02-.006-.018-.004-.02-.003-.018-.002-.02-.004-.02-.002-.019v-.08l.002-.02.004-.018.002-.02.004-.02.003-.018.006-.019.005-.02.006-.018.007-.018.007-.018.009-.02.007-.016.009-.018.011-.018.01-.016.011-.016.011-.016.013-.016.013-.016.012-.015.013-.015.028-.028.015-.015.016-.013.015-.012.016-.012.033-.021.019-.012.016-.009.036-.018.019-.007.018-.007.018-.007.02-.005.018-.006.02-.006.019-.003.02-.004.018-.003.019-.002.02-.003.021-.002h1.523l.083-.002.083-.01.08-.012.08-.016.078-.022.076-.027.073-.03.074-.037.068-.038.065-.043.064-.047.062-.05.059-.054.052-.056.052-.06.046-.064.044-.065.038-.067.034-.07.03-.074.026-.074.02-.076.014-.078.012-.08.002-.03.002-.03.003-.028v-.09l-.003-.03-.003-.028-.002-.029-.004-.029-.005-.028-.004-.029-.007-.028-.005-.029-.007-.028-.007-.029-.01-.028-.008-.028-.01-.028-.011-.028-.012-.027-.011-.027-.013-.028-.012-.027-.015-.025-.013-.028-.016-.025-.014-.025-.016-.025-.017-.025-.016-.024-.018-.024-.018-.024-.018-.024-.02-.022-.018-.022-.02-.021-.042-.043-.022-.019-.021-.02-.024-.019-.024-.018-.022-.018-.025-.019-.024-.016-.026-.016-.025-.016-.025-.015-.051-.03-.028-.012-.025-.012-.027-.013-.028-.011-.027-.012-.029-.011-.027-.01-.029-.008-.027-.01-.029-.006-.058-.015-.029-.006-.028-.006-.03-.003-.028-.003-.028-.004-.031-.002-.029-.002-.028-.003h-.031l-1.555.003h-.067l-.052-.004-.049-.009-.05-.012-.046-.016-.047-.022-.029-.016-.028-.016-.042-.031-.04-.033-.024-.022-.024-.025-.02-.025-.02-.027-.019-.029-.016-.029-.022-.045-.012-.031-.013-.033-.012-.05-.006-.032-.006-.035-.003-.033v-.051l.002-.033.004-.035.005-.033.007-.033.01-.033.012-.033.02-.047.014-.028.016-.029.02-.028.028-.04.024-.025.047-.047.028-.02.042-.03.028-.017.03-.015.03-.015.03-.013.034-.011.033-.01.033-.006.033-.006.035-.003h.051l.052.002h1.48l.17.006.166.016.163.027.16.037.157.046.153.056.147.065.144.075.137.082.132.091.126.098.118.105.113.113.105.118.096.126.092.13.08.136.073.141.064.145.053.151.043.154.034.16.024.162.011.163.002.043v.125l-.012-.02zm9.047-1.047l-.003.049-.003.049-.004.049-.006.049-.007.047-.019.095-.025.094-.015.046-.016.046-.018.043-.019.046-.02.043-.022.042-.021.044-.025.04-.026.042-.027.04-.028.038-.03.037-.029.038-.033.037-.033.036-.035.034-.036.034-.037.033-.038.03-.037.031-.038.028-.04.028-.043.025-.04.024-.043.024-.042.022-.044.022-.046.018-.043.018-.046.016-.046.015-.046.015-.046.012-.047.012-.047.009-.047.007-.049.005-.047.006-.049.004-.049.002h-.543l1.461 1.012.024.016.022.018.031.028.028.031.016.024.019.022.015.024.019.038.013.025.015.04.012.042.007.027.003.028.004.028.002.028v.056l-.006.043-.003.027-.007.028-.007.028-.009.026-.011.027-.012.025-.015.025-.015.024-.024.037-.018.021-.027.031-.031.029-.024.018-.022.018-.024.015-.025.015-.025.012-.025.013-.026.01-.027.008-.028.01-.027.005-.029.004-.027.003-.029.002h-.027l-.028-.002-.027-.002-.04-.007-.027-.006-.038-.012-.025-.01-.026-.011-.024-.011-.046-.029-2.745-1.902h-2.41l-.018.003-.03.012-.02.009-.015.009-.016.012-.024.022-.013.015-.022.029-.016.03-.006.022-.004.02-.003.033v1.252l-.003.028-.003.027-.007.037-.006.018-.003.018-.007.016-.006.018-.006.016-.007.016-.007.016-.01.016-.009.016-.011.015-.01.015-.01.016-.012.012-.013.015-.018.02-.033.033-.028.024-.027.02-.029.019-.047.025-.03.015-.034.012-.034.012-.034.006-.035.006-.034.004-.036.002-.019-.002h-.018l-.037-.004-.034-.007-.034-.006-.035-.012-.049-.02-.033-.015-.03-.019-.03-.019-.028-.022-.013-.011-.014-.013-.038-.037-.022-.029-.022-.029-.018-.028-.016-.033-.016-.031-.013-.034-.014-.052-.007-.034-.006-.036v-.019l-.002-.018v-1.354l.002-.022v-.02l.002-.019.003-.021.003-.02.002-.02.004-.02.002-.02.004-.02.005-.02.007-.039.006-.02.005-.019.006-.02.006-.019.006-.02.007-.018.006-.02.007-.018.007-.02.007-.019.007-.016.007-.018.018-.037.007-.018.009-.016.01-.018.01-.016.01-.016.009-.019.011-.016.012-.015.022-.034.01-.014.012-.017.013-.015.011-.015.013-.016.012-.015.038-.044.015-.014.015-.015.013-.013.014-.012.015-.015.015-.013.016-.011.029-.025.016-.012.016-.012.015-.012.033-.021.016-.012.016-.009.018-.011.016-.01.016-.009.019-.009.018-.009.016-.009.018-.007.019-.009.018-.007.018-.007.02-.009.018-.007.02-.006.019-.006.02-.007.019-.006.02-.006.019-.005.019-.006.02-.003.019-.006.02-.004.019-.003.02-.002.02-.004.02-.002.02-.002.022-.002.019-.003.02-.002h.063l4.923-.002.025-.004.025-.007.047-.014.024-.012.024-.011.022-.013.021-.015.02-.015.028-.025.02-.018.016-.018.016-.02.015-.021.015-.02.012-.024.012-.021.018-.047.007-.025.005-.025.007-.052.003-.025-.003-.038-.003-.037-.007-.038-.007-.024-.007-.025-.009-.024-.011-.022-.019-.034-.021-.033-.016-.02-.016-.018-.019-.02-.019-.015-.029-.024-.033-.02-.022-.012-.047-.022-.024-.009-.028-.01-.018-.005-.019-.003-.018-.004h-.018l-.019-.002h-5.573l-.025-.002-.027-.003-.028-.003-.025-.007-.025-.005-.025-.01-.034-.012-.034-.015-.024-.013-.036-.025-.029-.02-.027-.023-.02-.02-.016-.015-.024-.028-.015-.018-.021-.031-.019-.03-.016-.032-.027-.067-.006-.024-.007-.024-.003-.024-.006-.037-.003-.046v-.024l.002-.025.002-.024.004-.024.003-.024.006-.024.006-.024.012-.035.01-.021.014-.033.016-.031.013-.022.022-.028.014-.019.024-.027.044-.043.02-.017.028-.021.029-.02.023-.012.025-.012.025-.011.042-.016.025-.007.025-.006.028-.005.027-.003.025-.002.037-.002h5.663l.146.024.046.009.047.011.047.012.046.015.047.015.046.016.043.018.046.018.043.022.043.021.043.022.04.025.043.025.04.028.037.027.038.029.038.03.036.034.035.033.068.068.031.037.033.037.029.038.029.04.027.04.025.042.025.043.024.042.022.043.02.044.019.043.033.09.016.046.013.046.012.046.012.046.009.047.007.049.006.047.005.047.004.049.002.049v.047l.005-.008zm8.232-.994l-.002.037-.006.036-.012.052-.009.034-.012.034-.015.031-.025.047-.031.046-.024.027-.012.012-.025.026-.019.018-.022.018-.029.02-.021.014-.024.013-.034.016-.024.011-.034.012-.034.009-.025.006-.028.005-.025.003-.037.002H108.7v3.44l-.003.036-.009.052-.007.034-.011.035-.013.033-.015.033-.016.03-.018.031-.019.03-.035.041-.012.013-.013.012-.027.024-.029.022-.046.029-.031.018-.033.015-.033.012-.051.015-.035.007-.036.006-.035.002-.018.002-.018-.002h-.019l-.018-.002-.018-.003-.037-.005-.068-.018-.034-.013-.033-.016-.047-.025-.043-.031-.015-.011-.015-.012-.038-.037-.012-.015-.012-.013-.021-.029-.02-.028-.018-.03-.016-.034-.013-.033-.016-.052-.009-.034-.006-.036-.002-.018-.002-.019-.002-.018v-3.44h-2.674l-.033-.005-.049-.011-.031-.01-.031-.01-.031-.014-.028-.014-.029-.016-.028-.019-.026-.019-.04-.03-.068-.078-.019-.029-.025-.047-.015-.03-.018-.05-.009-.034-.007-.034-.006-.035-.002-.034-.002-.036.002-.035.006-.034.006-.034.014-.051.012-.034.015-.033.015-.03.018-.031.031-.044.034-.04.018-.018.02-.02.019-.015.02-.016.031-.02.021-.015.04-.019.026-.011.025-.01.043-.01.025-.007.037-.005.043-.004h6.374l.018.003h.019l.036.003.035.007.051.012.034.012.05.021.03.016.031.02.029.02.027.023.052.052.024.027.019.029.019.03.025.047.018.052.011.033.012.052.006.037.002.034v.037-.003zM46.234 22.361l.002.04v4.514l-.002.027-.002.028-.003.025-.006.027-.007.038-.006.027-.007.025-.009.026-.009.026-.015.037-.012.024-.012.023-.012.026-.022.032-.014.024-.015.022-.018.022-.024.03-.02.021-.018.018-.021.02-.026.025-.04.033-.03.022-.03.02-.031.018-.046.026-.05.021-.031.013-.07.022-.034.009-.037.007-.05.008-.053.003h-.073l-.034-.002-.037-.004-.034-.005-.037-.007-.034-.01-.052-.014-.032-.013-.035-.015-.031-.013-.032-.017-.046-.028-.028-.02-.03-.02-.029-.022-.039-.035-.03-.03-.019-.021-.017-.02-.017-.021-.023-.031-.017-.023-.014-.023-.039-.07-.016-.037-.011-.025-.01-.027-.006-.025-.012-.037-.009-.04-.004-.04-.006-.039-.002-.026v-4.541l.002-.028.002-.027.004-.025.003-.028.006-.025.004-.027.008-.025.007-.027.01-.025.008-.025.012-.025.01-.024.04-.07.013-.022.017-.024.023-.031.017-.022.017-.02.019-.02.018-.016.027-.027.031-.028.031-.025.022-.016.024-.015.022-.014.024-.015.035-.018.037-.017.026-.01.038-.015.025-.006.039-.012.026-.006.027-.005.027-.004.026-.003.028-.001.027-.003h.091l.027.003.039.004.028.004.04.009.027.006.035.01.026.01.026.01.025.01.024.01.025.014.034.019.024.015.034.021.03.024.022.016.02.019.02.018.025.027.019.019.018.019.018.02.016.022.024.032.022.033.013.024.013.023.017.036.01.025.012.025.01.025.014.051.01.038.004.027.006.028.002.025.003.027zM17.154 22.376l.001.023v.091l-.001.024-.002.022-.004.023-.003.024-.004.022-.005.021-.006.024-.006.022-.007.022-.015.043-.009.022-.009.021-.009.022-.01.02-.01.02-.01.02-.026.04-.013.019-.012.02-.015.018-.015.015-.014.019-.015.018-.033.033-.016.015-.016.016-.018.015-.018.014-.019.014-.02.013-.019.012-.038.027-.021.01-.02.011-.022.01-.02.009-.022.009-.021.008-.044.015-.021.008-.023.004-.022.006-.023.003-.022.006-.024.004-.021.002h-.024l-.022.003-.024.003h-.045l-.018-.003h-.006l-.018-.002h-3.4v3.599l.002.018v.046l-.002.023v.024l-.003.014v.007l-.001.024-.005.022-.005.023-.004.021-.005.023-.005.023-.007.022-.008.022-.007.021-.01.02-.008.022-.01.022-.009.02-.011.02-.01.02-.026.04-.012.02-.014.018-.014.019-.014.018-.015.018-.016.016-.015.018-.016.015-.016.016-.019.016-.018.015-.016.015-.018.012-.02.014-.02.014-.018.01-.021.013-.02.011-.02.01-.02.012-.043.018-.022.007-.023.01-.021.006-.022.006-.022.008-.023.004-.023.005-.022.003-.022.004-.024.003-.022.002-.024.002-.022.002h-.047l-.021-.002-.024-.002-.022-.002-.024-.003-.022-.004-.023-.003-.022-.005-.024-.004-.021-.008-.022-.006-.022-.007-.021-.009-.023-.007-.044-.018-.06-.033-.02-.013-.02-.01-.018-.014-.02-.014-.017-.012-.018-.015-.018-.015-.018-.016-.016-.016-.016-.014-.015-.019-.016-.016-.015-.018-.015-.018-.013-.019-.014-.018-.013-.02-.012-.02-.013-.02-.01-.02-.012-.02-.009-.02-.018-.043-.01-.02-.006-.022-.007-.022-.008-.022-.006-.023-.004-.023-.005-.021-.005-.023-.004-.022-.001-.024V27l-.002-.014-.002-.024-.002-.023v-.046l.002-.018v-.022l-.017-3.577H7.772l-.03-.001-.026-.004-.025-.004-.027-.005-.025-.006-.025-.006-.024-.008-.025-.007-.047-.018-.024-.012-.047-.022-.023-.012-.022-.013-.065-.043-.02-.016-.02-.017-.02-.016-.018-.018-.018-.019-.018-.02-.018-.017-.016-.021-.018-.022-.013-.02-.017-.02-.013-.022-.014-.023-.014-.022-.01-.023-.011-.024-.01-.024-.019-.047-.009-.025-.007-.024-.008-.025-.004-.025-.006-.026-.004-.025-.004-.025-.004-.026v-.026L7 22.47v-.05l.002-.028.001-.025.004-.025.004-.026.004-.025.006-.026.004-.026.008-.025.007-.023.01-.026.017-.047.01-.024.012-.023.01-.021.014-.024.014-.022.013-.022.017-.021.013-.021.018-.02.016-.02.018-.02.018-.02.018-.018.019-.018.02-.017.02-.015.02-.018.043-.028.021-.013.022-.015.023-.01.023-.013.048-.022.023-.01.024-.007.025-.008.024-.007.025-.008.025-.005.027-.006.025-.003.025-.003.03-.003h8.484l.018-.002.024-.001h.045l.024.001.021.002.024.003.022.003.024.001.022.006.023.003.022.006.023.006.021.007.044.015.021.009.022.009.02.009.023.01.019.01.02.012.02.011.02.013.018.012.02.013.019.015.018.015.018.013.016.017.016.014.017.017.016.019.015.016.014.018.015.016.015.02.012.019.013.017.025.04.011.02.01.02.01.02.01.022.008.022.01.021.014.044.007.021.006.022.006.024.005.022.004.024.003.021.004.024.002.022zM43.184 26.805l.002.03v.083l-.004.044-.002.02-.003.022-.004.02-.003.021-.006.02-.003.02-.008.02-.005.022-.008.02-.007.02-.008.018-.007.02-.009.02-.009.019-.01.02-.01.017-.01.019-.013.018-.012.018-.012.016-.013.018-.025.034-.015.016-.014.016-.015.014-.014.015-.017.014-.014.015-.016.012-.018.015-.017.013-.017.011-.018.013-.036.021-.018.01-.018.012-.019.01-.02.008-.02.01-.018.006-.02.007-.022.008-.02.007-.02.006-.02.006-.021.004-.021.005-.022.003-.02.003-.041.006-.022.001h-.127l-.02-.004-.023-.003-.019-.003-.022-.003-.02-.006-.022-.003-.02-.006-.02-.007-.02-.006-.021-.008-.019-.007-.04-.018-.018-.009-.02-.01-.019-.008-.018-.01-.017-.012-.019-.013-.018-.01-.017-.014-.016-.012-.016-.013-.017-.015-.016-.013-.015-.015-.016-.015-.015-.014-.014-.017-.012-.016-.015-.016-.013-.017-.015-.02-.042-.055-2.818-3.756-.013-.013-.015-.019-.016-.018-.017-.016-.016-.017-.016-.018-.033-.032-.025-.026-.028-.023-.016-.017-.011-.008-.013-.012-.015-.009-.014-.01-.017-.005-.013-.004-.019-.005-.009-.001h-.008l-.01.001-.016.005-.012.003-.009.004-.015.006-.009.006-.009.006-.009.007-.008.008-.023.021-.026.023-.015.013-.039.038-.014.015-.015.014-.014.017-.013.014-.022.026-.01.014-2.898 3.84-.026.033-.02.022-.02.023-.022.022-.032.029-.035.03-.025.017-.05.033-.04.021-.027.015-.026.013-.03.012-.041.015-.042.013-.031.007-.029.008-.044.006-.031.003-.029.003h-.03l-.028.001h-.055l-.04-.006-.027-.004-.038-.008-.03-.004-.038-.012-.025-.007-.038-.015-.026-.01-.036-.017-.036-.018-.024-.014-.033-.022-.023-.017-.02-.016-.023-.016-.02-.018-.02-.018-.018-.019-.018-.018-.017-.02-.018-.02-.018-.02-.016-.022-.022-.032-.014-.024-.019-.034-.012-.024-.016-.037-.012-.025-.018-.05-.007-.026-.007-.025-.006-.028-.007-.038-.004-.027-.001-.025-.003-.04V26.792l.004-.024v-.004l.002-.018.007-.043.006-.022.006-.022.005-.022.007-.022.007-.022.008-.02.01-.02.008-.022.022-.04.01-.018.012-.02.012-.018.013-.02.015-.017.01-.015 3.01-4.04.033-.041.035-.042.035-.04.036-.038.076-.073.038-.037.04-.031.084-.067.044-.03.043-.03.044-.027.045-.027.046-.025.095-.047.05-.023.046-.02.05-.017.05-.019.051-.014.05-.014.052-.015.052-.01.053-.012.052-.009.052-.007.053-.005.052-.004.053-.002.053-.001h.105l.106.008.05.008.053.007.052.009.052.011.05.01.052.015.052.015.048.016.051.018.05.019.048.021.05.022.03.016.03.015.03.016.03.017.028.017.03.018.029.019.027.02.029.02.027.02.028.02.025.021.027.022.025.022.027.024.023.021.049.05.024.024.022.024.021.028.024.025.02.027.021.028 3.005 4.012.013.015.015.02.015.018.013.02.04.06.012.021.012.02.022.044.012.023.012.027.022.066.007.027.009.042.008.041.005.04zM33.92 23.94l-2.23 2.999-.017.021-.022.027-.021.027-.022.028-.046.052-.024.026-.025.023-.024.025-.025.024-.025.024-.026.022-.027.024-.027.022-.028.02-.027.02-.029.021-.027.02-.03.018-.029.02-.03.018-.03.017-.031.018-.031.016-.062.03-.032.017-.033.015-.034.015-.035.013-.033.014-.034.012-.034.01-.036.012-.035.01-.036.01-.035.009-.036.009-.035.008-.036.007-.035.005-.037.005-.036.006-.074.008h-.035l-.037.003-.074.001h-.07l-.034-.003-.034-.004-.035-.002-.035-.003-.032-.004-.035-.005-.035-.005-.034-.008-.032-.006-.036-.006-.032-.01-.033-.007-.034-.009-.034-.011-.098-.032-.03-.014-.033-.012-.033-.013-.062-.028-.03-.015-.062-.033-.03-.016-.029-.019-.028-.018-.03-.018-.027-.02-.028-.018-.026-.02-.028-.022-.027-.022-.025-.021-.027-.022-.025-.022-.025-.024-.024-.023-.023-.025-.024-.024-.024-.025-.022-.026-.021-.026-.022-.028-.022-.027-2.198-3.009-2.161 2.974-.023.027-.022.027-.022.028-.022.025-.022.027-.024.026-.05.048-.05.048-.027.022-.006.006-.02.018-.028.022-.026.02-.028.02-.03.021-.027.02-.028.018-.029.02-.03.018-.03.017-.032.018-.03.016-.029.015-.033.016-.033.016-.035.015-.032.015-.035.013-.032.014-.036.012-.034.01-.037.012-.034.01-.034.01-.037.009-.034.009-.037.008-.036.007-.035.005-.036.005-.036.006-.036.003-.037.005h-.037l-.036.003-.074.001h-.069l-.034-.003-.036-.004-.034-.002-.034-.003-.035-.004-.033-.005-.034-.005-.035-.008-.033-.006-.034-.006-.067-.017-.034-.009-.032-.011-.033-.01-.065-.022-.033-.014-.031-.012-.032-.013-.031-.014-.033-.014-.029-.015-.03-.016-.032-.017-.03-.016-.028-.019-.058-.036-.028-.02-.03-.018-.026-.02-.026-.022-.026-.022-.027-.021-.025-.022-.025-.022-.026-.024-.023-.023-.024-.025-.024-.024-.023-.025-.022-.026-.022-.026-.021-.028-.02-.026-2.483-3.315-.372-.495-.136-.182-.013-.016-.02-.024-.014-.018-.03-.04-.012-.018-.013-.02-.012-.021-.013-.021-.011-.022-.01-.02-.012-.022-.015-.034-.01-.028-.01-.025-.009-.027-.011-.04-.005-.029-.005-.027-.004-.022-.003-.034-.003-.027v-.08l.003-.028v-.027l.004-.025.006-.028.003-.027.01-.038.025-.076.015-.037.012-.025.012-.024.012-.023.015-.024.022-.033.023-.032.024-.03.018-.022.02-.02.032-.032.043-.037.045-.036.033-.021.047-.029.036-.018.052-.024.038-.014.036-.011.038-.01.057-.012.056-.01h.04l.038-.003.04.003.057.003.038.005.038.008.039.009.036.01.036.013.036.013.037.016.034.019.05.028.032.022.045.035.03.025.028.026.027.027.026.028.024.031.015.02 2.848 3.795.02.025.015.017.014.016.014.019.024.023.016.017.017.015.016.015.016.016.017.015.019.016.025.024.018.015.007.007.01.005.008.005.01.006.018.006.018.006.014.003h.017l.01-.003.01-.003.01-.001.01-.006.01-.003.015-.01.007-.005.014-.012.01-.009.016-.016.018-.016.018-.012.016-.015.015-.015.021-.022.022-.023.022-.023.012-.016.015-.015.01-.017 2.71-3.663.014-.019.026-.03.02-.016.032-.028.02-.018.02-.017.025-.014.034-.022.024-.015.024-.012.038-.018.027-.01.038-.014.028-.01.027-.006.028-.007.027-.006.027-.003.03-.005.041-.003.029-.001h.07l.032-.003.03.003h.03l.029.004.029.005.03.004.027.006.028.008.03.008.027.01.027.01.027.012.025.013.04.021.025.014.024.017.021.016.023.016.023.018.02.02.02.02.017.02.019.023.024.028.043.053.068.085.028.043 2.545 3.45v.002l.013.015.015.018.013.016.003.002.015.014.015.017.022.023.025.026.018.014.025.022.02.017.016.016.01.01.01.008.015.01.007.004.017.008.009.003.022.007.01.003h.017l.017-.004.01-.002.017-.007.009-.003.009-.006.009-.006.01-.007.006-.005.018-.02.02-.017.017-.015.014-.012.024-.022.015-.014.043-.048.015-.014.013-.016.012-.016.02-.026 2.884-3.82.016-.022.024-.03.04-.04.043-.038.028-.026.046-.032.05-.031.048-.026.037-.017.034-.014.037-.013.054-.014.039-.009.037-.008.055-.004.038-.003h.039l.038.003h.037l.037.006.039.007.038.01.052.017.037.012.037.014.034.017.049.025.032.022.046.03.03.026.043.036.022.024.027.029.019.02.022.031.017.022.014.022.015.024.013.022.012.024.019.035.011.025.013.039.009.025.01.037.008.027.004.027v.001l.005.024.005.04.002.028.002.025v.101l-.002.024-.002.022-.004.023-.003.021-.003.023-.006.022-.01.043-.009.022-.009.022-.007.021-.009.02-.011.02-.01.02-.01.02-.012.02-.013.02-.013.019-.013.018-.014.018-.011.014-.013.017-.04.053-.703.947zM57.638 26.288l-.002.024v.046l-.003.046-.002.024-.002.023-.004.024-.003.022-.004.024-.003.023-.004.023-.005.022-.006.024-.006.022-.005.024-.007.022-.006.021-.007.023-.007.023-.008.022-.009.021-.01.022-.008.022-.01.022-.017.043-.011.02-.011.022-.01.02-.012.02-.013.022-.01.02-.013.018-.013.02-.013.02-.014.02-.013.018-.014.017-.006.008-.009.013-.015.018-.014.019-.014.016-.017.018-.017.018-.016.016-.03.033-.017.016-.017.016-.018.017-.016.014-.018.017-.019.014-.018.015-.018.014-.02.013-.018.015-.02.012-.018.013-.04.025-.02.013-.02.011-.008.004-.013.006-.04.023-.022.01-.023.01-.087.036-.022.007-.043.015-.024.007-.022.006-.022.006-.024.006-.022.006-.022.003-.024.006-.022.003-.024.004-.023.002-.024.003-.022.003h-.024l-.047.004h-.024l-.024.003h-.023l-.07-.003h-.035l-.035-.004-.069-.008-.033-.006-.034-.005-.032-.008-.036-.006-.032-.007-.05-.015-.03-.01-.031-.01-.048-.017-.044-.018-.061-.025-.041-.022-.031-.016-.028-.014-.03-.019-5.284-3.353-.373-.21-.048-.024-.032-.015-.026-.01-.026-.006-.025-.006-.027-.006h-.064l-.022.012-.018.015-.019.023-.01.02-.011.025-.01.031-.004.018-.005.028-.003.027-.005.027-.004.027-.004.027v.027l-.005.028-.004.028v.028l-.003.027-.004.028-.002.027-.001.027-.002.029v.027l-.002.028v.027l-.002.028v2.4l-.002.037-.001.028-.002.027-.004.028-.006.025-.005.027-.01.038-.008.027-.013.037-.016.037-.01.024-.014.025-.013.024-.012.022-.015.023-.023.033-.017.022-.026.03-.018.021-.063.063-.02.017-.02.018-.021.016-.034.022-.024.015-.023.014-.048.026-.023.01-.026.012-.025.009-.038.012-.026.007-.026.006-.04.009-.027.003-.04.006-.026.001h-.134l-.038-.007-.028-.003-.04-.008-.027-.007-.025-.007-.05-.018-.026-.01-.026-.01-.023-.01-.026-.013-.024-.015-.032-.02-.024-.017-.022-.015-.021-.017-.02-.017-.02-.018-.02-.018-.018-.017-.017-.021-.019-.02-.017-.02-.017-.022-.021-.033-.015-.021-.014-.023-.013-.024-.018-.035-.012-.026-.014-.035-.01-.027-.008-.025-.005-.027-.008-.025-.007-.04-.006-.038-.003-.027-.003-.04v-3.726l.005-.047.001-.024.002-.024.004-.02v-.001l.002-.023.004-.024.005-.022.004-.024.003-.021.006-.024.005-.022.005-.023.006-.017.002-.005.005-.021.008-.024.007-.022.005-.013.004-.009.007-.021.009-.022.008-.023.01-.022.01-.021.009-.02.01-.021.011-.021.012-.022.021-.04.013-.02.011-.02.013-.02.013-.017.013-.02.014-.02.014-.016.005-.008.01-.013.014-.018.015-.018.014-.016.015-.019.016-.018.017-.016.016-.016.016-.017.016-.016.017-.016.019-.017.018-.014.016-.015.018-.016.019-.015.019-.014.018-.013.02-.015.02-.012.059-.038.02-.011.001-.002.019-.011.021-.01.021-.012.022-.011.02-.01.02-.01.023-.009.021-.009.022-.009.022-.007.023-.008.021-.009.023-.007.02-.005h.002l.022-.007.024-.006.022-.006.024-.004.024-.006.021-.003.023-.005.048-.007.022-.003.094-.007h.126l.034.001.033.002.034.004.034.003.034.006.033.006.032.004.034.008.006.001.028.006.065.018.03.01.032.01.03.011.046.018.031.013.031.012.03.013.028.015.03.016.029.015.03.018 5.278 3.357.381.215.02.01.005.003.016.008.017.01.018.004.017.008.016.006.018.003.019.006.027.003.018.004H55.847l.023-.006.016-.01.019-.019.011-.017.01-.02.01-.024.009-.031.003-.018.006-.028.003-.027.004-.028.004-.027.004-.027.003-.027.004-.027.003-.027.002-.028.004-.028.002-.028.001-.027.004-.028.002-.027v-.027l.002-.029.001-.027v-.028L56 25.04v-2.404l.003-.025.002-.027.004-.028.003-.025.006-.027.005-.025.008-.025.006-.027.01-.025.009-.025.009-.026.011-.023.013-.025.018-.035.014-.023.022-.033.017-.022.016-.022.016-.02.018-.02.018-.02.022-.022.028-.023.04-.035.043-.031.031-.02.046-.025.033-.017.032-.014.033-.012.069-.023.034-.007.036-.007.035-.005.035-.004.036-.003h.07l.038.003.034.004.036.005.036.007.034.007.069.023.033.012.032.014.033.017.031.019.029.017.03.02.03.02.028.024.027.024.023.023.02.018.019.02.016.02.018.02.016.022.022.033.015.023.015.022.012.026.019.034.01.025.01.025.008.027.01.025.007.025.008.04.008.038.004.027.003.04.002.027v3.631l.002.022z" fill="#fff"></path><path d="M8.127 34.516a.967.967 0 01-.584-.172 1.09 1.09 0 01-.361-.472 1.735 1.735 0 01-.123-.67c0-.246.042-.474.123-.67.083-.198.205-.353.366-.468.16-.113.358-.17.592-.17a.98.98 0 01.588.173c.164.115.289.272.376.469.088.197.131.42.131.667 0 .246-.043.471-.131.669a1.126 1.126 0 01-.38.471 1.015 1.015 0 01-.597.173zM7 35.55v-3.586h.306v1.87h.036v1.716H7h.001zm1.09-1.35c.174 0 .32-.043.436-.13a.79.79 0 00.26-.357c.058-.152.088-.322.088-.51 0-.189-.029-.355-.086-.506a.768.768 0 00-.262-.356.71.71 0 00-.443-.132c-.18 0-.319.043-.435.127-.115.085-.2.201-.258.352a1.43 1.43 0 00-.086.515c0 .194.029.363.086.515.057.15.143.268.26.354.115.085.262.129.44.129zM11.066 34.56c-.254 0-.472-.058-.651-.17a1.117 1.117 0 01-.414-.472 1.585 1.585 0 01-.145-.692c0-.26.05-.497.147-.697.098-.2.237-.354.416-.465.182-.111.397-.167.646-.167.25 0 .474.057.654.17.181.112.319.268.414.469.096.2.144.43.144.69 0 .26-.048.498-.144.699-.096.2-.235.355-.417.467a1.216 1.216 0 01-.65.167zm0-.33c.283 0 .495-.093.633-.28.139-.187.208-.429.208-.726 0-.296-.07-.547-.21-.73-.138-.18-.349-.27-.631-.27a.819.819 0 00-.474.13.766.766 0 00-.277.352c-.06.15-.09.322-.09.518 0 .304.07.549.213.732.141.183.35.273.626.273h.002zM13.533 34.435l-.76-2.54.338.002.59 1.971.592-1.971h.309l.592 1.971.595-1.971h.337l-.76 2.537h-.295l-.622-2.021-.62 2.02h-.295l-.002.002zM17.798 34.56c-.24 0-.448-.056-.624-.164a1.102 1.102 0 01-.408-.46 1.561 1.561 0 01-.145-.697c0-.266.048-.513.143-.714.096-.201.23-.357.403-.465.175-.109.38-.163.616-.163.237 0 .45.057.621.172.172.114.301.277.39.491.087.213.127.468.12.764h-.343v-.121c-.005-.328-.075-.575-.207-.741-.13-.167-.321-.25-.574-.25-.253 0-.467.088-.608.263-.14.176-.21.428-.21.753s.07.565.21.741c.14.175.34.261.599.261.176 0 .33-.04.46-.124a.87.87 0 00.312-.362l.312.123a1.136 1.136 0 01-1.07.692h.003zm-.94-1.237v-.288h1.878v.288h-1.878zM19.724 34.435v-2.519h.309v.606l-.06-.078a.928.928 0 01.11-.206.669.669 0 01.147-.156.656.656 0 01.229-.13.928.928 0 01.507-.036v.322a.847.847 0 00-.302-.016.584.584 0 00-.302.13.61.61 0 00-.188.235c-.043.09-.07.186-.085.29-.014.1-.02.2-.02.3v1.258h-.344zM22.733 34.56c-.246 0-.46-.056-.641-.164-.18-.11-.32-.263-.419-.46-.1-.198-.15-.43-.15-.697 0-.266.05-.513.148-.714.098-.201.237-.357.414-.465a1.2 1.2 0 01.634-.163c.243 0 .462.057.638.172.176.114.31.277.4.491.09.213.132.468.124.764h-.351v-.121c-.006-.328-.077-.575-.213-.741-.134-.167-.33-.25-.59-.25-.258 0-.478.088-.624.263-.143.176-.215.428-.215.753s.072.565.215.741c.146.175.35.261.616.261.18 0 .338-.04.472-.124a.863.863 0 00.32-.362l.32.123c-.099.22-.246.39-.44.512a1.22 1.22 0 01-.658.18zm-.966-1.237v-.288h1.93v.288h-1.93zM25.612 34.56c-.233 0-.433-.059-.597-.174a1.135 1.135 0 01-.38-.475 1.652 1.652 0 01-.132-.675c0-.251.044-.473.13-.673.088-.2.214-.357.377-.472a.986.986 0 01.588-.174c.229 0 .433.057.593.171.16.115.281.271.363.47.084.198.125.424.125.678 0 .253-.041.474-.122.675-.083.2-.203.357-.362.475a.96.96 0 01-.583.173zm.034-.318a.717.717 0 00.44-.13.769.769 0 00.26-.358c.057-.153.086-.326.086-.52a1.47 1.47 0 00-.086-.519.757.757 0 00-.26-.355.71.71 0 00-.433-.128.732.732 0 00-.445.133.777.777 0 00-.262.36 1.46 1.46 0 00-.083.51c0 .19.028.362.085.515a.801.801 0 00.262.36.7.7 0 00.436.132zm.785.248v-1.884h-.037v-1.454h.343v3.338h-.306zM30.035 34.56a.967.967 0 01-.583-.174 1.1 1.1 0 01-.362-.475 1.764 1.764 0 01-.122-.675c0-.249.041-.48.122-.677.084-.2.205-.356.366-.47a.995.995 0 01.593-.172c.234 0 .424.058.588.174.163.116.288.274.375.472.088.2.132.424.132.673 0 .249-.044.475-.132.675a1.13 1.13 0 01-.38.475 1.007 1.007 0 01-.597.173zm-1.125-.07v-3.338h.343v1.454h-.037v1.884h-.306zm1.09-.248c.174 0 .319-.045.436-.133a.79.79 0 00.26-.36c.058-.152.087-.324.087-.514s-.028-.359-.085-.51a.777.777 0 00-.262-.36.711.711 0 00-.443-.133c-.18 0-.32.043-.436.128a.762.762 0 00-.257.355c-.058.15-.086.323-.086.52 0 .196.029.366.086.52.057.151.143.27.26.357.116.087.261.13.44.13zM32.184 35.55l.486-1.328.007.394-1.099-2.72h.363l.901 2.276h-.149l.832-2.275h.349l-1.349 3.655h-.342l.001-.002zM35.798 34.435V31.15H37.1c.222 0 .404.044.544.135a.823.823 0 01.317.34.94.94 0 01.105.428.79.79 0 01-.13.46.627.627 0 01-.349.256v-.114a.752.752 0 01.469.294.846.846 0 01.161.509c0 .19-.038.365-.112.51a.801.801 0 01-.333.343 1.093 1.093 0 01-.542.123h-1.433.001zm.556-.517h.809c.096 0 .181-.02.257-.057a.447.447 0 00.244-.418.497.497 0 00-.058-.238.423.423 0 00-.165-.167.515.515 0 00-.262-.063h-.825v.943zm0-1.455h.739c.079 0 .15-.015.211-.046a.36.36 0 00.15-.135.41.41 0 00.054-.219.396.396 0 00-.11-.285.402.402 0 00-.305-.114h-.74v.798zM40.118 34.56c-.254 0-.477-.056-.668-.166a1.178 1.178 0 01-.45-.46 1.4 1.4 0 01-.16-.677c0-.276.052-.515.157-.718a1.15 1.15 0 01.44-.473c.187-.112.403-.168.65-.168.259 0 .48.061.66.185.183.12.318.293.406.516.089.222.122.485.1.788h-.555v-.206c-.001-.274-.05-.474-.144-.6-.094-.127-.242-.19-.446-.19-.229 0-.4.072-.51.215-.111.141-.167.349-.167.623 0 .256.056.453.167.594.11.14.273.21.487.21.137 0 .256-.03.356-.091a.608.608 0 00.232-.269l.552.168a1.13 1.13 0 01-.446.531c-.199.127-.42.19-.66.19v-.003zm-.863-1.176v-.424h1.724v.424h-1.724zM43.557 34.456c-.17.031-.338.044-.503.04a1.191 1.191 0 01-.437-.086.596.596 0 01-.293-.26.703.703 0 01-.093-.33 12.446 12.446 0 01-.005-.38v-2.166h.575v2.133c0 .1 0 .188.002.263.003.075.02.137.05.185.057.092.149.144.275.154.126.01.269.005.43-.018v.465h-.001zm-1.8-2.054v-.436h1.8v.436h-1.8zM45.734 34.56c-.215 0-.42-.04-.608-.116a1.453 1.453 0 01-.496-.344 1.593 1.593 0 01-.333-.553c-.08-.22-.12-.471-.12-.754 0-.37.067-.686.203-.949.136-.264.32-.466.556-.605.236-.142.501-.213.798-.213.41 0 .733.098.972.293.24.193.402.465.487.814l-.568.091a.998.998 0 00-.31-.48.82.82 0 00-.547-.182.932.932 0 00-.556.148.938.938 0 00-.335.43 1.736 1.736 0 00-.111.65c0 .248.036.464.11.648a.924.924 0 00.334.426c.15.102.336.154.558.158a.967.967 0 00.441-.092.774.774 0 00.31-.29c.08-.13.133-.292.16-.487h-.586v-.446h1.177c.003.025.005.062.007.111 0 .05.002.078.002.087 0 .32-.063.605-.188.854-.122.248-.3.443-.53.583a1.554 1.554 0 01-.829.213l.002.004zM48.75 34.56a.966.966 0 01-.465-.104.721.721 0 01-.384-.66c0-.12.02-.23.06-.327a.645.645 0 01.188-.252.978.978 0 01.328-.175c.102-.033.221-.063.357-.09.139-.026.286-.05.446-.071l.505-.074-.201.114c0-.175-.038-.303-.118-.386-.08-.082-.214-.123-.404-.123a.723.723 0 00-.33.08.44.44 0 00-.224.272l-.516-.16a.956.956 0 01.357-.514c.176-.13.416-.195.714-.195.225 0 .423.037.594.11.172.073.3.193.383.36a.78.78 0 01.082.273c.01.09.014.191.014.301v1.55h-.495v-.547l.082.089a1.133 1.133 0 01-.401.401 1.163 1.163 0 01-.571.127h-.001zm.112-.45a.737.737 0 00.328-.067.648.648 0 00.327-.35.705.705 0 00.05-.246c.004-.094.006-.169.006-.227l.174.051c-.17.026-.317.05-.44.07-.122.02-.226.04-.314.058a2.006 2.006 0 00-.232.058.686.686 0 00-.167.083.36.36 0 00-.105.107.273.273 0 00-.036.143c0 .063.016.117.047.165a.325.325 0 00.136.112c.061.029.136.042.226.042v.002zM53.987 34.435V32.93c0-.17-.042-.303-.127-.397a.431.431 0 00-.342-.145c-.089 0-.168.02-.239.061-.07.04-.127.1-.168.18a.59.59 0 00-.062.28l-.246-.146a.852.852 0 01.115-.452.845.845 0 01.321-.307.93.93 0 01.45-.11c.275 0 .485.083.63.248.148.163.22.38.22.647v1.646h-.553.001zm-2.984 0v-2.478h.49v.768h.068v1.71h-.558zm1.496 0v-1.498c0-.173-.042-.307-.127-.404a.434.434 0 00-.344-.145.424.424 0 00-.34.145.553.553 0 00-.126.376l-.248-.165c0-.161.04-.305.119-.434a.845.845 0 01.321-.303.927.927 0 01.457-.112c.185 0 .34.04.464.12.126.077.22.184.28.32.063.135.095.287.095.457v1.643h-.55zM56.598 34.56c-.261 0-.49-.056-.685-.166a1.19 1.19 0 01-.463-.46 1.365 1.365 0 01-.164-.677c0-.276.053-.515.162-.718a1.17 1.17 0 01.45-.473 1.3 1.3 0 01.668-.168c.266 0 .493.061.678.185.188.12.326.293.416.516.09.222.125.485.102.788h-.568v-.206c-.003-.274-.052-.474-.148-.6-.097-.127-.25-.19-.457-.19-.235 0-.41.072-.524.215-.115.141-.172.349-.172.623 0 .256.057.453.172.594.114.14.281.21.5.21.14 0 .263-.03.363-.091a.613.613 0 00.238-.269l.566.168c-.098.227-.25.404-.457.531a1.26 1.26 0 01-.678.19v-.003zm-.886-1.176v-.424h1.769v.424h-1.769zM59.48 34.56c-.304 0-.552-.07-.743-.21a.877.877 0 01-.348-.592l.563-.09a.484.484 0 00.192.295c.1.072.224.108.375.108a.504.504 0 00.307-.08.263.263 0 00.11-.222.215.215 0 00-.041-.138c-.027-.035-.084-.07-.174-.103a4.993 4.993 0 00-.414-.123 2.508 2.508 0 01-.495-.18.663.663 0 01-.263-.232.623.623 0 01-.08-.322.7.7 0 01.121-.411.767.767 0 01.34-.269c.144-.064.315-.096.511-.096.197 0 .362.031.51.092.15.06.27.147.362.259a.79.79 0 01.17.395l-.563.103a.362.362 0 00-.145-.255.572.572 0 00-.324-.105.537.537 0 00-.314.06.22.22 0 00-.119.2c0 .047.016.088.048.123a.512.512 0 00.192.102c.098.035.243.077.435.127.197.051.354.11.471.178a.625.625 0 01.257.237c.053.092.08.203.08.334 0 .254-.09.453-.273.598-.18.145-.428.217-.747.217z" fill="#A6B4C6"></path><path d="M118.969 28.95v-1.247l3.663-3.259c.286-.253.483-.493.594-.718.111-.226.167-.443.167-.653 0-.286-.061-.538-.184-.76a1.376 1.376 0 00-.511-.534 1.403 1.403 0 00-.744-.196c-.297 0-.56.07-.79.207a1.444 1.444 0 00-.53.54c-.127.227-.186.47-.178.73h-1.475c0-.57.127-1.066.381-1.49a2.646 2.646 0 011.058-.985c.452-.233.974-.35 1.564-.35.547 0 1.039.121 1.475.367.435.24.779.578 1.028 1.01.249.426.374.92.374 1.478 0 .407-.055.75-.167 1.026a2.412 2.412 0 01-.5.767c-.218.232-.49.493-.814.777l-2.599 2.297-.131-.356h4.211v1.348h-5.893.001zM129.616 28.961v-1.412h-3.794v-1.336l2.742-5.8h1.635l-2.741 5.8h2.158v-2.227h1.452v2.227h.803v1.335h-.803v1.413h-1.452zM135.46 20.413l-2.283 8.548h1.439l2.283-8.548h-1.439zM138.876 28.961l2.95-7.195h-3.741v-1.353h5.275v1.353l-2.938 7.195h-1.546z" fill="#fff"></path></svg>