<svg width="155" height="56" viewBox="0 0 155 56" fill="none" xmlns="http://www.w3.org/2000/svg">
<path fill-rule="evenodd" clip-rule="evenodd" d="M5.30979 40.031L7.29662 41.711C7.46041 41.8459 7.64772 41.9198 7.83949 41.9252C8.03126 41.9305 8.22066 41.8671 8.38843 41.7414C8.5562 41.6157 8.69636 41.4321 8.79466 41.2095C8.89296 40.9868 8.94589 40.7329 8.94807 40.4735V21.7443C8.95094 21.4895 9.00207 21.24 9.09657 21.0196C9.19107 20.7991 9.32579 20.6151 9.48787 20.4852L26.8148 7L31.3096 10.5135L13.9399 24.0457C13.7764 24.1737 13.6407 24.3576 13.5464 24.5789C13.4522 24.8002 13.4026 25.0512 13.4027 25.3066V52.4413L0.724183 42.5221C0.505618 42.3521 0.324045 42.1072 0.197748 41.8121C0.0702564 41.5144 0.00211702 41.177 0 40.833V14.8255C0.00273961 14.5708 0.0538113 14.3212 0.148326 14.1007C0.242841 13.8803 0.377632 13.6963 0.539796 13.5665L17.8748 0L22.3682 3.51355L5.00782 16.9806C4.84348 17.1108 4.70696 17.2964 4.61163 17.5194C4.5163 17.7423 4.46543 17.9949 4.46402 18.2524V37.9644C4.46669 38.3799 4.54418 38.7863 4.69116 39.1476C4.83947 39.5089 5.05191 39.8124 5.30979 40.031Z" fill="#1DE9B6"/>
<path fill-rule="evenodd" clip-rule="evenodd" d="M31.1613 31.0872L26.573 34.6892C26.3539 34.8627 26.1722 35.1138 26.0439 35.4154C25.9167 35.7184 25.8495 36.0606 25.8488 36.409V42.3432L35.0281 35.1083C35.2472 34.9331 35.4289 34.6838 35.5558 34.3839C35.6828 34.0823 35.7509 33.7427 35.7522 33.394V15.9545C35.749 15.6975 35.6975 15.4458 35.6027 15.223C35.5078 15.0003 35.3726 14.8138 35.2098 14.681C35.0475 14.5523 34.8631 14.4836 34.6751 14.4817C34.487 14.4798 34.3018 14.5448 34.1382 14.6701L18.4213 27.0696C18.2559 27.2014 18.1191 27.3896 18.0244 27.6153C17.9296 27.841 17.8804 28.0963 17.8815 28.3558V55.9999L21.4089 53.1999C21.628 53.0265 21.8097 52.7772 21.9366 52.4774C22.0649 52.1757 22.1317 51.8343 22.1344 51.4856V32.2668C22.1354 32.0089 22.185 31.7557 22.2786 31.531C22.3721 31.3063 22.5064 31.1175 22.6688 30.9824L31.7251 23.762V29.7829C31.7237 30.048 31.6709 30.3079 31.572 30.5368C31.473 30.7657 31.3314 30.9554 31.1613 31.0872Z" fill="#1DE9B6"/>
<path d="M56.9192 16.2797H59.3243V26.1809C59.3596 27.2976 59.2287 28.4125 58.9394 29.4596C58.6516 30.5016 58.2107 31.454 57.6434 32.2596C57.0667 33.0339 56.3768 33.6368 55.6178 34.0299C54.8626 34.4204 54.0549 34.5915 53.2475 34.5321C52.4399 34.5835 51.6332 34.4075 50.8786 34.0154C50.1201 33.6216 49.4297 33.0208 48.8503 32.2505C48.2874 31.4404 47.8495 30.4867 47.5623 29.4451C47.2737 28.3995 47.1407 27.2871 47.1708 26.1718V16.2797H49.5718V26.1809C49.5418 26.8696 49.6145 27.5595 49.7856 28.2095C49.9566 28.8598 50.2225 29.4542 50.5659 29.9564C50.9106 30.4585 51.3262 30.8596 51.7871 31.1342C52.4813 31.5477 53.2539 31.6564 53.9963 31.4452C54.7386 31.2339 55.4132 30.7132 55.9251 29.9564C56.2685 29.4542 56.5344 28.8598 56.7054 28.2113C56.8767 27.5607 56.9494 26.8702 56.9192 26.1809V16.2815V16.2797ZM66.836 30.2851C67.3284 30.3274 67.822 30.2323 68.2861 30.0058C68.7501 29.7792 69.1748 29.4261 69.5336 28.9682C70.2364 27.8482 70.5892 26.3868 70.5117 24.9091C70.6196 23.3264 70.269 21.7488 69.5336 20.5086C69.1763 20.0459 68.7505 19.6906 68.2843 19.4663C67.8204 19.2436 67.3266 19.1574 66.836 19.2134C66.3451 19.1685 65.8527 19.2603 65.3891 19.4831C64.9256 19.7059 64.5008 20.0549 64.141 20.5086C63.8024 21.0164 63.5416 21.61 63.3737 22.2549C63.2058 22.8999 63.1342 23.5834 63.163 24.266V40.0869H60.7579V24.2642C60.7898 22.6178 61.1665 21.0174 61.8442 19.6487C62.5161 18.2915 63.4635 17.2252 64.5726 16.5778C65.6753 15.9344 66.8931 15.7416 68.0759 16.0232C69.2615 16.3075 70.3603 17.0519 71.2385 18.1656C71.8339 19.0812 72.2894 20.147 72.5787 21.3016C72.8686 22.4596 72.9875 23.6862 72.9301 24.9073C72.9909 26.803 72.6327 28.6802 71.9013 30.2996C71.2951 31.5642 70.4076 32.5358 69.3666 33.0743C68.5629 33.507 67.7035 33.7186 66.8386 33.6969C65.9737 33.6752 65.1207 33.4206 64.3294 32.9478V29.2103C65.0429 29.9726 65.9328 30.3538 66.836 30.2851ZM83.0526 32.5884C82.2288 33.0086 81.3542 33.2169 80.4739 33.2025C79.6662 33.2529 78.8596 33.0764 78.1049 32.6841C77.347 32.2897 76.6571 31.6889 76.078 30.9192C75.5136 30.1092 75.0747 29.1548 74.7873 28.112C74.4988 27.0651 74.3667 25.9514 74.3985 24.8351C74.3503 23.6654 74.4743 22.4945 74.7632 21.3902C75.0519 20.2882 75.4981 19.2766 76.078 18.4167C76.6518 17.638 77.3413 17.0327 78.1009 16.641C78.857 16.251 79.6662 16.0847 80.4739 16.1533C81.2808 16.1022 82.0868 16.2768 82.8415 16.6663C83.5993 17.0573 84.2899 17.6536 84.8711 18.4185C85.4483 19.2784 85.8946 20.2882 86.1832 21.392C86.4718 22.4939 86.5974 23.6645 86.5506 24.8351V31.546C86.5855 32.6581 86.4561 33.7685 86.1698 34.8121C85.8846 35.852 85.4474 36.8036 84.8844 37.6103C84.3086 38.3871 83.6205 38.9922 82.8669 39.3878C82.1132 39.7829 81.3066 39.9595 80.4993 39.9063H76.7447V36.6005H80.4993C80.9786 36.6654 81.4627 36.5864 81.9169 36.3693C82.3712 36.1525 82.7881 35.802 83.1354 35.3432C83.4828 34.8844 83.7527 34.328 83.9278 33.7102C84.1028 33.0942 84.179 32.4312 84.1509 31.77C84.1318 31.7807 84.1152 31.7982 84.1028 31.8206L84.1402 31.77V25.6715C84.1437 25.6282 84.1437 25.5846 84.1402 25.5414V24.8351C84.2236 23.3546 83.8706 21.8896 83.1582 20.7597C82.7992 20.3016 82.3738 19.9491 81.9089 19.7246C81.4464 19.5009 80.9544 19.4105 80.4645 19.4591C79.9748 19.4159 79.4837 19.5088 79.0215 19.7318C78.557 19.9564 78.1311 20.306 77.7695 20.7597C77.061 21.8925 76.709 23.3555 76.7888 24.8351C76.7397 25.5149 76.8008 26.201 76.9679 26.8456C77.1349 27.4905 77.4034 28.074 77.7548 28.56C78.1062 29.0441 78.5298 29.4144 78.9988 29.6438C79.4664 29.8751 79.9661 29.9582 80.4605 29.8913C81.3779 29.9521 82.2844 29.6015 83.0392 28.8942L83.0526 32.5884ZM96.9016 29.2609V33.2459C96.9026 33.2575 96.9002 33.2692 96.8949 33.2784C96.8925 33.2833 96.8894 33.2874 96.8857 33.2906C96.882 33.2937 96.8779 33.2957 96.8735 33.2965L95.0631 33.5964C93.9797 33.7927 92.8771 33.6034 91.8644 33.0472C90.8236 32.5046 89.9364 31.5309 89.3298 30.2653C88.5993 28.6462 88.2429 26.7693 88.3063 24.8748C88.2578 23.7053 88.3813 22.5344 88.6697 21.4299C88.9583 20.328 89.4059 19.3164 89.9858 18.4583C90.5596 17.6795 91.2491 17.0743 92.0087 16.6825C92.7648 16.2927 93.574 16.1264 94.3817 16.1948C95.1959 16.1236 96.0118 16.2918 96.7733 16.688C97.5349 17.0854 98.227 17.6996 98.8043 18.4926C99.3788 19.2856 99.8264 20.2376 100.114 21.2872C100.401 22.3373 100.523 23.4572 100.472 24.5749V33.2459H98.0721V24.5767C98.1005 23.8939 98.0285 23.2101 97.8602 22.5652C97.6918 21.9202 97.4305 21.3268 97.0913 20.8193C96.7324 20.3643 96.308 20.014 95.8446 19.7902C95.3812 19.5664 94.8887 19.474 94.3977 19.5187C93.9053 19.4746 93.4114 19.5664 92.946 19.7884C92.4807 20.0105 92.0536 20.3581 91.6907 20.8103C90.9792 21.9409 90.6263 23.4053 90.7086 24.8856C90.6676 25.6178 90.7334 26.3538 90.9024 27.0516C91.0707 27.7489 91.3393 28.392 91.6907 28.9447C92.0515 29.4054 92.4763 29.7595 92.9386 29.9853C93.4023 30.2129 93.894 30.305 94.3857 30.2616C95.2718 30.326 96.146 29.9623 96.8522 29.2356C96.8532 29.2309 96.8549 29.2266 96.8572 29.2229C96.8595 29.2192 96.8623 29.2161 96.8655 29.2139C96.8689 29.2117 96.8725 29.2104 96.8762 29.2103L96.8856 29.2121C96.889 29.2135 96.8922 29.2158 96.895 29.2189C96.8977 29.222 96.9 29.2258 96.9016 29.2302C96.9033 29.235 96.9041 29.2402 96.9041 29.2455C96.9041 29.2508 96.9033 29.2561 96.9016 29.2609ZM112.418 18.5649C112.931 17.8224 113.548 17.2299 114.234 16.8253C114.917 16.4211 115.655 16.2124 116.401 16.2124C117.147 16.2124 117.885 16.4211 118.568 16.8253C119.254 17.2299 119.871 17.8224 120.384 18.5649C121.391 20.2521 121.906 22.3787 121.834 24.5442V33.2513H119.433V24.5804C119.499 23.201 119.191 21.8362 118.567 20.7416C118.282 20.3542 117.943 20.0466 117.57 19.8364C117.197 19.6262 116.797 19.5176 116.393 19.5169C115.581 19.5169 114.8 19.9576 114.221 20.7416C113.605 21.8415 113.303 23.2043 113.371 24.5804V33.2513H110.944V24.5804C111.011 23.2041 110.709 21.8414 110.093 20.7416C109.809 20.3542 109.47 20.0466 109.097 19.8365C108.724 19.6263 108.325 19.5177 107.921 19.5169C107.107 19.5169 106.327 19.9576 105.748 20.7416C105.126 21.8373 104.819 23.2018 104.886 24.5804V33.2513H102.477V24.5804C102.401 22.4145 102.917 20.2864 103.926 18.601C104.436 17.8575 105.054 17.2636 105.741 16.856C106.425 16.4508 107.164 16.2417 107.91 16.2417C108.656 16.2417 109.395 16.4508 110.079 16.856C110.765 17.264 111.383 17.8579 111.893 18.601C111.98 18.7401 112.063 18.881 112.139 19.0201L112.418 18.5649ZM126.232 33.2459H123.835V18.1801C123.835 17.7411 123.962 17.3202 124.187 17.0113C124.297 16.8581 124.429 16.7361 124.574 16.6524C124.719 16.5687 124.876 16.5249 125.034 16.5236C125.353 16.5236 125.659 16.6988 125.885 17.0095C126.111 17.3218 126.237 17.7415 126.236 18.1783L126.232 33.2459ZM140.854 33.2495H138.45V24.5785C138.481 23.8957 138.41 23.2114 138.242 22.5661C138.074 21.9208 137.812 21.3275 137.472 20.8211C136.711 19.9807 135.758 19.5212 134.776 19.5205C133.795 19.5205 132.845 19.9793 132.079 20.8211C131.737 21.3261 131.474 21.9191 131.306 22.5647C131.137 23.2103 131.067 23.8953 131.099 24.5785V33.2495H128.698V24.5785C128.663 23.4603 128.793 22.3439 129.081 21.2944C129.368 20.249 129.808 19.2925 130.374 18.4818C130.949 17.7033 131.639 17.0981 132.399 16.706C133.155 16.3165 133.965 16.1502 134.773 16.2183C135.586 16.1454 136.4 16.3118 137.161 16.706C137.924 17.1025 138.615 17.7161 139.187 18.5053C139.763 19.2983 140.208 20.2485 140.496 21.2962C140.782 22.344 140.903 23.464 140.85 24.5804L140.854 33.2495ZM151.489 32.5884C150.667 33.0086 149.794 33.2169 148.915 33.2025C148.106 33.2535 147.298 33.0769 146.543 32.6841C145.785 32.2898 145.094 31.6891 144.515 30.9192C143.952 30.1082 143.514 29.154 143.227 28.112C142.938 27.0653 142.805 25.9516 142.835 24.8351C142.787 23.6654 142.911 22.4945 143.2 21.3902C143.489 20.2882 143.936 19.2766 144.515 18.4167C145.089 17.6382 145.779 17.0329 146.539 16.641C147.296 16.251 148.106 16.0846 148.915 16.1533C149.721 16.1027 150.527 16.2773 151.281 16.6663C152.038 17.0577 152.729 17.6539 153.31 18.4185C153.889 19.2766 154.337 20.2882 154.625 21.3902C154.914 22.4921 155.038 23.6645 154.99 24.8351V31.546C155.025 32.6589 154.895 33.77 154.608 34.8139C154.322 35.8532 153.884 36.8041 153.321 37.6103C152.744 38.3871 152.057 38.9922 151.302 39.386C150.549 39.781 149.743 39.9583 148.936 39.9063H145.18V36.5987H148.936C149.416 36.6662 149.902 36.5889 150.358 36.3725C150.814 36.156 151.228 35.8057 151.572 35.3468C151.919 34.8862 152.191 34.3298 152.366 33.712C152.541 33.0942 152.616 32.4312 152.586 31.77C152.568 31.7816 152.552 31.7989 152.539 31.8206L152.576 31.77V25.6715C152.58 25.6283 152.58 25.5846 152.576 25.5414V24.8351C152.662 23.3554 152.311 21.8897 151.599 20.7597C151.24 20.301 150.815 19.9479 150.35 19.7228C149.887 19.4993 149.394 19.4095 148.904 19.4591C148.413 19.419 147.92 19.5135 147.457 19.737C146.993 19.9605 146.568 20.3084 146.206 20.7597C145.853 21.3187 145.585 21.9664 145.417 22.6657C145.249 23.365 145.185 24.1022 145.228 24.8351C145.179 25.5161 145.24 26.2025 145.407 26.8474C145.574 27.4924 145.843 28.0776 146.196 28.5618C146.545 29.0445 146.971 29.4149 147.441 29.6456C147.91 29.8751 148.409 29.96 148.904 29.8913C149.818 29.9527 150.721 29.6023 151.479 28.8942L151.489 32.5884Z" fill="white"/>
</svg>
