<svg fill="none" viewBox="0 0 150 56" id="providers--upgaming" xmlns="http://www.w3.org/2000/svg"><path fill-rule="evenodd" clip-rule="evenodd" d="M20.974 34.16l1.487.93a.813.813 0 001.236-.685V24.037a.825.825 0 01.404-.697l12.968-7.465 3.364 1.945-13 7.491a.806.806 0 00-.402.698V41.03l-9.489-5.491a1.074 1.074 0 01-.394-.393 1.1 1.1 0 01-.148-.542V20.207a.824.824 0 01.404-.697L30.378 12l3.363 1.945L20.748 21.4a.823.823 0 00-.407.704v10.912c.002.23.06.455.17.655.111.2.27.369.463.49z" fill="#1DE9B6"></path><path fill-rule="evenodd" clip-rule="evenodd" d="M40.322 29.209l-3.434 1.994c-.164.096-.3.235-.396.402a1.119 1.119 0 00-.146.55v3.285l6.87-4.005c.164-.097.3-.235.395-.401.095-.167.146-.355.147-.548v-9.654a.84.84 0 00-.406-.705.803.803 0 00-.802-.006l-11.763 6.864a.821.821 0 00-.404.712V43l2.64-1.55c.164-.096.3-.234.395-.4.096-.167.146-.356.148-.549V29.862a.84.84 0 01.4-.711l6.778-3.997v3.333a.839.839 0 01-.422.722z" fill="#1DE9B6"></path><path d="M59.6 21.012h1.8v5.481a4.622 4.622 0 01-.288 1.815 4.563 4.563 0 01-.97 1.55 4.37 4.37 0 01-1.516.98 4.31 4.31 0 01-1.774.278 4.37 4.37 0 01-1.773-.286 4.431 4.431 0 01-1.518-.977 4.631 4.631 0 01-.964-1.553 4.694 4.694 0 01-.293-1.812v-5.476h1.797v5.481a2.85 2.85 0 00.16 1.123c.128.36.327.689.584.967.258.278.569.5.914.652a2.714 2.714 0 003.097-.652c.257-.278.456-.607.584-.966a2.85 2.85 0 00.16-1.124v-5.48zM67.022 28.765a2.693 2.693 0 002.019-.729c.526-.62.79-1.429.732-2.247a3.396 3.396 0 00-.732-2.436 2.624 2.624 0 00-.935-.577 2.589 2.589 0 00-1.084-.14 2.691 2.691 0 00-2.017.717 2.863 2.863 0 00-.732 2.08v8.758h-1.8v-8.759a4.82 4.82 0 01.813-2.555 4.698 4.698 0 012.042-1.7 4.603 4.603 0 012.622-.307 4.646 4.646 0 012.367 1.186 5.113 5.113 0 011.003 1.736c.217.641.306 1.32.263 1.996a5.288 5.288 0 01-.77 2.985 3.937 3.937 0 01-1.897 1.536 4.87 4.87 0 01-3.77-.07V28.17c.534.422 1.2.633 1.876.595zM79.159 30.04a5.287 5.287 0 01-1.93.34 4.378 4.378 0 01-1.773-.287 4.438 4.438 0 01-1.517-.977 4.617 4.617 0 01-.966-1.554 4.68 4.68 0 01-.291-1.814 4.902 4.902 0 01.273-1.907c.216-.61.55-1.17.984-1.646a4.3 4.3 0 011.514-.983 4.238 4.238 0 011.776-.27 4.393 4.393 0 011.772.284 4.454 4.454 0 011.519.97c.432.476.766 1.035.982 1.646.216.61.31 1.258.275 1.906v3.715a4.634 4.634 0 01-.285 1.808 4.575 4.575 0 01-.962 1.549c-.431.43-.946.765-1.51.984a4.32 4.32 0 01-1.772.287h-2.81v-1.83h2.81a2.45 2.45 0 001.061-.128c.34-.12.652-.314.912-.568.26-.254.462-.562.593-.904.131-.341.188-.708.167-1.074a.086.086 0 00-.036.028l.028-.028v-3.376a.333.333 0 000-.072v-.391a3.113 3.113 0 00-.735-2.256 2.671 2.671 0 00-.935-.573 2.637 2.637 0 00-1.081-.147 2.692 2.692 0 00-1.08.151 2.727 2.727 0 00-.937.569 3.14 3.14 0 00-.734 2.256 2.6 2.6 0 00.134 1.113c.125.357.326.68.589.949.263.268.58.473.931.6.35.128.724.174 1.094.137a3.12 3.12 0 001.93-.552l.01 2.045zM89.524 28.198v2.206a.025.025 0 01-.005.018.023.023 0 01-.016.01l-1.355.166a4.701 4.701 0 01-2.394-.304 3.957 3.957 0 01-1.897-1.54 5.273 5.273 0 01-.766-2.984 4.904 4.904 0 01.272-1.907c.216-.61.551-1.17.985-1.645a4.3 4.3 0 011.514-.983 4.24 4.24 0 011.776-.27 4.225 4.225 0 011.79.273c.57.22 1.088.56 1.52.999.43.439.765.966.98 1.547a4.44 4.44 0 01.268 1.82v4.8H90.4v-4.799a2.862 2.862 0 00-.734-2.08 2.684 2.684 0 00-2.016-.72 2.724 2.724 0 00-2.026.715 3.12 3.12 0 00-.735 2.256 3.1 3.1 0 00.145 1.199c.126.386.327.742.59 1.048.27.255.588.451.934.576.347.126.715.177 1.083.153a2.8 2.8 0 001.846-.568.02.02 0 01.01-.012.019.019 0 01.008-.002l.007.001a.02.02 0 01.012.01.02.02 0 010 .017h.001zM101.137 22.277c.384-.411.846-.739 1.359-.963a4.047 4.047 0 013.244 0c.513.224.975.552 1.359.963a4.918 4.918 0 011.085 3.31v4.82h-1.797v-4.8a3.145 3.145 0 00-.648-2.125 2.299 2.299 0 00-1.627-.678c-.608 0-1.192.244-1.626.678a3.175 3.175 0 00-.636 2.125v4.8h-1.816v-4.8a3.178 3.178 0 00-.637-2.125 2.297 2.297 0 00-1.626-.678c-.609 0-1.193.244-1.626.678a3.15 3.15 0 00-.645 2.125v4.8h-1.803v-4.8a4.892 4.892 0 011.084-3.31 4.106 4.106 0 011.359-.966 4.043 4.043 0 013.246 0 4.11 4.11 0 011.358.966c.065.077.127.155.184.232l.209-.252zM111.476 30.404h-1.794v-8.34c0-.243.095-.476.263-.647a.892.892 0 01.634-.27c.239 0 .468.097.637.269a.923.923 0 01.263.647l-.003 8.34zM122.419 30.406h-1.799v-4.8a2.837 2.837 0 00-.732-2.08 3.193 3.193 0 00-2.018-.72c-.734 0-1.445.254-2.018.72a2.818 2.818 0 00-.734 2.08v4.8h-1.797v-4.8a4.674 4.674 0 01.287-1.818 4.6 4.6 0 01.968-1.557 4.312 4.312 0 011.515-.983 4.25 4.25 0 011.777-.27 4.213 4.213 0 011.787.27 4.27 4.27 0 011.517.996c.431.439.764.965.979 1.545.214.58.305 1.2.265 1.818l.003 4.8zM130.379 30.04a5.27 5.27 0 01-1.927.34 4.377 4.377 0 01-1.775-.287 4.44 4.44 0 01-1.518-.977 4.64 4.64 0 01-.964-1.554 4.69 4.69 0 01-.293-1.814 4.902 4.902 0 01.273-1.907c.216-.61.551-1.17.984-1.646a4.309 4.309 0 011.515-.983 4.246 4.246 0 011.778-.27 4.398 4.398 0 011.771.284 4.463 4.463 0 011.519.97c.433.475.768 1.035.984 1.645.216.61.309 1.259.273 1.907v3.715a4.623 4.623 0 01-.286 1.809 4.581 4.581 0 01-.963 1.548c-.432.43-.946.765-1.511.983a4.328 4.328 0 01-1.771.288h-2.811V32.26h2.811a2.448 2.448 0 001.973-.693c.26-.255.463-.563.594-.905.131-.342.187-.709.165-1.075a.095.095 0 00-.035.028l.027-.028v-3.376a.29.29 0 000-.072v-.391a3.103 3.103 0 00-.731-2.256 2.673 2.673 0 00-.935-.574 2.634 2.634 0 00-1.082-.146 2.734 2.734 0 00-2.019.72 3.095 3.095 0 00-.732 2.256c-.037.377.009.757.134 1.114.125.357.326.681.59.949a2.5 2.5 0 00.932.6c.351.127.725.174 1.095.136.684.034 1.36-.16 1.927-.552l.008 2.045z" fill="#fff"></path></svg>