<svg viewBox="0 0 27 27" id="player-lvl-vip" xmlns="http://www.w3.org/2000/svg"><path d="M6.188 23.625a1.687 1.687 0 100 3.375h14.625a1.687 1.687 0 100-3.375H6.188zM27 13.641c0 3.621-2.356 5.906-4.5 7.734h-18C2.356 19.547 0 17.262 0 13.641c0-4.662 3.382-6.885 6.804-6.885 1.935 0 3.867.726 5.221 2.109-1.197 4.182 1.475 8.01 1.475 8.01-.708-2.306-.807-5.856 1.985-8.485 1.308-1.073 3.01-1.634 4.711-1.634C23.618 6.756 27 8.979 27 13.64zM16.875 4.5h-2.25v2.25h-2.25V4.5h-2.25V2.25h2.25V0h2.25v2.25h2.25V4.5z" fill='#AF62FC'></path></svg>