<svg width="155" height="56" viewBox="0 0 155 56" fill="none" xmlns="http://www.w3.org/2000/svg">
<mask id="mask0_3_1167" style="mask-type:luminance" maskUnits="userSpaceOnUse" x="0" y="0" width="155" height="56">
<path d="M0 0H155V56H0V0Z" fill="white"/>
</mask>
<g mask="url(#mask0_3_1167)">
<path d="M153.14 40.3233H146.165C143.335 40.2904 141.165 39.2577 139.77 37.1939C138.183 34.8386 138.918 31.645 141.438 29.904C142.734 28.9908 144.386 28.4976 146.088 28.5156H153.1V30.6123H145.97C145.623 30.6123 145.273 30.6452 144.963 30.7111C143.83 30.9399 142.844 31.5166 142.204 32.3246C141.564 33.1325 141.318 34.1117 141.515 35.0643C141.863 36.7426 143.685 38.0965 145.738 38.1278C147.25 38.1607 148.76 38.1607 150.273 38.1607C150.35 38.1607 150.428 38.1607 150.505 38.1278V35.9059H146.048V33.8405H153.1C153.14 36.0344 153.14 38.1953 153.14 40.325V40.3233ZM78.5075 38.1937C78.1975 38.1937 77.8875 38.1937 77.5775 38.1607C75.2923 37.9351 73.47 36.1299 73.625 34.2572C73.78 32.1605 75.7573 30.6452 78.3148 30.6452H85.25V28.5485C85.1725 28.5485 85.095 28.5156 85.0553 28.5156C82.7303 28.5156 80.3675 28.4826 78.0425 28.5156C74.3225 28.5814 71.3398 31.001 71.145 34.0003C71.0808 34.8106 71.2189 35.6232 71.5508 36.3873C71.8827 37.1513 72.4013 37.8504 73.074 38.4408C73.7468 39.0312 74.5593 39.5002 75.4607 39.8184C76.3621 40.1367 77.333 40.2973 78.3128 40.2904H85.2898V33.8701H78.275V35.9685H82.77V38.1937H78.5075ZM113.73 32.8391V40.2904H116.25V28.5485C113.848 30.0638 111.523 31.5807 109.198 33.0647C106.833 31.5494 104.508 30.0638 102.145 28.5485V40.2904H104.663V32.8391C106.213 33.8389 107.687 34.7744 109.198 35.7412C110.67 34.7744 112.18 33.8389 113.73 32.8391ZM125.355 32.9033C129.23 35.3871 133.068 37.8396 136.943 40.3233V28.5798H134.423V36.0327C130.548 33.549 126.713 31.0965 122.877 28.6457V40.3563H125.395C125.355 37.8379 125.355 35.3871 125.355 32.9033ZM98.0375 40.2904H100.905C98.5025 36.3539 96.1 32.4833 93.6975 28.5156C91.295 32.452 88.8925 36.3556 86.49 40.2904H89.3575C90.7923 37.9351 92.2648 35.5798 93.6975 33.1932C95.1361 35.5623 96.5827 37.9281 98.0375 40.2904ZM120.785 28.5485H118.265V40.2904H120.783L120.785 28.5485ZM134.618 47.2904C135.275 47.7746 135.47 48.8057 135.043 49.4513C134.953 49.609 134.81 49.7417 134.631 49.8334C134.453 49.9252 134.246 49.9721 134.035 49.9685C133.455 50.0014 132.913 49.9685 132.293 49.9685V44.968C132.913 44.968 133.533 44.9351 134.153 44.968C134.655 45.001 135.005 45.2579 135.083 45.7092C135.198 46.2906 135.238 46.8704 134.618 47.2904ZM133.26 49.3541C133.61 49.2586 134.113 49.1927 134.153 49.0643C134.23 48.6772 134.268 48.2572 134.113 47.9031C133.998 47.6132 133.57 47.7417 133.26 47.7746V49.3541ZM133.26 47.0977C133.57 46.9676 133.998 46.9363 134.035 46.7749C134.153 46.4706 134.153 46.1436 134.035 45.8393C133.92 45.5807 133.57 45.6779 133.26 45.6779V47.0977ZM97.8428 44.968H99.2775C99.5875 46.6447 99.9353 48.2901 100.245 49.9685H99.2775C99.2378 49.677 99.1603 49.3871 99.1225 49.0956H97.9978C97.9223 49.3871 97.8825 49.677 97.805 49.9685H96.9128C97.2228 48.3214 97.5348 46.6777 97.8428 44.968ZM98.9675 48.3544C98.8523 47.6132 98.6973 46.9033 98.58 46.1621H98.4628C98.3475 46.8704 98.2303 47.5803 98.0753 48.3231C98.3853 48.356 98.6575 48.3544 98.9675 48.3544ZM84.3975 44.968H83.5053L82.8098 48.8386H82.7303L82.0348 44.968H81.065C81.375 46.6447 81.685 48.3231 81.995 49.9685H83.4298C83.7712 48.3042 84.0938 46.6373 84.3975 44.968ZM144.073 49.2586C144.228 49.8071 144.693 50.0657 145.428 50.0657C146.125 50.0657 146.63 49.7742 146.785 49.2586C146.888 48.9669 146.895 48.6578 146.806 48.3629C146.718 48.068 146.536 47.7979 146.28 47.5803C146.01 47.3233 145.66 47.096 145.39 46.8391C145.118 46.5805 144.925 46.2906 145.003 45.9349C145.04 45.7092 145.195 45.6137 145.468 45.6137C145.7 45.6137 145.855 45.7421 145.893 45.9349C145.893 46.0337 145.933 46.1605 145.933 46.2906H146.863C146.836 46.0615 146.785 45.8348 146.708 45.6137C146.513 45.0965 146.088 44.8725 145.35 44.9038C144.693 44.9038 144.188 45.1607 144.073 45.6779C143.918 46.2906 143.995 46.8391 144.498 47.3233C144.77 47.5803 145.08 47.8059 145.39 48.0645C145.66 48.2901 145.893 48.58 145.855 48.9358C145.815 49.1614 145.7 49.3558 145.39 49.3558C145.118 49.3558 144.963 49.2257 144.925 49C144.885 48.8386 144.885 48.7102 144.848 48.5487H143.955C144.033 48.7744 144.033 49 144.073 49.257V49.2586ZM122.45 49.3229C122.605 49.8071 123.108 50.064 123.805 50.064C124.503 50.064 124.968 49.7741 125.123 49.2899C125.278 48.7744 125.24 48.2259 124.813 47.8076C124.543 47.516 124.155 47.2904 123.883 47.0005C123.652 46.7419 123.42 46.452 123.342 46.1605C123.225 45.7421 123.497 45.5807 124.117 45.7092C124.155 45.9036 124.233 46.0963 124.31 46.3219H125.2C125.163 46.0963 125.163 45.9036 125.125 45.7421C125.008 45.2579 124.543 44.968 123.923 44.9351C123.148 44.9022 122.605 45.1294 122.45 45.6137C122.255 46.1934 122.295 46.7419 122.798 47.2261C123.07 47.4847 123.38 47.7104 123.69 47.9673C124 48.2259 124.272 48.5487 124.233 48.9358C124.193 49.1614 124.04 49.3229 123.768 49.3229C123.497 49.3229 123.34 49.1944 123.263 48.9671C123.225 48.8386 123.225 48.6772 123.225 48.5158H122.295C122.335 48.7744 122.335 49.0643 122.45 49.3229ZM139.383 47.8076H140.623V47.0647H139.383V45.6779H140.973V44.968H138.415V49.9685H140.973V49.2586H139.383V47.8076ZM87.4578 49.9685H89.9775V49.2273H88.3878V47.7746H89.6278V47.0334H88.3898V45.645H89.9775V44.9367H87.42C87.4598 46.6777 87.4578 48.3231 87.4578 49.9685ZM103.655 49.9685H104.625V45.7092C104.973 45.7092 105.283 45.6763 105.555 45.6763V45.001H102.65V45.6763C102.958 45.6763 103.268 45.7092 103.618 45.7092C103.657 47.129 103.655 48.5487 103.655 49.9685ZM149.768 44.968V45.645C150.078 45.645 150.388 45.6779 150.738 45.6779V49.9356H151.705V45.6779C152.055 45.6779 152.365 45.645 152.675 45.645V44.968H149.768ZM117.528 49.9685H118.498V45.7092C118.845 45.7092 119.157 45.6763 119.465 45.6763V45.001H116.56V45.6763C116.87 45.6763 117.18 45.7092 117.528 45.7092V49.9685ZM74.0503 49.9685V49.2273H72.5003V44.968H71.5703V49.9685H74.0503ZM112.568 49.9685H113.46V44.968H112.568V49.9685ZM78.0028 44.968H77.0728V49.9685H78.0048L78.0028 44.968ZM69.0148 5.93603H74.0503C76.57 10.0652 79.1275 14.1944 81.7248 18.4207C84.32 14.1927 86.8378 10.0652 89.3953 5.93603H94.4328C90.21 12.8389 85.9873 19.6774 81.7248 26.6445C77.4623 19.7104 73.2753 12.8701 69.0128 5.93603H69.0148ZM128.573 5.93603H123.535C120.978 10.0965 118.46 14.2257 115.863 18.4207C113.267 14.1927 110.748 10.0652 108.228 5.96897H103.194C107.417 12.8701 111.602 19.7104 115.865 26.6445C120.127 19.7104 124.35 12.8389 128.575 5.93603H128.573ZM96.6048 6.00026V26.6132H101.02V6.00026H96.6048ZM142.6 5.93438C136.09 5.80591 130.045 10.2266 130.045 16.2911C130.042 19.0301 131.35 21.6583 133.681 23.5993C136.013 25.5402 139.178 26.6353 142.483 26.6445C149.38 26.6445 155 21.9998 154.96 16.2911C154.96 10.5478 149.458 5.96732 142.6 5.93603V5.93438ZM142.523 22.9996C140.386 22.9991 138.337 22.2956 136.825 21.0436C135.314 19.7916 134.464 18.0934 134.463 16.3224C134.463 12.4189 138.375 9.54803 142.6 9.61227C147.018 9.61227 150.62 12.6132 150.62 16.2911C150.618 18.0702 149.764 19.7757 148.245 21.0334C146.727 22.2912 144.669 22.9983 142.523 22.9996ZM33.945 2.99223e-05C52.4675 2.99223e-05 67.425 12.4847 67.4628 27.9341C67.5423 43.4198 52.39 55.9671 33.6748 55.9671C15.035 55.9671 -0.0377197 43.4824 -0.0377197 28C0.0377931 11.6447 16.3128 -0.322794 33.945 2.99223e-05ZM9.45504 16.4196V38.7092C17.1275 42.3871 24.8 46.065 32.6275 49.8384V27.5487C24.9948 23.8709 17.3223 20.193 9.45504 16.4196ZM33.7503 25.9363C41.4625 22.2584 49.0953 18.6134 57.04 14.8384C49.0575 12.0647 41.4625 9.38662 33.7125 6.71015C26.1553 9.35532 18.4828 12.0005 10.54 14.7741C18.445 18.5805 26.0798 22.2584 33.7503 25.9363ZM57.97 16.548L34.9148 27.5174V49.7741C42.7025 46.032 50.3353 42.3871 57.97 38.7421V16.548ZM23.095 33.8701C22.7473 31.8064 21.0423 30.2252 18.91 29.9996C17.67 30.4838 17.7475 31.388 17.9423 32.289C18.3675 34.0332 19.4128 35.4184 21.5828 36.064C23.1328 35.677 23.25 34.8057 23.095 33.8701ZM14.8025 33.1619C14.3375 32.9033 13.3698 32.7419 13.02 32.9676C12.555 33.2261 12.1675 33.936 12.2053 34.4516C12.245 35.9998 13.0975 37.3553 14.6098 38.2579C15.1125 38.5478 16.0048 38.7421 16.5473 38.5807C17.05 38.4193 17.2825 37.7094 17.4773 37.4838C17.2825 35.4843 16.4678 34.0974 14.8025 33.1619ZM26.505 27.7744C25.885 27.4516 24.8378 27.1617 24.335 27.4203C23.8303 27.6772 23.5203 28.5814 23.56 29.1612C23.6753 30.6123 24.49 31.8706 25.9625 32.7106C26.4673 33.0005 27.3575 33.1932 27.9 33.0005C28.4048 32.8391 28.6353 32.1276 28.9453 31.645C28.7525 30.1626 27.8603 28.4826 26.505 27.7744ZM29.0625 15.3885C30.6523 17.1607 36.4628 17.2909 38.2075 15.5812C38.905 14.9026 38.7898 14.2257 37.8598 13.613C36.0375 12.3546 31.4273 12.3546 29.605 13.6459C29.2175 13.9029 28.985 14.2899 28.675 14.6457C28.8698 14.9998 28.9453 15.2254 29.0625 15.3869V15.3885ZM48.205 30.1297C47.6625 29.904 46.5775 30.1939 46.035 30.548C44.6798 31.4836 43.9823 32.7749 44.1373 34.2589C44.2525 35.6457 45.4925 36.1612 46.9273 35.42C48.515 34.613 49.0178 33.2904 49.4053 31.5494C49.0953 31.225 48.825 30.3866 48.205 30.1297ZM42.5078 38.6779C41.8123 38.5165 40.6875 38.8064 40.1053 39.2577C38.8673 40.1932 38.2075 41.4516 38.44 42.9026C38.6725 44.2252 39.7953 44.7094 41.1903 43.9683C42.7403 43.1612 43.3623 41.9029 43.5948 40.0318C43.3623 39.709 43.0503 38.8064 42.5078 38.6779ZM53.7075 21.8384C53.1253 21.6457 52.08 21.9043 51.5375 22.2584C50.22 23.161 49.4828 24.388 49.6775 25.8391C49.755 26.3546 50.1048 27.0645 50.5678 27.2901C51.0725 27.4845 52.0025 27.3231 52.5053 27.0645C54.0175 26.2574 54.5978 24.9349 54.8303 23.128C54.56 22.8069 54.2878 21.9998 53.7075 21.8384ZM50.4903 35.1614C49.5603 36.2897 49.0953 37.581 49.91 38.8706C50.1425 39.1934 51.0348 39.4833 51.5773 39.3878C54.095 39.032 55.49 35.4843 53.7473 33.8059C52.1973 33.4189 51.2673 34.2259 50.4903 35.1614ZM39.4475 32.0979C40.3 32.6134 41.23 32.0979 41.8898 31.5478C43.0125 30.6123 43.71 29.484 43.555 28.1285C43.4775 27.58 43.0503 26.8059 42.5475 26.6132C42.005 26.4189 41.0373 26.6774 40.4928 27.0003C39.1753 27.7744 38.595 28.9356 38.2075 30.3866C38.6348 30.968 38.8673 31.7421 39.4475 32.0963V32.0979Z" fill="white"/>
</g>
</svg>
