<svg viewBox="0 0 26.166 26.166" id="responsible-game" xmlns="http://www.w3.org/2000/svg"><path d="M6.516 1.755C8.521.585 10.71 0 13.083 0s4.563.585 6.567 1.755a13.018 13.018 0 014.761 4.761c1.17 2.005 1.755 4.194 1.755 6.568 0 2.372-.585 4.562-1.755 6.566a13.018 13.018 0 01-4.761 4.761c-2.005 1.17-4.194 1.755-6.567 1.755s-4.563-.585-6.567-1.755a13.018 13.018 0 01-4.761-4.761C.585 17.646 0 15.456 0 13.084c0-2.374.585-4.563 1.755-6.568a13.018 13.018 0 014.761-4.761zm8.713 13.628l.307-10.578a.334.334 0 00-.17-.307.625.625 0 00-.408-.137H11.21a.625.625 0 00-.408.137.333.333 0 00-.17.307l.288 10.578c0 .113.058.213.172.298a.658.658 0 00.408.128h3.151a.624.624 0 00.4-.128.429.429 0 00.178-.298zm.035 5.86v-3.236a.566.566 0 00-.153-.401.501.501 0 00-.375-.162h-3.271a.543.543 0 00-.392.172.536.536 0 00-.17.392v3.236c0 .147.057.277.17.392a.54.54 0 00.392.17h3.271c.147 0 .273-.054.375-.161s.153-.243.153-.402z" fill='#fff'></path></svg>