<svg width="155" height="56" viewBox="0 0 155 56" fill="none" xmlns="http://www.w3.org/2000/svg">
<mask id="mask0_3_1054" style="mask-type:luminance" maskUnits="userSpaceOnUse" x="0" y="0" width="155" height="56">
<path d="M0 0H155V56H0V0Z" fill="white"/>
</mask>
<g mask="url(#mask0_3_1054)">
<path d="M77.5 0.0002563H91.6835C92.6135 0.0002563 93.3885 0.126256 93.775 0.878756C94.085 1.56826 93.775 2.13176 93.0785 2.69701C85.405 8.90426 77.7335 15.1133 70.1385 21.3835C68.355 22.8273 66.5735 24.2693 64.79 25.7743C64.0935 26.3378 63.3185 26.714 62.3885 26.3378C61.4585 26.0245 61.3035 25.335 61.3035 24.5825V2.00751C61.225 0.502507 61.7685 0.0002563 63.6285 0.0002563H77.5ZM113.539 0.0002563H127.489C128.419 0.0002563 129.27 0.0632561 129.659 0.878756C130.045 1.69426 129.58 2.19476 128.96 2.76001C121.131 9.09501 113.381 15.4265 105.555 21.7615C103.926 23.1405 102.224 24.4565 100.595 25.8373C99.975 26.4008 99.2 26.6528 98.3485 26.3395C97.495 26.0245 97.2635 25.461 97.2635 24.7085V1.69426C97.2635 0.502507 97.8835 -0.0627441 99.4335 -0.0627441C104.084 0.000255857 108.81 0.0002563 113.539 0.0002563ZM57.7385 13.2303V24.7085C57.7385 25.461 57.5815 26.0875 56.6515 26.4008C55.8 26.651 55.025 26.4008 54.405 25.8373C45.0265 18.1233 35.495 10.4093 26.04 2.75826C25.1865 2.06876 24.955 1.44226 25.42 0.815756C25.8085 0.187506 26.5835 0.0632567 27.3585 0.0632567H55.2585C57.2735 0.0632567 57.7385 0.439507 57.7385 2.06876V13.232V13.2303ZM6.2 45.8415C8.08125 42.755 9.99299 39.6819 11.935 36.6225H15.7315C17.5915 39.6955 19.53 42.7685 21.39 45.7785C21.545 45.7785 21.6215 45.7155 21.7785 45.7155V32.3578H27.5135V55.8743H21.855C19.2965 51.8615 16.6615 47.7228 13.795 43.2708C11.005 47.5968 8.37 51.7355 5.735 55.8743H0V32.2965H5.65647V45.6525C5.81147 45.7785 6.045 45.7785 6.2 45.8415ZM138.804 55.9373H133.145V32.2948H138.105C141.73 36.938 145.321 41.6001 148.879 46.2808C149.034 46.2808 149.189 46.2178 149.42 46.2178V32.2965H155.079V55.8743H149.964C146.382 51.3268 142.816 46.7698 139.269 42.2033C139.114 42.2033 138.959 42.2663 138.804 42.2663V55.9373ZM81.4535 56.0003V32.0428C86.2585 32.2318 90.985 32.1688 95.635 32.6693C99.2785 33.0455 101.525 35.2418 102.379 38.0628C103.54 41.9513 103.54 45.9028 102.455 49.7895C101.37 53.804 97.96 55.8725 92.9235 55.9985C89.125 56.0615 85.3285 56.0003 81.4535 56.0003ZM87.4985 51.9228C89.0485 51.9228 90.52 51.9858 91.915 51.9228C95.015 51.6725 96.565 50.6068 96.7985 48.099C97.031 45.4479 97.031 42.7859 96.7985 40.1348C96.6435 38.5038 95.7135 36.9358 93.465 36.6225C91.5285 36.3723 89.59 36.4335 87.4985 36.3723V51.9228ZM40.455 32.2965H46.345C49.6785 40.0718 53.01 47.8488 56.4985 55.8743H50.065C49.445 54.4953 48.9035 53.1163 48.205 51.6743H38.595C37.975 53.0533 37.4335 54.4323 36.735 55.8743H30.3035C33.7135 47.9118 37.1235 40.0718 40.455 32.2965ZM40.3 47.2835H46.5785C45.57 44.711 44.5635 42.331 43.6335 39.9458H43.1685C42.2385 42.3293 41.23 44.7128 40.3 47.2835ZM110.515 55.8743H104.084C107.444 48.0077 110.827 40.1484 114.235 32.2965H120.125C123.459 40.0718 126.79 47.8488 130.279 55.8743H123.845C123.225 54.5583 122.684 53.1793 121.985 51.6743H112.299C111.679 53.1163 111.135 54.4953 110.515 55.8743ZM117.335 39.9458H116.87C115.94 42.3293 114.934 44.7758 113.925 47.3465H120.204C119.326 44.8581 118.37 42.3903 117.335 39.9458ZM76.88 32.2965C77.2685 34.0518 77.1135 35.5568 76.0285 36.9988C72.85 41.2005 69.905 45.5283 66.805 49.7913C66.4185 50.3565 66.03 50.983 65.41 51.9245H77.345V55.813H57.66C57.35 54.182 57.4285 52.74 58.59 51.235C62.155 46.468 65.565 41.5768 69.3635 36.3723H57.7385V32.2335C64.0935 32.2965 70.37 32.2965 76.88 32.2965Z" fill="white"/>
</g>
</svg>
