<svg width="155" height="56" viewBox="0 0 155 56" fill="none" xmlns="http://www.w3.org/2000/svg">
<mask id="mask0_3_1246" style="mask-type:luminance" maskUnits="userSpaceOnUse" x="0" y="0" width="155" height="56">
<path d="M0 0H155V56H0V0Z" fill="white"/>
</mask>
<g mask="url(#mask0_3_1246)">
<path d="M3.79839 55.8069L0 42.4185H3.875L5.03839 47.9537C5.425 49.5629 5.735 51.3019 5.96661 52.5884H6.045C6.27661 51.1074 6.665 49.4996 7.05339 47.8888L8.37 42.4185H12.245L13.5634 48.0834C13.9169 49.5755 14.2009 51.0783 14.415 52.5884H14.4934C14.725 51.1074 15.1134 49.4996 15.4234 47.9537L16.74 42.4834H20.46L16.275 55.7421H12.4L11.0816 49.9505C10.7683 48.5846 10.5104 47.2103 10.3084 45.8301H10.23C9.92 47.3097 9.68839 48.5977 9.3 49.9491L7.82839 55.7421L3.79839 55.8069ZM36.735 48.9838C36.735 53.3606 33.5584 56 28.9066 56C24.18 56 21.39 53.0379 21.39 49.1768C21.39 45.1861 24.49 42.1621 29.2184 42.1621C34.0234 42.1621 36.735 45.2509 36.735 48.9853V48.9838ZM25.1884 49.1768C25.1884 51.8147 26.66 53.6185 29.0634 53.6185C31.5434 53.6185 32.9366 51.688 32.9366 49.0486C32.9366 46.6023 31.5434 44.6069 29.0616 44.6069C26.5816 44.6069 25.1884 46.5375 25.1884 49.1768ZM39.1384 42.6116C40.7313 42.4421 42.3356 42.356 43.9416 42.3537C46.345 42.3537 47.9716 42.6764 49.135 43.3853C50.065 44.0278 50.6084 44.9931 50.6084 46.2147C50.6084 47.9537 49.135 49.112 47.8184 49.4996V49.5629C48.9016 49.9491 49.5216 50.8509 49.91 52.0741C50.375 53.5537 50.9184 55.356 51.2284 55.8718H47.5084C47.275 55.4857 46.8884 54.3907 46.4216 52.7181C46.035 51.044 45.3384 50.5931 43.7884 50.5282H42.625V55.8069H39.06L39.1384 42.6116ZM42.7016 48.3398H44.0966C45.88 48.3398 46.965 47.5676 46.965 46.4093C46.965 45.1861 45.9566 44.5421 44.33 44.5421C43.4784 44.5421 42.935 44.6069 42.7034 44.6069V48.3398H42.7016ZM53.165 42.4185H56.8066V53.2973H63.1634V55.8718H53.1632V42.4171L53.165 42.4185ZM65.255 42.6101C66.5734 42.4185 68.355 42.3537 70.1366 42.3537C73.16 42.3537 75.175 42.8046 76.6466 43.7699C78.275 44.8 79.36 46.4741 79.36 48.8541C79.36 51.4301 78.275 53.1676 76.725 54.2625C75.02 55.4208 72.4634 56 69.3634 56C67.5016 56 66.185 55.9352 65.255 55.8069V42.6101ZM68.8966 53.5537C69.2066 53.6185 69.75 53.6185 70.1384 53.6185C73.3934 53.6185 75.5616 52.1375 75.5616 48.9189C75.5616 46.1514 73.625 44.6718 70.525 44.6718C69.6734 44.6718 69.2066 44.7352 68.8984 44.8L68.8966 53.5537ZM95.325 50.6579C95.23 48.835 95.1783 47.0107 95.17 45.1861H95.0916C94.6284 46.9251 93.93 48.7907 93.31 50.4L91.3734 55.6139H88.5816L86.8766 50.4C86.2956 48.6804 85.8046 46.9408 85.405 45.1861H85.3284C85.25 46.9884 85.1716 49.0472 85.0166 50.7213L84.7084 55.8069H81.375L82.3834 42.4185H87.1884L88.7384 46.8602C89.2016 48.4046 89.745 50.0787 90.055 51.688H90.1334C90.5966 50.1421 91.14 48.3398 91.605 46.8602L93.31 42.4185H98.0384L98.89 55.8069H95.325V50.6579ZM105.478 52.3954L104.315 55.8069H100.595L105.477 42.4185H110.205L115.165 55.8069H111.29L110.05 52.3954H105.478ZM109.585 50.0787L108.577 47.2463C108.267 46.4741 108.035 45.444 107.725 44.6718C107.493 45.444 107.26 46.4741 107.027 47.2463L106.098 50.0787H109.585ZM118.497 44.9282H114.237V42.3537H126.56V44.9282H122.218V55.8069H118.577L118.497 44.9282ZM139.422 55.4208C138.725 55.6787 137.253 56 135.315 56C129.813 56 126.945 53.1042 126.945 49.3065C126.945 44.7352 130.82 42.1606 135.703 42.1606C137.563 42.1606 138.957 42.4834 139.655 42.7398L138.958 45.1861C138.003 44.846 136.975 44.6705 135.935 44.6703C133.067 44.6703 130.82 46.1514 130.82 49.112C130.82 51.8162 132.757 53.4888 135.935 53.4888C137.02 53.4888 138.183 53.2973 138.958 53.0394L139.422 55.4208ZM145.467 42.4185V47.5676H151.435V42.4185H155V55.8069H151.435V50.2069H145.467V55.8069H141.825V42.4185H145.467ZM116.715 15.7051V0H96.72L63.4716 35.7236H83.6216L98.1916 20.0185L98.27 35.7236H116.87L131.44 20.0185V35.7221H136.322L150.505 20.0171V0H131.052L116.715 15.7051ZM52.545 15.7051L52.4684 0H33.945L19.22 15.7051V0H0.233392V35.7236H19.685L34.0234 19.9552V35.7236H54.0184L87.2632 0H67.1132L52.545 15.7051Z" fill="#595A5C"/>
<path d="M154.922 20.1465V35.7233H140.662L154.922 20.1465Z" fill="#E53330"/>
</g>
</svg>
