<svg viewBox="0 0 44 44" id="18" xmlns="http://www.w3.org/2000/svg"><path d="M9.513 17.548h-.051L6.35 18.932l-.705-3.257 4.503-1.994h3.6v15.813H9.514V17.548zM19.55 21.398c-1.434-.782-2.165-2.045-2.165-3.429 0-2.775 2.527-4.546 5.835-4.546 3.988 0 5.526 2.235 5.526 4.134 0 1.366-.756 2.655-2.165 3.403v.052c1.366.507 2.801 1.753 2.801 3.867 0 2.922-2.432 4.89-6.402 4.89-4.332 0-6.11-2.38-6.11-4.452 0-1.873 1.048-3.137 2.672-3.867v-.052h.009zm5.355 3.764c0-1.143-.903-1.925-2.071-2.217-.928.24-1.513.971-1.513 1.942 0 .946.73 1.9 1.848 1.9 1.023.008 1.736-.697 1.736-1.625zm-3.412-7.322c0 .851.85 1.487 1.9 1.822.635-.146 1.263-.85 1.263-1.632 0-.877-.49-1.702-1.607-1.702-1.04.009-1.556.713-1.556 1.512zm16.792-1.288v5.13h4.916v2.63h-4.916v5.182h-2.724v-5.182h-4.916v-2.63h4.916v-5.13h2.724z"  fill='#fff'></path><path d="M35.045 30.482c-2.896 5.225-8.473 8.774-14.859 8.774-9.358 0-16.98-7.614-16.98-16.981s7.622-16.973 16.98-16.973c6.91 0 12.874 4.151 15.512 10.09h2.707a19.492 19.492 0 00-4.451-6.884 19.346 19.346 0 00-13.768-5.706c-5.199 0-10.088 2.028-13.767 5.706A19.373 19.373 0 00.722 22.284c0 5.199 2.028 10.089 5.706 13.767a19.346 19.346 0 0013.767 5.706c5.2 0 10.09-2.028 13.767-5.706a19.537 19.537 0 003.902-5.569h-2.819z" fill='#fff'></path></svg>