<svg fill="none" viewBox="0 0 150 56" id="providers--yggdrasil" xmlns="http://www.w3.org/2000/svg"><g clip-path="url(#ilclip0_1482_21710)"><path d="M131.416 21.633h2.43v8.617h5.153v2.15h-7.583V21.634zm-4.452 10.768h2.429V21.633h-2.429v10.768zm-10.576-1.64a7.129 7.129 0 004.686 1.727c2.382 0 4.052-1.203 4.052-3.337v-.035c0-1.872-1.257-2.657-3.501-3.227-1.909-.477-2.382-.71-2.382-1.418v-.03c0-.523.491-.936 1.418-.936a5.256 5.256 0 012.873 1.059l1.257-1.785a6.496 6.496 0 00-4.094-1.367c-2.256 0-3.866 1.291-3.866 3.245v.029c0 2.14 1.436 2.738 3.657 3.296 1.849.46 2.226.768 2.226 1.366v.03c0 .633-.598 1.017-1.592 1.017a5.133 5.133 0 01-3.292-1.302l-1.436 1.674-.006-.006zm-.491 1.686l-4.734-10.854h-2.238l-4.728 10.848h2.472l3.345-8 1.449 3.477h-1.946L108.65 30h3.686l1.018 2.441 2.543.006zM86.834 21.633c3.472 0 5.866 2.326 5.866 5.35v.034c0 3.03-2.394 5.384-5.865 5.384H83.04V21.633h3.794zm3.328 5.384a3.009 3.009 0 00-.206-1.265 3.078 3.078 0 00-.716-1.075 3.188 3.188 0 00-1.104-.7 3.262 3.262 0 00-1.301-.204H85.47v6.488h1.365c.442.024.884-.042 1.298-.195.413-.152.79-.388 1.103-.691.314-.304.559-.668.718-1.069.16-.401.23-.83.208-1.26v-.029zm-12.544-.22v1.854h1.143v1.14a3.943 3.943 0 01-2.286.639c-1.958 0-3.346-1.442-3.346-3.413v-.03c0-1.83 1.406-3.354 3.172-3.354a4.124 4.124 0 012.885 1.093l1.532-1.802a6.155 6.155 0 00-4.34-1.477 5.828 5.828 0 00-2.219.395 5.698 5.698 0 00-1.886 1.202 5.51 5.51 0 00-1.255 1.821 5.381 5.381 0 00-.427 2.152v.03c0 3.185 2.364 5.54 5.806 5.54a7.277 7.277 0 004.716-1.704v-4.087h-3.495zm-12.126 0v1.854h1.137v1.14c-.672.44-1.47.663-2.28.639-1.957 0-3.346-1.442-3.346-3.413v-.03c0-1.83 1.4-3.354 3.172-3.354a4.124 4.124 0 012.885 1.093l1.532-1.802a6.155 6.155 0 00-4.339-1.47 5.828 5.828 0 00-2.218.393 5.696 5.696 0 00-1.885 1.2 5.509 5.509 0 00-1.256 1.82 5.38 5.38 0 00-.428 2.15v.035c0 3.18 2.364 5.535 5.805 5.535 1.73.004 3.404-.601 4.71-1.704v-4.087h-3.489zM52.056 32.4h2.43V28.93l4.25-7.297H55.97l-2.681 4.791-2.633-4.79h-2.85l4.25 7.342v3.425zm48.687-3.843a3.434 3.434 0 001.762-1.281 3.276 3.276 0 00.603-2.056v-.03a3.317 3.317 0 00-.217-1.325 3.367 3.367 0 00-.729-1.14c-.724-.703-1.814-1.093-3.22-1.093h-4.68v10.774h2.43v-8.634h2.047c1.179 0 1.909.523 1.909 1.535v.035c0 .907-.683 1.523-1.862 1.523H97.59v2.093h.647L100.6 32.4h2.837l-2.694-3.843z" fill="#fff"></path><path d="M41.954 28.872a14.606 14.606 0 01-.664 3.53c-5.664-.33-10.975-2.784-14.813-6.844-3.836 4.059-9.145 6.512-14.807 6.843a14.761 14.761 0 01-.67-3.529 18.698 18.698 0 005.602-1.058 16.148 16.148 0 00-5.333-2.843c.24-1.164.622-2.296 1.137-3.372a19.807 19.807 0 017.721 4.523 18.265 18.265 0 003.561-2.866c-3.534-.601-6.762-2.327-9.175-4.907a15.244 15.244 0 012.646-2.465 12.566 12.566 0 005.165 3.36 20.703 20.703 0 01-1.467-5.349 15.961 15.961 0 013.58-.895 17.28 17.28 0 002.034 6.465A17.283 17.283 0 0028.524 13c1.225.156 2.427.455 3.579.89a20.695 20.695 0 01-1.466 5.36 12.567 12.567 0 005.165-3.355 15.298 15.298 0 012.645 2.454c-2.413 2.58-5.64 4.306-9.175 4.907a18.266 18.266 0 003.555 2.866 19.806 19.806 0 017.72-4.529 14.816 14.816 0 011.138 3.378 16.149 16.149 0 00-5.327 2.843c1.799.636 3.69.993 5.602 1.058h-.006zM28.308 42.89v-5.052l5.255-6.657a22.77 22.77 0 01-3.256-1.715l-3.83 4.849-3.83-4.849a22.764 22.764 0 01-3.256 1.715l5.255 6.657v5.058c1.214.14 2.442.14 3.656 0l.006-.006z" fill="#FA6432"></path></g></svg>