<svg width="155" height="56" viewBox="0 0 155 56" fill="none" xmlns="http://www.w3.org/2000/svg">
<mask id="mask0_3_810" style="mask-type:luminance" maskUnits="userSpaceOnUse" x="0" y="0" width="155" height="56">
<path d="M0 0H155V56H0V0Z" fill="white"/>
</mask>
<g mask="url(#mask0_3_810)">
<path d="M145.816 16.1148H148.759V32.1999H154.999V36.2132H145.816V16.1167V16.1148ZM140.425 36.2151H143.367V16.1148H140.425V36.2151ZM127.618 33.1538C129.196 35.2479 131.211 36.3928 133.293 36.3775C136.177 36.3775 138.2 34.1319 138.2 30.1484V30.0831C138.2 26.5887 136.677 25.1234 133.96 24.0594C131.648 23.169 131.076 22.734 131.076 21.4124V21.3564C131.076 20.3802 131.67 19.6092 132.793 19.6092C134.054 19.7213 135.265 20.4095 136.272 21.586L137.794 18.254C136.378 16.5573 134.629 15.657 132.836 15.7023C130.104 15.7023 128.155 18.1122 128.155 21.7596V21.8138C128.155 25.8084 129.894 26.9247 132.583 27.9663C134.822 28.825 135.279 29.3999 135.279 30.5162V30.5722C135.279 31.7538 134.555 32.4706 133.351 32.4706C131.877 32.4148 130.464 31.5534 129.365 30.0402L127.626 33.165L127.618 33.1538ZM127.024 36.301L121.291 16.0402H118.581L112.856 36.2898H115.849L119.9 21.3564L121.654 27.8468H119.298L118.248 31.7332H122.712L123.944 36.2898L127.024 36.301ZM91.8303 16.1148C96.0347 16.1148 98.9336 20.4567 98.9336 26.1015V26.165C98.9336 31.821 96.0347 36.2151 91.8315 36.2151H87.236V16.1148H91.8303ZM95.8603 26.165C95.8881 25.3594 95.803 24.554 95.6108 23.8036C95.4172 23.0478 95.1216 22.3638 94.7438 21.797C94.3615 21.2238 93.9063 20.7788 93.4069 20.4903C92.904 20.1996 92.368 20.07 91.8315 20.1095H90.1786V32.2204H91.8315C92.3667 32.2652 92.902 32.142 93.4033 31.8564C93.9034 31.5727 94.3599 31.1322 94.739 30.5666C95.1192 29.9991 95.4159 29.3196 95.6084 28.5711C95.8022 27.8226 95.8869 27.0218 95.8603 26.2191V26.165ZM80.6703 25.7543V29.2151H82.0544V31.3431C81.233 32.1696 80.2665 32.586 79.2862 32.5359C76.9152 32.5359 75.2344 29.8442 75.2344 26.165V26.109C75.2344 22.693 76.937 19.8482 79.0755 19.8482C80.3674 19.8059 81.6196 20.5372 82.569 21.8884L84.4242 18.5247C82.9681 16.5968 81.0855 15.6092 79.1687 15.7676C78.2504 15.7416 77.3377 15.992 76.4817 16.505C75.6317 17.013 74.8555 17.7756 74.1978 18.7487C73.5474 19.7118 73.0304 20.8682 72.6781 22.1479C72.3286 23.418 72.1526 24.7854 72.161 26.165V26.221C72.161 32.1663 75.0237 36.5623 79.1917 36.5623C81.2797 36.5785 83.3035 35.4512 84.9025 33.3815V25.7524H80.6703V25.7543ZM65.9865 25.7543V29.2151H67.3633V31.3431C66.5495 32.1644 65.5832 32.5807 64.6024 32.5359C62.2326 32.5359 60.5506 29.8442 60.5506 26.165V26.109C60.5506 22.693 62.2459 19.8482 64.3917 19.8482C65.6836 19.8059 66.9358 20.5372 67.8852 21.8884L69.7404 18.5247C68.2833 16.6019 66.4013 15.6191 64.4861 15.7807C63.5684 15.7537 62.6561 16.0029 61.8003 16.5143C60.9509 17.0213 60.1751 17.7827 59.5176 18.7543C58.8669 19.7167 58.3495 20.8724 57.9967 22.1516C57.6471 23.4204 57.4707 24.7865 57.4784 26.165V26.2303C57.4784 32.1663 60.3411 36.5623 64.5079 36.5623C66.6028 36.5698 68.6299 35.4404 70.2114 33.3815V25.7524H65.9865V25.7543ZM49.7163 36.2132H52.6589V29.7359L57.8054 16.1148H54.4559L51.2094 25.058L48.021 16.1167H44.5698L49.7163 29.8218V36.2132ZM108.673 29.0396C109.534 28.6207 110.283 27.7814 110.807 26.6484C111.322 25.5315 111.58 24.1799 111.537 22.8106V22.7546C111.56 21.9111 111.47 21.0695 111.274 20.2812C111.077 19.4871 110.776 18.7632 110.392 18.1532C109.515 16.841 108.195 16.113 106.492 16.113H100.825V36.2244H103.768V20.1076H106.247C107.674 20.1076 108.558 21.0839 108.558 22.973V23.0383C108.558 24.7314 107.731 25.8812 106.303 25.8812H104.855V29.7882H105.639L108.5 36.2132H111.935L108.673 29.0396Z" fill="white"/>
<path d="M37.4834 29.6277C37.3922 31.8668 37.1222 34.08 36.6793 36.2171C29.8205 35.6011 23.3893 31.0203 18.7417 23.4416C14.0965 31.0184 7.66766 35.5973 0.811328 36.2152C0.367928 34.0785 0.0954686 31.8663 0 29.6277C2.31342 29.5078 4.60123 28.8418 6.78367 27.6528C4.86686 25.2731 2.67586 23.4726 0.325742 22.3459C0.616367 20.1731 1.07895 18.06 1.70258 16.0515C5.19612 17.7295 8.39428 20.6175 11.0522 24.4944C12.6293 22.9965 14.078 21.1991 15.3644 19.1445C11.0849 18.0227 7.17602 14.8008 4.25402 9.9848C5.19985 8.26048 6.27546 6.71583 7.45816 5.38347C9.17302 8.24188 11.3225 10.3973 13.7127 11.6555C12.8327 8.46509 12.2351 5.1067 11.9362 1.67067C13.3345 0.85728 14.7893 0.296645 16.2714 0C16.5676 4.23385 17.4047 8.3354 18.7344 12.068C20.0721 8.33796 20.917 4.23631 21.2205 0C22.7039 0.2912 24.1594 0.849334 25.5544 1.66133C25.2572 5.1043 24.66 8.46974 23.7792 11.6667C26.1687 10.4111 28.3181 8.25896 30.0337 5.404C31.2148 6.73083 32.2899 8.26845 33.2366 9.9848C30.3146 14.8008 26.4069 18.0227 22.1262 19.1445C23.4104 21.1984 24.8566 22.9957 26.4311 24.4944C29.088 20.6137 32.2858 17.7218 35.7796 16.0403C36.4019 18.049 36.8646 20.1662 37.1576 22.3459C34.8101 23.4739 32.6216 25.2744 30.707 27.6528C32.8854 28.84 35.1753 29.5064 37.4906 29.6277H37.4834ZM20.9589 55.7947V46.3643L27.3224 33.9379C25.9542 33.0365 24.6357 31.9659 23.3796 30.7365L18.7417 39.788L14.1038 30.7365C12.8477 31.9659 11.5291 33.0365 10.161 33.9379L16.5245 46.3643V55.8059C17.9945 56.0672 19.4816 56.0672 20.9516 55.8059L20.9589 55.7947Z" fill="#FA6432"/>
</g>
</svg>
